<?xml version="1.0" encoding="UTF-8" standalone="no"?>
<!-- Generator: Adobe Illustrator 25.0.0, SVG Export Plug-In . SVG Version: 6.00 Build 0)  -->

<svg
   version="1.1"
   id="svg373"
   x="0px"
   y="0px"
   viewBox="0 0 384 366"
   xml:space="preserve"
   sodipodi:docname="CBMAvatar-BlackYellow.svg"
   width="384"
   height="366"
   inkscape:version="1.2.2 (b0a8486541, 2022-12-01)"
   xmlns:inkscape="http://www.inkscape.org/namespaces/inkscape"
   xmlns:sodipodi="http://sodipodi.sourceforge.net/DTD/sodipodi-0.dtd"
   xmlns="http://www.w3.org/2000/svg"
   xmlns:svg="http://www.w3.org/2000/svg"><defs
   id="defs19" />
<style
   type="text/css"
   id="style2">
	.st0{fill:#FFF793;}
</style>
<sodipodi:namedview
   bordercolor="#ffffff"
   borderopacity="1"
   id="namedview375"
   inkscape:current-layer="layer1"
   inkscape:cx="143.90848"
   inkscape:cy="572.47109"
   inkscape:deskcolor="#505050"
   inkscape:document-units="px"
   inkscape:pagecheckerboard="1"
   inkscape:pageopacity="0"
   inkscape:showpageshadow="0"
   inkscape:window-height="923"
   inkscape:window-maximized="1"
   inkscape:window-width="1536"
   inkscape:window-x="0"
   inkscape:window-y="0"
   inkscape:zoom="0.63234634"
   pagecolor="#505050"
   showgrid="false">
	</sodipodi:namedview>
<g
   id="layer1"
   inkscape:groupmode="layer"
   inkscape:label="Layer 1">
	<path
   id="path4"
   d="m 230.4,366 c -25.6,0 -51.2,0 -76.8,0 0,-5.22857 0,-12.2 0,-17.42857 -9.6,0 -17.6,0 -25.6,0 0,-17.42857 0,-34.85714 0,-52.28572 17.6,0 33.6,0 51.2,0 0,-12.2 0,-22.65714 0,-34.85714 -8,0 -16,0 -25.6,0 0,-12.2 0,-22.65714 0,-34.85714 -9.6,0 -17.6,0 -25.6,0 0,-6.97143 0,-12.2 0,-17.42857 -9.6,0 -16,0 -25.6,0 0,-5.22857 0,-12.2 0,-17.42857 -9.6,0 -17.6,0 -25.6,0 0,-5.22858 0,-12.2 0,-17.42858 -9.6,0 -17.6,0 -25.6,0 0,5.22858 0,12.2 0,17.42858 -8,0 -16,0 -25.6,0 0,-24.4 0,-47.05715 0,-69.71429 C 16,122 8,122 0,122 0,104.57143 0,87.142857 0,69.714286 c 8,0 16,0 25.6,0 0,-12.2 0,-22.657143 0,-34.857143 8,0 16,0 25.6,0 0,-5.228572 0,-10.457143 0,-17.428572 17.6,0 33.6,0 51.2,0 0,-6.971428 0,-12.1999996 0,-17.428571 59.2,0 120,0 179.2,0 0,5.2285714 0,12.2 0,17.428571 17.6,0 33.6,0 51.2,0 0,5.228572 0,10.457143 0,17.428572 8,0 16,0 25.6,0 0,12.2 0,22.657143 0,34.857143 9.6,0 17.6,0 25.6,0 0,17.428571 0,34.857144 0,52.285714 -8,0 -16,0 -25.6,0 0,24.4 0,47.05714 0,69.71429 -9.6,0 -17.6,0 -25.6,0 0,-5.22858 0,-12.2 0,-17.42858 -9.6,0 -17.6,0 -25.6,0 0,5.22858 0,12.2 0,17.42858 -8,0 -16,0 -25.6,0 0,6.97142 0,12.2 0,17.42857 -9.6,0 -16,0 -25.6,0 0,5.22857 0,12.2 0,17.42857 -9.6,0 -17.6,0 -25.6,0 0,12.2 0,22.65714 0,34.85714 -8,0 -16,0 -24,0 0,12.2 0,22.65714 0,34.85714 17.6,0 33.6,0 51.2,0 0,17.42858 0,34.85715 0,52.28572 -9.6,0 -17.6,0 -25.6,0 -1.6,6.97143 -1.6,12.2 -1.6,17.42857 z M 204.8,122 c 17.6,0 33.6,0 49.6,0 0,-6.97143 0,-12.2 0,-17.42857 -17.6,0 -33.6,0 -49.6,0 0,6.97143 0,12.2 0,17.42857 -17.6,0 -33.6,0 -51.2,0 0,-17.42857 0,-34.857143 0,-52.285714 17.6,0 33.6,0 51.2,0 0,5.228571 0,12.2 0,17.428571 17.6,0 33.6,0 49.6,0 0,-5.228571 0,-10.457143 0,-17.428571 -17.6,0 -33.6,0 -51.2,0 0,-5.228572 0,-12.2 0,-17.428572 -17.6,0 -33.6,0 -51.2,0 0,5.228572 0,12.2 0,17.428572 -6.4,0 -14.4,0 -24,0 0,17.428571 0,34.857144 0,52.285714 9.6,0 17.6,0 25.6,0 0,5.22857 0,12.2 0,17.42857 17.6,0 33.6,0 51.2,0 0,-6.97143 0,-12.2 0,-17.42857 z"
   style="stroke-width:16.699" />
	<path
   id="path10"
   class="st0"
   d="m 153.6,122 c -8,0 -16,0 -25.6,0 0,-17.42857 0,-34.857143 0,-52.285714 8,0 16,0 25.6,0 v 0 c 0,17.428571 0,34.857144 0,52.285714 z"
   style="stroke-width:16.699" />
	<path
   id="path12"
   class="st0"
   d="m 153.6,69.714286 c 0,-5.228572 0,-10.457143 0,-17.428572 17.6,0 33.6,0 51.2,0 0,5.228572 0,12.2 0,17.428572 v 0 c -17.6,0 -33.6,0 -51.2,0 0,0 0,0 0,0 z"
   style="stroke-width:16.699" />
	<path
   id="path14"
   class="st0"
   d="m 204.8,69.714286 c 16,0 33.6,0 51.2,0 0,5.228571 0,10.457143 0,17.428571 -16,0 -32,0 -49.6,0 -1.6,-6.971428 -1.6,-12.2 -1.6,-17.428571 z"
   style="stroke-width:16.699" />
	<path
   id="path16"
   class="st0"
   d="m 204.8,122 c 0,-5.22857 0,-12.2 0,-17.42857 16,0 32,0 49.6,0 0,5.22857 0,10.45714 0,17.42857 -16,0 -32,0 -49.6,0 0,0 0,0 0,0 z"
   style="stroke-width:16.699" />
	<path
   id="path18"
   class="st0"
   d="m 153.6,122 c 17.6,0 35.2,0 51.2,0 0,0 0,0 0,0 0,5.22857 0,10.45714 0,17.42857 -17.6,0 -33.6,0 -51.2,0 0,-6.97143 0,-12.2 0,-17.42857 0,0 0,0 0,0 z"
   style="stroke-width:16.699" />
	<path
   id="path20"
   d="m 51.2,191.71429 c 8,0 17.6,0 25.6,0 0,12.2 0,22.65714 0,34.85714 -8,0 -16,0 -25.6,0 0,-12.2 0,-22.65714 0,-34.85714 z"
   style="stroke-width:16.699" />
	<path
   id="path22"
   d="m 76.8,226.57143 c 8,0 16,0 25.6,0 0,12.2 0,24.4 0,34.85714 -8,0 -16,0 -25.6,0 0,-12.2 0,-22.65714 0,-34.85714 z"
   style="stroke-width:16.699" />
	<path
   id="path24"
   d="m 102.4,261.42857 c 8,0 16,0 25.6,0 0,12.2 0,24.4 0,34.85714 -8,0 -16,0 -25.6,0 0,-12.2 0,-22.65714 0,-34.85714 z"
   style="stroke-width:16.699" />
	<path
   id="path26"
   d="m 307.2,191.71429 c 8,0 17.6,0 25.6,0 0,12.2 0,22.65714 0,34.85714 -9.6,0 -17.6,0 -25.6,0 0,-12.2 0,-22.65714 0,-34.85714 z"
   style="stroke-width:16.699" />
	<path
   id="path28"
   d="m 281.6,261.42857 c 0,-12.2 0,-22.65714 0,-34.85714 9.6,0 17.6,0 25.6,0 0,12.2 0,22.65714 0,34.85714 -9.6,0 -17.6,0 -25.6,0 z"
   style="stroke-width:16.699" />
	<path
   id="path30"
   d="m 256,296.28571 c 0,-12.2 0,-22.65714 0,-34.85714 9.6,0 17.6,0 25.6,0 0,12.2 0,22.65714 0,34.85714 -9.6,0 -17.6,0 -25.6,0 z"
   style="stroke-width:16.699" />
</g>
</svg>
