<?xml version="1.0" encoding="UTF-8" standalone="no"?>
<!-- Generator: Adobe Illustrator 25.0.0, SVG Export Plug-In . SVG Version: 6.00 Build 0)  -->

<svg
   version="1.1"
   id="Layer_1"
   inkscape:version="1.2.2 (b0a8486541, 2022-12-01)"
   sodipodi:docname="CBMAvatar-Cyan.svg"
   x="0px"
   y="0px"
   viewBox="0 0 384 366"
   style="enable-background:new 0 0 384 366;"
   xml:space="preserve"
   xmlns:inkscape="http://www.inkscape.org/namespaces/inkscape"
   xmlns:sodipodi="http://sodipodi.sourceforge.net/DTD/sodipodi-0.dtd"
   xmlns="http://www.w3.org/2000/svg"
   xmlns:svg="http://www.w3.org/2000/svg"><defs
   id="defs7" />
<style
   type="text/css"
   id="style2">
	.st0{fill:#7EE7D0;}
</style>
<sodipodi:namedview
   bordercolor="#ffffff"
   borderopacity="1"
   id="namedview17"
   inkscape:current-layer="Layer_1"
   inkscape:cx="77.73572"
   inkscape:cy="131.00639"
   inkscape:deskcolor="#505050"
   inkscape:pagecheckerboard="1"
   inkscape:pageopacity="0"
   inkscape:showpageshadow="0"
   inkscape:window-height="923"
   inkscape:window-maximized="1"
   inkscape:window-width="1536"
   inkscape:window-x="0"
   inkscape:window-y="0"
   inkscape:zoom="2.5342275"
   pagecolor="#505050"
   showgrid="false">
	</sodipodi:namedview>
<path
   id="path4"
   class="st0"
   d="m 224.2,366 c -53.2,0 -106.5,0 -159.7,0 0,-5.20427 0,-12.21001 0,-17.41427 -4.8,0 -8.1,0 -12.9,0 0,-5.20427 0,-10.50862 0,-17.41428 -4.8,0 -8.1,0 -12.9,0 0,-5.20426 0,-10.50861 0,-17.41427 -4.8,0 -8.1,0 -12.9,0 0,-5.20427 0,-12.21001 0,-17.41428 -4.8,0 -8.1,0 -12.9,0 0,-7.00574 0,-12.21 0,-17.41427 -4.8,0 -9.7,0 -12.9,0 0,-64.55291 0,-127.30435 0,-191.85726 4.8,0 8.1,0 12.9,0 0,-5.204266 0,-12.210008 0,-17.414274 4.8,0 8.1,0 12.9,0 0,-5.204266 0,-12.210008 0,-17.414274 3.2,0 6.5,0 11.3,0 0,-5.204266 0,-10.508614 0,-17.414274 4.8,0 8.1,0 12.9,0 0,-5.204266 0,-10.508614 0,-17.414274 4.8,0 8.1,0 12.9,0 0,-7.005742 0,-12.2100082 0,-17.414274 53.2,0 106.5,0 159.7,0 0,29.624282 0,57.54717 0,87.171452 1.6,0 3.2,0 6.5,0 50,0 100,0 150.1,0 1.6,0 3.2,0 4.8,0 0,5.204266 0,12.210008 0,17.414278 -4.8,0 -8.1,0 -12.9,0 0,5.20426 0,10.50861 0,17.41427 -4.8,0 -8.1,0 -12.9,0 0,5.20427 0,10.50861 0,17.41427 -4.8,0 -8.1,0 -12.9,0 0,5.20427 0,10.50862 0,17.41428 -4.8,0 -8.1,0 -12.9,0 0,7.00574 0,10.50861 0,17.41427 -40.3,0 -79.1,0 -119.4,0 0,-29.62428 0,-57.54717 0,-85.470055 -32.3,0 -62.9,0 -93.6,0 0,5.204265 0,10.508613 0,17.414275 -8.1,-1.7014 -11.3,-1.7014 -16.1,-1.7014 0,5.20427 0,12.21001 0,17.41428 -4.8,0 -9.7,0 -12.9,0 0,41.83429 0,81.96718 0,122.10008 4.8,0 8.1,0 12.9,0 0,5.20427 0,10.50861 0,17.41427 4.8,0 8.1,0 12.9,0 0,5.20427 0,10.50862 0,15.71288 32.3,0 62.9,0 93.6,0 0,-29.62428 0,-57.54717 0,-85.47005 40.3,0 79.1,0 119.4,0 0,5.20426 0,10.50861 0,17.41427 4.8,0 8.1,0 12.9,0 0,7.00574 0,12.21001 0,17.41427 4.8,0 8.1,0 12.9,0 0,5.20427 0,12.21001 0,17.41428 4.8,0 8.1,0 12.9,0 0,7.00574 0,12.21001 0,17.41427 4.8,0 9.7,0 12.9,0 0,5.20427 0,12.21001 0,17.41428 -1.6,0 -1.6,0 -3.2,0 -51.6,0 -101.6,0 -153.3,0 -1.6,0 -3.2,0 -4.8,0 4.7,29.72436 4.7,57.64725 4.7,87.27153 z"
   style="stroke-width:1.00041" />
</svg>
