<?xml version="1.0" encoding="UTF-8" standalone="no"?>
<!-- Generator: Adobe Illustrator 25.0.0, SVG Export Plug-In . SVG Version: 6.00 Build 0)  -->

<svg
   version="1.1"
   id="Layer_1"
   x="0px"
   y="0px"
   viewBox="0 0 384 366"
   xml:space="preserve"
   sodipodi:docname="CBMAvatar-Yamo.svg"
   width="384"
   height="366"
   inkscape:version="1.2.2 (b0a8486541, 2022-12-01)"
   xmlns:inkscape="http://www.inkscape.org/namespaces/inkscape"
   xmlns:sodipodi="http://sodipodi.sourceforge.net/DTD/sodipodi-0.dtd"
   xmlns="http://www.w3.org/2000/svg"
   xmlns:svg="http://www.w3.org/2000/svg"><defs
   id="defs285" /><sodipodi:namedview
   id="namedview283"
   pagecolor="#505050"
   bordercolor="#ffffff"
   borderopacity="1"
   inkscape:showpageshadow="0"
   inkscape:pageopacity="0"
   inkscape:pagecheckerboard="1"
   inkscape:deskcolor="#505050"
   showgrid="false"
   inkscape:zoom="1.13"
   inkscape:cx="230.97345"
   inkscape:cy="300"
   inkscape:window-width="1536"
   inkscape:window-height="923"
   inkscape:window-x="0"
   inkscape:window-y="0"
   inkscape:window-maximized="1"
   inkscape:current-layer="Layer_1" />
<style
   type="text/css"
   id="style260">
	.st0{fill:#76BA61;}
</style>









<g
   id="g455"
   transform="matrix(3.9958377,0,0,2.9047619,-1198.7513,-377.61905)"><path
     class="st0"
     d="m 300,196 c 0,-6 0,-12 0,-18 3.9,0 7.8,0 12.1,0 0,-6.5 0,-12.3 0,-18.1 3.9,0 7.8,0 12,0 0,-8.3 0,-15.9 0,-24 4.1,0 7.8,0 11.8,0 0,-2.3 0,-4.1 0,-5.9 8,0 16,0 24,0 0,1.9 0,3.8 0,6.2 4.4,0 8.1,0 11.9,0 0,2.3 0,4.1 0,5.9 -3.9,0 -7.8,0 -11.6,0 0,2.3 0,3.9 0,5.9 4,0 7.8,0 11.6,0 0,6 0,12.1 0,18.1 -7.9,0 -15.8,0 -23.6,0 0,2.3 0,3.9 0,5.9 8,0 15.8,0 23.6,0 0,1.9 0,3.8 0,6.3 -4.2,0 -8,0 -11.9,0 0.1,2.2 0.2,3.8 0.3,5.7 8.1,0 15.8,0 23.6,0 0.1,6 0.1,11.9 0.2,17.9 -3.9,0 -7.8,0 -12.2,0 0,4.6 0,8.4 0,12.2 -19.9,0 -39.8,0 -59.7,0 0,-5.9 0,-11.8 0,-18.1 -4.5,0 -8.3,0 -12.1,0 z m 47.8,-12.2 c -4.2,0 -7.9,0 -11.6,0 -0.2,-2.1 -0.3,-3.8 -0.5,-5.5 -4,0 -7.7,0 -11.4,0 0,8 0,15.8 0,23.4 8,0 15.6,0 23.4,0 0.1,-5.8 0.1,-11.4 0.1,-17.9 z m -11.6,-36 c 4.2,0 7.7,0 11.5,0 0,-1.9 0,-3.7 0,-5.5 -4,0 -7.7,0 -11.5,0 0,1.9 0,3.5 0,5.5 z"
     id="path262" /><path
     class="st0"
     d="m 312,256 c 0,-12 0.1,-24 0.1,-36.1 3.9,0 7.8,0 11.6,0 0.2,2.4 0.3,4.1 0.5,6.1 4,0 7.7,0 11.8,0 0,2.3 0,4.1 0,5.9 -0.1,1.9 -0.2,3.8 -0.4,6.3 -4.1,0 -7.8,0 -11.4,0 0,4.1 0,7.7 0,11.8 4,0 7.7,0 11.7,0 0,2.3 0,4.1 0,5.9 C 328,256 320,256 312,256 Z"
     id="path264" /><path
     class="st0"
     d="m 371.9,219.9 c 0,9.8 0,19.5 0,29.8 4,0 7.7,0 12.1,0 0,2.4 0,4.3 0,6.2 -8,0 -16,0 -24,0 0,-5.9 0,-11.7 0,-18.1 -4.3,0 -8,0 -12.1,0 0,-2.3 0,-4.1 0,-5.9 0.1,-1.9 0.2,-3.8 0.4,-6.2 4.1,0 7.8,0 11.5,0 0.2,-2.1 0.3,-3.7 0.5,-5.8 4,0 7.8,0 11.6,0 z"
     id="path266" /><path
     d="m 336,130 c 0,1.8 0,3.6 0,5.9 -4,0 -7.8,0 -11.8,0 0,8.1 0,15.7 0,24 -4.2,0 -8.1,0 -12,0 0,-5.9 0,-11.8 0,-17.9 -4.5,0 -8.3,0 -12.1,0 0,-4 0,-8 0,-12 11.9,0 23.9,0 35.9,0 z"
     id="path268" /><path
     d="m 396,202 c -4,0 -8,-0.1 -11.9,-0.1 -0.1,-6 -0.1,-11.9 -0.2,-17.9 0.1,-1.8 0.2,-3.6 0.3,-5.9 4,0 7.9,0 11.9,0 C 396,186 396,194 396,202 Z"
     id="path270" /><path
     d="m 347.9,232 c -4,0 -7.9,0 -11.9,0 0,-1.8 0,-3.6 0,-5.9 -4.1,0 -7.8,0 -11.8,0 -0.2,-2.1 -0.3,-3.7 -0.5,-6.1 -3.8,0 -7.7,0 -11.6,0 0,-2 0,-3.9 0,-5.9 19.9,0 39.8,0 59.7,0 0,2 0,3.9 0,5.9 -3.8,0 -7.6,0 -11.6,0 -0.2,2.1 -0.3,3.7 -0.5,5.8 -3.7,0 -7.4,0 -11.5,0 0,2.4 -0.2,4.3 -0.3,6.2 z"
     id="path272" /><path
     d="m 347.8,183.8 c 0,6.5 0,12.1 0,17.9 -7.8,0 -15.4,0 -23.4,0 0,-7.6 0,-15.4 0,-23.4 3.7,0 7.4,0 11.4,0 0.1,1.7 0.3,3.3 0.5,5.5 3.6,0 7.3,0 11.5,0 z"
     id="path274" /><path
     d="m 371.9,166.1 c 0,2 0,3.9 0,5.9 -7.8,0 -15.6,0 -23.6,0 0,-2 0,-3.6 0,-5.9 7.8,0 15.7,0 23.6,0 z"
     id="path276" /><path
     d="m 336.2,147.8 c 0,-1.9 0,-3.6 0,-5.5 3.8,0 7.6,0 11.5,0 0,1.8 0,3.5 0,5.5 -3.8,0 -7.4,0 -11.5,0 z"
     id="path278" /><path
     d="m 371.9,142.1 c 0,2 0,3.9 0,5.9 -3.8,0 -7.6,0 -11.6,0 0,-2 0,-3.6 0,-5.9 3.8,0 7.7,0 11.6,0 z"
     id="path280" /></g>
</svg>
