<?xml version="1.0" encoding="UTF-8" standalone="no"?>
<!-- Generator: Adobe Illustrator 25.0.0, SVG Export Plug-In . SVG Version: 6.00 Build 0)  -->

<svg
   version="1.1"
   id="Layer_1"
   x="0px"
   y="0px"
   viewBox="0 0 384.00002 366"
   xml:space="preserve"
   sodipodi:docname="CBMAvatar-Printer.svg"
   width="384"
   height="366"
   inkscape:version="1.2.2 (b0a8486541, 2022-12-01)"
   xmlns:inkscape="http://www.inkscape.org/namespaces/inkscape"
   xmlns:sodipodi="http://sodipodi.sourceforge.net/DTD/sodipodi-0.dtd"
   xmlns="http://www.w3.org/2000/svg"
   xmlns:svg="http://www.w3.org/2000/svg"><defs
   id="defs224" /><sodipodi:namedview
   id="namedview222"
   pagecolor="#505050"
   bordercolor="#ffffff"
   borderopacity="1"
   inkscape:showpageshadow="0"
   inkscape:pageopacity="0"
   inkscape:pagecheckerboard="1"
   inkscape:deskcolor="#505050"
   showgrid="false"
   inkscape:zoom="3.67"
   inkscape:cx="10.354223"
   inkscape:cy="62.39782"
   inkscape:window-width="1536"
   inkscape:window-height="923"
   inkscape:window-x="0"
   inkscape:window-y="0"
   inkscape:window-maximized="1"
   inkscape:current-layer="Layer_1" />
<style
   type="text/css"
   id="style193">
	.st0{fill:#F5FE00;}
	.st1{fill:#5795EB;}
</style>













<g
   id="g1104"
   transform="matrix(2.6714029,0,0,2.7040461,-28.80106,-15.376603)"><path
     d="m 34.585169,90.614709 c -3.9,0 -7.9,0 -12,0 0,-6.2 0,-12.1 0,-18 40,0 80.000001,0 120.000001,0 0,5.9 0,11.8 0,18 -4.1,0 -8.1,0 -12,0 -4,0 -8,0 -12,0 -24.000001,0 -48.000001,0 -72.000001,0 -4,0 -8,0 -12,0 z m 35.9,-11.8 c -12.2,0 -24,0 -35.6,0 0,2.1 0,4 0,5.7 12,0 23.8,0 35.6,0 0,-2 0,-3.8 0,-5.7 z m 12.3,-0.1 c 0,2.2 0,4 0,5.9 2.1,0 4.1,0 6.1,0 1.9,0 3.9,-0.1 5.6,-0.1 0,-2.2 0,-4 0,-5.8 -4,0 -7.8,0 -11.7,0 z m 35.600001,5.8 c 0,-2.2 0,-4 0,-5.9 -2.1,0 -4.1,0 -6.1,0 -1.9,0 -3.9,0.1 -5.6,0.1 0,2.2 0,4 0,5.8 4,0 7.8,0 11.7,0 z"
     id="path205" /><path
     class="st1"
     d="m 34.585169,90.614709 c 4,0 8,0 12,0 0,11.900001 0,23.800001 0,36.000001 -4.1,0 -8.1,0 -12,0 -4,0 -8,0 -12,0 0,-1.8 0,-3.7 0,-5.9 1.9,0 3.8,-0.1 5.8,-0.1 2,0 3.9,0 6.2,0 0,-10.1 0,-20.1 0,-30.000001 z"
     id="path207" /><path
     class="st1"
     d="m 118.58517,90.614709 c 4,0 8,0 12,0 0,11.900001 0,23.800001 0,36.000001 -4.1,0 -8.1,0 -12,0 -4,0 -8,0 -12,0 0,-1.8 0,-3.7 0,-5.9 1.9,0 3.8,-0.1 5.8,-0.1 2,0 3.9,0 6.2,0 0,-10.1 0,-20.1 0,-30.000001 z"
     id="path209" /><path
     class="st1"
     d="m 142.58517,72.614709 c -40,0 -80.000001,0 -120.000001,0 0,-2 0,-4 0,-6 0,-4 0,-8 0,-12 0,-1.9 0,-3.9 0,-6 8.2,0 16.1,0 24,0 0,4 0,7.9 0,11.8 16.5,0.7 67.700001,0.4 72.000001,-0.3 0,-3.8 0,-7.7 0,-11.5 7.9,0 15.8,0 24,0 0,2.1 0,4.1 0,6 0,4 0,8 0,12 0,2 0,4 0,6 z"
     id="path211" /><path
     d="m 118.58517,48.614709 c 0,3.8 0,7.7 0,11.5 -4.3,0.7 -55.500001,1 -72.000001,0.3 0,-3.9 0,-7.9 0,-11.8 4,0 8,0 12,0 16,0 32,0 48.000001,0 4,0 8,0 12,0 z"
     id="path213" /><path
     class="st1"
     d="m 70.485169,78.814709 c 0,1.9 0,3.7 0,5.7 -11.8,0 -23.6,0 -35.6,0 0,-1.7 0,-3.6 0,-5.7 11.6,0 23.4,0 35.6,0 z"
     id="path215" /><path
     class="st1"
     d="m 82.785169,78.714709 c 3.9,0 7.7,0 11.7,0 0,1.8 0,3.6 0,5.8 -1.7,0 -3.7,0.1 -5.6,0.1 -2,0 -3.9,0 -6.1,0 0,-1.9 0,-3.7 0,-5.9 z"
     id="path217" /><path
     class="st1"
     d="m 118.38517,84.514709 c -3.9,0 -7.7,0 -11.7,0 0,-1.8 0,-3.6 0,-5.8 1.7,0 3.7,-0.1 5.6,-0.1 2,0 3.9,0 6.1,0 0,1.9 0,3.7 0,5.9 z"
     id="path219" /><rect
     style="fill:#000000;fill-opacity:1;stroke-width:1.21438"
     id="rect438"
     width="11.875252"
     height="11.928902"
     x="142.6507"
     y="54.663643" /><rect
     style="fill:#000000;fill-opacity:1;stroke-width:1.02546"
     id="rect440"
     width="13.928915"
     height="14.401002"
     x="106.6349"
     y="126.63824" /><rect
     style="fill:#ffffff"
     id="rect442"
     width="61.856232"
     height="42.856773"
     x="51.545818"
     y="5.6865168" /><rect
     style="fill:#000000;fill-opacity:1;stroke-width:1.02546"
     id="rect440-3"
     width="13.928915"
     height="14.401002"
     x="22.51512"
     y="126.62371" /><rect
     style="fill:#000000;fill-opacity:1;stroke-width:1.21438"
     id="rect438-6"
     width="11.875252"
     height="11.928902"
     x="10.781249"
     y="54.57336" /></g></svg>
