<?xml version="1.0" encoding="UTF-8" standalone="no"?>
<!-- Generator: Adobe Illustrator 25.0.0, SVG Export Plug-In . SVG Version: 6.00 Build 0)  -->

<svg
   version="1.1"
   id="Layer_1"
   x="0px"
   y="0px"
   viewBox="0 0 114.1 198"
   xml:space="preserve"
   sodipodi:docname="1.svg"
   width="114.1"
   height="198"
   inkscape:version="1.2.2 (b0a8486541, 2022-12-01)"
   xmlns:inkscape="http://www.inkscape.org/namespaces/inkscape"
   xmlns:sodipodi="http://sodipodi.sourceforge.net/DTD/sodipodi-0.dtd"
   xmlns="http://www.w3.org/2000/svg"
   xmlns:svg="http://www.w3.org/2000/svg"><defs
   id="defs269" /><sodipodi:namedview
   id="namedview267"
   pagecolor="#505050"
   bordercolor="#ffffff"
   borderopacity="1"
   inkscape:showpageshadow="0"
   inkscape:pageopacity="0"
   inkscape:pagecheckerboard="1"
   inkscape:deskcolor="#505050"
   showgrid="false"
   inkscape:zoom="4.4500587"
   inkscape:cx="27.752443"
   inkscape:cy="58.20148"
   inkscape:window-width="1536"
   inkscape:window-height="923"
   inkscape:window-x="0"
   inkscape:window-y="0"
   inkscape:window-maximized="1"
   inkscape:current-layer="Layer_1" />
<style
   type="text/css"
   id="style238">
	.st0{fill:#FEFEFE;}
	.st1{fill:#2337AA;}
	.st2{fill:#7D3F00;}
</style>


<path
   class="st1"
   d="m 24,198 c 0,-1.8 0,-3.7 0,-5.8 1.9,-0.1 3.8,-0.2 5.9,-0.3 0,-1.8 0,-3.6 0,-5.7 2,0 4,0 6,0 0,-12.1 0,-23.9 0,-35.9 2,-0.1 3.9,-0.2 6,-0.3 0,-7.8 0,-15.6 0,-23.7 2,-0.1 3.9,-0.2 6,-0.3 0,-5.8 0,-11.6 0,-17.7 2,-0.1 3.9,-0.2 6.2,-0.3 0,-4 0,-7.9 0,-11.9 10,0 20,0 30,0 0,3.9 0,7.9 0,11.9 2.2,0.1 4.1,0.2 6,0.3 0,2.2 0,4 0,5.8 0,3.9 0,7.8 0,12 2.1,0 4.1,0 6,0 0,7.9 0,15.8 0,24.1 2.2,0 4.1,0 6,0 0,11.9 0,23.5 0,35.1 0,0.1 0.1,0.3 0.2,0.4 0.1,0.1 0.2,0.2 0.5,0.5 1.7,0 3.4,0 5.2,0 0.1,2.1 0.2,4 0.3,5.8 2.2,0 4,0 5.8,0 0,2 0,4 0,6 -8,0 -16,0 -24,0 0,-7.9 0,-15.9 0,-24 -2.1,0 -3.9,0 -6,0 0,-6.1 0,-12 0,-18.1 -2.1,0 -3.9,0 -6.1,0 0,-4.1 0,-8 0,-12.1 -2.1,0 -3.9,0 -5.9,0 0,-2.1 0,-4.1 0,-6.1 0,-1.9 -0.1,-3.9 -0.1,-5.6 -2.2,0 -4,0 -5.9,0 0,4 0,7.7 0,11.9 -2.1,0 -4,0 -6.1,0 0,4.1 0,7.9 0,12.1 -2.1,0 -4,0 -6.1,0 0,6.1 0,11.9 0,17.8 -2.1,0.1 -4,0.2 -5.9,0.3 0,8.2 0,16 0,23.8 -8,0 -16,0 -24,0 z"
   id="path244" />

<path
   class="st2"
   d="m 0,18 c 7.9,0 15.9,0 23.9,0 0,2.1 0,3.9 0,5.8 -1.8,0 -3.6,0 -5.8,0 0,2.1 -0.1,4 -0.1,5.9 0,2 0,3.9 0,6.1 2,0 3.7,0 5.9,0 0,6.1 0,12 0,18.1 10.3,0 20.2,0 30.1,0 0,5.9 0,11.8 0,18 -2.1,0 -4.1,0 -6,0 -7.9,0 -15.9,0 -24,0 0,-2.1 0,-3.9 0,-5.8 -3.9,0 -7.7,0 -11.8,0 -0.1,-2 -0.2,-4 -0.3,-6 -1.8,0 -3.6,0 -5.7,0 0,-12 0,-23.9 0,-36.2 -2.3,0 -4.2,0 -6.2,0 C 0,22 0,20 0,18 Z"
   id="path248" />

<path
   class="st2"
   d="m 114,102 c -1.8,0 -3.7,0 -5.5,0 -0.1,0.1 -0.3,0.2 -0.4,0.3 -0.1,0.1 -0.2,0.3 -0.2,0.4 0,5.6 0,11.2 0,17.1 -1.9,0 -3.7,0 -5.8,0 -0.1,2 -0.2,3.9 -0.3,6.2 -2,0 -3.9,0 -5.9,0 -1.9,0 -3.9,0 -6,0 0,-4.2 0,-8.1 0,-12 2,0 3.9,0 6,0 0,-10 0,-19.6 0,-29.2 0,-0.1 -0.1,-0.3 -0.2,-0.4 -0.1,-0.1 -0.2,-0.2 -0.3,-0.3 -1.9,0 -3.7,0 -5.5,0 0,-3.9 0,-7.9 0,-11.9 -2.2,-0.1 -4.1,-0.2 -6,-0.3 0,-6.2 0,-12 0,-17.8 3.8,0 7.6,0 11.9,0 0.3,3.9 0,7.8 0.2,11.8 1.9,0 3.6,0 5.8,0 0,2.1 0.1,4 0.1,5.9 0,2 0,3.9 0,6.1 1.9,0 3.7,0 5.9,0 0,2.1 0.1,4 0.1,5.9 0,2 0,3.9 0,6.2 2.1,0 4,0 6,0 0.1,4 0.1,8 0.1,12 z"
   id="path252" />
<path
   d="m 84,54 c 0,5.8 0,11.6 0,17.8 1.9,0.1 3.8,0.2 6,0.3 0,4 0,7.9 0,11.9 0,2 0,3.9 0,5.9 -2.2,0.1 -4.1,0.2 -6,0.3 0,2.2 0,4 0,5.8 -10,0 -20,0 -30,0 0,-1.8 0,-3.7 0,-5.8 -1.9,-0.1 -3.8,-0.2 -6,-0.3 0,-6 0,-11.9 0,-17.9 1.9,0 3.9,0 6,0 0,-6.2 0,-12.1 0,-18 2,0 4,0 6,0 0,3.9 0,7.9 0,11.9 2.2,0.1 4.1,0.2 6.2,0.3 0,2.1 0,3.9 0,5.6 2.1,0 4,0 6,0 0,-2 0,-3.8 0,-5.8 2,0 3.7,0 5.8,0 0,-4.1 0,-8 0,-12 2,0 4,0 6,0 z"
   id="path254" />
<path
   class="st2"
   d="m 78,54 c 0,3.9 0,7.9 0,12 -2.1,0 -3.9,0 -5.8,0 0,1.9 0,3.7 0,5.8 -2,0 -3.9,0 -6,0 0,-1.7 0,-3.5 0,-5.6 -2,-0.1 -4,-0.2 -6.2,-0.3 0,-4 0,-7.9 0,-11.9 0,-1.8 0,-3.6 0,-5.8 -1.9,-0.1 -3.8,-0.2 -6,-0.3 0,-2 0,-3.9 0,-5.9 1.9,0 3.9,0 6,0 0,-4.2 0,-8.1 0,-12 6,0 12,0 18,0 0,3.9 0,7.8 0,12 2.1,0 4.1,0 6,0 0,1.8 0,3.6 0,5.8 -1.9,0.1 -3.8,0.2 -6,0.3 0,2 0,3.9 0,5.9 z"
   id="path256" />
<path
   d="m 78,30 c -6,0 -12,0 -18,0 0,-1.8 0,-3.7 0,-6 5.9,0 11.8,0 18,0 0,2.1 0,4 0,6 z"
   id="path258" />
<path
   d="m 60,30 c 0,3.9 0,7.8 0,12 -2.1,0 -4.1,0 -6,0 0,-3.9 0,-7.8 0,-12 2.1,0 4.1,0 6,0 z"
   id="path260" />
<path
   d="m 84,42 c -1.9,0 -3.9,0 -6,0 0,-4.2 0,-8.1 0,-12 1.9,0 3.9,0 6,0 0,4.2 0,8.1 0,12 z"
   id="path262" />

<rect
   style="fill:#fff793;fill-opacity:1"
   id="rect523"
   width="7.1646852"
   height="6.8530946"
   x="4.6582174"
   y="10.913978" /><rect
   style="fill:#fff793;fill-opacity:1"
   id="rect523-3"
   width="7.1646852"
   height="6.8530946"
   x="11.899379"
   y="10.937125" /><rect
   style="fill:#fff793;fill-opacity:1"
   id="rect523-6"
   width="7.1646852"
   height="6.8530946"
   x="8.8561287"
   y="4.8132339" /><rect
   style="fill:#fff793;fill-opacity:1"
   id="rect523-7"
   width="7.1646852"
   height="6.8530946"
   x="8.7941418"
   y="1.1466297" /></svg>
