<?xml version="1.0" encoding="UTF-8" standalone="no"?>
<!-- Generator: Adobe Illustrator 25.0.0, SVG Export Plug-In . SVG Version: 6.00 Build 0)  -->

<svg
   version="1.1"
   id="Layer_1"
   x="0px"
   y="0px"
   viewBox="0 0 384 366"
   xml:space="preserve"
   sodipodi:docname="CBMAvatar-Candy.svg"
   width="384"
   height="366"
   inkscape:version="1.2.2 (b0a8486541, 2022-12-01)"
   xmlns:inkscape="http://www.inkscape.org/namespaces/inkscape"
   xmlns:sodipodi="http://sodipodi.sourceforge.net/DTD/sodipodi-0.dtd"
   xmlns="http://www.w3.org/2000/svg"
   xmlns:svg="http://www.w3.org/2000/svg"><defs
   id="defs73" /><sodipodi:namedview
   id="namedview71"
   pagecolor="#505050"
   bordercolor="#ffffff"
   borderopacity="1"
   inkscape:showpageshadow="0"
   inkscape:pageopacity="0"
   inkscape:pagecheckerboard="1"
   inkscape:deskcolor="#505050"
   showgrid="false"
   inkscape:zoom="1.18"
   inkscape:cx="-61.864407"
   inkscape:cy="100"
   inkscape:window-width="1536"
   inkscape:window-height="923"
   inkscape:window-x="0"
   inkscape:window-y="0"
   inkscape:window-maximized="1"
   inkscape:current-layer="Layer_1" />
<style
   type="text/css"
   id="style2">
	.st0{fill:#FEFEFE;}
	.st1{fill:#EA8398;}
	.st2{fill:#104EA4;}
	.st3{fill:#8E5ABA;}
	.st4{fill:#FEF692;}
	.st5{fill:#76BA61;}
</style>
<path
   class="st0"
   d="M 0,366 C 0,244 0,122 0,0 c 128.06702,0 255.93299,0 384,0 0,122 0,244 0,366 -128.06701,0 -255.93298,0 -384,0 z M 337.75917,52.285714 c -4.02095,0 -8.04189,0 -12.06283,0 0,-4.139285 0,-8.278571 0,-13.071428 -4.42304,0 -8.24293,0 -12.26388,-0.435715 0,-8.278571 0,-16.775 0,-25.271428 -4.02094,0 -7.84084,0 -11.66073,0 0,8.714286 0,16.775 0,25.271428 4.02094,0 8.04189,0 11.86177,0.435715 0,4.139285 0,8.278571 0,13.071428 4.42304,0 8.24293,0 12.06284,0 0,8.496429 0,17.210715 0,25.489286 4.42304,0 8.24292,0 12.06283,0 0,-8.932143 0,-17.210714 0,-25.489286 3.81989,0 7.63979,0 12.06281,0 0,-4.792857 0,-8.932143 0.20112,-13.507143 3.61885,0 7.6398,0 11.45968,0 0,-8.714285 0,-17.210714 0,-25.489285 -4.02094,0 -7.63979,0 -11.45968,0 0,8.714285 0,17.428571 -0.20112,25.925 -3.81988,0 -7.63979,0 -12.06281,0 0,4.792857 0,8.932143 0,13.071428 z M 36.590576,65.575 c 0,3.921429 0,8.278571 0,12.417857 8.041885,0 15.882723,0 23.522514,0 0,-4.357143 0,-8.278571 0,-12.417857 -8.041885,0 -16.08377,0 -23.924608,-0.217857 0,-13.071429 0,-26.142857 0.402096,-39.432143 7.63979,0 15.480628,0 23.321465,0 0,-4.357143 0,-8.496429 0,-12.635714 -8.041885,0 -15.480627,0 -23.321465,0 0,4.357143 0,8.714285 -0.402096,12.853571 -4.020943,0 -7.840839,0 -12.062828,0 0,13.071429 0,25.271429 0,37.471429 0,0.217857 0.20104,0.653571 0.402096,0.871428 0.20104,0.217857 0.402096,0.435715 0.804192,0.653572 3.4178,0.217857 7.237696,0.217857 11.258634,0.435714 z M 265.38219,65.357143 c 4.02095,0 7.84085,0 12.06283,0 0,-13.507143 0,-26.360714 0,-39.214286 -4.62408,0 -8.44398,0 -12.06283,0 0,-4.357143 0,-8.496428 0,-13.071428 -12.06281,0 -23.32145,0 -34.58009,0 -0.20112,0 -0.6032,0.217857 -0.80416,0.435714 -0.20112,0.217857 -0.40208,0.435714 -0.40208,0.435714 0,21.567857 0,42.917857 0,64.485714 11.66073,0 22.91937,0 34.37905,0 0.20112,0 0.6032,-0.217857 0.80416,-0.435714 0.20112,-0.217857 0.40208,-0.435714 0.6032,-0.653571 0,-3.921429 0,-8.060715 0,-11.982143 z M 120.62827,26.142857 c 0,-4.357143 0,-8.496428 0,-13.071428 -4.62408,0 -8.64502,0 -12.46492,0 -3.81989,0 -7.84084,0.217857 -11.660732,0.217857 0,4.792857 0,8.932143 0,12.853571 -4.020943,0 -7.840837,0 -11.660733,0 0,17.864286 0,35.075 0,51.85 4.020942,0 7.63979,0 11.258638,0 0.201056,-4.575 0.402096,-8.714286 0.603136,-12.417857 8.242931,0 15.882721,0 23.522511,0 0.20106,4.575 0.4021,8.714286 0.60314,12.2 4.22199,0 7.84083,0 11.66073,0 0,-17.646429 0,-34.639286 -0.20106,-51.85 -4.22196,0.217857 -8.04186,0.217857 -11.66071,0.217857 z M 289.50786,326.78571 c 0,-8.71428 0,-17.21071 0,-25.70714 -36.79164,-1.525 -256.335086,-0.87143 -265.382206,0.65357 0,8.27857 0,16.775 0,25.05357 0,4.35715 0,8.49643 0,12.63572 37.193717,1.525 256.335086,0.87143 265.382206,-0.65357 0,-3.92143 0,-8.06072 0,-11.98215 z M 314.0356,248.575 c 0,17.86429 0,34.85714 0,52.06786 15.68168,0 30.96126,0 46.44189,0 0.20096,0 0.6032,-0.21786 0.80416,-0.43572 0.20096,-0.21785 0.40208,-0.43571 0.40208,-0.43571 0,-17.42857 0,-34.20357 0,-51.41429 -16.08378,0.21786 -31.76546,0.21786 -47.64818,0.21786 z M 157.21885,13.289286 c 0,22.221428 0,43.571428 0,64.485714 4.22198,0 8.04189,0 12.06283,0 0,-8.932143 0,-16.992857 0,-25.271429 4.02094,0 7.63979,0 11.86178,0 0,4.357143 0,8.496429 0,13.071429 4.22198,0 7.84083,0 12.26387,0 0,4.575 0,8.714286 0,12.417857 4.22198,0 7.84083,0 11.86177,0 0,-21.35 0,-42.264286 0,-63.396428 0,-0.217858 -0.20112,-0.653572 -0.40208,-0.871429 -0.20112,-0.217857 -0.40208,-0.435714 -0.40208,-0.435714 -4.02094,0 -7.63979,0 -11.45969,0 0,8.714285 0,16.775 0,25.271428 -4.22199,0 -8.04189,0 -12.06282,0 0,-4.357143 0,-8.278571 0,-12.853571 -4.222,0 -8.04189,0 -12.26389,0 0,-4.575 0,-8.496429 0,-12.635714 -4.02094,0.217857 -7.63979,0.217857 -11.45969,0.217857 z M 47.849214,248.13929 c 0,-17.86429 0,-34.85715 0,-51.63215 -8.242931,0 -16.083769,0 -23.522513,0 0,17.42857 0,34.42143 0,51.63215 8.041885,0 15.681677,0 23.522513,0 z m 48.452357,-51.63215 c -8.443979,0 -16.083769,0 -23.924608,0 0,16.99286 0,33.55 0,50.325 0,0.21786 0.201056,0.65357 0.402096,0.87143 0.20104,0.21786 0.402096,0.43572 0.402096,0.43572 8.041885,0 15.480629,0 23.321466,0 -0.20104,-17.42858 -0.20104,-34.42143 -0.20105,-51.63215 z m 48.251309,0 c -8.44398,0 -16.08377,0 -23.92461,0 0,16.99286 0,33.55 0,50.325 0,0.21786 0.20106,0.65357 0.4021,0.87143 0.20105,0.21786 0.40209,0.43572 0.40209,0.43572 8.04189,0 15.68168,0 23.32147,0 -0.20104,-17.42858 -0.20104,-34.42143 -0.20105,-51.63215 z m 24.7288,-0.21785 c 0,17.86428 0,34.85714 0,52.06785 4.22198,0 8.24293,0 12.26387,0 3.81989,0 7.84083,-0.21785 11.25864,-0.21785 0,-17.86429 0,-34.63929 0,-51.85 -8.04189,0 -15.68168,0 -23.52251,0 z m 48.25131,0 c 0,17.86428 0,34.85714 0,52.06785 4.22199,0 8.24293,0 12.26387,0 3.81989,0 7.84084,-0.21785 11.25864,-0.21785 0,-17.86429 0,-34.63929 0,-51.85 -8.04188,0 -15.68168,0 -23.52251,0 z m 71.57277,51.85 c 0,-17.86429 0,-34.85715 0,-52.06786 -4.22198,0 -8.24293,0 -12.26387,0 -3.81991,0 -7.84085,0.21786 -11.25864,0.21786 0,17.86428 0,34.63928 0,51.85 8.04189,0 15.68168,0 23.52251,0 z M 24.527749,261.64643 c 0,9.15 0,17.42857 0,25.925 4.221989,0 8.242931,0 12.263873,0 3.819896,0 7.840839,-0.21786 11.25864,-0.21786 0,-9.15 0,-17.42857 0,-25.70714 -8.041884,0 -15.681676,0 -23.522513,0 z m 71.773822,0.21786 c -8.443979,0 -16.083769,0 -23.924608,0 0,4.575 0,8.93214 0,13.28928 0,4.13929 0.201056,8.49643 0.201056,12.2 8.443978,0 16.08377,0 23.72356,0 0,-8.71428 0,-16.99286 -8e-6,-25.48928 z m 24.527749,25.27142 c 8.44398,0 16.08377,0 23.92461,0 0,-4.575 0,-8.93214 0,-13.28928 0,-4.13929 -0.20104,-8.49643 -0.20104,-12.2 -8.44398,0 -16.08377,0 -23.72356,0 0,8.71428 0,16.99286 -1e-5,25.48928 z m 48.45236,-25.48928 c 0,9.15 0,17.42857 0,25.925 4.22198,0 8.24293,0 12.26387,0 3.81989,0 7.84083,-0.21786 11.25864,-0.21786 0,-9.15 0,-17.42857 0,-25.70714 -8.04189,0 -15.68168,0 -23.52251,0 z m 47.84922,25.70714 c 3.81988,0 7.63979,0.21786 11.66072,0.21786 4.222,0 8.44398,0.65357 12.26388,-0.43572 0,-8.93214 0,-17.21071 0,-25.70714 -4.222,0 -8.24294,0 -12.26388,0 -3.81989,0 -7.63978,0.21786 -11.45968,0.21786 -0.20112,8.93214 -0.20112,16.775 -0.20112,25.70714 z m 72.1759,0.21786 c 0,-4.13929 0.20112,-8.27857 0.20112,-12.63572 0,-4.575 0.6032,-9.15 -0.40208,-13.28928 -8.24293,0 -15.88272,0 -23.72357,0 0,4.575 0,8.93214 0,13.28928 0,4.13929 0.20112,8.27858 0.20112,12.41786 8.24293,0.21786 15.48063,0.21786 23.72355,0.21786 z m 48.85446,-169.71072 c 0,13.50715 0,26.14286 0,38.56072 4.22199,0 8.04188,0 11.45968,0 0,-13.07143 0,-25.70714 0,-38.56072 -4.02094,0 -7.63979,0 -11.45968,0 z"
   id="path4"
   style="stroke-width:2.09284" />

<path
   d="m 24.125654,326.78571 c 0,-8.27857 0,-16.775 0,-25.05357 9.04712,-1.74285 228.590566,-2.39643 265.382206,-0.65357 0,8.49643 0,17.21072 0,25.70714 -88.46074,0 -176.92147,0 -265.382206,0 z"
   id="path8"
   style="stroke-width:2.09284" />
<path
   class="st1"
   d="m 24.125654,326.78571 c 88.460736,0 176.921466,0 265.382206,0 0,3.92143 0,8.06072 0,11.98215 -9.04712,1.74285 -228.188489,2.39643 -265.382206,0.65357 0,-4.13929 0,-8.27857 0,-12.63572 z"
   id="path10"
   style="stroke-width:2.09284" />
<path
   class="st2"
   d="m 314.0356,248.575 c 15.88272,0 31.5644,0 47.64818,0 0,16.99286 0,33.98571 0,51.41429 0.20096,-0.21786 0,0.21785 -0.40208,0.43571 -0.20112,0.21786 -0.6032,0.43571 -0.80416,0.43571 -15.27959,0 -30.76021,0 -46.44189,0 0,-17.42857 0,-34.42142 0,-52.28571 z"
   id="path12"
   style="stroke-width:2.09284" />
<path
   class="st2"
   d="m 157.21885,13.289286 c 4.02094,0 7.63979,0 11.45968,0 0,4.139285 0,8.060714 0,12.635714 4.222,0 8.04189,0 12.26389,0 0,4.575 0,8.496429 0,12.853571 4.22198,0 8.04187,0 12.06281,0 0,-8.496428 0,-16.775 0,-25.271428 3.81991,0 7.43875,0 11.4597,0 -0.20112,-0.217857 0.20112,0 0.40208,0.435714 0.20112,0.217857 0.40208,0.653572 0.40208,0.871429 0,20.914285 0,42.046428 0,63.396428 -3.81989,0 -7.43874,0 -11.86178,0 0,-3.921428 0,-8.060714 0,-12.417857 -4.22198,0 -7.84083,0 -12.26387,0 0,-4.575 0,-8.714286 0,-13.071428 -4.22198,0 -7.84083,0 -11.86178,0 0,8.278571 0,16.557142 0,25.271428 -4.222,0 -8.04188,0 -12.06283,0 0,-21.132143 0,-42.482143 2e-5,-64.703571 z"
   id="path14"
   style="stroke-width:2.09284" />
<path
   class="st2"
   d="m 120.62827,26.142857 c 3.61885,0 7.43875,0 12.06283,0 0.20106,17.210714 0,34.421429 0.20106,51.85 -3.8199,0 -7.43875,0 -11.66074,0 -0.20105,-3.703571 -0.40209,-7.842857 -0.60313,-12.2 -7.63979,0 -15.27958,0 -23.522517,0 -0.20104,3.703572 -0.402096,7.842857 -0.603136,12.417857 -3.618848,0 -7.237696,0 -11.258639,0 0,-16.775 0,-33.985714 0,-51.85 3.819895,0 7.639791,0 11.660733,0 0,8.496429 0,17.210715 0,26.360715 8.443959,-0.435715 16.284799,0.217857 24.125639,-0.435715 -0.4021,-9.585714 -0.4021,-17.864285 -0.4021,-26.142857 z"
   id="path16"
   style="stroke-width:2.09284" />
<path
   class="st2"
   d="m 265.38219,65.357143 c 0,3.921428 0,8.060714 0,11.982143 -0.20096,0.217857 -0.40208,0.435714 -0.6032,0.653571 -0.20112,0.217857 -0.6032,0.435714 -0.80416,0.435714 -11.25864,0 -22.71832,0 -34.37905,0 0,-21.567857 0,-42.917857 0,-64.485714 -0.20112,0.217857 0,-0.217857 0.40208,-0.435714 0.20112,-0.217857 0.6032,-0.435714 0.80416,-0.435714 11.25864,0 22.71832,0 34.58009,0 0,4.575 0,8.714285 0,13.071428 -7.84083,0 -15.88272,0 -24.12565,0 0,13.071429 0,25.271429 0,37.471429 0,0.217857 0.20112,0.653571 0.40208,0.871428 0.20112,0.217857 0.40208,0.435715 0.80416,0.653572 7.43874,0.217857 15.27959,0.217857 22.91936,0.217857 z"
   id="path18"
   style="stroke-width:2.09284" />
<path
   class="st3"
   d="m 47.849214,248.13929 c -8.041884,0 -15.681675,0 -23.522513,0 0,-17.21072 0,-33.98572 0,-51.63215 7.438744,0 15.279582,0 23.522513,0 0,16.99286 0,33.76786 0,51.63215 z"
   id="path20"
   style="stroke-width:2.09284" />
<path
   class="st1"
   d="m 96.301571,196.50714 c 0,17.21072 0,34.20357 0,51.41429 -7.63979,0 -15.279582,0 -23.321467,0 0.201056,0.21786 -0.20104,0 -0.402096,-0.43572 -0.201056,-0.21785 -0.402096,-0.65357 -0.402096,-0.87142 0,-16.55715 0,-33.33215 0,-50.325 8.041885,0.21785 15.681675,0.21785 24.125659,0.21785 z"
   id="path22"
   style="stroke-width:2.09284" />
<path
   class="st2"
   d="m 144.55288,196.50714 c 0,17.21072 0,34.20357 0,51.63215 -7.63979,0 -15.27958,0 -23.32147,0 0.20104,0.21785 -0.20105,0 -0.40209,-0.43572 -0.20106,-0.21786 -0.4021,-0.65357 -0.4021,-0.87143 0,-16.55714 0,-33.33214 0,-50.325 8.04189,0 15.68168,0 24.12566,0 z"
   id="path24"
   style="stroke-width:2.09284" />
<path
   class="st4"
   d="m 169.28168,196.28929 c 8.04189,0 15.48062,0 23.52251,0 0,17.21071 0,33.98571 0,51.85 -3.41781,0 -7.43875,0.21785 -11.25864,0.21785 -4.02094,0 -7.84083,0 -12.26387,0 0,-17.21071 0,-34.20357 0,-52.06785 z"
   id="path26"
   style="stroke-width:2.09284" />
<path
   class="st1"
   d="m 217.53299,196.28929 c 8.04187,0 15.48063,0 23.52251,0 0,17.21071 0,33.98571 0,51.85 -3.4178,0 -7.43875,0.21785 -11.25864,0.21785 -4.02094,0 -7.84084,0 -12.26387,0 0,-17.21071 0,-34.20357 0,-52.06785 z"
   id="path28"
   style="stroke-width:2.09284" />
<path
   class="st5"
   d="m 289.10576,248.13929 c -8.04189,0 -15.48062,0 -23.52251,0 0,-17.21072 0,-33.98572 0,-51.85 3.41779,0 7.43873,-0.21786 11.25864,-0.21786 4.02094,0 7.84083,0 12.26387,0 0,17.21071 0,34.20357 0,52.06786 z"
   id="path30"
   style="stroke-width:2.09284" />
<path
   class="st1"
   d="m 24.527749,261.64643 c 7.840837,0 15.480629,0 23.522513,0 0,8.27857 0,16.55714 0,25.70714 -3.417801,0 -7.438744,0.21786 -11.25864,0.21786 -4.020942,0 -7.840836,0 -12.263873,0 0,-8.49643 0,-16.775 0,-25.925 z"
   id="path32"
   style="stroke-width:2.09284" />
<path
   class="st1"
   d="m 96.301571,261.86429 c 0,8.49642 0,16.775 0,25.48928 -7.63979,0 -15.279582,0 -23.72356,0 0,-3.70357 -0.201056,-8.06071 -0.201056,-12.2 0,-4.35714 0,-8.49643 0,-13.28928 7.840839,0 15.480629,0 23.924616,0 z"
   id="path34"
   style="stroke-width:2.09284" />
<path
   class="st1"
   d="m 120.82932,287.13571 c 0,-8.49642 0,-16.775 0,-25.48928 7.63979,0 15.27958,0 23.72356,0 0,3.70357 0.20104,8.06071 0.20104,12.2 0,4.35714 0,8.49643 0,13.28928 -7.84084,0 -15.48063,0 -23.9246,0 z"
   id="path36"
   style="stroke-width:2.09284" />
<path
   class="st1"
   d="m 169.28168,261.64643 c 7.84083,0 15.48062,0 23.52251,0 0,8.27857 0,16.55714 0,25.70714 -3.41781,0 -7.43875,0.21786 -11.25864,0.21786 -4.02094,0 -7.84083,0 -12.26387,0 0,-8.49643 0,-16.775 0,-25.925 z"
   id="path38"
   style="stroke-width:2.09284" />
<path
   class="st1"
   d="m 217.1309,287.35357 c 0,-8.71428 0,-16.775 0,-25.70714 3.81988,0 7.63979,-0.21786 11.45968,-0.21786 4.02094,0 7.84083,0 12.26387,0 0,8.49643 0,16.775 0,25.70714 -3.61885,1.08929 -8.04189,0.43572 -12.26387,0.43572 -3.81989,0 -7.6398,-0.21786 -11.45968,-0.21786 z"
   id="path40"
   style="stroke-width:2.09284" />
<path
   class="st1"
   d="m 289.3068,287.57143 c -8.04187,0 -15.48062,0 -23.72355,0 0,-4.13929 -0.20112,-8.27857 -0.20112,-12.41786 0,-4.35714 0,-8.49643 0,-13.28928 7.84085,0 15.48064,0 23.72357,0 1.00528,3.92142 0.40208,8.71428 0.40208,13.28928 0,4.13929 -0.20112,8.27857 -0.20112,12.41786 z"
   id="path42"
   style="stroke-width:2.09284" />
<path
   class="st2"
   d="m 36.188482,26.142857 c 0,13.071429 0,26.142857 0,39.214286 -3.618848,0 -7.438744,0 -11.057592,0 -0.20104,-0.217857 -0.603136,-0.435714 -0.804192,-0.653572 -0.20104,-0.217857 -0.402096,-0.653571 -0.402096,-0.871428 0,-12.2 0,-24.617857 0,-37.471429 4.423041,-0.217857 8.242937,-0.217857 12.26388,-0.217857 z"
   id="path44"
   style="stroke-width:2.09284" />
<path
   class="st2"
   d="m 265.38219,26.142857 c 3.61885,0 7.43875,0 12.06283,0 0,12.853572 0,25.707143 0,39.214286 -4.22198,0 -8.04188,0 -12.06283,0 0,-13.071429 0,-26.142857 0,-39.214286 z"
   id="path46"
   style="stroke-width:2.09284" />
<path
   class="st5"
   d="m 338.16126,117.86071 c 4.02093,0 7.43874,0 11.45968,0 0,12.85358 0,25.27143 0,38.56072 -3.4178,0 -7.23769,0 -11.45968,0 0,-12.41786 0,-25.05357 0,-38.56072 z"
   id="path48"
   style="stroke-width:2.09284" />
<path
   class="st2"
   d="m 36.590576,25.925 c 0,-3.921429 0,-8.278571 0,-12.635714 7.840838,0 15.480629,0 23.321466,0 0,4.139285 0,8.060714 0,12.635714 -8.041885,0 -15.882722,0 -23.321466,0 z"
   id="path50"
   style="stroke-width:2.09284" />
<path
   class="st2"
   d="m 96.502618,26.142857 c 0,-3.921428 0,-8.060714 0,-12.853571 3.819892,0 7.639792,-0.217857 11.660732,-0.217857 4.02094,0 7.84084,0 12.46492,0 0,4.575 0,8.714285 0,13.071428 -8.04188,0 -16.08377,0 -24.125652,0 z"
   id="path52"
   style="stroke-width:2.09284" />
<path
   class="st2"
   d="m 313.43246,38.778571 c -3.61884,0 -7.63979,0 -11.66073,0 0,-8.496428 0,-16.775 0,-25.271428 3.81989,0 7.43873,0 11.66073,0 0,8.714286 0,17.210714 0,25.271428 z"
   id="path54"
   style="stroke-width:2.09284" />
<path
   class="st2"
   d="m 350.02304,38.778571 c 0,-8.278571 0,-16.775 0,-25.489285 3.81989,0 7.43874,0 11.45968,0 0,8.278571 0,16.775 0,25.489285 -3.81989,0 -7.84083,0 -11.45968,0 z"
   id="path56"
   style="stroke-width:2.09284" />
<path
   class="st2"
   d="m 325.69634,52.285714 c 4.02094,0 8.04188,0 12.06283,0 0,8.278572 0,16.557143 0,25.489286 -3.81991,0 -7.63979,0 -12.06283,0 0,-8.278571 0,-16.992857 0,-25.489286 z"
   id="path58"
   style="stroke-width:2.09284" />
<path
   class="st2"
   d="m 36.590576,65.575 c 7.63979,0 15.480629,0 23.522514,0 0,4.139286 0,8.060714 0,12.417857 -7.639791,0 -15.480629,0 -23.522514,0 0,-4.139286 0,-8.496428 0,-12.417857 z"
   id="path60"
   style="stroke-width:2.09284" />
<ellipse
   class="st2"
   cx="319.66492"
   cy="45.75"
   id="circle62"
   rx="8.4439783"
   ry="9.1499996"
   style="stroke-width:2.09284" />
<ellipse
   class="st2"
   cx="343.79059"
   cy="45.75"
   id="circle64"
   rx="8.4439783"
   ry="9.1499996"
   style="stroke-width:2.09284" />
<path
   class="st0"
   d="m 96.502618,26.142857 c 8.041882,0 16.083772,0 24.125652,0 0,8.278572 0,16.557143 0,25.925 -7.84083,0.653572 -15.68167,0 -24.125652,0.435714 0,-9.15 0,-17.864285 0,-26.360714 z"
   id="path66"
   style="stroke-width:2.09284" />
<path
   class="st0"
   d="m 265.38219,26.142857 c 0,13.071429 0,26.142857 0,39.214286 -7.63977,0 -15.48062,0 -23.12041,0 -0.20112,-0.217857 -0.6032,-0.435714 -0.80416,-0.653572 -0.20112,-0.217857 -0.40208,-0.653571 -0.40208,-0.871428 0,-12.2 0,-24.617857 0,-37.471429 8.44393,-0.217857 16.48582,-0.217857 24.32665,-0.217857 z"
   id="path68"
   style="stroke-width:2.09284" />
</svg>
