<?xml version="1.0" encoding="UTF-8" standalone="no"?>
<!-- Generator: Adobe Illustrator 25.0.0, SVG Export Plug-In . SVG Version: 6.00 Build 0)  -->

<svg
   version="1.1"
   id="Layer_1"
   x="0px"
   y="0px"
   viewBox="0 0 385 208.00383"
   xml:space="preserve"
   sodipodi:docname="1.svg"
   width="385"
   height="208.00383"
   inkscape:version="1.2.2 (b0a8486541, 2022-12-01)"
   xmlns:inkscape="http://www.inkscape.org/namespaces/inkscape"
   xmlns:sodipodi="http://sodipodi.sourceforge.net/DTD/sodipodi-0.dtd"
   xmlns="http://www.w3.org/2000/svg"
   xmlns:svg="http://www.w3.org/2000/svg"><defs
   id="defs127" /><sodipodi:namedview
   id="namedview125"
   pagecolor="#505050"
   bordercolor="#ffffff"
   borderopacity="1"
   inkscape:showpageshadow="0"
   inkscape:pageopacity="0"
   inkscape:pagecheckerboard="1"
   inkscape:deskcolor="#505050"
   showgrid="false"
   showguides="false"
   inkscape:zoom="1.8007537"
   inkscape:cx="186.8662"
   inkscape:cy="87.185717"
   inkscape:window-width="1536"
   inkscape:window-height="923"
   inkscape:window-x="0"
   inkscape:window-y="0"
   inkscape:window-maximized="1"
   inkscape:current-layer="Layer_1" />
<style
   type="text/css"
   id="style2">
	.st0{fill:#F70909;}
	.st1{fill:#657CF5;}
	.st2{fill:#6DAD45;}
	.st3{fill:#FEEF74;}
	.st4{fill:#ED7867;}
	.st5{fill:#FEFEFE;}
	.st6{fill:#2337AA;}
	.st7{fill:#5ED4E5;}
</style>


<path
   class="st1"
   d="m 296,75 c 4.5,0 9,0 13.7,0 0.2,0.9 0.3,1.8 0.5,2.9 3.8,0 7.5,0 11.7,0 0,3.4 0,6.6 0,10.1 4.8,0 9.3,0 13.9,0 0,5.3 0,10.4 0,16 2.7,0.2 5.3,0.1 7.9,0.1 2.6,0 5.3,0 8.1,0 0,1.3 0,2.4 0,3.9 7.4,0 14.6,0 22.1,0 0,1.8 0,3.3 0,4.8 3.8,-1.1 7.5,-0.4 11.1,-0.6 0,11 0,22 0,33 -0.3,0.4 -0.9,0.8 -1,1.3 -0.1,1.9 -0.1,3.8 -0.2,5.9 -5.5,0 -10.6,0 -16,0 0,2.7 0,5.3 0,8 -5.4,0 -10.5,0 -15.8,0 0,10.7 0,21.3 0,31.9 -2.7,0 -5.3,0 -8,0 0,-2.6 0,-5.2 0,-8 -5.5,0 -10.8,0 -16,0 0,-2.6 0,-5.2 0,-8.2 -2.9,0 -5.5,0 -8,0 0,-8.2 0,-16 0,-23.8 0,-2.7 0,-5.3 0,-8 2.7,0 5.3,0 8,0 0,2.6 0,5.2 0,8 3,0 5.6,0 8.2,0 2.6,0 5.2,0.2 7.8,-0.1 0,-2.9 0,-5.4 0,-7.8 6.3,0 12.5,0 18.5,0 0.7,-0.7 1,-1 1.5,-1.5 0,-5.8 0,-11.8 0,-17.7 0,-0.1 -0.1,-0.3 -0.2,-0.4 -0.1,-0.1 -0.2,-0.2 -0.5,-0.5 -3.7,0 -7.4,0 -11.2,0 -0.2,-1.4 -0.3,-2.6 -0.4,-3.8 -2.8,0 -5.3,0 -7.7,0 0,-2.6 0,-5.2 0,-8 -5.5,0 -10.8,0 -16,0 0,-2.6 0,-5.2 0,-8.1 -2.8,0 -5.4,0 -8.1,0 0,-2.8 0,-5.2 0,-7.9 -2.7,0 -5.3,0 -7.9,0 0,-2.6 0,-5.2 0,-8.1 -2.8,0 -5.4,0 -8.1,0 0,-2.1 0,-3.9 0,-5.9 -2.7,0 -5.3,0 -7.9,0 0,-0.7 0,-1.3 0,-2 0,-2.2 0,-3.8 0,-5.5 z"
   id="path8" />
<path
   class="st2"
   d="m 96,128 c 5.2,0 10.3,0 15.5,0 0.7,4.2 1,32.9 0.4,47.8 -5.1,0 -10.2,0 -15.7,0 -0.3,-7.7 0,-15.6 -0.2,-23.7 -26.6,0 -53,0 -79.6,0 0.1,0 -0.1,0 -0.2,0.2 -0.1,0.1 -0.2,0.3 -0.2,0.4 0,7.6 0,15.3 0,23.2 -5.4,0 -10.7,0 -16,0 0,-16 0,-32 0,-48 5.3,0 10.7,0 16,0 26.7,0.1 53.3,0.1 80,0.1 z m -79.9,15.8 c 5.5,0 10.7,0 15.9,0 -0.1,-2.7 0.1,-5.3 -0.1,-7.7 -5.5,0 -10.6,0 -15.8,0 0,2.7 0,5.1 0,7.7 z m 64,0 c 5.5,0 10.6,0 15.7,0 0,-2.7 0,-5.3 0,-7.7 -5.4,0 -10.5,0 -15.7,0 0,2.7 0,5.1 0,7.7 z"
   id="path10" />





<path
   class="st1"
   d="m 192,200 c -5.2,0 -10.3,0 -15.9,0 -0.3,-6.6 -0.1,-13.2 -0.1,-19.8 0,-6.6 0,-13.3 0,-20.1 -5.3,0 -10.4,0 -15.9,0 0,-2.7 0,-5.3 0,-8 -5.5,0 -10.6,0 -15.9,0 0,-5.4 0,-10.6 0,-16 5.1,0 10.2,0 15.7,0 0,-2.7 0,-5.3 0,-8 5.5,0 10.6,0 15.9,0 0,-7.9 0,-15.7 0,-24 2.7,-0.2 5.3,-0.1 7.9,-0.1 2.6,0 5.3,0 8.3,0 0,-5.4 0,-10.7 0,-16 5.3,0 10.7,0 16,0 0,5.2 0,10.5 0,16 2.8,0 5.4,0 8,0 0,2.6 0,5.2 0,8.1 2.8,0 5.4,0 8.1,0 0,2.8 0,5.2 0,7.9 2.7,0 5.3,0 7.9,0 0,2.6 0,5.2 0,8.2 2.9,0 5.5,0 7.8,0 0,5.5 0,10.6 0,16 -2.7,0 -5.3,0 -7.8,0 0,2.8 0,5.3 0,7.8 -2.7,0 -5.3,0 -8,0 0,-5.3 0,-10.5 0,-16 -5.5,0 -10.7,0 -16.1,-0.1 -0.1,-2.5 -0.1,-5.1 -0.1,-7.7 -5.4,0 -10.6,0 -15.7,0 0,2.7 0,5.1 0,7.7 5.4,0 10.6,0 15.8,0.1 0.1,8 0.1,15.9 0.1,24.1 5.5,0 10.7,0 16,0 0,5.3 0,10.6 0,16.2 -2.9,0 -5.5,0 -8,0 0,2.8 0,5.3 0,7.8 -5.2,0 -10.5,0 -16,0 0,2.8 0,5.4 0,8 -2.6,0 -5.2,0 -8,0 0,2.7 0,5.3 0,7.9 z"
   id="path22" />
<path
   class="st4"
   d="m 296,75 c 0,1.7 0,3.3 0,5 -5.3,0 -10.6,0 -16.2,0 0,2.9 0,5.5 0,7.8 -5.5,0 -10.6,0 -16,0 0,-2.7 0,-5.3 0,-7.8 -5.5,0 -10.7,0 -15.8,0 0,-2.6 0,-5.2 0,-8 -5.5,0 -10.8,0 -16,0 0,-2.6 0,-5.2 0,-8 -3,0 -5.6,0 -8.3,0 -2.6,0 -5.2,0.1 -7.7,-0.1 0,-8.3 0,-16.1 0,-23.9 2.7,0 5.3,0 8,0 2.6,0 5.2,0 8,0 0,-2.8 0,-5.4 0,-8 5.3,0 10.5,0 16.2,0 0,2.9 0,5.5 0,7.8 5.5,0 10.6,0 16,0 0,-2.7 0,-5.3 0,-7.7 5.5,0 10.6,0 16,0 0,2.7 0,5.3 0,7.7 5.5,0 10.6,0 16,0 0,-2.7 0,-5.3 0,-7.8 5.5,0 10.7,0 15.8,0 0,2.5 0,5 0,7.8 2.5,0.4 5.2,0.1 7.7,0.1 2.6,0 5.3,0 8.1,0 0,7.9 0,15.7 0,23.9 -2.4,0.2 -5,0 -7.6,0.1 -2.6,0 -5.3,0 -8.1,0 0,2.6 0,5 0,7.9 -2.7,0.2 -5.3,0.1 -7.9,0.1 -2.6,0 -5.3,0 -8.3,0 0.1,1.2 0.1,2.2 0.1,3.1 z M 247.8,55.9 c 0,-2.5 0,-5.1 0,-7.7 -5.4,0 -10.6,0 -15.7,0 0,2.7 0,5.1 0,7.7 5.4,0 10.6,0 15.9,0.1 0,2.6 0,5.2 0,7.8 15,0.6 43.8,0.4 48,-0.3 0,-2.5 0,-5 0.2,-7.6 5.1,0 10.4,0 15.6,0 0,-2.7 0,-5.2 0,-7.8 -5.3,0 -10.4,0 -15.6,0 0,2.7 0,5.3 -0.2,7.9 -16,0 -32,0 -48.2,-0.1 z"
   id="path24" />
<path
   class="st5"
   d="m 96,128 c -26.7,0 -53.3,0 -80,0 0,-2.5 0,-5 0,-7.9 2.6,-0.2 5.2,0 7.7,-0.1 2.6,0 5.3,0 8.1,0 0,-2.6 0,-5 0,-7.8 2.7,-0.4 5.3,-0.1 7.9,-0.2 2.6,0 5.3,0 8.1,0 0,-2.6 0,-5 0,-7.8 2.7,-0.4 5.3,-0.1 7.9,-0.2 2.6,0 5.3,0 8.1,0 0,2.6 0,5 0,7.8 2.7,0.4 5.3,0.1 7.9,0.2 2.6,0 5.3,0 8.1,0 0,2.6 0,5 0,7.8 2.7,0.4 5.3,0.1 7.9,0.2 2.6,0 5.3,0 8.2,0 0.1,2.8 0.1,5.4 0.1,8 z"
   id="path26" />
<path
   d="m 312,32 c -5.2,0 -10.3,0 -15.8,0 0,2.5 0,5.1 0,7.8 -5.4,0 -10.6,0 -16,0 0,-2.4 0,-4.9 0,-7.7 -5.4,0 -10.6,0 -16,0 0,2.4 0,4.9 0,7.7 -5.4,0 -10.6,0 -16,0 0,-2.4 0,-5 0,-7.8 -5.6,0 -10.9,0 -16.2,0 0,-2.7 0,-5.3 0,-8 26.7,0 53.3,0 80,0 0,2.7 0,5.3 0,8 z"
   id="path28" />

<path
   class="st5"
   d="m 224,40 c -2.7,0 -5.3,0 -8,0 -2.6,0 -5.2,0 -8,0 0,2.8 0,5.4 0,8 -5.3,0 -10.7,0 -16,0 0,-5.2 0,-10.3 0,-15.5 0.1,-0.1 0.2,-0.3 0.3,-0.4 0.1,-0.1 0.3,-0.2 0.4,-0.2 10.3,0 20.6,0 31.2,0 0.1,2.9 0.1,5.5 0.1,8.1 z"
   id="path32" />
<path
   class="st5"
   d="m 192,80 c 0,-5.3 0,-10.7 0,-16 5.3,0 10.7,0 16,0 0,2.6 0,5.2 0,8 5.5,0 10.8,0 16,0 0,2.7 0,5.3 0,8 -2.7,0 -5.3,0 -8,0 -2.7,0 -5.3,0 -8,0 -5.3,0 -10.7,0 -16,0 z"
   id="path34" />

<path
   class="st5"
   d="m 192,88 c -5.2,0 -10.3,0 -15.8,0 -0.5,-2.5 0,-5.1 -0.3,-8 5.5,0 10.8,0 16.1,0 0,2.7 0,5.3 0,8 z"
   id="path38" />
<path
   class="st5"
   d="m 112.1,103.8 c 0,-2.6 0,-5 0,-7.7 5.2,0 10.3,0 15.7,0 0.5,2.3 0,4.9 0.3,7.7 -5.3,0 -10.5,0 -16,0 z"
   id="path40" />
<path
   class="st5"
   d="m 159.9,88.2 c 0,2.6 0,5.1 0,7.7 -5.2,0 -10.3,0 -15.8,0 -0.3,-2.4 0,-4.9 -0.1,-7.7 5.3,0 10.4,0 15.9,0 z"
   id="path42" />
<path
   d="m 192,200 c 0,-2.6 0,-5.2 0,-8 2.8,0 5.4,0 8,0 0,2.7 0,5.3 0,8 -2.7,0 -5.3,0 -8,0 z"
   id="path44" />
<path
   class="st6"
   d="m 248,80 c 5.2,0 10.3,0 15.8,0 0,2.5 0,5.1 0,7.8 5.5,0 10.6,0 16,0 0,-2.4 0,-4.9 0,-7.8 5.6,0 10.9,0 16.2,0 0,0.7 0,1.3 0,2 0,4.7 0,9.3 0,14 0,2.6 0,5.2 0,8 -3,0 -5.6,0 -8.2,0 -2.6,0 -5.2,0.2 -7.9,-0.2 0,-2.8 0,-5.2 0,-7.8 -2.8,0 -5.4,0 -8.1,0 -2.6,0 -5.2,-0.2 -7.9,0.2 0,2.8 0,5.2 0,7.8 -2.8,0 -5.4,0 -8.1,0 -2.6,0 -5.2,0.2 -7.7,-0.1 0,-2.9 0,-5.4 0,-7.8 C 248,90.7 248,85.3 248,80 Z"
   id="path46" />
<path
   d="m 320,152 c 0,7.8 0,15.6 0,23.8 2.5,0 5.1,0 8,0 0,3 0,5.6 0,8.2 -5.3,0 -10.7,0 -16,0 0,-10.7 0,-21.3 0,-32 2.7,0 5.3,0 8,0 z"
   id="path48" />
<path
   d="m 344,120 c 2.5,0 5,0 7.7,0 0.1,1.2 0.3,2.4 0.4,3.8 3.8,0 7.5,0 11.2,0 0.2,0.3 0.4,0.4 0.5,0.5 0.1,0.1 0.2,0.3 0.2,0.4 0,6 0,11.9 0,17.7 -0.5,0.5 -0.8,0.8 -1.5,1.5 -6,0 -12.2,0 -18.5,0 0,-2.6 0,-5.2 0,-8.1 5.5,0 10.7,0 15.9,0 0,-2.7 0,-5.2 0,-7.9 -5.4,0 -10.6,0 -15.9,0 0,-2.6 0,-5.2 0,-7.9 z"
   id="path50" />
<path
   d="m 328,144 c -2.7,0 -5.3,0 -8,0 0,-2.6 0,-5.2 0,-8 -2.8,0 -5.4,0 -8,0 0,-2.7 0,-5.3 0,-8 5.3,0 10.7,0 16,0 0,5.3 0,10.7 0,16 z"
   id="path52" />
<path
   d="m 312,96 c 2.6,0 5.2,0 7.9,0 0,2.7 0,5.1 0,7.9 2.7,0 5.2,0 8.1,0 0,2.9 0,5.5 0,8.1 -5.3,0 -10.5,0 -16,0 0,-5.5 0,-10.7 0,-16 z"
   id="path54" />
<path
   class="st6"
   d="m 312,136 c 2.6,0 5.2,0 8,0 0,2.8 0,5.4 0,8 0,2.7 0,5.3 0,8 -2.7,0 -5.3,0 -8,0 0,-2.6 0,-5.2 0,-8.2 -2.9,0 -5.5,0 -8,0 0,-2.8 0,-5.3 0,-7.8 2.7,0 5.3,0 8,0 z"
   id="path56" />
<path
   d="m 296,96 c 0,-4.7 0,-9.3 0,-14 2.6,0 5.2,0 7.9,0 0,2 0,3.8 0,5.9 2.7,0 5.2,0 8.1,0 0,2.9 0,5.5 0,8.1 -5.3,0 -10.7,0 -16,0 z"
   id="path58" />
<path
   d="m 328,112 c 5.2,0 10.5,0 16,0 0,2.8 0,5.4 0,8 -5.2,0 -10.5,0 -16,0 0,-2.8 0,-5.4 0,-8 z"
   id="path60" />
<path
   d="m 328,184 c 5.2,0 10.5,0 16,0 0,2.8 0,5.4 0,8 -5.2,0 -10.5,0 -16,0 0,-2.8 0,-5.4 0,-8 z"
   id="path62" />
<path
   d="m 344,144 c 0,2.5 0,5 0,7.8 -2.5,0.4 -5.2,0.1 -7.8,0.1 -2.6,0 -5.3,0 -8.2,0 0,-2.8 0,-5.4 0,-8 5.3,0.1 10.7,0.1 16,0.1 z"
   id="path64" />
<path
   d="m 352,192 c 0,2.6 0,5.2 0,8 -2.8,0 -5.4,0 -8,0 0,-2.7 0,-5.3 0,-8 2.7,0 5.3,0 8,0 z"
   id="path66" />
<path
   d="m 16.1,143.8 c 0,-2.6 0,-5.1 0,-7.7 5.2,0 10.3,0 15.8,0 0.3,2.4 0,4.9 0.1,7.7 -5.3,0 -10.4,0 -15.9,0 z"
   id="path68" />
<path
   d="m 80.1,143.8 c 0,-2.6 0,-5.1 0,-7.7 5.2,0 10.3,0 15.7,0 0,2.4 0,5 0,7.7 -5.1,0 -10.2,0 -15.7,0 z"
   id="path70" />
<path
   d="m 296,200 c -2.6,0 -5.2,0 -8,0 0,-5.5 0,-10.8 0,-16 0,-5.3 0,-10.6 0,-16 -10.6,0 -20.9,0 -31.2,0 -0.1,0 -0.3,0.1 -0.4,0.2 -0.1,0.1 -0.2,0.2 -0.3,0.4 0,5.2 0,10.3 0,15.5 0,5.2 0,10.5 0,16 -2.8,0 -5.4,0 -8,0 0,-2.7 0,-5.3 0,-8 0,-10.6 0,-21.2 0,-31.8 14.7,-0.6 43.9,-0.4 48,0.3 0,10.5 0,21 0,31.5 -0.1,2.6 -0.1,5.2 -0.1,7.9 z"
   id="path72" />
<path
   class="st1"
   d="m 256,184 c 0,-5.2 0,-10.3 0,-15.5 0.1,-0.1 0.2,-0.3 0.3,-0.4 0.1,-0.1 0.3,-0.2 0.4,-0.2 10.3,0 20.6,0 31.2,0 0,5.4 0,10.7 0,16 -10.6,0.1 -21.2,0.1 -31.9,0.1 z"
   id="path74" />
<path
   class="st7"
   d="m 296,200 c 0,-2.7 0,-5.3 0,-8 5.2,0 10.5,0 16,0 0,-2.8 0,-5.4 0,-8 5.3,0 10.7,0 16,0 0,2.6 0,5.2 0,8 5.5,0 10.8,0 16,0 0,2.7 0,5.3 0,8 -16,0 -32,0 -48,0 z"
   id="path76" />
<path
   class="st7"
   d="m 248,192 c 0,2.7 0,5.3 0,8 -16,0 -32,0 -48,0 0,-2.7 0,-5.3 0,-8 5.2,0 10.5,0 16,0 0,-2.8 0,-5.4 0,-8 5.3,0 10.7,0 16,0 0,2.6 0,5.2 0,8 5.5,0 10.8,0 16,0 z"
   id="path78" />
<path
   d="m 232,152 c 0,-2.5 0,-5 0,-7.8 2.5,0 5.1,0 7.8,0 0,-5.4 0,-10.5 0,-16 -2.4,0 -4.9,0 -7.8,0 0,-2.9 0,-5.6 0,-8.2 5.3,0 10.5,0 16,0 0,8.2 0,16.1 0,24 0,2.6 0,5.2 0,8 -5.5,0 -10.8,0 -16,0 z"
   id="path80" />
<path
   class="st6"
   d="m 208,136 c 5.3,0 10.5,0 16,0 0,5.5 0,10.7 0,16 0,2.7 0,5.3 0,8 -5.3,0 -10.5,0 -16,0 0,-8.2 0,-16.1 0,-24 z"
   id="path82" />
<path
   d="m 224,160 c 0,-2.7 0,-5.3 0,-8 2.7,0 5.3,0 8,0 0,10.7 0,21.3 0,32 -5.3,0 -10.7,0 -16,0 0,-2.5 0,-5 0,-7.8 2.5,0 5.1,0 8,0 0,-5.6 0,-10.9 0,-16.2 z"
   id="path84" />
<path
   d="m 232,120 c -2.6,0 -5.2,0 -7.9,0 0,-2.7 0,-5.1 0,-7.9 -2.7,0 -5.2,0 -8.1,0 0,-2.9 0,-5.5 0,-8.1 5.3,0 10.5,0 16,0 0,5.5 0,10.7 0,16 z"
   id="path86" />
<path
   class="st6"
   d="m 207.8,135.9 c -5.1,0 -10.4,0 -15.7,0 0,-2.6 0,-5 0,-7.7 5.2,0 10.4,0 15.7,0 0,2.6 0,5.2 0,7.7 z"
   id="path88" />
<path
   d="m 216,104 c -2.6,0 -5.2,0 -8,0 0,-5.5 0,-10.8 0,-16 2.7,0 5.3,0 8,0 0,5.3 0,10.7 0,16 z"
   id="path90" />
<path
   d="m 216,184 c 0,2.6 0,5.2 0,8 -5.5,0 -10.8,0 -16,0 0,-2.6 0,-5.2 0,-8 5.5,0 10.8,0 16,0 z"
   id="path92" />

<path
   d="m 208,64 c 0,-5.3 0,-10.7 0,-16 0,-2.6 0,-5.2 0,-8 2.8,0 5.4,0 8,0 0,7.8 0,15.6 0,23.9 2.5,0.2 5.1,0 7.7,0.1 2.6,0 5.3,0 8.3,0 0,2.8 0,5.4 0,8 -2.7,0 -5.3,0 -8,0 -5.2,0 -10.5,0 -16,0 0,-2.8 0,-5.4 0,-8 z"
   id="path96" />
<path
   d="m 296,56 c 0,2.5 0,5 0,7.5 -4.2,0.7 -33,0.9 -48,0.3 0,-2.6 0,-5.2 0,-7.8 16,0 32,0 48,0 z"
   id="path98" />
<path
   d="m 248,80 c 0,5.3 0,10.7 0,16 -5.2,0 -10.5,0 -16,0 0,-2.8 0,-5.4 0,-8 2.6,0 5.2,0 8,0 -0.1,-2.9 0.1,-5.5 -0.2,-8 -2.9,0 -5.4,0 -7.9,0 0,-2.7 0,-5.3 0,-8 5.2,0 10.5,0 16,0 0.1,2.8 0.1,5.4 0.1,8 z"
   id="path100" />
<path
   d="m 247.8,55.9 c -5.1,0 -10.4,0 -15.7,0 0,-2.6 0,-5 0,-7.7 5.2,0 10.4,0 15.7,0 0,2.6 0,5.2 0,7.7 z"
   id="path102" />
<path
   d="m 296.2,55.9 c 0,-2.5 0,-5.1 0,-7.8 5.2,0 10.3,0 15.6,0 0,2.5 0,5.1 0,7.8 -5.3,0 -10.5,0 -15.6,0 z"
   id="path104" />
<path
   d="m 216,80 c 2.7,0 5.3,0 8,0 2.7,0 5.3,0 8,0 0,2.7 0,5.3 0,8 -5.3,0 -10.7,0 -16,0 0,-2.7 0,-5.3 0,-8 z"
   id="path106" />


<path
   class="st7"
   d="m 216,88 c 5.3,0 10.7,0 16,0 0,2.6 0,5.2 0,8 5.5,0 10.8,0 16,0 0,2.5 0,5 0,7.8 2.5,0.4 5.2,0.1 7.7,0.1 2.6,0 5.3,0 8.1,0 0,-2.6 0,-5 0,-7.8 2.7,-0.4 5.3,-0.1 7.9,-0.2 2.6,0 5.3,0 8.1,0 0,2.6 0,5 0,7.8 2.7,0.4 5.3,0.1 7.9,0.2 2.6,0 5.3,0 8.2,0 0,-2.8 0,-5.4 0,-8 5.3,0 10.7,0 16,0 0,5.3 0,10.5 0,16 5.5,0 10.7,0 16,0 0,2.6 0,5.2 0,8 5.5,0 10.8,0 16,0 0,2.7 0,5.3 0,8 -5.3,0 -10.7,0 -16,0 -5.3,0 -10.7,0 -16,0 0,-2.6 0,-5.2 0,-8 -3,0 -5.6,0 -8.3,0 -2.6,0 -5.2,-0.1 -7.7,0.1 0,8.3 0,16.1 0,23.9 -16,0 -32,0 -48,0 0,-7.9 0,-15.8 0,-24 -5.5,0 -10.7,0 -16,0 0,-5.3 0,-10.5 0,-16 -5.5,0 -10.7,0 -16,0 C 216,98.7 216,93.3 216,88 Z"
   id="path112" />
<path
   class="st6"
   d="m 248,144 c 16,0 32,0 48,0 0,2.6 0,5.2 0,8 5.5,0 10.8,0 16,0 0,10.7 0,21.3 0,32 0,2.6 0,5.2 0,8 -5.5,0 -10.8,0 -16,0 0,-10.5 0,-21 0,-31.5 -4.1,-0.7 -33.3,-1 -48,-0.3 0,10.6 0,21.2 0,31.8 -5.2,0 -10.5,0 -16,0 0,-2.8 0,-5.4 0,-8 0,-10.7 0,-21.3 0,-32 5.2,0 10.5,0 16,0 0,-2.8 0,-5.4 0,-8 z"
   id="path114" />
<path
   class="st4"
   d="m 328,128 c 5.3,0 10.7,0 16,0 5.3,0 10.5,0 15.9,0 0,2.7 0,5.1 0,7.9 -5.2,0 -10.4,0 -15.9,0 0,2.9 0,5.5 0,8.1 -5.3,0 -10.7,0 -16,0 0,-5.3 0,-10.7 0,-16 z"
   id="path116" />
<path
   class="st1"
   d="m 312,136 c -2.7,0 -5.3,0 -8,0 0,-2.6 0,-5.2 0,-8 2.8,0 5.4,0 8,0 0,2.7 0,5.3 0,8 z"
   id="path118" />
<path
   d="m 312,128 c -2.6,0 -5.2,0 -8,0 0,2.8 0,5.4 0,8 0,2.5 0,5 0,7.8 2.5,0 5.1,0 8,0 0,2.9 0,5.6 0,8.2 -5.2,0 -10.5,0 -16,0 0,-2.8 0,-5.4 0,-8 0,-7.8 0,-15.6 0,-23.9 2.5,-0.2 5.1,0 7.7,-0.1 2.6,0 5.3,0 8.3,0 0,2.8 0,5.4 0,8 z"
   id="path120" />
<path
   class="st1"
   d="m 232,88 c 0,-2.7 0,-5.3 0,-8 2.5,0 5,0 7.9,0 0.3,2.5 0.1,5.1 0.2,8 -2.9,0 -5.5,0 -8.1,0 z"
   id="path122" />
<path
   d="m 200.06256,207.99376 c 0,-2.70869 0,-5.31319 0,-8.02188 15.82609,0 31.34783,0 47.78262,0 0,2.50033 0,5.20901 0,8.02188 -15.52174,0 -31.04349,0 -47.78262,0 z"
   id="path70-3"
   style="stroke-width:1.78065" /><path
   d="m 295.97094,208.00383 c 0,-2.70136 0,-5.29882 0,-8.00018 15.91417,0 31.5223,0 48.04856,0 0,2.49356 0,5.19492 0,8.00018 -15.60813,0 -31.21626,0 -48.04856,0 z"
   id="path70-6"
   style="stroke-width:1.78318" /><rect
   style="fill:#ed7867;fill-opacity:1;stroke-width:1.38037"
   id="rect536"
   width="16.06426"
   height="15.831837"
   x="192.01648"
   y="48.179943" /><path
   class="st1"
   d="m 207.52755,88.331495 c 0,-2.700001 0,-5.300001 0,-8.000001 2.5,0 5,0 7.9,0 0.3,2.5 0.1,5.1 0.2,8.000001 -2.9,0 -5.5,0 -8.1,0 z"
   id="path122-7"
   style="fill:#657cf5" /><path
   d="m 191.97336,80.519298 c 2.7,0 5.3,0 8,0 2.7,0 5.3,0 8,0 0,2.7 0,5.3 0,8 -5.3,0 -10.7,0 -16,0 0,-2.7 0,-5.3 0,-8 z"
   id="path106-5" /><path
   class="st1"
   d="m 223.76897,80.133956 c 0,-2.7 0,-5.3 0,-8 2.5,0 5,0 7.9,0 0.3,2.5 0.1,5.1 0.2,8 -2.9,0 -5.5,0 -8.1,0 z"
   id="path122-3"
   style="fill:#657cf5" /><rect
   style="fill:#feef74;fill-opacity:1;stroke-width:1.13533"
   id="rect5596"
   width="79.528885"
   height="24.325922"
   x="232.15044"
   y="0.098824255" /></svg>
