<?xml version="1.0" encoding="UTF-8" standalone="no"?>
<!-- Generator: Adobe Illustrator 25.0.0, SVG Export Plug-In . SVG Version: 6.00 Build 0)  -->

<svg
   version="1.1"
   id="Layer_1"
   x="0px"
   y="0px"
   viewBox="0 0 384 366"
   xml:space="preserve"
   sodipodi:docname="CBMAvatar-BruceLee.svg"
   width="384"
   height="366"
   inkscape:version="1.2.2 (b0a8486541, 2022-12-01)"
   xmlns:inkscape="http://www.inkscape.org/namespaces/inkscape"
   xmlns:sodipodi="http://sodipodi.sourceforge.net/DTD/sodipodi-0.dtd"
   xmlns="http://www.w3.org/2000/svg"
   xmlns:svg="http://www.w3.org/2000/svg"><defs
   id="defs974" /><sodipodi:namedview
   id="namedview972"
   pagecolor="#505050"
   bordercolor="#ffffff"
   borderopacity="1"
   inkscape:showpageshadow="0"
   inkscape:pageopacity="0"
   inkscape:pagecheckerboard="1"
   inkscape:deskcolor="#505050"
   showgrid="false"
   inkscape:zoom="1.13"
   inkscape:cx="230.97345"
   inkscape:cy="300"
   inkscape:window-width="1536"
   inkscape:window-height="923"
   inkscape:window-x="0"
   inkscape:window-y="0"
   inkscape:window-maximized="1"
   inkscape:current-layer="Layer_1" />
<style
   type="text/css"
   id="style955">
	.st0{fill:#FEF692;}
</style>






<g
   id="g983"
   transform="matrix(3.9958377,0,0,2.9047619,-847.11759,-261.71905)"><path
     d="m 212,210 c 3.8,0 7.6,0 11.8,0 0.1,-1.9 0.3,-3.7 0.4,-5.8 3.7,0 7.5,0 11.9,0 0,-14.3 0,-28.2 0,-42.1 11.9,0 23.8,0 35.8,0 0,3.9 0,7.8 0,12.2 4.5,0 8.2,0 12.3,0 0,10.1 0,19.9 0,30 4.1,0 7.9,0 11.6,0 0.2,2.1 0.3,3.9 0.4,5.8 4.1,0 7.9,0 11.8,0 0,2 0,4 0,6 -12,0 -24,0 -36,0 0,-11.9 0,-23.9 0,-36.2 -4.3,0 -8.1,0 -11.8,0 -0.1,-2.1 -0.3,-3.9 -0.4,-5.5 -4.1,0 -7.8,0 -11.8,0 0,14.1 0,27.9 0,41.7 -12,0 -24,0 -36,0 0,-2.1 0,-4.1 0,-6.1 z"
     id="path957" /><path
     d="m 235.9,120 c -3.8,0 -7.6,0 -11.6,0 0,-8 0,-15.7 0,-23.8 3.7,0 7.5,0 11.7,0 0,-2.3 0,-4.2 0,-6.1 8,0 16,0 24,0 0,2 -0.1,4 -0.1,5.9 -3.9,0 -7.8,0 -11.7,0 -0.2,2.4 -0.3,4.1 -0.5,6.3 -4.1,0 -7.8,0 -11.8,0 0,6.1 0,11.9 0,17.7 z"
     id="path959" /><path
     d="m 308,156 c -4,0 -8,-0.1 -11.9,-0.1 -0.1,-2 -0.1,-3.9 -0.2,-5.9 0.1,-1.8 0.2,-3.6 0.3,-6 3.9,0 7.9,0 11.9,0 -0.1,4 -0.1,8 -0.1,12 z"
     id="path961" /><path
     class="st0"
     d="m 295.8,150 c 0.1,2 0.1,3.9 0.2,5.9 -7.7,0 -15.5,0 -23.6,0 -0.2,2.4 -0.4,4.3 -0.5,6.2 -11.9,0 -23.8,0 -35.8,0 0,-2 -0.1,-4.1 -0.1,-6.1 7.9,0 15.8,0 23.7,0 0,-4.2 0,-8 0,-11.6 -4,0 -7.8,0 -11.5,0 -0.2,2 -0.3,3.8 -0.4,5.9 -4.1,0 -7.8,0 -11.7,0 0,2.2 0,4 0,5.8 -3.8,0 -7.6,0 -11.7,0 0,-8 0,-15.6 0,-23.7 3.6,-0.2 7.2,-0.3 11.6,-0.5 0,-4 0,-7.9 0,-11.8 0,-5.8 0,-11.6 0,-17.8 4,0 7.7,0 11.8,0 0.2,-2.1 0.3,-3.9 0.5,-6.3 3.8,0 7.8,0 11.7,0 0.1,2 0.1,4.1 0.2,6.1 0,2 0,4 0,6 -3.9,0 -7.8,0 -11.9,0 0,2.1 0,3.8 0,5.6 4,0 7.9,0 11.7,0 0,-2.1 0,-3.9 0,-5.7 4,0 8,0 11.9,0 0,5.8 0,11.6 0,17.9 -3.9,0 -7.5,0 -11.5,0 0,4.1 0,7.7 0,11.9 3.5,0.2 7.2,0.4 11.2,0.5 0.3,1.8 0.5,3.4 0.8,5.5 3.6,0 7.1,0 11,0 0.4,2.2 0.8,3.9 1.2,6.2 3.7,0 7.5,0 11.2,0 z"
     id="path963" /><path
     d="m 271.9,107.9 c -4,0 -8,0 -11.9,0 l 0.1,0.1 c 0,-2 0,-4 0,-6 3.8,0 7.6,0 11.8,0 0,2.1 0,4 0,5.9 z"
     id="path965" /><path
     d="m 236.1,156 c 0,-1.8 0,-3.6 0,-5.8 3.8,0 7.6,0 11.7,0 0.2,-2.1 0.3,-3.8 0.4,-5.9 3.8,0 7.5,0 11.5,0 0,3.7 0,7.4 0,11.6 -7.8,0 -15.8,0 -23.6,0.1 -0.1,-0.1 0,0 0,0 z"
     id="path967" /><path
     d="m 259.9,107.9 c 0,1.8 0,3.6 0,5.7 -3.9,0 -7.7,0 -11.7,0 0,-1.8 0,-3.5 0,-5.6 4,0 8,0 11.9,0 0,0.1 -0.2,-0.1 -0.2,-0.1 z"
     id="path969" /></g>
</svg>
