<?xml version="1.0" encoding="UTF-8" standalone="no"?>
<!-- Created with Inkscape (http://www.inkscape.org/) -->

<svg
   width="384"
   height="366"
   viewBox="0 0 101.6 96.837498"
   version="1.1"
   id="svg5312"
   inkscape:version="1.2.2 (b0a8486541, 2022-12-01)"
   sodipodi:docname="CBMAvatar-Computer5.svg"
   xmlns:inkscape="http://www.inkscape.org/namespaces/inkscape"
   xmlns:sodipodi="http://sodipodi.sourceforge.net/DTD/sodipodi-0.dtd"
   xmlns="http://www.w3.org/2000/svg"
   xmlns:svg="http://www.w3.org/2000/svg">
  <sodipodi:namedview
     id="namedview5314"
     pagecolor="#505050"
     bordercolor="#ffffff"
     borderopacity="1"
     inkscape:showpageshadow="0"
     inkscape:pageopacity="0"
     inkscape:pagecheckerboard="1"
     inkscape:deskcolor="#505050"
     inkscape:document-units="px"
     showgrid="false"
     inkscape:zoom="1.5674954"
     inkscape:cx="-44.657228"
     inkscape:cy="91.866298"
     inkscape:window-width="1536"
     inkscape:window-height="923"
     inkscape:window-x="0"
     inkscape:window-y="0"
     inkscape:window-maximized="1"
     inkscape:current-layer="layer1" />
  <defs
     id="defs5309">
    <pattern
       id="EMFhbasepattern"
       patternUnits="userSpaceOnUse"
       width="6"
       height="6"
       x="0"
       y="0" />
  </defs>
  <g
     inkscape:label="Layer 1"
     inkscape:groupmode="layer"
     id="layer1">
    <g
       id="g6704"
       transform="matrix(2.181818,0,0,1.6339285,1283.6474,474.06404)">
      <path
         style="fill:#104ea4;fill-opacity:1;fill-rule:nonzero;stroke:none;stroke-width:0.264583"
         d="m -588.33842,-237.2209 c 0,-17.63889 0,-35.27778 0,-52.91667 15.52223,0 31.04445,0 46.56667,0 0,17.63889 0,35.27778 0,52.91667 -15.52222,0 -31.04444,0 -46.56667,0 z m 42.33334,-19.05 c 0,-0.70556 0,-1.41112 0,-2.11667 0,-1.41111 0,-2.82222 0,-4.23333 0,-0.70556 0,-1.41112 0,-2.11667 0,-1.41111 0,-2.82222 0,-4.23333 0,-0.70556 0,-1.41112 0,-2.11667 0,-1.41111 0,-2.82222 0,-4.23333 0,-0.70556 0,-1.41112 0,-2.11667 0,-1.41111 0,-2.82222 0,-4.23333 0,-1.41112 0,-2.82223 0,-4.23334 -0.79375,0 -1.49931,0 -2.20486,0 -0.70556,0 -1.32292,0 -2.02848,0 0,1.49931 0,2.91042 0,4.23334 0,1.41111 0,2.82222 0,4.23333 0,0.70555 0,1.41111 0,2.11667 0,1.41111 0,2.82222 0,4.23333 0,0.70555 0,1.41111 0,2.11667 0,1.41111 0,2.82222 0,4.23333 0,0.70555 0,1.41111 0,2.11667 0,1.41111 0,2.82222 0,4.23333 0,0.70555 0,1.41111 0,2.11667 0,1.41111 0,2.82222 0,4.23333 0,1.41111 0,2.82222 0,4.23333 0.79375,0 1.49931,0 2.20486,0 0.70556,0 1.32292,0 2.02848,0 0,-1.4993 0,-2.91041 0,-4.23333 0,-1.41111 0,-2.82222 0,-4.23333 z m -8.46667,-19.05 c 0,-0.70556 0,-1.41112 0,-2.11667 0,-2.82222 0,-5.64445 0,-8.37847 -5.82083,-0.26459 -28.13403,-0.17639 -29.63333,0.0882 0,1.32292 0,2.73403 0,4.05695 0,2.82222 0,5.64444 0,8.46666 0,2.82222 0,5.64445 0,8.46667 0,2.82222 0,5.64444 0,8.46667 0,2.82222 0,5.64444 0,8.37847 5.99722,0.26458 28.13402,0.17639 29.63333,-0.0882 0,-4.14514 0,-8.37848 0,-12.52361 0,-0.70556 0,-1.41112 0,-2.11667 0,-4.23333 0,-8.46667 0,-12.7 z"
         id="path6603" />
      <path
         style="fill:#104ea4;fill-opacity:1;fill-rule:nonzero;stroke:none;stroke-width:0.264583"
         d="m -541.77175,-235.10424 c 0,1.41111 0,2.82222 0,4.23334 -15.52222,0 -31.04444,0 -46.56667,0 0,-1.41112 0,-2.82223 0,-4.23334 15.52223,0 31.04445,0 46.56667,0 z"
         id="path6605" />
      <path
         style="fill:#5795eb;fill-opacity:1;fill-rule:nonzero;stroke:none;stroke-width:0.264583"
         d="m -541.77175,-235.10424 c -15.52222,0 -31.04444,0 -46.56667,0 0,-0.70555 0,-1.41111 0,-2.11666 15.52223,0 31.04445,0 46.56667,0 0,0.70555 0,1.41111 0,2.11666 z"
         id="path6607" />
      <path
         style="fill:#8e5aba;fill-opacity:1;fill-rule:nonzero;stroke:none;stroke-width:0.264583"
         d="m -554.47175,-260.50424 c 0,4.14514 0,8.37847 0,12.52361 -1.49931,0.26459 -23.63611,0.35278 -29.63333,0.0882 0,-2.73402 0,-5.55625 0,-8.37847 1.41111,0 2.82222,0 4.23333,0 0,0.79375 0,1.41111 0,2.02847 4.23333,0 8.46667,0 12.7,0 0,-0.70555 0,-1.32291 0,-2.02847 1.49931,0 2.82222,0 4.23333,0 0,-0.79375 0,-1.41111 0,-2.11666 0.79375,0 1.49931,0 2.20486,0 0.70556,0 1.32292,0 2.02848,0 0,-0.79375 0,-1.49931 0,-2.11667 1.41111,0 2.82222,0 4.23333,0 z"
         id="path6609" />
      <path
         style="fill:#5795eb;fill-opacity:1;fill-rule:nonzero;stroke:none;stroke-width:0.264583"
         d="m -584.10508,-273.20424 c 0,-2.82222 0,-5.64444 0,-8.46666 1.41111,0 2.82222,0 4.23333,0 0,-0.79375 0,-1.41112 0,-2.02848 4.23333,0 8.46667,0 12.7,0 0,0.70556 0,1.32292 0,2.02848 1.49931,0 2.82222,0 4.23333,0 0,0.79375 0,1.41111 0,2.11666 0.79375,0 1.49931,0 2.20486,0 0.70556,0 1.32292,0 2.02848,0 0,0.79375 0,1.49931 0,2.11667 -1.41111,0 -2.82223,0 -4.23334,0 0,0.79375 0,1.4993 0,2.20486 0,0.70556 0,1.32292 0,2.11667 -1.4993,0 -2.82222,0 -4.23333,0 0,0.70555 0,1.32291 0,1.94027 -4.23333,0 -8.46667,0 -12.7,0 0,-0.70555 0,-1.41111 -0.0882,-2.02847 -1.41112,0 -2.82223,0 -4.14514,0 z m 8.55486,-6.35 c 0,1.49931 0,2.82222 0,4.23334 0.70555,0 1.41111,0 2.11666,0 0.70556,0 1.32292,0 1.94028,0 0,-1.49931 0,-2.82223 0,-4.23334 -1.32291,0 -2.73403,0 -4.05694,0 z"
         id="path6611" />
      <path
         style="fill:#5795eb;fill-opacity:1;fill-rule:nonzero;stroke:none;stroke-width:0.264583"
         d="m -558.70508,-260.50424 c 0,0.61736 0,1.32292 0,2.11667 -0.70556,0 -1.32292,0 -2.02848,0 -0.70555,0 -1.41111,0 -2.20486,0 0,0.70555 0,1.32292 0,2.11667 -1.41111,0 -2.73402,0 -4.23333,0 0,0.70555 0,1.32291 0,2.02847 -4.23333,0 -8.46667,0 -12.7,0 0,-0.61736 0,-1.23472 0,-2.02847 -1.41111,0 -2.82222,0 -4.23333,0 0,-2.82223 0,-5.64445 0,-8.46667 1.41111,0 2.82222,0 4.14513,0 0.0882,-0.79375 0.0882,-1.49931 0.17639,-2.02847 4.23334,0 8.37848,0 12.61181,0 0,0.70555 0,1.32291 0.0882,2.11666 1.41111,0 2.73403,0 4.14514,0 0,0.70556 0,1.41111 0,2.11667 0,0.70556 0,1.32292 0,2.02847 1.4993,0 2.91041,0 4.23333,0 z m -16.84514,-2.11666 c 0,1.4993 0,2.82222 0,4.23333 0.70555,0 1.41111,0 2.11666,0 0.70556,0 1.32292,0 1.94028,0 0,-1.49931 0,-2.82222 0,-4.23333 -1.32291,0 -2.73403,0 -4.05694,0 z"
         id="path6613" />
      <path
         style="fill:#8e5aba;fill-opacity:1;fill-rule:nonzero;stroke:none;stroke-width:0.264583"
         d="m -558.70508,-260.50424 c -1.32292,0 -2.73403,0 -4.23334,0 0,-0.70555 0,-1.32291 0,-2.02847 0,-0.70556 0,-1.41111 0,-2.11667 -1.41111,0 -2.73402,0 -4.14514,0 -0.0882,-0.79375 -0.0882,-1.41111 -0.0882,-2.11666 -4.23333,0 -8.37847,0 -12.6118,0 -0.0882,0.52916 -0.0882,1.23472 -0.17639,2.02847 -1.32292,0 -2.73403,0 -4.14514,0 0,-2.82222 0,-5.64445 0,-8.46667 1.32292,0 2.73403,0 4.14514,0 0.0882,0.61736 0.0882,1.32292 0.0882,2.02847 4.23334,0 8.46667,0 12.7,0 0,-0.61736 0,-1.23472 0,-1.94027 1.41112,0 2.73403,0 4.23334,0 0,-0.79375 0,-1.41111 0,-2.11667 0,-0.70556 0,-1.41111 0,-2.20486 1.41111,0 2.82222,0 4.23333,0 0,0.70555 0,1.41111 0,2.11667 0,4.23333 0,8.46666 0,12.7 0,0.70555 0,1.41111 0,2.11666 z"
         id="path6615" />
      <path
         style="fill:#8e5aba;fill-opacity:1;fill-rule:nonzero;stroke:none;stroke-width:0.264583"
         d="m -558.70508,-277.43757 c 0,-0.61736 0,-1.32292 0,-2.11667 -0.70556,0 -1.32292,0 -2.02848,0 -0.70555,0 -1.41111,0 -2.20486,0 0,-0.70555 0,-1.32291 0,-2.11666 -1.41111,0 -2.73402,0 -4.23333,0 0,-0.70556 0,-1.32292 0,-2.02848 -4.23333,0 -8.46667,0 -12.7,0 0,0.61736 0,1.23473 0,2.02848 -1.41111,0 -2.82222,0 -4.23333,0 0,-1.32292 0,-2.73403 0,-4.05695 1.4993,-0.26458 23.8125,-0.35278 29.63333,-0.0882 0,2.73402 0,5.55625 0,8.37847 -1.41111,0 -2.82222,0 -4.23333,0 z"
         id="path6617" />
      <path
         style="fill:#fefefe;fill-opacity:1;fill-rule:nonzero;stroke:none;stroke-width:0.264583"
         d="m -558.70508,-262.6209 c 0,-4.23334 0,-8.46667 0,-12.7 1.41111,0 2.82222,0 4.23333,0 0,4.23333 0,8.46666 0,12.7 -1.41111,0 -2.82222,0 -4.23333,0 z"
         id="path6619" />
      <path
         style="fill:#5795eb;fill-opacity:1;fill-rule:nonzero;stroke:none;stroke-width:0.264583"
         d="m -550.23842,-281.6709 c 0,-1.32292 0,-2.73403 0,-4.23334 0.70556,0 1.32292,0 2.02848,0 0.70555,0 1.41111,0 2.20486,0 0,1.41111 0,2.82222 0,4.23334 -1.41111,0 -2.82223,0 -4.23334,0 z"
         id="path6621" />
      <path
         style="fill:#fefefe;fill-opacity:1;fill-rule:nonzero;stroke:none;stroke-width:0.264583"
         d="m -550.23842,-281.6709 c 1.41111,0 2.82223,0 4.23334,0 0,1.41111 0,2.82222 0,4.23333 -1.41111,0 -2.82223,0 -4.23334,0 0,-1.41111 0,-2.82222 0,-4.23333 z"
         id="path6623" />
      <path
         style="fill:#fefefe;fill-opacity:1;fill-rule:nonzero;stroke:none;stroke-width:0.264583"
         d="m -546.00508,-275.3209 c 0,1.41111 0,2.82222 0,4.23333 -1.41111,0 -2.82223,0 -4.23334,0 0,-1.41111 0,-2.82222 0,-4.23333 1.41111,0 2.82223,0 4.23334,0 z"
         id="path6625" />
      <path
         style="fill:#fefefe;fill-opacity:1;fill-rule:nonzero;stroke:none;stroke-width:0.264583"
         d="m -546.00508,-268.9709 c 0,1.41111 0,2.82222 0,4.23333 -1.41111,0 -2.82223,0 -4.23334,0 0,-1.41111 0,-2.82222 0,-4.23333 1.41111,0 2.82223,0 4.23334,0 z"
         id="path6627" />
      <path
         style="fill:#fefefe;fill-opacity:1;fill-rule:nonzero;stroke:none;stroke-width:0.264583"
         d="m -550.23842,-258.38757 c 0,-1.41111 0,-2.82222 0,-4.23333 1.41111,0 2.82223,0 4.23334,0 0,1.41111 0,2.82222 0,4.23333 -1.41111,0 -2.82223,0 -4.23334,0 z"
         id="path6629" />
      <path
         style="fill:#fefefe;fill-opacity:1;fill-rule:nonzero;stroke:none;stroke-width:0.264583"
         d="m -550.23842,-252.03757 c 0,-1.41111 0,-2.82222 0,-4.23333 1.41111,0 2.82223,0 4.23334,0 0,1.41111 0,2.82222 0,4.23333 -1.41111,0 -2.82223,0 -4.23334,0 z"
         id="path6631" />
      <path
         style="fill:#5795eb;fill-opacity:1;fill-rule:nonzero;stroke:none;stroke-width:0.264583"
         d="m -550.23842,-252.03757 c 1.41111,0 2.82223,0 4.23334,0 0,1.32292 0,2.73403 0,4.23333 -0.70556,0 -1.32292,0 -2.02848,0 -0.70555,0 -1.41111,0 -2.20486,0 0,-1.41111 0,-2.82222 0,-4.23333 z"
         id="path6633" />
      <path
         style="fill:#5795eb;fill-opacity:1;fill-rule:nonzero;stroke:none;stroke-width:0.264583"
         d="m -554.47175,-275.3209 c -1.41111,0 -2.82222,0 -4.23333,0 0,-0.70556 0,-1.41112 0,-2.11667 1.41111,0 2.82222,0 4.23333,0 0,0.70555 0,1.41111 0,2.11667 z"
         id="path6635" />
      <path
         style="fill:#5795eb;fill-opacity:1;fill-rule:nonzero;stroke:none;stroke-width:0.264583"
         d="m -546.00508,-275.3209 c -1.41111,0 -2.82223,0 -4.23334,0 0,-0.70556 0,-1.41112 0,-2.11667 1.41111,0 2.82223,0 4.23334,0 0,0.70555 0,1.41111 0,2.11667 z"
         id="path6637" />
      <path
         style="fill:#5795eb;fill-opacity:1;fill-rule:nonzero;stroke:none;stroke-width:0.264583"
         d="m -546.00508,-268.9709 c -1.41111,0 -2.82223,0 -4.23334,0 0,-0.70556 0,-1.41112 0,-2.11667 1.41111,0 2.82223,0 4.23334,0 0,0.70555 0,1.41111 0,2.11667 z"
         id="path6639" />
      <path
         style="fill:#5795eb;fill-opacity:1;fill-rule:nonzero;stroke:none;stroke-width:0.264583"
         d="m -546.00508,-262.6209 c -1.41111,0 -2.82223,0 -4.23334,0 0,-0.70556 0,-1.41112 0,-2.11667 1.41111,0 2.82223,0 4.23334,0 0,0.70555 0,1.41111 0,2.11667 z"
         id="path6641" />
      <path
         style="fill:#5795eb;fill-opacity:1;fill-rule:nonzero;stroke:none;stroke-width:0.264583"
         d="m -558.70508,-262.6209 c 1.41111,0 2.82222,0 4.23333,0 0,0.70555 0,1.41111 0,2.11666 -1.41111,0 -2.82222,0 -4.23333,0 0,-0.70555 0,-1.41111 0,-2.11666 z"
         id="path6643" />
      <path
         style="fill:#5795eb;fill-opacity:1;fill-rule:nonzero;stroke:none;stroke-width:0.264583"
         d="m -546.00508,-256.2709 c -1.41111,0 -2.82223,0 -4.23334,0 0,-0.70556 0,-1.41112 0,-2.11667 1.41111,0 2.82223,0 4.23334,0 0,0.70555 0,1.41111 0,2.11667 z"
         id="path6645" />
      <path
         style="fill:#8e5aba;fill-opacity:1;fill-rule:nonzero;stroke:none;stroke-width:0.264583"
         d="m -575.55022,-279.55424 c 1.32291,0 2.73403,0 4.05694,0 0,1.41111 0,2.73403 0,4.23334 -0.61736,0 -1.23472,0 -1.94028,0 -0.70555,0 -1.41111,0 -2.11666,0 0,-1.41112 0,-2.73403 0,-4.23334 z"
         id="path6647" />
      <path
         style="fill:#8e5aba;fill-opacity:1;fill-rule:nonzero;stroke:none;stroke-width:0.264583"
         d="m -575.55022,-262.6209 c 1.32291,0 2.73403,0 4.05694,0 0,1.41111 0,2.73402 0,4.23333 -0.61736,0 -1.23472,0 -1.94028,0 -0.70555,0 -1.41111,0 -2.11666,0 0,-1.41111 0,-2.73403 0,-4.23333 z"
         id="path6649" />
    </g>
  </g>
</svg>
