<?xml version="1.0" encoding="UTF-8" standalone="no"?>
<!-- Generator: Adobe Illustrator 25.0.0, SVG Export Plug-In . SVG Version: 6.00 Build 0)  -->

<svg
   version="1.1"
   id="Layer_1"
   x="0px"
   y="0px"
   viewBox="0 0 112.3 167.85962"
   xml:space="preserve"
   sodipodi:docname="robot1.svg"
   width="112.3"
   height="167.85962"
   inkscape:version="1.2.2 (b0a8486541, 2022-12-01)"
   xmlns:inkscape="http://www.inkscape.org/namespaces/inkscape"
   xmlns:sodipodi="http://sodipodi.sourceforge.net/DTD/sodipodi-0.dtd"
   xmlns="http://www.w3.org/2000/svg"
   xmlns:svg="http://www.w3.org/2000/svg"><defs
   id="defs8302" /><sodipodi:namedview
   id="namedview8300"
   pagecolor="#505050"
   bordercolor="#ffffff"
   borderopacity="1"
   inkscape:showpageshadow="0"
   inkscape:pageopacity="0"
   inkscape:pagecheckerboard="1"
   inkscape:deskcolor="#505050"
   showgrid="false"
   inkscape:zoom="2.7337867"
   inkscape:cx="87.424525"
   inkscape:cy="95.106178"
   inkscape:window-width="1536"
   inkscape:window-height="923"
   inkscape:window-x="0"
   inkscape:window-y="0"
   inkscape:window-maximized="1"
   inkscape:current-layer="Layer_1" />
<style
   type="text/css"
   id="style8241">
	.st0{fill:#FEFEFE;}
	.st1{fill:#2337AA;}
	.st2{fill:#AC3D2E;}
</style>
<path
   class="st0"
   d="m 112,87.931466 c 0,2.7 0,5.3 0,8 -5.3,0 -10.6,0 -16.1,0 0.3,2.9 -0.2,5.500004 0.3,8.000004 5.5,0 10.6,0 15.8,0 0,2.7 0,5.3 0,8 -5.3,0 -10.6,0 -16.1,0 0.3,2.9 -0.2,5.5 0.3,8 5.5,0 10.6,0 15.8,0 0,5.3 0,10.7 0,16 -5.3,0 -10.6,0 -16.2,0 0,2.9 0,5.5 0,8 -5.5,0 -10.7,0 -15.8,0 0,-2.6 0,-5.2 0,-8 -3,0 -5.6,0 -8.2,0 -2.6,0 -5.2,-0.2 -7.9,0.2 0,2.8 0,5.2 0,7.8 -2.8,0 -5.4,0 -8.1,0 -2.6,0 -5.2,0.2 -7.9,-0.2 0,-2.8 0,-5.2 0,-7.8 -2.8,0 -5.4,0 -8.1,0 -2.6,0 -5.2,-0.2 -7.7,0.1 0,2.9 0,5.4 0,7.8 -5.3,0 -10.6,0 -16.2,0 0,-2.9 0,-5.5 0,-8 -5.5,0 -10.7,0 -15.8,0 0,-2.7 0,-5.3 0,-8 5.3,0 10.6,0 16,0 0,-3 0,-5.6 0,-8.2 0,-2.6 0.1,-5.2 -0.1,-7.8 -5.6,0 -10.8,0 -15.9,0 0,-5.3 0,-10.7 0,-16.000004 5.3,0 10.6,0 16,0 0,-3 0,-5.6 0,-8.2 0,-2.6 0.1,-5.2 -0.1,-7.8 -5.6,0 -10.8,0 -15.9,0 0,-2.7 0,-5.3 0,-8 5.3,0 10.7,0 16,0 5.2,0 10.5,0 16,0 0,-2.8 0,-5.4 0,-8 0,-2.6 0,-5.2 0,-8 3,0 5.6,0 8.3,0 2.6,0 5.2,0.1 7.6,-0.1 0,-2.9 0,-5.4 0,-7.9 -10.5,0 -20.8,0 -31,0 -0.1,0 -0.3,-0.1 -0.4,-0.2 -0.1,-0.1 -0.2,-0.2 -0.3,-0.4 0,-2.5 0,-5 0,-7.5 16,0 32,0 48,0 0,5.3 0,10.5 0,16 5.5,0 10.7,0 16,0 0,2.7 0,5.3 0,8 0,2.6 0,5.2 0,8 5.5,0 10.8,0 16,0 5.3,0 10.7,0 16,0 0,2.7 0,5.3 0,8 -5.3,0 -10.6,0 -16.1,0 0.3,2.9 -0.2,5.5 0.3,8 5.2,0.2 10.3,0.2 15.5,0.2 z m -47.8,-0.1 c 5.1,0 10.4,0 15.6,0 0,-2.7 0,-5.2 0,-7.8 -5.3,0 -10.4,0 -15.6,0 0,2.7 0,5.3 -0.2,7.9 -5.3,0 -10.7,0 -16.2,-0.1 0,-2.5 0,-5.1 0,-7.7 -5.4,0 -10.6,0 -15.7,0 0,2.7 0,5.1 0,7.7 5.4,0 10.6,0 15.9,0.1 0,2.6 0,5.2 0,8 3,0 5.6,0 8.2,0 2.6,0 5.2,0.2 7.8,-0.1 0,-2.9 0,-5.4 0.2,-8 z M 32.1,127.73147 c 16.2,0 32,0 47.9,0 0,-7.8 0,-15.4 0,-23.1 0,-0.1 -0.1,-0.3 -0.2,-0.4 -0.1,-0.1 -0.2,-0.2 -0.2,-0.1 -16,0 -31.7,0 -47.6,0 0.1,7.9 0.1,15.7 0.1,23.6 z M 48.2,64.031466 c 0,2.9 0,5.3 0,7.9 2.8,0 5.4,0 8.1,0 2.6,0 5.2,0.2 7.6,-0.1 0,-2.8 0,-5.3 0,-7.8 -5.3,0 -10.4,0 -15.7,0 z"
   id="path8243" />
<path
   class="st1"
   d="m 64,39.931466 c -16,0 -32,0 -48,0 -5.3,0 -10.7,0 -16,0 0,-5.3 0,-10.7 0,-16 5.3,0 10.7,0 16,0 5.3,0 10.6,0 16.2,0 0,2.9 0,5.5 0,8 10.8,0 21.3,0 31.8,0 5.3,0 10.7,0 16,0 5.2,0 10.5,0 16,0 0,-2.8 0,-5.4 0,-8 0,-2.6 0,-5.2 0,-8 5.5,0 10.8,0 16,0 0,13.3 0,26.7 0,40 -5.2,0 -10.5,0 -16,0 0,-2.8 0,-5.4 0,-8 0,-2.6 0,-5.2 0,-8 -5.5,0 -10.8,0 -16,0 -5.3,0 -10.7,0 -16,0 z"
   id="path8245" />







<path
   class="st1"
   d="m 0,79.931466 c 5.2,0 10.3,0 15.9,0 0.2,2.6 0,5.2 0.1,7.8 0,2.6 0,5.3 0,8.2 -5.4,0 -10.7,0 -16,0 0,-5.3 0,-10.7 0,-16 z"
   id="path8261" />
<path
   class="st1"
   d="m 0,111.93147 c 5.2,0 10.3,0 15.9,0 0.2,2.6 0,5.2 0.1,7.8 0,2.6 0,5.3 0,8.2 -5.4,0 -10.7,0 -16,0 0,-5.3 0,-10.7 0,-16 z"
   id="path8263" />
<path
   class="st1"
   d="m 112,87.931466 c -5.2,0 -10.3,0 -15.8,0 -0.5,-2.5 0,-5.1 -0.3,-8 5.5,0 10.8,0 16.1,0 0,2.7 0,5.3 0,8 z"
   id="path8265" />
<path
   class="st1"
   d="m 112,103.93147 c -5.2,0 -10.3,0 -15.8,0 -0.5,-2.5 0,-5.100004 -0.3,-8.000004 5.5,0 10.8,0 16.1,0 0,2.7 0,5.300004 0,8.000004 z"
   id="path8267" />
<path
   class="st1"
   d="m 112,119.93147 c -5.2,0 -10.3,0 -15.8,0 -0.5,-2.5 0,-5.1 -0.3,-8 5.5,0 10.8,0 16.1,0 0,2.7 0,5.3 0,8 z"
   id="path8269" />

<path
   class="st1"
   d="m 32.1,127.73147 c 0,-7.9 0,-15.7 0,-23.6 15.8,0 31.6,0 47.6,0 -0.1,-0.1 0.1,0 0.2,0.1 0.1,0.1 0.2,0.3 0.2,0.4 0,7.6 0,15.3 0,23.1 -16,0 -31.8,0 -48,0 z"
   id="path8273" />
<path
   class="st1"
   d="m 64,159.93147 c -5.3,0 -10.7,0 -16,0 -5.3,0 -10.5,0 -16,0 0,-5.5 0,-10.7 0,-16 0,-2.5 0,-5 0,-7.8 2.5,-0.4 5.2,-0.1 7.7,-0.1 2.6,0 5.3,0 8.1,0 0,2.6 0,5 0,7.8 2.7,0.4 5.3,0.1 7.9,0.2 2.6,0 5.3,0 8.1,0 0,-2.6 0,-5 0,-7.8 2.7,-0.4 5.3,-0.1 7.9,-0.2 2.6,0 5.3,0 8.2,0 0,2.8 0,5.4 0,8 0,5.3 0,10.5 0,16 -5.4,-0.1 -10.6,-0.1 -15.9,-0.1 z"
   id="path8275" />
<path
   class="st2"
   d="m 80,47.931466 c 0,2.7 0,5.3 0,8 -5.3,0 -10.5,0 -16,0 0,-5.5 0,-10.7 0,-16 5.3,0 10.7,0 16,0 0,2.7 0,5.3 0,8 z"
   id="path8277" />
<path
   class="st1"
   d="m 16,71.931466 c 0,-2.6 0,-5.2 0,-8 5.5,0 10.8,0 16,0 0,2.6 0,5.2 0,8 -5.5,0 -10.8,0 -16,0 z"
   id="path8279" />
<path
   class="st1"
   d="m 48.2,64.031466 c 5.3,0 10.4,0 15.7,0 0,2.5 0,5 0,7.8 -2.4,0.3 -5,0.1 -7.6,0.1 -2.6,0 -5.3,0 -8.1,0 0,-2.6 0,-5 0,-7.9 z"
   id="path8281" />
<path
   class="st1"
   d="m 80,63.931466 c 5.2,0 10.5,0 16,0 0,2.8 0,5.4 0,8 -5.2,0 -10.5,0 -16,0 0,-2.8 0,-5.4 0,-8 z"
   id="path8283" />
<path
   class="st2"
   d="m 47.8,87.831466 c -5.1,0 -10.4,0 -15.7,0 0,-2.6 0,-5 0,-7.7 5.2,0 10.4,0 15.7,0 0,2.6 0,5.2 0,7.7 z"
   id="path8285" />
<path
   class="st2"
   d="m 64.2,87.831466 c 0,-2.5 0,-5.1 0,-7.8 5.2,0 10.3,0 15.6,0 0,2.5 0,5.1 0,7.8 -5.3,0 -10.5,0 -15.6,0 z"
   id="path8287" />
<path
   class="st2"
   d="m 48,87.931466 c 5.3,0 10.7,0 16,0 0,2.5 0,5 0,7.8 -2.5,0.4 -5.2,0.1 -7.8,0.1 -2.6,0 -5.3,0 -8.2,0 0,-2.7 0,-5.3 0,-7.9 z"
   id="path8289" />
<path
   class="st0"
   d="m 32,15.931466 c 5.3,0 10.7,0 16,0 5.3,0 10.7,0 16,0 0,5.3 0,10.7 0,16 -10.5,0 -21,0 -31.8,0 0,-2.5 0,-5.1 0,-8 -5.6,0 -10.9,0 -16.2,0 0,-2.6 0,-5.2 0,-8 5.5,0 10.8,0 16,0 z"
   id="path8291" />
<path
   class="st2"
   d="m 64,31.931466 c 0,-5.3 0,-10.7 0,-16 5.2,0 10.5,0 16,0 0,2.8 0,5.4 0,8 0,2.7 0,5.3 0,8 -5.3,0 -10.7,0 -16,0 z"
   id="path8293" />
<path
   class="st0"
   d="m 80,31.931466 c 0,-2.7 0,-5.3 0,-8 5.3,0 10.7,0 16,0 0,2.6 0,5.2 0,8 -5.5,0 -10.8,0 -16,0 z"
   id="path8295" />
<path
   class="st0"
   d="m 80,47.931466 c 0,-2.7 0,-5.3 0,-8 5.2,0 10.5,0 16,0 0,2.8 0,5.4 0,8 -5.3,0 -10.7,0 -16,0 z"
   id="path8297" />
<path
   class="st2"
   d="m 31.825937,15.731634 c 0,-5.211104 0,-10.5205304 0,-15.731634 5.30039,0 10.70271,0 16.308891,0 0,2.7530359 0,5.3094263 0,7.8658167 0,2.6547133 0,5.2111043 0,7.8658173 -5.40232,0 -10.906571,0 -16.308891,0 z"
   id="path8293-3"
   style="fill:#ac3d2e;stroke-width:1.0011" /><path
   class="st2"
   d="m 47.878181,167.85962 c 0,-2.5 0,-5.1 0,-7.8 5.345144,0 10.587496,0 16.035431,0 0,2.5 0,5.1 0,7.8 -5.447935,0 -10.793078,0 -16.035431,0 z"
   id="path8287-6"
   style="fill:#ac3d2e;stroke-width:1.01386" /></svg>
