<?xml version="1.0" encoding="UTF-8" standalone="no"?>
<!-- Generator: Adobe Illustrator 25.0.0, SVG Export Plug-In . SVG Version: 6.00 Build 0)  -->

<svg
   version="1.1"
   id="Layer_1"
   x="0px"
   y="0px"
   viewBox="0 0 144 168"
   xml:space="preserve"
   sodipodi:docname="1.svg"
   width="144"
   height="168"
   inkscape:version="1.2.2 (b0a8486541, 2022-12-01)"
   xmlns:inkscape="http://www.inkscape.org/namespaces/inkscape"
   xmlns:sodipodi="http://sodipodi.sourceforge.net/DTD/sodipodi-0.dtd"
   xmlns="http://www.w3.org/2000/svg"
   xmlns:svg="http://www.w3.org/2000/svg"><defs
   id="defs75" /><sodipodi:namedview
   id="namedview73"
   pagecolor="#505050"
   bordercolor="#ffffff"
   borderopacity="1"
   inkscape:showpageshadow="0"
   inkscape:pageopacity="0"
   inkscape:pagecheckerboard="1"
   inkscape:deskcolor="#505050"
   showgrid="false"
   inkscape:zoom="3.1443212"
   inkscape:cx="72.82971"
   inkscape:cy="75.692013"
   inkscape:window-width="1536"
   inkscape:window-height="923"
   inkscape:window-x="0"
   inkscape:window-y="0"
   inkscape:window-maximized="1"
   inkscape:current-layer="Layer_1" />
<style
   type="text/css"
   id="style2">
	.st0{fill:#FE0048;}
	.st1{fill:#FEFEFE;}
	.st2{fill:#FEF793;}
	.st3{fill:#EB849A;}
	.st4{fill:#104FA4;}
</style>




<path
   class="st1"
   d="m 64,32 c 0,-7.8 0,-15.6 0,-23.8 2.5,0 5.1,0 8,0 0,-3 0,-5.6 0,-8.2 8,0 16,0 24,0 0,2.6 0,5.2 0,7.9 2.7,0 5.1,0 7.8,0 0,2.7 0,5.2 0,8.1 -2.6,0 -5.2,0 -7.8,0 -2.7,0 -5.3,0 -8,0 -2.6,0 -5.2,0 -8,0 0,2.8 0,5.4 0,8 -2.6,0 -5.2,0 -8,0 0,2.8 0,5.4 0,8 -2.7,0 -5.3,0 -8,0 z"
   id="path12" />
<path
   class="st2"
   d="m 0,16 c 2.5,0 5,0 7.8,0 0,-2.5 0,-5.1 0,-8 8.3,0 16.2,0 24.2,0 0,2.6 0,5.2 0,8 2.8,0 5.4,0 8,0 0,2.7 0,5.3 0,8 -2.7,0 -5.3,0 -8,0 -2.6,0 -5.2,0 -7.9,0 0,-2.7 0,-5.1 0,-7.8 -2.7,0 -5.2,0 -8.1,0 0,2.6 0,5.2 0,7.8 -2.6,0 -5.2,0 -8,0 0,2.8 0,5.4 0,8 -2.7,0 -5.3,0 -8,0 0,-5.3 0,-10.7 0,-16 z"
   id="path14" />
<path
   class="st2"
   d="m 56,168 c 0,-2.6 0,-5.2 0,-7.9 -5.4,0 -10.5,0 -15.8,0 0,-5.3 0,-10.5 0,-16.1 2.6,0 5.2,0 7.8,0 2.6,0 5.2,0 8.2,0 0,2.9 0,5.5 0,8 2.8,0 5.3,0 7.8,0 0,2.5 0,5 0,7.8 2.5,0 5.1,0 8,0 0,2.9 0,5.6 0,8.2 -5.3,0 -10.7,0 -16,0 z"
   id="path16" />
<path
   class="st3"
   d="m 128,24 c 0,-2.6 0,-5.2 0,-8 5.5,0 10.8,0 16,0 0,5.3 0,10.7 0,16 -2.7,0 -5.3,0 -8,0 0,-2.6 0,-5.2 0,-8 -2.8,0 -5.4,0 -8,0 z"
   id="path18" />

<path
   class="st3"
   d="m 0,72 c 2.5,0 5,0 7.9,0 0.3,2.5 0.1,5.1 0.2,8 -2.8,0 -5.4,0 -8,0 C 0,77.3 0,74.7 0,72 Z"
   id="path22" />

<path
   class="st4"
   d="m 64,152 c -2.5,0 -5,0 -7.8,0 0,-2.5 0,-5.1 0,-8 -2.9,0 -5.6,0 -8.2,0 0,-5.2 0,-10.3 0,-15.9 2.6,0 5.1,0 7.9,0 0,-2.8 0,-5.3 0,-8.1 2.7,0 5.3,0 8.1,0 0,-2.8 0,-5.3 0,-7.9 2.6,0 5.1,0 7.9,0 0.3,-2.7 0.1,-5.3 0.2,-8 -2.6,0 -5.1,0 -7.9,0 0,-2.7 0,-5.3 0,-8.1 -2.8,0 -5.3,0 -8.1,0 0,-2.7 0,-5.3 0,-8.1 -2.8,0 -5.3,0 -8.1,0 0,-2.8 0,-5.4 0,-8 0,-2.7 0,-5.3 0,-8 2.7,0 5.3,0 8,0 0,2.6 0,5.2 0,8.1 2.9,-0.3 5.5,0.2 8,-0.3 0,-2.8 0,-5.3 0,-7.8 5.3,0 10.6,0 16.2,0 0,2.9 0,5.5 0,8 2.8,0 5.3,0 7.8,0 0,5.3 0,10.5 0,16 2.8,0 5.2,0 7.8,0 0,8 0,15.9 0,24 -2.5,0 -5,0 -7.8,0 0,2.7 0,5.3 0,8 -2.8,0 -5.2,0 -7.9,0 0,2.6 0,5 0,7.8 -2.7,0 -5.3,0 -8,0 0,2.8 0,5.2 0,8 -2.7,0 -5.3,0 -8.2,0 0.1,3.1 0.1,5.7 0.1,8.3 z"
   id="path26" />
<path
   class="st2"
   d="m 88,80 c -2.5,0 -5,0 -7.8,0 0,-2.5 0,-5.1 0,-8 -5.6,0 -10.9,0 -16.2,0 0,-2.6 0,-5.2 0,-8 -2.8,0 -5.4,0 -8,0 0,-5.3 0,-10.7 0,-16 2.6,0 5.2,0 8,0 0,-2.8 0,-5.4 0,-8 2.7,0 5.3,0 8,0 2.7,0 5.3,0 8,0 0,2.6 0,5.2 0,8 2.8,0 5.4,0 8,0 0,5.3 0,10.6 0,16 2.9,-0.1 5.5,0.1 8,-0.2 0,-2.9 0,-5.4 0,-7.9 2.7,0 5.3,0 8,0 2.7,0 5.3,0 8,0 0,2.5 0,5 0,7.8 -2.5,0 -5.1,0 -7.8,0 0,2.8 0,5.2 0,8 -5.4,0 -10.6,0 -16.2,0 0,3.1 0,5.7 0,8.3 z"
   id="path28" />
<path
   class="st2"
   d="m 128,24 c 2.6,0 5.2,0 8,0 0,2.8 0,5.4 0,8 0,2.5 0,5 0,7.8 -5.2,0.5 -10.4,0 -16,0.2 0,2.7 0,5.3 0,7.9 -2.7,0 -5.3,0 -8,0 -2.7,0 -5.3,0 -8,0 -2.7,0 -5.3,0 -8,0 -2.7,0 -5.3,0 -8,0 0,-2.7 0,-5.3 0,-8 5.2,0 10.3,0 15.8,0 0,-2.5 0,-5.1 0,-7.8 5.4,0 10.6,0 16,0 0,-2.7 0,-5.3 0,-8.2 3,0.1 5.6,0.1 8.2,0.1 z"
   id="path30" />
<path
   class="st1"
   d="m 112,48 c 2.7,0 5.3,0 8,0 0,2.6 0,5.2 0,8 -2.8,0 -5.4,0 -8,0 0,-2.7 0,-5.3 0,-8 z"
   id="path32" />
<path
   class="st1"
   d="m 56,48 c 0,5.3 0,10.7 0,16 -2.7,0 -5.3,0 -8.1,-0.1 -0.1,-5.2 -0.1,-10.4 -0.1,-15.7 -2.7,0 -5.2,0 -7.8,0 0,5.3 0,10.4 0,15.6 2.7,0 5.3,0 7.8,0.1 0.2,2.8 0.2,5.4 0.2,8.1 0,2.7 0,5.3 0,8 -5.3,0 -10.5,0 -16,0 0,-18.9 0,-37.4 0,-56 2.7,0 5.3,0 8,0 0,2.6 0,5.2 0,8 2.8,0 5.4,0 8,0 0,2.5 0,5 0,7.8 2.5,0 5.1,0 8,0 0,3 0,5.6 0,8.2 z"
   id="path34" />
<path
   class="st1"
   d="m 8,32 c 0,-2.6 0,-5.2 0,-8 2.8,0 5.4,0 8,0 0,2.7 0,5.3 0,8 -2.7,0 -5.3,0 -8,0 z"
   id="path36" />
<path
   class="st3"
   d="m 8,32 c 2.7,0 5.3,0 8,0 0,2.6 0,5.2 0,8 -2.8,0 -5.4,0 -8,0 0,-2.7 0,-5.3 0,-8 z"
   id="path38" />
<path
   class="st3"
   d="m 7.9491635,47.578615 c 2.5000005,0 5.1000005,0 7.8000005,0 0,2.6 0,5 0,7.6 -2.5,0 -5.1,0 -7.8000005,0 0,-2.5 0,-5.1 0,-7.6 z"
   id="path40" />
<path
   class="st3"
   d="m 80,40 c -2.7,0 -5.3,0 -8,0 0,-2.7 0,-5.3 0,-8 2.6,0 5.2,0 8,0 0,-2.8 0,-5.4 0,-8 2.6,0 5.2,0 8,0 0,-2.8 0,-5.4 0,-8 2.7,0 5.3,0 8,0 0,5.2 0,10.3 0,15.8 -2.5,0 -5.1,0 -8,0 0,3 0,5.6 0,8.2 -2.7,0 -5.3,0 -8,0 z"
   id="path42" />

<path
   class="st1"
   d="m 40,24 c 0,-2.7 0,-5.3 0,-8 2.6,0 5.2,0 8,0 0,2.8 0,5.4 0,8 -2.7,0 -5.3,0 -8,0 z"
   id="path46" />

<path
   class="st1"
   d="m 48,24 c 2.5,0 5,0 7.8,0 0.4,2.5 0,5.1 0.3,8 -2.9,0 -5.5,0 -8.1,0 0,-2.7 0,-5.3 0,-8 z"
   id="path50" />


<path
   d="m 48,64 c 2.7,0 5.3,0 8,0 2.6,0 5.2,0 8,0 0,2.8 0,5.4 0,8 -2.7,0 -5.3,0 -8,0 -2.7,0 -5.3,0 -8,0 0,-2.7 0,-5.3 0,-8 z"
   id="path56" />
<path
   class="st2"
   d="m 56,72 c 2.7,0 5.3,0 8,0 0,2.5 0,5 0,7.8 -2.5,0.4 -5.1,0 -8,0.3 0,-2.9 0,-5.5 0,-8.1 z"
   id="path58" />
<path
   d="m 88,48 c 2.7,0 5.3,0 8,0 0,2.7 0,5.3 0,8 0,2.5 0,5 0,7.9 -2.5,0.3 -5.1,0.1 -8,0.2 0,-5.5 0,-10.8 0,-16.1 z"
   id="path60" />
<path
   d="m 80,40 c 2.7,0 5.3,0 8,0 0,2.7 0,5.3 0,8 -2.6,0 -5.2,0 -8,0 0,-2.8 0,-5.4 0,-8 z"
   id="path62" />


<path
   class="st4"
   d="m 47.9,63.8 c -2.5,0 -5.1,0 -7.8,0 0,-5.2 0,-10.3 0,-15.6 2.5,0 5.1,0 7.8,0 0,5.3 0,10.5 0,15.6 z"
   id="path68" />
<path
   d="m 48,24 c 0,2.7 0,5.3 0,8 -2.6,0 -5.2,0 -8,0 0,-2.8 0,-5.4 0,-8 2.7,0 5.3,0 8,0 z"
   id="path70" />
<path
   class="st1"
   d="m 31.3,15.996366 c 0,-2.7 0,-5.3 0,-8.0000002 2.6,0 5.2,0 8,0 0,2.8000002 0,5.4000002 0,8.0000002 -2.7,0 -5.3,0 -8,0 z"
   id="path46-3"
   style="fill:#fefefe" /><path
   class="st3"
   d="m 0.1217433,39.955543 c 2.5,0 5.1,0 7.8,0 0,2.6 0,5 0,7.6 -2.5,0 -5.1,0 -7.8,0 0,-2.5 0,-5.1 0,-7.6 z"
   id="path40-6"
   style="fill:#eb849a" /><path
   class="st3"
   d="m 103.95076,47.897845 c 2.5641,0 5.23077,0 8,0 0,2.736842 0,5.263158 0,8 -2.5641,0 -5.23077,0 -8,0 0,-2.631579 0,-5.368421 0,-8 z"
   id="path40-7"
   style="fill:#eb849a;stroke-width:1.03905" /><path
   class="st1"
   d="m 95.91744,47.944622 c 2.7,0 5.3,0 8,0 0,2.6 0,5.2 0,8 -2.8,0 -5.4,0 -8,0 0,-2.7 0,-5.3 0,-8 z"
   id="path32-5"
   style="fill:#fefefe" /><path
   class="st2"
   d="m 72.043131,23.849443 c 2.7,0 5.3,0 8,0 0,2.5 0,5 0,7.8 -2.5,0.4 -5.1,0 -8,0.3 0,-2.9 0,-5.5 0,-8.1 z"
   id="path58-3"
   style="fill:#104fa4;fill-opacity:1" /><path
   class="st2"
   d="m 80.110515,15.909043 c 2.7,0 5.3,0 8,0 0,2.5 0,5 0,7.8 -2.5,0.4 -5.1,0 -8,0.3 0,-2.9 0,-5.5 0,-8.1 z"
   id="path58-3-5"
   style="fill:#104fa4;fill-opacity:1" /><path
   class="st2"
   d="m 63.958041,32.039753 c 2.7,0 5.3,0 8,0 0,2.5 0,5 0,7.8 -2.5,0.4 -5.1,0 -8,0.3 0,-2.9 0,-5.5 0,-8.1 z"
   id="path58-3-6"
   style="fill:#104fa4;fill-opacity:1" /></svg>
