<?xml version="1.0" encoding="UTF-8" standalone="no"?>
<!-- Generator: Adobe Illustrator 25.0.0, SVG Export Plug-In . SVG Version: 6.00 Build 0)  -->

<svg
   version="1.1"
   id="Layer_1"
   x="0px"
   y="0px"
   viewBox="0 0 384 366"
   xml:space="preserve"
   sodipodi:docname="CBMAvatar-WorldKarateWhiteWarrior.svg"
   width="384"
   height="366"
   inkscape:version="1.2.2 (b0a8486541, 2022-12-01)"
   xmlns:inkscape="http://www.inkscape.org/namespaces/inkscape"
   xmlns:sodipodi="http://sodipodi.sourceforge.net/DTD/sodipodi-0.dtd"
   xmlns="http://www.w3.org/2000/svg"
   xmlns:svg="http://www.w3.org/2000/svg"><defs
   id="defs7215" /><sodipodi:namedview
   id="namedview7213"
   pagecolor="#505050"
   bordercolor="#ffffff"
   borderopacity="1"
   inkscape:showpageshadow="0"
   inkscape:pageopacity="0"
   inkscape:pagecheckerboard="1"
   inkscape:deskcolor="#505050"
   showgrid="false"
   inkscape:zoom="31.40589"
   inkscape:cx="7.9284491"
   inkscape:cy="10.730471"
   inkscape:window-width="1536"
   inkscape:window-height="923"
   inkscape:window-x="0"
   inkscape:window-y="0"
   inkscape:window-maximized="1"
   inkscape:current-layer="Layer_1" />
<style
   type="text/css"
   id="style7154">
	.st0{fill:#EA8398;}
	.st1{fill:#3B3844;}
</style>



























<g
   id="g9076"
   transform="matrix(1.7761332,0,0,1.1505816,-529.11009,-156.36404)"><path
     d="m 358,136 c 0,1.8 0,3.7 0,5.8 3.9,0 7.6,0 11.9,0 0,4.3 0,8.2 0,12.1 -7.9,0 -15.8,0 -23.9,0 0,2.5 0,4.3 0,6.1 l 0.1,-0.1 c -3.9,0 -7.7,0 -12.1,0 0,4.3 0,8.2 0,12.1 l 0.1,-0.1 c -3.9,0 -7.9,0 -12.1,0 0,8.4 0,16.2 0,24 -3.8,0 -7.6,0 -11.7,0 -0.1,-2 -0.2,-3.7 -0.3,-6 -4,0 -7.9,0 -11.9,0 0,-14 0,-28 0,-42 3.9,0 7.8,0 12,0 0,-2.2 0,-3.9 0,-6.1 4.2,0 8,0 12,0 0,-2.3 0,-4.1 0,-5.9 C 334,136 346,136 358,136 Z"
     id="path7156" /><path
     class="st0"
     d="m 406,292 c -3.8,0 -7.5,0 -11.7,0 -0.2,2.2 -0.3,4.2 -0.5,6.1 -7.9,0 -15.9,0.1 -23.8,0.1 -4,-0.1 -8,-0.2 -12,-0.3 -0.1,-1.9 -0.2,-3.8 -0.4,-6.1 -4.1,0 -7.8,0 -11.6,0 0,-4.2 0,-8 0,-11.8 l -0.1,0.1 c 3.9,0 7.8,0 11.8,0 0,-2.5 0,-4.3 0,-6.1 0.1,-2 0.1,-4 0.2,-6 v 0 c 3.9,0 7.8,0 11.6,0 0.3,2.3 0.6,4 0.8,6 4.1,0 7.8,0 11.6,0 h 0.1 c 0,1.9 0,3.8 0,6 8.4,0 16.2,0 24,0 0,4 0,8 0,12 z"
     id="path7158" /><path
     class="st0"
     d="m 382,448.2 c 0,1.9 0,3.9 0,5.8 -20,0 -40,0 -60,0 0,-3.9 0,-7.8 0,-12.1 4.3,0 8.1,0 11.9,0 0.1,-2.2 0.2,-4 0.3,-5.8 h -0.1 c 4,-0.1 7.9,-0.2 11.9,-0.3 4,0.1 8,0.2 12,0.3 0.1,1.9 0.2,3.8 0.4,6.1 4.1,0 7.8,0 11.5,0 0.2,2.2 0.4,3.9 0.6,6 4,0 7.7,0 11.5,0 z"
     id="path7160" /><path
     d="m 334.1,436.1 c -0.1,1.8 -0.2,3.6 -0.3,5.8 -3.8,0 -7.5,0 -11.9,0 0,4.3 0,8.2 0,12.1 -4,0 -8,0 -12,0 0,-1.9 0,-3.8 0,-6 -4.3,0 -8.1,0 -12,0 0,-4 0,-8 0,-12 3.8,0 7.6,0 11.8,0 0.1,-1.9 0.3,-3.7 0.4,-6.1 3.9,0 7.9,0 11.8,0 0.1,1.9 0.2,3.8 0.3,6.1 4.4,0.1 8.2,0.1 11.9,0.1 z"
     id="path7162" /><path
     class="st0"
     d="m 393.9,255.9 c 0,3.8 0,7.5 0,12.1 4.4,0 8.3,0 12.1,0 0,2 0,4 0,6 -8,0 -16,0 -24,0 l 0.1,0.1 c 0,-5.9 0,-11.8 0,-18.1 4.2,-0.1 8,-0.1 11.8,-0.1 z"
     id="path7164" /><path
     d="m 382,274 c 8,0 16,0 24,0 0,2 0,4 0,6 -7.8,0 -15.6,0 -24,0 0,-2.2 0,-4.1 0,-6 z"
     id="path7166" /><path
     class="st1"
     d="m 334.1,436.1 c -3.8,0 -7.6,0 -11.9,0 -0.1,-2.3 -0.2,-4.2 -0.3,-6.1 0.1,-16 0.1,-32 0.2,-48 3.8,0 7.6,0 11.9,0 0,-2.5 0,-4.2 0,-6 v 0 c 4,0 8,0 12.1,-0.1 0,1.9 0,3.8 0,5.7 4.4,0 8,0 11.9,0 -0.1,-2 -0.2,-3.5 -0.3,-5.6 -4.2,0 -8,0 -11.7,0 0,-1.9 0,-3.8 0,-6.1 -4.5,0 -8.3,0 -12,0 0,0 0.1,0.1 0.1,0.1 -0.1,-1.9 -0.2,-3.7 -0.3,-6 -4.2,0 -7.9,0 -11.6,0 0,-6 0,-12.1 0,-18.1 3.8,0 7.6,0 11.4,0 0,-2.3 0,-4 0,-5.9 -4.1,0 -7.7,0 -11.4,0 -0.1,-1.8 -0.2,-3.6 -0.3,-5.8 -3.7,0 -7.4,0 -11.7,0 0,-10.3 0,-20.3 0,-30.3 15.8,0 31.6,0 47.6,0 0.1,-2.5 0.2,-4.3 0.3,-6.1 4,0.1 8,0.2 12,0.3 0,1.8 0,3.5 0,5.6 4.2,0.2 7.9,0.4 12,0.6 0,8.3 0,16 0,23.8 -0.1,14 -0.1,28 -0.2,42 -3.8,0 -7.7,0 -11.8,0 0,2.5 0,4.3 0,6 0,15.8 0,31.5 0,47.7 -3.9,0 -7.7,0 -12,0 0,2.3 0,4.2 0,6.1 0,2.1 -0.1,4.1 -0.1,6.2 -4,-0.1 -8,-0.2 -12,-0.3 0,-1.8 0,-3.5 0,-5.5 -4.2,0 -7.9,0 -11.9,0 0,2.2 0,4 0,5.7 z"
     id="path7168"
     style="fill:#ffffff;fill-opacity:1" /><path
     class="st1"
     d="m 393.9,255.9 c -3.8,0 -7.5,0 -11.8,0 0,6.3 0,12.2 0,18.1 -3.8,0 -7.5,0 -11.6,0 -0.3,-2 -0.5,-3.7 -0.8,-6 -3.8,0 -7.7,0 -11.6,0 0,-13.9 0,-27.8 0,-41.6 -4.5,0 -8,0 -11.7,0 0,14 0,27.5 0,41.6 4.1,0 7.9,0 11.7,0 -0.1,2 -0.1,4 -0.2,6 -3.8,0 -7.7,0 -11.8,0 0,2.5 0,4.3 0,6.1 0,0 0.1,-0.1 0.1,-0.1 -3.9,0 -7.8,0 -12.2,0 0,4.3 0,7.9 0,12 -8.3,0 -16,0 -23.7,0 0,-2 0,-4.1 0,-6.1 3.8,0 7.6,0 11.4,0 0,-2.3 0,-4 0,-5.9 -4.1,0 -7.7,0 -11.4,0 0,-2 0,-4.1 0,-6.1 3.8,0 7.6,0 11.4,0 0,-2.3 0,-4 0,-5.9 -4.1,0 -7.7,0 -11.4,0 0,-19.8 0,-39.6 0,-59.8 3.8,0 7.5,0 11.6,0 0.2,-2.3 0.3,-4.3 0.4,-6.2 7.9,0 15.8,0 23.6,0 0.2,2.3 0.4,3.9 0.6,6 4,0 7.7,0 11.5,0 0.1,1.8 0.2,3.6 0.3,5.8 3.8,0 7.5,0 11.7,0 0,4.1 0,7.8 0,12 4.1,0 7.9,0 12,0 0,8.1 0,15.8 0,24 4.1,0 7.8,0 12,0 -0.1,2.3 -0.1,4.2 -0.1,6.1 z"
     id="path7170"
     style="fill:#ffffff;fill-opacity:1" /><path
     class="st0"
     d="m 357.9,208.1 c -3.8,0 -7.6,0 -11.5,0 -0.2,-2.1 -0.4,-3.7 -0.6,-6 -7.8,0 -15.7,0 -23.6,0 -0.1,-2 -0.1,-4.1 -0.2,-6.1 0,-7.8 0,-15.6 0,-24 4.3,0 8.2,0 12.1,0 0,3.9 0,7.8 0,11.7 4.3,0 8,0 11.6,0 0,-4 0,-7.8 0,-11.6 -4.1,0 -7.9,0 -11.7,0 0,-3.9 0,-7.7 0,-12.1 4.4,0 8.2,0 12.1,0 0,1.9 0,3.8 0,6.2 4.2,0 8,0 11.7,0 0.2,2.2 0.3,3.9 0.5,5.6 4.1,0 7.8,0 11.6,0 0.1,-2.1 0.2,-3.9 0.3,-5.7 3.7,0 7.5,0 11.5,0 0,4.1 0,7.6 0,11.8 -3.6,0 -7.3,0 -11.3,0 -0.2,2.5 -0.3,4.4 -0.5,6.3 -3.9,0 -7.8,0 -11.9,0 0.1,2.3 0.2,4 0.3,5.9 4.1,0 7.9,0 11.6,0 0,1.8 0,3.6 0,5.9 -3.9,0 -7.5,0 -12,0 0,4.3 0,8.2 0,12.1 z"
     id="path7172" /><path
     d="m 310.2,292 c 7.7,0 15.5,0 23.7,0 0,-4.2 0,-7.7 0,-12 4.4,0 8.3,0 12.2,0 0,3.8 0,7.6 0,11.8 3.8,0 7.5,0 11.6,0 0.1,2.3 0.3,4.2 0.4,6.1 -0.1,1.8 -0.2,3.6 -0.3,6.1 -16,0 -31.8,0 -47.6,0 0,-4 0,-8 0,-12 z"
     id="path7174" /><path
     d="m 310.2,280 c 3.6,0 7.3,0 11.4,0 0,1.9 0,3.6 0,5.9 -3.8,0 -7.6,0 -11.4,0 0,-1.9 0,-3.9 0,-5.9 z"
     id="path7176" /><path
     d="m 322.2,340 c 3.6,0 7.3,0 11.4,0 0,1.9 0,3.6 0,5.9 -3.8,0 -7.6,0 -11.4,0 0,-1.9 0,-3.9 0,-5.9 z"
     id="path7178" /><path
     d="m 322.2,364 c 3.7,0 7.4,0 11.6,0 0.1,2.2 0.2,4.1 0.3,6 -4,0 -7.9,-0.1 -11.9,-0.1 0,-1.9 0,-3.9 0,-5.9 z"
     id="path7180" /><path
     class="st1"
     d="m 322.2,369.9 c 4,0 7.9,0.1 11.9,0.1 0,0 -0.1,-0.1 -0.1,-0.1 0,2 0,4 0,6.1 0,0 0.1,-0.1 0.1,-0.1 -4,0 -7.9,0.1 -11.9,0.1 0,-2 0,-4 0,-6.1 z"
     id="path7182"
     style="fill:#ffffff;fill-opacity:1" /><path
     d="m 322.2,376 c 4,0 7.9,-0.1 11.9,-0.1 0,1.8 0,3.5 0,6 -4.2,0 -8,0 -11.9,0 0,-1.9 0,-3.9 0,-5.9 z"
     id="path7184" /><path
     d="m 310.2,268 c 3.6,0 7.3,0 11.4,0 0,1.9 0,3.6 0,5.9 -3.8,0 -7.6,0 -11.4,0 0,-1.9 0,-3.9 0,-5.9 z"
     id="path7186" /><path
     d="m 370.2,166 c -0.1,1.8 -0.2,3.6 -0.3,5.7 -3.7,0 -7.5,0 -11.6,0 -0.1,-1.7 -0.3,-3.4 -0.5,-5.6 -3.8,0 -7.5,0 -11.7,0 0,-2.3 0,-4.3 0,-6.2 0,0 -0.1,0.1 -0.1,0.1 8,0 15.9,0 23.9,0 0.1,2 0.2,4 0.3,6 z"
     id="path7188" /><path
     class="st0"
     d="m 369.9,160.1 c -8,0 -15.9,0 -23.9,0 0,-1.8 0,-3.6 0,-6.1 8.1,0 16,0 23.9,0 0,2 0,4 0,6.1 z"
     id="path7190" /><path
     d="m 369.9,189.9 c -3.8,0 -7.5,0 -11.6,0 -0.1,-1.9 -0.2,-3.6 -0.3,-5.9 4.1,0 8,0 11.9,0 0,2 0,4 0,5.9 z"
     id="path7192" /><path
     d="m 357.9,436.1 c 0,-2.1 0.1,-4.1 0.1,-6.2 7.8,0 15.6,0 23.7,0 0.1,2 0.3,3.8 0.4,5.9 3.7,0 7.5,0 11.5,0 0,4.1 0,7.8 0,12.3 -3.8,0 -7.8,0 -11.7,0 -3.8,0 -7.6,0 -11.7,0 -0.2,-2.1 -0.4,-3.8 -0.6,-6 -3.7,0 -7.4,0 -11.5,0 0,-2.2 -0.1,-4.1 -0.2,-6 z"
     id="path7194" /><path
     d="m 382,328.1 c 0,-7.8 0,-15.5 0,-23.8 -4.1,-0.2 -7.8,-0.4 -12,-0.6 0,-2.1 0,-3.8 0,-5.6 7.9,0 15.9,-0.1 23.8,-0.1 0,9.8 0,19.6 0,30 -3.9,0.1 -7.9,0.1 -11.8,0.1 z"
     id="path7196" /><path
     d="m 370,376.1 c 0,-1.8 0,-3.5 0,-6 4.2,0 8,0 11.8,0 0,1.8 0,3.6 0,6 -3.9,0 -7.8,0 -11.8,0 z"
     id="path7198" /><path
     d="m 346,280.1 c 0,-1.8 0,-3.6 0,-6.1 4.1,0 8,0 11.8,0 0,1.8 0,3.6 0,6.1 -3.9,0 -7.8,0 -11.8,0 z"
     id="path7200" /><path
     d="m 334,436.1 c 0,-1.8 0,-3.6 0,-5.7 4,0 7.7,0 11.9,0 0,1.9 0,3.7 0,5.5 -3.9,0 -7.9,0.1 -11.9,0.2 z"
     id="path7202" /><path
     d="m 334,376 c 0,-2 0,-4 0,-6.1 3.7,0 7.5,0 12,0 0,2.3 0,4.2 0,6.1 l 0.1,-0.1 C 342,376 338,376 334,376 Z"
     id="path7204" /><path
     d="m 346,376 c 3.8,0 7.6,0 11.7,0 0.1,2 0.2,3.6 0.3,5.6 -3.9,0 -7.5,0 -11.9,0 -0.1,-1.8 -0.1,-3.7 -0.1,-5.6 0,0 0,0 0,0 z"
     id="path7206" /><path
     d="m 358,268 c -3.8,0 -7.6,0 -11.7,0 0,-14.1 0,-27.7 0,-41.6 3.6,0 7.2,0 11.7,0 0,13.8 0,27.7 0,41.6 0,0 0,0 0,0 z"
     id="path7208" /><path
     d="m 333.9,172 c 3.8,0 7.6,0 11.7,0 0,3.9 0,7.6 0,11.6 -3.6,0 -7.4,0 -11.6,0 0,-3.8 0,-7.7 -0.1,-11.6 0.1,-0.1 0,0 0,0 z"
     id="path7210" /></g>
</svg>
