<?xml version="1.0" encoding="UTF-8" standalone="no"?>
<!-- Generator: Adobe Illustrator 25.0.0, SVG Export Plug-In . SVG Version: 6.00 Build 0)  -->

<svg
   version="1.1"
   id="Layer_1"
   x="0px"
   y="0px"
   viewBox="0 0 384 366"
   xml:space="preserve"
   sodipodi:docname="CBMAvatar-WorldKarateMasterWarrior.svg"
   width="384"
   height="366"
   inkscape:version="1.2.2 (b0a8486541, 2022-12-01)"
   xmlns:inkscape="http://www.inkscape.org/namespaces/inkscape"
   xmlns:sodipodi="http://sodipodi.sourceforge.net/DTD/sodipodi-0.dtd"
   xmlns="http://www.w3.org/2000/svg"
   xmlns:svg="http://www.w3.org/2000/svg"><defs
   id="defs1175" /><sodipodi:namedview
   id="namedview1173"
   pagecolor="#505050"
   bordercolor="#ffffff"
   borderopacity="1"
   inkscape:showpageshadow="0"
   inkscape:pageopacity="0"
   inkscape:pagecheckerboard="1"
   inkscape:deskcolor="#505050"
   showgrid="false"
   inkscape:zoom="1.3641449"
   inkscape:cx="68.907636"
   inkscape:cy="145.87893"
   inkscape:window-width="1536"
   inkscape:window-height="923"
   inkscape:window-x="0"
   inkscape:window-y="0"
   inkscape:window-maximized="1"
   inkscape:current-layer="Layer_1" />
<style
   type="text/css"
   id="style1110">
	.st0{fill:#3B3844;}
	.st1{fill:#EA8398;}
	.st2{fill:#FEFEFE;}
</style>





























<g
   id="g1873"
   transform="matrix(3.5555556,0,0,1.9666846,-1016.8889,-310.5395)"><path
     class="st0"
     d="m 286,248 c 0,-14 0,-28 0,-42 3.9,0 7.8,0 11.8,0 0.2,-2.3 0.3,-4 0.4,-6 4.1,0 7.9,0 11.7,0 0.1,1.9 0.3,3.8 0.4,6.2 4.2,0 8,0 11.8,0 0,1.8 0,3.5 0,5.7 4.2,0 8,0 11.7,0 0,5.9 0,11.8 0,17.7 4.5,0 8.2,0 12.3,0 0,-6.1 0,-11.9 0,-17.7 3.8,0 7.5,0 11.7,0 0,-2.2 0,-4 0,-5.7 3.9,0 7.9,0 11.9,0 0.1,-2.6 0.2,-4.4 0.3,-6.2 3.9,0 7.8,0 11.7,0 0.2,2.3 0.4,4.1 0.5,6 4.1,0 7.9,0 11.7,0 0,18 0,36 0,54 -4,0 -8.1,0.1 -12.1,0.1 h 0.1 c 0,-3.9 0,-7.8 0,-11.8 -8.4,0 -16,0 -23.9,0 0,2.2 0,4 0,5.8 l 0.1,-0.1 c -3.9,0 -7.7,0 -12.1,0 0,2.3 0,4.1 0,5.8 -4,0 -8.1,0 -12.1,0 0,-1.8 0,-3.5 0,-5.8 -4.3,0 -8.2,0 -12.1,0 v 0.1 c 0,-1.9 0,-3.8 0,-6.1 -12.3,0 -24.1,0 -35.8,0 z"
     id="path1112"
     style="fill:#ffffff;fill-opacity:1" /><path
     class="st1"
     d="m 322.1,206.2 c -3.8,0 -7.6,0 -11.8,0 -0.2,-2.4 -0.3,-4.3 -0.4,-6.2 0,-11.9 0,-23.8 0,-36.2 4.5,0 8.1,0 12.1,0 0,-2.3 0,-4.1 0,-5.9 12,0 24,0 36,0 0,1.9 0,3.8 0,6.2 4.4,0 8,0 12.1,0 0,12.3 0,24 0,35.8 -0.1,1.8 -0.2,3.6 -0.3,6.2 -4.1,0 -8,0 -11.9,0 0,0 0.2,-0.3 0.2,-0.3 0,-1.9 0,-3.7 0,-5.9 -4.6,0 -8.3,0 -12,0 0,-1.9 0,-3.8 0,-5.7 -4.4,0 -8,0 -12,0 0,2.1 0,3.9 0,5.7 -3.9,0 -7.7,0 -12,0 0,2.4 0,4.1 0,5.9 z m 35.8,-35.9 c -12.2,0 -23.9,0 -35.5,0 0,4.1 0,7.8 0,11.3 4.1,0 7.8,0 11.5,0 0.1,-2 0.2,-3.6 0.3,-5.4 4,0 7.7,0 11.7,0 0.1,2 0.2,3.7 0.3,5.5 4.1,0 7.8,0 11.7,0 0,-3.9 0,-7.5 0,-11.4 z"
     id="path1114" /><path
     class="st1"
     d="m 322,344 c -12,0 -24,0 -36,0 0,-4 0,-8 0,-12 3.9,0 7.9,0 12.1,0 0,-2.3 0,-4.1 0,-5.9 3.9,0 7.8,0 11.6,0 0.2,-2.5 0.4,-4.1 0.5,-5.7 4.1,0 7.8,0 11.5,0 0.2,2 0.4,3.6 0.6,5.7 4,0 7.8,0 11.6,0 0,3.9 0,7.8 0,12.1 -4.3,0 -8,0 -11.9,0 0,2.2 0,4 0,5.8 z"
     id="path1120" /><path
     class="st1"
     d="m 394,332 c 0,4 0,8 0,12 -12,0 -24,0 -36,0 0,-1.9 0,-3.8 0,-6.2 -4.3,0 -8,0 -11.9,0 0,-6.2 0,-12 0,-17.7 3.9,0 7.8,0 11.6,0 0.2,2.3 0.4,3.9 0.6,6 8,0 15.8,0 23.6,0 0.1,1.9 0.2,3.8 0.4,5.9 4.1,0 7.9,0 11.7,0 z"
     id="path1122" /><path
     d="m 346.1,320.1 c 0,5.8 0,11.5 0,17.7 3.9,0 7.6,0 11.9,0 0,2.3 0,4.2 0,6.2 -12,0 -24,0 -36,0 0,-1.8 0,-3.6 0,-5.8 3.9,0 7.6,0 11.9,0 0,-4.3 0,-8.2 0,-12.1 0.1,-8.1 0.1,-16.2 0.2,-24.3 4,0 7.9,0 11.9,0 0,6.1 0,12.2 0.1,18.3 z"
     id="path1124" /><path
     d="m 298,266.1 c -4,0 -8,0 -12,-0.1 0,-6 0,-12 0,-18 11.7,0 23.5,0 35.9,0 0,2.3 0,4.2 0,6.1 -7.9,0 -15.8,0 -23.9,0 0,4.3 0,8.2 0,12 z"
     id="path1130" /><path
     d="m 286,314 c 4,0 8,-0.1 12,-0.1 0,4.1 0.1,8.1 0.1,12.2 0,1.8 0,3.6 0,5.9 -4.2,0 -8.2,0 -12.1,0 0,-6 0,-12 0,-18 z"
     id="path1132" /><path
     d="m 382,313.9 c 4,0 8,0.1 12,0.1 0,6 0,12 0,18 -3.8,0 -7.6,0 -11.7,0 -0.1,-2.1 -0.2,-4 -0.4,-5.9 0,-4.1 0.1,-8.1 0.1,-12.2 z"
     id="path1134" /><path
     d="m 394,266 c -4,0 -8,0 -12,0.1 0,-2 -0.1,-4 -0.1,-6 4,0 8.1,-0.1 12.1,-0.1 0,2 0,4 0,6 z"
     id="path1136" /><path
     class="st1"
     d="m 381.9,260.1 c 0,2 0.1,4 0.1,6 0,0 0.1,-0.1 0.1,-0.1 -4,0 -8,0 -12.1,0 0,2.4 0,4.2 0,6 -3.9,0 -7.8,0 -12,0 0,2.4 0,4.2 0,6 -12,0 -24,0 -36,0 0,-1.8 0,-3.6 0,-5.9 -4.1,0 -7.8,0 -11.7,0 -0.3,-2.3 -0.5,-4 -0.7,-6 -4.1,0 -7.9,0 -11.7,0 0,0 0.1,0.1 0.1,0.1 0,-3.8 0,-7.6 0,-11.9 8.1,0 16,0 23.9,0 0,0 0,-0.1 0,-0.1 0.1,1.9 0.2,3.8 0.3,5.8 4.2,0 7.9,0 11.7,0 4,0 8.1,0 12.1,0 3.9,0 7.8,0 12.1,0 0,-2.2 0,-4 0,-5.8 0,0 -0.1,0.1 -0.1,0.1 3.9,0 7.8,0 11.7,0 0.2,2.2 0.3,3.9 0.5,6 4.1,0 7.9,0 11.7,0 z"
     id="path1138" /><path
     class="st1"
     d="m 346.2,211.9 c 0,5.8 0,11.6 0,17.7 -4.1,0 -7.8,0 -12.3,0 0,-5.9 0,-11.8 0,-17.7 0.1,-2 0.1,-4 0.2,-6 L 334,206 c 4.1,0 8.1,0 12.2,0 l -0.1,-0.1 c -0.1,2 0,4 0.1,6 z"
     id="path1140" /><path
     d="m 382,260.1 c -3.8,0 -7.6,0 -11.7,0 -0.2,-2.1 -0.3,-3.8 -0.5,-6 -3.9,0 -7.8,0 -11.7,0 0,-1.8 0,-3.6 0,-5.8 8,0 15.6,0 23.9,0 0,4 0,7.9 0,11.8 z"
     id="path1142" /><path
     d="m 334,205.9 c -0.1,2 -0.1,4 -0.2,6 -3.8,0 -7.5,0 -11.7,0 0,-2.2 0,-4 0,-5.7 0,0 -0.2,-0.3 -0.2,-0.3 4.1,0 8.1,0 12.1,0 z"
     id="path1144" /><path
     d="m 346.2,211.9 c -0.1,-2 -0.1,-4 -0.2,-6 4,0 8,0 12,-0.1 0,0 -0.2,0.3 -0.2,0.3 0,1.8 0,3.5 0,5.7 -4.1,0.1 -7.9,0.1 -11.6,0.1 z"
     id="path1146" /><path
     d="m 333.9,259.8 c -3.8,0 -7.6,0 -11.7,0 -0.1,-2 -0.2,-3.9 -0.3,-5.8 3.9,0 7.7,0 12.1,0 -0.1,2.3 -0.1,4.1 -0.1,5.8 z"
     id="path1148" /><path
     d="m 358.1,254 c 0,1.8 0,3.6 0,5.8 -4.2,0 -8.1,0 -12.1,0 0,-1.8 0,-3.5 0,-5.8 4.4,0 8.3,0 12.1,0 z"
     id="path1150" /><path
     d="m 357.9,170.3 c 0,3.9 0,7.5 0,11.4 -3.9,0 -7.6,0 -11.7,0 -0.1,-1.8 -0.2,-3.5 -0.3,-5.5 -4,0 -7.7,0 -11.7,0 -0.1,1.8 -0.2,3.4 -0.3,5.4 -3.7,0 -7.4,0 -11.5,0 0,-3.5 0,-7.2 0,-11.3 11.5,0 23.2,0 35.5,0 z"
     id="path1152" /><path
     class="st2"
     d="m 334,200 c 0,-1.8 0,-3.6 0,-5.7 4,0 7.6,0 12,0 0,1.9 0,3.8 0,5.7 0,0 0,0 0,0 -4,0 -8,0 -12,0 z"
     id="path1154" /><path
     class="st2"
     d="m 334,205.9 c -4,0 -8,0 -12,-0.1 0,-1.8 0,-3.5 0,-5.9 4.3,0 8.2,0 12,0 0,0 0,0 0,0 0,2 -0.1,4 -0.1,6 z"
     id="path1156" /><path
     class="st2"
     d="m 358,205.9 c -4,0 -8,0 -12,0.1 0,0 0.1,0.1 0.1,0.1 0,-2 -0.1,-4 -0.1,-6 0,0 0,0 0,0 3.7,0 7.5,0 12,0 0,2.1 0,3.9 0,5.8 z"
     id="path1158" /><path
     class="st0"
     d="m 297.9,266 c 3.8,0 7.6,0 11.7,0 0.2,2 0.4,3.7 0.7,6 3.8,0 7.6,0 11.7,0 0,2.3 0,4.1 0,5.9 0,5.9 0,11.8 0,17.8 4.5,0 8.1,0 11.8,0 0.1,0.1 0.3,0.3 0.4,0.4 0,1.9 -0.1,3.8 -0.1,5.7 -0.1,8.1 -0.1,16.2 -0.2,24.3 -3.8,0 -7.6,0 -11.6,0 -0.2,-2.2 -0.4,-3.8 -0.6,-5.7 -3.7,0 -7.4,0 -11.5,0 -0.2,1.6 -0.3,3.2 -0.5,5.7 -3.8,0 -7.7,0 -11.6,0 0,-4.1 -0.1,-8.1 -0.1,-12.2 0,-15.9 -0.1,-31.9 -0.1,-47.9 z"
     id="path1160"
     style="fill:#ffffff;fill-opacity:1" /><path
     class="st0"
     d="m 358,278 c 0,-1.8 0,-3.6 0,-6 4.2,0 8.1,0 12,0 4,0 7.9,0 11.9,0 0.1,14 0.1,28 0.2,42 0,4.1 -0.1,8.1 -0.1,12.2 -7.8,0 -15.6,0 -23.6,0 -0.2,-2.1 -0.4,-3.7 -0.6,-6 -3.8,0 -7.7,0 -11.6,0 -0.1,-6.1 -0.1,-12.2 -0.2,-18.3 0,-1.8 0,-3.6 0,-5.7 -4.2,0 -8,0 -11.8,0 -0.1,-0.1 -0.3,-0.3 -0.4,-0.4 0,-3.8 0,-7.5 0,-11.5 4.5,0 8,0 11.7,0 0.4,2 0.7,3.7 1,5.4 3.9,0 7.4,0 11.5,0 0,-4.2 0,-8 0,-11.7 z"
     id="path1162"
     style="fill:#ffffff;fill-opacity:1" /><path
     d="m 381.8,271.9 c -4,0 -7.9,0 -11.9,0 0,-1.8 0,-3.6 0,-6 4.2,0 8.1,0 12.1,0 0,2.1 -0.1,4.1 -0.2,6 z"
     id="path1166" /><path
     d="m 358,278 c 0,3.8 0,7.6 0,11.7 -4,0 -7.6,0 -11.5,0 -0.3,-1.7 -0.6,-3.4 -1,-5.4 -3.7,0 -7.3,0 -11.7,0 0,4 0,7.7 0,11.5 -3.6,0 -7.3,0 -11.8,0 0,-6 0,-11.9 0,-17.8 12,0 24,0 36,0 z"
     id="path1168" /><path
     d="m 346,200 c 0,2 0.1,4 0.1,6 -4.1,0 -8.1,0 -12.2,0 0,-2 0.1,-4 0.1,-6 4,0 8,0 12,0 z"
     id="path1170" /></g>
</svg>
