<?xml version="1.0" encoding="UTF-8" standalone="no"?>
<!-- Created with Inkscape (http://www.inkscape.org/) -->

<svg
   width="384"
   height="366"
   viewBox="0 0 101.6 96.837502"
   version="1.1"
   id="svg940"
   inkscape:version="1.2.2 (b0a8486541, 2022-12-01)"
   sodipodi:docname="CBMAvatar-WorldKarateRedWarrior.svg"
   xmlns:inkscape="http://www.inkscape.org/namespaces/inkscape"
   xmlns:sodipodi="http://sodipodi.sourceforge.net/DTD/sodipodi-0.dtd"
   xmlns="http://www.w3.org/2000/svg"
   xmlns:svg="http://www.w3.org/2000/svg">
  <sodipodi:namedview
     id="namedview942"
     pagecolor="#505050"
     bordercolor="#ffffff"
     borderopacity="1"
     inkscape:showpageshadow="0"
     inkscape:pageopacity="0"
     inkscape:pagecheckerboard="1"
     inkscape:deskcolor="#505050"
     inkscape:document-units="px"
     showgrid="false"
     inkscape:zoom="26.910886"
     inkscape:cx="6.2056671"
     inkscape:cy="11.816779"
     inkscape:window-width="1536"
     inkscape:window-height="923"
     inkscape:window-x="0"
     inkscape:window-y="0"
     inkscape:window-maximized="1"
     inkscape:current-layer="layer1" />
  <defs
     id="defs937" />
  <g
     inkscape:label="Layer 1"
     inkscape:groupmode="layer"
     id="layer1">
    <g
       id="g1205"
       transform="matrix(1.7777778,0,0,1.1505816,-307.95593,91.858079)">
      <path
         d="m 189.10021,-79.809754 c -0.18521,1.508125 1.16417,1.217083 1.905,1.561042 0.3175,0.15875 0.76729,0.02646 1.21709,0.02646 0,1.084792 0,2.116667 0,3.148542 -2.09021,0 -4.18042,0 -6.32355,0 0,0.661458 0,1.137708 0,1.613958 l 0.0265,-0.02646 c -1.03187,0 -2.03729,0 -3.20146,0 0,1.137708 0,2.169583 0,3.201458 l 0.0265,-0.02646 c -1.03187,0 -2.09021,0 -3.20146,0 0,2.2225 0,4.28625 0,6.35 -1.00541,0 -2.01083,0 -3.09562,0 -0.0265,-0.529167 -0.0529,-0.978959 -0.0794,-1.5875 -1.05833,0 -2.0902,0 -3.14854,0 0,-3.704167 0,-7.408334 0,-11.1125 1.03188,0 2.06375,0 3.175,0 0,-0.582084 0,-1.031875 0,-1.613959 1.11125,0 2.11667,0 3.175,0 0,-0.608541 0,-1.084791 0,-1.561041 3.175,0.02646 6.35,0.02646 9.525,0.02646 z"
         id="path779"
         style="stroke-width:0.264583" />
      <path
         class="st0"
         d="m 201.80021,-38.534754 c -1.00542,0 -1.98437,0 -3.09562,0 -0.0529,0.582083 -0.0794,1.11125 -0.1323,1.613958 -2.0902,0 -4.18041,0 -6.29708,0 -1.05833,-0.02646 -2.11666,-0.02646 -3.175,-0.05292 -0.0265,-0.502708 -0.0794,-1.005416 -0.10583,-1.613958 -1.08479,0 -2.06375,0 -3.09563,0 0,-1.11125 0,-2.116667 0,-3.122083 l -0.0265,0.02646 c 1.03187,0 2.0902,0 3.14854,0 0,-0.635 0,-1.11125 0,-1.5875 0,-0.529167 0.0265,-1.084792 0.0265,-1.613958 v 0 c 1.03187,0 2.06375,0 3.06916,0 0.10584,0.635 0.15875,1.058333 0.23813,1.5875 1.05833,0 2.06375,0 3.0427,0 v 0 c 0,0.502708 0,1.005416 0,1.5875 2.2225,0 4.28625,0 6.35,0 0.0529,1.058333 0.0529,2.116666 0.0529,3.175 z"
         id="path781"
         style="fill:#ea8398;stroke-width:0.264583" />
      <path
         class="st0"
         d="m 195.45021,2.7931618 c 0.0794,0.5027083 0.15875,1.031875 0.26458,1.5345833 -5.37104,0 -10.76854,0 -16.13958,0 0,-1.031875 0,-2.06375 0,-3.2014583 1.13771,0 2.14313,0 3.175,0 0,-0.58208334 0,-1.05833333 0,-1.56104166 l -0.0265,0.0264583 c 1.05834,-0.0264583 2.09021,-0.0264583 3.14855,-0.0529167 1.05833,0.0264583 2.11666,0.0264583 3.175,0.0529167 0.0264,0.50270833 0.0794,1.00541666 0.10583,1.61395836 1.08479,0 2.06375,0 3.04271,0 0.0529,0.5820833 0.10583,1.031875 0.15875,1.5875 1.11125,0 2.0902,0 3.09562,0 z"
         id="path783"
         style="fill:#ea8398;stroke-width:0.264583" />
      <path
         d="m 182.75021,-0.43475486 c 0,0.47624999 0,0.95249999 0,1.56104166 -1.05833,0 -2.03729,0 -3.175,0 0,1.1377083 0,2.1695833 0,3.2014583 -1.05833,0 -2.11666,0 -3.175,0 0,-0.5027083 0,-1.0054167 0,-1.5875 -1.13771,0 -2.14312,0 -3.175,0 0,-1.0583333 0,-2.11666664 0,-3.17499996 1.00542,0 2.01084,0 3.12209,0 0.0265,-0.50270833 0.0794,-0.97895834 0.10583,-1.58749994 1.03187,0 2.06375,0 3.09562,0 0.0265,0.5027083 0.0529,1.0054166 0.10584,1.58749994 1.11125,0 2.11666,0 3.09562,0 z"
         id="path785"
         style="stroke-width:0.264583" />
      <path
         class="st0"
         d="m 198.59875,-48.086213 c 0,1.005417 0,1.984375 0,3.201459 1.16417,0 2.19604,0 3.20146,0 0,0.529166 0,1.058333 0,1.5875 -2.11667,0 -4.23333,0 -6.35,0 0,0 0,0 0,0 0,-1.561042 0,-3.122084 0,-4.788959 1.19063,0 2.16958,0 3.14854,0 z"
         id="path787"
         style="fill:#ea8398;stroke-width:0.264583" />
      <path
         d="m 195.45021,-43.297254 c 2.11667,0 4.23333,0 6.35,0 0,0.529166 0,1.058333 0,1.5875 -2.06375,0 -4.1275,0 -6.35,0 0,-0.582084 0,-1.084792 0,-1.5875 z"
         id="path789"
         style="stroke-width:0.264583" />
      <path
         class="st2"
         d="m 182.75021,-0.43475486 c -1.00541,0 -2.01083,0 -3.12208,0 -0.0265,-0.58208334 -0.0794,-1.08479164 -0.10583,-1.58749994 0.0265,-4.2333333 0.0529,-8.4666662 0.0529,-12.7000002 1.32292,0.02646 2.80459,0.343959 3.12209,-1.5875 1.05833,0 2.11666,0 3.20145,0 0,0.502709 0,1.005417 0,1.534584 1.13771,0 2.09021,0 3.06917,0 0,-0.529167 0,-0.978959 0,-1.508125 -1.08479,0 -2.09021,0 -3.09562,0 0,-0.502709 0,-1.005417 0,-1.666875 -1.16417,0 -2.14313,0 -3.09563,0 -0.0529,-0.582084 -0.10583,-1.005417 -0.15875,-1.508125 -1.05833,0 -2.03729,0 -3.04271,0 0,-1.693334 0,-3.360209 0,-5.053542 1.00542,0.132292 2.01084,0.238125 3.04271,0.370417 0,-0.687917 0,-1.137709 0,-1.799167 -1.03187,0.132292 -1.93146,0.264583 -2.8575,0.396875 -0.10583,-0.582083 -0.23812,-1.137708 -0.37042,-1.852083 -0.89958,0 -1.905,0 -2.98979,0 0,-2.725208 0,-5.344583 0,-7.963958 4.20688,0 8.38729,0 12.59417,0 0.0265,-0.635 0.0529,-1.11125 0.10583,-1.5875 1.05834,0.02646 2.11667,0.02646 3.175,0.05292 0,0.47625 0,0.9525 0,1.5875 1.05834,0 2.06375,0 3.175,0 0,2.2225 0,4.28625 0,6.35 -0.0265,3.704167 -0.0529,7.408333 -0.0529,11.1125 -1.03187,0 -2.03729,0 -3.12208,0 0,0.635 0,1.11125 0,1.5875 0,4.180417 0,8.3343749 0,12.6470832 -1.05833,0 -2.03729,0 -3.175,0 0,0.635 0,1.1377083 0,1.6404166 -0.0265,0.5291667 -0.0529,1.05833335 -0.0529,1.61395834 -1.05834,-0.0264583 -2.11667,-0.0264583 -3.175,-0.0529167 0,-0.50270832 0,-0.97895824 0,-1.48166664 -1.13771,0 -2.11667,0 -3.14855,0 0.0265,0.5291667 0.0265,1.00541665 0.0265,1.45520831 z"
         id="path793"
         style="fill:#ac465c;stroke-width:0.264583" />
      <path
         class="st2"
         d="m 198.59875,-48.086213 c -0.97896,0 -1.93146,0 -3.14854,0 0,1.640417 0,3.227917 0,4.788959 -1.00542,0 -1.98437,0 -3.04271,0 -0.0794,-0.529167 -0.13229,-0.9525 -0.23812,-1.5875 -1.00542,0 -2.03729,0 -3.06917,0 0,-3.677709 0,-7.355417 0,-11.033125 -1.13771,0 -2.09021,0 -3.09562,0 0,3.704166 0,7.3025 0,11.033125 1.08479,0 2.09021,0 3.09562,0 0,0.529166 -0.0265,1.084791 -0.0265,1.613958 -1.03187,0 -2.06375,0 -3.14854,0 0,0.635 0,1.11125 0,1.5875 l 0.0265,-0.02646 c -1.03187,0 -2.06375,0 -3.22792,0 0,1.137708 0,2.090208 0,3.201458 -2.16958,0 -4.23333,0 -6.27062,0 0,-0.529167 0,-1.084792 0,-1.613958 1.03187,0 2.06375,0 3.14854,0 -0.0265,-0.608542 -0.0529,-1.031875 -0.0794,-1.561042 -1.0848,0 -2.06375,0 -3.06917,0 0,-0.529167 0,-1.084792 0,-1.613958 1.03187,0 2.06375,0 3.14854,0 -0.0265,-0.608542 -0.0529,-1.031875 -0.0794,-1.561042 -1.0848,0 -2.06375,0 -3.06917,0 0,-5.23875 0,-10.451042 0,-15.822083 0.97896,0 1.95792,0 3.04271,0 0.0529,-0.635 0.0794,-1.137708 0.13229,-1.640417 2.06375,0 4.1275,0 6.16479,0 0.10583,0.608542 0.21167,1.058334 0.3175,1.5875 1.03188,0 2.01083,0 2.96333,0 0.0265,0.47625 0.0529,0.9525 0.0794,1.561042 1.00542,0 2.01083,0 3.12208,0 0,1.11125 0,2.090208 0,3.148542 1.08479,0 2.03729,0 3.12208,0 0,2.116666 0,4.153958 0,6.323541 1.11125,0 2.09021,0 3.20146,0 0,0.608542 0,1.11125 0,1.613958 z"
         id="path795"
         style="fill:#ac465c;stroke-width:0.264583" />
      <path
         class="st0"
         d="m 189.07375,-60.733296 c -0.9525,0 -1.93145,0 -2.96333,0 -0.10583,-0.529166 -0.18521,-0.978958 -0.3175,-1.5875 -2.06375,0 -4.10104,0 -6.16479,0 -0.0265,-0.529166 -0.0529,-1.084791 -0.0529,-1.613958 0,-2.06375 0,-4.1275 0,-6.35 1.13771,0 2.16959,0 3.20146,0 0,1.031875 0,2.06375 0,3.095625 1.13771,0 2.11667,0 3.06917,0 0,-1.058333 0,-2.06375 0,-3.069167 -1.08479,0 -2.09021,0 -3.09563,0 0,-1.031875 0,-2.037291 0,-3.201458 1.16417,0 2.16959,0 3.20146,0 0,0.502708 0,1.005417 0,1.640417 1.11125,0 2.11667,0 3.09563,0 0.0529,0.582083 0.0794,1.031875 0.13229,1.481666 1.08479,0 2.06375,0 3.06916,0 0.0265,-0.555625 0.0529,-1.031875 0.0794,-1.508125 0.97896,0 1.98437,0 3.04271,0 0,1.084792 0,2.010834 0,3.122084 -0.9525,0 -1.93146,0 -2.98979,0 -0.0529,0.661458 -0.0794,1.164166 -0.1323,1.666875 -1.03187,0 -2.06375,0 -3.14854,0 0.0265,0.608541 0.0529,1.058333 0.0794,1.561041 1.08479,0 2.09021,0 3.06916,0 0,0.47625 0,0.9525 0,1.561042 -1.03187,0 -2.01083,0 -3.175,0 0,1.137708 0,2.169583 0,3.201458 z"
         id="path797"
         style="fill:#ea8398;stroke-width:0.264583" />
      <path
         d="m 176.45313,-38.534754 c 2.06375,0 4.1275,0 6.27062,0 0,-1.084792 0,-2.037292 0,-3.201459 1.13771,0 2.16959,0 3.22792,0 0,1.005417 0,2.010834 0,3.122084 1.03188,0 2.01083,0 3.09563,0 0.0529,0.608541 0.0794,1.11125 0.10583,1.613958 -0.0265,0.47625 -0.0529,0.9525 -0.10583,1.5875 -4.20688,0 -8.41375,0 -12.59417,0 0,-1.005417 0,-2.06375 0,-3.122083 z"
         id="path799"
         style="stroke-width:0.264583" />
      <path
         d="m 185.92521,-16.309755 c -1.05833,0 -2.11666,0 -3.20146,0 l 0.0265,0.02646 c -0.0265,-0.3175 -0.0529,-0.661459 -0.0794,-1.084792 -1.08479,0 -2.06375,0 -3.06917,0 0,-0.687917 0,-1.402292 0,-2.090208 1.00542,0 1.98438,0 3.04271,0 0.0529,0.529166 0.10583,0.9525 0.15875,1.508125 0.9525,0 1.93146,0 3.09562,0 0.0265,0.635 0.0265,1.137708 0.0265,1.640416 z"
         id="path801"
         style="stroke-width:0.264583" />
      <path
         d="m 176.45313,-44.884754 c 1.00542,0 1.98437,0 3.06917,0 0.0265,0.529166 0.0529,0.9525 0.0794,1.561041 -1.08479,0 -2.11667,0 -3.14854,0 0,-0.502708 0,-1.031875 0,-1.561041 z"
         id="path803"
         style="stroke-width:0.264583" />
      <path
         d="m 176.45313,-41.709754 c 1.00542,0 1.98437,0 3.06917,0 0.0265,0.529166 0.0529,0.9525 0.0794,1.561041 -1.08479,0 -2.11667,0 -3.14854,0 0,-0.502708 0,-1.031875 0,-1.561041 z"
         id="path805"
         style="stroke-width:0.264583" />
      <path
         d="m 179.81334,-25.543713 c 0.89958,-0.132292 1.82562,-0.264583 2.8575,-0.396875 0,0.661458 0,1.11125 0,1.799167 -1.03188,-0.132292 -2.03729,-0.238125 -3.04271,-0.370417 0.0529,-0.343958 0.10583,-0.687917 0.18521,-1.031875 z"
         id="path807"
         style="stroke-width:0.264583" />
      <path
         d="m 182.75021,-16.309755 c -0.34396,1.931459 -1.79916,1.613959 -3.12208,1.5875 0,-0.529166 0,-1.031875 0,-1.561041 1.03187,-0.02646 2.09021,-0.02646 3.12208,-0.02646 z"
         id="path809"
         style="stroke-width:0.264583" />
      <path
         class="st2"
         d="m 182.75021,-16.309755 c -1.05833,0 -2.09021,0 -3.14854,0 0,-0.370416 0,-0.714375 0,-1.084791 0.97896,0 1.98438,0 3.06917,0 0.0265,0.423333 0.0529,0.767291 0.0794,1.084791 z"
         id="path811"
         style="fill:#ac465c;stroke-width:0.264583" />
      <path
         d="m 192.32813,-71.872254 c -0.0265,0.47625 -0.0529,0.9525 -0.0794,1.508125 -0.97895,0 -1.98437,0 -3.06916,0 -0.0265,-0.449792 -0.0794,-0.899583 -0.13229,-1.481667 -1.00542,0 -1.98438,0 -3.09563,0 0,-0.608541 0,-1.137708 0,-1.640416 0,0 -0.0265,0.02646 -0.0265,0.02646 2.11667,0 4.20688,0 6.32354,0 0.0265,0.529167 0.0529,1.058333 0.0794,1.5875 z"
         id="path813"
         style="stroke-width:0.264583" />
      <path
         class="st0"
         d="m 192.24875,-73.433296 c -2.11666,0 -4.20687,0 -6.32354,0 0,-0.47625 0,-0.9525 0,-1.613958 2.14313,0 4.23334,0 6.32354,0 0,0.529167 0,1.058333 0,1.613958 z"
         id="path815"
         style="fill:#ea8398;stroke-width:0.264583" />
      <path
         d="m 192.24875,-65.548712 c -1.00541,0 -1.98437,0 -3.06916,0 -0.0265,-0.502709 -0.0529,-0.9525 -0.0794,-1.561042 1.08479,0 2.11667,0 3.14854,0 0,0.529167 0,1.058333 0,1.561042 z"
         id="path817"
         style="stroke-width:0.264583" />
      <path
         d="m 189.0473,-0.40829653 c 0.0264,-0.52916666 0.0529,-1.05833327 0.0529,-1.61395827 2.06375,0 4.1275,0 6.27063,0 0.0265,0.5291666 0.0529,0.9789583 0.0794,1.56104161 1.00542,0 2.01083,0 3.06917,0 0,1.08479165 0,2.06374999 0,3.25437499 -1.00542,0 -2.06375,0 -3.09563,0 -1.00541,0 -2.01083,0 -3.09562,0 -0.0529,-0.555625 -0.10583,-1.0054167 -0.15875,-1.5875 -0.97896,0 -1.95792,0 -3.04271,0 0,-0.60854167 -0.0265,-1.11125 -0.0794,-1.61395833 z"
         id="path819"
         style="stroke-width:0.264583" />
      <path
         d="m 195.47667,-29.009754 c 0,-2.06375 0,-4.1275 0,-6.35 -1.11125,0 -2.11667,0 -3.175,0 0,-0.635 0,-1.11125 0,-1.5875 2.09021,0 4.18042,0 6.29708,0 0,2.592916 0,5.185833 0,7.9375 -1.05833,0 -2.09021,0 -3.12208,0 z"
         id="path821"
         style="stroke-width:0.264583" />
      <path
         d="m 192.30167,-16.309755 c 0,-0.47625 0,-0.9525 0,-1.5875 1.05833,0 2.09021,0 3.12208,0 0,0.47625 0,0.9525 0,1.5875 -1.03187,0 -2.0902,0 -3.12208,0 z"
         id="path823"
         style="stroke-width:0.264583" />
      <path
         d="m 185.92521,-41.683296 c 0,-0.47625 0,-0.9525 0,-1.5875 1.08479,0 2.11667,0 3.14854,0 0,0.47625 0,0.9525 0,1.5875 -1.08479,0 -2.11666,0 -3.14854,0 z"
         id="path825"
         style="stroke-width:0.264583" />
      <path
         d="m 182.75021,-0.40829653 c 0,-0.47624999 0,-0.95249997 0,-1.50812497 1.03188,0 2.01084,0 3.14854,0 0,0.47625 0,0.97895831 0,1.48166664 -1.05833,0 -2.0902,0 -3.14854,0.0264583 z"
         id="path827"
         style="stroke-width:0.264583" />
      <path
         d="m 185.92521,-16.309755 c 1.00542,0 2.01084,0 3.09563,0 0,0.529167 0,1.005417 0,1.508125 -1.00542,0 -1.95792,0 -3.06917,0 -0.0265,-0.502708 -0.0265,-1.005416 -0.0265,-1.508125 0,0 0,0 0,0 z"
         id="path829"
         style="stroke-width:0.264583" />
      <path
         d="m 189.10021,-44.884754 c -1.00541,0 -2.01083,0 -3.09562,0 0,-3.730625 0,-7.355417 0,-11.033125 1.00541,0 1.95791,0 3.09562,0 0,3.677708 0,7.355416 0,11.033125 0,0 0,0 0,0 z"
         id="path831"
         style="stroke-width:0.264583" />
      <path
         d="m 182.72375,-70.284754 c 1.00542,0 2.01084,0 3.09563,0 0,1.031875 0,2.010833 0,3.069167 -0.9525,0 -1.95792,0 -3.06917,0 0,-1.005417 0,-2.037292 -0.0265,-3.069167 0.0265,-0.02646 0,0 0,0 z"
         id="path833"
         style="stroke-width:0.264583" />
    </g>
  </g>
</svg>
