<?xml version="1.0" encoding="UTF-8" standalone="no"?>
<!-- Generator: Adobe Illustrator 25.0.0, SVG Export Plug-In . SVG Version: 6.00 Build 0)  -->

<svg
   version="1.1"
   id="svg373"
   x="0px"
   y="0px"
   viewBox="0 0 384 366"
   style="enable-background:new 0 0 384 366;"
   xml:space="preserve"
   sodipodi:docname="CBMAvatar-Black.svg"
   inkscape:version="1.2.2 (b0a8486541, 2022-12-01)"
   xmlns:inkscape="http://www.inkscape.org/namespaces/inkscape"
   xmlns:sodipodi="http://sodipodi.sourceforge.net/DTD/sodipodi-0.dtd"
   xmlns="http://www.w3.org/2000/svg"
   xmlns:svg="http://www.w3.org/2000/svg"><defs
   id="defs20" />
<style
   type="text/css"
   id="style2">
	.st0{fill:none;}
</style>
<sodipodi:namedview
   bordercolor="#ffffff"
   borderopacity="1"
   id="namedview375"
   inkscape:current-layer="layer1"
   inkscape:cx="253"
   inkscape:cy="197"
   inkscape:deskcolor="#505050"
   inkscape:document-units="px"
   inkscape:pagecheckerboard="1"
   inkscape:pageopacity="0"
   inkscape:showpageshadow="0"
   inkscape:window-height="923"
   inkscape:window-maximized="1"
   inkscape:window-width="1536"
   inkscape:window-x="0"
   inkscape:window-y="0"
   inkscape:zoom="1"
   pagecolor="#505050"
   showgrid="false">
	</sodipodi:namedview>
<g
   id="layer1"
   inkscape:groupmode="layer"
   inkscape:label="Layer 1">
	<g
   id="g257"
   transform="matrix(0.03034014,0,0,0.01871022,-0.01213605,-0.00374204)">
		<path
   id="path4"
   d="m 7597.2,19561.7 c -843.2,0 -1688.1,0 -2531.3,0 0,-303.3 0,-606.6 0,-949.9 -308.8,0 -569.6,0 -849.6,0 0,-953.4 0,-1868.5 0,-2780.1 556.8,0 1113.6,0 1667.3,0 0,-643.2 0,-1242.8 0,-1868.5 -278.4,0 -532.8,0 -822.4,0 0,-625.7 0,-1225.3 0,-1865 -299.2,0 -561.6,0 -859.2,0 0,-331.2 0,-618.8 0,-934.2 -291.2,0 -545.6,0 -833.6,0 0,-315.5 0,-604.8 0,-909.8 -305.6,0 -572.8,0 -840,0 0,-305 0,-608.3 0,-909.8 -300.8,0 -560,0 -835.2,0 0,320.7 0,615.3 0,909.8 -275.2,0 -552,0 -859.2,0 0,-1272.4 0,-2490.8 0,-3733.5 -300.8,0 -566.4,0 -833.6,0 0,-930.8 0,-1863.3 0,-2794 275.2,0 550.4,0 859.2,0 0,-651.9 0,-1249.7 0,-1873.7 289.6,0 542.4,0 830.4,0 0,-313.7 0,-604.8 0,-930.8 579.2,0 1120,0 1684.9,0 0,-334.7 0,-627.5 0,-922 1969.7,0 3937.8,0 5907.5,0 0,303.3 0,606.6 0,949.9 590.4,0 1132.8,0 1696.1,0 0,319 0,597.9 0,916.8 284.8,0 547.2,0 843.2,0 0,639.7 0,1237.5 0,1859.8 302.4,0 569.6,0 835.2,0 0,930.8 0,1863.3 0,2794 -275.2,0 -550.4,0 -857.6,0 0,1270.6 0,2489 0,3733.5 -300.8,0 -568,0 -835.2,0 0,-305 0,-608.3 0,-909.8 -299.2,0 -560,0 -835.2,0 0,320.7 0,615.3 0,909.8 -275.2,0 -552,0 -864,0 0,334.7 0,622.3 0,937.7 -291.2,0 -544,0 -833.6,0 0,315.5 0,604.8 0,934.2 -299.2,0 -561.6,0 -846.4,0 0,631 0,1221.8 0,1851.1 -284.8,0 -548.8,0 -811.2,0 0,639.7 0,1239.3 0,1854.6 572.8,0 1121.6,0 1668.9,0 0,923.8 0,1845.8 0,2809.7 -305.6,0 -566.4,0 -849.6,0 4.2,331 4.2,625.6 4.2,920.2 z M 6762,6527.2 c 553.6,0 1108.8,0 1651.3,0 0,-350.3 0,-639.7 0,-920.3 -560,0 -1092.8,0 -1640.1,0 0,322.5 0,625.7 0,930.8 -571.2,-3.5 -1142.5,-8.7 -1712.1,-12.2 0,-934.3 0,-1870.2 0,-2802.8 566.4,-1.7 1131.3,-1.7 1697.7,-1.7 0,305 0,608.3 0,911.6 580.8,0 1121.6,0 1657.7,0 0,-313.7 0,-601.3 0,-901.1 -572.8,0 -1120,0 -1667.3,0 0,-305 0,-608.3 0,-909.8 -580.8,0 -1121.6,0 -1676.9,0 0,320.7 0,617 0,911.6 -275.2,0 -550.4,0 -824,0 0,951.7 0,1858 0,2781.8 291.2,0 556.8,0 824,0 0,303.3 0,606.6 0,915.1 579.2,0 1118.4,0 1692.9,0 -3.2,-319.1 -3.2,-611.9 -3.2,-903 z" />
		<path
   id="path10"
   class="st0"
   d="m 5069.1,6513.2 c -267.2,0 -534.4,0 -824,0 0,-923.8 0,-1830.2 0,-2781.8 273.6,0 548.8,0 824,0 l -9.6,-10.5 c 0,934.2 0,1870.2 0,2802.7 z" />
		<path
   id="path12"
   class="st0"
   d="m 5070.7,3731.4 c 0,-294.6 0,-590.9 0,-911.6 555.2,0 1096,0 1676.9,0 0,301.5 0,604.8 0,909.8 l 9.6,-10.5 c -566.4,1.7 -1131.2,1.7 -1697.7,1.7 0,-1.6 11.2,10.6 11.2,10.6 z" />
		<path
   id="path14"
   class="st0"
   d="m 6747.6,3727.9 c 547.2,0 1094.4,0 1667.3,0 0,299.8 0,587.4 0,901.1 -534.4,0 -1076.8,0 -1657.7,0 0,-305 0,-608.3 0,-911.6 z" />
		<path
   id="path16"
   class="st0"
   d="m 6773.2,6535.9 c 0,-305 0,-608.3 0,-930.8 547.2,0 1080,0 1640.1,0 0,282.4 0,570 0,920.3 -542.4,0 -1096,0 -1651.3,-1.7 0,1.8 11.2,12.2 11.2,12.2 z" />
		<path
   id="path18"
   class="st0"
   d="m 5059.5,6523.7 c 571.2,3.5 1142.5,8.7 1713.7,13.9 0,1.7 -11.2,-10.5 -11.2,-10.5 0,292.8 0,585.6 0,901.1 -574.4,0 -1113.6,0 -1692.9,0 0,-308.5 0,-611.8 0,-915.1 z" />
		<path
   id="path20"
   d="m 1685,10239.9 c 284.8,0 569.6,0 854.4,0 0,625.7 0,1249.7 0,1873.7 -267.2,0 -534.4,0 -854.4,0 0,-643.1 0,-1258.4 0,-1873.7 z" />
		<path
   id="path22"
   d="m 2529.8,12103.3 c 267.2,0 534.4,0 854.4,0 0,643.2 0,1258.4 0,1873.7 -267.2,0 -534.4,0 -854.4,0 0,-643.2 0,-1258.5 0,-1873.7 z" />
		<path
   id="path24"
   d="m 3373,13966.5 c 267.2,0 534.4,0 854.4,0 0,643.2 0,1258.4 0,1873.7 -267.2,0 -534.4,0 -854.4,0 0,-643.1 0,-1258.4 0,-1873.7 z" />
		<path
   id="path26"
   d="m 10123.7,10239.9 c 284.8,0 569.6,0 854.4,0 0,604.8 0,1211.4 0,1873.7 -300.8,0 -577.6,0 -854.4,0 0,-624 0,-1248 0,-1873.7 z" />
		<path
   id="path28"
   d="m 9280.5,13977 c 0,-604.8 0,-1211.4 0,-1873.7 300.8,0 577.6,0 854.4,0 0,604.8 0,1211.4 0,1873.7 -302.4,0 -577.6,0 -854.4,0 z" />
		<path
   id="path30"
   d="m 8435.7,15840.3 c 0,-604.8 0,-1211.4 0,-1873.7 300.8,0 577.6,0 854.4,0 0,604.8 0,1211.4 0,1873.7 -300.8,0 -577.6,0 -854.4,0 z" />
	</g>
</g>
</svg>
