<?xml version="1.0" encoding="utf-8"?>
<!-- Generator: Adobe Illustrator 25.0.0, SVG Export Plug-In . SVG Version: 6.00 Build 0)  -->
<svg version="1.1"
	 id="svg373" inkscape:version="1.2.2 (b0a8486541, 2022-12-01)" sodipodi:docname="CBMAvatar-Brown.svg" xmlns:inkscape="http://www.inkscape.org/namespaces/inkscape" xmlns:sodipodi="http://sodipodi.sourceforge.net/DTD/sodipodi-0.dtd" xmlns:svg="http://www.w3.org/2000/svg"
	 xmlns="http://www.w3.org/2000/svg" xmlns:xlink="http://www.w3.org/1999/xlink" x="0px" y="0px" viewBox="0 0 384 366"
	 style="enable-background:new 0 0 384 366;" xml:space="preserve">
<style type="text/css">
	.st0{fill:#8D4300;}
	.st1{fill:none;}
</style>
<sodipodi:namedview  bordercolor="#ffffff" borderopacity="1" id="namedview375" inkscape:current-layer="layer1" inkscape:cx="286.23555" inkscape:cy="493.4005" inkscape:deskcolor="#505050" inkscape:document-units="px" inkscape:pagecheckerboard="1" inkscape:pageopacity="0" inkscape:showpageshadow="0" inkscape:window-height="923" inkscape:window-maximized="1" inkscape:window-width="1536" inkscape:window-x="0" inkscape:window-y="0" inkscape:zoom="0.63234634" pagecolor="#505050" showgrid="false">
	</sodipodi:namedview>
<g id="layer1" inkscape:groupmode="layer" inkscape:label="Layer 1">
	<path id="path4" class="st0" d="M230.4,366c-25.6,0-51.2,0-76.8,0c0-5.2,0-12.2,0-17.4c-9.6,0-17.6,0-25.6,0c0-17.4,0-34.9,0-52.3
		c17.6,0,33.6,0,51.2,0c0-12.2,0-22.7,0-34.9c-8,0-16,0-25.6,0c0-12.2,0-22.7,0-34.9c-9.6,0-17.6,0-25.6,0c0-7,0-12.2,0-17.4
		c-9.6,0-16,0-25.6,0c0-5.2,0-12.2,0-17.4c-9.6,0-17.6,0-25.6,0c0-5.2,0-12.2,0-17.4c-9.6,0-17.6,0-25.6,0c0,5.2,0,12.2,0,17.4
		c-8,0-16,0-25.6,0c0-24.4,0-47.1,0-69.7C16,122,8,122,0,122c0-17.4,0-34.9,0-52.3c8,0,16,0,25.6,0c0-12.2,0-22.7,0-34.9
		c8,0,16,0,25.6,0c0-5.2,0-10.5,0-17.4c17.6,0,33.6,0,51.2,0c0-7,0-12.2,0-17.4c59.2,0,120,0,179.2,0c0,5.2,0,12.2,0,17.4
		c17.6,0,33.6,0,51.2,0c0,5.2,0,10.5,0,17.4c8,0,16,0,25.6,0c0,12.2,0,22.7,0,34.9c9.6,0,17.6,0,25.6,0c0,17.4,0,34.9,0,52.3
		c-8,0-16,0-25.6,0c0,24.4,0,47.1,0,69.7c-9.6,0-17.6,0-25.6,0c0-5.2,0-12.2,0-17.4c-9.6,0-17.6,0-25.6,0c0,5.2,0,12.2,0,17.4
		c-8,0-16,0-25.6,0c0,7,0,12.2,0,17.4c-9.6,0-16,0-25.6,0c0,5.2,0,12.2,0,17.4c-9.6,0-17.6,0-25.6,0c0,12.2,0,22.7,0,34.9
		c-8,0-16,0-24,0c0,12.2,0,22.7,0,34.9c17.6,0,33.6,0,51.2,0c0,17.4,0,34.9,0,52.3c-9.6,0-17.6,0-25.6,0
		C230.4,355.5,230.4,360.8,230.4,366z M204.8,122c17.6,0,33.6,0,49.6,0c0-7,0-12.2,0-17.4c-17.6,0-33.6,0-49.6,0
		C204.8,111.5,204.8,116.8,204.8,122c-17.6,0-33.6,0-51.2,0c0-17.4,0-34.9,0-52.3c17.6,0,33.6,0,51.2,0c0,5.2,0,12.2,0,17.4
		c17.6,0,33.6,0,49.6,0c0-5.2,0-10.5,0-17.4c-17.6,0-33.6,0-51.2,0c0-5.2,0-12.2,0-17.4c-17.6,0-33.6,0-51.2,0c0,5.2,0,12.2,0,17.4
		c-6.4,0-14.4,0-24,0c0,17.4,0,34.9,0,52.3c9.6,0,17.6,0,25.6,0c0,5.2,0,12.2,0,17.4c17.6,0,33.6,0,51.2,0
		C204.8,132.5,204.8,127.2,204.8,122z"/>
	<path id="path10" class="st1" d="M153.6,122c-8,0-16,0-25.6,0c0-17.4,0-34.9,0-52.3c8,0,16,0,25.6,0l0,0
		C153.6,87.1,153.6,104.6,153.6,122z"/>
	<path id="path12" class="st1" d="M153.6,69.7c0-5.2,0-10.5,0-17.4c17.6,0,33.6,0,51.2,0c0,5.2,0,12.2,0,17.4l0,0
		C187.2,69.7,171.2,69.7,153.6,69.7L153.6,69.7z"/>
	<path id="path14" class="st1" d="M204.8,69.7c16,0,33.6,0,51.2,0c0,5.2,0,10.5,0,17.4c-16,0-32,0-49.6,0
		C204.8,80.2,204.8,74.9,204.8,69.7z"/>
	<path id="path16" class="st1" d="M204.8,122c0-5.2,0-12.2,0-17.4c16,0,32,0,49.6,0c0,5.2,0,10.5,0,17.4
		C238.4,122,222.4,122,204.8,122L204.8,122z"/>
	<path id="path18" class="st1" d="M153.6,122c17.6,0,35.2,0,51.2,0l0,0c0,5.2,0,10.5,0,17.4c-17.6,0-33.6,0-51.2,0
		C153.6,132.5,153.6,127.2,153.6,122L153.6,122z"/>
	<path id="path20" class="st0" d="M51.2,191.7c8,0,17.6,0,25.6,0c0,12.2,0,22.7,0,34.9c-8,0-16,0-25.6,0
		C51.2,214.4,51.2,203.9,51.2,191.7z"/>
	<path id="path22" class="st0" d="M76.8,226.6c8,0,16,0,25.6,0c0,12.2,0,24.4,0,34.9c-8,0-16,0-25.6,0
		C76.8,249.2,76.8,238.8,76.8,226.6z"/>
	<path id="path24" class="st0" d="M102.4,261.4c8,0,16,0,25.6,0c0,12.2,0,24.4,0,34.9c-8,0-16,0-25.6,0
		C102.4,284.1,102.4,273.6,102.4,261.4z"/>
	<path id="path26" class="st0" d="M307.2,191.7c8,0,17.6,0,25.6,0c0,12.2,0,22.7,0,34.9c-9.6,0-17.6,0-25.6,0
		C307.2,214.4,307.2,203.9,307.2,191.7z"/>
	<path id="path28" class="st0" d="M281.6,261.4c0-12.2,0-22.7,0-34.9c9.6,0,17.6,0,25.6,0c0,12.2,0,22.7,0,34.9
		C297.6,261.4,289.6,261.4,281.6,261.4z"/>
	<path id="path30" class="st0" d="M256,296.3c0-12.2,0-22.7,0-34.9c9.6,0,17.6,0,25.6,0c0,12.2,0,22.7,0,34.9
		C272,296.3,264,296.3,256,296.3z"/>
</g>
</svg>
