<?xml version="1.0" encoding="UTF-8" standalone="no"?>
<!-- Generator: Adobe Illustrator 25.0.0, SVG Export Plug-In . SVG Version: 6.00 Build 0)  -->

<svg
   version="1.1"
   id="svg373"
   inkscape:version="1.2.2 (b0a8486541, 2022-12-01)"
   sodipodi:docname="CBMAvatar-Blue.svg"
   x="0px"
   y="0px"
   viewBox="0 0 384 366"
   xml:space="preserve"
   width="384"
   height="366"
   xmlns:inkscape="http://www.inkscape.org/namespaces/inkscape"
   xmlns:sodipodi="http://sodipodi.sourceforge.net/DTD/sodipodi-0.dtd"
   xmlns="http://www.w3.org/2000/svg"
   xmlns:svg="http://www.w3.org/2000/svg"><defs
   id="defs19" />
<style
   type="text/css"
   id="style2">
	.st0{fill:#104EA5;}
	.st1{fill:none;}
</style>
<sodipodi:namedview
   bordercolor="#ffffff"
   borderopacity="1"
   id="namedview375"
   inkscape:current-layer="layer1"
   inkscape:cx="136.00142"
   inkscape:cy="422.23697"
   inkscape:deskcolor="#505050"
   inkscape:document-units="px"
   inkscape:pagecheckerboard="1"
   inkscape:pageopacity="0"
   inkscape:showpageshadow="0"
   inkscape:window-height="923"
   inkscape:window-maximized="1"
   inkscape:window-width="1536"
   inkscape:window-x="0"
   inkscape:window-y="0"
   inkscape:zoom="0.63234634"
   pagecolor="#505050"
   showgrid="false">
	</sodipodi:namedview>
<g
   id="layer1"
   inkscape:groupmode="layer"
   inkscape:label="Layer 1">
	
	
	
	
	
	
	
	
	
	
	
	<g
   id="g331"><path
     id="path4"
     class="st0"
     d="m 230.4,366 c -25.6,0 -51.2,0 -76.8,0 0,-5.2 0,-12.2 0,-17.4 -9.6,0 -17.6,0 -25.6,0 0,-17.4 0,-34.9 0,-52.3 17.6,0 33.6,0 51.2,0 0,-12.2 0,-22.7 0,-34.9 -8,0 -16,0 -25.6,0 0,-12.2 0,-22.7 0,-34.9 -9.6,0 -17.6,0 -25.6,0 0,-7 0,-12.2 0,-17.4 -9.6,0 -16,0 -25.6,0 0,-5.2 0,-12.2 0,-17.4 -9.6,0 -17.6,0 -25.6,0 0,-5.2 0,-12.2 0,-17.4 -9.6,0 -17.6,0 -25.6,0 0,5.2 0,12.2 0,17.4 -8,0 -16,0 -25.6,0 0,-24.4 0,-47.1 0,-69.7 C 16,122 8,122 0,122 0,104.6 0,87.1 0,69.7 c 8,0 16,0 25.6,0 0,-12.2 0,-22.7 0,-34.9 8,0 16,0 25.6,0 0,-5.2 0,-10.5 0,-17.4 17.6,0 33.6,0 51.2,0 0,-7 0,-12.2 0,-17.4 59.2,0 120,0 179.2,0 0,5.2 0,12.2 0,17.4 17.6,0 33.6,0 51.2,0 0,5.2 0,10.5 0,17.4 8,0 16,0 25.6,0 0,12.2 0,22.7 0,34.9 9.6,0 17.6,0 25.6,0 0,17.4 0,34.9 0,52.3 -8,0 -16,0 -25.6,0 0,24.4 0,47.1 0,69.7 -9.6,0 -17.6,0 -25.6,0 0,-5.2 0,-12.2 0,-17.4 -9.6,0 -17.6,0 -25.6,0 0,5.2 0,12.2 0,17.4 -8,0 -16,0 -25.6,0 0,7 0,12.2 0,17.4 -9.6,0 -16,0 -25.6,0 0,5.2 0,12.2 0,17.4 -9.6,0 -17.6,0 -25.6,0 0,12.2 0,22.7 0,34.9 -8,0 -16,0 -24,0 0,12.2 0,22.7 0,34.9 17.6,0 33.6,0 51.2,0 0,17.4 0,34.9 0,52.3 -9.6,0 -17.6,0 -25.6,0 -1.6,6.9 -1.6,12.2 -1.6,17.4 z M 204.8,122 c 17.6,0 33.6,0 49.6,0 0,-7 0,-12.2 0,-17.4 -17.6,0 -33.6,0 -49.6,0 0,6.9 0,12.2 0,17.4 -17.6,0 -33.6,0 -51.2,0 0,-17.4 0,-34.9 0,-52.3 17.6,0 33.6,0 51.2,0 0,5.2 0,12.2 0,17.4 17.6,0 33.6,0 49.6,0 0,-5.2 0,-10.5 0,-17.4 -17.6,0 -33.6,0 -51.2,0 0,-5.2 0,-12.2 0,-17.4 -17.6,0 -33.6,0 -51.2,0 0,5.2 0,12.2 0,17.4 -6.4,0 -14.4,0 -24,0 0,17.4 0,34.9 0,52.3 9.6,0 17.6,0 25.6,0 0,5.2 0,12.2 0,17.4 17.6,0 33.6,0 51.2,0 0,-6.9 0,-12.2 0,-17.4 z" /><path
     id="path10"
     class="st1"
     d="m 153.6,122 c -8,0 -16,0 -25.6,0 0,-17.4 0,-34.9 0,-52.3 8,0 16,0 25.6,0 v 0 c 0,17.4 0,34.9 0,52.3 z" /><path
     id="path12"
     class="st1"
     d="m 153.6,69.7 c 0,-5.2 0,-10.5 0,-17.4 17.6,0 33.6,0 51.2,0 0,5.2 0,12.2 0,17.4 v 0 c -17.6,0 -33.6,0 -51.2,0 z" /><path
     id="path14"
     class="st1"
     d="m 204.8,69.7 c 16,0 33.6,0 51.2,0 0,5.2 0,10.5 0,17.4 -16,0 -32,0 -49.6,0 -1.6,-6.9 -1.6,-12.2 -1.6,-17.4 z" /><path
     id="path16"
     class="st1"
     d="m 204.8,122 c 0,-5.2 0,-12.2 0,-17.4 16,0 32,0 49.6,0 0,5.2 0,10.5 0,17.4 -16,0 -32,0 -49.6,0 0,0 0,0 0,0 z" /><path
     id="path18"
     class="st1"
     d="m 153.6,122 c 17.6,0 35.2,0 51.2,0 v 0 c 0,5.2 0,10.5 0,17.4 -17.6,0 -33.6,0 -51.2,0 0,-6.9 0,-12.2 0,-17.4 z" /><path
     id="path20"
     class="st0"
     d="m 51.2,191.7 c 8,0 17.6,0 25.6,0 0,12.2 0,22.7 0,34.9 -8,0 -16,0 -25.6,0 0,-12.2 0,-22.7 0,-34.9 z" /><path
     id="path22"
     class="st0"
     d="m 76.8,226.6 c 8,0 16,0 25.6,0 0,12.2 0,24.4 0,34.9 -8,0 -16,0 -25.6,0 0,-12.3 0,-22.7 0,-34.9 z" /><path
     id="path24"
     class="st0"
     d="m 102.4,261.4 c 8,0 16,0 25.6,0 0,12.2 0,24.4 0,34.9 -8,0 -16,0 -25.6,0 0,-12.2 0,-22.7 0,-34.9 z" /><path
     id="path26"
     class="st0"
     d="m 307.2,191.7 c 8,0 17.6,0 25.6,0 0,12.2 0,22.7 0,34.9 -9.6,0 -17.6,0 -25.6,0 0,-12.2 0,-22.7 0,-34.9 z" /><path
     id="path28"
     class="st0"
     d="m 281.6,261.4 c 0,-12.2 0,-22.7 0,-34.9 9.6,0 17.6,0 25.6,0 0,12.2 0,22.7 0,34.9 -9.6,0 -17.6,0 -25.6,0 z" /><path
     id="path30"
     class="st0"
     d="m 256,296.3 c 0,-12.2 0,-22.7 0,-34.9 9.6,0 17.6,0 25.6,0 0,12.2 0,22.7 0,34.9 -9.6,0 -17.6,0 -25.6,0 z" /></g>
</g>
</svg>
