<?xml version="1.0" encoding="UTF-8" standalone="no"?>
<!-- Generator: Adobe Illustrator 25.0.0, SVG Export Plug-In . SVG Version: 6.00 Build 0)  -->

<svg
   version="1.1"
   id="svg373"
   inkscape:version="1.2.2 (b0a8486541, 2022-12-01)"
   sodipodi:docname="CBMAvatar-LIghtGreen.svg"
   x="0px"
   y="0px"
   viewBox="0 0 384 366"
   xml:space="preserve"
   width="384"
   height="366"
   xmlns:inkscape="http://www.inkscape.org/namespaces/inkscape"
   xmlns:sodipodi="http://sodipodi.sourceforge.net/DTD/sodipodi-0.dtd"
   xmlns="http://www.w3.org/2000/svg"
   xmlns:svg="http://www.w3.org/2000/svg"><defs
   id="defs19" />
<style
   type="text/css"
   id="style2">
	.st0{fill:#CBFFB6;}
	.st1{fill:none;}
</style>
<sodipodi:namedview
   bordercolor="#ffffff"
   borderopacity="1"
   id="namedview375"
   inkscape:current-layer="layer1"
   inkscape:cx="136.00142"
   inkscape:cy="469.67932"
   inkscape:deskcolor="#505050"
   inkscape:document-units="px"
   inkscape:pagecheckerboard="1"
   inkscape:pageopacity="0"
   inkscape:showpageshadow="0"
   inkscape:window-height="923"
   inkscape:window-maximized="1"
   inkscape:window-width="1536"
   inkscape:window-x="0"
   inkscape:window-y="0"
   inkscape:zoom="0.63234634"
   pagecolor="#505050"
   showgrid="false">
	</sodipodi:namedview>
<g
   id="layer1"
   inkscape:groupmode="layer"
   inkscape:label="Layer 1">
	<path
   id="path4"
   class="st0"
   d="m 230.4,366 c -25.6,0 -51.2,0 -76.8,0 0,-5.20001 0,-12.19999 0,-17.40001 -9.6,0 -17.6,0 -25.6,0 0,-17.4 0,-34.89999 0,-52.3 17.6,0 33.6,0 51.2,0 0,-12.19999 0,-22.7 0,-34.89999 -8,0 -16,0 -25.6,0 0,-12.2 0,-22.7 0,-34.9 -9.6,0 -17.6,0 -25.6,0 0,-7 0,-12.2 0,-17.4 -9.6,0 -16,0 -25.6,0 0,-5.2 0,-12.2 0,-17.4 -9.6,0 -17.6,0 -25.6,0 0,-5.2 0,-12.2 0,-17.4 -9.600001,0 -17.600001,0 -25.600001,0 0,5.2 0,12.2 0,17.4 -8,0 -15.999999,0 -25.599999,0 0,-24.4 0,-47.1 0,-69.7 -9.6,0 -17.6000002,0 -25.6,0 0,-17.4 0,-34.900001 0,-52.300001 7.9999998,0 16,0 25.6,0 0,-12.200001 0,-22.699998 0,-34.899999 8.000001,0 16,0 25.599999,0 0,-5.199999 0,-10.5 0,-17.4 C 68.8,17.4 84.8,17.4 102.4,17.4 c 0,-7 0,-12.2000001 0,-17.4 59.2,0 120,0 179.20001,0 0,5.1999999 0,12.2 0,17.4 17.59997,0 33.59999,0 51.19999,0 0,5.2 0,10.5 0,17.4 8,0 15.99999,0 25.6,0 0,12.200001 0,22.699998 0,34.899999 9.59998,0 17.60001,0 25.6,0 0,17.4 0,34.900001 0,52.300001 -7.99999,0 -16.00002,0 -25.6,0 0,24.4 0,47.1 0,69.7 -9.60001,0 -17.6,0 -25.6,0 0,-5.2 0,-12.2 0,-17.4 -9.60001,0 -17.6,0 -25.59999,0 0,5.2 0,12.2 0,17.4 -8.00003,0 -16.00002,0 -25.6,0 0,7 0,12.2 0,17.4 -9.60001,0 -16.00002,0 -25.60001,0 0,5.2 0,12.2 0,17.4 -9.6,0 -17.6,0 -25.6,0 0,12.2 0,22.7 0,34.9 -8,0 -16,0 -24,0 0,12.19999 0,22.7 0,34.89999 17.6,0 33.6,0 51.2,0 0,17.40001 0,34.9 0,52.3 -9.6,0 -17.6,0 -25.6,0 -1.6,6.89999 -1.6,12.2 -1.6,17.40001 z M 204.8,122 c 17.6,0 33.6,0 49.6,0 0,-7 0,-12.2 0,-17.4 -17.6,0 -33.6,0 -49.6,0 0,6.9 0,12.2 0,17.4 -17.6,0 -33.6,0 -51.2,0 0,-17.4 0,-34.900001 0,-52.300001 17.6,0 33.6,0 51.2,0 0,5.199999 0,12.200001 0,17.4 17.6,0 33.6,0 49.6,0 0,-5.199999 0,-10.5 0,-17.4 -17.6,0 -33.6,0 -51.2,0 0,-5.199999 0,-12.200001 0,-17.4 -17.6,0 -33.6,0 -51.2,0 0,5.199999 0,12.200001 0,17.4 -6.4,0 -14.4,0 -24,0 0,17.4 0,34.900001 0,52.300001 9.6,0 17.6,0 25.6,0 0,5.2 0,12.2 0,17.4 17.6,0 33.6,0 51.2,0 0,-6.9 0,-12.2 0,-17.4 z"
   style="stroke-width:1" />
	<path
   id="path10"
   class="st1"
   d="m 153.6,122 c -8,0 -16,0 -25.6,0 0,-17.4 0,-34.900001 0,-52.300001 8,0 16,0 25.6,0 v 0 c 0,17.4 0,34.900001 0,52.300001 z"
   style="stroke-width:1" />
	<path
   id="path12"
   class="st1"
   d="m 153.6,69.699999 c 0,-5.199999 0,-10.5 0,-17.4 17.6,0 33.6,0 51.2,0 0,5.199999 0,12.200001 0,17.4 v 0 c -17.6,0 -33.6,0 -51.2,0 z"
   style="stroke-width:1" />
	<path
   id="path14"
   class="st1"
   d="m 204.8,69.699999 c 16,0 33.6,0 51.2,0 0,5.199999 0,10.5 0,17.4 -16,0 -32,0 -49.6,0 -1.6,-6.9 -1.6,-12.200001 -1.6,-17.4 z"
   style="stroke-width:1" />
	<path
   id="path16"
   class="st1"
   d="m 204.8,122 c 0,-5.2 0,-12.2 0,-17.4 16,0 32,0 49.6,0 0,5.2 0,10.5 0,17.4 -16,0 -32,0 -49.6,0 0,0 0,0 0,0 z"
   style="stroke-width:1" />
	<path
   id="path18"
   class="st1"
   d="m 153.6,122 c 17.6,0 35.2,0 51.2,0 v 0 c 0,5.2 0,10.5 0,17.4 -17.6,0 -33.6,0 -51.2,0 0,-6.9 0,-12.2 0,-17.4 z"
   style="stroke-width:1" />
	<path
   id="path20"
   class="st0"
   d="m 51.199999,191.7 c 8,0 17.600001,0 25.600001,0 0,12.2 0,22.7 0,34.9 -8,0 -16,0 -25.600001,0 0,-12.2 0,-22.7 0,-34.9 z"
   style="stroke-width:1" />
	<path
   id="path22"
   class="st0"
   d="m 76.8,226.6 c 8,0 16,0 25.6,0 0,12.2 0,24.4 0,34.9 -8.000002,0 -16.000001,0 -25.6,0 0,-12.3 0,-22.7 0,-34.9 z"
   style="stroke-width:1" />
	<path
   id="path24"
   class="st0"
   d="m 102.4,261.4 c 8,0 16,0 25.6,0 0,12.19999 0,24.4 0,34.89999 -8,0 -16,0 -25.6,0 0,-12.19999 0,-22.7 0,-34.89999 z"
   style="stroke-width:1" />
	<path
   id="path26"
   class="st0"
   d="m 307.20001,191.7 c 7.99999,0 17.6,0 25.59999,0 0,12.2 0,22.7 0,34.9 -9.60001,0 -17.6,0 -25.59999,0 0,-12.2 0,-22.7 0,-34.9 z"
   style="stroke-width:1" />
	<path
   id="path28"
   class="st0"
   d="m 281.60001,261.4 c 0,-12.2 0,-22.7 0,-34.9 9.59998,0 17.59997,0 25.6,0 0,12.2 0,22.7 0,34.9 -9.60001,0 -17.60001,0 -25.6,0 z"
   style="stroke-width:1" />
	<path
   id="path30"
   class="st0"
   d="m 256,296.29999 c 0,-12.19999 0,-22.7 0,-34.89999 9.59999,0 17.59999,0 25.60001,0 0,12.19999 0,22.7 0,34.89999 -9.60001,0 -17.60001,0 -25.60001,0 z"
   style="stroke-width:1" />
</g>
</svg>
