<?xml version="1.0" encoding="UTF-8" standalone="no"?>
<!-- Generator: Adobe Illustrator 25.0.0, SVG Export Plug-In . SVG Version: 6.00 Build 0)  -->

<svg
   version="1.1"
   id="Layer_1"
   inkscape:version="1.2.2 (b0a8486541, 2022-12-01)"
   sodipodi:docname="CBMWindow-Solid-Black-DarkGray.svg"
   x="0px"
   y="0px"
   viewBox="0 0 2128 656"
   style="enable-background:new 0 0 2128 656;"
   xml:space="preserve"
   xmlns:inkscape="http://www.inkscape.org/namespaces/inkscape"
   xmlns:sodipodi="http://sodipodi.sourceforge.net/DTD/sodipodi-0.dtd"
   xmlns="http://www.w3.org/2000/svg"
   xmlns:svg="http://www.w3.org/2000/svg"><defs
   id="defs10">
	
</defs>
<style
   type="text/css"
   id="style2">
	.st0{fill:#616161;stroke:#000000;stroke-miterlimit:10;}
</style>
<sodipodi:namedview
   bordercolor="#ffffff"
   borderopacity="1"
   id="namedview7"
   inkscape:current-layer="Layer_1"
   inkscape:cx="792.3468"
   inkscape:cy="102.07366"
   inkscape:deskcolor="#505050"
   inkscape:pagecheckerboard="1"
   inkscape:pageopacity="0"
   inkscape:showpageshadow="0"
   inkscape:window-height="923"
   inkscape:window-maximized="1"
   inkscape:window-width="1536"
   inkscape:window-x="0"
   inkscape:window-y="0"
   inkscape:zoom="0.39187386"
   pagecolor="#505050"
   showgrid="false">
	</sodipodi:namedview>
<path
   id="path4"
   d="m 586.02435,0.2145856 c -0.66751,1.391159 2.00251,1.5650539 0.6675,4.1734771 -1.50188,2.956213 -0.6675,7.3035853 -0.6675,10.9553773 0,1.912844 -0.83438,2.434528 -2.50314,2.260634 -2.00252,-0.173895 -3.83816,0 -5.84067,0 -183.56388,0 -367.12775,0 -550.524751,0 -2.67002,0 -6.508174,-0.69558 -7.843184,0.695579 -1.501886,1.565054 -0.667505,5.390741 -0.667505,8.173059 0,200.848588 0,401.697178 0,602.371868 0,2.95621 0.166876,5.73853 0.166876,8.69474 3.003773,0.1739 6.007545,0.69558 8.844441,0.69558 691.535183,0 1383.237283,0 2074.772383,0 2.6701,0 5.5069,-0.17389 8.177,-0.34779 0.1668,-3.13011 0.5006,-6.26022 0.5006,-9.39032 0,-200.84859 0,-401.69718 0,-602.371867 0,-2.782318 0.6675,-6.781901 -0.8344,-8.17306 -1.5019,-1.391159 -5.1731,-0.521684 -8.01,-0.521684 -183.7308,0 -367.6284,0 -551.3592,0 -2.67,0 -5.5069,-0.173895 -8.1769,-0.173895 -0.1669,-3.130108 -0.5006,-6.260216 -0.5006,-9.3903237 -0.1669,-2.6084232 0,-5.2168464 0,-7.82526958 192.742,0 385.4841,0 578.2262,0 2.0025,0 3.8381,0.17389488 5.8406,0 1.5019,-0.17389488 1.8357,0.34778976 1.6688,1.73894878 -0.1669,1.7389488 0,3.4778976 0,5.2168464 0,213.8907041 0,427.7814041 0,641.6721041 0,1.73895 -0.1669,3.4779 0,5.21685 0.1669,1.56505 -0.3338,1.91284 -1.6688,1.73895 -2.0025,-0.1739 -3.8381,0 -5.8406,0 -704.2178,0 -1408.43558,0 -2112.6533563,0 -2.5031437,0 -6.007545,1.04337 -7.1756787,-0.34779 -1.16813375,-1.39116 -0.3337525,-4.86906 -0.3337525,-7.47748 0,-213.36902 0,-426.56414 0,-639.9331597 0,-2.0867385 0.16687625,-3.9995822 0,-6.0863208 C 0.12183625,0.2145856 0.622465,-0.13320416 1.957475,0.04069072 c 2.002515,0.17389488 3.8381537,0 5.8406687,0 C 200.54021,0.2145856 393.28228,0.2145856 586.02435,0.2145856 Z"
   style="stroke-width:1.70349" />
<rect
   x="19.3"
   y="18.3"
   class="st0"
   width="2091"
   height="619.9"
   id="rect7"
   style="fill:#616161;fill-opacity:1" />
</svg>
