<?xml version="1.0" encoding="UTF-8" standalone="no"?>
<!-- Generator: Adobe Illustrator 25.0.0, SVG Export Plug-In . SVG Version: 6.00 Build 0)  -->

<svg
   version="1.1"
   id="Layer_1"
   x="0px"
   y="0px"
   viewBox="0 0 48 48"
   xml:space="preserve"
   sodipodi:docname="CBMArrow-LightGrey.svg"
   width="48"
   height="48"
   inkscape:version="1.2.2 (b0a8486541, 2022-12-01)"
   xmlns:inkscape="http://www.inkscape.org/namespaces/inkscape"
   xmlns:sodipodi="http://sodipodi.sourceforge.net/DTD/sodipodi-0.dtd"
   xmlns="http://www.w3.org/2000/svg"
   xmlns:svg="http://www.w3.org/2000/svg"><defs
   id="defs11" /><sodipodi:namedview
   id="namedview9"
   pagecolor="#505050"
   bordercolor="#ffffff"
   borderopacity="1"
   inkscape:showpageshadow="0"
   inkscape:pageopacity="0"
   inkscape:pagecheckerboard="1"
   inkscape:deskcolor="#505050"
   showgrid="false"
   inkscape:zoom="12.497838"
   inkscape:cx="18.363176"
   inkscape:cy="24.324207"
   inkscape:window-width="1536"
   inkscape:window-height="923"
   inkscape:window-x="0"
   inkscape:window-y="0"
   inkscape:window-maximized="1"
   inkscape:current-layer="Layer_1" />
<style
   type="text/css"
   id="style2">
	.st0{fill:#5795EB;}
	.st1{fill:#104EA4;}
</style>

<path
   class="st1"
   d="m 17.734485,2.5922672 c 0,7.7999998 0,15.6999998 0,23.8999998 -1.9,0 -3.8,0.1 -5.8,0.1 -1.9999998,0 -3.8999998,0 -6.0999998,0 0,2 0,3.7 0,5.9 1.8,0 3.7,0 5.7999998,0 0,2.1 0,3.9 0,6.1 2.1,0 4,0 6.1,0 0,2.1 0,3.9 0,5.9 4,0 7.7,0 11.9,0 0.1,-1.7 0.2,-3.6 0.3,-5.7 1.9,0 3.7,0 5.8,0 0,-2.1 0,-4 0,-6.1 2.1,0 3.9,0 5.9,0 0,-2.1 0,-4 0,-6.1 -3.9,0 -7.7,0 -11.8,0 0,-8.1 0,-16.1 0,-23.9999998 -4.1,0 -8.1,0 -12.1,0 z"
   id="path6"
   style="fill:#cbcbcb;fill-opacity:1" />
</svg>
