<?xml version="1.0" encoding="UTF-8" standalone="no"?>
<!-- Generator: Adobe Illustrator 25.0.0, SVG Export Plug-In . SVG Version: 6.00 Build 0)  -->

<svg
   version="1.1"
   id="Layer_1"
   x="0px"
   y="0px"
   viewBox="0 0 1217 117"
   xml:space="preserve"
   sodipodi:docname="AtariUsernameBox-GOS.svg"
   width="1217"
   height="117"
   inkscape:version="1.2.2 (b0a8486541, 2022-12-01)"
   xmlns:inkscape="http://www.inkscape.org/namespaces/inkscape"
   xmlns:sodipodi="http://sodipodi.sourceforge.net/DTD/sodipodi-0.dtd"
   xmlns="http://www.w3.org/2000/svg"
   xmlns:svg="http://www.w3.org/2000/svg"><defs
   id="defs11" /><sodipodi:namedview
   id="namedview9"
   pagecolor="#505050"
   bordercolor="#ffffff"
   borderopacity="1"
   inkscape:showpageshadow="0"
   inkscape:pageopacity="0"
   inkscape:pagecheckerboard="1"
   inkscape:deskcolor="#505050"
   showgrid="false"
   inkscape:zoom="0.42214665"
   inkscape:cx="823.17366"
   inkscape:cy="68.696507"
   inkscape:window-width="1536"
   inkscape:window-height="923"
   inkscape:window-x="0"
   inkscape:window-y="0"
   inkscape:window-maximized="1"
   inkscape:current-layer="Layer_1" />
<style
   type="text/css"
   id="style2">
	.st0{fill:#F2EAF7;}
</style>
<path
   d="M 1217,117 C 811.47978,117 405.52022,117 0,117 0,78 0,39 0,0 c 405.52022,0 811.47978,0 1217,0 0,39 0,78 0,117 z M 31.193863,109.2 c 386.188807,0 770.180867,0 1154.172937,0 3.0754,-16.741463 1.7574,-98.546341 -1.3181,-102.4463415 -384.43137,0 -768.42343,0 -1152.854837,0 0,34.2439025 0,68.2975615 0,102.4463415 z"
   id="path4"
   style="stroke-width:2.04431" />

<rect
   style="fill:#f2eaf7;stroke-width:12.3389"
   id="rect497"
   width="1201.3556"
   height="103.53364"
   x="7.1549063"
   y="6.8538418" /></svg>
