<?xml version="1.0" encoding="UTF-8" standalone="no"?>
<!-- Generator: Adobe Illustrator 25.0.0, SVG Export Plug-In . SVG Version: 6.00 Build 0)  -->

<svg
   version="1.1"
   id="Layer_1"
   x="0px"
   y="0px"
   viewBox="0 0 384 366"
   xml:space="preserve"
   sodipodi:docname="CBMAvatar-Logo.svg"
   width="384"
   height="366"
   inkscape:version="1.2.2 (b0a8486541, 2022-12-01)"
   xmlns:inkscape="http://www.inkscape.org/namespaces/inkscape"
   xmlns:sodipodi="http://sodipodi.sourceforge.net/DTD/sodipodi-0.dtd"
   xmlns="http://www.w3.org/2000/svg"
   xmlns:svg="http://www.w3.org/2000/svg"><defs
   id="defs1512" /><sodipodi:namedview
   id="namedview1510"
   pagecolor="#505050"
   bordercolor="#ffffff"
   borderopacity="1"
   inkscape:showpageshadow="0"
   inkscape:pageopacity="0"
   inkscape:pagecheckerboard="1"
   inkscape:deskcolor="#505050"
   showgrid="false"
   inkscape:zoom="1.0356666"
   inkscape:cx="1.9311234"
   inkscape:cy="249.11492"
   inkscape:window-width="1536"
   inkscape:window-height="923"
   inkscape:window-x="0"
   inkscape:window-y="0"
   inkscape:window-maximized="1"
   inkscape:current-layer="Layer_1" />
<style
   type="text/css"
   id="style1497">
	.st0{fill:#104EA4;}
	.st1{fill:#AC465C;}
	.st2{fill:#3B3844;}
</style>




<g
   id="g601"
   transform="matrix(1.1061367,0,0,1.4587081,-0.98323389,-0.17153824)"><path
     class="st0"
     d="m 348.04309,179.2799 c 0,3.98581 0,7.97163 0,11.95744 -47.79732,0 -95.59463,0 -143.6913,0 0,20.02871 0,39.95778 0,59.7872 -47.89711,0 -95.79421,0 -143.691305,0 0,-3.98581 0,-7.87198 0,-11.95744 -4.091211,0 -7.883065,0 -11.974275,0 0,-4.08546 0,-7.97163 0,-11.95744 -4.091211,0 -7.883065,0 -11.974276,0 0,-4.08546 0,-7.97163 0,-11.95744 -4.091211,0 -7.883064,0 -11.974275,0 0,-4.08546 0,-7.97163 0,-11.95744 -4.091211,0 -7.883065,0 -11.87449,0 0,-2.09255 0,-4.08546 0,-6.07836 0,-1.89327 -0.09979,-3.88617 -0.09979,-5.77943 -4.1909956,0 -8.0826351,0 -11.87448897,0 0,-43.84395 0,-87.6879 0,-131.531841 3.89163947,0 7.88306467,0 12.07406097,0 0,-4.185104 0,-7.971626 0,-11.957439 2.295069,0 4.290782,0 6.186709,0 1.895927,0 3.891639,0.19929 5.68778,-0.199291 0,-2.092552 0,-3.886168 0,-5.679784 0,-1.992907 0,-3.985813 0,-5.97872 3.991426,0 7.883065,0 11.974276,0 0,-2.291842 0,-4.284749 0,-6.277656 0,-1.893261 -0.199571,-3.886168 0.299357,-5.879074 3.991425,0 7.783279,0 11.674918,0 0,-3.985813 0,-7.772336 0,-11.857795 4.091211,0 7.98285,0 11.974276,0 0,-4.085458 0,-7.871981 0,-11.857794 44.005463,0 87.811353,0 131.617243,0 3.89164,0 7.88306,0 11.97428,0 0,12.15673 0,24.014525 0,35.872319 0,7.971627 0,15.943253 0,23.91488 -3.99143,0 -7.98286,0 -11.97428,0 -27.84019,0 -55.78017,0 -83.81993,0 0,2.291842 0,4.284749 0,6.17801 0,1.893261 -0.0998,3.886168 -0.0998,5.879075 -4.191,0 -7.98285,0 -11.874493,0 0,3.985813 0,7.772336 0,11.85779 -4.091211,0 -7.98285,0 -11.774704,0 0,28.00034 0,55.70174 0,83.70208 3.991425,0 7.883065,0 11.974275,0 0,4.08546 0,7.87198 0,12.05709 4.091212,0 7.982852,0 12.074062,0 0,4.08546 0,7.87198 0,11.6585 16.46463,0.69752 79.32957,0.39858 83.81993,-0.39858 0,-19.63013 0,-39.35991 0,-59.08968 16.6642,-0.69752 103.17834,-0.39858 107.76848,0.39858 0,3.78652 0,7.4734 0,11.45921 3.99142,0 7.68349,0 11.87448,0 0,4.08546 0,7.97163 0,12.05709 4.09122,0 7.88307,0 12.07407,0 0,4.08546 0,7.97162 0,12.05708 4.09121,0 7.88306,0 11.87449,0 0,2.09255 0,4.08546 0,6.07837 0,1.89326 0.0998,3.88617 0.0998,5.77943 3.99143,-0.29894 7.88307,-0.29894 11.67492,-0.29894 z"
     id="path1499"
     style="fill:#104ea5;fill-opacity:1;stroke-width:0.997155" /><path
     class="st1"
     d="m 336.06881,59.705504 c 3.99143,0 7.98285,0 11.97428,0 0,3.985813 0,7.971626 0,11.95744 -3.79185,0 -7.68349,0 -11.87449,0 0,1.893261 -0.0998,3.786522 -0.0998,5.779429 0,1.992907 0,3.886167 0,6.078367 -3.99142,0 -7.78327,0 -11.87449,0 0,4.08546 0,7.97162 0,12.05708 -4.09121,0 -7.88306,0 -12.07406,0 0,4.08546 0,7.97163 0,12.05709 -4.09121,0 -7.88306,0 -11.87449,0 0,3.98581 0,7.67269 0,11.75815 -36.02261,0 -71.84565,0 -107.96805,0 0,-19.82942 0,-39.658844 0,-59.587911 3.99143,0 7.98285,0 11.97428,0 44.00546,-0.09964 87.91114,-0.09964 131.81681,-0.09964 z"
     id="path1501"
     style="fill:#ad465c;fill-opacity:1;stroke-width:0.997155" /></g>
</svg>
