<?xml version="1.0" encoding="UTF-8" standalone="no"?>
<!-- Generator: Adobe Illustrator 25.0.0, SVG Export Plug-In . SVG Version: 6.00 Build 0)  -->

<svg
   version="1.1"
   id="Layer_1"
   x="0px"
   y="0px"
   viewBox="0 0 1217 117"
   xml:space="preserve"
   sodipodi:docname="CBMUsernameBox-GEOS.svg"
   width="1217"
   height="117"
   inkscape:version="1.2.2 (b0a8486541, 2022-12-01)"
   xmlns:inkscape="http://www.inkscape.org/namespaces/inkscape"
   xmlns:sodipodi="http://sodipodi.sourceforge.net/DTD/sodipodi-0.dtd"
   xmlns="http://www.w3.org/2000/svg"
   xmlns:svg="http://www.w3.org/2000/svg"><defs
   id="defs11" /><sodipodi:namedview
   id="namedview9"
   pagecolor="#505050"
   bordercolor="#ffffff"
   borderopacity="1"
   inkscape:showpageshadow="0"
   inkscape:pageopacity="0"
   inkscape:pagecheckerboard="1"
   inkscape:deskcolor="#505050"
   showgrid="false"
   inkscape:zoom="2.2250294"
   inkscape:cx="1156.1645"
   inkscape:cy="104.26829"
   inkscape:window-width="1536"
   inkscape:window-height="923"
   inkscape:window-x="0"
   inkscape:window-y="0"
   inkscape:window-maximized="1"
   inkscape:current-layer="Layer_1" />
<style
   type="text/css"
   id="style2">
	.st0{fill:#626262;}
	.st1{fill:#CCCCCC;}
</style>
<path
   class="st0"
   d="M 1217,117 C 811.06645,117 405.93355,117 0,117 0,78.044318 0,38.955682 0,0 c 405.93355,0 811.06645,0 1217,0 0,38.955682 0,78.044318 0,117 z M 64.853289,106.09773 c 365.099991,0 726.196711,0 1086.492811,0 5.6046,-21.538639 3.2026,-89.877275 -2.402,-95.328412 -361.09676,0 -722.19344,0 -1084.090811,0 0,31.909091 0,63.552273 0,95.328412 z"
   id="path4"
   style="stroke-width:3.26268" />

<rect
   style="fill:#cccccc;fill-opacity:1;stroke-width:2.74695"
   id="rect463"
   width="1197"
   height="97"
   x="10"
   y="10" /></svg>
