<?xml version="1.0" encoding="UTF-8" standalone="no"?>
<!-- Generator: Adobe Illustrator 25.0.0, SVG Export Plug-In . SVG Version: 6.00 Build 0)  -->

<svg
   version="1.1"
   id="Layer_1"
   x="0px"
   y="0px"
   viewBox="0 0 152 88"
   xml:space="preserve"
   sodipodi:docname="Button2.svg"
   width="152"
   height="88"
   inkscape:version="1.2.2 (b0a8486541, 2022-12-01)"
   xmlns:inkscape="http://www.inkscape.org/namespaces/inkscape"
   xmlns:sodipodi="http://sodipodi.sourceforge.net/DTD/sodipodi-0.dtd"
   xmlns="http://www.w3.org/2000/svg"
   xmlns:svg="http://www.w3.org/2000/svg"><defs
   id="defs267" /><sodipodi:namedview
   id="namedview265"
   pagecolor="#505050"
   bordercolor="#ffffff"
   borderopacity="1"
   inkscape:showpageshadow="0"
   inkscape:pageopacity="0"
   inkscape:pagecheckerboard="1"
   inkscape:deskcolor="#505050"
   showgrid="false"
   inkscape:zoom="0.19666667"
   inkscape:cx="1166.9492"
   inkscape:cy="564.40678"
   inkscape:window-width="1536"
   inkscape:window-height="923"
   inkscape:window-x="0"
   inkscape:window-y="0"
   inkscape:window-maximized="1"
   inkscape:current-layer="Layer_1" />
<style
   type="text/css"
   id="style2">
	.st0{fill:#626262;}
	.st1{fill:#CCCCCC;}
</style>
<path
   class="st0"
   d="M 0,88 C 0,58.7 0,29.3 0,0 c 50.7,0 101.3,0 152,0 0,29.3 0,58.7 0,88 C 101.3,88 50.7,88 0,88 Z M 136,72 c 2.6,0 5.2,0 8,0 -0.1,-2.9 0.1,-5.5 -0.2,-8 -2.9,0 -5.4,0 -7.9,0 0,-2.7 0,-5.3 0,-8 2.6,0 5.2,0 8,0 -0.1,-2.9 0.1,-5.5 -0.2,-8 -2.9,0 -5.4,0 -7.9,0 0,-2.7 0,-5.3 0,-8 2.6,0 5.2,0 8,0 -0.1,-2.9 0.1,-5.5 -0.2,-8 -2.9,0 -5.4,0 -7.9,0 0,-2.7 0,-5.3 0,-8 2.6,0 5.2,0 8,0 -0.1,-2.9 0.1,-5.5 -0.2,-8 -2.9,0 -5.4,0 -7.9,0 0,-2.6 0,-5.2 0,-8 -2.9,0.1 -5.5,-0.1 -8,0.2 0,2.9 0,5.4 0,7.9 -2.7,0 -5.3,0 -8,0 0,-2.6 0,-5.2 0,-8 -2.9,0.1 -5.5,-0.1 -8,0.2 0,2.9 0,5.4 0,7.9 -2.7,0 -5.3,0 -8,0 0,-2.6 0,-5.2 0,-8 -2.9,0.1 -5.5,-0.1 -8,0.2 0,2.9 0,5.4 0,7.9 -2.7,0 -5.3,0 -8,0 0,-2.6 0,-5.2 0,-8 -2.9,0.1 -5.5,-0.1 -8,0.2 0,2.9 0,5.4 0,7.9 -2.7,0 -5.3,0 -8,0 0,-2.6 0,-5.2 0,-8 -2.9,0.1 -5.5,-0.1 -8,0.2 0,2.9 0,5.4 0,7.9 -2.7,0 -5.3,0 -8,0 0,-2.6 0,-5.2 0,-8 -2.9,0.1 -5.5,-0.1 -8,0.2 0,2.9 0,5.4 0,7.9 -2.7,0 -5.3,0 -8,0 0,-2.6 0,-5.2 0,-8 -2.9,0.1 -5.5,-0.1 -8,0.2 0,2.9 0,5.4 0,7.9 -2.7,0 -5.3,0 -8,0 0,-2.6 0,-5.2 0,-8 -2.9,0.1 -5.5,-0.1 -8,0.2 0,2.9 0,5.4 0,7.9 -2.6,0 -5.2,0 -8,0 0.1,2.9 -0.1,5.5 0.2,8 2.9,0 5.4,0 7.9,0 0,2.7 0,5.3 0,8 -2.6,0 -5.2,0 -8,0 0.1,2.9 -0.1,5.5 0.2,8 2.9,0 5.4,0 7.9,0 0,2.7 0,5.3 0,8 -2.6,0 -5.2,0 -8,0 0.1,2.9 -0.1,5.5 0.2,8 2.9,0 5.4,0 7.9,0 0,2.7 0,5.3 0,8 -2.6,0 -5.2,0 -8,0 0.1,2.9 -0.1,5.5 0.2,8 2.9,0 5.4,0 7.9,0 0,2.6 0,5.2 0,8.1 2.9,-0.2 5.5,0.1 8,-0.2 0,-2.8 0,-5.3 0,-7.8 2.7,0 5.3,0 8,0 0,2.6 0,5.2 0,8.1 2.9,-0.2 5.5,0.1 8,-0.2 0,-2.8 0,-5.3 0,-7.8 2.7,0 5.3,0 8,0 0,2.6 0,5.2 0,8.1 2.9,-0.2 5.5,0.1 8,-0.2 0,-2.8 0,-5.3 0,-7.8 2.7,0 5.3,0 8,0 0,2.6 0,5.2 0,8 2.9,-0.1 5.5,0.1 8,-0.2 0,-2.9 0,-5.4 0,-7.9 2.7,0 5.3,0 8,0 0,2.6 0,5.2 0,8 2.9,-0.1 5.5,0.1 8,-0.2 0,-2.9 0,-5.4 0,-7.9 2.7,0 5.3,0 8,0 0,2.6 0,5.2 0,8 2.9,-0.1 5.5,0.1 8,-0.2 0,-2.9 0,-5.4 0,-7.9 2.7,0 5.3,0 8,0 0,2.6 0,5.2 0,8 2.9,-0.1 5.5,0.1 8,-0.2 0,-2.9 0,-5.4 0,-7.9 2.7,0 5.3,0 8,0 0,2.6 0,5.2 0,8 2.9,-0.1 5.5,0.1 8,-0.2 0,-3.5 0,-6 0,-8.5 z"
   id="path4" />
<path
   class="st1"
   d="m 32,16 c 0,-2.5 0,-5 0,-7.9 2.5,-0.3 5.1,-0.1 8,-0.2 0,2.8 0,5.4 0,8 C 37.3,16 34.7,16 32,16 Z"
   id="path6" />
<path
   class="st1"
   d="m 48,16 c 0,-2.5 0,-5 0,-7.9 2.5,-0.3 5.1,-0.1 8,-0.2 0,2.8 0,5.4 0,8 C 53.3,16 50.7,16 48,16 Z"
   id="path8" />
<path
   class="st1"
   d="m 64,16 c 0,-2.5 0,-5 0,-7.9 2.5,-0.3 5.1,-0.1 8,-0.2 0,2.8 0,5.4 0,8 C 69.3,16 66.7,16 64,16 Z"
   id="path10" />
<path
   class="st1"
   d="m 80,16 c 0,-2.5 0,-5 0,-7.9 2.5,-0.3 5.1,-0.1 8,-0.2 0,2.8 0,5.4 0,8 C 85.3,16 82.7,16 80,16 Z"
   id="path12" />
<path
   class="st1"
   d="m 96,16 c 0,-2.5 0,-5 0,-7.9 2.5,-0.3 5.1,-0.1 8,-0.2 0,2.8 0,5.4 0,8 -2.7,0.1 -5.3,0.1 -8,0.1 z"
   id="path14" />
<path
   class="st1"
   d="m 112,16 c 0,-2.5 0,-5 0,-7.9 2.5,-0.3 5.1,-0.1 8,-0.2 0,2.8 0,5.4 0,8 -2.7,0.1 -5.3,0.1 -8,0.1 z"
   id="path16" />
<path
   class="st1"
   d="m 128,16 c 0,-2.5 0,-5 0,-7.9 2.5,-0.3 5.1,-0.1 8,-0.2 0,2.8 0,5.4 0,8 -2.7,0.1 -5.3,0.1 -8,0.1 z"
   id="path18" />
<path
   class="st1"
   d="M 16,24 C 13.5,24 11,24 8.1,24 7.8,21.5 8,18.9 7.9,16 c 2.8,0 5.4,0 8,0 0.1,2.7 0.1,5.3 0.1,8 z"
   id="path20" />
<circle
   class="st1"
   cx="28"
   cy="20"
   r="5.6999998"
   id="circle22" />
<circle
   class="st1"
   cx="44"
   cy="20"
   r="5.6999998"
   id="circle24" />
<circle
   class="st1"
   cx="60"
   cy="20"
   r="5.6999998"
   id="circle26" />
<circle
   class="st1"
   cx="76"
   cy="20"
   r="5.6999998"
   id="circle28" />
<circle
   class="st1"
   cx="92"
   cy="20"
   r="5.6999998"
   id="circle30" />
<circle
   class="st1"
   cx="108"
   cy="20"
   r="5.6999998"
   id="circle32" />
<circle
   class="st1"
   cx="124"
   cy="20"
   r="5.6999998"
   id="circle34" />
<path
   class="st1"
   d="m 136,16 c 2.5,0 5,0 7.9,0 0.3,2.5 0.1,5.1 0.2,8 -2.8,0 -5.4,0 -8,0 C 136,21.3 136,18.7 136,16 Z"
   id="path36" />
<circle
   class="st1"
   cx="20"
   cy="28"
   r="5.6999998"
   id="circle38" />
<circle
   class="st1"
   cx="132"
   cy="28"
   r="5.6999998"
   id="circle40" />
<path
   class="st1"
   d="M 16,40 C 13.5,40 11,40 8.1,40 7.8,37.5 8,34.9 7.9,32 c 2.8,0 5.4,0 8,0 0.1,2.7 0.1,5.3 0.1,8 z"
   id="path42" />
<path
   class="st1"
   d="m 136,32 c 2.5,0 5,0 7.9,0 0.3,2.5 0.1,5.1 0.2,8 -2.8,0 -5.4,0 -8,0 C 136,37.3 136,34.7 136,32 Z"
   id="path44" />
<circle
   class="st1"
   cx="20"
   cy="44"
   r="5.6999998"
   id="circle46" />
<circle
   class="st1"
   cx="132"
   cy="44"
   r="5.6999998"
   id="circle48" />
<path
   class="st1"
   d="M 16,56 C 13.5,56 11,56 8.1,56 7.8,53.5 8,50.9 7.9,48 c 2.8,0 5.4,0 8,0 0.1,2.7 0.1,5.3 0.1,8 z"
   id="path50" />
<path
   class="st1"
   d="m 136,48 c 2.5,0 5,0 7.9,0 0.3,2.5 0.1,5.1 0.2,8 -2.8,0 -5.4,0 -8,0 C 136,53.3 136,50.7 136,48 Z"
   id="path52" />
<circle
   class="st1"
   cx="20"
   cy="60"
   r="5.6999998"
   id="circle54" />
<circle
   class="st1"
   cx="132"
   cy="60"
   r="5.6999998"
   id="circle56" />
<path
   class="st1"
   d="M 16,72 C 13.5,72 11,72 8.1,72 7.8,69.5 8,66.9 7.9,64 c 2.8,0 5.4,0 8,0 0.1,2.7 0.1,5.3 0.1,8 z"
   id="path58" />
<circle
   class="st1"
   cx="28"
   cy="68"
   r="5.6999998"
   id="circle60" />
<circle
   class="st1"
   cx="44"
   cy="68"
   r="5.6999998"
   id="circle62" />
<circle
   class="st1"
   cx="60"
   cy="68"
   r="5.6999998"
   id="circle64" />
<circle
   class="st1"
   cx="76"
   cy="68"
   r="5.6999998"
   id="circle66" />
<circle
   class="st1"
   cx="92"
   cy="68"
   r="5.6999998"
   id="circle68" />
<circle
   class="st1"
   cx="108"
   cy="68"
   r="5.6999998"
   id="circle70" />
<circle
   class="st1"
   cx="124"
   cy="68"
   r="5.6999998"
   id="circle72" />
<path
   class="st1"
   d="m 136,64 c 2.5,0 5,0 7.9,0 0.3,2.5 0.1,5.1 0.2,8 -2.8,0 -5.4,0 -8,0 C 136,69.3 136,66.7 136,64 Z"
   id="path74" />
<path
   class="st1"
   d="m 24,72 c 0,2.5 0,5 0,7.8 -2.5,0.4 -5.1,0 -8,0.2 0,-2.8 0,-5.5 0,-8.1 2.7,0.1 5.3,0.1 8,0.1 z"
   id="path76" />
<path
   class="st1"
   d="m 40,72 c 0,2.5 0,5 0,7.8 -2.5,0.4 -5.1,0 -8,0.2 0,-2.8 0,-5.5 0,-8.1 2.7,0.1 5.3,0.1 8,0.1 z"
   id="path78" />
<path
   class="st1"
   d="m 56,72 c 0,2.5 0,5 0,7.8 -2.5,0.4 -5.1,0 -8,0.2 0,-2.8 0,-5.5 0,-8.1 2.7,0.1 5.3,0.1 8,0.1 z"
   id="path80" />
<path
   class="st1"
   d="m 72,72 c 0,2.5 0,5 0,7.9 -2.5,0.3 -5.1,0.1 -8,0.2 0,-2.8 0,-5.4 0,-8 C 66.7,72 69.3,72 72,72 Z"
   id="path82" />
<path
   class="st1"
   d="m 88,72 c 0,2.5 0,5 0,7.9 -2.5,0.3 -5.1,0.1 -8,0.2 0,-2.8 0,-5.4 0,-8 C 82.7,72 85.3,72 88,72 Z"
   id="path84" />
<path
   class="st1"
   d="m 104,72 c 0,2.5 0,5 0,7.9 -2.5,0.3 -5.1,0.1 -8,0.2 0,-2.8 0,-5.4 0,-8 2.7,-0.1 5.3,-0.1 8,-0.1 z"
   id="path86" />
<path
   class="st1"
   d="m 120,72 c 0,2.5 0,5 0,7.9 -2.5,0.3 -5.1,0.1 -8,0.2 0,-2.8 0,-5.4 0,-8 2.7,-0.1 5.3,-0.1 8,-0.1 z"
   id="path88" />
<path
   class="st1"
   d="m 16,16 c 0,-2.5 0,-5 0,-7.9 2.5,-0.3 5.1,-0.1 8,-0.2 0,2.8 0,5.4 0,8 C 21.3,16 18.7,16 16,16 Z"
   id="path90" />
<path
   class="st1"
   d="m 136,72 c 0,2.5 0,5 0,7.9 -2.5,0.3 -5.1,0.1 -8,0.2 0,-2.8 0,-5.4 0,-8 2.7,-0.1 5.3,-0.1 8,-0.1 z"
   id="path92" />
<circle
   class="st0"
   cx="36"
   cy="20"
   r="5.6999998"
   id="circle94" />
<circle
   class="st0"
   cx="52"
   cy="20"
   r="5.6999998"
   id="circle96" />
<circle
   class="st0"
   cx="68"
   cy="20"
   r="5.6999998"
   id="circle98" />
<circle
   class="st0"
   cx="84"
   cy="20"
   r="5.6999998"
   id="circle100" />
<circle
   class="st0"
   cx="100"
   cy="20"
   r="5.6999998"
   id="circle102" />
<circle
   class="st0"
   cx="116"
   cy="20"
   r="5.6999998"
   id="circle104" />
<circle
   class="st0"
   cx="132"
   cy="20"
   r="5.6999998"
   id="circle106" />
<circle
   class="st0"
   cx="20"
   cy="20"
   r="5.6999998"
   id="circle108" />
<circle
   class="st0"
   cx="28"
   cy="28"
   r="5.6999998"
   id="circle110" />
<circle
   class="st0"
   cx="44"
   cy="28"
   r="5.6999998"
   id="circle112" />
<circle
   class="st0"
   cx="60"
   cy="28"
   r="5.6999998"
   id="circle114" />
<circle
   class="st0"
   cx="76"
   cy="28"
   r="5.6999998"
   id="circle116" />
<circle
   class="st0"
   cx="92"
   cy="28"
   r="5.6999998"
   id="circle118" />
<circle
   class="st0"
   cx="108"
   cy="28"
   r="5.6999998"
   id="circle120" />
<circle
   class="st0"
   cx="124"
   cy="28"
   r="5.6999998"
   id="circle122" />
<circle
   class="st0"
   cx="20"
   cy="36"
   r="5.6999998"
   id="circle124" />
<circle
   class="st0"
   cx="132"
   cy="36"
   r="5.6999998"
   id="circle126" />
<circle
   class="st0"
   cx="28"
   cy="44"
   r="5.6999998"
   id="circle128" />
<circle
   class="st0"
   cx="20"
   cy="52"
   r="5.6999998"
   id="circle130" />
<circle
   class="st0"
   cx="124"
   cy="44"
   r="5.6999998"
   id="circle132" />
<circle
   class="st0"
   cx="132"
   cy="52"
   r="5.6999998"
   id="circle134" />
<circle
   class="st0"
   cx="28"
   cy="60"
   r="5.6999998"
   id="circle136" />
<circle
   class="st0"
   cx="20"
   cy="68"
   r="5.6999998"
   id="circle138" />
<circle
   class="st0"
   cx="124"
   cy="60"
   r="5.6999998"
   id="circle140" />
<circle
   class="st0"
   cx="132"
   cy="68"
   r="5.6999998"
   id="circle142" />
<circle
   class="st0"
   cx="36"
   cy="68"
   r="5.6999998"
   id="circle144" />
<circle
   class="st0"
   cx="44"
   cy="60"
   r="5.6999998"
   id="circle146" />
<circle
   class="st0"
   cx="52"
   cy="68"
   r="5.6999998"
   id="circle148" />
<circle
   class="st0"
   cx="60"
   cy="60"
   r="5.6999998"
   id="circle150" />
<circle
   class="st0"
   cx="68"
   cy="68"
   r="5.6999998"
   id="circle152" />
<circle
   class="st0"
   cx="76"
   cy="60"
   r="5.6999998"
   id="circle154" />
<circle
   class="st0"
   cx="84"
   cy="68"
   r="5.6999998"
   id="circle156" />
<circle
   class="st0"
   cx="92"
   cy="60"
   r="5.6999998"
   id="circle158" />
<circle
   class="st0"
   cx="100"
   cy="68"
   r="5.6999998"
   id="circle160" />
<circle
   class="st0"
   cx="108"
   cy="60"
   r="5.6999998"
   id="circle162" />
<circle
   class="st0"
   cx="116"
   cy="68"
   r="5.6999998"
   id="circle164" />
<circle
   class="st1"
   cx="36"
   cy="28"
   r="5.6999998"
   id="circle166" />
<circle
   class="st1"
   cx="52"
   cy="28"
   r="5.6999998"
   id="circle168" />
<circle
   class="st1"
   cx="68"
   cy="28"
   r="5.6999998"
   id="circle170" />
<circle
   class="st1"
   cx="84"
   cy="28"
   r="5.6999998"
   id="circle172" />
<circle
   class="st1"
   cx="100"
   cy="28"
   r="5.6999998"
   id="circle174" />
<circle
   class="st1"
   cx="116"
   cy="28"
   r="5.6999998"
   id="circle176" />
<circle
   class="st1"
   cx="28"
   cy="36"
   r="5.6999998"
   id="circle178" />
<circle
   class="st1"
   cx="44"
   cy="36"
   r="5.6999998"
   id="circle180" />
<circle
   class="st1"
   cx="60"
   cy="36"
   r="5.6999998"
   id="circle182" />
<circle
   class="st1"
   cx="76"
   cy="36"
   r="5.6999998"
   id="circle184" />
<circle
   class="st1"
   cx="92"
   cy="36"
   r="5.6999998"
   id="circle186" />
<circle
   class="st1"
   cx="108"
   cy="36"
   r="5.6999998"
   id="circle188" />
<circle
   class="st1"
   cx="124"
   cy="36"
   r="5.6999998"
   id="circle190" />
<circle
   class="st1"
   cx="36"
   cy="44"
   r="5.6999998"
   id="circle192" />
<circle
   class="st1"
   cx="28"
   cy="52"
   r="5.6999998"
   id="circle194" />
<circle
   class="st1"
   cx="116"
   cy="44"
   r="5.6999998"
   id="circle196" />
<circle
   class="st1"
   cx="124"
   cy="52"
   r="5.6999998"
   id="circle198" />
<circle
   class="st1"
   cx="36"
   cy="60"
   r="5.6999998"
   id="circle200" />
<circle
   class="st1"
   cx="116"
   cy="60"
   r="5.6999998"
   id="circle202" />
<circle
   class="st1"
   cx="44"
   cy="52"
   r="5.6999998"
   id="circle204" />
<circle
   class="st1"
   cx="52"
   cy="60"
   r="5.6999998"
   id="circle206" />
<circle
   class="st1"
   cx="60"
   cy="52"
   r="5.6999998"
   id="circle208" />
<circle
   class="st1"
   cx="68"
   cy="60"
   r="5.6999998"
   id="circle210" />
<circle
   class="st1"
   cx="76"
   cy="52"
   r="5.6999998"
   id="circle212" />
<circle
   class="st1"
   cx="84"
   cy="60"
   r="5.6999998"
   id="circle214" />
<circle
   class="st1"
   cx="92"
   cy="52"
   r="5.6999998"
   id="circle216" />
<circle
   class="st1"
   cx="100"
   cy="60"
   r="5.6999998"
   id="circle218" />
<circle
   class="st1"
   cx="108"
   cy="52"
   r="5.6999998"
   id="circle220" />
<circle
   class="st0"
   cx="36"
   cy="36"
   r="5.6999998"
   id="circle222" />
<circle
   class="st0"
   cx="52"
   cy="36"
   r="5.6999998"
   id="circle224" />
<circle
   class="st0"
   cx="68"
   cy="36"
   r="5.6999998"
   id="circle226" />
<circle
   class="st0"
   cx="84"
   cy="36"
   r="5.6999998"
   id="circle228" />
<circle
   class="st0"
   cx="100"
   cy="36"
   r="5.6999998"
   id="circle230" />
<circle
   class="st0"
   cx="116"
   cy="36"
   r="5.6999998"
   id="circle232" />
<circle
   class="st0"
   cx="44"
   cy="44"
   r="5.6999998"
   id="circle234" />
<circle
   class="st0"
   cx="60"
   cy="44"
   r="5.6999998"
   id="circle236" />
<circle
   class="st0"
   cx="76"
   cy="44"
   r="5.6999998"
   id="circle238" />
<circle
   class="st0"
   cx="92"
   cy="44"
   r="5.6999998"
   id="circle240" />
<circle
   class="st0"
   cx="108"
   cy="44"
   r="5.6999998"
   id="circle242" />
<circle
   class="st0"
   cx="36"
   cy="52"
   r="5.6999998"
   id="circle244" />
<circle
   class="st0"
   cx="116"
   cy="52"
   r="5.6999998"
   id="circle246" />
<circle
   class="st0"
   cx="52"
   cy="52"
   r="5.6999998"
   id="circle248" />
<circle
   class="st0"
   cx="68"
   cy="52"
   r="5.6999998"
   id="circle250" />
<circle
   class="st0"
   cx="84"
   cy="52"
   r="5.6999998"
   id="circle252" />
<circle
   class="st0"
   cx="100"
   cy="52"
   r="5.6999998"
   id="circle254" />
<circle
   class="st1"
   cx="52"
   cy="44"
   r="5.6999998"
   id="circle256" />
<circle
   class="st1"
   cx="68"
   cy="44"
   r="5.6999998"
   id="circle258" />
<circle
   class="st1"
   cx="84"
   cy="44"
   r="5.6999998"
   id="circle260" />
<circle
   class="st1"
   cx="100"
   cy="44"
   r="5.6999998"
   id="circle262" />
</svg>
