<?xml version="1.0" encoding="UTF-8" standalone="no"?>
<!-- Generator: Adobe Illustrator 25.0.0, SVG Export Plug-In . SVG Version: 6.00 Build 0)  -->

<svg
   version="1.1"
   id="Layer_1"
   x="0px"
   y="0px"
   viewBox="0 0 2416 184"
   xml:space="preserve"
   sodipodi:docname="CBMHeader-Purple.svg"
   width="2416"
   height="184"
   inkscape:version="1.2.2 (b0a8486541, 2022-12-01)"
   xmlns:inkscape="http://www.inkscape.org/namespaces/inkscape"
   xmlns:sodipodi="http://sodipodi.sourceforge.net/DTD/sodipodi-0.dtd"
   xmlns="http://www.w3.org/2000/svg"
   xmlns:svg="http://www.w3.org/2000/svg"><defs
   id="defs111" /><sodipodi:namedview
   id="namedview109"
   pagecolor="#505050"
   bordercolor="#ffffff"
   borderopacity="1"
   inkscape:showpageshadow="0"
   inkscape:pageopacity="0"
   inkscape:pagecheckerboard="1"
   inkscape:deskcolor="#505050"
   showgrid="false"
   inkscape:zoom="2.0584323"
   inkscape:cx="-89.388415"
   inkscape:cy="91.331641"
   inkscape:window-width="1536"
   inkscape:window-height="923"
   inkscape:window-x="0"
   inkscape:window-y="0"
   inkscape:window-maximized="1"
   inkscape:current-layer="Layer_1" />
<style
   type="text/css"
   id="style2">
	.st0{fill:#5795EB;}
</style>



















































<g
   id="g446"
   transform="matrix(1.5690349,0,0,1.5686275,-259.20457,-313.7255)"
   style="fill:#8f5abb;fill-opacity:1"><path
     class="st0"
     d="m 695,317 c 0,-11.9 0,-23.8 0,-35.9 3.4,0 6.5,0 9.9,0 0,1.5 0,3.1 0,4.8 2.1,0 3.9,0 5.9,0 0,1.9 0,3.7 0,5.8 1.7,0.1 3.3,0.2 5,0.2 0,-2 0,-3.8 0,-5.9 1.7,-0.1 3.3,-0.2 5,-0.3 0,-1.5 0,-3 0,-4.7 3.4,0 6.6,0 10.1,0 0,11.9 0,23.9 0,35.8 -3.3,0 -6.7,0 -10,0 0,-6.6 0,-13.2 0,-19.8 -1.9,0 -3.4,0 -5.2,0 0,1.7 0,3.2 0,4.8 -1.7,-0.1 -3.3,-0.2 -5,-0.2 0,-1.8 0,-3.2 0,-4.7 -2,0 -3.7,0 -5.8,0 0,6.7 0,13.3 0,19.9 -3.2,0.2 -6.6,0.2 -9.9,0.2 z"
     id="path4"
     style="fill:#8f5abb;fill-opacity:1" /><path
     class="st0"
     d="m 410,317 c 0,-11.9 0,-23.8 0,-35.9 3.4,0 6.5,0 9.9,0 0,1.5 0,3.1 0,4.8 1.8,0 3.2,0 4.9,0 0,1.9 0,3.7 0,5.8 1.7,0.1 3.3,0.1 5,0.2 0,-2 0,-3.8 0,-5.9 1.7,-0.1 3.3,-0.2 5,-0.3 0,-1.5 0,-3 0,-4.7 3.4,0 6.6,0 10.1,0 0,11.9 0,23.9 0,35.8 -3.3,0 -6.7,0 -10,0 0,-6.6 0,-13.2 0,-19.8 -1.9,0 -3.4,0 -5.2,0 0,1.7 0,3.2 0,4.8 -1.7,-0.1 -3.3,-0.2 -5,-0.2 0,-1.8 0,-3.2 0,-4.7 -1.6,0 -3.1,0 -4.8,0 0,6.7 0,13.3 0,19.9 -3.2,0.2 -6.6,0.2 -9.9,0.2 z"
     id="path6"
     style="fill:#8f5abb;fill-opacity:1" /><path
     class="st0"
     d="m 1062,317 c 0,-11.9 0,-23.8 0,-35.9 8.7,0 17.1,0 25.9,0 0,1.5 0,3.1 0,4.8 1.8,0 3.2,0 4.9,0 0,3.7 0,7.3 0,11 -1.5,0 -2.9,0 -4.6,0 0,1.7 0,3.3 0,5 1.5,0 3,0 4.6,0 0,3.3 0,6.4 0,9.8 -1.3,0.1 -2.9,0.2 -4.8,0.4 0,1.6 0,3.2 0,4.8 -8.7,0.1 -17.3,0.1 -26,0.1 z m 20.9,-30.8 c -3.6,0 -6.7,0 -9.9,0 0,2 0,3.8 0,5.6 0,1.8 0.1,3.5 0.1,5.1 3.5,0 6.6,0 9.8,0 0,-3.7 0,-7.1 0,-10.7 z m -9.8,25.6 c 3.5,0 6.6,0 9.9,0 0,-1.8 0,-3.4 0,-5.1 0,-1.6 -0.1,-3.2 -0.1,-4.6 -3.5,0 -6.6,0 -9.8,0 0,3.3 0,6.4 0,9.7 z"
     id="path8"
     style="fill:#8f5abb;fill-opacity:1" /><path
     class="st0"
     d="m 1307,317 c 0,-11.9 0,-23.8 0,-35.9 8.7,0 17.1,0 25.9,0 0,1.5 0,3.1 0,4.8 1.8,0 3.2,0 4.9,0 0,3.7 0,7.3 0,11 -1.5,0 -2.9,0 -4.6,0 0,1.7 0,3.3 0,5 1.5,0 3,0 4.6,0 0,3.3 0,6.4 0,9.8 -1.4,0.1 -2.9,0.2 -4.8,0.4 0,1.6 0,3.2 0,4.8 -8.7,0.1 -17.3,0.1 -26,0.1 z m 10.2,-30.9 c 0,3.9 0,7.3 0,10.9 2,0 3.8,0 5.6,0 1.8,0 3.5,-0.1 5.1,-0.1 0,-3.8 0,-7.3 0,-10.8 -3.7,0 -7.1,0 -10.7,0 z m -0.1,25.7 c 3.9,0 7.3,0 10.9,0 0,-1.8 0,-3.5 0,-5.1 0,-1.6 -0.1,-3.2 -0.2,-4.6 -3.8,0 -7.3,0 -10.7,0 0,3.4 0,6.5 0,9.7 z"
     id="path10"
     style="fill:#8f5abb;fill-opacity:1" /><path
     class="st0"
     d="m 328,317 c 0,-11.8 0,-23.7 0,-36 8.6,0 17.1,0 25.9,0 0,1.6 0,3.1 0,4.9 1.7,0 3.3,0 5,0 0,3.8 0,7.3 0,11.1 -1.6,0 -3.1,0 -4.9,0 0,1.8 0,3.3 0,4.9 -2,0 -3.7,0 -5.8,0 0,1.7 0,3.3 0,5.1 1.8,0 3.6,0 5.7,0 0,1.7 0,3.3 0,5.1 1.8,0 3.3,0 5.1,0 0,1.8 0,3.4 0,5 -3.7,0 -7.3,0 -11,0 0,-1.6 0,-3.2 0,-4.8 -1.9,-0.1 -3.5,-0.2 -5.2,-0.3 0,-1.8 0,-3.2 0,-4.9 -1.7,0.1 -3.3,0.2 -4.8,0.3 0,3.5 0,6.7 0,9.8 -3.3,-0.2 -6.7,-0.2 -10,-0.2 z m 19.8,-20.1 c 0,-3.9 0,-7.3 0,-10.9 -1.8,0 -3.4,0 -5.1,0 -1.6,0 -3.2,0.1 -4.6,0.2 0,3.8 0,7.2 0,10.8 3.3,-0.1 6.5,-0.1 9.7,-0.1 z"
     id="path12"
     style="fill:#8f5abb;fill-opacity:1" /><path
     class="st0"
     d="m 1593,317 c 0,-11.8 0,-23.7 0,-35.5 0.1,-0.1 0.2,-0.2 0.4,-0.3 0.1,-0.1 0.3,-0.1 0.4,-0.1 8,0 15.9,0 24.1,0 0,1.6 0,3.1 0,4.9 1.7,0 3.3,0 5,0 0,3.8 0,7.3 0,11.1 -1.6,0 -3.1,0 -4.9,0 0,1.8 0,3.3 0,4.9 -1.6,0 -3.1,0 -4.8,0 0,1.7 0,3.3 0,5.1 1.4,0 2.9,0 4.7,0 0,1.7 0,3.3 0,5.1 1.8,0 3.3,0 5.1,0 0,1.8 0,3.4 0,5 -3.3,0 -6.7,0 -10,0 0,-1.6 0,-3.2 0,-4.8 -1.9,-0.1 -3.5,-0.2 -5.2,-0.3 0,-1.8 0,-3.2 0,-4.9 -1.7,0.1 -3.3,0.2 -4.8,0.3 0,3.5 0,6.7 0,9.8 -3.3,-0.3 -6.7,-0.3 -10,-0.3 z m 20,-31 c -3.3,0 -6.7,-0.1 -9.8,0.1 0,3.9 0,7.4 0,10.9 1.8,0 3.5,0 5.1,0 1.6,0 3.2,-0.1 4.7,-0.2 0,-3.7 0,-7 0,-10.8 z"
     id="path14"
     style="fill:#8f5abb;fill-opacity:1" /><path
     class="st0"
     d="m 864,317 c 0,-1.5 0,-3 0,-4.8 -1.9,-0.1 -3.8,-0.2 -5.8,-0.3 0,-3.2 0,-6.3 0,-9.8 1.8,0 3.7,0 5.7,0 0,-1.8 0,-3.2 0,-5 -1.8,0 -3.7,0 -5.8,0 0,-3.8 0,-7.2 0,-10.9 1.8,0 3.5,0 5.7,0 0.1,-1.7 0.2,-3.3 0.4,-5 6.4,0 12.9,0 19.7,0 0.1,1.4 0.2,2.9 0.3,4.7 1.5,0 2.9,0 4.6,0 0,3.7 0,7.3 0,11 -1.4,0 -2.9,0 -4.5,0 0,1.7 0,3.3 0,5 1.5,0 2.9,0 4.6,0 0,3.4 0,6.6 0,10 -1.6,0 -3,0 -4.8,0 0,1.8 0,3.4 0,5 -6.8,0.1 -13.4,0.1 -20.1,0.1 z m 14.9,-30.8 c -3.5,0 -6.6,0 -9.9,0 0,2 0,3.8 0,5.6 0,1.8 0.1,3.5 0.1,5.1 3.5,0 6.6,0 9.8,0 0,-3.7 0,-7.1 0,-10.7 z m -9.8,25.6 c 3.5,0 6.6,0 9.9,0 0,-1.8 0,-3.4 0,-5.1 0,-1.6 -0.1,-3.2 -0.2,-4.6 -3.5,0 -6.6,0 -9.8,0 0.1,3.3 0.1,6.4 0.1,9.7 z"
     id="path16"
     style="fill:#8f5abb;fill-opacity:1" /><path
     class="st0"
     d="m 1103,317 c 0,-8.3 0,-16.5 0,-24.9 1.7,0 3.2,0 5,0 0,-2.1 0,-4 0,-6 1.8,0 3.2,0 4.9,0 0,-1.6 0,-3.1 0,-4.3 0.3,-0.3 0.4,-0.5 0.5,-0.5 3.4,0 6.9,0 10.5,0 0,1.4 0,2.9 0,4.7 1.7,0.1 3.3,0.2 5,0.3 0,1.8 0,3.6 0,5.7 1.7,0.1 3.3,0.2 5.1,0.2 0,8.4 0,16.6 0,24.9 -3.3,0 -6.7,0 -10,0 0,-4.9 0,-9.9 0,-15 -2.1,0 -3.9,0 -5.7,0 -1.8,0 -3.5,0.1 -5.3,0.1 0,5.2 0,10 0,14.9 -3.3,-0.1 -6.7,-0.1 -10,-0.1 z m 20.9,-24.8 c -3.9,0 -7.3,0 -11,0 0.1,1.7 0.2,3.3 0.2,4.7 3.8,0 7.2,0 10.7,0 0.1,-1.7 0.1,-3.1 0.1,-4.7 z"
     id="path18"
     style="fill:#8f5abb;fill-opacity:1" /><path
     class="st0"
     d="m 246,317 c 0,-11.9 0,-23.9 0,-35.9 3.7,0 7.2,0 10.8,0 0,3.5 0,6.9 0,10.7 1.7,0.1 3.3,0.2 5,0.3 0,-2 0,-3.8 0,-5.9 1.7,-0.1 3.3,-0.2 5,-0.3 0,-1.5 0,-3 0,-4.7 3.4,0 6.6,0 10,0 0,1.5 0,2.9 0,4.7 -1.5,0 -3.1,0 -4.8,0 0,2.1 0,3.9 0,5.9 -1.6,0 -3.1,0 -4.8,0 -0.1,1.7 -0.2,3.3 -0.3,5 -1.5,0 -2.9,0 -4.6,0 0,1.7 0,3.3 0,5 1.4,0 2.9,0 4.7,0 0,1.7 0,3.3 0,5 1.8,0 3.2,0 5,0 0,1.7 0,3.3 0,5 1.8,0 3.2,0 5,0 0,1.8 0,3.4 0,5 -3.3,0 -6.7,0 -10,0 0,-1.6 0,-3.2 0,-4.8 -1.9,-0.1 -3.5,-0.2 -5.2,-0.3 0,-1.8 0,-3.2 0,-4.9 -1.7,0.1 -3.3,0.2 -4.8,0.3 0,3.5 0,6.7 0,9.8 -3.7,0.1 -7.3,0.1 -11,0.1 z"
     id="path20"
     style="fill:#8f5abb;fill-opacity:1" /><path
     class="st0"
     d="m 369,317 c 0,-8.3 0,-16.5 0,-24.9 1.7,0 3.2,0 5,0 0,-2.1 0,-4 0,-6 1.8,0 3.2,0 4.9,0 0,-1.6 0,-3 0,-4.3 0.3,-0.3 0.4,-0.5 0.5,-0.5 3.1,0 6.2,0 9.5,0 0,1.4 0,2.9 0,4.7 1.7,0.1 3.3,0.2 5,0.3 0,1.8 0,3.6 0,5.7 1.7,0.1 3.3,0.1 5.1,0.2 0,8.4 0,16.6 0,24.9 -3.3,0 -6.7,0 -10,0 0,-4.9 0,-9.9 0,-15 -2,0 -3.6,0 -5.2,0 -1.6,0 -3.2,0.1 -4.8,0.2 0,5.2 0,10 0,14.8 -3.3,-0.1 -6.7,-0.1 -10,-0.1 z m 10,-20 c 3.3,0 6.7,0 9.8,0 0,-1.9 0,-3.4 0,-4.8 -3.3,0 -6.4,0 -9.5,0 -0.1,0 -0.2,0.2 -0.3,0.3 0,1.3 0,2.7 0,4.5 z"
     id="path22"
     style="fill:#8f5abb;fill-opacity:1" /><path
     class="st0"
     d="m 904,317 c 0,-1.5 0,-3 0,-4.8 -1.5,-0.1 -3.1,-0.2 -4.8,-0.3 0,-1.5 0,-3 0,-4.6 3.1,0 6.3,0 9.8,0 0,1.5 0,2.9 0,4.6 3.7,0 7.3,0 11,0 0,-3.2 0,-6.3 0,-9.6 -5.1,0 -10.2,0 -15.7,0 -0.1,-1.7 -0.2,-3.3 -0.4,-5 -1.4,0 -2.9,0 -4.6,0 0,-3.7 0,-7.3 0,-11 1.4,0 2.8,0 4.7,0 0,-1.7 0,-3.3 0,-5 7.1,0 13.9,0 21,0 0,1.5 0,3.1 0,4.8 1.8,0 3.2,0 4.9,0 0,8.7 0,17.3 0,26 -1.6,0 -3,0 -4.8,0 0,1.8 0,3.4 0,5 C 918,317 911,317 904,317 Z m 15.8,-20.1 c 0,-3.9 0,-7.3 0,-10.9 -2,0 -3.8,0 -5.6,0 -1.8,0 -3.5,0.1 -5.1,0.1 0,3.8 0,7.3 0,10.8 3.7,0 7.1,0 10.7,0 z"
     id="path24"
     style="fill:#8f5abb;fill-opacity:1" /><path
     class="st0"
     d="m 170,317 c 0,-1.5 0,-3 0,-4.8 -1.5,-0.1 -3.1,-0.2 -4.8,-0.3 0,-8.5 0,-17 0,-25.7 1.4,-0.1 3,-0.2 4.7,-0.2 0,-1.6 0,-3 0,-4.7 6.7,0 13.3,0 20,0 0,1.5 0,2.9 0,4.7 1.7,0 3.3,0 5,0 0,2.1 0,3.9 0,5.9 -3.1,0 -6.3,0 -9.7,0 -0.1,-1.7 -0.2,-3.6 -0.3,-5.7 -3.2,0 -6.3,0 -9.6,0 0,3.4 0,7 0,10.7 4.8,0 9.5,0 14.7,0 0,1.7 0,3.3 0,5 1.8,0 3.2,0 4.9,0 0,3.4 0,6.6 0,10 -1.6,0 -3,0 -4.8,0 0,1.8 0,3.4 0,5 -6.8,0.1 -13.4,0.1 -20.1,0.1 z m 14.8,-5.1 c 0,-3.5 0,-6.6 0,-9.9 -1.8,0 -3.4,0 -5.1,0 -1.6,0 -3.2,0.1 -4.6,0.2 0,3.5 0,6.6 0,9.8 3.3,-0.1 6.4,-0.1 9.7,-0.1 z"
     id="path26"
     style="fill:#8f5abb;fill-opacity:1" /><path
     class="st0"
     d="m 1149,317 c 0,-1.5 0,-3 0,-4.8 -1.6,-0.1 -3.1,-0.2 -4.9,-0.3 0,-1.5 0,-3 0,-4.7 3.1,0 6.4,0 9.8,0 0,1.5 0,2.9 0,4.6 3.4,0 6.6,0 10,0 0,-3.2 0,-6.4 0,-9.6 -4.8,0 -9.6,0 -14.7,0 -0.1,-1.7 -0.2,-3.3 -0.3,-5.1 -1.6,0 -3,0 -4.7,0 0,-3.7 0,-7.3 0,-11.1 1.5,0 3,0 4.6,0 0,-1.6 0,-3.1 0,-4.4 0.4,-0.3 0.7,-0.6 0.9,-0.6 6.6,0 13.3,0 20.1,0 0,1.6 0,3.1 0,4.9 1.7,0.1 3.3,0.2 5,0.2 0,1.9 0,3.7 0,5.7 -3.5,0 -7.1,0 -10.8,0 0,-1.9 0,-3.6 0,-5.6 -3.3,0 -6.4,0 -9.9,0 0,1.6 -0.1,3.3 -0.1,5.1 0,1.8 0,3.6 0,5.6 5.3,0 10.4,0 15.9,0 0,1.7 0,3.3 0,5.1 1.8,0 3.3,0 4.9,0 0,3.4 0,6.6 0,10.1 -1.5,0 -3,0 -4.8,0 0,1.8 0,3.4 0,5 -7,-0.1 -14,-0.1 -21,-0.1 z"
     id="path28"
     style="fill:#8f5abb;fill-opacity:1" /><path
     class="st0"
     d="m 654,317 c 0,-11.9 0,-23.9 0,-35.9 10.4,0 20.5,0 30.8,0 0,1.5 0,3.1 0,4.8 -6.5,0 -12.9,0 -19.6,0 0,3.7 0,7.3 0,11 3.2,0 6.3,0 9.6,0 0,1.7 0,3.3 0,5 -3.2,0 -6.3,0 -9.6,0 0,3.3 0,6.4 0,9.7 -0.1,-0.1 0,0.1 0.2,0.2 0.1,0.1 0.3,0.2 0.4,0.2 6.3,0 12.6,0 19.2,0 0,1.8 0,3.4 0,5 -10.3,0 -20.7,0 -31,0 z"
     id="path30"
     style="fill:#8f5abb;fill-opacity:1" /><path
     class="st0"
     d="m 1674,317 c 0,-11.9 0,-23.9 0,-35.9 10.4,0 20.5,0 30.8,0 0,1.5 0,3.1 0,4.8 -6.5,0 -12.9,0 -19.6,0 0,3.7 0,7.3 0,11 3.2,0 6.3,0 9.6,0 0,1.7 0,3.3 0,5 -3.2,0 -6.3,0 -9.6,0 0,3.3 0,6.4 0,9.7 -0.1,-0.1 0,0.1 0.2,0.2 0.1,0.1 0.3,0.2 0.4,0.2 6.3,0 12.6,0 19.2,0 0,1.8 0,3.4 0,5 -10.3,0 -20.7,0 -31,0 z"
     id="path32"
     style="fill:#8f5abb;fill-opacity:1" /><path
     class="st0"
     d="m 1476,317 c 0,-1.5 0,-3 0,-4.8 -1.9,-0.1 -3.8,-0.2 -5.9,-0.3 0,-1.5 0,-3 0,-4.7 3.5,0 7,0 10.8,0 0,1.5 0,2.9 0,4.6 3.4,0 6.6,0 10,0 0,-3.2 0,-6.4 0,-9.6 -4.8,0 -9.6,0 -14.7,0 -0.1,-1.7 -0.2,-3.3 -0.3,-5.1 -1.9,0 -3.7,0 -5.7,0 0,-3.7 0,-7.3 0,-11.1 1.8,0 3.6,0 5.8,0 0,-1.7 0,-3.3 0,-5 6.8,0 13.2,0 19.9,0 0,1.5 0,3 0,4.8 1.7,0.1 3.3,0.2 5,0.2 0,1.9 0,3.7 0,5.7 -3.2,0 -6.4,0 -9.8,0 0,-1.9 0,-3.6 0,-5.6 -3.3,0 -6.4,0 -9.9,0 0,1.6 -0.1,3.3 -0.1,5.1 0,1.8 0,3.6 0,5.6 5,0 9.8,0 14.9,0 0,1.7 0,3.3 0,5.1 1.8,0 3.3,0 4.9,0 0,3.4 0,6.6 0,10.1 -1.5,0 -3,0 -4.8,0 0,1.8 0,3.4 0,5 -6.8,0 -13.4,0 -20.1,0 z"
     id="path34"
     style="fill:#8f5abb;fill-opacity:1" /><path
     class="st0"
     d="m 496,317 c 0,-1.5 0,-3 0,-4.8 -1.6,-0.1 -3.1,-0.2 -4.9,-0.3 0,-1.5 0,-3 0,-4.7 3.1,0 6.4,0 9.8,0 0,1.5 0,2.9 0,4.6 3.7,0 7.3,0 11,0 0,-3.2 0,-6.4 0,-9.6 -5.2,0 -10.3,0 -15.7,0 -0.1,-1.7 -0.2,-3.3 -0.3,-5.1 -1.6,0 -3,0 -4.7,0 0,-3.7 0,-7.3 0,-11.1 1.5,0 3,0 4.6,0 0,-1.6 0,-3.1 0,-4.4 0.4,-0.3 0.7,-0.6 0.9,-0.6 6.6,0 13.3,0 20.1,0 0,1.6 0,3.1 0,4.9 1.7,0.1 3.3,0.2 5,0.2 0,1.9 0,3.7 0,5.7 -3.2,0 -6.4,0 -9.8,0 0,-1.9 0,-3.6 0,-5.6 -3.6,0 -7.1,0 -10.9,0 0,1.6 -0.1,3.3 -0.1,5.1 0,1.8 0,3.6 0,5.6 5.3,0 10.4,0 15.9,0 0,1.7 0,3.3 0,5.1 1.8,0 3.3,0 4.9,0 0,3.4 0,6.6 0,10.1 -1.5,0 -3,0 -4.8,0 0,1.8 0,3.4 0,5 -7,-0.1 -14,-0.1 -21,-0.1 z"
     id="path36"
     style="fill:#8f5abb;fill-opacity:1" /><path
     class="st0"
     d="m 578,317 c 0,-1.5 0,-3 0,-4.8 -1.6,-0.1 -3.1,-0.2 -4.9,-0.3 0,-1.5 0,-3 0,-4.7 3.1,0 6.4,0 9.8,0 0,1.5 0,2.9 0,4.6 3.4,0 6.6,0 10,0 0,-3.2 0,-6.4 0,-9.6 -4.8,0 -9.6,0 -14.7,0 -0.1,-1.7 -0.2,-3.3 -0.3,-5.1 -1.6,0 -3,0 -4.7,0 0,-3.7 0,-7.3 0,-11.1 1.5,0 3,0 4.6,0 0,-1.6 0,-3.1 0,-4.4 0.4,-0.3 0.7,-0.6 0.9,-0.6 6.3,0 12.6,0 19.1,0 0,1.6 0,3.1 0,4.9 1.7,0.1 3.3,0.2 5,0.2 0,1.9 0,3.7 0,5.7 -3.2,0 -6.4,0 -9.8,0 0,-1.9 0,-3.6 0,-5.6 -3.3,0 -6.4,0 -9.9,0 0,1.6 -0.1,3.3 -0.1,5.1 0,1.8 0,3.6 0,5.6 5,0 9.8,0 14.9,0 0,1.7 0,3.3 0,5.1 1.8,0 3.3,0 4.9,0 0,3.4 0,6.6 0,10.1 -1.5,0 -3,0 -4.8,0 0,1.8 0,3.4 0,5 -6.7,-0.1 -13.3,-0.1 -20,-0.1 z"
     id="path38"
     style="fill:#8f5abb;fill-opacity:1" /><path
     class="st0"
     d="m 216.1,297.1 c -0.1,-1.6 -0.1,-3 -0.1,-4.9 1.5,-0.1 3.1,-0.2 4.8,-0.3 0,-1.8 0,-3.6 0,-5.7 1.7,-0.1 3.3,-0.2 5,-0.3 0,-1.5 0,-3 0,-4.9 1.7,0 3.3,0 4.9,0 1.6,0 3.3,0 5,0 0,6.9 0,13.7 0,20.8 1.7,0.1 3.2,0.2 5,0.4 0,1.4 0,2.9 0,4.7 -1.4,0.1 -2.9,0.2 -4.8,0.3 0,3.3 0,6.6 0,9.9 -3.3,0 -6.7,0 -10,0 0,-3.3 0,-6.5 0,-9.9 -6.7,0 -13.1,0 -19.8,0 0,-3.3 0,-6.6 0,-10.1 3.4,-0.1 6.6,-0.1 10,0 0.1,1.5 0.1,3.2 0.1,4.7 3.4,0 6.6,0 9.7,0 0,-1.7 0,-3.1 0,-4.7 -3.4,0 -6.6,0 -9.8,0 z"
     id="path40"
     style="fill:#8f5abb;fill-opacity:1" /><path
     class="st0"
     d="m 1634,317 c 0,-11.9 0,-23.9 0,-35.9 10.1,0 19.8,0 29.8,0 0,1.5 0,3.1 0,4.8 -6.5,0 -12.9,0 -19.6,0 0,3.7 0,7.3 0,11 3.2,0 6.3,0 9.6,0 0,1.7 0,3.3 0,5 -3.2,0 -6.3,0 -9.6,0 0,3.3 0,6.4 0,9.7 -0.1,-0.1 0,0.1 0.2,0.2 0.1,0.1 0.3,0.2 0.4,0.2 6.3,0 12.6,0 19.2,0 0,1.8 0,3.4 0,5 -10,0 -20,0 -30,0 z"
     id="path42"
     style="fill:#8f5abb;fill-opacity:1" /><path
     class="st0"
     d="m 1430,317 c 0,-11.9 0,-23.9 0,-35.9 10.1,0 19.8,0 29.8,0 0,1.5 0,3.1 0,4.8 -6.5,0 -12.9,0 -19.6,0 0,3.7 0,7.3 0,11 3.2,0 6.3,0 9.6,0 0,1.7 0,3.3 0,5 -3.2,0 -6.3,0 -9.6,0 0,3.3 0,6.4 0,9.7 -0.1,-0.1 0,0.1 0.2,0.2 0.1,0.1 0.3,0.2 0.4,0.2 6.3,0 12.6,0 19.2,0 0,1.8 0,3.4 0,5 -10,0 -20,0 -30,0 z"
     id="path44"
     style="fill:#8f5abb;fill-opacity:1" /><path
     class="st0"
     d="m 823,317 c 0,-1.5 0,-3 0,-4.8 -1.6,-0.1 -3.1,-0.2 -4.9,-0.3 0,-1.5 0,-3 0,-4.7 3.1,0 6.4,0 9.8,0 0,1.5 0,2.9 0,4.6 3.4,0 6.6,0 10,0 0,-3.2 0,-6.3 0,-9.6 -3.2,0 -6.3,0 -9.7,0 0,-1.7 0,-3.3 0,-5.1 3.1,0 6.2,0 9.5,0 0,-3.7 0,-7.3 0,-11 -3.2,0 -6.3,0 -9.6,0 0,1.8 0,3.6 0,5.7 -1.8,0.1 -3.3,0.1 -4.9,0.2 -1.6,0 -3.3,0 -5.1,0 0,-2 0,-3.7 0,-5.9 1.4,-0.1 3,-0.1 4.7,-0.2 0,-1.6 0,-3 0,-4.7 6.7,0 13.3,0 20.1,0 0,1.5 0,3 0,4.6 1.6,0 3.1,0 4.3,0 0.3,0.3 0.5,0.4 0.5,0.5 0,3.4 0,6.9 0,10.5 -1.5,0 -2.9,0 -4.6,0 0,1.7 0,3.3 0,5.1 1.5,0 2.9,0 4.6,0 0,3.4 0,6.6 0,10.1 -1.5,0 -3,0 -4.8,0 0,1.8 0,3.4 0,5 -6.6,0 -13.2,0 -19.9,0 z"
     id="path46"
     style="fill:#8f5abb;fill-opacity:1" /><path
     class="st0"
     d="m 1358,317 c 0,-4.8 0,-9.7 0,-14.8 -1.6,-0.1 -3.1,-0.2 -4.9,-0.3 0,-1.5 0,-3 0,-4.8 -1.7,0 -3.3,0 -5,0 0,-5.5 0,-10.6 0,-15.9 3.2,0 6.4,0 9.9,0 0,5.2 0,10.3 0,15.6 3.3,0 6.4,0 9.9,0 0.3,-2.4 0.1,-5 0.1,-7.6 0,-2.6 0,-5.3 0,-8.1 3.6,0 7.1,0 10.8,0 0,5.1 0,10.4 0,15.8 -1.5,0 -2.9,0 -4.7,0 0,1.7 0,3.3 0,5.1 -2.1,0 -3.9,0 -6,0 0,5.1 0,10.1 0,15 -3.4,0 -6.8,0 -10.1,0 z"
     id="path48"
     style="fill:#8f5abb;fill-opacity:1" /><path
     class="st0"
     d="m 542,317 c 0,-4.8 0,-9.7 0,-14.8 -1.6,-0.1 -3.1,-0.2 -4.9,-0.3 0,-1.5 0,-3 0,-4.8 -1.7,0 -3.3,0 -5,0 0,-5.5 0,-10.6 0,-15.9 3.2,0 6.4,0 9.9,0 0,5.2 0,10.3 0,15.6 3.3,0 6.4,0 9.9,0 0.3,-2.4 0.1,-5 0.1,-7.6 0,-2.6 0,-5.3 0,-8.1 3.6,0 7.1,0 10.8,0 0,5.1 0,10.4 0,15.8 -1.5,0 -2.9,0 -4.7,0 0,1.7 0,3.3 0,5.1 -2.1,0 -3.9,0 -6,0 0,5.1 0,10.1 0,15 -3.4,0 -6.8,0 -10.1,0 z"
     id="path50"
     style="fill:#8f5abb;fill-opacity:1" /><path
     class="st0"
     d="m 1231,317 c 0,-1.5 0,-3 0,-4.8 -1.6,-0.1 -3.1,-0.2 -4.8,-0.3 0,-8.5 0,-17 0,-25.7 1.4,-0.1 3,-0.1 4.7,-0.2 0,-1.6 0,-3 0,-4.7 6.7,0 13.3,0 20,0 0,1.5 0,2.9 0,4.7 1.7,0 3.3,0 5,0 0,2.1 0,3.9 0,5.9 -3.2,0 -6.3,0 -9.8,0 -0.1,-1.7 -0.2,-3.6 -0.3,-5.7 -3.2,0 -6.3,0 -9.7,0 0,8.4 0,17 0,25.7 3.1,0 6.2,0 9.7,0 0,-1.5 0,-3.1 0,-4.7 3.5,0 6.6,0 9.9,0 0,1.5 0,3.1 0,4.9 -1.6,0 -3,0 -4.8,0 0,1.8 0,3.4 0,5 -6.6,-0.1 -13.2,-0.1 -19.9,-0.1 z"
     id="path52"
     style="fill:#8f5abb;fill-opacity:1" /><path
     class="st0"
     d="m 1552,317 c 0,-11.9 0,-23.9 0,-35.9 10.4,0 20.5,0 30.8,0 0,1.5 0,3.1 0,4.8 -6.9,0 -13.6,0 -20.6,0 0,3.7 0,7.3 0,11 3.2,0 6.3,0 9.6,0 0,1.6 0,3.1 0,4.9 -3,0.5 -6.3,0 -9.8,0.3 0,5 0,9.9 0,14.9 -3.3,0 -6.7,0 -10,0 z"
     id="path54"
     style="fill:#8f5abb;fill-opacity:1" /><path
     class="st0"
     d="m 940,317 c 0,-1.5 0,-3 0,-4.8 3.2,-0.5 6.5,0 9.8,-0.3 0,-4.8 0,-9.6 0,-14.7 -1.4,-0.1 -2.9,-0.2 -4.7,-0.3 0,-1.5 0,-2.9 0,-4.7 1.4,-0.1 3,-0.2 4.7,-0.2 0,-3.5 0,-7 0,-10.7 3.4,0 6.6,0 10,0 0,10.1 0,20.2 0,30.6 3.7,0.5 7.3,0 11.1,0.3 0,1.6 0,3.3 0,4.9 C 960.7,317 950.3,317 940,317 Z"
     id="path56"
     style="fill:#8f5abb;fill-opacity:1" /><path
     class="st0"
     d="m 981,317 c 0,-1.5 0,-3 0,-4.8 1.6,-0.1 3.2,-0.1 4.8,-0.2 1.6,0 3.3,0 5.1,0 0,-4.9 0,-9.7 0,-14.8 -1.4,-0.1 -2.9,-0.2 -4.7,-0.3 0,-1.5 0,-2.9 0,-4.7 1.4,-0.1 3,-0.2 4.7,-0.2 0,-3.5 0,-7 0,-10.7 3.4,0 6.6,0 10,0 0,10.1 0,20.2 0,30.5 3.3,0.5 6.6,0 10.1,0.4 0,1.6 0,3.2 0,4.9 -10,-0.1 -20,-0.1 -30,-0.1 z"
     id="path58"
     style="fill:#8f5abb;fill-opacity:1" /><path
     class="st0"
     d="m 624,317 c 0,-10.3 0,-20.5 0,-31 -3.4,0 -6.5,0 -9.8,0 0,-1.6 0,-3.1 0,-4.7 -0.1,0.1 0,-0.1 0.2,-0.1 9.8,0 19.5,0 29.5,0 0,1.4 0,2.9 0,4.7 -3,0 -6.3,0 -9.8,0 0,10.6 0,20.9 0,31.2 C 630.7,317 627.3,317 624,317 Z"
     id="path60"
     style="fill:#8f5abb;fill-opacity:1" /><path
     class="st0"
     d="m 1190,317 c 0,-1.5 0,-3 0,-4.8 1.5,-0.1 3.1,-0.2 4.8,-0.3 0,-8.5 0,-16.9 0,-25.7 -1.4,-0.1 -2.9,-0.2 -4.7,-0.3 0,-1.4 0,-2.9 0,-4.8 6.4,-0.2 12.9,0 19.7,-0.1 0,1.6 0,3 0,4.9 -1.4,0.1 -2.9,0.2 -4.7,0.3 0,8.5 0,16.9 0,25.7 1.4,0.1 2.9,0.2 4.8,0.4 0,1.6 0,3.2 0,4.8 -6.6,-0.1 -13.2,-0.1 -19.9,-0.1 z"
     id="path62"
     style="fill:#8f5abb;fill-opacity:1" /><path
     class="st0"
     d="m 1399,317 c 0,-10.3 0,-20.5 0,-31 -3.4,0 -6.5,0 -9.8,0 0,-1.6 0,-3.1 0,-4.7 -0.1,0.1 0,-0.1 0.2,-0.1 9.8,0 19.5,0 29.5,0 0,1.4 0,2.9 0,4.7 -3,0 -6.3,0 -9.8,0 0,10.6 0,20.9 0,31.2 -3.4,-0.1 -6.8,-0.1 -10.1,-0.1 z"
     id="path64"
     style="fill:#8f5abb;fill-opacity:1" /><path
     class="st0"
     d="m 297,225.2 c 0,1.6 0,2.9 0,4.2 -0.1,0.1 -0.2,0.3 -0.4,0.3 -3.1,0 -6.2,0 -9.5,0 0,-1.5 0,-3 0,-4.8 1.5,0 3.1,0 4.7,0 0,-1.8 0,-3.3 0,-4.9 -3.1,0 -6.2,0 -9.7,0 -0.1,-1.7 -0.2,-3.3 -0.2,-5 3.3,0 6.4,0 9.8,0 0,-1.7 0,-3.3 0,-5.1 -1.4,0 -2.9,0 -4.5,0 0,-1.7 0,-3.3 0,-5 3.2,0 6.3,0 9.6,0 0,1.5 0,2.9 0,4.2 0.3,0.3 0.4,0.5 0.5,0.5 3.5,0 6.9,0 10.5,0 0,-1.5 0,-2.9 0,-4.6 3.4,0 6.6,0 10,0 0,1.5 0,2.9 0,4.7 -1.5,0 -3.1,0 -4.8,0 0,1.8 0,3.3 0,4.9 6.5,0 13,0 19.7,0 0,-1.4 0,-3 0,-4.7 -1.4,0 -2.9,0 -4.5,0 0,-1.7 0,-3.3 0,-5 3.2,0 6.3,0 9.8,0 0,1.6 0,3.1 0,4.8 3.5,0 6.6,0 9.9,0 0,-1.5 0,-3 0,-4.7 3.7,0 7.3,0 11,0 0,1.4 0,2.9 0,4.7 -1.5,0 -3.1,0 -4.8,0 0,1.8 0,3.3 0,4.9 6.5,0 12.9,0 19.6,0 0,-1.4 0,-2.9 0,-4.7 -1.4,0 -2.8,0 -4.5,0 0,-1.7 0,-3.3 0,-5 3.1,0 6.3,0 9.7,0 0,1.5 0,3.1 0,4.8 3.5,0 6.6,0 9.9,0 0,-1.5 0,-3 0,-4.7 3.4,0 6.6,0 10,0 0,1.4 0,2.9 0,4.7 -1.5,0 -3.1,0 -4.7,0 0,1.8 0,3.3 0,4.9 6.8,0 13.6,0 20.7,0 0.1,-1.4 0.1,-2.9 0.2,-4.7 -1.7,0 -3.1,0 -4.8,0 0,-1.7 0,-3.3 0,-5 3.1,0 6.2,0 9.7,0 0,1.5 0,3.1 0,4.8 3.5,0 6.6,0 9.9,0 0,-1.5 0,-2.9 0,-4.2 0.3,-0.3 0.4,-0.5 0.5,-0.5 3.1,0 6.2,0 9.5,0 0,1.5 0,3 0,4.8 -1.5,0 -3,0 -4.7,0 0,1.8 0,3.3 0,4.9 3.1,0 6.2,0 9.7,0 0.1,1.7 0.2,3.3 0.2,5 -3.3,0 -6.4,0 -9.8,0 0,1.7 0,3.3 0,5.1 1.4,0 2.9,0 4.5,0 0,1.7 0,3.3 0,5 -3.2,0 -6.3,0 -9.6,0 0,-1.5 0,-2.9 0,-4.2 -0.3,-0.3 -0.4,-0.5 -0.5,-0.5 -3.1,0 -6.2,0 -9.5,0 0,1.5 0,2.9 0,4.6 -3.4,0 -6.6,0 -10,0 0,-1.5 0,-2.9 0,-4.7 1.5,0 3.1,0 4.8,0 0,-1.8 0,-3.3 0,-4.9 -6.8,0 -13.6,0 -20.7,0 0,1.4 0,3 0,4.7 1.4,0 2.9,0 4.5,0 0,1.7 0,3.3 0,5 -3.2,0 -6.3,0 -9.8,0 0,-1.6 0,-3.1 0,-4.8 -3.5,0 -6.6,0 -9.9,0 0,1.5 0,3 0,4.7 -3.4,0 -6.6,0 -10,0 0,-1.4 0,-2.9 0,-4.7 1.5,0 3.1,0 4.8,0 0,-1.8 0,-3.3 0,-4.9 -6.5,0 -12.9,0 -19.6,0 0,1.4 0,2.9 0,4.7 1.4,0 2.8,0 4.5,0 0,1.7 0,3.3 0,5 -3.5,0 -6.9,0 -10.7,0 0,-1.5 0,-3.1 0,-4.8 -3.5,0 -6.6,0 -9.9,0 0,1.5 0,3 0,4.7 -3.4,0 -6.6,0 -10,0 0,-1.4 0,-2.9 0,-4.7 1.5,0 3.1,0 4.7,0 0,-1.8 0,-3.3 0,-4.9 -6.5,0 -12.9,0 -19.7,0 -0.1,1.4 -0.1,2.9 -0.2,4.7 1.7,0 3.1,0 4.8,0 0,1.7 0,3.3 0,5 -3.1,0 -6.2,0 -9.7,0 0,-1.5 0,-3.1 0,-4.6 -3.9,0 -7.4,0 -11,0 z"
     id="path66"
     style="fill:#8f5abb;fill-opacity:1" /><path
     class="st0"
     d="m 1491,209.8 c 0,-1.6 0,-3.1 0,-4.7 3.3,0 6.4,0 9.7,0 0,1.5 0,3 0,4.8 -1.5,0 -2.9,0 -4.6,0 0,1.7 0,3.3 0,5 6.6,0 13,0 19.6,0 0,-1.5 0,-3 0,-4.8 -1.4,-0.1 -3,-0.1 -4.7,-0.2 0,-1.6 0,-3 0,-4.7 3.2,0 6.4,0 9.8,0 0,1.5 0,3 0,4.6 3.6,0 7.1,0 10.9,0 0.1,-1.4 0.2,-2.9 0.3,-4.7 3.2,0 6.3,0 9.6,0 0,1.4 0,3 0,4.8 -1.5,0 -2.9,0 -4.6,0 0,1.7 0,3.3 0,5.1 3.2,0 6.3,0 9.6,0 0,1.6 0,3.1 0,4.9 -3.1,0 -6.3,0 -9.7,0 0,1.8 0,3.2 0,5.1 1.5,0 3.1,0 4.7,0 0,1.8 0,3.3 0,4.9 -3.1,0 -6.2,0 -9.7,0 -0.1,-1.4 -0.2,-2.9 -0.3,-4.7 -3.5,0 -6.9,0 -10.7,0 -0.1,1.4 -0.1,3 -0.2,4.7 -3.3,0 -6.4,0 -9.7,0 0,-1.5 0,-3.1 0,-4.8 1.5,0 3,0 4.6,0 0,-1.6 0,-3.1 0,-4.9 -6.4,-0.3 -12.9,0 -19.7,-0.2 0,1.7 0,3.1 0,4.9 1.5,0 3,0 4.7,0 0,1.8 0,3.2 0,4.9 -3.1,0 -6.2,0 -9.7,0 -0.1,-1.3 -0.2,-2.9 -0.3,-4.6 -3.1,0 -6.2,0 -9.7,0 -0.1,1.4 -0.2,3 -0.2,4.7 -3.6,0 -7,0 -10.7,0 0,-1.5 0,-3.1 0,-4.8 1.8,0 3.6,0 5.6,0 0,-1.6 0,-3.1 0,-4.9 -6.7,-0.3 -13.6,0 -20.7,-0.2 0,1.7 0,3.1 0,4.9 1.4,0 3,0 4.7,0 0,1.8 0,3.2 0,4.9 -3.2,0 -6.4,0 -9.8,0 0,-1.5 0,-3 0,-4.6 -3.3,0 -6.4,0 -9.9,0 -0.1,1.4 -0.2,3 -0.3,4.7 -3.2,0 -6.3,0 -9.7,0 0,-1.5 0,-3 0,-4.8 1.5,0 2.9,0 4.6,0 0,-1.7 0,-3.3 0,-5 -6.9,0 -13.7,0 -20.6,0 0,1.5 0,3 0,4.8 1.4,0.1 3,0.1 4.7,0.2 0,1.6 0,3 0,4.7 -3.2,0 -6.4,0 -9.8,0 0,-1.5 0,-3 0,-4.6 -3.3,0 -6.4,0 -9.9,0 -0.1,1.4 -0.2,2.9 -0.3,4.7 -3.2,0 -6.3,0 -9.6,0 0,-1.4 0,-3 0,-4.8 1.5,0 2.9,0 4.6,0 0,-1.7 0,-3.3 0,-5.1 -3.2,0 -6.3,0 -9.6,0 0,-1.6 0,-3.1 0,-4.9 3.1,0 6.3,0 9.7,0 0,-1.8 0,-3.2 0,-5.1 -1.5,0 -3.1,0 -4.7,0 0,-1.8 0,-3.3 0,-4.9 3.1,0 6.2,0 9.7,0 0.1,1.4 0.2,2.9 0.3,4.7 3.1,0 6.3,0 9.7,0 0.1,-1.4 0.1,-3 0.2,-4.7 3.3,0 6.4,0 9.7,0 0,1.5 0,3.1 0,4.8 -1.5,0 -3,0 -4.6,0 0,1.6 0,3.1 0,4.7 -0.1,-0.1 0.1,0.1 0.2,0.1 6.8,0 13.6,0 20.5,0 0,-1.5 0,-2.9 0,-4.8 -1.5,0 -3,0 -4.7,0 0,-1.8 0,-3.2 0,-4.9 3.1,0 6.2,0 9.7,0 0.1,1.3 0.2,2.9 0.3,4.6 3.1,0 6.2,0 9.7,0 0.1,-1.4 0.2,-3 0.2,-4.7 3.2,0 6.3,0 9.7,0 0,1.5 0,3.1 0,4.8 -1.5,0 -3,0 -4.6,0 0,1.6 0,3.1 0,4.9 6.7,0.3 13.6,0 20.7,0.2 0,-1.7 0,-3.1 0,-4.9 -1.8,0 -3.7,0 -5.7,0 0,-1.8 0,-3.3 0,-4.9 3.5,0 7.1,0 10.8,0 0,1.5 0,3 0,4.6 3.5,0.2 6.6,0.2 10.2,0.2 z"
     id="path68"
     style="fill:#8f5abb;fill-opacity:1" /><path
     class="st0"
     d="m 573.2,200.1 c 3.3,0 6.4,0 9.7,0 0,1.5 0,3 0,4.8 1.7,0 3.3,0 5,0 0,1.8 0,3.2 0,4.9 1.7,0 3.3,0 5,0 0,-1.5 0,-3 0,-4.6 1.6,0 3.1,0 4.8,0 0.1,-1.7 0.2,-3.3 0.3,-5 3.5,0 6.9,0 10.6,0 0,11.4 0,23 0,34.7 -3.4,0 -6.8,0 -10.6,0 0,-6.4 0,-13 0,-19.7 -1.8,0 -3.2,0 -5,0 0,1.5 0,3.1 0,4.7 -1.8,0 -3.2,0 -5,0 0,-1.5 0,-3.1 0,-4.8 -1.8,0 -3.2,0 -4.9,0 0,6.5 0,12.9 0,19.7 -1.7,0.1 -3.3,0.1 -4.9,0.2 -1.6,0 -3.3,0 -5.1,0 0.1,-11.6 0.1,-23.1 0.1,-34.9 z"
     id="path70"
     style="fill:#8f5abb;fill-opacity:1" /><path
     class="st0"
     d="m 614.2,200.1 c 3.3,0 6.4,0 9.7,0 0,1.5 0,3 0,4.8 1.7,0.1 3.3,0.2 5,0.2 0,1.6 0,3 0,4.7 1.7,0 3.3,0 5,0 0,-1.5 0,-3 0,-4.6 1.6,0 3.1,0 4.8,0 0.1,-1.7 0.2,-3.3 0.3,-5 3.1,0 6.3,0 9.6,0 0,11.4 0,23 0,34.7 -3,0 -6.2,0 -9.6,0 0,-6.4 0,-13 0,-19.7 -1.8,0 -3.2,0 -5,0 0,1.5 0,3 0,4.7 -1.8,0 -3.2,0 -5,0 0,-1.5 0,-3.1 0,-4.8 -1.8,0 -3.2,0 -4.9,0 0,6.5 0,12.9 0,19.7 -1.7,0.1 -3.3,0.1 -4.9,0.2 -1.6,0 -3.3,0 -5.1,0 0.1,-11.6 0.1,-23 0.1,-34.9 z"
     id="path72"
     style="fill:#8f5abb;fill-opacity:1" /><path
     class="st0"
     d="m 1051.8,215 c -1.6,0 -3.1,0 -4.7,0 0,1.6 0,3.1 0,4.9 1.5,0 3,0 4.7,0 0,3.5 0,6.6 0,9.9 -1.4,0 -2.9,0 -4.7,0 -0.1,1.7 -0.2,3.3 -0.3,5 -8.2,0 -16.3,0 -24.6,0 0,-11.4 0,-23 0,-34.7 8.1,0 16.2,0 24.7,0 0,1.5 0,3.1 0,4.8 1.8,0 3.3,0 4.9,0 0,3.4 0,6.5 0,10.1 z m -19.7,-0.2 c 3.5,0 6.6,0 9.7,0 0,-3.4 0,-6.6 0,-9.7 -3.4,0 -6.5,0 -9.7,0 0,3.3 0,6.4 0,9.7 z m 9.8,5.4 c -3.5,0 -6.6,0 -9.9,0 0,1.8 0,3.4 0,5.1 0,1.6 0.1,3.2 0.2,4.6 3.5,0 6.6,0 9.8,0 -0.1,-3.3 -0.1,-6.4 -0.1,-9.7 z"
     id="path74"
     style="fill:#8f5abb;fill-opacity:1" /><path
     class="st0"
     d="m 787,225.2 c 0,3.3 0,6.4 0,9.7 -3.3,0 -6.4,0 -9.7,0 0,-11.4 0,-23 0,-34.7 8,0 16.2,0 24.6,0 0.1,1.4 0.2,3 0.3,4.7 1.5,0 3,0 4.7,0 0,3.4 0,6.6 0,10 -1.5,0 -2.9,0 -4.7,0 0,1.7 0,3.3 0,5 -1.8,0 -3.2,0 -4.9,0 0,1.6 0,3.1 0,4.9 1.4,0.1 2.9,0.2 4.7,0.3 0,1.5 0,2.9 0,4.7 1.7,0.1 3.3,0.2 5,0.2 0,1.6 0,3 0,4.7 -3.2,0 -6.4,0 -9.8,0 0,-1.5 0,-2.9 0,-4.7 -1.7,0 -3.3,0 -5,0 0,-1.8 0,-3.2 0,-4.9 -1.8,0.1 -3.2,0.1 -5.2,0.1 z m 9.9,-20 c -3.5,0 -6.7,0 -9.9,0 0,1.8 0,3.4 0,5.1 0,1.6 0.1,3.2 0.2,4.6 3.5,0 6.6,0 9.8,0 -0.1,-3.3 -0.1,-6.4 -0.1,-9.7 z"
     id="path76"
     style="fill:#8f5abb;fill-opacity:1" /><path
     class="st0"
     d="m 562.8,230 c -1.6,0 -3.1,0 -4.7,0 0,1.6 0,3.1 0,4.8 -7.1,0 -14,0 -21.1,0 0,-1.5 0,-2.9 0,-4.7 -1.7,0 -3.3,0 -5,0 0,-8.5 0,-16.6 0,-24.9 1.5,0 3,0 4.8,0 0.1,-1.7 0.1,-3.3 0.2,-5 6.9,0 13.7,0 20.9,0 0,1.5 0,3.1 0,4.8 1.8,0 3.3,0 4.9,0 0,8.3 0,16.4 0,25 z m -20.6,-24.9 c 0,8.5 0,16.6 0,24.9 1.8,0 3.4,0 5.1,0 1.6,0 3.2,-0.1 4.6,-0.2 0,-8.5 0,-16.6 0,-24.7 -3.3,0 -6.4,0 -9.7,0 z"
     id="path78"
     style="fill:#8f5abb;fill-opacity:1" /><path
     class="st0"
     d="m 762,200.2 c 0,1.6 0,3.1 0,4.7 1.6,0 3.1,0 4.8,0 0,8.4 0,16.6 0,25.1 -1.5,0 -2.9,0 -4.7,0 0,1.7 0,3.3 0,5 -7.1,0 -13.9,0 -20.9,0 0,-1.5 0,-3 0,-4.8 -1.7,-0.1 -3.3,-0.1 -5,-0.2 0,-8.3 0,-16.4 0,-24.9 1.5,0 3.1,0 4.8,0 0,-1.8 0,-3.3 0,-4.9 6.9,0 13.7,0 21,0 z m -15.9,29.6 c 3.6,0 6.7,0 9.9,0 0,-8.1 0,-16.1 0,-24.1 0,-0.1 -0.1,-0.3 -0.2,-0.4 -0.1,-0.1 -0.2,-0.2 -0.2,-0.2 -3.3,0 -6.4,0 -9.6,0 0.1,8.4 0.1,16.5 0.1,24.7 z"
     id="path80"
     style="fill:#8f5abb;fill-opacity:1" /><path
     class="st0"
     d="m 680,200.2 c 0,1.6 0,3.1 0,4.7 1.6,0 3.1,0 4.8,0 0,8.4 0,16.6 0,25.1 -1.5,0 -2.9,0 -4.8,0 0,1.7 0,3.3 0,5 -6.8,0 -13.3,0 -19.9,0 0,-1.5 0,-3 0,-4.8 -2.1,0 -4,0 -6,0 0,-8.5 0,-16.6 0,-25.1 1.8,0 3.8,0 5.8,0 0,-1.8 0,-3.3 0,-4.9 6.7,0 13.1,0 20.1,0 z m -5.2,29.7 c 0,-8.6 0,-16.7 0,-24.9 -1.8,0 -3.5,0 -5.1,0 -1.6,0 -3.2,0.1 -4.6,0.2 0,8.5 0,16.6 0,24.7 3.4,0 6.5,0 9.7,0 z"
     id="path82"
     style="fill:#8f5abb;fill-opacity:1" /><path
     class="st0"
     d="m 1062.1,234.8 c 0,-8.3 0,-16.4 0,-24.7 1.9,0 3.7,0 5.8,0 0.1,-1.7 0.1,-3.3 0.2,-5.1 1.6,0 3,0 4.8,0 0,-1.7 0,-3.3 0,-5 3.5,0 6.6,0 9.9,0 0,1.5 0,2.9 0,4.7 1.7,0.1 3.3,0.2 5,0.3 0,1.5 0,2.9 0,4.7 1.7,0 3.3,0 5,0 0,8.5 0,16.6 0,24.9 -3.2,0 -6.4,0 -9.8,0 0,-4.8 0,-9.6 0,-14.6 -3.4,0 -6.6,0 -10,0 0,4.9 0,9.7 0,14.6 -3.6,0.2 -7,0.2 -10.9,0.2 z m 11,-20 c 3.6,0 6.7,0 10,0 -0.1,-1.7 -0.2,-3.3 -0.2,-4.7 -3.5,0 -6.6,0 -9.7,0 -0.1,1.7 -0.1,3.1 -0.1,4.7 z"
     id="path84"
     style="fill:#8f5abb;fill-opacity:1" /><path
     class="st0"
     d="m 721,224.8 c 0,2 0,3.4 0,5.1 -1.6,0 -3.1,0 -4.9,0 0,1.7 0,3.3 0,5 -7.1,0 -13.9,0 -20.9,0 0,-11.4 0,-22.9 0,-34.8 6.7,-0.1 13.6,0 20.7,-0.1 0,1.6 0,3.1 0,4.9 1.7,0.1 3.3,0.1 5.1,0.2 0,1.6 0,3 0,4.8 1.7,0 3.3,0 5,0 0,5.1 0,9.9 0,14.9 -1.6,0 -3,0 -5,0 z m -10,0 c 2,0 3.4,0 4.8,0 0,-5.1 0,-9.9 0,-15 -1.7,0 -3.2,0 -4.6,0 -0.1,-1.7 -0.2,-3.3 -0.3,-4.7 -2.1,0 -3.9,0 -5.6,0 0,8.4 0,16.6 0,24.7 2,0 3.8,0 5.7,0 0,-1.6 0,-3 0,-5 z"
     id="path86"
     style="fill:#8f5abb;fill-opacity:1" /><path
     class="st0"
     d="m 903.8,200.1 c 7.3,0 14.1,0 21,0 0,1.5 0,3 0,4.8 1.7,0.1 3.3,0.2 5,0.2 0,1.6 0,3 0,4.7 -3.2,0 -6.4,0 -9.8,0 0,-1.5 0,-2.9 0,-4.6 -3.7,0 -7.3,0 -11,0 0,3.2 0,6.3 0,9.6 5.1,0 10.3,0 15.7,0 0.1,1.7 0.2,3.3 0.3,5 1.5,0 2.9,0 4.6,0 0,3.4 0,6.6 0,10 -1.4,0 -2.9,0 -4.7,0 0,1.7 0,3.3 0,5 -7.1,0 -13.9,0 -21,0 0,-1.5 0,-3.1 0,-4.8 -1.8,0 -3.2,0 -4.9,0 0,-8.4 0,-16.6 0,-25 1.6,0 3,0 4.6,0 0.2,-1.6 0.2,-3 0.2,-4.9 z m 16,29.8 c 0,-3.6 0,-6.7 0,-9.9 -2,0 -3.8,0 -5.6,0 -1.8,0 -3.5,0.1 -5.1,0.1 0,3.5 0,6.6 0,9.8 3.7,0 7.1,0 10.7,0 z"
     id="path88"
     style="fill:#8f5abb;fill-opacity:1" /><path
     class="st0"
     d="m 1266.2,200.1 c 3.6,0 7.1,0 10.7,0 0,8.2 0,16.3 0,24.7 3.4,0 6.6,0 10,0 0,-8.1 0,-16.2 0,-24.5 3.4,0 6.6,0 10,0 0,8.2 0,16.3 0,24.7 -1.5,0 -3.1,0 -4.9,0 0,1.8 0,3.3 0,4.9 -1.6,0 -3.1,0 -4.9,0 -0.1,1.7 -0.2,3.3 -0.3,5 -3.2,0 -6.3,0 -9.8,0 0,-1.5 0,-3 0,-4.8 -1.8,0 -3.3,0 -5.1,0 0,-1.7 0,-3.3 0,-5.1 -2.1,0 -3.9,0 -5.9,0 0.2,-8.3 0.2,-16.4 0.2,-24.9 z"
     id="path90"
     style="fill:#8f5abb;fill-opacity:1" /><path
     class="st0"
     d="m 950.1,215.1 c -0.1,-1.6 -0.1,-3.1 -0.1,-5 1.5,-0.1 3.1,-0.2 4.9,-0.3 0,-1.5 0,-2.9 0,-4.7 1.7,-0.1 3.3,-0.1 5,-0.2 0,-1.6 0,-3 0,-4.7 3.7,0 7.3,0 11,0 0,6.5 0,12.9 0,19.7 1.7,0 3.3,0 5,0 0,1.8 0,3.2 0,5 -1.6,0 -3.1,0 -4.9,0 0,3.5 0,6.6 0,9.9 -3.6,0 -7,0 -10.8,0 -0.5,-3 0,-6.3 -0.3,-9.7 -6.5,0 -12.9,0 -19.7,0 -0.1,-1.7 -0.1,-3.3 -0.2,-4.9 0,-1.6 0,-3.3 0,-5.1 3.4,0.1 6.7,0.1 10.1,0 0.1,1.5 0.1,3.1 0.1,4.6 3.4,0 6.6,0 9.7,0 0,-1.7 0,-3.1 0,-4.7 -3.4,0.1 -6.6,0.1 -9.8,0.1 z"
     id="path92"
     style="fill:#8f5abb;fill-opacity:1" /><path
     class="st0"
     d="m 1103,229.8 c 0,-1.7 0,-3 0,-4.4 0.1,-0.1 0.2,-0.3 0.4,-0.3 3.1,0 6.2,0 9.5,0 0,1.5 0,2.9 0,4.6 3.7,0 7.3,0 11,0 0,-3.1 0,-6.3 0,-9.7 -5.2,0 -10.4,0 -15.8,0 0,-1.8 0,-3.2 0,-4.9 -1.6,0 -3.1,0 -4.4,0 -0.3,-0.3 -0.5,-0.4 -0.5,-0.5 0,-3.1 0,-6.2 0,-9.5 1.5,0 2.9,0 4.7,0 0,-1.7 0,-3.3 0,-5 7.1,0 13.9,0 21,0 0,1.5 0,3.1 0,4.8 1.8,0 3.3,0 4.9,0 0,1.6 0,3.1 0,4.7 0.1,-0.1 -0.1,0.2 -0.2,0.2 -3.1,0 -6.2,0 -9.5,0 0,-1.5 0,-2.9 0,-4.6 -3.7,0 -7.3,0 -11,0 0,3.1 0,6.3 0,9.7 5.2,0 10.4,0 15.8,0 0,1.8 0,3.2 0,4.9 1.6,0 3.1,0 4.4,0 0.3,0.3 0.5,0.4 0.5,0.5 0,3.1 0,6.2 0,9.5 -1.5,0 -2.9,0 -4.7,0 0,1.7 0,3.3 0,5 -7.1,0 -13.9,0 -21,0 0,-1.5 0,-3.1 0,-4.7 -2,-0.1 -3.5,-0.2 -5.1,-0.3 z"
     id="path94"
     style="fill:#8f5abb;fill-opacity:1" /><path
     class="st0"
     d="m 828.2,215 c 3.3,0 6.4,0 9.7,0 0,1.6 0,3.1 0,4.9 -3.1,0 -6.4,0 -9.7,0 0,3.5 0,6.6 0,9.9 6.4,0 12.9,0 19.7,0 0.1,1.7 0.1,3.3 0.2,5 -10,0 -19.8,0 -29.8,0 0,-11.4 0,-23 0,-34.7 9.8,0 19.6,0 29.6,0 0,1.5 0,3.1 0,4.8 -6.5,0 -13,0 -19.6,0 -0.1,3.4 -0.1,6.5 -0.1,10.1 z"
     id="path96"
     style="fill:#8f5abb;fill-opacity:1" /><path
     class="st0"
     d="m 511.8,225.1 c 3.6,0 6.8,0 10,0 0,1.5 0,3 0,4.8 -1.4,0 -3,0 -4.8,0 0,1.8 0,3.2 0,4.9 -7.1,0 -14,0 -21,0 0,-1.5 0,-3 0,-4.8 -1.7,0 -3.3,0 -5,0 0,-8.5 0,-16.6 0,-24.9 1.5,0 2.9,0 4.7,0 0.1,-1.7 0.2,-3.3 0.3,-5 6.8,0 13.6,0 20.7,0 0.1,1.4 0.2,3 0.3,4.7 1.5,0 3,0 4.7,0 0,1.7 0,3.3 0,5 -3.1,0 -6.3,0 -9.7,0 0,-1.5 0,-3.1 0,-4.8 -3.8,0 -7.2,0 -10.9,0 0,8.3 0,16.5 0,24.8 3.6,0 7,0 10.6,0 0.1,-1.4 0.1,-2.8 0.1,-4.7 z"
     id="path98"
     style="fill:#8f5abb;fill-opacity:1" /><path
     class="st0"
     d="m 1195.2,229.9 c 3.3,0 6.4,0 9.7,0 0,-1.5 0,-3 0,-4.7 3.4,0 6.6,0 10,0 0,1.4 0,2.9 0,4.7 -1.5,0 -3.1,0 -4.8,0 0,1.8 0,3.2 0,4.9 -6.7,0 -13.3,0 -20,0 0,-1.5 0,-3 0,-4.6 -1.6,0 -3.1,0 -4.4,0 -0.3,-0.4 -0.6,-0.7 -0.6,-0.9 0,-8 0,-15.9 0,-24.1 1.6,0 3,0 4.8,0 0.1,-1.7 0.2,-3.3 0.3,-5 6.5,0 13,0 19.8,0 0.1,1.4 0.1,3 0.2,4.8 1.6,0 3,0 4.7,0 0,1.7 0,3.3 0,5 -3.2,0 -6.3,0 -9.8,0 0,-1.6 0,-3.1 0,-4.8 -3.5,0 -6.6,0 -9.9,0 0,8.1 0,16.2 0,24.7 z"
     id="path100"
     style="fill:#8f5abb;fill-opacity:1" /><path
     class="st0"
     d="m 1149.1,234.8 c 0,-1.6 0,-3.1 0,-4.7 1.5,0 3,0 4.7,0 0,-8.4 0,-16.6 0,-25.1 -1.5,0 -2.9,0 -4.6,0 0,-1.7 0,-3.3 0,-5 6.9,0 13.7,0 20.6,0 0,1.5 0,3 0,4.8 -1.8,0 -3.7,0 -5.7,0 0,8.5 0,16.6 0,25.1 1.8,0 3.8,0 5.8,0 0,1.8 0,3.3 0,4.9 -6.8,0 -13.6,0 -20.8,0 z"
     id="path102"
     style="fill:#8f5abb;fill-opacity:1" /><path
     class="st0"
     d="m 1323,219.8 c 0,-1.3 0,-2.8 0,-4.7 1.5,-0.1 3.1,-0.2 4.8,-0.3 0,-3.2 0,-6.3 0,-9.6 -3.4,0 -7,0 -10.7,0 0,1.4 0,2.8 0,4.5 -3.4,0 -6.6,0 -10,0 0,-1.4 0,-2.9 0,-4.7 1.5,0 3.1,0 4.8,0 0,-1.8 0,-3.2 0,-4.9 7.1,0 13.9,0 21,0 0,1.5 0,3 0,4.8 1.7,0 3.3,0 5,0 0,3.5 0,6.6 0,9.9 -1.5,0 -2.9,0 -4.7,0 -0.1,1.7 -0.2,3.3 -0.3,5 -3.3,0 -6.6,0 -9.9,0 z"
     id="path104"
     style="fill:#8f5abb;fill-opacity:1" /><path
     class="st0"
     d="m 1323,220.2 c 0,1.3 0,2.8 0,4.7 -1.9,0.1 -3.8,0.2 -5.8,0.3 0,1.5 0,3 0,4.8 6.8,0 13.7,0 20.7,0 0,1.8 0,3.2 0,4.9 -10.2,0 -20.4,0 -30.7,0 0,-3.2 0,-6.3 0,-9.7 1.5,0 3.1,0 4.9,0 0,-1.8 0,-3.3 0,-4.9 3.7,-0.1 7.3,-0.1 10.9,-0.1 z"
     id="path106"
     style="fill:#8f5abb;fill-opacity:1" /></g>
</svg>
