<?xml version="1.0" encoding="UTF-8" standalone="no"?>
<!-- Generator: Adobe Illustrator 25.0.0, SVG Export Plug-In . SVG Version: 6.00 Build 0)  -->

<svg
   version="1.1"
   id="Layer_1"
   x="0px"
   y="0px"
   viewBox="0 0 384 366"
   xml:space="preserve"
   sodipodi:docname="CBMAvatar-Snow.svg"
   width="384"
   height="366"
   inkscape:version="1.2.2 (b0a8486541, 2022-12-01)"
   xmlns:inkscape="http://www.inkscape.org/namespaces/inkscape"
   xmlns:sodipodi="http://sodipodi.sourceforge.net/DTD/sodipodi-0.dtd"
   xmlns="http://www.w3.org/2000/svg"
   xmlns:svg="http://www.w3.org/2000/svg"><defs
   id="defs1512" /><sodipodi:namedview
   id="namedview1510"
   pagecolor="#505050"
   bordercolor="#ffffff"
   borderopacity="1"
   inkscape:showpageshadow="0"
   inkscape:pageopacity="0"
   inkscape:pagecheckerboard="1"
   inkscape:deskcolor="#505050"
   showgrid="false"
   inkscape:zoom="0.7321875"
   inkscape:cx="9.5603927"
   inkscape:cy="10.926163"
   inkscape:window-width="1536"
   inkscape:window-height="923"
   inkscape:window-x="0"
   inkscape:window-y="0"
   inkscape:window-maximized="1"
   inkscape:current-layer="Layer_1" />
<style
   type="text/css"
   id="style1497">
	.st0{fill:#104EA4;}
	.st1{fill:#AC465C;}
	.st2{fill:#3B3844;}
</style>




<g
   id="g458"
   transform="matrix(15.999999,0,0,17.428571,-15.348552,-16.094515)"><path
     class="st0"
     d="m 24.959286,16.323456 c 0,0.311111 0,0.622222 0,0.933333 -3.304398,0 -6.608796,0 -9.933889,0 0,1.563333 0,3.118889 0,4.666667 -3.311297,0 -6.622593,0 -9.9338891,0 0,-0.311111 0,-0.614445 0,-0.933334 -0.2828399,0 -0.5449842,0 -0.8278241,0 0,-0.318889 0,-0.622222 0,-0.933333 -0.2828399,0 -0.5449842,0 -0.8278241,0 0,-0.318889 0,-0.622222 0,-0.933333 -0.2828399,0 -0.5449841,0 -0.827824,0 0,-0.318889 0,-0.622223 0,-0.933334 -0.28284,0 -0.5449843,0 -0.8209256,0 0,-0.163333 0,-0.318889 0,-0.474444 0,-0.147778 -0.0069,-0.303333 -0.0069,-0.451111 -0.2897384,0 -0.5587813,0 -0.82092555,0 0,-3.422222 0,-6.844445 0,-10.2666668 0.26904285,0 0.54498415,0 0.83472265,0 0,-0.3266667 0,-0.6222222 0,-0.9333333 0.1586662,0 0.2966369,0 0.4277091,0 0.1310721,0 0.2690428,0.015555 0.3932164,-0.015555 0,-0.1633334 0,-0.3033334 0,-0.4433334 0,-0.1555556 0,-0.3111111 0,-0.4666667 0.2759414,0 0.5449842,0 0.8278241,0 0,-0.1788888 0,-0.3344444 0,-0.49 0,-0.1477777 -0.013797,-0.3033333 0.020696,-0.4588888 0.2759414,0 0.5380857,0 0.8071284,0 0,-0.3111111 0,-0.6066667 0,-0.9255556 0.28284,0 0.5518827,0 0.8278242,0 0,-0.3188889 0,-0.6144445 0,-0.9255556 3.0422538,0 6.0707096,0 9.0991666,0 0.269043,0 0.544984,0 0.827824,0 0,0.9488889 0,1.8744445 0,2.8 0,0.6222223 0,1.2444445 0,1.8666667 -0.275942,0 -0.551883,0 -0.827824,0 -1.924691,0 -3.856281,0 -5.7947688,0 0,0.1788889 0,0.3344445 0,0.4822222 0,0.1477778 -0.0069,0.3033334 -0.0069,0.4588889 -0.2897387,0 -0.5518827,0 -0.8209261,0 0,0.3111111 0,0.6066667 0,0.9255553 -0.2828399,0 -0.5518827,0 -0.814027,0 0,2.1855561 0,4.3477781 0,6.5333341 0.2759414,0 0.5449843,0 0.8278241,0 0,0.318889 0,0.614443 0,0.94111 0.2828403,0 0.5518831,0 0.834723,0 0,0.318889 0,0.614445 0,0.91 1.1382582,0.05444 5.4843348,0.03111 5.7947688,-0.03111 0,-1.532222 0,-3.072223 0,-4.612222 1.152055,-0.05444 7.133084,-0.03111 7.450417,0.03111 0,0.295555 0,0.583333 0,0.894444 0.275941,0 0.531187,0 0.820925,0 0,0.31889 0,0.622223 0,0.941112 0.28284,0 0.544984,0 0.834723,0 0,0.31889 0,0.622221 0,0.941111 0.28284,0 0.544984,0 0.820926,0 0,0.163334 0,0.318889 0,0.474444 0,0.147778 0.0069,0.303334 0.0069,0.451111 0.275942,-0.02333 0.544985,-0.02333 0.807129,-0.02333 z"
     id="path1499"
     style="fill:#104ea5;fill-opacity:1;stroke-width:0.0732499" /><path
     class="st1"
     d="m 24.131461,6.9901225 c 0.275942,0 0.551883,0 0.827825,0 0,0.311111 0,0.6222221 0,0.9333333 -0.262144,0 -0.531187,0 -0.820926,0 0,0.1477778 -0.0069,0.2955555 -0.0069,0.4511111 0,0.1555556 0,0.3033333 0,0.4744446 -0.275941,0 -0.538085,0 -0.820926,0 0,0.318889 0,0.6222217 0,0.9411107 -0.28284,0 -0.544984,0 -0.834722,0 0,0.3188888 0,0.6222228 0,0.9411118 -0.28284,0 -0.544984,0 -0.820926,0 0,0.311111 0,0.598889 0,0.917778 -2.490371,0 -4.966944,0 -7.464214,0 0,-1.547778 0,-3.0955562 0,-4.6511118 0.275942,0 0.551883,0 0.827825,0 3.042253,-0.00778 6.077608,-0.00778 9.112963,-0.00778 z"
     id="path1501"
     style="fill:#ad465c;fill-opacity:1;stroke-width:0.0732499" /><path
     class="st2"
     d="m 13.369748,0.9234558 c 0,0.14 0,0.2877778 0,0.4666667 0.269043,0.00778 0.538086,0 0.827825,0.00778 0,0.318889 0,0.6222222 0,0.9333334 -3.028457,0 -6.056913,0 -9.0991666,0 0,0.3111111 0,0.6066667 0,0.9255555 -0.2828399,0 -0.5518827,0 -0.8278241,0 0,0.3188889 0,0.6144445 0,0.9255555 -0.2690428,0 -0.5311871,0 -0.8071284,0 -0.034493,0.1555556 -0.020696,0.3111112 -0.020696,0.458889 0,0.1555556 0,0.3111111 0,0.49 -0.2828399,0 -0.5518827,0 -0.8278242,0 0,-0.4588889 0,-0.9255556 0,-1.4155556 0.2897385,0 0.5587813,0 0.8416212,0 0,-0.4744445 0,-0.9255556 0,-1.4 0.2828399,0 0.5518827,0 0.8278241,0 0,-0.3188889 0,-0.6144444 0,-0.9177778 0.1448692,0 0.2828399,0 0.4208106,0 0.1310721,0 0.2690428,-0.00778 0.4001149,-0.00778 0,-0.1711111 0,-0.3188889 0,-0.45888892 2.7456168,-0.007778 5.5050305,-0.007778 8.2644435,-0.007778 z"
     id="path1503"
     style="fill:#ffffff;fill-opacity:1;stroke-width:0.0732499" /><path
     class="st2"
     d="m 24.131461,6.9901225 c -3.035354,0 -6.070709,0 -9.106064,0 0,-0.6222223 0,-1.2444445 0,-1.8666667 0.262144,0 0.524288,0 0.814027,0 0.0069,0.1477778 0.0138,0.2955555 0.0207,0.4588889 2.200632,0 4.394365,0 6.601896,0 0,0.1555556 0,0.2955556 0,0.4588889 0.551883,0 1.096868,0 1.669445,0 0,0.3344444 0,0.6455555 0,0.9488889 z"
     id="path1505"
     style="fill:#ffffff;fill-opacity:1;stroke-width:0.0732499" /><path
     class="st2"
     d="m 2.6080357,5.5901224 c -0.2621443,0 -0.5242886,0 -0.8071286,0 0,-0.1477777 0,-0.2955555 0,-0.4666666 0.2621443,0 0.5380857,0 0.8071286,0 0,0.1555555 0,0.3111111 0,0.4666666 z"
     id="path1507"
     style="fill:#ffffff;fill-opacity:1;stroke-width:0.0732499" /></g>
</svg>
