<?xml version="1.0" encoding="UTF-8" standalone="no"?>
<!-- Created with Inkscape (http://www.inkscape.org/) -->

<svg
   width="384"
   height="366"
   viewBox="0 0 101.6 96.8375"
   version="1.1"
   id="svg5923"
   inkscape:version="1.2.2 (b0a8486541, 2022-12-01)"
   sodipodi:docname="CBMAvatar-Computer4.svg"
   xmlns:inkscape="http://www.inkscape.org/namespaces/inkscape"
   xmlns:sodipodi="http://sodipodi.sourceforge.net/DTD/sodipodi-0.dtd"
   xmlns="http://www.w3.org/2000/svg"
   xmlns:svg="http://www.w3.org/2000/svg">
  <sodipodi:namedview
     id="namedview5925"
     pagecolor="#505050"
     bordercolor="#ffffff"
     borderopacity="1"
     inkscape:showpageshadow="0"
     inkscape:pageopacity="0"
     inkscape:pagecheckerboard="1"
     inkscape:deskcolor="#505050"
     inkscape:document-units="px"
     showgrid="false"
     inkscape:zoom="4.4319067"
     inkscape:cx="18.502195"
     inkscape:cy="72.203686"
     inkscape:window-width="1536"
     inkscape:window-height="923"
     inkscape:window-x="0"
     inkscape:window-y="0"
     inkscape:window-maximized="1"
     inkscape:current-layer="layer1" />
  <defs
     id="defs5920">
    <pattern
       id="EMFhbasepattern"
       patternUnits="userSpaceOnUse"
       width="6"
       height="6"
       x="0"
       y="0" />
  </defs>
  <g
     inkscape:label="Layer 1"
     inkscape:groupmode="layer"
     id="layer1">
    <g
       id="g6570"
       transform="matrix(2.9983982,0,0,2.1782899,-0.045931,-0.00113747)">
      <rect
         style="fill:#ffffff;stroke-width:0.264611"
         id="rect6439"
         width="25.342737"
         height="2.2242084"
         x="4.2950978"
         y="0.00052218582" />
      <rect
         style="fill:#ffffff;stroke-width:0.278645"
         id="rect6437"
         width="33.830723"
         height="16.840418"
         x="0.03997511"
         y="2.1607006" />
      <path
         style="fill:#5795eb;fill-opacity:1;fill-rule:nonzero;stroke:none;stroke-width:0.264583"
         d="m 12.733471,6.3793653 c -2.7340205,0 -5.556251,0 -8.378471,0 0,-0.6173601 0,-1.3229201 0,-2.1166701 2.73403,0 5.5562505,0 8.378471,0 2.82223,0 5.644449,0 8.466669,0 2.73403,0 5.55625,0 8.37847,0 0,0.61737 0,1.32292 0,2.1166701 -2.73403,0 -5.556249,0 -8.37847,0 -2.82222,0 -5.644439,0 -8.466669,0 z"
         id="path6221-5" />
      <path
         style="fill:#76ba61;fill-opacity:1;fill-rule:nonzero;stroke:none;stroke-width:0.264583"
         d="m 0.03340683,38.106268 c 0,-3.52778 0,-7.05556 0,-10.58333 11.28889017,0 22.57778017,0 33.86667017,0 0,3.52777 0,7.05555 0,10.58333 -11.28889,0 -22.57778,0 -33.86667017,0 z"
         id="path6199" />
      <path
         style="fill:#76ba61;fill-opacity:1;fill-rule:nonzero;stroke:none;stroke-width:0.264583"
         d="m 33.900077,40.222938 c 0,1.41111 0,2.82222 0,4.23333 -11.28889,0 -22.57778,0 -33.86667017,0 0,-1.41111 0,-2.82222 0,-4.23333 11.28889017,0 22.57778017,0 33.86667017,0 z"
         id="path6203" />
      <path
         style="fill:#104ea4;fill-opacity:1;fill-rule:nonzero;stroke:none;stroke-width:0.264583"
         d="m 33.900077,27.522938 c -11.28889,0 -22.57778,0 -33.86667017,0 0,-0.70556 0,-1.41112 0,-2.11667 2.82222997,0 5.64444997,0 8.46666997,0 1.41111,0 2.8222202,0 4.2333302,0 1.41112,0 2.82223,0 4.23334,0 1.41111,0 2.82222,0 4.23333,0 1.41111,0 2.82222,0 4.23333,0 1.41111,0 2.82223,0 4.23334,0 1.41111,0 2.82222,0 4.23333,0 0,0.70555 0,1.41111 0,2.11667 z"
         id="path6207" />
      <path
         style="fill:#5795eb;fill-opacity:1;fill-rule:nonzero;stroke:none;stroke-width:0.264583"
         d="m 33.900077,40.222938 c -11.28889,0 -22.57778,0 -33.86667017,0 0,-0.70556 0,-1.41112 0,-2.11667 11.28889017,0 22.57778017,0 33.86667017,0 0,0.70555 0,1.41111 0,2.11667 z"
         id="path6209" />
      <path
         style="fill:#5795eb;fill-opacity:1;fill-rule:nonzero;stroke:none;stroke-width:0.264583"
         d="m 8.5000768,25.406268 c -2.82222,0 -5.64444,0 -8.46666997,0 0,-1.41111 0,-2.82222 0,-4.23334 2.82222997,0 5.64444997,0 8.46666997,0 0,1.41112 0,2.82223 0,4.23334 z"
         id="path6211" />
      <path
         style="fill:#5795eb;fill-opacity:1;fill-rule:nonzero;stroke:none;stroke-width:0.264583"
         d="m 33.900077,25.406268 c -1.41111,0 -2.82222,0 -4.23333,0 0,-1.41111 0,-2.82222 0,-4.23334 1.41111,0 2.82222,0 4.23333,0 0,1.41112 0,2.82223 0,4.23334 z"
         id="path6213" />
      <path
         style="fill:#5795eb;fill-opacity:1;fill-rule:nonzero;stroke:none;stroke-width:0.264583"
         d="m 12.733407,10.589598 c -2.7340202,0 -5.5562502,0 -8.3784702,0 0,-0.6173601 0,-1.3229201 0,-2.1166701 2.73403,0 5.55625,0 8.3784702,0 2.82223,0 5.64445,0 8.46667,0 2.73403,0 5.55625,0 8.37847,0 0,0.61737 0,1.32292 0,2.1166701 -2.73403,0 -5.55625,0 -8.37847,0 -2.82222,0 -5.64444,0 -8.46667,0 z"
         id="path6221" />
      <path
         style="fill:#5795eb;fill-opacity:1;fill-rule:nonzero;stroke:none;stroke-width:0.264583"
         d="m 21.200077,12.706268 c 2.73403,0 5.55625,0 8.37847,0 0,0.61736 0,1.32291 0,2.11666 -2.73403,0 -5.55625,0 -8.37847,0 -2.82222,0 -5.64444,0 -8.46667,0 -2.7340202,0 -5.5562502,0 -8.3784702,0 0,-0.61736 0,-1.32291 0,-2.11666 2.73403,0 5.55625,0 8.3784702,0 2.82223,0 5.64445,0 8.46667,0 z"
         id="path6223" />
      <path
         style="fill:#5795eb;fill-opacity:1;fill-rule:nonzero;stroke:none;stroke-width:0.264583"
         d="m 21.311869,16.974 c 2.73403,0 5.55625,0 8.37847,0 0,0.61736 0,1.32291 0,2.11666 -2.73403,0 -5.55625,0 -8.37847,0 -2.82222,0 -5.64444,0 -8.466671,0 -2.73402,0 -5.5562485,0 -8.3784688,0 0,-0.61736 0,-1.32291 0,-2.11666 2.7340303,0 5.5562498,0 8.3784688,0 2.822231,0 5.644451,0 8.466671,0 z"
         id="path6223-6" />
      <path
         style="fill:#104ea4;fill-opacity:1;fill-rule:nonzero;stroke:none;stroke-width:0.264583"
         d="m 21.200077,8.4729279 c -2.82222,0 -5.64444,0 -8.46667,0 0,-0.70555 0,-1.41111 0,-2.11666 2.82223,0 5.64445,0 8.46667,0 0,0.70555 0,1.41111 0,2.11666 z"
         id="path6227" />
      <path
         style="fill:#104ea4;fill-opacity:1;fill-rule:nonzero;stroke:none;stroke-width:0.264583"
         d="m 21.200077,12.706268 c -2.82222,0 -5.64444,0 -8.46667,0 0,-0.70556 0,-1.41111 0,-2.11667 2.82223,0 5.64445,0 8.46667,0 0,0.70556 0,1.41111 0,2.11667 z"
         id="path6229" />
      <path
         style="fill:#104ea4;fill-opacity:1;fill-rule:nonzero;stroke:none;stroke-width:0.264583"
         d="m 21.200077,16.939598 c -2.82222,0 -5.64444,0 -8.46667,0 0,-0.70555 0,-1.41111 0,-2.11667 2.82223,0 5.64445,0 8.46667,0 0,0.70556 0,1.41112 0,2.11667 z"
         id="path6231" />
      <path
         style="fill:#104ea4;fill-opacity:1;fill-rule:nonzero;stroke:none;stroke-width:0.264583"
         d="m 21.19967,4.27166 c -2.82222,0 -5.64444,0 -8.46667,0 0,-0.70555 0,-1.41111 0,-2.11666 2.82223,0 5.64445,0 8.46667,0 0,0.70555 0,1.41111 0,2.11666 z"
         id="path6227-3" />
      <path
         style="fill:#fefefe;fill-opacity:1;fill-rule:nonzero;stroke:none;stroke-width:0.264583"
         d="m 8.5000768,25.406268 c 0,-1.41111 0,-2.82222 0,-4.23334 1.41111,0 2.8222202,0 4.2333302,0 0,1.41112 0,2.82223 0,4.23334 -1.41111,0 -2.8222202,0 -4.2333302,0 z"
         id="path6235" />
      <path
         style="fill:#5795eb;fill-opacity:1;fill-rule:nonzero;stroke:none;stroke-width:0.264583"
         d="m 12.733407,25.406268 c 0,-1.41111 0,-2.82222 0,-4.23334 1.41112,0 2.82223,0 4.23334,0 0,1.41112 0,2.82223 0,4.23334 -1.41111,0 -2.82222,0 -4.23334,0 z"
         id="path6237" />
      <path
         style="fill:#fefefe;fill-opacity:1;fill-rule:nonzero;stroke:none;stroke-width:0.264583"
         d="m 16.966747,25.406268 c 0,-1.41111 0,-2.82222 0,-4.23334 1.41111,0 2.82222,0 4.23333,0 0,1.41112 0,2.82223 0,4.23334 -1.41111,0 -2.82222,0 -4.23333,0 z"
         id="path6239" />
      <path
         style="fill:#5795eb;fill-opacity:1;fill-rule:nonzero;stroke:none;stroke-width:0.264583"
         d="m 21.200077,25.406268 c 0,-1.41111 0,-2.82222 0,-4.23334 1.41111,0 2.82222,0 4.23333,0 0,1.41112 0,2.82223 0,4.23334 -1.41111,0 -2.82222,0 -4.23333,0 z"
         id="path6241" />
      <path
         style="fill:#fefefe;fill-opacity:1;fill-rule:nonzero;stroke:none;stroke-width:0.264583"
         d="m 25.433407,25.406268 c 0,-1.41111 0,-2.82222 0,-4.23334 1.41111,0 2.82223,0 4.23334,0 0,1.41112 0,2.82223 0,4.23334 -1.41111,0 -2.82223,0 -4.23334,0 z"
         id="path6243" />
      <path
         style="fill:#104ea4;fill-opacity:1;fill-rule:nonzero;stroke:none;stroke-width:0.264583"
         d="m 33.881989,21.108875 c -11.28889,0 -22.57778,0 -33.86667049,0 0,-0.70556 0,-1.41112 0,-2.11667 2.82222999,0 5.64444999,0 8.46666999,0 1.41111,0 2.8222205,0 4.2333305,0 1.41112,0 2.82223,0 4.23334,0 1.41111,0 2.82222,0 4.23333,0 1.41111,0 2.82222,0 4.23333,0 1.41111,0 2.82223,0 4.23334,0 1.41111,0 2.82222,0 4.23333,0 0,0.70555 0,1.41111 0,2.11667 z"
         id="path6207-7" />
    </g>
  </g>
</svg>
