<?xml version="1.0" encoding="UTF-8" standalone="no"?>
<!-- Generator: Adobe Illustrator 25.0.0, SVG Export Plug-In . SVG Version: 6.00 Build 0)  -->

<svg
   version="1.1"
   id="Layer_1"
   x="0px"
   y="0px"
   viewBox="0 0 239.39999 208.35368"
   xml:space="preserve"
   sodipodi:docname="1.svg"
   width="239.39999"
   height="208.35368"
   inkscape:version="1.2.2 (b0a8486541, 2022-12-01)"
   xmlns:inkscape="http://www.inkscape.org/namespaces/inkscape"
   xmlns:sodipodi="http://sodipodi.sourceforge.net/DTD/sodipodi-0.dtd"
   xmlns="http://www.w3.org/2000/svg"
   xmlns:svg="http://www.w3.org/2000/svg"><defs
   id="defs97" /><sodipodi:namedview
   id="namedview95"
   pagecolor="#505050"
   bordercolor="#ffffff"
   borderopacity="1"
   inkscape:showpageshadow="0"
   inkscape:pageopacity="0"
   inkscape:pagecheckerboard="1"
   inkscape:deskcolor="#505050"
   showgrid="false"
   inkscape:zoom="1.5733333"
   inkscape:cx="155.08475"
   inkscape:cy="156.35593"
   inkscape:window-width="1536"
   inkscape:window-height="923"
   inkscape:window-x="0"
   inkscape:window-y="0"
   inkscape:window-maximized="1"
   inkscape:current-layer="Layer_1" />
<style
   type="text/css"
   id="style2">
	.st0{fill:#FE0000;}
	.st1{fill:#657CF5;}
	.st2{fill:#ED7867;}
	.st3{fill:#FEEF74;}
	.st4{fill:#2337AA;}
	.st5{fill:#5ED4E5;}
</style>

<path
   class="st1"
   d="m 47.7,200.19842 c -5.2,0 -10.3,0 -15.9,0 -0.1,-6.6 0,-13.2 0,-19.8 0,-6.6 0,-13.3 0,-20.1 -5.3,0 -10.4,0 -15.9,0 0,-2.7 0,-5.3 0,-8 -5.5,0 -10.6,0 -15.9,0 0,-5.4 0,-10.6 0,-16 5.2,0 10.3,0 15.6,0 0,-2.6 0,-5.1 0,-8 2.7,-0.2 5.3,-0.1 7.9,-0.1 2.6,0 5.3,0 8.1,0 0,-7.9 0,-15.7 0,-23.9 5.4,0 10.6,0 16,0 0,-5.500004 0,-10.600004 0,-16.000004 5.4,0 10.6,0 16,0 0,-2.8 0,-5.2 0,-8 5.4,0 10.6,0 16,0 0,-2.8 0,-5.3 0,-8 2.8,0 5.4,0 8,0 0,2.6 0,5.2 0,8.2 2.9,0 5.5,0 7.8,0 0,2.8 0,5.2 0,8 -2.7,0 -5.3,0 -7.8,0 0,2.8 0,5.3 0,7.8 -2.6,0 -5.2,0 -8.1,0 0,2.8 0,5.400004 0,8.100004 -2.8,0 -5.2,0 -7.9,0 0,2.7 0,5.3 0,7.9 -5.2,0 -10.5,0 -16,0 0,2.8 0,5.4 0,8 -5.2,0 -10.5,0 -16,0 0,2.8 0,5.4 0,8 0,2.7 0,5.3 0,8 0,2.6 0,5.2 0,8 5.5,0 10.8,0 16,0 0,2.6 0,5.2 0,8 2.8,0 5.4,0 8,0 0,2.6 0,5.2 0,8 5.5,0 10.8,0 16,0 0,5.3 0,10.6 0,16.2 -2.9,0 -5.5,0 -8,0 0,2.8 0,5.3 0,7.8 -5.2,0 -10.5,0 -16,0 0,2.8 0,5.4 0,8 -2.6,0 -5.2,0 -8,0 0.1,2.7 0.1,5.3 0.1,7.9 z"
   id="path6" />
<path
   class="st2"
   d="m 167.7,56.198416 c 0,2.5 0,5 0,7.8 -2.5,0.4 -5.2,0.1 -7.8,0.1 -2.6,0 -5.3,0 -8.2,0 0,2.8 0,5.4 0,8 0,2.7 0,5.3 0,8 -5.3,0 -10.6,0 -16.2,0 0,2.9 0,5.5 0,7.8 -5.5,0 -10.6,0 -16,0 0,-2.7 0,-5.3 0,-7.8 -5.5,0 -10.7,0 -15.8,0 0,-2.6 0,-5.2 0,-8 -5.5,0 -10.8,0 -16,0 0,-4.8 0,-9.5 0,-14.3 0,-0.7 -0.4,-1.7 1,-1.7 10.2,0 20.5,0 31,0 0,-2.8 0,-5.4 0.1,-8.1 5.2,-0.1 10.4,-0.1 15.7,-0.1 0,-2.7 0,-5.2 0,-7.8 -5.3,0 -10.4,0 -15.6,0 0,2.7 0,5.3 -0.1,7.8 -10.4,0.3 -20.8,0.3 -31.1,0.3 -0.3,-0.4 -0.9,-0.8 -1,-1.3 -0.1,-2.1 0,-4.3 0,-6.6 -5.3,0 -10.4,0 -15.8,0 0,-5.4 0,-10.6 0,-16.2 5.2,0 10.5,0 15.8,0 0,2.6 0,5.2 0,7.9 5.5,0 10.6,0 16.1,0 0,-2.7 0,-5.2 0,-7.8 5.5,0 10.6,0 16.1,0 0,2.7 0,5.3 0,7.7 5.5,0 10.6,0 16.1,0 0,-2.7 0,-5.3 0,-7.8 5.5,0 10.7,0 15.8,0 0,10.6 0,21.1 0,32 5.4,0.1 10.6,0.1 15.9,0.1 z"
   id="path8" />
<path
   class="st1"
   d="m 151.7,80.198416 c 0,-2.7 0,-5.3 0,-8 5.5,0 11,0 16.8,0 0,2.5 0,5.1 0,7.8 2.5,0 4.6,0 7,0 0,2.7 0,5.3 0,8 5.5,0 10.6,0 16,0 0,5.4 0,10.6 0,16.000004 5.4,0 10.6,0 16,0 0,2.7 0,5.3 0,8 4.8,0 9.2,0 14,0 0,2.7 0,5.3 0,8 4.5,0 8.6,0 13,0 0,5.4 0,10.6 0,16 1.8,0 3.2,0 4.9,0 0,5.3 0,10.4 0,16 -2.4,0.1 -5,0 -7.6,0.1 -2.6,0 -5.3,0 -8.1,0 0,2.6 0,5.1 0,7.9 -5.4,0 -10.6,0 -16.2,0 0,10.9 0,21.5 0,32.1 -2.7,0 -5.3,0 -8,0 0,-2.6 0,-5.2 0,-8 -5.5,0 -10.8,0 -16,0 0,-2.6 0,-5.2 0,-8.2 -2.9,0 -5.5,0 -8,0 0,-8.2 0,-16 0,-23.8 0,-2.7 0,-5.3 0,-8 2.7,0 5.3,0 8,0 0,2.6 0,5.2 0,8 3,0 5.6,0 8.2,0 2.6,0 5.2,0.2 7.8,-0.1 0,-2.9 0,-5.4 0,-7.8 5.2,0 10.5,0 16,0 0,-2.8 0,-5.4 0,-8 0,-2.6 0,-5.2 0,-8 -5.5,0 -10.8,0 -16,0 0,-2.7 0,-5.3 0,-8 0,-2.6 0,-5.2 0,-8 -5.5,0 -10.8,0 -16,0 0,-2.6 0,-5.2 0,-8.1 -2.8,0 -5.4,0 -8.1,0 0,-2.8 0,-5.200004 0,-7.900004 -2.7,0 -5.3,0 -7.9,0 0,-2.6 0,-5.2 0,-8.1 -2.8,0 -5.4,0 -8.1,0 0,-2.8 0,-5.2 0,-7.9 -2.5,0 -5.1,0 -7.7,0 z"
   id="path10" />
<path
   class="st3"
   d="m 167.7,56.198416 c -5.3,0 -10.5,0 -16,0 0,-10.9 0,-21.4 0,-32 0,-2.6 0,-5.2 0,-8 -5.5,0 -10.8,0 -16,0 0,-2.6 0,-5.2 0,-8.0000002 -10.9,0 -21.4,0 -32,0 0,-2.5 0,-5 0,-7.50000002 4.2,-0.7 49.8,-1 64,-0.3 0,18.60000022 0,37.20000022 0,55.80000022 z"
   id="path12" />
<path
   d="m 111.7,184.19842 c 0,5.2 0,10.5 0,16 -2.8,0 -5.4,0 -8,0 0,-2.7 0,-5.3 0,-8 0,-10.6 0,-21.2 0,-31.8 14.7,-0.6 43.9,-0.4 48,0.3 0,10.5 0,21 0,31.5 0,2.7 0,5.3 0,8 -2.6,0 -5.2,0 -8,0 0,-5.5 0,-10.8 0,-16 0,-5.3 0,-10.6 0,-16 -10.6,0 -20.9,0 -31.2,0 -0.1,0 -0.3,0.1 -0.4,0.2 -0.1,0.1 -0.2,0.2 -0.3,0.4 -0.1,5.1 -0.1,10.2 -0.1,15.4 z"
   id="path14" />
<path
   d="m 135.7,16.198416 c 5.2,0 10.5,0 16,0 0,2.8 0,5.4 0,8 -5.2,0 -10.3,0 -15.8,0 0,2.6 0,5.1 0,7.8 -5.5,0 -10.6,0 -16.1,0 0,-2.4 0,-5 0,-7.7 -5.5,0 -10.6,0 -16.1,0 0,2.5 0,5.1 0,7.8 -5.5,0 -10.6,0 -16.1,0 0,-2.7 0,-5.3 0,-7.9 0,-2.7 0,-5.3 0,-8 16.1,0 32.1,0 48.1,0 z"
   id="path16" />
<path
   class="st1"
   d="m 111.7,184.19842 c 0,-5.2 0,-10.3 0,-15.5 0.1,-0.1 0.2,-0.3 0.3,-0.4 0.1,-0.1 0.3,-0.2 0.4,-0.2 10.3,0 20.6,0 31.2,0 0,5.4 0,10.7 0,16 -10.6,0.1 -21.2,0.1 -31.9,0.1 z"
   id="path18" />
<path
   class="st2"
   d="m 135.7,16.198416 c -16,0 -32,0 -48,0 0,-2.6 0,-5.2 0,-8.0000002 5.5,0 10.8,0 16,0 10.6,0 21.1,0 32,0 0,2.8000002 0,5.4000002 0,8.0000002 z"
   id="path20" />
<path
   d="m 103.7,200.19842 c 0,2.5 0,5 0,7.5 -4.2,0.7 -33,0.9 -48,0.3 0,-2.6 0,-5.2 0,-7.8 16,0 32,0 48,0 z"
   id="path22" />
<path
   d="m 199.7,200.19842 c 0,2.5 0,5 0,7.5 -4.2,0.7 -33,0.9 -48,0.3 0,-2.6 0,-5.2 0,-7.8 16,0 32,0 48,0 z"
   id="path24" />
<path
   d="m 119.7,48.198416 c 0,2.6 0,5.2 0,8 -10.5,0 -20.8,0 -31,0 0,-2.7 0,-5.3 0,-8 10.3,0 20.7,0 31,0 z"
   id="path26" />
<path
   d="m 47.7,200.19842 c 0,-2.6 0,-5.2 0,-8 2.8,0 5.4,0 8,0 0,2.7 0,5.3 0,8 -2.7,0 -5.3,0 -8,0 z"
   id="path28" />
<path
   d="m 199.7,192.19842 c 2.7,0 5.3,0 8,0 0,2.6 0,5.2 0,8 -2.8,0 -5.4,0 -8,0 0,-2.7 0,-5.3 0,-8 z"
   id="path30" />
<path
   class="st2"
   d="m 39.7,136.19842 c 0,-2.7 0,-5.3 0,-8 5.3,0 10.7,0 16,0 5.3,0 10.7,0 16,0 0,5.3 0,10.7 0,16 -5.3,0 -10.7,0 -16,0 0,-2.6 0,-5.2 0,-8 -5.5,0 -10.8,0 -16,0 z"
   id="path32" />
<path
   d="m 87.7,72.198416 c 5.2,0 10.5,0 16,0 0,2.8 0,5.4 0,8 0,5.3 0,10.7 0,16 -5.3,0 -10.7,0 -16,0 0,-2.5 0,-5 0,-7.8 2.5,0 5.1,0 7.8,0 0,-2.8 0,-5.2 0,-8 -2.4,0 -4.9,0 -7.8,0 0,-3 0,-5.6 0,-8.2 z"
   id="path34" />
<path
   d="m 71.7,184.19842 c 0,-2.5 0,-5 0,-7.8 2.5,0 5.1,0 8,0 0,-5.6 0,-10.9 0,-16.2 0,-2.7 0,-5.3 0,-8 2.7,0 5.3,0 8,0 0,10.7 0,21.3 0,32 -5.3,0 -10.7,0 -16,0 z"
   id="path36" />
<path
   d="m 71.7,112.19842 c 0,-2.6 0,-5.2 0,-7.9 2.7,0 5.1,0 7.9,0 0,-2.7 0,-5.200004 0,-8.100004 2.9,0 5.5,0 8.1,0 0,5.300004 0,10.500004 0,16.000004 -5.5,0 -10.7,0 -16,0 z"
   id="path38" />
<path
   class="st4"
   d="m 79.7,152.19842 c 0,2.7 0,5.3 0,8 -5.2,0 -10.5,0 -16,0 0,-2.8 0,-5.4 0,-8 2.6,0 5.2,0 8,0 0,-2.8 0,-5.4 0,-8 2.7,0 5.3,0 8,0 0,2.7 0,5.3 0,8 z"
   id="path40" />
<path
   d="m 55.7,120.19842 c 0,-2.6 0,-5.2 0,-8 5.5,0 10.8,0 16,0 0,2.6 0,5.2 0,8 -5.5,0 -10.8,0 -16,0 z"
   id="path42" />
<path
   d="m 55.7,128.19842 c -5.3,0 -10.7,0 -16,0 0,-2.6 0,-5.2 0,-8 5.5,0 10.8,0 16,0 0,2.7 0,5.3 0,8 z"
   id="path44" />
<path
   d="m 39.7,136.19842 c 5.2,0 10.5,0 16,0 0,2.8 0,5.4 0,8 -5.2,0 -10.5,0 -16,0 0,-2.8 0,-5.4 0,-8 z"
   id="path46" />
<path
   d="m 71.7,144.19842 c 0,2.6 0,5.2 0,8 -2.8,0 -5.4,0 -8,0 -2.6,0 -5.2,0 -8,0 0,-2.8 0,-5.4 0,-8 5.3,0 10.7,0 16,0 z"
   id="path48" />
<path
   d="m 55.7,192.19842 c 0,-2.6 0,-5.2 0,-8 5.5,0 10.8,0 16,0 0,2.6 0,5.2 0,8 -5.5,0 -10.8,0 -16,0 z"
   id="path50" />
<path
   class="st4"
   d="m 103.7,96.198416 c 0,-5.3 0,-10.7 0,-16 5.2,0 10.3,0 15.8,0 0,2.5 0,5.1 0,7.8 5.5,0 10.6,0 16,0 0,-2.4 0,-4.9 0,-7.8 5.6,0 10.9,0 16.2,0 0,5.3 0,10.7 0,16 0,2.6 0,5.200004 0,8.000004 -3,0 -5.6,0 -8.2,0 -2.6,0 -5.2,0.2 -7.9,-0.2 0,-2.8 0,-5.200004 0,-7.800004 -2.8,0 -5.4,0 -8.1,0 -2.6,0 -5.2,-0.2 -7.9,0.2 0,2.8 0,5.200004 0,7.800004 -2.8,0 -5.4,0 -8.1,0 -2.6,0 -5.2,0.2 -7.7,-0.1 -0.1,-2.9 -0.1,-5.400004 -0.1,-7.900004 z"
   id="path52" />
<path
   d="m 119.9,48.098416 c 0,-2.5 0,-5.1 0,-7.8 5.2,0 10.3,0 15.6,0 0,2.5 0,5.1 0,7.8 -5.3,0 -10.5,0 -15.6,0 z"
   id="path54" />
<path
   class="st5"
   d="m 103.7,96.198416 c 0,2.5 0,5.000004 0,7.800004 2.5,0.4 5.2,0.1 7.7,0.1 2.6,0 5.3,0 8.1,0 0,-2.6 0,-5.000004 0,-7.800004 2.7,-0.4 5.3,-0.1 7.9,-0.2 2.6,0 5.3,0 8.1,0 0,2.6 0,5.000004 0,7.800004 2.7,0.4 5.3,0.1 7.9,0.2 2.6,0 5.3,0 8.2,0 0,-2.8 0,-5.400004 0,-8.000004 5.3,0 10.7,0 16,0 0,5.300004 0,10.500004 0,16.000004 5.5,0 10.7,0 16,0 0,2.6 0,5.2 0,8 5.5,0 10.8,0 16,0 0,2.7 0,5.3 0,8 -5.3,0 -10.7,0 -16,0 -5.3,0 -10.7,0 -16,0 0,-2.6 0,-5.2 0,-8 -3,0 -5.6,0 -8.3,0 -2.6,0 -5.2,-0.1 -7.7,0.1 0,8.3 0,16.1 0,23.9 -16,0 -32,0 -48,0 0,-7.9 0,-15.9 0,-24 -3,0 -5.6,0 -8.2,0 -2.6,0 -5.2,-0.2 -7.8,0.1 0,2.9 0,5.4 0,7.9 -5.3,0 -10.7,0 -16,0 -5.3,0 -10.7,0 -16,0 0,-2.7 0,-5.3 0,-8 5.2,0 10.5,0 16,0 0,-2.8 0,-5.4 0,-8 5.3,0 10.5,0 16,0 0,-5.5 0,-10.7 0,-16.000004 5.4,0.1 10.8,0.1 16.1,0.1 z"
   id="path56" />
<path
   class="st2"
   d="m 183.7,128.19842 c 5.3,0 10.7,0 16,0 5.2,0 10.5,0 16,0 0,2.8 0,5.4 0,8 -5.2,0 -10.5,0 -16,0 0,2.8 0,5.4 0,8 -5.3,0 -10.7,0 -16,0 0,-5.3 0,-10.7 0,-16 z"
   id="path58" />
<path
   d="m 175.7,152.19842 c 0,7.8 0,15.6 0,23.8 2.5,0 5.1,0 8,0 0,3 0,5.6 0,8.2 -5.3,0 -10.7,0 -16,0 0,-10.7 0,-21.3 0,-32 2.7,0 5.3,0 8,0 z"
   id="path60" />
<path
   d="m 167.7,96.198416 c -5.3,0 -10.7,0 -16,0 0,-5.3 0,-10.7 0,-16 2.6,0 5.2,0 7.9,0 0,2.7 0,5.1 0,7.9 2.7,0 5.2,0 8.1,0 0,2.9 0,5.5 0,8.1 z"
   id="path62" />
<path
   d="m 183.7,112.19842 c -5.3,0 -10.5,0 -16,0 0,-5.5 0,-10.7 0,-16.000004 2.6,0 5.2,0 7.9,0 0,2.7 0,5.100004 0,7.900004 2.7,0 5.2,0 8.1,0 0,2.9 0,5.5 0,8.1 z"
   id="path64" />
<path
   class="st4"
   d="m 175.7,152.19842 c -2.7,0 -5.3,0 -8,0 0,-2.6 0,-5.2 0,-8.2 -2.9,0 -5.5,0 -8,0 0,-2.8 0,-5.3 0,-7.8 2.7,0 5.3,0 8,0 2.6,0 5.2,0 8,0 0,2.8 0,5.4 0,8 0,2.7 0,5.3 0,8 z"
   id="path66" />
<path
   d="m 175.7,144.19842 c 0,-2.6 0,-5.2 0,-8 -2.8,0 -5.4,0 -8,0 0,-2.7 0,-5.3 0,-8 5.3,0 10.7,0 16,0 0,5.3 0,10.7 0,16 -2.7,0 -5.3,0 -8,0 z"
   id="path68" />
<path
   d="m 199.7,120.19842 c -5.2,0 -10.5,0 -16,0 0,-2.8 0,-5.4 0,-8 5.2,0 10.5,0 16,0 0,2.8 0,5.4 0,8 z"
   id="path70" />
<path
   d="m 183.7,144.19842 c 5.3,0 10.7,0 16,0 0,2.5 0,5 0,7.8 -2.5,0.4 -5.2,0.1 -7.8,0.1 -2.6,0 -5.3,0 -8.2,0 0,-2.7 0,-5.3 0,-7.9 z"
   id="path72" />
<path
   d="m 199.7,144.19842 c 0,-2.6 0,-5.2 0,-8 5.5,0 10.8,0 16,0 0,2.6 0,5.2 0,8 -5.5,0 -10.8,0 -16,0 z"
   id="path74" />
<path
   d="m 183.7,184.19842 c 5.2,0 10.5,0 16,0 0,2.8 0,5.4 0,8 -5.2,0 -10.5,0 -16,0 0,-2.8 0,-5.4 0,-8 z"
   id="path76" />
<path
   class="st4"
   d="m 167.7,152.19842 c 0,10.7 0,21.3 0,32 0,2.6 0,5.2 0,8 -5.5,0 -10.8,0 -16,0 0,-10.5 0,-21 0,-31.5 -4.1,-0.8 -33.3,-1 -48,-0.3 0,10.6 0,21.2 0,31.8 -5.2,0 -10.5,0 -16,0 0,-2.8 0,-5.4 0,-8 0,-10.7 0,-21.3 0,-32 5.2,0 10.5,0 16,0 0,-2.8 0,-5.4 0,-8 16,0 32,0 48,0 0,2.6 0,5.2 0,8 5.5,0 10.8,0 16,0 z"
   id="path78" />
<path
   class="st5"
   d="m 151.7,192.19842 c 5.2,0 10.5,0 16,0 0,-2.8 0,-5.4 0,-8 5.3,0 10.7,0 16,0 0,2.6 0,5.2 0,8 5.5,0 10.8,0 16,0 0,2.7 0,5.3 0,8 -16,0 -32,0 -48,0 0,-2.7 0,-5.3 0,-8 z"
   id="path80" />
<path
   class="st5"
   d="m 87.7,184.19842 c 0,2.6 0,5.2 0,8 5.5,0 10.8,0 16,0 0,2.7 0,5.3 0,8 -16,0 -32,0 -48,0 0,-2.7 0,-5.3 0,-8 5.2,0 10.5,0 16,0 0,-2.8 0,-5.4 0,-8 5.3,0 10.7,0 16,0 z"
   id="path82" />
<path
   d="m 71.7,128.19842 c 5.3,0 10.7,0 16,0 0,2.6 0,5.2 0,8.2 -2.9,0 -5.5,0 -8,0 0,2.8 0,5.3 0,7.8 -2.7,0 -5.3,0 -8,0 0,-5.3 0,-10.7 0,-16 z"
   id="path84" />
<path
   class="st1"
   d="m 79.7,144.19842 c 0,-2.5 0,-5 0,-7.8 2.5,0 5.1,0 8,0 0,-2.9 0,-5.6 0,-8.2 2.6,0 5.2,0 7.8,0 0,5.5 0,10.7 0,16 -2.6,0 -5.1,0 -7.8,0 0,2.7 0,5.3 0,8 -2.7,0 -5.3,0 -8,0 0,-2.7 0,-5.3 0,-8 z"
   id="path86" />
<path
   d="m 87.7,152.19842 c 0,-2.6 0,-5.2 0,-8 2.7,0 5.2,0 7.8,0 0,-5.3 0,-10.5 0,-16 -2.6,0 -5.2,0 -7.8,0 0,-2.5 0,-5 0,-7.9 2.6,-0.3 5.2,-0.1 7.8,-0.1 2.6,0 5.3,0 8.2,0 0,8.1 0,16.1 0,24 0,2.6 0,5.2 0,8 -5.5,0 -10.8,0 -16,0 z"
   id="path88" />
<path
   d="m 167.7,152.19842 c -5.2,0 -10.5,0 -16,0 0,-2.8 0,-5.4 0,-8 0,-7.8 0,-15.6 0,-23.9 2.5,-0.2 5.1,0 7.7,-0.1 2.6,0 5.3,0 8.3,0 0,2.8 0,5.4 0,8 -2.6,0 -5.2,0 -8,0 0,2.8 0,5.4 0,8 0,2.5 0,5 0,7.8 2.5,0 5.1,0 8,0 0,3 0,5.6 0,8.2 z"
   id="path90" />
<path
   class="st1"
   d="m 159.7,136.19842 c 0,-2.6 0,-5.2 0,-8 2.8,0 5.4,0 8,0 0,2.7 0,5.3 0,8 -2.7,0 -5.3,0 -8,0 z"
   id="path92" />
</svg>
