<?xml version="1.0" encoding="UTF-8" standalone="no"?>
<!-- Generator: Adobe Illustrator 25.0.0, SVG Export Plug-In . SVG Version: 6.00 Build 0)  -->

<svg
   version="1.1"
   id="Layer_1"
   x="0px"
   y="0px"
   viewBox="0 0 176.02118 88.020927"
   xml:space="preserve"
   sodipodi:docname="1.svg"
   width="176.02118"
   height="88.020927"
   inkscape:version="1.2.2 (b0a8486541, 2022-12-01)"
   xmlns:inkscape="http://www.inkscape.org/namespaces/inkscape"
   xmlns:sodipodi="http://sodipodi.sourceforge.net/DTD/sodipodi-0.dtd"
   xmlns="http://www.w3.org/2000/svg"
   xmlns:svg="http://www.w3.org/2000/svg"><defs
   id="defs39" /><sodipodi:namedview
   id="namedview37"
   pagecolor="#505050"
   bordercolor="#ffffff"
   borderopacity="1"
   inkscape:showpageshadow="0"
   inkscape:pageopacity="0"
   inkscape:pagecheckerboard="1"
   inkscape:deskcolor="#505050"
   showgrid="false"
   inkscape:zoom="4.1525"
   inkscape:cx="91.872366"
   inkscape:cy="36.604455"
   inkscape:window-width="1536"
   inkscape:window-height="923"
   inkscape:window-x="0"
   inkscape:window-y="0"
   inkscape:window-maximized="1"
   inkscape:current-layer="Layer_1" />
<style
   type="text/css"
   id="style2">
	.st0{fill:#F70909;}
	.st1{fill:#545454;}
</style>




<path
   class="st1"
   d="m 48.083983,16 c -5.3,0 -10.5,0 -16,0 0,-5.5 0,-10.7 0,-16 10.7,0 21.3,0 32,0 0,2.6 0,5.2 0,8 -3,0 -5.6,0 -8.2,0 -2.6,0 -5.2,-0.2 -7.8,0.1 0,2.9 0,5.4 0,7.9 z"
   id="path12" />

<path
   class="st1"
   d="m 80.083983,16 c 0,-5.3 0,-10.7 0,-16 10.7,0 21.299997,0 31.999997,0 0,2.6 0,5.2 0,7.9 -5.4,0 -10.5,0 -15.899997,0 0,2.7 0,5.2 0,8.1 -5.6,0 -10.8,0 -16.1,0 z"
   id="path16" />

<path
   class="st1"
   d="m 96.083983,80 c 5.199997,0 10.499997,0 15.999997,0 0,2.8 0,5.4 0,8 -5.3,0 -10.7,0 -15.999997,0 0,-2.7 0,-5.3 0,-8 z"
   id="path20" />

<path
   class="st1"
   d="m 48.083983,16 c 10.7,0 21.3,0 32,0 0,2.5 0,5 0,7.9 2.5,0.2 5.1,0 7.7,0.1 2.6,0 5.3,0 8.2,0 0,5.3 0,10.6 0,16 16.199997,0 32.099997,0 47.999997,0 0,2.5 0,5 0,7.9 2.6,0.3 5.2,0.1 7.8,0.1 2.6,0 5.3,0 8.2,0 0,10.8 0,21.4 0,32 -5.3,0 -10.5,0 -16,0 0,-2.7 0,-5.2 0,-7.8 -16,0 -31.9,0 -47.999997,0 0,2.6 0,5.2 0,7.8 -5.2,0 -10.3,0 -15.8,0 0,-2.5 0,-5.1 0,-8 -11,0 -21.6,0 -32.2,0 0,-2.5 0,-5 0,-7.5 -0.1,-0.1 -0.2,-0.2 -0.3,-0.3 -0.1,-0.1 -0.3,-0.2 -0.4,-0.2 -10.3,0 -20.6,0 -31.2,0 0,-2.8 0,-5.4 0,-8 5.3,0 10.6,0 16.2,0 0,-2.9 0,-5.5 0,-8.2 5.5,0 10.6,0 15.7,0 0,-2.6 0,-5.1 0,-7.8 -10.7,0 -21.3,0 -31.9,0 0,-2.6 0,-5.2 0,-7.9 5.4,0 10.5,0 15.9,0 0,-2.7 0,-5.2 0,-8.1 5.6,0 10.8,0 16.2,0.1 0.1,2.5 0.1,5.1 0.1,7.7 5.4,0 10.6,0 15.7,0 0,-2.7 0,-5.1 0,-7.7 -5.4,0 -10.6,0 -15.8,-0.1 -0.1,-2.7 -0.1,-5.3 -0.1,-8 z"
   id="path24" />
<path
   class="st1"
   d="m 144.08398,40 c 0,-8 0,-16 0,-24 5.2,0 10.3,0 15.5,0 0.1,0.1 0.3,0.2 0.4,0.3 0.1,0.1 0.2,0.3 0.2,0.4 0,7.6 0,15.3 0,23.2 -5.5,0.1 -10.8,0.1 -16.1,0.1 z"
   id="path26" />
<path
   class="st1"
   d="m 143.88398,15.9 c -5.1,0 -10.4,0 -15.7,0 0,-2.6 0,-5 0,-7.7 5.2,0 10.4,0 15.7,0 0,2.6 0,5.2 0,7.7 z"
   id="path28" />
<path
   class="st1"
   d="m 47.883983,72.1 c 0,2.5 0,5.1 0,7.8 -5.2,0 -10.3,0 -15.6,0 0,-2.5 0,-5.1 0,-7.8 5.3,0 10.5,0 15.6,0 z"
   id="path30" />
<path
   d="m 16.083983,40 c 10.6,0 21.2,0 31.9,0 0,2.8 0,5.2 0,7.8 -5.1,0 -10.3,0 -15.7,0 0,2.7 0,5.3 0,8.2 -5.6,0 -10.9,0 -16.2,0 0,-5.3 0,-10.7 0,-16 z"
   id="path32" />
<path
   d="m 48.283983,24.1 c 5.1,0 10.4,0 15.7,0 0,2.6 0,5 0,7.7 -5.2,0 -10.4,0 -15.7,0 0,-2.6 0,-5.2 0,-7.7 z"
   id="path34" />
<rect
   style="fill:#545454;fill-opacity:1;stroke-width:1.17564"
   id="rect403"
   width="16.007488"
   height="16.108494"
   x="0"
   y="40.0191" /><rect
   style="fill:#545454;fill-opacity:1;stroke-width:1.39491"
   id="rect1011"
   width="15.914649"
   height="8.042963"
   x="160.10652"
   y="79.977966" /></svg>
