<?xml version="1.0" encoding="UTF-8" standalone="no"?>
<!-- Generator: Adobe Illustrator 25.0.0, SVG Export Plug-In . SVG Version: 6.00 Build 0)  -->

<svg
   version="1.1"
   id="Layer_1"
   x="0px"
   y="0px"
   viewBox="0 0 384 366"
   xml:space="preserve"
   sodipodi:docname="CBMAvatar-Jumpman.svg"
   width="384"
   height="366"
   inkscape:version="1.2.2 (b0a8486541, 2022-12-01)"
   xmlns:inkscape="http://www.inkscape.org/namespaces/inkscape"
   xmlns:sodipodi="http://sodipodi.sourceforge.net/DTD/sodipodi-0.dtd"
   xmlns="http://www.w3.org/2000/svg"
   xmlns:svg="http://www.w3.org/2000/svg"><defs
   id="defs739" /><sodipodi:namedview
   id="namedview737"
   pagecolor="#505050"
   bordercolor="#ffffff"
   borderopacity="1"
   inkscape:showpageshadow="0"
   inkscape:pageopacity="0"
   inkscape:pagecheckerboard="1"
   inkscape:deskcolor="#505050"
   showgrid="false"
   inkscape:zoom="1.13"
   inkscape:cx="230.97345"
   inkscape:cy="300"
   inkscape:window-width="1536"
   inkscape:window-height="923"
   inkscape:window-x="0"
   inkscape:window-y="0"
   inkscape:window-maximized="1"
   inkscape:current-layer="Layer_1" />
<style
   type="text/css"
   id="style718">
	.st0{fill:#FEFEFE;}
	.st1{fill:#AC465C;}
	.st2{fill:#8E5ABA;}
</style>







<g
   id="g749"
   transform="matrix(5.3259362,0,0,6.1,-1485.4036,-610)"><path
     class="st0"
     d="m 327,100 c 0,4 0,7.9 0,11.9 -8,0 -16,0 -24,0 0,-4 0,-7.9 0,-11.9 8,0 16,0 24,0 z"
     id="path720" /><path
     class="st0"
     d="m 327.1,153.9 c 3.8,0 7.6,0 11.9,0 0,2.3 0,4.2 0,6.1 -16,0 -32,0 -48,0 0,-1.8 0,-3.6 0,-6.1 4,0 8,0 11.9,0 8.1,0 16.1,0 24.2,0 z"
     id="path722" /><path
     class="st1"
     d="m 279,118 c 4,0 8,0 12,0 0,0 -0.1,-0.1 -0.1,-0.1 0,2 0,4.1 0,6.1 l 0.1,-0.1 c -4,0 -8.1,0 -12.1,0 C 279,122 279,120 279,118 Z"
     id="path724" /><path
     class="st1"
     d="m 339,118 c 4,0 8,0 12,0 0,2 0,4 0,6 -4,0 -8.1,0 -12.1,0 l 0.1,0.1 c 0,-2.1 0,-4.1 0,-6.1 0,0 0,0 0,0 z"
     id="path726" /><path
     class="st2"
     d="m 327.1,153.9 c -8,0 -16.1,0 -24.1,0 0,-8 0,-15.9 0,-23.9 0,0 -0.1,0 -0.1,0 8.1,0 16.1,0 24.2,0 l -0.1,0.1 c 0.1,7.8 0.1,15.8 0.1,23.8 z"
     id="path728" /><path
     class="st0"
     d="m 302.9,130 c -3.8,0 -7.6,0 -11.8,0 0,-2.1 0,-4 0,-6 0,0 -0.1,0.1 -0.1,0.1 4,0 7.9,0 11.9,-0.1 0,2 0,3.9 0,6 z"
     id="path730" /><path
     class="st0"
     d="m 338.9,124 c 0,1.8 0,3.6 0,6 -3.9,0 -7.9,0 -11.8,0 0,0 0.1,-0.1 0.1,-0.1 0,-2 0,-3.9 0,-5.9 3.9,0 7.8,0.1 11.7,0 z"
     id="path732" /><path
     class="st1"
     d="m 327.1,124 c 0,2 0,3.9 0,5.9 -8.1,0 -16.1,0 -24.2,0 0,-2 0,-3.9 0,-5.9 0,-1.9 0,-3.8 0,-6 -4.4,0 -8.2,0 -12,0 0,0 0.1,0.1 0.1,0.1 0,-1.8 0,-3.6 0,-6.1 4.2,0 8.1,0 12,0 8,0 16,0 24,0 3.8,0 7.6,0 12,0 0,2.3 0,4.2 0,6.1 0,0 0.1,-0.1 0.1,-0.1 -3.9,0 -7.8,0 -12,0 0,2.4 0,4.2 0,6 z"
     id="path734" /></g>
</svg>
