<?xml version="1.0" encoding="UTF-8" standalone="no"?>
<!-- Generator: Adobe Illustrator 25.0.0, SVG Export Plug-In . SVG Version: 6.00 Build 0)  -->

<svg
   version="1.1"
   id="Layer_1"
   x="0px"
   y="0px"
   viewBox="0 0 384 366"
   xml:space="preserve"
   sodipodi:docname="CBMAvatar-Computer2.svg"
   width="384"
   height="366"
   inkscape:version="1.2.2 (b0a8486541, 2022-12-01)"
   xmlns:inkscape="http://www.inkscape.org/namespaces/inkscape"
   xmlns:sodipodi="http://sodipodi.sourceforge.net/DTD/sodipodi-0.dtd"
   xmlns="http://www.w3.org/2000/svg"
   xmlns:svg="http://www.w3.org/2000/svg"><defs
   id="defs212" /><sodipodi:namedview
   id="namedview210"
   pagecolor="#505050"
   bordercolor="#ffffff"
   borderopacity="1"
   inkscape:showpageshadow="0"
   inkscape:pageopacity="0"
   inkscape:pagecheckerboard="1"
   inkscape:deskcolor="#505050"
   showgrid="false"
   inkscape:zoom="4.5143845"
   inkscape:cx="31.898036"
   inkscape:cy="66.89727"
   inkscape:window-width="1536"
   inkscape:window-height="923"
   inkscape:window-x="0"
   inkscape:window-y="0"
   inkscape:window-maximized="1"
   inkscape:current-layer="Layer_1" />
<style
   type="text/css"
   id="style187">
	.st0{fill:#FEFEFE;}
	.st1{fill:#104EA4;}
</style>










<g
   id="g1742"
   transform="matrix(4,0,0,2.7727273,-1.061488,-0.61654363)"><path
     d="m 96.265372,12.22236 c 0,8 0,16 0,24 -3.9,0 -7.9,0 -11.9,0 -0.1,2.2 -0.2,4.1 -0.3,6 -4.2,0 -8,0 -11.8,0 -8,0 -16,0 -24,0 -3.9,0 -7.9,0 -12,0 0,-14.2 0,-28.1 0,-42 12,0 24,0 36,0 0,1.9 0,3.9 0,6.1 4.2,0 8.1,0 12.1,0 0,2.1 0,3.9 0,5.9 4.1,0 8,0 11.9,0 z"
     id="path191"
     style="fill:#ffffff;fill-opacity:1" /><path
     d="m 0.265372,60.22236 c 3.8,0 7.6,0 11.8,0 0.1,-1.9 0.2,-3.8 0.3,-5.8 3.8,0 7.6,0 11.7,0 0.1,-2 0.2,-4 0.3,-6.2 8,0 15.9,0 23.9,0 8,0 16,0 24,0 3.9,0 7.9,0 12,0 0,8.2 0,16.1 0,24 -24,0 -48,0 -72,0 0,-1.9 0,-3.9 0,-6 -4.2,0 -8.1,0 -12,0 0,-2 0,-4 0,-6 z"
     id="path195"
     style="fill:#ffffff;fill-opacity:1" /><path
     d="m 24.265372,132.22236 c 0,-1.8 0,-3.7 0,-5.5 0.1,-0.1 0.2,-0.2 0.3,-0.3 0.1,-0.1 0.3,-0.2 0.4,-0.2 15.6,0 31.2,0 47,0 0,-1.9 0,-3.7 0,-5.9 2.1,0 4,-0.1 5.9,-0.1 2,0 3.9,0 6.1,0 0,-7.9 0,-15.7 0,-23.9 -1.7,0 -3.7,-0.1 -5.6,-0.1 -2,0 -3.9,0 -6.1,0 0,-1.9 0,-3.7 0,-5.8 -16,0 -31.9,0 -48.2,0 0,-2.3 0,-4.2 0,-6.2 24,0 48,0 72,0 0,16 0,32 0,48 -23.8,0 -47.8,0 -71.8,0 z"
     id="path197" /><path
     class="st1"
     d="m 96.265372,84.22236 c -24,0 -48,0 -72,0 -8,0 -16,0 -24,0 0,-4 0,-8 0,-12 4,0 8,0 12,0 24,0 48,0 72,0 4,0 8,0 12,0 0,4 0,8 0,12 z"
     id="path199" /><rect
     style="fill:#104ea4;fill-opacity:1;stroke-width:0.920965"
     id="rect1726"
     width="33.736534"
     height="5.8583384"
     x="44.151814"
     y="42.313931" /></g></svg>
