<?xml version="1.0" encoding="UTF-8" standalone="no"?>
<!-- Created with Inkscape (http://www.inkscape.org/) -->

<svg
   width="384"
   height="366"
   viewBox="0 0 101.6 96.837502"
   version="1.1"
   id="svg940"
   inkscape:version="1.2.2 (b0a8486541, 2022-12-01)"
   sodipodi:docname="CBMAvatar-WorldKarateRedWhiteWarriors2.svg"
   xmlns:inkscape="http://www.inkscape.org/namespaces/inkscape"
   xmlns:sodipodi="http://sodipodi.sourceforge.net/DTD/sodipodi-0.dtd"
   xmlns="http://www.w3.org/2000/svg"
   xmlns:svg="http://www.w3.org/2000/svg">
  <sodipodi:namedview
     id="namedview942"
     pagecolor="#505050"
     bordercolor="#ffffff"
     borderopacity="1"
     inkscape:showpageshadow="0"
     inkscape:pageopacity="0"
     inkscape:pagecheckerboard="1"
     inkscape:deskcolor="#505050"
     inkscape:document-units="px"
     showgrid="false"
     inkscape:zoom="1.1889028"
     inkscape:cx="207.33402"
     inkscape:cy="155.60566"
     inkscape:window-width="1536"
     inkscape:window-height="923"
     inkscape:window-x="0"
     inkscape:window-y="0"
     inkscape:window-maximized="1"
     inkscape:current-layer="layer1" />
  <defs
     id="defs937" />
  <g
     inkscape:label="Layer 1"
     inkscape:groupmode="layer"
     id="layer1">
    <g
       id="g1205"
       transform="matrix(1.7685185,0,0,1.1505816,-306.35199,91.858079)">
      <path
         d="m 189.10021,-79.809754 c -0.18521,1.508125 1.16417,1.217083 1.905,1.561042 0.3175,0.15875 0.76729,0.02646 1.21709,0.02646 0,1.084792 0,2.116667 0,3.148542 -2.09021,0 -4.18042,0 -6.32355,0 0,0.661458 0,1.137708 0,1.613958 l 0.0265,-0.02646 c -1.03187,0 -2.03729,0 -3.20146,0 0,1.137708 0,2.169583 0,3.201458 l 0.0265,-0.02646 c -1.03187,0 -2.09021,0 -3.20146,0 0,2.2225 0,4.28625 0,6.35 -1.00541,0 -2.01083,0 -3.09562,0 -0.0265,-0.529167 -0.0529,-0.978959 -0.0794,-1.5875 -1.05833,0 -2.0902,0 -3.14854,0 0,-3.704167 0,-7.408334 0,-11.1125 1.03188,0 2.06375,0 3.175,0 0,-0.582084 0,-1.031875 0,-1.613959 1.11125,0 2.11667,0 3.175,0 0,-0.608541 0,-1.084791 0,-1.561041 3.175,0.02646 6.35,0.02646 9.525,0.02646 z"
         id="path779"
         style="stroke-width:0.264583" />
      <path
         class="st0"
         d="m 201.80021,-38.534754 c -1.00542,0 -1.98437,0 -3.09562,0 -0.0529,0.582083 -0.0794,1.11125 -0.1323,1.613958 -2.0902,0 -4.18041,0 -6.29708,0 -1.05833,-0.02646 -2.11666,-0.02646 -3.175,-0.05292 -0.0265,-0.502708 -0.0794,-1.005416 -0.10583,-1.613958 -1.08479,0 -2.06375,0 -3.09563,0 0,-1.11125 0,-2.116667 0,-3.122083 l -0.0265,0.02646 c 1.03187,0 2.0902,0 3.14854,0 0,-0.635 0,-1.11125 0,-1.5875 0,-0.529167 0.0265,-1.084792 0.0265,-1.613958 v 0 c 1.03187,0 2.06375,0 3.06916,0 0.10584,0.635 0.15875,1.058333 0.23813,1.5875 1.05833,0 2.06375,0 3.0427,0 v 0 c 0,0.502708 0,1.005416 0,1.5875 2.2225,0 4.28625,0 6.35,0 0.0529,1.058333 0.0529,2.116666 0.0529,3.175 z"
         id="path781"
         style="fill:#ea8398;stroke-width:0.264583" />
      <path
         class="st0"
         d="m 195.45021,2.7931618 c 0.0794,0.5027083 0.15875,1.031875 0.26458,1.5345833 -5.37104,0 -10.76854,0 -16.13958,0 0,-1.031875 0,-2.06375 0,-3.2014583 1.13771,0 2.14313,0 3.175,0 0,-0.58208334 0,-1.05833333 0,-1.56104166 l -0.0265,0.0264583 c 1.05834,-0.0264583 2.09021,-0.0264583 3.14855,-0.0529167 1.05833,0.0264583 2.11666,0.0264583 3.175,0.0529167 0.0264,0.50270833 0.0794,1.00541666 0.10583,1.61395836 1.08479,0 2.06375,0 3.04271,0 0.0529,0.5820833 0.10583,1.031875 0.15875,1.5875 1.11125,0 2.0902,0 3.09562,0 z"
         id="path783"
         style="fill:#ea8398;stroke-width:0.264583" />
      <path
         d="m 182.75021,-0.43475486 c 0,0.47624999 0,0.95249999 0,1.56104166 -1.05833,0 -2.03729,0 -3.175,0 0,1.1377083 0,2.1695833 0,3.2014583 -1.05833,0 -2.11666,0 -3.175,0 0,-0.5027083 0,-1.0054167 0,-1.5875 -1.13771,0 -2.14312,0 -3.175,0 0,-1.0583333 0,-2.11666664 0,-3.17499996 1.00542,0 2.01084,0 3.12209,0 0.0265,-0.50270833 0.0794,-0.97895834 0.10583,-1.58749994 1.03187,0 2.06375,0 3.09562,0 0.0265,0.5027083 0.0529,1.0054166 0.10584,1.58749994 1.11125,0 2.11666,0 3.09562,0 z"
         id="path785"
         style="stroke-width:0.264583" />
      <path
         class="st0"
         d="m 198.59875,-48.086213 c 0,1.005417 0,1.984375 0,3.201459 1.16417,0 2.19604,0 3.20146,0 0,0.529166 0,1.058333 0,1.5875 -2.11667,0 -4.23333,0 -6.35,0 0,0 0,0 0,0 0,-1.561042 0,-3.122084 0,-4.788959 1.19063,0 2.16958,0 3.14854,0 z"
         id="path787"
         style="fill:#ea8398;stroke-width:0.264583" />
      <path
         d="m 195.45021,-43.297254 c 2.11667,0 4.23333,0 6.35,0 0,0.529166 0,1.058333 0,1.5875 -2.06375,0 -4.1275,0 -6.35,0 0,-0.582084 0,-1.084792 0,-1.5875 z"
         id="path789"
         style="stroke-width:0.264583" />
      <path
         class="st2"
         d="m 182.75021,-0.43475486 c -1.00541,0 -2.01083,0 -3.12208,0 -0.0265,-0.58208334 -0.0794,-1.08479164 -0.10583,-1.58749994 0.0265,-4.2333333 0.0529,-8.4666662 0.0529,-12.7000002 1.32292,0.02646 2.80459,0.343959 3.12209,-1.5875 1.05833,0 2.11666,0 3.20145,0 0,0.502709 0,1.005417 0,1.534584 1.13771,0 2.09021,0 3.06917,0 0,-0.529167 0,-0.978959 0,-1.508125 -1.08479,0 -2.09021,0 -3.09562,0 0,-0.502709 0,-1.005417 0,-1.666875 -1.16417,0 -2.14313,0 -3.09563,0 -0.0529,-0.582084 -0.10583,-1.005417 -0.15875,-1.508125 -1.05833,0 -2.03729,0 -3.04271,0 0,-1.693334 0,-3.360209 0,-5.053542 1.00542,0.132292 2.01084,0.238125 3.04271,0.370417 0,-0.687917 0,-1.137709 0,-1.799167 -1.03187,0.132292 -1.93146,0.264583 -2.8575,0.396875 -0.10583,-0.582083 -0.23812,-1.137708 -0.37042,-1.852083 -0.89958,0 -1.905,0 -2.98979,0 0,-2.725208 0,-5.344583 0,-7.963958 4.20688,0 8.38729,0 12.59417,0 0.0265,-0.635 0.0529,-1.11125 0.10583,-1.5875 1.05834,0.02646 2.11667,0.02646 3.175,0.05292 0,0.47625 0,0.9525 0,1.5875 1.05834,0 2.06375,0 3.175,0 0,2.2225 0,4.28625 0,6.35 -0.0265,3.704167 -0.0529,7.408333 -0.0529,11.1125 -1.03187,0 -2.03729,0 -3.12208,0 0,0.635 0,1.11125 0,1.5875 0,4.180417 0,8.3343749 0,12.6470832 -1.05833,0 -2.03729,0 -3.175,0 0,0.635 0,1.1377083 0,1.6404166 -0.0265,0.5291667 -0.0529,1.05833335 -0.0529,1.61395834 -1.05834,-0.0264583 -2.11667,-0.0264583 -3.175,-0.0529167 0,-0.50270832 0,-0.97895824 0,-1.48166664 -1.13771,0 -2.11667,0 -3.14855,0 0.0265,0.5291667 0.0265,1.00541665 0.0265,1.45520831 z"
         id="path793"
         style="fill:#ac465c;stroke-width:0.264583" />
      <path
         class="st2"
         d="m 198.59875,-48.086213 c -0.97896,0 -1.93146,0 -3.14854,0 0,1.640417 0,3.227917 0,4.788959 -1.00542,0 -1.98437,0 -3.04271,0 -0.0794,-0.529167 -0.13229,-0.9525 -0.23812,-1.5875 -1.00542,0 -2.03729,0 -3.06917,0 0,-3.677709 0,-7.355417 0,-11.033125 -1.13771,0 -2.09021,0 -3.09562,0 0,3.704166 0,7.3025 0,11.033125 1.08479,0 2.09021,0 3.09562,0 0,0.529166 -0.0265,1.084791 -0.0265,1.613958 -1.03187,0 -2.06375,0 -3.14854,0 0,0.635 0,1.11125 0,1.5875 l 0.0265,-0.02646 c -1.03187,0 -2.06375,0 -3.22792,0 0,1.137708 0,2.090208 0,3.201458 -2.16958,0 -4.23333,0 -6.27062,0 0,-0.529167 0,-1.084792 0,-1.613958 1.03187,0 2.06375,0 3.14854,0 -0.0265,-0.608542 -0.0529,-1.031875 -0.0794,-1.561042 -1.0848,0 -2.06375,0 -3.06917,0 0,-0.529167 0,-1.084792 0,-1.613958 1.03187,0 2.06375,0 3.14854,0 -0.0265,-0.608542 -0.0529,-1.031875 -0.0794,-1.561042 -1.0848,0 -2.06375,0 -3.06917,0 0,-5.23875 0,-10.451042 0,-15.822083 0.97896,0 1.95792,0 3.04271,0 0.0529,-0.635 0.0794,-1.137708 0.13229,-1.640417 2.06375,0 4.1275,0 6.16479,0 0.10583,0.608542 0.21167,1.058334 0.3175,1.5875 1.03188,0 2.01083,0 2.96333,0 0.0265,0.47625 0.0529,0.9525 0.0794,1.561042 1.00542,0 2.01083,0 3.12208,0 0,1.11125 0,2.090208 0,3.148542 1.08479,0 2.03729,0 3.12208,0 0,2.116666 0,4.153958 0,6.323541 1.11125,0 2.09021,0 3.20146,0 0,0.608542 0,1.11125 0,1.613958 z"
         id="path795"
         style="fill:#ac465c;stroke-width:0.264583" />
      <path
         class="st0"
         d="m 189.07375,-60.733296 c -0.9525,0 -1.93145,0 -2.96333,0 -0.10583,-0.529166 -0.18521,-0.978958 -0.3175,-1.5875 -2.06375,0 -4.10104,0 -6.16479,0 -0.0265,-0.529166 -0.0529,-1.084791 -0.0529,-1.613958 0,-2.06375 0,-4.1275 0,-6.35 1.13771,0 2.16959,0 3.20146,0 0,1.031875 0,2.06375 0,3.095625 1.13771,0 2.11667,0 3.06917,0 0,-1.058333 0,-2.06375 0,-3.069167 -1.08479,0 -2.09021,0 -3.09563,0 0,-1.031875 0,-2.037291 0,-3.201458 1.16417,0 2.16959,0 3.20146,0 0,0.502708 0,1.005417 0,1.640417 1.11125,0 2.11667,0 3.09563,0 0.0529,0.582083 0.0794,1.031875 0.13229,1.481666 1.08479,0 2.06375,0 3.06916,0 0.0265,-0.555625 0.0529,-1.031875 0.0794,-1.508125 0.97896,0 1.98437,0 3.04271,0 0,1.084792 0,2.010834 0,3.122084 -0.9525,0 -1.93146,0 -2.98979,0 -0.0529,0.661458 -0.0794,1.164166 -0.1323,1.666875 -1.03187,0 -2.06375,0 -3.14854,0 0.0265,0.608541 0.0529,1.058333 0.0794,1.561041 1.08479,0 2.09021,0 3.06916,0 0,0.47625 0,0.9525 0,1.561042 -1.03187,0 -2.01083,0 -3.175,0 0,1.137708 0,2.169583 0,3.201458 z"
         id="path797"
         style="fill:#ea8398;stroke-width:0.264583" />
      <path
         d="m 176.45313,-38.534754 c 2.06375,0 4.1275,0 6.27062,0 0,-1.084792 0,-2.037292 0,-3.201459 1.13771,0 2.16959,0 3.22792,0 0,1.005417 0,2.010834 0,3.122084 1.03188,0 2.01083,0 3.09563,0 0.0529,0.608541 0.0794,1.11125 0.10583,1.613958 -0.0265,0.47625 -0.0529,0.9525 -0.10583,1.5875 -4.20688,0 -8.41375,0 -12.59417,0 0,-1.005417 0,-2.06375 0,-3.122083 z"
         id="path799"
         style="stroke-width:0.264583" />
      <path
         d="m 185.92521,-16.309755 c -1.05833,0 -2.11666,0 -3.20146,0 l 0.0265,0.02646 c -0.0265,-0.3175 -0.0529,-0.661459 -0.0794,-1.084792 -1.08479,0 -2.06375,0 -3.06917,0 0,-0.687917 0,-1.402292 0,-2.090208 1.00542,0 1.98438,0 3.04271,0 0.0529,0.529166 0.10583,0.9525 0.15875,1.508125 0.9525,0 1.93146,0 3.09562,0 0.0265,0.635 0.0265,1.137708 0.0265,1.640416 z"
         id="path801"
         style="stroke-width:0.264583" />
      <path
         d="m 176.45313,-44.884754 c 1.00542,0 1.98437,0 3.06917,0 0.0265,0.529166 0.0529,0.9525 0.0794,1.561041 -1.08479,0 -2.11667,0 -3.14854,0 0,-0.502708 0,-1.031875 0,-1.561041 z"
         id="path803"
         style="stroke-width:0.264583" />
      <path
         d="m 176.45313,-41.709754 c 1.00542,0 1.98437,0 3.06917,0 0.0265,0.529166 0.0529,0.9525 0.0794,1.561041 -1.08479,0 -2.11667,0 -3.14854,0 0,-0.502708 0,-1.031875 0,-1.561041 z"
         id="path805"
         style="stroke-width:0.264583" />
      <path
         d="m 179.81334,-25.543713 c 0.89958,-0.132292 1.82562,-0.264583 2.8575,-0.396875 0,0.661458 0,1.11125 0,1.799167 -1.03188,-0.132292 -2.03729,-0.238125 -3.04271,-0.370417 0.0529,-0.343958 0.10583,-0.687917 0.18521,-1.031875 z"
         id="path807"
         style="stroke-width:0.264583" />
      <path
         d="m 182.75021,-16.309755 c -0.34396,1.931459 -1.79916,1.613959 -3.12208,1.5875 0,-0.529166 0,-1.031875 0,-1.561041 1.03187,-0.02646 2.09021,-0.02646 3.12208,-0.02646 z"
         id="path809"
         style="stroke-width:0.264583" />
      <path
         class="st2"
         d="m 182.75021,-16.309755 c -1.05833,0 -2.09021,0 -3.14854,0 0,-0.370416 0,-0.714375 0,-1.084791 0.97896,0 1.98438,0 3.06917,0 0.0265,0.423333 0.0529,0.767291 0.0794,1.084791 z"
         id="path811"
         style="fill:#ac465c;stroke-width:0.264583" />
      <path
         d="m 192.32813,-71.872254 c -0.0265,0.47625 -0.0529,0.9525 -0.0794,1.508125 -0.97895,0 -1.98437,0 -3.06916,0 -0.0265,-0.449792 -0.0794,-0.899583 -0.13229,-1.481667 -1.00542,0 -1.98438,0 -3.09563,0 0,-0.608541 0,-1.137708 0,-1.640416 0,0 -0.0265,0.02646 -0.0265,0.02646 2.11667,0 4.20688,0 6.32354,0 0.0265,0.529167 0.0529,1.058333 0.0794,1.5875 z"
         id="path813"
         style="stroke-width:0.264583" />
      <path
         class="st0"
         d="m 192.24875,-73.433296 c -2.11666,0 -4.20687,0 -6.32354,0 0,-0.47625 0,-0.9525 0,-1.613958 2.14313,0 4.23334,0 6.32354,0 0,0.529167 0,1.058333 0,1.613958 z"
         id="path815"
         style="fill:#ea8398;stroke-width:0.264583" />
      <path
         d="m 192.24875,-65.548712 c -1.00541,0 -1.98437,0 -3.06916,0 -0.0265,-0.502709 -0.0529,-0.9525 -0.0794,-1.561042 1.08479,0 2.11667,0 3.14854,0 0,0.529167 0,1.058333 0,1.561042 z"
         id="path817"
         style="stroke-width:0.264583" />
      <path
         d="m 189.0473,-0.40829653 c 0.0264,-0.52916666 0.0529,-1.05833327 0.0529,-1.61395827 2.06375,0 4.1275,0 6.27063,0 0.0265,0.5291666 0.0529,0.9789583 0.0794,1.56104161 1.00542,0 2.01083,0 3.06917,0 0,1.08479165 0,2.06374999 0,3.25437499 -1.00542,0 -2.06375,0 -3.09563,0 -1.00541,0 -2.01083,0 -3.09562,0 -0.0529,-0.555625 -0.10583,-1.0054167 -0.15875,-1.5875 -0.97896,0 -1.95792,0 -3.04271,0 0,-0.60854167 -0.0265,-1.11125 -0.0794,-1.61395833 z"
         id="path819"
         style="stroke-width:0.264583" />
      <path
         d="m 195.47667,-29.009754 c 0,-2.06375 0,-4.1275 0,-6.35 -1.11125,0 -2.11667,0 -3.175,0 0,-0.635 0,-1.11125 0,-1.5875 2.09021,0 4.18042,0 6.29708,0 0,2.592916 0,5.185833 0,7.9375 -1.05833,0 -2.09021,0 -3.12208,0 z"
         id="path821"
         style="stroke-width:0.264583" />
      <path
         d="m 192.30167,-16.309755 c 0,-0.47625 0,-0.9525 0,-1.5875 1.05833,0 2.09021,0 3.12208,0 0,0.47625 0,0.9525 0,1.5875 -1.03187,0 -2.0902,0 -3.12208,0 z"
         id="path823"
         style="stroke-width:0.264583" />
      <path
         d="m 185.92521,-41.683296 c 0,-0.47625 0,-0.9525 0,-1.5875 1.08479,0 2.11667,0 3.14854,0 0,0.47625 0,0.9525 0,1.5875 -1.08479,0 -2.11666,0 -3.14854,0 z"
         id="path825"
         style="stroke-width:0.264583" />
      <path
         d="m 182.75021,-0.40829653 c 0,-0.47624999 0,-0.95249997 0,-1.50812497 1.03188,0 2.01084,0 3.14854,0 0,0.47625 0,0.97895831 0,1.48166664 -1.05833,0 -2.0902,0 -3.14854,0.0264583 z"
         id="path827"
         style="stroke-width:0.264583" />
      <path
         d="m 185.92521,-16.309755 c 1.00542,0 2.01084,0 3.09563,0 0,0.529167 0,1.005417 0,1.508125 -1.00542,0 -1.95792,0 -3.06917,0 -0.0265,-0.502708 -0.0265,-1.005416 -0.0265,-1.508125 0,0 0,0 0,0 z"
         id="path829"
         style="stroke-width:0.264583" />
      <path
         d="m 189.10021,-44.884754 c -1.00541,0 -2.01083,0 -3.09562,0 0,-3.730625 0,-7.355417 0,-11.033125 1.00541,0 1.95791,0 3.09562,0 0,3.677708 0,7.355416 0,11.033125 0,0 0,0 0,0 z"
         id="path831"
         style="stroke-width:0.264583" />
      <path
         d="m 182.72375,-70.284754 c 1.00542,0 2.01084,0 3.09563,0 0,1.031875 0,2.010833 0,3.069167 -0.9525,0 -1.95792,0 -3.06917,0 0,-1.005417 0,-2.037292 -0.0265,-3.069167 0.0265,-0.02646 0,0 0,0 z"
         id="path833"
         style="stroke-width:0.264583" />
    </g>
    <g
       id="g1611"
       transform="matrix(-0.99479162,0,0,1,150.64136,0.35447984)">
      <path
         d="m 72.008885,-0.32403945 c 0.329262,1.73522085 -2.069636,1.40035335 -3.386667,1.79610615 -0.564444,0.1826549 -1.364071,0.030444 -2.163716,0.030444 0,1.2481418 0,2.4353981 0,3.6226545 3.715929,0 7.431858,0 11.241867,0 0,0.7610614 0,1.3090259 0,1.8569904 l -0.04711,-0.030444 c 1.834436,0 3.621849,0 5.691485,0 0,1.3090259 0,2.4962823 0,3.6835384 l -0.04711,-0.03044 c 1.834436,0 3.715929,0 5.691485,0 0,2.557168 0,4.93168 0,7.306193 1.787396,0 3.574809,0 5.503325,0 0.04711,-0.60885 0.09404,-1.126372 0.141155,-1.826548 1.881476,0 3.715911,0 5.597401,0 0,-4.261947 0,-8.523893 0,-12.7858383 -1.83445,0 -3.668885,0 -5.644441,0 0,-0.6697351 0,-1.1872564 0,-1.8569915 -1.975556,0 -3.762969,0 -5.644444,0 0,-0.70017607 0,-1.24814056 0,-1.79610504 -5.644445,0.0304444 -11.288889,0.0304444 -16.933334,0.0304444 z"
         id="path779-6"
         style="stroke-width:0.378407" />
      <path
         class="st0"
         d="m 49.431107,47.166216 c 1.787413,0 3.527769,0 5.503324,0 0.09405,0.669734 0.141156,1.278584 0.2352,1.85699 3.715911,0 7.43184,0 11.194809,0 1.881476,-0.03044 3.762951,-0.03044 5.644445,-0.06089 0.04711,-0.578407 0.141155,-1.156813 0.188142,-1.856991 1.928515,0 3.668889,0 5.503342,0 0,-1.278583 0,-2.435398 0,-3.592211 l 0.04711,0.03044 c -1.834435,0 -3.715911,0 -5.597404,0 0,-0.730619 0,-1.278583 0,-1.826548 0,-0.60885 -0.04711,-1.248142 -0.04711,-1.85699 v 0 c -1.834436,0 -3.668889,0 -5.456285,0 -0.18816,0.730619 -0.282222,1.217698 -0.423342,1.826548 -1.881476,0 -3.668889,0 -5.409245,0 v 0 c 0,0.578407 0,1.156813 0,1.826548 -3.951111,0 -7.62,0 -11.288889,0 -0.09404,1.217699 -0.09404,2.435397 -0.09404,3.653097 z"
         id="path781-7"
         style="fill:#ea8398;stroke-width:0.378407" />
      <path
         class="st0"
         d="m 60.719996,94.717356 c -0.141156,0.578406 -0.282223,1.187256 -0.470365,1.765663 9.548516,0 19.144072,0 28.692587,0 0,-1.187257 0,-2.374513 0,-3.683539 -2.022595,0 -3.810009,0 -5.644444,0 0,-0.669735 0,-1.217699 0,-1.796106 l 0.04711,0.03044 c -1.881494,-0.03044 -3.715929,-0.03044 -5.597422,-0.06088 -1.881476,0.03044 -3.762952,0.03044 -5.644445,0.06088 -0.04693,0.578407 -0.141156,1.156814 -0.188142,1.856991 -1.928516,0 -3.668889,0 -5.409262,0 -0.09404,0.669735 -0.188143,1.187257 -0.282223,1.826549 -1.975555,0 -3.715911,0 -5.503324,0 z"
         id="path783-5"
         style="fill:#ea8398;stroke-width:0.378407" />
      <path
         d="m 83.297774,91.003374 c 0,0.547965 0,1.095929 0,1.796106 1.881475,0 3.621849,0 5.644444,0 0,1.309026 0,2.496282 0,3.683539 1.881476,0 3.762951,0 5.644445,0 0,-0.578407 0,-1.156814 0,-1.826548 2.022595,0 3.809991,0 5.644447,0 0,-1.217699 0,-2.435398 0,-3.653097 -1.787416,0 -3.574829,0 -5.550385,0 -0.04711,-0.578407 -0.141156,-1.126371 -0.188142,-1.826548 -1.834436,0 -3.668889,0 -5.503325,0 -0.04711,0.578407 -0.09404,1.156814 -0.18816,1.826548 -1.975555,0 -3.762951,0 -5.503324,0 z"
         id="path785-3"
         style="stroke-width:0.378407" />
      <path
         class="st0"
         d="m 55.122591,36.176483 c 0,1.156814 0,2.283185 0,3.68354 -2.069635,0 -3.904071,0 -5.691484,0 0,0.608849 0,1.217698 0,1.826548 3.762969,0 7.52592,0 11.288889,0 0,0 0,0 0,0 0,-1.796106 0,-3.592212 0,-5.510088 -2.116676,0 -3.857032,0 -5.597405,0 z"
         id="path787-5"
         style="fill:#ea8398;stroke-width:0.378407" />
      <path
         d="m 60.719996,41.686571 c -3.762969,0 -7.52592,0 -11.288889,0 0,0.608849 0,1.217699 0,1.826549 3.668889,0 7.337777,0 11.288889,0 0,-0.669736 0,-1.248142 0,-1.826549 z"
         id="path789-6"
         style="stroke-width:0.378407" />
      <path
         class="st2"
         d="m 83.297774,91.003374 c 1.787395,0 3.574809,0 5.550364,0 0.04711,-0.669734 0.141156,-1.248141 0.188142,-1.826548 -0.04711,-4.870796 -0.09404,-9.741591 -0.09404,-14.612387 -2.351858,0.03045 -4.985938,0.395753 -5.550382,-1.826548 -1.881476,0 -3.762951,0 -5.691467,0 0,0.578408 0,1.156814 0,1.765664 -2.022596,0 -3.715929,0 -5.456302,0 0,-0.60885 0,-1.126372 0,-1.735221 1.928515,0 3.715929,0 5.503324,0 0,-0.578407 0,-1.156814 0,-1.917875 2.069636,0 3.810009,0 5.503342,0 0.09405,-0.669736 0.188143,-1.156815 0.282223,-1.735221 1.881475,0 3.621849,0 5.409262,0 0,-1.948319 0,-3.866195 0,-5.814513 -1.787413,0.152213 -3.574827,0.273982 -5.409262,0.426195 0,-0.791504 0,-1.309027 0,-2.070088 1.834435,0.152212 3.433706,0.304424 5.08,0.456637 0.188142,-0.669734 0.423324,-1.309026 0.658524,-2.130973 1.599254,0 3.386667,0 5.315183,0 0,-3.135574 0,-6.149379 0,-9.163183 -7.478898,0 -14.910738,0 -22.389636,0 -0.04711,-0.73062 -0.09405,-1.278584 -0.188143,-1.826549 -1.881493,0.03045 -3.762968,0.03045 -5.644444,0.06089 0,0.547965 0,1.095929 0,1.826548 -1.881493,0 -3.668889,0 -5.644445,0 0,2.557168 0,4.931681 0,7.306194 0.04711,4.261946 0.09405,8.523891 0.09405,12.785838 1.834435,0 3.621849,0 5.550364,0 0,0.730619 0,1.278583 0,1.826548 0,4.809911 0,9.589378 0,14.551501 1.881476,0 3.621849,0 5.644445,0 0,0.730619 0,1.309026 0,1.887433 0.04711,0.60885 0.09404,1.217699 0.09404,1.856991 1.881494,-0.03044 3.762969,-0.03044 5.644445,-0.06088 0,-0.578407 0,-1.126371 0,-1.704778 2.022595,0 3.762969,0 5.597422,0 -0.04711,0.608849 -0.04711,1.156814 -0.04711,1.674336 z"
         id="path793-2"
         style="fill:#ffffff;fill-opacity:1;stroke-width:0.378407" />
      <path
         class="st2"
         d="m 55.122591,36.176483 c 1.740373,0 3.433707,0 5.597405,0 0,1.887434 0,3.713982 0,5.510088 1.787413,0 3.527769,0 5.409262,0 0.141156,-0.60885 0.235182,-1.095929 0.423324,-1.826548 1.787414,0 3.621849,0 5.456303,0 0,-4.231504 0,-8.463008 0,-12.694511 2.022595,0 3.715929,0 5.503324,0 0,4.261946 0,8.402122 0,12.694511 -1.928515,0 -3.715929,0 -5.503324,0 0,0.608849 0.04711,1.24814 0.04711,1.85699 1.834435,0 3.668889,0 5.597404,0 0,0.73062 0,1.278584 0,1.826549 l -0.04711,-0.03045 c 1.834436,0 3.668889,0 5.738525,0 0,1.309026 0,2.404955 0,3.683539 3.857031,0 7.52592,0 11.147769,0 0,-0.60885 0,-1.248142 0,-1.856991 -1.834436,0 -3.668889,0 -5.597405,0 0.04711,-0.700177 0.09404,-1.187256 0.141156,-1.796106 1.928533,0 3.668889,0 5.456302,0 0,-0.60885 0,-1.248141 0,-1.85699 -1.834435,0 -3.668889,0 -5.597404,0 0.04711,-0.700177 0.09404,-1.187256 0.141155,-1.796106 1.928533,0 3.668889,0 5.456302,0 0,-6.02761 0,-12.024777 0,-18.204598 -1.740373,0 -3.480746,0 -5.409262,0 -0.09404,-0.730619 -0.141155,-1.309026 -0.235182,-1.887433 -3.668889,0 -7.337778,0 -10.959627,0 -0.188142,0.700177 -0.376302,1.217699 -0.564444,1.826548 -1.834454,0 -3.574809,0 -5.268143,0 -0.04711,0.547964 -0.09404,1.095929 -0.141155,1.796106 -1.787414,0 -3.574809,0 -5.550365,0 0,1.278584 0,2.404955 0,3.622655 -1.928515,0 -3.621849,0 -5.550364,0 0,2.435396 0,4.779467 0,7.275749 -1.975556,0 -3.715929,0 -5.691485,0 0,0.700178 0,1.278584 0,1.856991 z"
         id="path795-9"
         style="fill:#ffffff;fill-opacity:1;stroke-width:0.378407" />
      <path
         class="st0"
         d="m 72.055925,21.624982 c 1.693333,0 3.433689,0 5.268142,0 0.188142,-0.608849 0.329262,-1.126371 0.564444,-1.826548 3.668889,0 7.290738,0 10.959627,0 0.04711,-0.608849 0.09404,-1.248141 0.09404,-1.856991 0,-2.374512 0,-4.749025 0,-7.306193 -2.022596,0 -3.857049,0 -5.691485,0 0,1.187257 0,2.374513 0,3.561769 -2.022595,0 -3.762969,0 -5.456302,0 0,-1.217698 0,-2.374512 0,-3.531327 1.928515,0 3.715929,0 5.503342,0 0,-1.187256 0,-2.3440692 0,-3.6835383 -2.069635,0 -3.857049,0 -5.691484,0 0,0.5784066 0,1.1568143 0,1.8874336 -1.975556,0 -3.762969,0 -5.503343,0 -0.09404,0.669734 -0.141155,1.1872567 -0.235182,1.7047777 -1.928515,0 -3.668889,0 -5.456284,0 -0.04711,-0.6392919 -0.09404,-1.1872564 -0.141156,-1.7352209 -1.740373,0 -3.527769,0 -5.409262,0 0,1.2481419 0,2.3136289 0,3.5922119 1.693333,0 3.433706,0 5.315182,0 0.09404,0.761062 0.141156,1.339468 0.2352,1.917876 1.834436,0 3.668889,0 5.597405,0 -0.04711,0.700176 -0.09404,1.217699 -0.141156,1.796105 -1.928516,0 -3.715929,0 -5.456284,0 0,0.547965 0,1.095929 0,1.796106 1.834435,0 3.574808,0 5.644444,0 0,1.309026 0,2.496283 0,3.683539 z"
         id="path797-1"
         style="fill:#ea8398;stroke-width:0.378407" />
      <path
         d="m 94.492583,47.166216 c -3.668889,0 -7.337778,0 -11.147769,0 0,-1.248142 0,-2.344071 0,-3.68354 -2.022596,0 -3.857049,0 -5.738525,0 0,1.156815 0,2.313629 0,3.592213 -1.834453,0 -3.574809,0 -5.503342,0 -0.09404,0.700176 -0.141156,1.278583 -0.188142,1.85699 0.04711,0.547965 0.09404,1.095929 0.188142,1.826548 7.478898,0 14.957778,0 22.389636,0 0,-1.156814 0,-2.374512 0,-3.592211 z"
         id="path799-2"
         style="stroke-width:0.378407" />
      <path
         d="m 77.653329,72.737891 c 1.881476,0 3.762951,0 5.691485,0 l -0.04711,0.03044 c 0.04711,-0.365309 0.09404,-0.761062 0.141155,-1.248141 1.928516,0 3.668889,0 5.456302,0 0,-0.791505 0,-1.613452 0,-2.404955 -1.787413,0 -3.527786,0 -5.409262,0 -0.09404,0.608848 -0.188142,1.095929 -0.282222,1.735221 -1.693333,0 -3.433707,0 -5.503325,0 -0.04711,0.730619 -0.04711,1.309026 -0.04711,1.887432 z"
         id="path801-7"
         style="stroke-width:0.378407" />
      <path
         d="m 94.492583,39.860023 c -1.787414,0 -3.527769,0 -5.456303,0 -0.04711,0.608849 -0.09404,1.095929 -0.141155,1.796105 1.928515,0 3.762969,0 5.597404,0 0,-0.578407 0,-1.187256 0,-1.796105 z"
         id="path803-0"
         style="stroke-width:0.378407" />
      <path
         d="m 94.492583,43.51312 c -1.787414,0 -3.527769,0 -5.456303,0 -0.04711,0.608848 -0.09404,1.095928 -0.141155,1.796105 1.928515,0 3.762969,0 5.597404,0 0,-0.578407 0,-1.187257 0,-1.796105 z"
         id="path805-9"
         style="stroke-width:0.378407" />
      <path
         d="m 88.518876,62.113469 c -1.599253,-0.152213 -3.245547,-0.304425 -5.08,-0.456637 0,0.761061 0,1.278584 0,2.070088 1.834453,-0.152213 3.621849,-0.273982 5.409262,-0.426195 -0.09404,-0.395752 -0.188142,-0.791504 -0.329262,-1.187256 z"
         id="path807-3"
         style="stroke-width:0.378407" />
      <path
         d="m 83.297774,72.737891 c 0.611484,2.222301 3.198506,1.856992 5.550364,1.826548 0,-0.608848 0,-1.187256 0,-1.796105 -1.834435,-0.03044 -3.715929,-0.03044 -5.550364,-0.03044 z"
         id="path809-6"
         style="stroke-width:0.378407" />
      <path
         class="st2"
         d="m 83.297774,72.737891 c 1.881475,0 3.715929,0 5.597404,0 0,-0.426194 0,-0.821947 0,-1.248141 -1.740373,0 -3.527786,0 -5.456302,0 -0.04711,0.48708 -0.09404,0.882831 -0.141156,1.248141 z"
         id="path811-0"
         style="fill:#ffffff;fill-opacity:1;stroke-width:0.378407" />
      <path
         d="m 66.27036,8.808702 c 0.04711,0.5479645 0.09405,1.095929 0.141156,1.735221 1.740355,0 3.527769,0 5.456284,0 0.04711,-0.517523 0.141156,-1.0350438 0.235182,-1.7047789 1.787414,0 3.527787,0 5.503343,0 0,-0.7001761 0,-1.3090259 0,-1.8874325 0,0 0.04711,0.030444 0.04711,0.030444 -3.762969,0 -7.478898,0 -11.241849,0 -0.04711,0.6088498 -0.09404,1.2176985 -0.141156,1.8265483 z"
         id="path813-6"
         style="stroke-width:0.378407" />
      <path
         class="st0"
         d="m 66.41148,7.0125958 c 3.762951,0 7.47888,0 11.241849,0 0,-0.5479645 0,-1.095929 0,-1.8569904 -3.810009,0 -7.525938,0 -11.241849,0 0,0.6088498 0,1.2176985 0,1.8569904 z"
         id="path815-2"
         style="fill:#ea8398;stroke-width:0.378407" />
      <path
         d="m 66.41148,16.084453 c 1.787396,0 3.527769,0 5.456285,0 0.04711,-0.578408 0.09404,-1.095929 0.141155,-1.796106 -1.928515,0 -3.762969,0 -5.597404,0 0,0.60885 0,1.217698 0,1.796106 z"
         id="path817-6"
         style="stroke-width:0.378407" />
      <path
         d="m 72.102947,91.033817 c -0.04693,-0.60885 -0.09404,-1.217699 -0.09404,-1.856991 -3.668888,0 -7.337777,0 -11.147786,0 -0.04711,0.608849 -0.09405,1.126371 -0.141156,1.796106 -1.787413,0 -3.574809,0 -5.456302,0 0,1.248141 0,2.374512 0,3.744424 1.787413,0 3.668889,0 5.503342,0 1.787396,0 3.574809,0 5.503325,0 0.09404,-0.639292 0.188142,-1.156814 0.282222,-1.826549 1.740373,0 3.480747,0 5.409262,0 0,-0.700177 0.04711,-1.278584 0.141156,-1.85699 z"
         id="path819-1"
         style="stroke-width:0.378407" />
      <path
         d="m 60.672956,58.125506 c 0,-2.374513 0,-4.749026 0,-7.306193 1.975555,0 3.762969,0 5.644444,0 0,-0.73062 0,-1.278584 0,-1.826549 -3.715929,0 -7.431858,0 -11.194809,0 0,2.983362 0,5.966724 0,9.132742 1.881476,0 3.715929,0 5.550365,0 z"
         id="path821-8"
         style="stroke-width:0.378407" />
      <path
         d="m 66.3174,72.737891 c 0,-0.547964 0,-1.095929 0,-1.826548 -1.881475,0 -3.715929,0 -5.550364,0 0,0.547964 0,1.095929 0,1.826548 1.834435,0 3.715911,0 5.550364,0 z"
         id="path823-7"
         style="stroke-width:0.378407" />
      <path
         d="m 77.653329,43.543562 c 0,-0.547965 0,-1.095929 0,-1.826549 -1.928515,0 -3.762969,0 -5.597404,0 0,0.547965 0,1.095929 0,1.826549 1.928515,0 3.762951,0 5.597404,0 z"
         id="path825-9"
         style="stroke-width:0.378407" />
      <path
         d="m 83.297774,91.033817 c 0,-0.547965 0,-1.095929 0,-1.735221 -1.834454,0 -3.574827,0 -5.597405,0 0,0.547964 0,1.126371 0,1.704778 1.881476,0 3.715911,0 5.597405,0.03044 z"
         id="path827-2"
         style="stroke-width:0.378407" />
      <path
         d="m 77.653329,72.737891 c -1.787413,0 -3.574827,0 -5.503342,0 0,0.60885 0,1.156814 0,1.735221 1.787413,0 3.480747,0 5.456302,0 0.04711,-0.578407 0.04711,-1.156813 0.04711,-1.735221 0,0 0,0 0,0 z"
         id="path829-0"
         style="stroke-width:0.378407" />
      <path
         d="m 72.008885,39.860023 c 1.787395,0 3.574809,0 5.503324,0 0,-4.292389 0,-8.463008 0,-12.694511 -1.787395,0 -3.480729,0 -5.503324,0 0,4.231503 0,8.463007 0,12.694511 0,0 0,0 0,0 z"
         id="path831-2"
         style="stroke-width:0.378407" />
      <path
         d="m 83.344814,10.63525 c -1.787414,0 -3.574827,0 -5.503343,0 0,1.187257 0,2.313628 0,3.531327 1.693334,0 3.480747,0 5.456303,0 0,-1.156814 0,-2.34407 0.04711,-3.531327 -0.04711,-0.03044 0,0 0,0 z"
         id="path833-3"
         style="stroke-width:0.378407" />
    </g>
  </g>
</svg>
