<?xml version="1.0" encoding="UTF-8" standalone="no"?>
<!-- Generator: Adobe Illustrator 25.0.0, SVG Export Plug-In . SVG Version: 6.00 Build 0)  -->

<svg
   version="1.1"
   id="Layer_1"
   x="0px"
   y="0px"
   viewBox="0 0 507.29999 161.7"
   xml:space="preserve"
   sodipodi:docname="1.svg"
   width="507.29999"
   height="161.7"
   inkscape:version="1.2.2 (b0a8486541, 2022-12-01)"
   xmlns:inkscape="http://www.inkscape.org/namespaces/inkscape"
   xmlns:sodipodi="http://sodipodi.sourceforge.net/DTD/sodipodi-0.dtd"
   xmlns="http://www.w3.org/2000/svg"
   xmlns:svg="http://www.w3.org/2000/svg"><defs
   id="defs253" /><sodipodi:namedview
   id="namedview251"
   pagecolor="#505050"
   bordercolor="#ffffff"
   borderopacity="1"
   inkscape:showpageshadow="0"
   inkscape:pageopacity="0"
   inkscape:pagecheckerboard="1"
   inkscape:deskcolor="#505050"
   showgrid="false"
   inkscape:zoom="1.5733333"
   inkscape:cx="266.94915"
   inkscape:cy="151.27119"
   inkscape:window-width="1536"
   inkscape:window-height="923"
   inkscape:window-x="0"
   inkscape:window-y="0"
   inkscape:window-maximized="1"
   inkscape:current-layer="Layer_1" />
<style
   type="text/css"
   id="style2">
	.st0{fill:#FE0048;}
	.st1{fill:#FEFEFE;}
	.st2{fill:#939393;}
	.st3{fill:#AD475D;}
	.st4{fill:#C26045;}
	.st5{fill:#CCCCCC;}
	.st6{fill:#CBFEB6;}
</style>



<path
   class="st1"
   d="m 56,33.7 c 0,-2.5 0,-5 0,-7.8 2.5,-0.4 5.2,-0.1 7.8,-0.1 2.6,0 5.3,0 8.1,0 0,-2.6 0,-5 0,-7.8 8,0 15.9,0 24,0 0,-2.8 0,-5.2 0,-8.0000002 8.1,0 15.9,0 24.2,0 0,-2.9 0,-5.6 0,-8.2 42.7,0 85.3,0 128,0 0,2.7 0,5.3 0,8 -10.6,0 -21.1,0 -32,0 0,2.8000002 0,5.4000002 0,8.0000002 -10.7,0 -21.3,0 -32,0 0,-2.6 0,-5.2 0,-8.0000002 -10.6,0 -20.9,0 -31.2,0 -0.1,0 -0.3,0.1 -0.4,0.2 C 152.4,10.1 152.2,10.2 152.2,10.3 c 0,2.5 0,5 0,7.5 -10.6,0 -21.1,0 -32,0 0,2.8 0,5.4 0,8 -10.6,0 -21.2,0 -32.2,0 0,2.9 0,5.5 0,8 C 77,33.7 66.5,33.7 56,33.7 Z"
   id="path10" />
<path
   class="st1"
   d="m 280,1.6999998 c 42.7,0 85.3,0 128,0 0,2.6 0,5.2 0,8 5.5,0 10.8,0 16,0 C 424,12.3 424,14.9 424,17.7 c 5.5,0 10.8,0 16,0 0,5.3 0,10.5 0,15.8 -5.5,0 -10.7,0 -16.1,0 0,-2.6 0,-5.1 0,-7.8 -5.4,0 -10.7,0 -15.9,0 0,-2.6 0,-5.2 0,-8 -10.9,0 -21.4,0 -32,0 0,-2.6 0,-5.2 0,-8.0000002 -10.6,0 -20.9,0 -31.2,0 -0.1,0 -0.3,0.1 -0.4,0.2 -0.1,0.1 -0.3,0.2000002 -0.3,0.3000002 0,2.5 0,5 0,7.5 -10.7,0 -21.3,0 -32,0 0,-2.6 0,-5.2 0,-8.0000002 -10.9,0 -21.4,0 -32,0 -0.1,-2.7 -0.1,-5.3 -0.1,-8 z"
   id="path12" />
<path
   class="st2"
   d="m 472,121.7 c -5.2,0 -10.3,0 -15.8,0 0,-2.5 0,-5.1 0,-8 -5.6,0 -10.9,0 -16.2,0 0,-2.7 0,-5.3 0,-8 5.2,0 10.5,0 16,0 0,-2.8 0,-5.4 0,-8 5.2,0 10.5,0 16,0 0,-2.8 0,-5.4 0,-8 5.2,0 10.5,0 16,0 0,-2.8 0,-5.4 0,-8 5.3,0 10.7,0 16,0 0,16 0,32 0,48 -5.3,0 -10.7,0 -16,0 0,-2.6 0,-5.2 0,-8 -5.5,0 -10.8,0 -16,0 z"
   id="path14" />
<path
   class="st1"
   d="m 456,1.6999998 c 16,0 32,0 48,0 C 504,15 504,28.4 504,41.7 c -5.3,0 -10.7,0 -16,0 0,-2.6 0,-5.2 0,-8 -5.5,0 -10.8,0 -16,0 0,-2.6 0,-5.2 0,-8 -5.5,0 -10.8,0 -16,0 0,-2.6 0,-5.2 0,-8 -5.5,0 -10.8,0 -16,0 0,-2.7 0,-5.3 0,-8.0000002 5.2,0 10.5,0 16,0 0,-2.8 0,-5.4 0,-8 z"
   id="path16" />
<path
   class="st3"
   d="m 240,161.7 c -2.7,0 -5.3,0 -8,0 0,-2.6 0,-5.2 0,-8 -2.8,0 -5.4,0 -8,0 0,-2.7 0,-5.3 0,-8 2.6,0 5.2,0 8,0 0,-2.8 0,-5.4 0,-8 0,-2.6 0,-5.2 0,-8 8,0 15.6,0 23.2,0 0.1,0 0.3,0.1 0.4,0.2 0.1,0.1 0.2,0.2 0.3,0.4 0,2.5 0,5 0,7.5 0,2.7 0,5.3 0,8 -2.7,0 -5.3,0 -8.1,-0.1 -0.1,-2.5 -0.1,-5.1 -0.1,-7.7 -2.7,0 -5.2,0 -7.8,0 0,2.6 0,5.1 0,7.6 2.7,0 5.3,0 7.8,0.1 0.1,2.7 0.1,5.4 0.1,8.1 -2.6,0 -5.2,0 -8,0 0.2,2.7 0.2,5.3 0.2,7.9 z"
   id="path18" />
<path
   class="st1"
   d="m 504,57.7 c 0,2.7 0,5.3 0,8 -5.3,0 -10.7,0 -16,0 -16,0 -32,0 -48,0 0,-2.7 0,-5.3 0,-8 16,0 32,0 48,0 5.3,0 10.7,0 16,0 z"
   id="path20" />

<path
   class="st3"
   d="m 296,161.7 c -2.7,0 -5.3,0 -8,0 0,-2.6 0,-5.2 0,-8 -2.8,0 -5.4,0 -8,0 0,-2.7 0,-5.3 0,-8 2.6,0 5.2,0 8,0 0,-2.8 0,-5.4 0,-8 0,-2.6 0,-5.2 0,-8 2.9,0.1 5.5,-0.1 8,0.2 0,2.9 0,5.4 0,7.9 0,2.6 0,5.2 0,8 2.8,0 5.4,0 8,0 0,2.7 0,5.3 0,8 -2.6,0 -5.2,0 -8,0 0,2.7 0,5.3 0,7.9 z"
   id="path24" />

<path
   class="st4"
   d="m 0,57.7 c 5.3,0 10.7,0 16,0 0,2.7 0,5.3 0,8 0,2.6 0,5.2 0,8 -5.5,0 -10.8,0 -16,0 0,-5.3 0,-10.7 0,-16 z"
   id="path28" />

<ellipse
   class="st5"
   cx="264"
   cy="5.6999998"
   rx="22.6"
   ry="5.6999998"
   id="ellipse32" />
<path
   class="st3"
   d="m 272,161.7 c -5.3,0 -10.7,0 -16,0 0,-2.7 0,-5.3 0,-8 0,-2.7 0,-5.3 0,-8 5.3,0 10.7,0 16,0 0,2.7 0,5.3 0,8 0,2.7 0,5.3 0,8 z"
   id="path34" />
<path
   class="st2"
   d="m 224,153.7 c 2.6,0 5.2,0 8,0 0,2.8 0,5.4 0,8 -5.3,0 -10.7,0 -16,0 0,-2.7 0,-5.3 0,-8 2.7,0 5.3,0 8,0 z"
   id="path36" />
<path
   class="st2"
   d="m 256,153.7 c 0,2.7 0,5.3 0,8 -5.3,0 -10.7,0 -16,0 0,-2.6 0,-5.2 0,-8 2.8,0 5.4,0 8,0 2.7,0 5.3,0 8,0 z"
   id="path38" />
<path
   class="st2"
   d="m 272,161.7 c 0,-2.7 0,-5.3 0,-8 2.7,0 5.3,0 8,0 2.6,0 5.2,0 8,0 0,2.8 0,5.4 0,8 -5.3,0 -10.7,0 -16,0 z"
   id="path40" />
<path
   class="st2"
   d="m 296,161.7 c 0,-2.6 0,-5.2 0,-8 2.8,0 5.4,0 8,0 2.7,0 5.3,0 8,0 0,2.7 0,5.3 0,8 -5.3,0 -10.7,0 -16,0 z"
   id="path42" />
<path
   class="st4"
   d="m 328,153.7 c 2.6,0 5.2,0 8,0 0,2.8 0,5.4 0,8 -2.7,0 -5.3,0 -8,0 0,-2.7 0,-5.3 0,-8 z"
   id="path44" />
<path
   class="st2"
   d="m 488,65.7 c 0,5.3 0,10.7 0,16 -5.2,0 -10.5,0 -16,0 0,2.8 0,5.4 0,8 -5.2,0 -10.5,0 -16,0 0,2.8 0,5.4 0,8 -5.2,0 -10.5,0 -16,0 0,2.8 0,5.4 0,8 -5.2,0 -10.5,0 -16,0 0,2.8 0,5.4 0,8 -5.3,0 -10.7,0 -16,0 0,-2.6 0,-5.2 0,-8 -10.6,0 -20.9,0 -31.2,0 -0.1,0 -0.3,0.1 -0.4,0.2 -0.1,0.1 -0.3,0.2 -0.3,0.3 0,2.5 0,5 0,7.5 -10.7,0 -21.3,0 -32,0 0,-2.6 0,-5.2 0,-8 -2.8,0 -5.4,0 -8,0 0,-2.6 0,-5.2 0,-8 -2.8,0 -5.4,0 -8,0 0,-2.6 0,-5.2 0,-8 -2.8,0 -5.4,0 -8,0 0,-2.7 0,-5.3 0,-8 2.6,0 5.2,0 8,0 0,-2.8 0,-5.4 0.1,-8.1 2.5,-0.1 5.1,-0.1 7.7,-0.1 0,-2.7 0,-5.2 0,-7.8 -2.6,0 -5.1,0 -7.6,0 0,2.7 0,5.3 -0.1,7.8 -2.7,0.1 -5.2,0.1 -8.1,0.1 0,2.8 0,5.4 0,8 -2.7,0 -5.3,0 -8,0 0,-2.6 0,-5.2 0,-8 -2.8,0 -5.4,0 -8.1,-0.1 -0.1,-2.5 -0.1,-5.1 -0.1,-7.7 -2.7,0 -5.2,0 -7.8,0 0,2.6 0,5.1 0,7.6 2.7,0 5.3,0 7.8,0.1 0.1,2.7 0.1,5.2 0.1,8.1 2.8,0 5.4,0 8,0 0,2.7 0,5.3 0,8 -2.6,0 -5.2,0 -8,0 0,2.8 0,5.4 -0.1,8.1 -2.5,0.1 -5.1,0.1 -7.7,0.1 0,2.7 0,5.2 0,7.8 2.6,0 5.1,0 7.6,0 0,-2.7 0,-5.3 0.1,-7.8 2.7,-0.1 5.2,-0.1 8.1,-0.1 0,-2.8 0,-5.4 0,-8 2.7,0 5.3,0 8,0 0,2.6 0,5.2 0,8 2.8,0 5.4,0 8,0 0,2.7 0,5.3 0,8 -5.2,0 -10.5,0 -16,0 0,2.8 0,5.4 0,8 -10.7,0 -21.3,0 -32,0 0,-2.6 0,-5.2 0,-8 -2.8,0 -5.4,0 -8,0 0,-8 0,-16 0,-24 2.6,0 5.2,0 8,0 0,-2.8 0,-5.4 0.1,-8.1 2.5,-0.1 5.1,-0.1 7.7,-0.1 0,-2.7 0,-5.2 0,-7.8 -2.6,0 -5.1,0 -7.6,0 0,2.7 0,5.3 -0.1,7.8 -2.7,0.1 -5.2,0.1 -8.1,0.1 0,2.8 0,5.4 0,8 -2.7,0 -5.3,0 -8,0 0,-2.6 0,-5.2 0,-8 -2.8,0 -5.4,0 -8.1,-0.1 -0.1,-2.5 -0.1,-5.1 -0.1,-7.7 -2.7,0 -5.2,0 -7.8,0 0,2.6 0,5.1 0,7.6 2.7,0 5.3,0 7.8,0.1 0.1,2.7 0.1,5.2 0.1,8.1 2.8,0 5.4,0 8,0 0,8 0,16 0,24 -5.2,0 -10.5,0 -16,0 0,2.8 0,5.4 0,8 -10.7,0 -21.3,0 -32,0 0,-2.6 0,-5.2 0,-8 -2.8,0 -5.4,0 -8,0 0,-13.3 0,-26.6 0,-40 -2.9,0.1 -5.5,-0.1 -8,0.2 0,13.6 0,26.7 0,39.9 -2.7,0 -5.3,0 -8,0 0,-2.6 0,-5.2 0,-8 -2.9,0.1 -5.5,-0.1 -8,0.2 0,2.9 0,5.4 0,7.9 0,2.7 0,5.3 0,8 -10.7,0 -21.3,0 -32,0 0,-2.7 0,-5.3 0,-8.1 2.6,-0.1 5.2,-0.1 8,-0.1 0,-5.3 0,-10.4 0,-15.9 8.1,0 16,0 23.8,0 0,-2.8 0,-5.3 0,-8.1 -8,0 -15.9,0 -24,0 0,-5.5 0,-10.6 0,-15.9 -2.7,0.1 -5.3,-0.1 -7.9,0.2 0,13.5 0,26.7 0,39.8 -10.7,0.1 -21.3,0.1 -32,0.1 -8,0 -16,0 -24,0 -2.7,0 -5.3,0 -8,0 0,-2.6 0,-5.2 0,-8 -5.5,0 -10.8,0 -16,0 -5.2,0 -10.5,0 -16,0 0,-2.8 0,-5.4 0,-8 0,-2.6 0,-5.2 0,-8 -5.5,0 -10.8,0 -16,0 -5.3,0 -10.5,0 -16,0 0,-5.5 0,-10.7 0,-16 0,-2.7 0,-5.3 0,-8 10.7,0 21.3,0 32,0 0,2.6 0,5.2 0,8 10.6,0 20.9,0 31.2,0 0.1,0 0.3,-0.1 0.4,-0.2 0.1,-0.1 0.3,-0.2 0.3,-0.3 0,-2.5 0,-5 0,-7.5 10.6,0 21.2,0 32.2,0 0,-2.9 0,-5.5 0,-8 10.8,0 21.3,0 31.8,0 0,2.6 0,5.2 0,8 10.6,0 20.9,0 31.2,0 0.1,0 0.3,-0.1 0.4,-0.2 0.1,-0.1 0.3,-0.2 0.3,-0.3 0,-2.5 0,-5 0,-7.5 10.7,0 21.3,0 32,0 0,2.6 0,5.2 0,8 10.6,0 20.9,0 31.2,0 0.1,0 0.3,-0.1 0.4,-0.2 0.1,-0.1 0.3,-0.2 0.3,-0.3 0,-2.5 0,-5 0,-7.5 10.7,0 21.3,0 32,0 0,2.6 0,5.2 0,8 10.6,0 20.9,0 31.2,0 0.1,0 0.3,-0.1 0.4,-0.2 0.1,-0.1 0.3,-0.2 0.3,-0.3 0,-2.5 0,-5 0,-7.5 10.7,0 21.3,0 32,0 0,2.6 0,5.2 0,8 10.6,0 20.9,0 31.2,0 0.1,0 0.3,-0.1 0.4,-0.2 0.1,-0.1 0.3,-0.2 0.3,-0.3 0,-2.5 0,-5 0,-7.5 10.6,0 21.2,0 32.2,0 0,2.9 0,5.5 0,8 2.8,0 5.3,0 7.8,0 0,2.6 0,5.2 0,8 5.5,0 10.8,0 16,0 2.7,0 5.3,0 8,0 C 456,65.7 472,65.7 488,65.7 Z M 232.1,89.5 c 2.9,0 5.3,0 7.9,0 0,-8.1 0,-15.9 0,-23.7 -2.9,0 -5.4,0 -7.9,0 0,8 0,15.8 0,23.7 z m -63.9,8.3 c 0,2.9 0,5.3 0,7.9 2.7,-0.1 5.3,0.1 7.7,-0.1 0,-2.9 0,-5.3 0,-7.8 -2.7,0 -5.1,0 -7.7,0 z M 216,89.5 c 2.7,0.2 5.3,0.3 7.8,0 0,-2.8 0,-5.3 0,-7.9 -2.7,0.1 -5.3,-0.1 -7.8,0.1 0,2.9 0,5.2 0,7.8 z m 0.2,-23.8 c -0.2,2.7 -0.3,5.3 0,7.8 2.8,0 5.3,0 7.9,0 -0.1,-2.7 0.1,-5.3 -0.1,-7.8 -2.9,0 -5.2,0 -7.8,0 z m -32.1,7.8 c 2.9,0 5.3,0 7.7,0 0,-2.7 0,-5.3 0,-7.7 -2.7,0 -5.1,0 -7.7,0 0,2.7 0,5.1 0,7.7 z m -15.9,-7.7 c 0,2.9 0,5.3 0,7.9 2.7,-0.1 5.3,0.1 7.7,-0.1 0,-2.9 0,-5.3 0,-7.8 -2.7,0 -5.1,0 -7.7,0 z"
   id="path46" />
<path
   class="st2"
   d="m 296,137.7 c 0,-2.5 0,-5 0,-7.9 -2.5,-0.3 -5.1,-0.1 -8,-0.2 0,2.8 0,5.4 0,8 -2.7,0 -5.3,0 -8,0 0,-2.6 0,-5.2 0,-8 -2.9,0.1 -5.5,-0.1 -8,0.2 0,2.9 0,5.4 0,7.9 -5.3,0 -10.7,0 -16,0 0,-2.5 0,-5 0,-7.5 -0.1,-0.1 -0.2,-0.3 -0.3,-0.4 -0.1,-0.1 -0.3,-0.2 -0.4,-0.2 -7.6,0 -15.3,0 -23.2,0 0,2.8 0,5.4 0,8 -5.3,0 -10.7,0 -16,0 0,-2.7 0,-5.3 0,-8 0,-2.7 0,-5.3 0,-8 10.6,0 21.1,0 32,0 0,-2.8 0,-5.4 0,-8 10.7,0 21.3,0 32,0 0,2.6 0,5.2 0,8 10.9,0 21.4,0 32,0 0,2.7 0,5.3 0,8 0,2.7 0,5.3 0,8 -5.4,0.1 -10.8,0.1 -16.1,0.1 z"
   id="path48" />
<path
   class="st2"
   d="m 152,121.7 c -10.6,0 -21.1,0 -32,0 0,-2.8 0,-5.4 0,-8 10.7,0 21.3,0 32,0 0,2.7 0,5.3 0,8 z"
   id="path50" />
<path
   class="st2"
   d="m 184,129.7 c -10.6,0 -21.1,0 -32,0 0,-2.8 0,-5.4 0,-8 10.7,0 21.3,0 32,0 0,2.7 0,5.3 0,8 z"
   id="path52" />
<ellipse
   class="st5"
   cx="200"
   cy="125.7"
   rx="22.6"
   ry="5.6999998"
   id="ellipse54" />
<path
   class="st1"
   d="m 96,105.7 c 8,0 16,0 24,0 0,2.7 0,5.3 0,8 -7.9,0 -15.8,0 -24,0 0,-2.8 0,-5.4 0,-8 z"
   id="path56" />
<path
   class="st1"
   d="m 40,81.7 c 5.2,0 10.5,0 16,0 0,2.8 0,5.4 0,8 -5.2,0 -10.5,0 -16,0 0,-2.8 0,-5.4 0,-8 z"
   id="path58" />
<path
   class="st1"
   d="m 72,97.7 c 5.2,0 10.5,0 16,0 0,2.8 0,5.4 0,8 -5.2,0 -10.5,0 -16,0 0,-2.8 0,-5.4 0,-8 z"
   id="path60" />
<path
   class="st5"
   d="m 216,137.7 c 5.3,0 10.7,0 16,0 0,2.6 0,5.2 0,8 -2.8,0 -5.4,0 -8,0 -2.7,0 -5.3,0 -8,0 0,-2.7 0,-5.3 0,-8 z"
   id="path62" />
<circle
   class="st1"
   cx="20"
   cy="61.700001"
   r="5.6999998"
   id="circle64" />
<circle
   class="st1"
   cx="220"
   cy="149.7"
   r="5.6999998"
   id="circle66" />
<ellipse
   class="st2"
   cx="392"
   cy="117.7"
   rx="22.6"
   ry="5.6999998"
   id="ellipse68" />
<ellipse
   class="st5"
   cx="328"
   cy="125.7"
   rx="22.6"
   ry="5.6999998"
   id="ellipse70" />
<path
   class="st2"
   d="m 344,129.7 c 0,-2.7 0,-5.3 0,-8 10.7,0 21.3,0 32,0 0,2.6 0,5.2 0,8 -10.9,0 -21.4,0 -32,0 z"
   id="path72" />
<path
   class="st5"
   d="m 408,121.7 c 0,-2.7 0,-5.3 0,-8 5.3,0 10.7,0 16,0 0,2.6 0,5.2 0,8 -5.5,0 -10.8,0 -16,0 z"
   id="path74" />
<path
   class="st5"
   d="m 424,113.7 c 0,-2.6 0,-5.2 0,-8 5.5,0 10.8,0 16,0 0,2.7 0,5.3 0,8 -5.3,0 -10.7,0 -16,0 z"
   id="path76" />
<path
   class="st4"
   d="m 472,121.7 c 5.2,0 10.5,0 16,0 0,2.8 0,5.4 0,8 -5.2,0 -10.5,0 -16,0 0,-2.8 0,-5.4 0,-8 z"
   id="path78" />
<path
   class="st5"
   d="m 296,137.7 c 5.3,0 10.7,0 16,0 0,2.7 0,5.3 0,8 -2.7,0 -5.3,0 -8,0 -2.6,0 -5.2,0 -8,0 0,-2.8 0,-5.4 0,-8 z"
   id="path80" />
<circle
   class="st1"
   cx="308"
   cy="149.7"
   r="5.6999998"
   id="circle82" />
<path
   class="st4"
   d="m 327.9,153.6 c -2.5,0 -5.1,0 -7.8,0 0,-2.6 0,-5 0,-7.6 2.5,0 5.1,0 7.8,0 0,2.5 0,5.1 0,7.6 z"
   id="path84" />
<path
   class="st1"
   d="m 32,49.7 c 0,-2.6 0,-5.2 0,-8 2.7,0 5.2,0 7.9,0 0,-2.7 0,-5.3 0,-8 5.6,0 10.8,0 16.1,0 0,2.7 0,5.3 0,8 -2.6,0 -5.2,0 -8,0 0,2.8 0,5.4 0,8 -5.3,0 -10.7,0 -16,0 z"
   id="path86" />
<path
   class="st5"
   d="m 32,49.7 c 5.3,0 10.7,0 16,0 2.7,0 5.3,0 8,0 0,2.7 0,5.3 0,8 -10.7,0 -21.3,0 -32,0 0,-2.6 0,-5.2 0,-8 2.8,0 5.4,0 8,0 z"
   id="path88" />
<path
   class="st5"
   d="m 56,41.7 c 0,-2.7 0,-5.3 0,-8 10.5,0 21,0 31.8,0 0,-2.5 0,-5.1 0,-8 11,0 21.6,0 32.2,0 0,2.6 0,5.2 0,8 10.6,0 20.9,0 31.2,0 0.1,0 0.3,-0.1 0.4,-0.2 0.1,-0.1 0.3,-0.2 0.3,-0.3 0,-2.5 0,-5 0,-7.5 10.7,0 21.3,0 32,0 0,2.6 0,5.2 0,8 10.6,0 20.9,0 31.2,0 0.1,0 0.3,-0.1 0.4,-0.2 0.1,-0.1 0.3,-0.2 0.3,-0.3 0,-2.5 0,-5 0,-7.5 10.7,0 21.3,0 32,0 0,2.6 0,5.2 0,8 10.6,0 20.9,0 31.2,0 0.1,0 0.3,-0.1 0.4,-0.2 0.1,-0.1 0.3,-0.2 0.3,-0.3 0,-2.5 0,-5 0,-7.5 10.7,0 21.3,0 32,0 0,2.6 0,5.2 0,8 10.6,0 20.9,0 31.2,0 0.1,0 0.3,-0.1 0.4,-0.2 0.1,-0.1 0.3,-0.2 0.3,-0.3 0,-2.5 0,-5 0,-7.5 10.7,0 21.3,0 32,0 0,2.6 0,5.2 0,8 10.6,0 20.9,0 31.2,0 0.1,0 0.3,-0.1 0.4,-0.2 0.1,-0.1 0.3,-0.2 0.3,-0.3 0,-2.5 0,-5 0,-7.5 5.3,0 10.5,0 15.9,0 0,2.7 0,5.2 0,7.8 5.4,0 10.6,0 16.1,0 0,-5.3 0,-10.5 0,-15.8 5.2,0 10.5,0 16,0 0,2.8 0,5.4 0,8 0,2.6 0,5.2 0,8 5.5,0 10.8,0 16,0 0,5.3 0,10.5 0,16 5.5,0 10.7,0 16,0 0,2.7 0,5.3 0,8 -16,0 -32,0 -48,0 0,-2.6 0,-5.2 0,-8 -3,0 -5.6,0 -8.2,0 -2.6,0 -5.2,-0.2 -7.8,0.1 0,2.9 0,5.4 0,7.8 -2.7,0 -5.3,0 -8,0 -2.5,0 -5,0 -7.8,0 0,-2.5 0,-5.1 0,-8 -11,0 -21.6,0 -32.2,0 0,-2.6 0,-5.2 0,-8 -10.6,0 -20.9,0 -31.2,0 -0.1,0 -0.3,0.1 -0.4,0.2 -0.1,0.1 -0.3,0.2 -0.3,0.3 0,2.5 0,5 0,7.5 -10.7,0 -21.3,0 -32,0 0,-2.6 0,-5.2 0,-8 -10.6,0 -20.9,0 -31.2,0 -0.1,0 -0.3,0.1 -0.4,0.2 -0.1,0.1 -0.3,0.2 -0.3,0.3 0,2.5 0,5 0,7.5 -10.7,0 -21.3,0 -32,0 0,-2.6 0,-5.2 0,-8 -10.6,0 -20.9,0 -31.2,0 -0.1,0 -0.3,0.1 -0.4,0.2 -0.1,0.1 -0.3,0.2 -0.3,0.3 0,2.5 0,5 0,7.5 -10.7,0 -21.3,0 -32,0 0,-2.6 0,-5.2 0,-8 -10.6,0 -20.9,0 -31.2,0 -0.1,0 -0.3,0.1 -0.4,0.2 -0.1,0.1 -0.3,0.2 -0.3,0.3 0,2.5 0,5 0,7.5 -10.5,0 -21,0 -31.8,0 0,2.5 0,5.1 0,8 -11,0 -21.6,0 -32.2,0 0,-2.6 0,-5.2 0,-8 -10.9,0 -21.4,0 -32,0 C 56,47 56,44.4 56,41.7 Z"
   id="path90" />
<ellipse
   class="st5"
   cx="200"
   cy="21.700001"
   rx="22.6"
   ry="5.6999998"
   id="ellipse92" />
<path
   class="st5"
   d="m 152,17.7 c 0,-2.5 0,-5 0,-7.5 0.1,-0.1 0.2,-0.2000002 0.3,-0.3000002 0.1,-0.1 0.3,-0.2 0.4,-0.2 10.3,0 20.6,0 31.2,0 0,2.8000002 0,5.4000002 0,8.0000002 -10.6,0 -21.2,0 -31.9,0 z"
   id="path94" />
<path
   class="st5"
   d="m 216,17.7 c 0,-2.6 0,-5.2 0,-8.0000002 10.9,0 21.4,0 32,0 C 248,12.4 248,15 248,17.7 c -10.7,0 -21.3,0 -32,0 z"
   id="path96" />
<path
   class="st5"
   d="m 120,25.7 c 0,-2.6 0,-5.2 0,-8 10.9,0 21.4,0 32,0 0,2.7 0,5.3 0,8 -10.7,0 -21.3,0 -32,0 z"
   id="path98" />
<ellipse
   class="st5"
   cx="328"
   cy="21.700001"
   rx="22.6"
   ry="5.6999998"
   id="ellipse100" />
<path
   class="st5"
   d="m 376,17.7 c 10.6,0 21.1,0 32,0 0,2.8 0,5.4 0,8 -10.7,0 -21.3,0 -32,0 0,-2.7 0,-5.3 0,-8 z"
   id="path102" />
<path
   class="st5"
   d="m 280,9.6999998 c 10.6,0 21.1,0 32,0 C 312,12.5 312,15.1 312,17.7 c -10.7,0 -21.3,0 -32,0 0,-2.7 0,-5.3 0,-8.0000002 z"
   id="path104" />
<path
   class="st5"
   d="m 344,17.7 c 0,-2.5 0,-5 0,-7.5 0.1,-0.1 0.2,-0.2000002 0.3,-0.3000002 0.1,-0.1 0.3,-0.2 0.4,-0.2 10.3,0 20.6,0 31.2,0 0,2.8000002 0,5.4000002 0,8.0000002 -10.6,0 -21.2,0 -31.9,0 z"
   id="path106" />
<path
   class="st5"
   d="m 424,9.6999998 c 5.3,0 10.7,0 16,0 C 440,12.4 440,15 440,17.7 c -5.2,0 -10.5,0 -16,0 0,-2.8 0,-5.4 0,-8.0000002 z"
   id="path108" />
<path
   class="st5"
   d="m 472,89.7 c 0,-2.6 0,-5.2 0,-8 5.5,0 10.8,0 16,0 0,2.6 0,5.2 0,8 -5.5,0 -10.8,0 -16,0 z"
   id="path110" />
<path
   class="st5"
   d="m 456,97.7 c 0,-2.6 0,-5.2 0,-8 5.5,0 10.8,0 16,0 0,2.6 0,5.2 0,8 -5.5,0 -10.8,0 -16,0 z"
   id="path112" />
<path
   class="st5"
   d="m 440,105.7 c 0,-2.6 0,-5.2 0,-8 5.5,0 10.8,0 16,0 0,2.6 0,5.2 0,8 -5.5,0 -10.8,0 -16,0 z"
   id="path114" />
<path
   class="st2"
   d="m 488,49.7 c -5.3,0 -10.5,0 -16,0 0,-5.5 0,-10.7 0,-16 5.2,0 10.5,0 16,0 0,2.8 0,5.4 0,8 0,2.7 0,5.3 0,8 z"
   id="path116" />
<path
   class="st2"
   d="m 472,33.7 c -5.2,0 -10.5,0 -16,0 0,-2.8 0,-5.4 0,-8 5.2,0 10.5,0 16,0 0,2.8 0,5.4 0,8 z"
   id="path118" />
<ellipse
   class="st5"
   cx="264"
   cy="141.7"
   rx="11.3"
   ry="5.6999998"
   id="ellipse120" />
<path
   class="st5"
   d="m 247.9,145.6 c -2.5,0 -5.1,0 -7.8,0 0,-2.6 0,-5 0,-7.6 2.5,0 5.1,0 7.8,0 0,2.5 0,5.1 0,7.6 z"
   id="path122" />
<circle
   class="st1"
   cx="252"
   cy="149.7"
   r="5.6999998"
   id="circle124" />
<circle
   class="st5"
   cx="436"
   cy="61.700001"
   r="5.6999998"
   id="circle126" />
<path
   class="st5"
   d="m 280,137.7 c 2.7,0 5.3,0 8,0 0,2.6 0,5.2 0,8 -2.8,0 -5.4,0 -8,0 0,-2.7 0,-5.3 0,-8 z"
   id="path128" />
<circle
   class="st1"
   cx="276"
   cy="149.7"
   r="5.6999998"
   id="circle130" />
<ellipse
   class="st1"
   cx="264"
   cy="13.7"
   rx="22.6"
   ry="5.6999998"
   id="ellipse132" />
<path
   class="st6"
   d="m 152,105.5 c 0,-13 0,-26.1 0,-39.7 2.5,-0.3 5.1,-0.1 7.9,-0.2 0,5.3 0,10.5 0,15.9 8.1,0 16,0 24,0 0,2.8 0,5.2 0,8.1 -7.9,0 -15.8,0 -23.8,0 0,5.5 0,10.6 0,15.9 -2.9,0 -5.5,0 -8.1,0 z"
   id="path134" />
<path
   class="st6"
   d="m 200,105.7 c 0,-13.2 0,-26.3 0,-39.9 2.5,-0.3 5.1,-0.1 8,-0.2 0,13.5 0,26.8 0,40 -2.7,0.1 -5.3,0.1 -8,0.1 z"
   id="path136" />
<path
   class="st5"
   d="m 184,49.7 c 0,2.5 0,5 0,7.5 -0.1,0.1 -0.2,0.2 -0.3,0.3 -0.1,0.1 -0.3,0.2 -0.4,0.2 -10.3,0 -20.6,0 -31.2,0 0,-2.8 0,-5.4 0,-8 10.6,0 21.2,0 31.9,0 z"
   id="path138" />
<path
   class="st5"
   d="m 248,49.7 c 0,2.5 0,5 0,7.5 -0.1,0.1 -0.2,0.2 -0.3,0.3 -0.1,0.1 -0.3,0.2 -0.4,0.2 -10.3,0 -20.6,0 -31.2,0 0,-2.8 0,-5.4 0,-8 10.6,0 21.2,0 31.9,0 z"
   id="path140" />
<path
   class="st5"
   d="m 312,49.7 c 0,2.5 0,5 0,7.5 -0.1,0.1 -0.2,0.2 -0.3,0.3 -0.1,0.1 -0.3,0.2 -0.4,0.2 -10.3,0 -20.6,0 -31.2,0 0,-2.8 0,-5.4 0,-8 10.6,0 21.2,0 31.9,0 z"
   id="path142" />
<path
   class="st5"
   d="m 376,49.7 c 0,2.5 0,5 0,7.5 -0.1,0.1 -0.2,0.2 -0.3,0.3 -0.1,0.1 -0.3,0.2 -0.4,0.2 -10.3,0 -20.6,0 -31.2,0 0,-2.8 0,-5.4 0,-8 10.6,0 21.2,0 31.9,0 z"
   id="path144" />
<path
   class="st5"
   d="m 408,113.7 c -10.7,0 -21.3,0 -32,0 0,-2.5 0,-5 0,-7.5 0.1,-0.1 0.2,-0.2 0.3,-0.3 0.1,-0.1 0.3,-0.2 0.4,-0.2 10.3,0 20.6,0 31.2,0 0.1,2.8 0.1,5.4 0.1,8 z"
   id="path146" />
<path
   class="st5"
   d="m 88,57.7 c 0,2.5 0,5 0,7.5 -0.1,0.1 -0.2,0.2 -0.3,0.3 -0.1,0.1 -0.3,0.2 -0.4,0.2 -10.3,0 -20.6,0 -31.2,0 0,-2.8 0,-5.4 0,-8 10.6,0 21.2,0 31.9,0 z"
   id="path148" />
<path
   class="st5"
   d="m 336,105.7 c 2.6,0 5.2,0 8,0 0,2.8 0,5.4 0,8 -10.7,0 -21.3,0 -32,0 0,-2.6 0,-5.2 0,-8 5.5,0 10.8,0 16,0 2.7,0 5.3,0 8,0 z"
   id="path150" />
<path
   class="st5"
   d="m 280,113.7 c -10.7,0 -21.3,0 -32,0 0,-2.6 0,-5.2 0,-8 5.5,0 10.8,0 16,0 2.7,0 5.3,0 8,0 2.6,0 5.2,0 8,0 0,2.8 0,5.4 0,8 z"
   id="path152" />
<path
   class="st5"
   d="m 200,105.7 c 2.7,0 5.3,0 8,0 2.6,0 5.2,0 8,0 0,2.8 0,5.4 0,8 -10.7,0 -21.3,0 -32,0 0,-2.7 0,-5.3 0,-8 2.7,0 5.3,0 8,0 2.7,0 5.3,0 8,0 z"
   id="path154" />
<ellipse
   class="st5"
   cx="136"
   cy="109.7"
   rx="22.6"
   ry="5.6999998"
   id="ellipse156" />
<ellipse
   class="st5"
   cx="168"
   cy="117.7"
   rx="22.6"
   ry="5.6999998"
   id="ellipse158" />
<path
   class="st5"
   d="m 248,113.7 c 0,2.6 0,5.2 0,8 -10.9,0 -21.4,0 -32,0 0,-2.7 0,-5.3 0,-8 10.7,0 21.3,0 32,0 z"
   id="path160" />
<path
   class="st5"
   d="m 312,121.7 c -10.6,0 -21.1,0 -32,0 0,-2.8 0,-5.4 0,-8 10.7,0 21.3,0 32,0 0,2.7 0,5.3 0,8 z"
   id="path162" />
<ellipse
   class="st5"
   cx="360"
   cy="117.7"
   rx="22.6"
   ry="5.6999998"
   id="ellipse164" />
<path
   class="st6"
   d="m 232.1,89.5 c 0,-7.9 0,-15.7 0,-23.7 2.5,0 5,0 7.9,0 0,7.7 0,15.6 0,23.7 -2.6,0 -5,0 -7.9,0 z"
   id="path166" />
<ellipse
   class="st6"
   cx="268"
   cy="93.699997"
   rx="5.6999998"
   ry="17"
   id="ellipse168" />
<path
   class="st4"
   d="m 432,57.7 c 0,2.7 0,5.3 0,8 -5.2,0 -10.5,0 -16,0 0,-2.8 0,-5.4 0,-8 2.7,0 5.3,0 8,0 2.7,0 5.3,0 8,0 z"
   id="path170" />
<path
   class="st6"
   d="m 280.1,73.6 c 0,-2.5 0,-5.1 0,-7.8 2.6,0 5,0 7.6,0 0,2.5 0,5.1 0,7.8 -2.5,0 -5.1,0 -7.6,0 z"
   id="path172" />
<circle
   class="st6"
   cx="324"
   cy="93.699997"
   r="5.6999998"
   id="circle174" />
<circle
   class="st6"
   cx="324"
   cy="77.699997"
   r="5.6999998"
   id="circle176" />
<circle
   class="st6"
   cx="276"
   cy="77.699997"
   r="5.6999998"
   id="circle178" />
<path
   class="st6"
   d="m 168.2,97.8 c 2.6,0 5.1,0 7.7,0 0,2.5 0,5 0,7.8 -2.4,0.3 -4.9,0 -7.7,0.1 0,-2.6 0,-5 0,-7.9 z"
   id="path180" />
<path
   class="st6"
   d="m 192,105.7 c -2.7,0 -5.3,0 -8,0 0,-2.5 0,-5 0,-7.9 2.5,-0.3 5.1,-0.1 8,-0.2 0,2.9 0,5.5 0,8.1 z"
   id="path182" />
<path
   class="st6"
   d="m 303.9,97.8 c 0,2.5 0,5.1 0,7.8 -2.6,0 -5,0 -7.6,0 0,-2.5 0,-5.1 0,-7.8 2.5,0 5.1,0 7.6,0 z"
   id="path184" />
<path
   class="st6"
   d="m 336,105.7 c -2.7,0 -5.3,0 -8,0 0,-2.7 0,-5.3 0,-8 2.6,0 5.2,0 8,0 0,2.8 0,5.4 0,8 z"
   id="path186" />
<path
   class="st6"
   d="m 216,89.5 c 0,-2.7 0,-5 0,-7.7 2.5,-0.3 5.1,0 7.8,-0.1 0,2.6 0,5 0,7.9 -2.5,0.2 -5.1,0.2 -7.8,-0.1 z"
   id="path188" />
<path
   class="st6"
   d="m 255.9,73.6 c -2.5,0 -5.1,0 -7.8,0 0,-2.6 0,-5 0,-7.6 2.5,0 5.1,0 7.8,0 0,2.5 0,5.1 0,7.6 z"
   id="path190" />
<path
   class="st6"
   d="m 216.2,65.7 c 2.7,0 5,0 7.7,0 0.3,2.5 0,5.1 0.1,7.8 -2.6,0 -5,0 -7.9,0 -0.2,-2.5 -0.2,-5.1 0.1,-7.8 z"
   id="path192" />
<path
   class="st6"
   d="m 184.1,73.5 c 0,-2.6 0,-5.1 0,-7.7 2.5,0 5,0 7.7,0 0,2.4 0,4.9 0,7.7 -2.4,0 -4.9,0 -7.7,0 z"
   id="path194" />
<path
   class="st6"
   d="m 168.2,65.8 c 2.6,0 5,0 7.7,0 0,2.5 0,5 0,7.8 -2.4,0.3 -4.9,0 -7.7,0.1 0,-2.6 0,-5 0,-7.9 z"
   id="path196" />
<circle
   class="st6"
   cx="260"
   cy="77.699997"
   r="5.6999998"
   id="circle198" />
<path
   class="st6"
   d="m 328.1,73.6 c 0,-2.5 0,-5.1 0,-7.8 2.6,0 5,0 7.6,0 0,2.5 0,5.1 0,7.8 -2.5,0 -5.1,0 -7.6,0 z"
   id="path200" />
<circle
   class="st6"
   cx="316"
   cy="85.699997"
   r="5.6999998"
   id="circle202" />
<circle
   class="st6"
   cx="308"
   cy="77.699997"
   r="5.6999998"
   id="circle204" />
<path
   class="st6"
   d="m 303.9,73.6 c -2.5,0 -5.1,0 -7.8,0 0,-2.6 0,-5 0,-7.6 2.5,0 5.1,0 7.8,0 0,2.5 0,5.1 0,7.6 z"
   id="path206" />
<circle
   class="st6"
   cx="308"
   cy="93.699997"
   r="5.6999998"
   id="circle208" />
<path
   class="st3"
   d="m 280,145.7 c -2.7,0 -5.3,0 -8,0 0,-2.7 0,-5.3 0,-8 0,-2.5 0,-5 0,-7.9 2.5,-0.3 5.1,-0.1 8,-0.2 0,2.8 0,5.4 0,8 0,2.8 0,5.4 0,8.1 z"
   id="path210" />
<ellipse
   class="st2"
   cx="200"
   cy="117.7"
   rx="22.6"
   ry="5.6999998"
   id="ellipse212" />
<ellipse
   class="st2"
   cx="328"
   cy="117.7"
   rx="22.6"
   ry="5.6999998"
   id="ellipse214" />
<path
   d="m 56,41.7 c 0,2.7 0,5.3 0,8 -2.7,0 -5.3,0 -8,0 0,-2.6 0,-5.2 0,-8 2.8,0 5.4,0 8,0 z"
   id="path216" />
<path
   class="st2"
   d="m 88,57.7 c -10.7,0 -21.3,0 -32,0 0,-2.7 0,-5.3 0,-8 10.6,0 21.1,0 32,0 0,2.8 0,5.4 0,8 z"
   id="path218" />
<ellipse
   class="st1"
   cx="232"
   cy="21.700001"
   rx="22.6"
   ry="5.6999998"
   id="ellipse220" />
<ellipse
   class="st1"
   cx="296"
   cy="21.700001"
   rx="22.6"
   ry="5.6999998"
   id="ellipse222" />
<ellipse
   class="st1"
   cx="360"
   cy="21.700001"
   rx="22.6"
   ry="5.6999998"
   id="ellipse224" />
<path
   class="st1"
   d="m 120,25.7 c 10.7,0 21.3,0 32,0 0,2.5 0,5 0,7.5 -0.1,0.1 -0.2,0.2 -0.3,0.3 -0.1,0.1 -0.3,0.2 -0.4,0.2 -10.3,0 -20.6,0 -31.2,0 -0.1,-2.8 -0.1,-5.4 -0.1,-8 z"
   id="path226" />
<path
   class="st1"
   d="m 184,25.7 c 10.7,0 21.3,0 32,0 0,2.5 0,5 0,7.5 -0.1,0.1 -0.2,0.2 -0.3,0.3 -0.1,0.1 -0.3,0.2 -0.4,0.2 -10.3,0 -20.6,0 -31.2,0 -0.1,-2.8 -0.1,-5.4 -0.1,-8 z"
   id="path228" />
<path
   class="st1"
   d="m 280,25.7 c 0,2.5 0,5 0,7.5 -0.1,0.1 -0.2,0.2 -0.3,0.3 -0.1,0.1 -0.3,0.2 -0.4,0.2 -10.3,0 -20.6,0 -31.2,0 0,-2.8 0,-5.4 0,-8 10.6,0 21.2,0 31.9,0 z"
   id="path230" />
<path
   class="st1"
   d="m 312,25.7 c 10.7,0 21.3,0 32,0 0,2.5 0,5 0,7.5 -0.1,0.1 -0.2,0.2 -0.3,0.3 -0.1,0.1 -0.3,0.2 -0.4,0.2 -10.3,0 -20.6,0 -31.2,0 -0.1,-2.8 -0.1,-5.4 -0.1,-8 z"
   id="path232" />
<path
   class="st1"
   d="m 376,25.7 c 10.7,0 21.3,0 32,0 0,2.5 0,5 0,7.5 -0.1,0.1 -0.2,0.2 -0.3,0.3 -0.1,0.1 -0.3,0.2 -0.4,0.2 -10.3,0 -20.6,0 -31.2,0 -0.1,-2.8 -0.1,-5.4 -0.1,-8 z"
   id="path234" />
<path
   class="st2"
   d="m 184,49.7 c -10.7,0 -21.3,0 -32,0 0,-2.5 0,-5 0,-7.5 0.1,-0.1 0.2,-0.2 0.3,-0.3 0.1,-0.1 0.3,-0.2 0.4,-0.2 10.3,0 20.6,0 31.2,0 0.1,2.8 0.1,5.4 0.1,8 z"
   id="path236" />
<path
   class="st2"
   d="m 248,49.7 c -10.7,0 -21.3,0 -32,0 0,-2.5 0,-5 0,-7.5 0.1,-0.1 0.2,-0.2 0.3,-0.3 0.1,-0.1 0.3,-0.2 0.4,-0.2 10.3,0 20.6,0 31.2,0 0.1,2.8 0.1,5.4 0.1,8 z"
   id="path238" />
<path
   class="st2"
   d="m 312,49.7 c -10.7,0 -21.3,0 -32,0 0,-2.5 0,-5 0,-7.5 0.1,-0.1 0.2,-0.2 0.3,-0.3 0.1,-0.1 0.3,-0.2 0.4,-0.2 10.3,0 20.6,0 31.2,0 0.1,2.8 0.1,5.4 0.1,8 z"
   id="path240" />
<path
   class="st2"
   d="m 376,49.7 c -10.7,0 -21.3,0 -32,0 0,-2.5 0,-5 0,-7.5 0.1,-0.1 0.2,-0.2 0.3,-0.3 0.1,-0.1 0.3,-0.2 0.4,-0.2 10.3,0 20.6,0 31.2,0 0.1,2.8 0.1,5.4 0.1,8 z"
   id="path242" />
<ellipse
   class="st1"
   cx="168"
   cy="21.700001"
   rx="22.6"
   ry="5.6999998"
   id="ellipse244" />
<path
   class="st2"
   d="m 432,57.7 c -2.7,0 -5.3,0 -8,0 0,-2.5 0,-5 0,-7.8 2.5,-0.4 5.2,-0.1 7.8,-0.1 2.6,0 5.3,0 8.2,0 0,2.8 0,5.4 0,8 -2.7,-0.1 -5.3,-0.1 -8,-0.1 z"
   id="path246" />
<ellipse
   class="st5"
   cx="264"
   cy="21.700001"
   rx="22.6"
   ry="5.6999998"
   id="ellipse248" />
</svg>
