<?xml version="1.0" encoding="UTF-8" standalone="no"?>
<!-- Generator: Adobe Illustrator 25.0.0, SVG Export Plug-In . SVG Version: 6.00 Build 0)  -->

<svg
   version="1.1"
   id="Layer_1"
   x="0px"
   y="0px"
   viewBox="0 0 384 192"
   xml:space="preserve"
   sodipodi:docname="test.svg"
   width="384"
   height="192"
   inkscape:version="1.2.2 (b0a8486541, 2022-12-01)"
   xmlns:inkscape="http://www.inkscape.org/namespaces/inkscape"
   xmlns:sodipodi="http://sodipodi.sourceforge.net/DTD/sodipodi-0.dtd"
   xmlns="http://www.w3.org/2000/svg"
   xmlns:svg="http://www.w3.org/2000/svg"><defs
   id="defs47" /><sodipodi:namedview
   id="namedview45"
   pagecolor="#505050"
   bordercolor="#ffffff"
   borderopacity="1"
   inkscape:showpageshadow="0"
   inkscape:pageopacity="0"
   inkscape:pagecheckerboard="1"
   inkscape:deskcolor="#505050"
   showgrid="false"
   inkscape:zoom="1.9410081"
   inkscape:cx="139.10297"
   inkscape:cy="93.250512"
   inkscape:window-width="1536"
   inkscape:window-height="923"
   inkscape:window-x="0"
   inkscape:window-y="0"
   inkscape:window-maximized="1"
   inkscape:current-layer="Layer_1" />
<style
   type="text/css"
   id="style2">
	.st0{fill:#FEF793;}
	.st1{fill:#FFFFFF;}
</style>
<path
   class="st0"
   d="m 160.11661,73.230036 c -31.8834,0 -63.86674,0 -95.95003,0 0,-9.268177 0,-18.078665 0,-27.23242 -5.297241,0 -10.394586,0 -15.292035,0 -0.299844,-0.343266 -0.49974,-0.457688 -0.599688,-0.572109 -0.09995,-0.114422 -0.199896,-0.343266 -0.199896,-0.457688 0,-8.696067 0,-17.506556 0,-26.431466 -10.594482,0 -20.989068,0 -31.683498,0 0.09995,-0.114422 -0.09995,0 -0.199896,0.228844 -0.09995,0.114422 -0.199896,0.343265 -0.199896,0.457687 0,24.028606 0,47.942789 0,72.314661 -5.397189,0 -10.69443,0 -15.991671,0 0,6.064362 0,12.243145 0,18.307505 15.891723,0 31.783446,0 47.875065,0 0,2.97497 0,5.83552 0,8.92491 5.397189,0 10.594482,0 16.091619,0 0,3.31824 0,6.29321 0,9.3826 5.297241,0 10.494534,0 16.091619,0 0,-3.20381 0,-6.17878 0,-9.03933 5.397189,0 10.494534,0 15.891723,0 0,3.08939 0,6.06436 0,9.03933 10.494534,0 20.989064,0 31.783444,0 0,2.86055 0,5.83552 0,9.15376 42.97762,0 85.55544,0 128.13327,0 5.29724,0 10.59448,0 15.99167,0 -0.0999,-3.31824 0.1,-6.29321 -0.1999,-9.3826 -21.48881,0 -42.57782,0 -63.76679,0 0,-3.20382 0,-6.17879 0,-9.26818 0,-2.97497 -0.19989,-5.94994 0.1999,-9.03933 10.79438,0 21.18896,0 31.98334,0 0,-3.08939 0,-6.06436 0,-8.92491 5.49714,0 10.69443,0 15.79178,0 0,-6.064363 0,-12.014304 0,-18.30751 5.49713,0 10.69443,0 15.99167,0 0,-3.089392 0,-6.064362 0,-9.153754 -10.69443,0 -21.28891,0 -31.98334,0 0,6.064362 0,12.128724 0,18.078665 -15.99168,0.800953 -59.66893,0.457688 -63.96669,-0.343266 0,-5.94994 0,-11.785459 0,-17.735399 -5.09734,0 -10.49453,0 -15.79177,0 z"
   id="path4"
   style="stroke-width:1.0694" />
<path
   d="m 256.06663,100.6913 c -5.19729,0 -10.29464,0 -15.79177,0 0,2.86055 0,5.83552 0,8.92491 -10.79438,0 -21.18897,0 -31.98335,0 -0.39979,3.08939 -0.0999,6.06436 -0.19989,9.03933 0,2.97497 0,6.06436 0,9.26818 21.28891,0 42.37793,0 63.76679,0 0.29984,3.08939 0.1,6.06436 0.19989,9.3826 -5.49713,0 -10.69443,0 -15.99167,0 0,2.86055 0,5.72109 0,8.92491 2.4987,0.45769 5.1973,0.11442 7.79594,0.11442 2.59865,0 5.29724,0 8.09579,0 0,2.97497 0,5.7211 0,8.92491 -4.9974,0 -10.29464,0 -15.69183,0 0,9.26818 0,18.19309 0,27.46126 2.39875,0.34327 4.9974,0.11443 7.59604,0.11443 2.59865,0 5.29724,0 8.19573,0 0,3.20381 0,6.17878 0,9.15375 5.29724,0 10.69443,0 15.99167,0 0,-2.97497 0,-5.94994 0,-9.15375 2.99844,0 5.59709,0 8.19574,0 2.59864,0 5.19729,0.22884 7.59604,-0.11443 0,-9.38259 0,-18.19308 0,-27.46126 -5.39719,0 -10.59448,0 -15.69183,0 0,-3.20381 0,-5.94994 0,-8.92491 2.79854,0 5.39719,0 8.09579,0 2.59864,0 5.19729,0.22884 7.79593,-0.11442 0,-3.31824 0,-6.17879 0,-8.92491 -5.29724,0 -10.59448,0 -15.89172,0 0,-3.20382 0,-5.94994 0,-9.15376 21.38886,0 42.57783,0 63.86674,0 0,-6.06436 0,-12.24314 0,-18.30751 -10.59448,0 -21.18897,0 -32.18324,0 0,-3.31823 0,-6.2932 0,-9.15375 -5.49714,0 -10.69443,0 -15.79178,0 0,2.97497 0,5.94994 0,8.92491 -14.99219,0.68653 -43.77719,0.45769 -47.97501,-0.34327 0,-2.86054 0,-5.72109 0,-8.58164 z"
   id="path6"
   style="stroke-width:1.0694" />
<path
   d="m 320.03332,27.461263 c 5.29724,0 10.49453,0 15.89172,0 0,-3.089392 0,-5.94994 0,-9.039332 5.39719,0 10.59448,0 16.09162,0 0,-6.407628 0,-12.3575687 0,-18.421931 -47.97502,0 -95.95003,0 -143.92504,0 0,6.0643623 0,12.014303 0,18.193087 5.39719,0 10.49453,0 15.89172,0 0,3.089392 0,6.064362 0,9.268176 5.59709,0 10.89433,0 16.09162,0 0,-2.97497 0,-5.94994 0,-8.92491 16.99115,-0.800954 75.56065,-0.457688 79.95836,0.343266 0,2.860548 0,5.721096 0,8.581644 z"
   id="path8"
   style="stroke-width:1.0694" />
<path
   class="st1"
   d="m 384,54.922527 c -5.19729,0 -10.29464,0 -15.49193,0 -0.0999,0.114422 -0.29985,0.228844 -0.39979,0.343266 -0.0999,0.114422 -0.1999,0.343265 -0.1999,0.457687 0,11.785459 0,23.570918 0,35.699643 -5.39719,0 -10.69443,0 -15.99167,0 0,6.064362 0,12.243147 0,18.307507 5.19729,0 10.29464,0 15.49193,0 0.1,0.11442 0.29985,0.22885 0.39979,0.34327 0.1,0.11442 0.1999,0.34326 0.1999,0.45769 0,11.78545 0,23.57091 0,35.69964 5.39719,0 10.69443,0 15.99167,0 0,-30.32181 0,-60.758048 0,-91.308703 z"
   id="path10"
   style="stroke-width:1.0694" />
<path
   d="m 96.149922,128.15256 c 0,-2.97497 0,-5.94994 0,-9.03933 -5.397189,0 -10.494534,0 -15.891723,0 0,2.86055 0,5.83552 0,9.03933 -5.597085,0 -10.794378,0 -16.091619,0 0,2.86055 0,5.7211 0,8.92491 -2.498699,0.45769 -5.197293,0.11443 -7.695992,0.11443 -2.598646,0 -5.297241,0 -8.095783,0 0,6.06436 0,11.89988 0,18.19308 2.39875,0.22885 4.997397,0 7.596044,0.11442 2.598646,0 5.297241,0 8.095783,0 0,-2.97497 0,-5.72109 0,-8.92491 2.698594,-0.45768 5.297241,-0.11442 7.895888,-0.22884 2.598646,0 5.297241,0 8.095783,0 0,-2.97497 0,-5.7211 0,-8.92491 2.698594,-0.45769 5.297241,-0.11442 7.895888,-0.22884 2.598646,0 5.297241,0 8.195731,0 0,-3.0894 0,-6.06437 0,-9.03934 z"
   id="path12"
   style="stroke-width:1.0694" />
<path
   d="m 224.08329,73.230036 c 0,-8.924911 0,-17.849821 0,-26.889154 -0.1,-0.114422 -0.1999,-0.343266 -0.29984,-0.457688 -0.0999,-0.114422 -0.29985,-0.228844 -0.3998,-0.228844 -10.29463,0 -20.58927,0 -31.18375,0 0,6.178785 0,12.243147 0,18.307509 0,3.089392 0,6.064363 0,9.153755 10.59448,0.114422 21.18896,0.114422 31.88339,0.114422 z"
   id="path14"
   style="stroke-width:1.0694" />
<path
   d="m 176.10828,73.230036 c 0,5.94994 0,11.785459 0,17.735399 4.29776,0.800954 47.97501,1.144219 63.96668,0.343266 0,-6.064363 0,-12.014303 0,-18.078665 -5.29724,0 -10.69443,0 -15.99167,0 0,2.97497 0,5.94994 0,9.153754 -10.59448,0 -20.88912,0 -31.18376,0 -0.1,0 -0.29984,-0.114422 -0.39979,-0.228844 -0.1,-0.114422 -0.29984,-0.228843 -0.29984,-0.343265 0,-2.860549 0,-5.721097 0,-8.581645 -5.39719,0 -10.79438,0 -16.09162,0 z"
   id="path16"
   style="stroke-width:1.0694" />


<path
   d="m 288.04997,73.230036 c 0,-3.089392 0,-6.064363 0,-9.153755 -5.29724,0 -10.69443,0 -15.99167,0 0,3.089392 0,6.064363 0,9.153755 0,3.089392 0,6.064362 0,9.153754 5.29724,0 10.69443,0 15.99167,0 0,-3.089392 0,-6.064362 0,-9.153754 z"
   id="path22"
   style="stroke-width:1.0694" />
<path
   class="st1"
   d="m 176.10828,73.230036 c 5.29724,0 10.69443,0 15.99167,0 0,-3.089392 0,-6.064363 0,-9.153755 -10.69443,0 -21.28891,0 -31.98334,0 0,3.089392 0,6.064363 0,9.153755 5.29724,0 10.69443,0 15.99167,0 z"
   id="path24"
   style="stroke-width:1.0694" />
<path
   class="st1"
   d="m 159.91671,63.961859 c 0,-2.860548 0,-5.835518 0,-8.92491 -5.19729,0 -10.29464,0 -15.59188,0 0,2.860548 0,5.835518 0,8.92491 5.29724,0 10.49453,0 15.59188,0 z"
   id="path26"
   style="stroke-width:1.0694" />

<path
   class="st0"
   d="m 288.04997,73.230036 c 0,3.089392 0,6.064362 0,9.153754 5.29724,0 10.49454,0 15.99167,0 0,6.293206 0,12.243147 0,18.30751 5.1973,0 10.29464,0 15.79178,0 0,2.86055 0,5.83552 0,9.15375 10.99427,0 21.58876,0 32.18324,0 0,-6.06436 0,-12.243143 0,-18.307505 0,-6.064363 0,-12.014303 0,-18.307509 -21.48881,0 -42.77772,0 -63.96669,0 z"
   id="path30"
   style="stroke-width:1.0694" />
<path
   class="st0"
   d="m 272.0583,82.38379 c 0,6.064363 0,12.014303 0,18.30751 -5.49713,0 -10.69443,0 -15.99167,0 0,2.86055 0,5.7211 0,8.58164 4.19782,0.80096 32.98282,1.0298 47.97501,0.34327 0,-2.97497 0,-5.94994 0,-8.92491 -5.29724,0 -10.49453,0 -15.99167,0 0,-6.293207 0,-12.243147 0,-18.30751 -5.29724,0 -10.69443,0 -15.99167,0 z"
   id="path32"
   style="stroke-width:1.0694" />
<path
   class="st0"
   d="m 304.04164,137.30632 c 15.89173,0 31.78345,0 47.97502,0 0,-3.20382 0,-6.17879 0,-9.15376 -21.28891,0 -42.47788,0 -63.86674,0 0,3.20382 0,5.94994 0,9.15376 5.29724,0 10.59448,0 15.89172,0 z"
   id="path34"
   style="stroke-width:1.0694" />


<path
   class="st1"
   d="m 192.09995,73.230036 c 0,2.860548 0,5.721096 0,8.581645 0.1,0.114422 0.19989,0.228843 0.29984,0.343265 0.1,0.114422 0.29985,0.228844 0.39979,0.228844 10.29464,0 20.58928,0 31.18376,0 0,-3.203814 0,-6.178784 0,-9.153754 -10.59448,0 -21.18896,0 -31.88339,0 z"
   id="path40"
   style="stroke-width:1.0694" />

<path
   d="m 304.08194,91.655756 c 0,-3.089392 0,-6.064362 0,-9.153754 -5.29724,0 -10.69443,0 -15.99167,0 0,3.089392 0,6.064362 0,9.153754 0,3.089392 0,6.064363 0,9.153754 5.29724,0 10.69443,0 15.99167,0 0,-3.089391 0,-6.064362 0,-9.153754 z"
   id="path22-6"
   style="stroke-width:1.0694" /><path
   d="m 271.98848,91.485111 c 0,-3.089392 0,-6.064362 0,-9.153755 -5.29724,0 -10.69443,0 -15.99167,0 0,3.089393 0,6.064363 0,9.153755 0,3.089392 0,6.064362 0,9.153759 5.29724,0 10.69443,0 15.99167,0 0,-3.089397 0,-6.064367 0,-9.153759 z"
   id="path22-7"
   style="stroke-width:1.0694" /><path
   d="m 304.00914,54.958093 c 0,-3.089393 0,-6.064363 0,-9.153755 -5.29724,0 -10.69443,0 -15.99167,0 0,3.089392 0,6.064362 0,9.153755 0,3.089392 0,6.064362 0,9.153754 5.29724,0 10.69443,0 15.99167,0 0,-3.089392 0,-6.064362 0,-9.153754 z"
   id="path22-5"
   style="stroke-width:1.0694" /><path
   d="m 271.92423,54.799023 c 0,-3.089392 0,-6.064362 0,-9.153754 -5.29724,0 -10.69442,0 -15.99167,0 0,3.089392 0,6.064362 0,9.153754 0,3.089392 0,6.064363 0,9.153755 5.29725,0 10.69443,0 15.99167,0 0,-3.089392 0,-6.064363 0,-9.153755 z"
   id="path22-3"
   style="stroke-width:1.0694" /><path
   d="m 320.06794,36.58123 c 0,-3.089392 0,-6.064362 0,-9.153754 -5.29724,0 -10.69443,0 -15.99167,0 0,3.089392 0,6.064362 0,9.153754 0,3.089392 0,6.064363 0,9.153755 5.29724,0 10.69443,0 15.99167,0 0,-3.089392 0,-6.064363 0,-9.153755 z"
   id="path22-56"
   style="stroke-width:1.0694" /><path
   d="m 256.01307,36.585824 c 0,-3.089392 0,-6.064362 0,-9.153754 -5.29724,0 -10.69443,0 -15.99167,0 0,3.089392 0,6.064362 0,9.153754 0,3.089392 0,6.064363 0,9.153755 5.29724,0 10.69443,0 15.99167,0 0,-3.089392 0,-6.064363 0,-9.153755 z"
   id="path22-2"
   style="stroke-width:1.0694" /></svg>
