<?xml version="1.0" encoding="UTF-8" standalone="no"?>
<!-- Generator: Adobe Illustrator 25.0.0, SVG Export Plug-In . SVG Version: 6.00 Build 0)  -->

<svg
   version="1.1"
   id="Layer_1"
   x="0px"
   y="0px"
   viewBox="0 0 1280 417"
   xml:space="preserve"
   sodipodi:docname="Barbie.svg"
   width="1280"
   height="417"
   inkscape:version="1.2.2 (b0a8486541, 2022-12-01)"
   xmlns:inkscape="http://www.inkscape.org/namespaces/inkscape"
   xmlns:sodipodi="http://sodipodi.sourceforge.net/DTD/sodipodi-0.dtd"
   xmlns="http://www.w3.org/2000/svg"
   xmlns:svg="http://www.w3.org/2000/svg"><defs
   id="defs83" /><sodipodi:namedview
   id="namedview81"
   pagecolor="#505050"
   bordercolor="#ffffff"
   borderopacity="1"
   inkscape:showpageshadow="0"
   inkscape:pageopacity="0"
   inkscape:pagecheckerboard="1"
   inkscape:deskcolor="#505050"
   showgrid="false"
   inkscape:zoom="0.19666667"
   inkscape:cx="472.88136"
   inkscape:cy="600"
   inkscape:window-width="1536"
   inkscape:window-height="923"
   inkscape:window-x="0"
   inkscape:window-y="0"
   inkscape:window-maximized="1"
   inkscape:current-layer="Layer_1" />
<style
   type="text/css"
   id="style2">
	.st0{fill:#E2E66E;}
	.st1{fill:#3C39A8;}
	.st2{fill:#CC777C;}
</style>
<path
   class="st0"
   d="m 464.25489,0.50060024 c 0,2.50300116 0,4.90588236 0,7.90948376 10.69666,0 20.99344,0 31.6901,0 0,5.406483 0,10.312365 0,15.919088 5.49828,0 10.59669,0 15.89503,0 0,5.606722 0,10.512605 0,16.119327 -4.99844,0 -10.09684,0 -15.59513,0 0,5.606723 0,10.512605 0,16.219448 -5.59825,0 -10.69665,0 -15.79506,0 0,0 -0.39988,-0.20024 -0.39988,-0.20024 0,-2.603121 0,-5.206242 0,-7.809364 0,-2.603121 0,-5.206242 0,-8.209844 -5.59825,0 -10.49672,0 -15.59512,0 -0.19994,-2.803361 -0.39988,-5.006002 -0.59981,-7.408883 -5.29835,0 -10.39676,0 -15.39519,0 -0.19994,2.703241 -0.39988,4.905882 -0.69979,7.709244 -5.29834,0 -10.19681,0 -15.09528,0 0,10.913085 0,21.22545 0,32.138535 5.39832,0 10.29678,0 15.19525,0 0,18.822569 0,37.044415 0,55.967105 -5.39831,0 -10.39675,0 -15.89503,0 0,5.60672 0,10.51261 0,16.01921 -5.39831,0 -10.39675,0 -15.59513,0 0,5.70684 0,10.81296 0,15.91909 -0.1,2.60312 -0.1,5.30636 -0.19993,7.90948 l 0.1,-0.10012 c -5.29835,0 -10.49672,0 -16.29491,0 0,11.11333 0,21.52581 0,31.83818 -5.49828,0 -10.39675,0 -15.49516,0 -0.19994,-2.70325 -0.29991,-5.10613 -0.49984,-7.30877 -26.79163,0 -53.18338,0 -79.47517,0 0,2.70324 0,4.90588 0,7.70925 10.69666,0 21.09341,0 31.49016,0 0.19994,2.90348 0.29991,5.30636 0.49985,8.0096 5.39831,0 10.39675,0 15.49515,0 0.19994,2.70324 0.39988,5.10612 0.59982,8.0096 5.39831,0 10.49672,0 15.79506,0 0,2.80337 0,5.10613 0,7.90949 5.39831,0 10.49672,0 15.59513,0 0.19993,2.90348 0.2999,5.30636 0.49984,8.0096 10.69666,0 20.99344,0 31.49016,0 0.19994,2.70324 0.29991,5.10612 0.49984,8.00961 10.69666,0 21.09341,0 31.89004,0 0,2.80336 0,5.10612 0,7.60912 74.67666,0 149.05342,0 223.53014,0 0.19994,-2.60312 0.39988,-5.006 0.59982,-7.90948 10.69665,0 21.09341,0 31.79006,0 0,-2.80337 0,-5.10613 0,-7.90949 21.39332,0 42.48673,0 63.58013,0 0.19994,-2.90348 0.29991,-5.30636 0.49985,-8.0096 10.69665,0 20.99344,0 31.49016,0 0.1,-2.70324 0.2999,-5.10612 0.39987,-8.00961 10.69666,0 21.19338,0 31.89004,0 0,-2.80336 0,-5.10612 0,-7.90948 16.09497,0 31.79006,0 47.68509,0 0.19994,-2.90348 0.29991,-5.30636 0.49985,-7.60912 37.48828,0 74.47672,0 111.86504,0 0,2.60312 0,4.90588 0,7.70924 10.69666,0 21.09336,0 31.59016,0 0.1999,2.90348 0.2999,5.30636 0.4998,8.0096 5.3983,0 10.3968,0 15.4952,0 0.1999,2.70325 0.2999,5.10613 0.4998,8.00961 10.7966,0 21.2934,0 31.6901,0 0,2.60312 0,5.10612 0,7.90948 5.6982,0 10.7966,0 15.895,0 0.1,2.60312 0.3,5.20624 0.3999,8.30997 5.4983,0 10.5967,0 15.5951,0 0.1,2.80336 0.2,5.10612 0.3999,7.90948 5.3983,0 10.4967,0 15.5951,0 0.2,2.90348 0.3,5.30636 0.4999,8.0096 5.3983,0 10.3967,0 15.4951,0 0.2,2.70324 0.3999,5.10613 0.5999,8.00961 5.3983,0 10.4967,0 15.795,0 0,2.80336 0,5.10612 0,7.90948 5.3983,0 10.4967,0 15.5952,0 0.1999,2.90348 0.2999,5.30636 0.4998,8.0096 5.3983,0 10.2968,0 15.4952,0 0.1,2.70325 0.2999,5.10613 0.3998,8.00961 5.3983,0 10.4967,0 15.995,0 0,5.60672 0,10.71284 0,16.01921 5.4983,0 10.3968,0 15.8951,0 0,5.5066 0,10.61272 0,15.71884 0,13.31597 -0.1,26.63194 -0.1,39.9479 -10.5967,0 -21.1934,0 -31.6901,0 -0.2999,3.20384 -0.3999,5.50661 -0.5998,8.20985 -15.895,0 -31.4902,0 -47.2852,0 -0.2999,2.80336 -0.4999,5.20624 -0.6998,7.70924 -26.5917,0 -52.8835,0 -79.1753,0 0,-5.30636 0,-10.41248 0,-15.91909 5.2984,0 10.1968,0 15.0953,0 0,-24.22905 0,-47.9575 0,-72.18655 -5.3983,0 -10.2968,0 -15.6951,0 0,-8.10973 0,-15.71885 0,-23.92869 -5.4983,0 -10.5967,0 -16.095,0 0,-5.60673 0,-10.51261 0,-15.91909 -5.3983,0 -10.2967,0 -15.895,0 0,-5.5066 0,-10.61273 0,-16.11933 -5.5982,0 -10.4967,0 -15.5951,0 -0.2,-2.90348 -0.3999,-5.20624 -0.6998,-8.10972 -5.3983,0 -10.29678,0 -15.39519,0 -0.19994,-2.70324 -0.39988,-5.006 -0.59981,-7.40889 -37.28835,0 -74.37676,0 -111.3652,0 -0.19994,2.60313 -0.39988,4.90589 -0.59981,7.80937 -5.29835,0 -10.39676,0 -15.39519,0 -0.19994,2.90348 -0.39988,5.20624 -0.69978,7.90948 -5.29835,0 -10.19682,0 -15.29522,0 -0.19994,2.90348 -0.39988,5.20624 -0.69979,8.10973 -5.39831,0 -10.29678,0 -15.69509,0 0,8.10972 0,15.71884 0,23.92869 -5.49828,0 -10.59669,0 -15.59513,0 0,29.63553 0,58.57023 0,88.00552 5.39832,0 10.59669,0 15.6951,0 0,5.30636 0,10.5126 0,15.61873 -149.7532,0 -298.60669,0 -447.96001,0 0,-37.34478 0,-74.28908 0,-111.93422 -5.49829,0 -10.59669,0 -16.09498,0 0,-5.60672 0,-10.5126 0,-15.91908 -5.39831,0 -10.29678,0 -15.49515,0 -0.29991,-2.90349 -0.49985,-5.20625 -0.69978,-8.10973 -5.29835,0 -10.19682,0 -15.29522,0 -0.19994,-2.90348 -0.39988,-5.30636 -0.69979,-8.10972 -5.39831,0 -10.29678,0 -15.39518,0 -0.19994,-2.80336 -0.39988,-5.006 -0.59982,-7.90949 -5.29834,0 -10.29678,0 -15.39519,0 -0.19993,-2.90348 -0.39987,-5.20624 -0.59981,-7.60912 -37.28835,0 -74.17682,0 -111.3652,0 -0.19993,2.60312 -0.49984,5.006 -0.69978,7.90948 -5.29834,0 -10.19681,0 -15.29522,0 -0.19994,2.90349 -0.39987,5.30637 -0.69978,8.10973 -5.39831,0 -10.29678,0 -15.39519,0 -0.19994,2.70324 -0.39987,5.006 -0.59981,7.90948 -5.29835,0 -10.29678,0 -15.89503,0 0,5.60672 0,10.51261 0,15.91909 -5.39832,0 -10.29679,0 -15.89504,0 0,29.53541 0,58.67035 0,87.70516 -10.89659,0 -21.19337,0 -31.590125,0 -0.199937,-2.70324 -0.399875,-5.10612 -0.699781,-7.90948 -5.398313,0 -10.296782,0 -15.395189,0 -0.199937,-2.80336 -0.399875,-5.006 -0.599812,-7.90949 -5.298345,0 -10.396751,0 -15.395189,0 -0.199938,-2.90348 -0.399876,-5.20624 -0.599813,-7.90948 -5.298344,0 -10.196814,0 -15.29522,0 -0.199938,-2.90348 -0.399875,-5.20624 -0.699782,-8.10972 -5.398313,0 -10.296782,0 -15.29522,0 -0.199937,-2.90349 -0.399875,-5.30637 -0.699781,-8.10973 -5.398313,0 -10.396751,0 -15.395189,0 -0.199938,-2.80336 -0.399875,-5.006 -0.599813,-7.80936 -5.398313,0 -10.4967195,0 -15.69509500000005,0 0,-2.70324 0,-5.30636 0,-8.00961 5.29834430000005,0 10.49672000000005,0 15.99500200000005,0 0,-13.81656 0,-26.93229 0,-40.14813 l -0.09997,0.10012 c 5.298344,0 10.49672,0 16.294908,0 0,-5.80697 0,-10.81297 0,-16.21945 10.796626,0 21.093408,0 31.890034,0 0,-5.40649 0,-10.51261 0,-16.11933 10.896595,0 21.293346,0 31.690097,0 0.09997,-2.80336 0.199937,-5.10612 0.399875,-7.90948 32.089973,0 63.780073,0 95.570133,0 0.19994,-2.90349 0.29991,-5.30637 0.49985,-8.00961 32.08997,0 63.68009,0 95.37019,0 0,-2.70324 0,-5.10612 0,-8.0096 -26.79163,0 -53.18338,0 -79.6751,0 0,-2.40288 0,-4.90588 0,-8.00961 -5.59825,0 -10.69666,0 -15.69509,0 -0.19994,-2.90348 -0.39988,-5.20624 -0.59982,-7.90948 -10.59669,0 -20.7935,0 -31.29022,0 -0.29991,-2.80336 -0.49984,-5.20624 -0.69978,-7.60912 -5.29834,0 -10.29678,0 -15.39519,0 -0.19994,2.70324 -0.39987,5.10612 -0.59981,7.90948 -5.39832,0 -10.29678,0 -15.39519,0 -0.19994,2.70324 -0.39988,5.006 -0.59981,7.90948 -10.59669,0 -20.99344,0 -31.390194,0 -0.199938,2.90349 -0.399875,5.20625 -0.599813,7.50901 -10.696657,0 -21.093408,0 -31.39019,0 -0.199938,-2.70324 -0.399876,-5.006 -0.599813,-7.70925 -5.298344,0 -10.196814,0 -15.795064,0 0,-5.5066 0,-10.61272 0,-16.11932 -5.598251,0 -10.49672,0 -15.595127,0 -0.199937,-2.70324 -0.399875,-5.00601 -0.599812,-7.90949 -5.298344,0 -10.296782,0 -15.395189,0 -0.199938,-2.90348 -0.399875,-5.20624 -0.599813,-7.90948 -5.398313,0 -10.4967195,0 -15.695095,0 0,-2.70324 0,-5.30636 0,-8.0096 10.596689,0 21.193377,0 31.690097,0 0.199937,3.10372 0.399875,5.40648 0.599812,8.10972 5.298345,0 10.196814,0 15.295221,0 0.199937,2.90348 0.499843,5.20624 0.699781,8.10972 5.298344,0 10.296782,0 15.29522,0 0.199938,2.90348 0.399875,5.20625 0.599813,7.50901 5.498282,0 10.396751,0 15.395189,0 0.199937,-2.60312 0.399875,-4.90589 0.599812,-7.80937 5.298345,0 10.396751,0 15.395189,0 0.199938,-2.90348 0.399875,-5.20624 0.599813,-7.90948 5.198373,0 10.196813,0 15.795063,0 0,-5.5066 0,-10.61273 0,-16.11933 5.59825,0 10.49672,0 16.09497,0 0,-8.20984 0,-15.91909 0,-24.12893 5.59825,0 10.49672,0 15.59513,0 0.19994,-2.70324 0.39987,-5.006003 0.59981,-7.909484 5.29834,0 10.29678,0 15.39519,0 0.19994,-2.903481 0.39987,-5.206242 0.59981,-7.909484 5.19838,0 10.19682,0 15.29522,0 0.29991,-2.903481 0.49985,-5.206242 0.69978,-7.709243 10.69666,0 20.89347,0 31.39019,0 0.19994,2.703241 0.39988,5.106122 0.69979,7.909483 10.69665,0 20.99343,0 31.39019,0 0.19993,2.703242 0.39987,5.006003 0.59981,7.909484 5.29834,0 10.29678,0 15.39519,0 0.19993,2.903482 0.39987,5.206244 0.59981,7.509004 15.995,0 31.6901,0 47.38519,0 0.19994,-2.70324 0.39988,-4.905883 0.59981,-7.709244 5.29835,0 10.19682,0 15.29522,0 0.19994,-2.903481 0.49985,-5.206242 0.69979,-8.109724 5.29834,0 10.29678,0 15.79506,0 0,-8.209844 0,-15.919087 0,-24.128931 5.59825,0 10.49672,0 15.89503,0 0,-10.712846 0,-21.02521 0,-31.938296 5.49828,0 10.59669,0 16.09497,0 0,-5.606722 0,-10.512605 0,-15.919087 5.39832,0 10.29679,0 15.49516,0 0.29991,-2.903482 0.49985,-5.206243 0.69978,-8.1097242 10.69666,0 20.89347,0 31.59013,0 0,-2.9034814 0,-5.4064826 0,-7.9094838 16.39488,0.50060024 32.38988,0.50060024 48.38488,0.50060024 z"
   id="path4"
   style="stroke-width:1.00044" />
<path
   class="st1"
   d="m 192.33986,417 c 0,-5.10612 0,-10.31236 0,-15.91909 -5.39831,0 -10.39675,0 -15.995,0 0,-5.5066 0,-10.61272 0,-16.01921 -5.39831,0 -10.39675,0 -15.79506,0 0,-5.40648 0,-10.41248 0,-16.0192 -5.49828,0 -10.59669,0 -15.89503,0 0,-32.23866 0,-63.97671 0,-96.21537 5.19837,0 10.19681,0 15.59512,0 0,-5.40648 0,-10.41248 0,-15.81897 5.39831,0 10.39675,0 15.995,0 0,-5.5066 0,-10.61272 0,-16.21944 5.49829,0 10.59669,0 15.99501,0 0,-2.80337 0,-5.00601 0,-7.80937 5.29834,0 10.39675,0 15.89503,0 0.1,-2.90348 0.2999,-5.30636 0.39987,-8.0096 26.49172,0 52.88348,0 79.57514,0 0.1,2.40288 0.19993,4.80576 0.39987,7.70924 5.19838,0 10.29678,0 15.6951,0 0,2.80336 0,5.006 0,7.80937 5.29834,0 10.39675,0 15.89503,0 0.19994,2.90348 0.29991,5.30636 0.49984,8.10972 5.19838,0 10.29678,0 15.59513,0 0,5.40648 0,10.41248 0,15.81897 5.39831,0 10.39675,0 15.995,0 0,5.5066 0,10.61272 0,16.21944 5.49828,0 10.59669,0 15.89503,0 0,26.9323 0,53.36399 0,79.99592 -5.0984,0 -9.99687,0 -15.49515,0 0,8.00961 0,15.81897 0,24.02881 -5.49829,0 -10.59669,0 -16.19494,0 0,5.50661 0,10.61273 0,16.21945 -5.49829,0 -10.59669,0 -15.995,0 0,2.80336 0,5.006 0,7.80937 -5.29835,0 -10.39676,0 -16.09498,0 0,3.0036 0,5.60672 0,8.20984 C 267.01653,417 229.62821,417 192.33986,417 Z m 103.96751,-48.15774 c 2.59919,0 5.09841,0 7.89754,0 0,-3.0036 0,-5.50661 0,-7.90949 0.1,-2.70324 0.19993,-5.30636 0.2999,-8.0096 5.09841,0 10.19682,0 15.49516,0 0,-21.52581 0,-42.55102 0,-64.07683 -5.39831,0 -10.59669,0 -15.6951,0 0,-5.20624 0,-10.51261 0,-16.01921 -5.79818,0 -10.89659,0 -15.995,0 0,-2.60312 0,-5.20624 0,-7.70924 -21.69322,0 -42.68666,0 -63.78007,0 -0.19993,2.60312 -0.2999,4.90588 -0.49984,7.70924 -5.29834,0 -10.29678,0 -15.59513,0 0,3.0036 0,5.5066 0,8.0096 0,2.60313 0,5.20625 0,8.10973 -3.199,0 -5.59825,0 -8.09747,0 -2.59918,0 -5.0984,0 -7.69759,0 0,21.62593 0,42.65114 0,64.07683 2.79913,0 5.19838,0 7.69759,0 0,2.60312 0,5.10612 0,7.60912 3.09904,0.20024 5.49829,0.40048 8.09747,0.5006 0,2.70324 0,5.00601 0,7.70925 2.69916,0 5.09841,0 7.6976,0 0.1,2.80336 0.2999,5.30636 0.39987,7.90948 2.79913,0 5.19838,0 7.6976,0 0.1,2.60312 0.2999,5.20624 0.39987,7.70924 21.39332,0 42.38676,0 63.88004,0 0,-5.5066 0,-10.61272 0,-15.71884 2.59919,0.10012 5.19838,0.10012 7.79756,0.10012 z"
   id="path6"
   style="stroke-width:1.00044" />
<path
   class="st1"
   d="m 832.13993,352.92317 c 0,-26.53181 0,-52.96351 0,-79.99592 5.29834,0 10.39675,0 15.89503,0 0,-5.5066 0,-10.61272 0,-16.01921 5.39831,0 10.39675,0 15.79506,0 0.1,-2.70324 0.29991,-5.10612 0.39988,-8.0096 5.0984,0 10.19681,0 15.69509,0 0,-2.90348 0,-5.30636 0,-8.10972 5.49829,0 10.59669,0 15.995,0 0,-2.80337 0,-5.00601 0,-7.70925 26.69166,0 53.08342,0 79.87504,0 0.1,2.30276 0.29991,4.70564 0.39988,7.60913 5.19837,0 10.29678,0 15.59513,0 0,2.80336 0,5.006 0,7.80936 5.29834,0 10.39676,0 15.89506,0 0.1,2.90348 0.2999,5.30636 0.3999,8.10972 5.0984,0 10.1968,0 15.795,0 0,5.50661 0,10.61273 0,16.01921 5.3984,0 10.3968,0 15.6951,0 0,34.74166 0,69.18295 0,104.02473 -4.8984,0 -9.8969,0 -15.2952,0 -0.1999,2.90348 -0.2999,5.30636 -0.4998,8.20984 -5.1984,0 -10.2968,0 -15.5952,0 0,5.40649 0,10.41249 0,15.81897 -5.3983,0 -10.39674,0 -16.19493,0 0,5.70684 0,11.01321 0,16.31957 -31.99,0 -63.98,0 -95.97001,0 0,-5.10612 0,-10.31236 0,-15.91909 -5.29834,0 -10.39675,0 -15.89503,0 0,-2.90348 0,-5.30636 0,-8.10972 -5.49828,0 -10.59669,0 -15.89503,0 0,-5.40648 0,-10.31237 0,-15.81897 -5.29835,0 -10.39675,0 -15.89503,0 0,-8.20984 0,-15.91909 0,-24.32917 -5.69822,0.10012 -10.8966,0.10012 -16.19494,0.10012 z m 135.95751,-79.99592 c -2.59919,0 -5.19838,0 -7.79756,-0.10012 -0.1,-2.60312 -0.29991,-5.20624 -0.39988,-7.80936 -16.09497,0 -31.59013,0 -47.38519,0 -0.19994,2.60312 -0.39988,5.006 -0.69978,7.80936 -5.29835,0 -10.19682,0 -15.59513,0 0,2.90348 0,5.30636 0,7.80936 -2.59919,0.10012 -5.19837,0.20024 -7.89753,0.40048 -0.1,2.80337 -0.29991,5.20625 -0.39988,7.60913 -2.79912,0.10012 -5.19837,0.30036 -7.69759,0.40048 0,5.5066 0,10.71284 0,15.81897 0,16.0192 0,32.03841 0,48.05762 0,2.60312 0,5.20624 0,7.80936 2.89909,0.10012 5.29834,0.30036 7.69759,0.40048 0.19994,2.80336 0.29991,5.20625 0.39988,7.60913 2.89909,0.20024 5.29834,0.30036 7.89753,0.5006 0,2.70324 0,5.006 0,7.509 2.69916,0 5.09841,0 7.6976,0 0.1,-2.60312 0.19993,-5.006 0.39987,-7.80936 2.69916,0 5.19838,0 7.59763,0 0.1,2.60312 0.2999,5.20624 0.39987,7.60912 16.19494,0 31.79007,0 47.48516,0 0.19994,-2.70324 0.29991,-5.006 0.49985,-7.70924 2.79912,0 5.19837,0 7.69759,0 2.59919,0 5.19838,0 7.79756,0 0.1,-2.90348 0.29991,-5.30637 0.39988,-7.70925 2.79912,-0.10012 5.19837,-0.20024 7.89753,-0.40048 0,-2.90348 0,-5.30636 0,-7.80936 2.39925,0 4.89847,0 7.49766,0 0,-21.52581 0,-42.65114 0,-63.97671 -2.79913,0 -5.19838,0 -7.6976,0 -2.59918,0 -5.0984,0 -7.29772,0 -0.69978,-3.5042 -1.19962,-6.30756 -1.79943,-9.11093 1.79943,-4.30516 -0.59982,-6.80816 -6.69791,-6.90828 z"
   id="path8"
   style="stroke-width:1.00044" />
<path
   class="st0"
   d="m 1280,328.89436 c -5.0984,0 -10.1968,0 -15.7951,0 0,8.0096 0,15.51861 0,24.02881 -5.5982,0 -10.8966,0 -16.0949,0 0,-10.51261 0,-21.12533 0,-32.13854 -5.9982,0 -11.0966,0 -16.195,0 0,-2.60312 0,-5.20624 0,-8.20984 5.7982,0 10.8966,0 16.195,0 0,-5.5066 0,-10.41249 0,-15.81897 5.3983,0 10.4967,0 15.995,0 0,-3.0036 0,-5.40648 0,-7.90948 5.2983,0 10.5967,0 15.795,0 0.1,13.31596 0.1,26.73205 0.1,40.04802 z"
   id="path10"
   style="stroke-width:1.00044" />
<path
   class="st1"
   d="m 0.39984604,240.78872 c 5.29834426,0 10.69665696,0 15.99500196,-0.10012 0,13.11572 0,26.23145 0,40.14813 -5.498282,0 -10.7966265,0 -15.99500196,0 0,-13.31596 0,-26.73205 0,-40.04801 z"
   id="path12"
   style="stroke-width:1.00044" />
<path
   class="st1"
   d="m 1264.2049,288.84634 c 0,2.503 0,4.90588 0,7.90948 -5.4982,0 -10.5967,0 -15.995,0 0,5.40648 0,10.41249 0,15.81897 -5.3983,0 -10.3967,0 -16.1949,0 0,3.10372 0,5.70684 0,8.20984 -5.2983,0 -10.5967,0 -15.895,0 0,-5.10612 0,-10.21224 0,-15.71884 -5.3984,0 -10.3968,0 -15.8951,0 0,-5.40649 0,-10.51261 0,-16.01921 -5.5982,0 -10.5967,0 -15.995,0 -0.1999,-2.90348 -0.2999,-5.30636 -0.3998,-8.00961 -5.1984,0 -10.0969,0 -15.4952,0 -0.1999,-2.70324 -0.2999,-5.10612 -0.4998,-8.0096 -5.1984,0 -10.1969,0 -15.5952,0 0,-2.80336 0,-5.10612 0,-7.90948 -5.3983,0 -10.4967,0 -15.795,0 -0.2,-2.90348 -0.3999,-5.30637 -0.5999,-8.00961 -5.0984,0 -9.9968,0 -15.4951,0 -0.1999,-2.70324 -0.2999,-5.10612 -0.4999,-8.0096 -5.0984,0 -10.1968,0 -15.5951,0 -0.1,-2.80336 -0.1999,-5.10612 -0.3999,-7.90948 -4.9984,0 -10.0968,0 -15.5951,0 -0.1999,-3.10373 -0.2999,-5.70685 -0.3999,-8.30997 0,-2.60312 0,-5.10612 0,-7.90948 -5.6982,0 -10.7966,0 -15.895,0 -10.4967,0 -20.8935,0 -31.6901,0 -0.1999,-2.90348 -0.2999,-5.30636 -0.4998,-8.00961 -5.0984,0 -10.0969,0 -15.4952,0 -0.1999,-2.70324 -0.2999,-5.10612 -0.4998,-8.0096 -10.4968,0 -20.8935,0 -31.59019,0 0,-2.80336 0,-5.10612 0,-7.70924 -37.38832,0 -74.37676,0 -111.86504,0 -0.1,2.30276 -0.29991,4.70564 -0.49985,7.60912 -15.89503,0 -31.59012,0 -47.68509,0 0,2.80336 0,5.10612 0,7.90948 -10.69666,0 -21.09341,0 -31.89004,0 -0.19994,2.90349 -0.2999,5.30637 -0.39987,8.00961 -10.49672,0 -20.79351,0 -31.49016,0 -0.19994,2.70324 -0.29991,5.10612 -0.49985,8.0096 -21.19337,0 -42.18681,0 -63.58013,0 0,2.80336 0,5.10612 0,7.90949 -10.69665,0 -21.09341,0 -31.79006,0 -0.19994,2.90348 -0.39988,5.30636 -0.59982,7.90948 -74.47672,0 -148.85348,0 -223.53014,0 0,-2.503 0,-4.80576 0,-7.60912 -10.69666,0 -21.09341,0 -31.89004,0 -0.19993,-2.90349 -0.2999,-5.30637 -0.49984,-8.00961 -10.49672,0 -20.7935,0 -31.49016,0 -0.19994,-2.70324 -0.29991,-5.10612 -0.49984,-8.0096 -5.19838,0 -10.19682,0 -15.59513,0 0,-2.80336 0,-5.10612 0,-7.90949 -5.39831,0 -10.49672,0 -15.79506,0 -0.19994,-2.90348 -0.39988,-5.30636 -0.59982,-8.0096 -5.0984,0 -9.99687,0 -15.49515,0 -0.19994,-2.70324 -0.29991,-5.10612 -0.49985,-8.0096 -10.49672,0 -20.89347,0 -31.49016,0 0,-2.80336 0,-5.10613 0,-7.70925 26.29179,0 52.68354,0 79.47517,0 0.1,2.30276 0.2999,4.70564 0.49984,7.30877 5.09841,0 9.99688,0 15.49516,0 0,-10.21225 0,-20.62473 0,-31.83818 5.79819,0 10.99656,0 16.29491,0 0,7.90948 0,15.81897 0,24.22905 5.69821,0 10.59668,0 15.69509,0 0.19994,2.80336 0.39988,5.20625 0.59981,7.70925 21.49329,0 42.5867,0 63.6801,0 15.99501,0 31.99001,0 47.88504,0 5.29834,0 10.69666,0 15.995,0 15.89503,0 31.79007,0 47.78507,0 0,-13.71645 0,-26.83218 0,-39.9479 0,-2.70324 0,-5.30637 0,-8.00961 0,-5.10612 0,-10.21224 0,-15.81896 -5.09841,0 -10.19682,0 -15.6951,0 0,-5.50661 0,-10.51261 0,-16.01921 -5.49828,0 -10.49672,0 -16.09497,0 0,-5.70684 0,-10.91309 0,-16.21945 l 0.1,-0.10012 c 5.09841,0 10.29678,0 15.79507,0 0.19993,2.60312 0.2999,5.006 0.49984,7.90948 5.19837,0 10.29678,0 15.59513,0 0,2.80337 0,5.00601 0,7.80937 5.29834,0 10.39675,0 15.89503,0 0.19994,2.90348 0.2999,5.30636 0.39987,8.10972 5.19838,0 10.19682,0 15.79507,0 0,2.90348 0,5.30636 0,8.00961 5.39831,0 10.39675,0 15.79506,0 0.1,2.70324 0.29991,5.10612 0.39988,8.0096 5.0984,0 10.19681,0 15.69509,0 0,2.90348 0,5.30636 0,8.10972 5.49828,0 10.59669,0 15.995,0 0,2.80336 0,5.00601 0,7.80937 5.39832,0 10.39675,0 15.79507,0 0.19994,2.90348 0.2999,5.30636 0.49984,8.10972 5.19838,0 10.29678,0 15.59513,0 0,2.80336 0,5.006 0,7.80936 69.27835,0 138.35676,0 207.83505,0 0.1,2.80337 0.29991,5.20625 0.39987,8.10973 15.79507,0 31.49016,0 47.6851,0 0,2.90348 0,5.30636 0,8.10972 16.19494,0 31.89007,0 47.98497,0 0,2.80336 0,5.006 0,7.80937 10.6967,0 21.0934,0 31.7901,0 0.1999,2.90348 0.2999,5.30636 0.4998,8.10972 10.4968,0 20.8935,0 31.5902,0 0,2.80336 0,5.006 0,7.80936 10.6966,0 21.0934,0 31.89,0 0.1999,2.90349 0.2999,5.30637 0.3999,8.10973 10.4967,0 20.8935,0 31.79,0 0,2.90348 0,5.30636 0,8.0096 5.3984,0 10.3968,0 15.7951,0 0.1,2.70324 0.2999,5.10612 0.3999,8.00961 5.0984,0 10.1968,0 15.6951,0 0,2.90348 0,5.30636 0,8.10972 10.8966,0 21.2933,0 31.99,0 0,2.80336 0,5.006 0,7.80936 5.3983,0 10.3967,0 15.7951,0 0.1999,2.90348 0.2999,5.30637 0.4998,8.10973 5.1984,0 10.2968,0 15.5951,0 0,5.40648 0,10.41248 0,15.81896 5.3983,0 10.3968,0 15.8951,0 0.3998,3.40409 0.4998,6.00721 0.6997,8.61033 z M 640.39985,152.68307 c -0.1,-2.60312 -0.29991,-5.20624 -0.39988,-7.60912 -5.49828,0 -10.49672,0 -15.39519,0 0,16.01921 0,31.73805 0,47.55702 5.39831,0 10.59669,0 15.6951,0 10.59668,0 21.19337,0 31.79006,0 0.19994,-2.90348 0.29991,-5.10612 0.49985,-8.0096 5.29834,0 10.39675,0 15.49515,0 0,-2.90348 0,-5.10612 0,-8.00961 -5.29834,0 -10.39675,0 -15.49515,0 -0.19994,-2.90348 -0.29991,-5.10612 -0.49985,-8.0096 -5.29834,0 -10.39675,0 -15.79506,0 0,-5.5066 0,-10.5126 0,-15.91909 -5.69822,0 -10.79663,0 -15.89503,0 z"
   id="path14"
   style="stroke-width:1.00044" />
<path
   class="st2"
   d="m 496.24489,200.54046 c -21.0934,0 -42.18681,0 -63.6801,0 -0.19993,-2.50301 -0.39987,-4.90589 -0.59981,-7.70925 -5.09841,0 -9.99688,0 -15.69509,0 0,-8.30996 0,-16.31957 0,-24.22905 0,0 -0.1,0.10012 -0.1,0.10012 5.19837,0 10.49672,0 15.79506,0 0,-3.0036 0,-5.20624 0,-7.90948 -5.39831,0 -10.49672,0 -15.59513,0 0,-5.10613 0,-10.21225 0,-15.91909 5.19838,0 10.19682,0 15.59513,0 0,-5.40648 0,-10.31237 0,-16.01921 5.49828,0 10.59669,0 15.89503,0 0,-18.92269 0,-37.244656 0,-55.967105 -4.89847,0 -9.79693,0 -15.19525,0 0,-10.913085 0,-21.22545 0,-32.138535 4.89847,0 9.89691,0 15.09528,0 0.19994,-2.803362 0.39988,-5.006003 0.69979,-7.709244 4.99843,0 10.09684,0 15.39519,0 0.19993,2.302761 0.39987,4.605522 0.59981,7.408883 4.99844,0 9.89691,0 15.59512,0 0,3.103722 0,5.706843 0,8.209844 -5.29834,0 -10.49672,0 -15.59512,0 0,3.003602 0,5.306363 0,7.809364 5.39831,0 10.49672,0 15.59512,0 0,0 0.39988,0.20024 0.39988,0.20024 -0.1,2.603121 -0.29991,5.306363 -0.39988,7.909484 -5.19837,0 -10.39675,0 -15.49515,0 0,3.003601 0,5.306363 0,8.009604 5.39831,0 10.49672,0 15.49515,0 0.1,2.503001 0.19994,4.905882 0.39988,8.009604 5.19837,0 10.19681,0 15.49516,0 0,16.119327 0,31.738051 0,47.857381 -10.29679,0 -20.69354,0 -31.89004,0 0,11.11333 0,21.72605 0,32.23866 -5.19837,0 -10.39675,0 -15.49515,0 0,3.0036 0,5.30636 0,8.0096 5.39831,0 10.49671,0 15.49515,0 0.1,2.503 0.19994,4.90588 0.39988,7.80936 5.0984,0 9.99687,0 15.59512,0 0,5.40649 0,10.51261 0,16.11933 5.59825,0 10.69666,0 16.29491,0 -0.1,3.0036 -0.1,5.50661 -0.1,7.90949 z"
   id="path16"
   style="stroke-width:1.00044" />
<path
   class="st2"
   d="m 560.2249,200.64058 c -5.29834,0 -10.69666,0 -15.995,0 0,-10.41249 0,-20.82497 0,-32.13854 10.89659,0 21.39331,0 31.89003,0 0,0 0.19994,0.40048 0.19994,0.40048 0,5.20624 0,10.51261 0,16.01921 -5.79819,0 -10.79663,0 -16.09497,0 0,5.40648 0,10.5126 0,15.71885 z"
   id="path18"
   style="stroke-width:1.00044" />
<path
   class="st1"
   d="m 576.2199,104.62545 c -5.09841,0 -10.29678,0 -15.69509,0 0,-5.206242 0,-10.312365 0,-15.618727 4.99843,0 9.99687,0 15.59512,0 0.1,5.206242 0.1,10.412485 0.1,15.618727 0,0 0,0 0,0 z"
   id="path20"
   style="stroke-width:1.00044" />
<path
   class="st0"
   d="m 576.11993,168.40192 c 0,-2.30276 0,-4.60552 0,-7.90948 5.49828,0 10.69666,0 15.89504,0 0,0 0.2999,0.30036 0.2999,0.30036 0,2.60312 0,5.10612 0,8.0096 -5.79819,0 -10.89659,0 -15.995,0 z"
   id="path22"
   style="stroke-width:1.00044" />
<path
   class="st1"
   d="m 464.05495,168.70228 c -5.0984,0 -10.19681,0 -15.49515,0 0,-2.70324 0,-4.90588 0,-8.0096 5.0984,0 10.29678,0 15.49515,0 0,2.70324 0,5.30636 0,8.0096 z"
   id="path24"
   style="stroke-width:1.00044" />
<path
   class="st0"
   d="m 608.00997,152.68307 c 0,2.70324 0,5.30637 0,8.00961 -5.19838,0 -10.49672,0.10012 -15.6951,0.10012 0,0 -0.2999,-0.30036 -0.2999,-0.30036 0.1,-2.40288 0.2999,-4.90589 0.49984,-7.80937 5.29834,0 10.39675,0 15.49516,0 z"
   id="path26"
   style="stroke-width:1.00044" />
<path
   class="st1"
   d="m 480.04995,72.587035 c -5.0984,0 -10.19681,0 -15.49515,0 0,-2.703241 0,-4.905883 0,-8.009604 5.0984,0 10.29678,0 15.49515,0 0,2.703241 0,5.306363 0,8.009604 z"
   id="path28"
   style="stroke-width:1.00044" />
<path
   class="st1"
   d="m 16.294879,240.78872 c 0,-7.80937 0,-15.61873 0,-23.9287 5.398313,0 10.49672,0 15.995001,0 0,-5.5066 0,-10.61272 0,-16.11932 13.895658,0 27.391441,0 40.787254,0 7.697595,0 7.697595,0 7.597626,-7.90949 10.296782,0 20.59356,0 31.29022,0 0.1,-2.60312 0.29991,-5.006 0.49984,-8.20984 31.89004,0 63.88004,0 95.77008,0 26.49172,0 52.88347,0 79.6751,0 0,2.90348 0,5.30636 0,8.0096 -31.6901,0 -63.28023,0 -95.3702,0 -0.19994,2.70324 -0.2999,5.10612 -0.49984,8.00961 -31.79007,0 -63.48016,0 -95.570136,0 -0.09997,2.80336 -0.199937,5.10612 -0.399875,7.90948 -10.396751,0 -20.793502,0 -31.690097,0 0,5.60672 0,10.61273 0,16.11933 -10.796626,0 -21.093408,0 -31.890034,0 0,5.40648 0,10.5126 0,16.21945 -5.598251,-0.10012 -10.896595,-0.10012 -16.194939,-0.10012 z"
   id="path30"
   style="stroke-width:1.00044" />
<path
   class="st2"
   d="m 1216.12,320.78463 c 5.2983,0 10.5967,0 15.895,0 5.0984,0 10.1968,0 16.1949,0 0,11.01321 0,21.62593 0,32.13854 0,2.503 0,4.90588 0,7.80936 -10.9965,0 -21.5932,0 -32.0899,0 0,-13.31596 0,-26.63193 0,-39.9479 z"
   id="path32"
   style="stroke-width:1.00044" />
<path
   d="m 1072.065,224.86963 c 5.0984,0 10.1968,0 15.895,0 0,2.70324 0,5.30636 0,7.90948 -5.0984,0 -10.0968,0 -15.895,0 0,-2.70324 0,-5.30636 0,-7.90948 z"
   id="path34"
   style="stroke-width:1.00044" />
<path
   class="st1"
   d="m 416.36985,160.7928 c 5.09841,0 10.19682,0 15.59513,0 0,2.70324 0,4.90588 0,7.90948 -5.29834,0 -10.49672,0 -15.79506,0 0.1,-2.60312 0.19993,-5.30636 0.19993,-7.90948 z"
   id="path36"
   style="stroke-width:1.00044" />
<path
   d="m 480.14992,56.467707 c -5.0984,0 -10.29678,0 -15.59512,0 0,-2.603121 0,-4.805762 0,-7.809364 5.0984,0 10.39675,0 15.59512,0 0,2.603122 0,5.206243 0,7.809364 z"
   id="path38"
   style="stroke-width:1.00044" />
<path
   d="m 288.40984,368.94238 c 0,5.10612 0,10.21224 0,15.71884 -21.49328,0 -42.38675,0 -63.88004,0 -0.1,-2.503 -0.2999,-5.10612 -0.39987,-7.70924 0,-2.60312 0,-5.20624 0,-8.10972 3.09903,0 5.49828,0 8.19744,0 0,-5.40649 0,-10.51261 0,-15.91909 2.79912,0 5.19837,0 8.09747,0 0,-2.90348 0,-5.40648 0,-8.30996 2.99906,0 5.39831,0 7.89753,0 0,-2.80337 0,-5.30637 0,-7.80937 l -0.1,0.10012 c 5.39831,0 10.79663,-0.10012 16.09497,-0.10012 0,2.60312 0,5.20624 0,8.10973 2.79913,0 5.19838,0 7.89753,0 0,2.80336 0,5.20624 0,8.10972 2.8991,0 5.39832,0 8.29741,0 0,2.90348 0,5.30636 0,8.10972 2.79913,0 5.19838,0 7.89753,0 0,2.80336 0,5.30637 0,7.80937 z"
   id="path40"
   style="stroke-width:1.00044" />
<path
   d="m 208.43483,280.83673 c 0,-2.503 0,-4.90588 0,-8.0096 5.29835,0 10.39676,0 15.59513,0 0.19994,-2.80336 0.29991,-5.10612 0.49984,-7.70924 21.09341,0 42.08685,0 63.78007,0 0,2.503 0,5.10612 0,7.70924 v 0 c -2.59918,0 -5.19837,0 -8.09747,0 0,5.60672 0,10.61273 0,16.01921 -2.79912,0 -5.19837,0 -8.09747,0 0,2.90348 0,5.40648 0,8.30996 -2.99906,0 -5.39831,0 -7.79756,0 0,2.80336 0,5.30637 0,7.80937 -5.39831,0 -10.79663,0 -16.09497,0 0,-2.60312 0,-5.20625 0,-8.20985 -5.49828,0 -10.59669,0 -15.995,0 0,-2.80336 0,-5.20624 0,-8.0096 -2.79913,0 -5.19838,0 -7.9975,0 0,-2.80336 0,-5.20624 0,-7.90949 -5.49828,0 -10.69666,0 -15.79507,0 z"
   id="path42"
   style="stroke-width:1.00044" />
<path
   d="m 304.30487,288.84634 c 5.09841,0 10.29679,0 15.6951,0 0,21.42569 0,42.4509 0,64.07683 -5.29834,0 -10.39675,0 -15.49516,0 0,-2.60312 0,-5.20624 0,-8.10972 -3.09903,0 -5.49828,0 -8.19744,0 0,-2.80337 0,-5.20625 0,-7.90949 -2.79912,0 -5.19837,0 -7.89753,0 0,-2.80336 0,-5.20624 0,-7.90948 -5.59825,0 -10.79662,0 -16.09497,0 0,-5.40648 0,-10.81297 0,-16.11933 5.19838,0 10.49672,0 16.09497,0 0,-2.70324 0,-5.10612 0,-8.10972 5.49828,0 10.69666,0 15.995,0 -0.1,-5.70685 -0.1,-10.81297 -0.1,-15.91909 z"
   id="path44"
   style="stroke-width:1.00044" />
<path
   d="m 200.33736,353.02329 c -2.49921,0 -4.89846,0 -7.69759,0 0,-21.52581 0,-42.4509 0,-64.07683 2.49922,0 5.09841,0 7.69759,0 0,5.30636 0,10.5126 0,16.11933 5.69822,0 10.79663,0 15.79507,0 0.1,2.80336 0.19994,5.20624 0.39987,7.70924 8.19744,0 15.99501,0 23.89254,0 0,5.20624 0,10.51261 0,16.21945 2.79912,0 5.39831,0 7.89753,0 0,3.0036 0,5.5066 0,7.90948 l 0.1,-0.10012 c -5.29835,0 -10.49672,0 -16.09497,0 0,-2.80336 0,-5.20624 0,-7.70924 -2.79913,0 -5.19838,0 -8.09747,0 0,5.40648 0,10.5126 0,16.11933 -5.59825,0 -10.69666,0 -16.09497,0 0,2.80336 0,5.20624 0,7.90948 -2.79913,-0.10012 -5.29835,-0.10012 -7.79757,-0.10012 z"
   id="path46"
   style="stroke-width:1.00044" />
<path
   d="m 288.30987,272.82713 c 5.09841,0 10.19682,0 15.995,0 0,5.60672 0,10.81297 0,16.01921 0,0 0,0 0,0 -2.59918,0 -5.0984,0 -7.9975,0 0,-2.80336 0,-5.20624 0,-8.10973 -2.89909,0 -5.39831,0 -7.9975,0 0,-3.0036 0,-5.5066 0,-7.90948 z"
   id="path48"
   style="stroke-width:1.00044" />
<path
   d="m 296.30737,368.84226 c 0,-2.40288 0,-4.90589 0,-7.90949 2.79913,0 5.29835,0 7.89754,0 0,2.40288 0,4.90589 0,7.90949 -2.79913,0 -5.29835,0 -7.89754,0 z"
   id="path50"
   style="stroke-width:1.00044" />
<path
   d="m 896.11993,280.63649 c 0,-2.503 0,-4.90588 0,-7.80936 5.39832,0 10.29678,0 15.59513,0 0.19994,-2.80336 0.39987,-5.20624 0.69978,-7.80936 15.79506,0 31.39019,0 47.38519,0 0.1,2.60312 0.29991,5.20624 0.39988,7.80936 0,5.20624 0,10.51261 0,16.01921 -2.99907,0 -5.39832,0 -8.19744,0 0,2.70324 0,5.10612 0,8.10972 -2.89909,0 -5.39831,0 -7.89753,0 0,3.0036 0,5.50661 0,7.90949 -5.39832,0 -10.79663,0 -16.19494,0 0,-2.60313 0,-5.20625 0,-8.10973 -5.39831,0 -10.49672,0 -16.09497,0 0,-2.90348 0,-5.40648 0,-8.20984 -2.8991,0 -5.29835,0 -7.6976,0 -0.1,-2.80336 -0.19993,-5.20624 -0.39987,-7.90949 -2.59919,0 -5.09841,0 -7.59763,0 z"
   id="path52"
   style="stroke-width:1.00044" />
<path
   d="m 968.09744,368.84226 c -2.49922,0 -4.89847,0 -7.69759,0 -0.19994,2.70324 -0.29991,5.006 -0.49985,7.70924 -15.69509,0 -31.39019,0 -47.48516,0 -0.1,-2.503 -0.29991,-5.006 -0.39987,-7.60912 0,-5.20625 0,-10.51261 0,-16.01921 2.99906,0 5.39831,0 8.19743,0 0,-2.70324 0,-5.10612 0,-8.10972 2.8991,0 5.39832,0 8.09747,0 0,-3.00361 0,-5.50661 0,-7.90949 l -0.1,0.10012 c 5.39832,0 10.79663,-0.10012 16.09497,-0.10012 0,2.60312 0,5.20624 0,8.20985 2.79913,0 5.29835,0 7.99751,0 0,2.80336 0,5.20624 0,8.0096 2.79912,0 5.19837,0 7.9975,0 0,2.80336 0,5.20624 0,8.0096 2.79912,0 5.19837,0 7.89753,0 -0.1,2.80336 -0.1,5.20625 -0.1,7.70925 z"
   id="path54"
   style="stroke-width:1.00044" />
<path
   d="m 880.2249,352.92317 c 0,-16.01921 0,-32.03842 0,-48.05762 5.29834,0 10.49672,0 15.69509,0 0.1,3.0036 0.29991,5.5066 0.39988,7.90948 8.19744,0 15.995,0 23.89253,0 0,5.20624 0,10.51261 0,16.21945 2.79913,0 5.39832,0 7.89754,0 0,3.0036 0,5.5066 0,7.90948 l 0.1,-0.10012 c -5.29834,0 -10.59668,0 -16.19493,0 0,-2.80336 0,-5.30636 0,-7.70924 -2.79913,0 -5.19838,0 -7.99751,0 0,5.30636 0,10.41248 0,15.91909 -5.49828,0 -10.59668,0 -15.995,0 0,2.80336 0,5.20624 0,7.90948 -2.89909,0 -5.29834,0 -7.79756,0 z"
   id="path56"
   style="stroke-width:1.00044" />
<path
   d="m 984.09244,288.94646 c 2.49922,0 4.89847,0 7.6976,0 0,21.32557 0,42.35078 0,63.97671 -2.59919,0 -5.09841,0 -7.49766,0 0,-2.60312 0,-5.20624 0,-8.10972 -3.09903,0 -5.49828,0 -8.19744,0 0,-2.80337 0,-5.20625 0,-7.90949 -2.79912,0 -5.19838,0 -7.89753,0 0,-2.80336 0,-5.20624 0,-7.40888 -0.59981,-0.30036 -0.89972,-0.5006 -1.19963,-0.5006 -4.99843,0 -9.8969,0 -14.89534,0 0,-5.40648 0,-10.81297 0,-16.21945 5.29834,0 10.49672,0 16.19494,0 0,-2.80336 0,-5.20624 0,-8.0096 5.39831,0 10.49672,0 15.89503,0 -0.1,-5.50661 -0.1,-10.71285 -0.1,-15.81897 z"
   id="path58"
   style="stroke-width:1.00044" />
<path
   d="m 974.99528,279.83553 c -2.09934,0.40048 -4.19868,0.80096 -6.89784,1.30156 0,-3.10372 0,-5.70684 0,-8.30996 6.09809,0.20024 8.49734,2.70324 6.89784,7.0084 z"
   id="path60"
   style="stroke-width:1.00044" />
<path
   d="m 592.31487,160.7928 c 5.19838,0 10.49672,-0.10012 15.6951,-0.10012 0,13.11572 0,26.23145 0,39.9479 -16.09497,0 -31.99001,0 -47.78507,0 0,-5.10613 0,-10.21225 0,-15.71885 5.29834,0 10.29678,0 16.09497,0 0,-5.60672 0,-10.81297 0,-16.01921 5.09841,0 10.19681,0 15.995,0 0,-3.0036 0,-5.5066 0,-8.10972 z"
   id="path62"
   style="stroke-width:1.00044" />
<path
   d="m 640.39985,152.68307 c 5.0984,0 10.19681,0 15.79506,0 0,5.40649 0,10.41249 0,15.91909 5.49828,0 10.49672,0 15.79506,0 0.19994,2.90348 0.29991,5.10612 0.49985,8.0096 5.0984,0 10.19681,0 15.49515,0 0,2.90349 0,5.10613 0,8.00961 -5.0984,0 -10.09684,0 -15.49515,0 -0.19994,2.80336 -0.29991,5.10612 -0.49985,8.0096 -10.59669,0 -21.19337,0 -31.79006,0 0.1,-13.31596 0.1,-26.63193 0.19994,-39.9479 z"
   id="path64"
   style="stroke-width:1.00044" />
<path
   class="st0"
   d="m 640.39985,152.68307 c -0.1,13.31597 -0.1,26.63194 -0.19994,39.84778 -5.09841,0 -10.19682,0 -15.6951,0 0,-15.81897 0,-31.53781 0,-47.55702 4.89847,0 9.99688,0 15.39519,0 0.19994,2.503 0.29991,5.10612 0.49985,7.70924 z"
   id="path66"
   style="stroke-width:1.00044" />
<path
   d="m 248.42234,304.76543 c 0,2.60312 0,5.10612 0,8.10972 -2.99906,0 -5.59825,0 -8.09747,0 0,-2.60312 0,-5.10612 0,-8.10972 2.89909,0 5.49828,0 8.09747,0 z"
   id="path68"
   style="stroke-width:1.00044" />
<path
   d="m 264.2174,337.00408 c 0,-2.60312 0,-5.10612 0,-8.10972 2.99906,0 5.59825,0 8.09747,0 0,2.60312 0,5.10612 0,8.10972 -2.89909,0 -5.49828,0 -8.09747,0 z"
   id="path70"
   style="stroke-width:1.00044" />
<ellipse
   cx="924.11127"
   cy="308.87036"
   id="circle72"
   rx="5.7981882"
   ry="5.806963"
   style="stroke-width:1.00044" />
<path
   d="m 952.20241,312.97527 c -2.59919,0 -5.09841,0 -8.09747,0 0,-3.0036 0,-5.60672 0,-8.10972 2.59918,0 5.0984,0 8.09747,0 0,2.90348 0,5.5066 0,8.10972 z"
   id="path74"
   style="stroke-width:1.00044" />
<ellipse
   cx="948.10376"
   cy="332.89917"
   id="circle76"
   rx="5.7981882"
   ry="5.806963"
   style="stroke-width:1.00044" />
<path
   d="m 264.2174,304.76543 c 2.59919,0 5.09841,0 8.09747,0 0,3.0036 0,5.60672 0,8.10972 -2.59919,0 -5.09841,0 -8.09747,0 0,-2.90348 0,-5.5066 0,-8.10972 z"
   id="path78"
   style="stroke-width:1.00044" />
</svg>
