<?xml version="1.0" encoding="UTF-8" standalone="no"?>
<!-- Created with Inkscape (http://www.inkscape.org/) -->

<svg
   width="384"
   height="366"
   viewBox="0 0 101.6 96.837498"
   version="1.1"
   id="svg385"
   inkscape:version="1.2.2 (b0a8486541, 2022-12-01)"
   sodipodi:docname="CBMAvatar-Robot.svg"
   xmlns:inkscape="http://www.inkscape.org/namespaces/inkscape"
   xmlns:sodipodi="http://sodipodi.sourceforge.net/DTD/sodipodi-0.dtd"
   xmlns="http://www.w3.org/2000/svg"
   xmlns:svg="http://www.w3.org/2000/svg">
  <sodipodi:namedview
     id="namedview387"
     pagecolor="#505050"
     bordercolor="#ffffff"
     borderopacity="1"
     inkscape:showpageshadow="0"
     inkscape:pageopacity="0"
     inkscape:pagecheckerboard="1"
     inkscape:deskcolor="#505050"
     inkscape:document-units="px"
     showgrid="false"
     inkscape:zoom="7.7274867"
     inkscape:cx="30.152106"
     inkscape:cy="39.728312"
     inkscape:window-width="1536"
     inkscape:window-height="923"
     inkscape:window-x="0"
     inkscape:window-y="0"
     inkscape:window-maximized="1"
     inkscape:current-layer="layer1" />
  <defs
     id="defs382">
    <pattern
       id="EMFhbasepattern"
       patternUnits="userSpaceOnUse"
       width="6"
       height="6"
       x="0"
       y="0" />
  </defs>
  <g
     inkscape:label="Layer 1"
     inkscape:groupmode="layer"
     id="layer1">
    <g
       id="g276"
       transform="matrix(3.4285718,0,0,2.1785714,-0.32825147,-0.13890571)">
      <path
         style="fill:#104ea4;fill-opacity:1;fill-rule:nonzero;stroke:none;stroke-width:0.324012"
         d="m 16.975766,12.74429 c 0,-2.116226 0,-4.232438 0,-6.3486496 1.41111,0 2.82222,0 4.23334,0 0,2.1162116 0,4.2324236 0,6.3486496 -1.41112,0 -2.82223,0 -4.23334,0 z"
         id="path612-3" />
      <path
         style="fill:#5795eb;fill-opacity:1;fill-rule:nonzero;stroke:none;stroke-width:0.264583"
         d="m 29.72907,27.58043 c 0,0.70555 0,1.41111 0,2.11666 -1.41111,0 -2.82222,0 -4.14514,0 0,0.79375 0,1.49931 0,2.11667 1.41111,0 2.82222,0 4.14514,0 0,1.41111 0,2.82222 0,4.23333 -1.41111,0 -2.82222,0 -4.14514,0 -0.0882,0.79375 -0.0882,1.49931 -0.17639,2.11667 -1.41111,0 -2.82222,0 -4.14514,0 0,-0.70555 0,-1.41111 0,-2.11667 -0.79375,0 -1.4993,0 -2.20486,0 -0.70555,0 -1.32292,0 -2.11667,0 0,0.79375 0,1.41112 0,2.11667 -0.70555,0 -1.41111,0 -2.11666,0 -0.70556,0 -1.32292,0 -2.11667,0 0,-0.79375 0,-1.41111 0,-2.11667 -0.70555,0 -1.41111,0 -2.11667,0 -0.70555,0 -1.32291,0 -2.02847,0 0,0.79375 0,1.49931 0,2.11667 -1.41111,0 -2.82222,0 -4.14514,0 -0.0882,-0.79375 -0.0882,-1.4993 -0.17639,-2.11667 -1.41111,0 -2.82222,0 -4.14513,0 0,-0.70555 0,-1.41111 0,-2.11666 1.41111,0 2.82222,0 4.23333,0 0,-0.79375 0,-1.49931 0,-2.20486 0,-0.70556 0,-1.32292 0,-2.02848 -1.49931,0 -2.91042,0 -4.23333,0 0,-1.41111 0,-2.82222 0,-4.23333 1.41111,0 2.82222,0 4.23333,0 0,-0.79375 0,-1.4993 0,-2.20486 0,-0.70556 0,-1.32292 0,-2.02847 -1.49931,0 -2.91042,0 -4.23333,0 0,-0.70556 0,-1.41111 0,-2.11667 1.41111,0 2.82222,0 4.23333,0 1.41111,0 2.73403,0 4.23333,0 0,-0.79375 0,-1.41111 0,-2.11667 0,-0.70555 0,-1.41111 0,-2.11666 0.79375,0 1.49931,0 2.20486,0 0.70556,0 1.32292,0 1.94028,0 0,-0.79375 0,-1.41111 0,-2.11667 -2.82222,0 -5.64444,0 -8.37847,0 0,-0.79375 0,-1.4993 0,-2.11667 4.23333,0 8.46667,0 12.7,0 0,1.41112 0,2.82223 0,4.23334 0.79375,0 1.4993,0 2.20486,0 0.70556,0 1.32292,0 2.02847,0 0,0.79375 0,1.4993 0,2.11666 0,0.70556 0,1.32292 0,2.11667 1.49931,0 2.82222,0 4.23334,0 1.41111,0 2.82222,0 4.23333,0 0,0.70556 0,1.41111 0,2.11667 -1.41111,0 -2.82222,0 -4.14514,0 0,0.79375 0,1.41111 0,2.11666 1.41111,0 2.82222,0 4.14514,0 0,0.70556 0,1.41112 0,2.11667 -1.41111,0 -2.82222,0 -4.14514,0 0,0.79375 0,1.49931 0,2.11667 1.41111,0 2.82222,0 4.14514,0 z M 17.11726,23.2589 c 1.32292,0 2.64584,0 4.05695,0 0,-0.70556 0,-1.32292 0,-2.02847 -1.41111,0 -2.73403,0 -4.05695,0 0,0.70555 0,1.41111 -0.0882,2.11666 -1.41111,0 -2.82222,0 -4.32153,-0.0882 0,-0.61736 0,-1.32291 0,-1.94027 -1.41111,0 -2.73402,0 -4.14513,0 0,0.70555 0,1.32291 0,1.94027 1.4993,0 2.82222,0 4.23333,0.0882 0,0.70556 0,1.41112 0,2.11667 0.79375,0 1.4993,0 2.20486,0 0.70556,0 1.32292,0 2.02847,0 0,-0.79375 0,-1.4993 0.0882,-2.20486 z m 4.14514,4.40972 c -4.32153,0 -8.46666,0 -12.7,0 0,2.11667 -0.0882,4.23334 0.0882,6.17361 4.23333,0 8.37847,0 12.6118,0 0,-2.02847 0,-4.14514 0,-6.17361 z m -4.32153,-8.55486 c 0.0882,-0.70555 0.17639,-1.41111 0,-2.02847 -1.41111,0 -2.73402,0 -4.05694,0 0,0.70555 0,1.41111 0,2.02847 1.41111,0 2.64583,0 4.05694,0 z"
         id="path596" />
      <path
         style="fill:#000000;fill-opacity:1;fill-rule:nonzero;stroke:none;stroke-width:0.264583"
         d="m 17.02907,10.64709 c -4.23333,0 -8.46667,0 -12.7,0 -1.41111,0 -2.82222,0 -4.23333,0 0,-1.41111 0,-2.82222 0,-4.23333 1.41111,0 2.82222,0 4.23333,0 1.41111,0 2.82222,0 4.14514,0 0.0882,0.79375 0.0882,1.49931 0.17639,2.11667 2.82222,0 5.64444,0 8.37847,0 1.41111,0 2.82222,0 4.23333,0 1.41111,0 2.73403,0 4.23334,0 0,-0.79375 0,-1.41111 0,-2.11667 0,-0.70555 0,-1.32291 0,-2.11666 1.4993,0 2.82222,0 4.23333,0 0,3.52777 0,7.05555 0,10.58333 -1.41111,0 -2.73403,0 -4.23333,0 0,-0.79375 0,-1.41111 0,-2.11667 0,-0.70555 0,-1.32292 0,-2.11667 -1.49931,0 -2.82223,0 -4.23334,0 -1.41111,0 -2.82222,0 -4.23333,0 z"
         id="path598" />
      <path
         style="fill:#104ea4;fill-opacity:1;fill-rule:nonzero;stroke:none;stroke-width:0.264583"
         d="m 8.5624,4.2971 c 0,-1.41112 0,-2.82223 0,-4.23334 1.41111,0 2.82222,0 4.23334,0 0,1.41111 0,2.82222 0,4.23334 -1.41112,0 -2.82223,0 -4.23334,0 z"
         id="path612" />
      <path
         style="fill:#000000;fill-opacity:1;fill-rule:nonzero;stroke:none;stroke-width:0.264583"
         d="m 0.09574,21.23043 c 1.32291,0 2.73402,0 4.23333,0 0,0.70555 0,1.32291 0,2.02847 0,0.70556 0,1.41111 0,2.20486 -1.41111,0 -2.82222,0 -4.23333,0 0,-1.41111 0,-2.82222 0,-4.23333 z"
         id="path614" />
      <path
         style="fill:#000000;fill-opacity:1;fill-rule:nonzero;stroke:none;stroke-width:0.264583"
         d="m 0.09574,29.69709 c 1.32291,0 2.73402,0 4.23333,0 0,0.70556 0,1.32292 0,2.02848 0,0.70555 0,1.41111 0,2.20486 -1.41111,0 -2.82222,0 -4.23333,0 0,-1.41111 0,-2.82222 0,-4.23334 z"
         id="path616" />
      <path
         style="fill:#000000;fill-opacity:1;fill-rule:nonzero;stroke:none;stroke-width:0.264583"
         d="m 29.72907,23.34709 c -1.32292,0 -2.73403,0 -4.14514,0 0,-0.70555 0,-1.32291 0,-2.11666 1.32292,0 2.73403,0 4.14514,0 0,0.70555 0,1.41111 0,2.11666 z"
         id="path618" />
      <path
         style="fill:#000000;fill-opacity:1;fill-rule:nonzero;stroke:none;stroke-width:0.264583"
         d="m 29.72907,27.58043 c -1.32292,0 -2.73403,0 -4.14514,0 0,-0.61736 0,-1.32292 0,-2.11667 1.32292,0 2.73403,0 4.14514,0 0,0.70556 0,1.41111 0,2.11667 z"
         id="path620" />
      <path
         style="fill:#000000;fill-opacity:1;fill-rule:nonzero;stroke:none;stroke-width:0.264583"
         d="m 29.72907,31.81376 c -1.32292,0 -2.73403,0 -4.14514,0 0,-0.61736 0,-1.32292 0,-2.11667 1.32292,0 2.73403,0 4.14514,0 0,0.70556 0,1.41112 0,2.11667 z"
         id="path622" />
      <path
         style="fill:#104ea4;fill-opacity:1;fill-rule:nonzero;stroke:none;stroke-width:0.264583"
         d="m 17.02907,42.39709 c 0,0.70556 0,1.41112 0,2.11667 -1.41111,0 -2.82222,0 -4.23333,0 0,-0.70555 0,-1.41111 0,-2.11667 1.41111,0 2.82222,0 4.23333,0 z"
         id="path624" />
      <path
         style="fill:#000000;fill-opacity:1;fill-rule:nonzero;stroke:none;stroke-width:0.264583"
         d="m 21.2624,27.66862 c 0,2.02847 0,4.14514 0,6.17361 -4.23333,0 -8.37847,0 -12.6118,0 -0.17639,-1.94027 -0.0882,-4.05694 -0.0882,-6.17361 4.23334,0 8.37847,0 12.7,0 z"
         id="path626" />
      <path
         style="fill:#000000;fill-opacity:1;fill-rule:nonzero;stroke:none;stroke-width:0.264583"
         d="m 17.02907,42.39709 c -1.41111,0 -2.82222,0 -4.23333,0 -1.41112,0 -2.73403,0 -4.23334,0 0,-1.4993 0,-2.82222 0,-4.23333 0,-0.61736 0,-1.32292 0,-2.11667 0.70556,0 1.32292,0 2.02847,0 0.70556,0 1.41112,0 2.11667,0 0,0.70556 0,1.32292 0,2.11667 0.79375,0 1.41111,0 2.11667,0 0.70555,0 1.41111,0 2.11666,0 0,-0.70555 0,-1.32292 0,-2.11667 0.79375,0 1.41112,0 2.11667,0 0.70556,0 1.41111,0 2.20486,0 0,0.70556 0,1.41112 0,2.11667 0,1.41111 0,2.73403 0,4.23333 -1.4993,0 -2.82222,0 -4.23333,0 z"
         id="path628" />
      <path
         style="fill:#000000;fill-opacity:1;fill-rule:nonzero;stroke:none;stroke-width:0.264583"
         d="m 4.32907,19.11376 c 0,-0.70555 0,-1.32292 0,-2.11667 1.4993,0 2.82222,0 4.23333,0 0,0.70556 0,1.32292 0,2.11667 -1.4993,0 -2.82222,0 -4.23333,0 z"
         id="path630" />
      <path
         style="fill:#fefefe;fill-opacity:1;fill-rule:nonzero;stroke:none;stroke-width:0.264583"
         d="m 16.94087,19.11376 c -1.41111,0 -2.64583,0 -4.05694,0 0,-0.61736 0,-1.32292 0,-2.02847 1.32292,0 2.64583,0 4.05694,0 0.17639,0.61736 0.0882,1.32292 0,2.02847 z"
         id="path632" />
      <path
         style="fill:#000000;fill-opacity:1;fill-rule:nonzero;stroke:none;stroke-width:0.264583"
         d="m 21.2624,16.99709 c 1.41111,0 2.73403,0 4.23334,0 0,0.79375 0,1.41112 0,2.11667 -1.41112,0 -2.73403,0 -4.23334,0 0,-0.79375 0,-1.41111 0,-2.11667 z"
         id="path634" />
      <path
         style="fill:#104ea4;fill-opacity:1;fill-rule:nonzero;stroke:none;stroke-width:0.264583"
         d="m 12.70754,23.2589 c -1.32292,0 -2.64583,0 -4.14514,0 0,-0.61736 0,-1.23472 0,-1.94028 1.41111,0 2.73403,0 4.14514,0 0,0.61736 0,1.32292 0,1.94028 z"
         id="path636" />
      <path
         style="fill:#104ea4;fill-opacity:1;fill-rule:nonzero;stroke:none;stroke-width:0.264583"
         d="m 17.11726,23.2589 c 0,-0.61736 0,-1.32292 0,-2.02847 1.32292,0 2.64584,0 4.05695,0 0,0.70555 0,1.32291 0,2.02847 -1.41111,0 -2.73403,0 -4.05695,0 z"
         id="path638" />
      <path
         style="fill:#104ea4;fill-opacity:1;fill-rule:nonzero;stroke:none;stroke-width:0.264583"
         d="m 17.02907,23.34709 c 0,0.61737 0,1.32292 0,2.11667 -0.70556,0 -1.32292,0 -2.02847,0 -0.70556,0 -1.41111,0 -2.20486,0 0,-0.70555 0,-1.41111 0,-2.11667 1.41111,0 2.82222,0 4.23333,0 z"
         id="path640" />
      <path
         style="fill:#5795eb;fill-opacity:1;fill-rule:nonzero;stroke:none;stroke-width:0.264583"
         d="m 8.5624,4.2971 c 1.41111,0 2.82222,0 4.23334,0 1.41111,0 2.73402,0 4.23333,0 0,1.4993 0,2.82222 0,4.23333 -2.73403,0 -5.55625,0 -8.37847,0 C 8.5624,7.91307 8.5624,7.20751 8.47421,6.41376 c -1.32292,0 -2.73403,0 -4.14514,0 0,-0.70555 0,-1.32291 0,-2.11666 1.4993,0 2.82222,0 4.23333,0 z"
         id="path642" />
      <path
         style="fill:#5795eb;fill-opacity:1;fill-rule:nonzero;stroke:none;stroke-width:0.264583"
         d="m 21.2624,8.53043 c 0,-0.70556 0,-1.32292 0,-2.11667 1.49931,0 2.82222,0 4.23334,0 0,0.70556 0,1.32292 0,2.11667 -1.49931,0 -2.82223,0 -4.23334,0 z"
         id="path644" />
      <path
         style="fill:#5795eb;fill-opacity:1;fill-rule:nonzero;stroke:none;stroke-width:0.264583"
         d="m 25.49574,12.76376 c -1.41112,0 -2.73403,0 -4.23334,0 0,-0.79375 0,-1.41111 0,-2.11667 1.41111,0 2.73403,0 4.23334,0 0,0.79375 0,1.41112 0,2.11667 z"
         id="path646" />
    </g>
  </g>
</svg>
