<?xml version="1.0" encoding="UTF-8" standalone="no"?>
<!-- Generator: Adobe Illustrator 25.0.0, SVG Export Plug-In . SVG Version: 6.00 Build 0)  -->

<svg
   version="1.1"
   id="Layer_1"
   x="0px"
   y="0px"
   viewBox="0 0 1255 1205.9"
   xml:space="preserve"
   sodipodi:docname="CBM1701Monitor.svg"
   width="1255"
   height="1205.9"
   inkscape:version="1.2.2 (b0a8486541, 2022-12-01)"
   xmlns:inkscape="http://www.inkscape.org/namespaces/inkscape"
   xmlns:sodipodi="http://sodipodi.sourceforge.net/DTD/sodipodi-0.dtd"
   xmlns="http://www.w3.org/2000/svg"
   xmlns:svg="http://www.w3.org/2000/svg"><defs
   id="defs321" /><sodipodi:namedview
   id="namedview319"
   pagecolor="#505050"
   bordercolor="#ffffff"
   borderopacity="1"
   inkscape:showpageshadow="0"
   inkscape:pageopacity="0"
   inkscape:pagecheckerboard="1"
   inkscape:deskcolor="#505050"
   showgrid="false"
   inkscape:zoom="0.66140334"
   inkscape:cx="628.20971"
   inkscape:cy="854.24425"
   inkscape:window-width="1536"
   inkscape:window-height="923"
   inkscape:window-x="0"
   inkscape:window-y="0"
   inkscape:window-maximized="1"
   inkscape:current-layer="Layer_1" />
<style
   type="text/css"
   id="style2">
	.st0{fill:#C8BBB2;}
	.st1{fill:#907F76;}
	.st2{fill:#625855;}
	.st3{fill:#120F11;}
	.st4{fill:#938279;}
	.st5{fill:#7B7471;}
	.st6{fill:#30312E;}
	.st7{fill:#907E75;}
	.st8{fill:#C6B9B0;}
	.st9{fill:#AD9D91;}
	.st10{fill:#493F33;}
	.st11{fill:#C2B6AE;}
	.st12{fill:#554D46;}
	.st13{fill:#97877E;}
	.st14{fill:#45463E;}
	.st15{fill:#2BA9CB;}
	.st16{fill:#58B951;}
	.st17{fill:#F0ED71;}
	.st18{fill:#DA3939;}
	.st19{fill:#E09429;}
	.st20{fill:#F1EFEF;}
	.st21{fill:#454848;}
	.st22{fill:#575555;}
	.st23{fill:#272424;}
	.st24{fill:#2B2729;}
	.st25{fill:#040707;}
</style>
<path
   class="st0"
   d="M 0.1,1045.9 C 0.1,697.3 0.1,348.6 0.1,0 418.4,0 836.7,0 1255,0 c 0,325 0,649.9 0,974.9 -0.7,0 -1.3,0 -2,0 -0.3,0.3 -0.7,0.7 -1,1 -1.5,-0.3 -3,-0.9 -4.6,-1 -6.8,-0.1 -13.6,0 -20.5,0 -6.8,0 -13.8,0.8 -20.4,-0.2 -6.8,-1.1 -13.4,-0.7 -20.1,-0.7 -25.8,-0.2 -51.6,-0.1 -77.4,-0.1 -71,0 -142.00001,0 -213,0 -4.7,0 -9.5,0 -14.2,0 -0.7,0 -1.7,-0.4 -1.7,1 -16.7,0 -33.3,0 -50,0 -1.2,0 -2.5,0 -4,0 0,0.8 0,1.4 0,2 -3.2,0.1 -5.9,-1.7 -9,-2 -3.4,-0.3 -6.7,-1 -10.1,-1 -268,0 -535.9,0 -803.9,0 -0.3,0.3 -0.7,0.7 -1,1 0,0.6 0,1.2 0,2.1 141.9,0 283.4,0 424.8,0 0,23.1 0,45.8 0,68.8 -142.4,0.1 -284.6,0.1 -426.8,0.1 z M 628.1,18 c -197,0 -393.9,0 -590.9,0 -1,0 -2,-0.1 -3,0 -2,0.3 -4.3,0.4 -5.9,1.4 C 22,23.3 18,28.3 18,36.5 c 0.1,303.8 0.1,607.6 0.1,911.3 0,1 -0.1,2 0,3 0.4,2 0.4,4.2 1.4,5.9 3.9,6.6 9.7,10.2 17.6,10.2 392.8,0 785.5,0 1178.3,0 3.1,0 6.1,0 9.1,-0.9 3.6,-1.1 7.1,-3.3 9.5,-6.3 2.4,-3 3,-6.2 3,-9.8 0,-93.1 0,-186.3 0,-279.4 0,-212 0,-423.9 0.1,-635.9 0,-5.7 -2.2,-10.2 -6.5,-13.2 -3.2,-2.3 -7.2,-3.4 -11.6,-3.4 -197,0 -394,0 -590.9,0 z"
   id="path4" />
<path
   class="st0"
   d="m 0.1,1160.9 c 0,-30 0,-60 0,-90 347.1,0 694.1,0 1041.2,0 0.1,0 0.3,0.1 0.4,0.2 0.1,0.1 0.2,0.2 0.3,0.4 0,29.8 0,59.6 0,89.5 -335.6,0 -671.3,0 -1006.9,0 -11.7,-0.1 -23.4,-0.1 -35,-0.1 z"
   id="path6" />
<path
   class="st0"
   d="m 1255,1049.9 c 0,37.3 0,74.7 0,112 -0.7,-0.3 -1.3,-0.7 -2,-1 -10.7,0 -21.3,0 -32,0 -58.3,0 -116.7,0 -175,0 0,-30 0,-60 0,-90 69.3,0 138.5,0 208,0 -0.1,-1.6 -0.2,-2.8 -0.2,-4 -69.5,0 -138.7,0 -207.8,0 -348.6,0 -697.3,0 -1045.9,0 0,-5.7 0,-11.3 0,-17 418.3,0 836.6,0 1254.9,0 z m -169,91 c -0.3,-0.3 -0.7,-0.7 -1,-1 -1.1,-1.8 -2.6,-0.9 -3.8,-0.8 0,2.8 0,5.2 0,8 1.4,-0.3 2.6,-0.5 3.8,-0.7 0,0 0,-0.3 0,-0.5 0.3,-0.3 0.7,-0.7 1,-1 0.3,-0.3 0.7,-0.7 1,-1 0.7,0 1.3,0 2,0 0,0.9 0,1.9 0,3 3.8,0 7.3,0 10.7,0 0.4,0 0.9,-0.6 1.3,-1 0.6,0 1.2,0 1.9,0 0,-2.1 0,-3.8 0,-5.6 -0.4,-0.4 -0.9,-0.9 -1.5,-1.5 -1.3,0.7 -3.2,-0.9 -4.4,1.1 -0.6,0 -1.2,0 -2,0 0,2.1 0,3.9 0,5.8 -1.7,0 -3.3,0 -4.9,0 0,-0.6 0,-1.1 0,-1.9 1.3,0 2.6,0 3.9,0 -0.1,-0.8 -0.1,-1.3 -0.2,-2 -1.3,0 -2.5,0 -3.9,0 0.1,-0.8 0.2,-1.3 0.2,-1.8 1.3,-0.1 2.6,-0.2 3.8,-0.3 0,-0.2 0,-0.4 0,-0.5 -1.7,0 -3.3,0 -5,0 0,1.1 0,1.9 0,2.7 -0.7,0 -1.3,0 -2,0 -0.2,-0.3 -0.6,-0.7 -0.9,-1 z m 100,-85 c -0.3,-0.3 -0.7,-0.7 -1,-1 -0.5,-0.7 -1.1,-1.5 -1.5,-2.1 -2.8,0.5 -4.1,2.3 -5.5,4.1 0,-0.6 0,-1.2 0,-2 -0.8,0 -1.4,0 -2,0 -1.5,-2 -3.3,-0.7 -4.8,-0.8 0,3.1 0,5.9 0,8.7 0.2,0 0.3,0 0.5,0.1 0.2,-1 0.4,-1.9 0.6,-2.9 1.1,0 2.1,0 2.9,0 1,-0.7 1.9,-1.4 2.8,-2 0.4,1.4 0.9,2.7 1.3,4 0.7,0 1.2,0 1.7,0 0.5,0.7 1,1.4 1.7,2.4 1.2,-0.9 2.2,-1.6 3.3,-2.4 0.3,-0.4 0.9,-0.7 1,-1.2 0.1,-0.9 0,-1.9 0,-2.8 0.6,0 1.2,0 2,0 0,1.5 0,2.6 0,3.8 0.9,0.5 1.6,1 2.7,1.6 0.7,-2.3 1.2,-4.3 1.8,-6.5 0.7,2.3 1.3,4.3 2.1,6.7 3.6,-2.6 2.7,-6.5 4.4,-9.6 -1.2,0.1 -2.1,0.1 -2.9,0.2 -0.1,1.8 -0.2,3.3 -0.3,4.8 -0.2,0 -0.4,0 -0.5,0 -0.5,-1.6 -1.1,-3.2 -1.6,-4.8 -0.8,0 -1.5,0 -2.7,0 0,1.3 0,2.6 0,3.9 -0.8,-0.1 -1.3,-0.1 -1.8,-0.2 -0.1,-1.3 -0.2,-2.6 -0.3,-4.5 -1.3,1.2 -2,2 -2.8,2.7 -0.4,-0.2 -0.8,-0.2 -1.1,-0.2 z m -41.9,89.8 c 1.2,-2 1.3,-3.6 0,-6.8 0,2.5 0,4.8 -0.1,7 -1,0 -2,0 -3,0 -0.3,-0.3 -0.7,-0.7 -1,-1 -0.2,-1.9 0.3,-4 -1,-5.8 0,1.9 0,3.9 0,5.8 -1.4,-0.9 -1.8,-2.2 -2.1,-3.8 -0.1,-0.9 -1.1,-1.6 -2.2,-3 -1.1,3.4 -2.9,5.7 -2.6,9.2 1.6,-1.4 2.6,-3.2 4.7,-2 0.2,0.6 0.4,1.1 0.6,1.7 1,0 1.8,0 2.6,0 0.9,0 1.9,0.1 2.8,0 0.5,-0.2 0.8,-0.8 1.3,-1.3 z m 10.9,-5.8 c -0.3,0.3 -0.7,0.5 -1,0.8 -0.4,0.4 -0.7,0.8 -1,1.2 0,-0.6 0,-1.2 0,-2 -0.8,0 -1.4,0 -2,0 -1.1,-1.8 -2.6,-0.9 -3.8,-0.8 0,2.8 0,5.2 0,8.2 1.3,-1 3,0.8 3.8,-1.4 0.6,0 1.2,0 2,0 0,-0.8 0,-1.4 0,-2 0.3,0.4 0.6,0.9 1,1.2 0.3,0.3 0.7,0.5 1,0.8 0,0.2 -0.1,0.4 0,0.5 0.2,0.2 0.4,0.2 1,0.6 -0.2,-2.8 0.3,-5.4 -0.5,-8.4 -0.3,0.7 -0.4,1 -0.5,1.3 z m 4,6 c 1.3,2 3.1,0.4 4.8,1.2 0.5,-2.1 1,-3.9 1.5,-5.7 -1,-0.7 -1.6,-1.1 -2.3,-1.5 -1.2,-2 -3.1,-0.4 -4.4,-1.1 -0.6,0.6 -1.1,1.1 -1.3,1.3 0,2.1 0,3.9 0,5.8 0.7,0 1.2,0 1.7,0 z m 56.9,-90.6 c -0.2,0.2 -0.4,0.4 -0.7,0.6 -0.4,-0.4 -0.8,-0.8 -1.7,-1.7 -0.8,0 -2.7,0 -4.6,0 0.3,3 -0.3,5.9 0.6,8.6 0.3,-0.5 0.4,-0.9 0.4,-1.4 0,-1.6 1,-2.3 2.4,-2.5 1.6,-0.2 2.3,0.8 2.6,2.2 0.1,0.5 0.3,1.1 0.4,1.6 0.2,0 0.3,-0.1 0.5,-0.1 0.1,-2.5 0.1,-4.9 0.1,-7.3 z m -67.6,24.6 c -8.1,0 -13.3,2.3 -19.4,8.6 -4.6,4.8 -6.5,10.9 -6.7,17.1 -0.1,4.5 1,9.5 3.9,13.2 2.5,3.3 5.7,6.3 9,9 3.6,2.9 8.4,3.3 12.8,3.9 2.4,0.3 5.1,-0.5 7.5,-1 2.9,-0.6 5.7,-2.3 8.2,-4.1 2.3,-1.6 4.4,-3.7 6,-6 1.7,-2.7 2.8,-5.8 3.9,-8.8 0.5,-1.5 0.4,-3.2 0.5,-4.8 1.2,-15.9 -11.9,-27.8 -25.7,-27.1 z m -36.3,32.4 c 0,-2.8 -0.1,-5.5 0,-8.2 0.4,-6.5 -2.5,-11.8 -6.7,-16.2 -4.9,-5.3 -11,-8.2 -18.6,-8.1 -6.8,0.1 -12.8,2.2 -17.8,6.6 -7.4,6.6 -9.2,15.3 -7.8,24.6 0.6,3.6 2.7,7.3 5,10.3 3,3.9 6.7,7.2 11.8,8.7 2.1,0.6 4.1,0.5 6.1,0.9 1.5,0.3 2.5,1.4 4.3,0.2 1.3,-0.9 3.6,0 5.2,-0.6 6,-1.9 10.5,-5.7 14.3,-10.6 2.1,-2.2 2.2,-5.2 4.2,-7.6 z m -39.5,34.7 c 2.1,-1.2 2.1,-1.2 4.5,-7 0.1,-0.2 -0.2,-0.6 -0.3,-0.8 -0.3,-0.1 -0.6,-0.1 -1.2,-0.2 -0.6,1.6 -1.3,3.3 -2,5.2 -0.7,-1.8 -1.3,-3.5 -1.9,-5.2 -0.4,0.1 -0.9,0.1 -1.6,0.2 0.8,2.6 1.6,5.2 2.5,7.8 z m 129.7,-89.2 c 0,-1.1 0,-1.9 0,-2.7 1.7,-0.1 3.3,-0.3 4.8,-0.4 0,-0.2 0,-0.4 0,-0.6 -1.9,0 -3.8,0 -5.7,0 0,3 0,5.9 0,8.8 2,-0.3 3.9,0.3 5.6,-1.1 -1.6,0 -3.1,0 -4.7,0 0,-1.1 0,-1.9 0,-3.1 1.7,0 3.3,0 4.8,0 0,-0.2 0,-0.5 0,-0.7 -1.6,0 -3.1,-0.1 -4.8,-0.2 z m -123.4,81.3 c -0.6,2.5 -1.1,5.1 0,7.6 0,-2.5 0,-5 0,-7.6 z"
   id="path8" />
<path
   class="st0"
   d="m 830,974.9 c 16.7,0 33.3,0 50,0 0,1.3 1,1 1.7,1 4.1,0 8.2,0 12.3,0 11.3,0 22.6,0 33.9,0 11.3,0 22.59999,-0.2 33.89999,0 11.2,0.2 22.4,-1 33.5,1 33.60001,0 67.20001,0 100.80001,0 4.4,0 8.7,-0.1 12.8,-1.5 0,-0.5 0,-1 0,-1.5 25.8,0 51.6,-0.1 77.4,0.1 6.7,0 13.3,-0.4 20.1,0.7 6.7,1.1 13.6,0.2 20.4,0.2 6.8,0 13.7,-0.1 20.5,0 1.5,0 3.1,0.6 4.6,1 0.3,-0.3 0.7,-0.7 1,-1 0.7,0 1.3,0 2,0 0,23.7 0,47.3 0,71 -141.4,0 -282.80001,0 -424.2,0 -0.1,0 -0.3,-0.1 -0.4,-0.2 -0.1,-0.1 -0.2,-0.2 -0.3,-0.4 0,-23.4 0,-46.9 0,-70.4 z m 338.1,57.8 c 17,0 33.9,0 50.6,0 0.5,-0.5 0.9,-0.9 1.2,-1.2 0,-11.4 0,-22.9 0,-34.2 -0.5,-0.5 -0.8,-0.8 -1.2,-1.2 -16.8,0 -33.7,0 -50.6,0 0,12.3 0,24.4 0,36.6 z m -18.3,1.1 c 0,-15.9 0,-31.3 0,-46.8 -19.4,-0.8 -200.30001,-0.4 -204.60001,0.3 0,15.5 0,30.9 0,46.4 68.30001,0.1 136.40001,0.1 204.60001,0.1 z"
   id="path10" /><rect
   style="fill:#907f76;fill-opacity:1;stroke-width:2.24683"
   id="rect2180-6"
   width="3.0374112"
   height="444.30814"
   x="-977.03772"
   y="810.54602"
   transform="rotate(-90)" />
<path
   class="st1"
   d="m 830,974.9 c 0,23.5 0,47 0,70.5 0.1,0.1 0.2,0.3 0.3,0.4 0.1,0.1 0.3,0.2 0.4,0.2 141.39999,0 282.8,0 424.2,0 0,1.3 0,2.7 0,4 -418.3,0 -836.6,0 -1254.9,0 0,-1.3 0,-2.7 0,-4 142.2,0 284.5,0 426.8,0 0,-23 0,-45.8 0,-68.8 -141.4,0 -283,0 -424.8,0 0,-0.9 0,-1.5 0,-2.1 0.3,-0.3 0.7,-0.7 1,-1 268,0 535.9,0 803.9,0 3.4,0 6.7,0.6 10.1,1 -0.2,0.8 0.5,1.9 -1,2 -9.7,0 -19.3,0 -29,0 -15,0 -30,0 -45,0 -100.3,0 -200.7,0 -301,0 -3.3,0 -6.6,0 -9.8,0 -0.7,16.4 -0.4,64.7 0.3,69 3.2,0 6.3,0 9.5,0 100.3,0 200.7,0 301,0 15,0 30,0 45,0 9.7,0 19.3,0 29,0 3.3,0 6.6,0 10,0 0,-23.2 0,-46.1 0,-69 0,-0.6 0,-1.2 0,-2 1.5,-0.2 2.8,-0.2 4,-0.2 z"
   id="path12" />
<path
   class="st2"
   d="m 1046,1070.9 c 0,30 0,60 0,90 -1.3,0 -2.7,0 -4,0 0,-29.8 0,-59.6 0,-89.5 -0.1,-0.1 -0.2,-0.3 -0.3,-0.4 -0.1,-0.1 -0.3,-0.2 -0.4,-0.2 -347.1,0 -694.1,0 -1041.2,0 0,-1.3 0,-2.7 0,-4 348.6,0 697.3,0 1045.9,0 0,1.4 0,2.8 0,4.1 z"
   id="path14" />

<path
   class="st4"
   d="m 60.099998,1204.9 c 0,-4 0,-8 0,-12 28,0 56.000002,0 84.000002,0 0,4 0,8 0,12 0,0.3 0,0.7 0,1 -28,0 -56.000002,0 -84.000002,0 0,-0.3 0,-0.7 0,-1 z"
   id="path18" />
<path
   class="st4"
   d="m 1195,1205.9 c -27.7,0 -55.3,0 -83,0 -0.3,-0.3 -0.7,-0.7 -1,-1 0,-4 0,-8 0,-12 28,0 56,0 84,0 0,4 0,8 0,12 0,0.3 0,0.7 0,1 z"
   id="path20" />
<path
   class="st5"
   d="m 1111,1204.9 c 0.3,0.3 0.7,0.7 1,1 -322.7,0 -645.3,0 -968,0 0,-0.3 0,-0.7 0,-1 322.4,0 644.7,0 967,0 z"
   id="path22" />



<path
   class="st7"
   d="m 628.1,18 c 197,0 393.9,0 590.9,-0.1 4.4,0 8.4,1.1 11.6,3.4 4.3,3 6.5,7.6 6.5,13.2 -0.1,212 -0.1,423.9 -0.1,635.9 0,93.1 0,186.3 0,279.4 0,3.6 -0.6,6.8 -3,9.8 -2.4,3 -5.8,5.2 -9.5,6.3 -3.1,0.9 -6.1,0.9 -9.1,0.9 -392.8,0 -785.5,0 -1178.3,0 -8,0 -13.7,-3.5 -17.6,-10.2 -1,-1.7 -1.1,-3.9 -1.4,-5.9 -0.2,-1 0,-2 0,-3 0,-303.8 0,-607.6 -0.1,-911.3 0,-8.2 4.1,-13.2 10.3,-17.1 1.6,-1 3.9,-1 5.9,-1.4 1,-0.2 2,0 3,0 C 234.1,18 431.1,18 628.1,18 Z m 596.3,4 C 826.5,22 428.5,22 31,22 c -4.1,2.4 -7.5,5 -9,9.4 0,1.3 0,2.6 0,4 0,304.6 0,609.3 0,913.9 0,0.3 0,0.7 0,1 -0.3,3.4 1.3,6.2 3.5,8.5 2.9,3.1 6.5,4.2 10.8,4.2 392.6,-0.1 785.3,-0.1 1177.9,-0.1 4.2,0 8.5,0.6 12.9,-1.6 0,0 0.3,-0.4 0.7,-0.7 4.8,-3.8 6.3,-8.9 6.3,-14.9 -0.1,-302.5 -0.1,-604.9 -0.1,-907.4 0,-0.7 0.1,-1.3 0,-2 -0.5,-4.9 -1.7,-9.5 -6.4,-12.3 -1.1,-0.5 -2.1,-1.3 -3.2,-2 z"
   id="path30" />
<path
   class="st8"
   d="m 816,1009.3467 c 1.5,-0.053 0.8,-0.6357 1,-1.0595 3.1,0.1589 5.8,1.1125 9,1.0595 0,12.1315 0,24.2629 0,36.5533 -3.4,0 -6.7,0 -10,0 0,-12.1844 0,-24.3689 0,-36.5533 z"
   id="path32"
   style="stroke-width:0.727845" />
<path
   class="st4"
   d="m 1109,973.9 c 0,0.5 0,1 0,1.5 -4.2,1.5 -8.5,1.5 -12.8,1.5 -33.6,-0.1 -67.2,0 -100.80001,0 -11.1,-2 -22.3,-0.7 -33.5,-1 -11.3,-0.2 -22.59999,0 -33.89999,0 -11.3,0 -22.6,0 -33.9,0 0.3,-0.3 0.5,-0.7 0.8,-1 0.4,-0.4 0.8,-0.7 1.2,-1 70.89999,0 141.9,0 212.9,0 z"
   id="path34" />
<path
   class="st1"
   d="m 896,973.9 c -0.4,0.3 -0.9,0.6 -1.2,1 -0.3,0.3 -0.5,0.7 -0.8,1 -4.1,0 -8.2,0 -12.3,0 -0.7,0 -1.7,0.3 -1.7,-1 0,-1.3 1,-1 1.7,-1 4.8,0 9.6,0 14.3,0 z"
   id="path36" />
<path
   class="st1"
   d="m 1253,974.9 c -0.3,0.3 -0.7,0.7 -1,1 0.3,-0.3 0.7,-0.6 1,-1 z"
   id="path38" />
<path
   class="st4"
   d="m 3.1,973.9 c -0.3,0.3 -0.7,0.7 -1,1 0.3,-0.3 0.6,-0.6 1,-1 z"
   id="path40" />
<path
   class="st9"
   d="m 1215,1191.9 c 0,0.3 0,0.7 0,1 -6.7,0 -13.3,0 -20,0 -28,0 -56,0 -84,0 -322.3,0 -644.6,0 -967,0 -28,0 -56.000002,0 -84.000002,0 -6.1,0 -12.3,0 -18.899998,0 -0.7,-3.7 -1.3,-7.5 -2.2,-11.3 -0.8,-3.5 -1.7,-6.9 -2.3,-10.5 -0.6,-3.4 -1.8,-6.7 -1.6,-10.2 335.6,0 671.3,0 1006.9,0 1.3,0 2.7,0 4,0 58.3,0 116.7,0 175,0 -0.1,3.3 -1.4,6.4 -2,9.7 -0.4,2.2 0,4.9 -1.2,6.5 -1.5,2.1 0.4,4.7 -1.8,6.3 0.4,2.9 -1.6,5.5 -0.9,8.5 z"
   id="path42" />

<path
   class="st1"
   d="m 1046,1070.9 c 0,-1.3 0,-2.7 0,-4 69.4238,0 138.948,0 208.7736,0 0.1005,1.2 0.1005,2.4 0.201,4 -69.8257,0 -139.3499,0 -208.9746,0 z"
   id="path46"
   style="stroke-width:1.00234" />
<path
   class="st4"
   d="m 1148.3,1079.9 c 13.8,-0.7 26.9,11.1 25.7,27.2 -0.1,1.6 0,3.3 -0.5,4.8 -1.1,3 -2.2,6.2 -3.9,8.8 -1.5,2.3 -3.7,4.4 -6,6 -2.5,1.8 -5.3,3.4 -8.2,4.1 -2.4,0.5 -5.2,1.3 -7.5,1 -4.4,-0.6 -9.2,-1 -12.8,-3.9 -3.3,-2.6 -6.4,-5.6 -9,-9 -2.9,-3.8 -4,-8.7 -3.9,-13.2 0.1,-6.3 2.1,-12.3 6.7,-17.1 6.1,-6.4 11.3,-8.7 19.4,-8.7 z M 1125,1105 c -1.8,12.9 11.8,24.2 21.5,24 7.3,-0.1 13.6,-1.4 18.7,-6.9 4.2,-4.5 6.7,-9.8 6.8,-16.2 0.2,-14.1 -11.4,-23.8 -22.8,-24.2 -12.9,-0.4 -25.7,11.6 -24.2,23.3 z"
   id="path48" />
<path
   class="st4"
   d="m 1112,1112.3 c -2.1,2.4 -2.1,5.4 -3.9,7.7 -3.8,4.9 -8.4,8.8 -14.3,10.6 -1.7,0.5 -4,-0.3 -5.2,0.6 -1.8,1.3 -2.9,0.2 -4.3,-0.2 -2,-0.5 -4,-0.3 -6.1,-0.9 -5.1,-1.5 -8.8,-4.8 -11.8,-8.7 -2.3,-3 -4.5,-6.7 -5,-10.3 -1.4,-9.3 0.5,-18 7.8,-24.6 5,-4.5 10.9,-6.5 17.8,-6.6 7.6,-0.1 13.7,2.8 18.6,8.1 4.1,4.4 7,9.7 6.7,16.2 -0.4,2.6 -0.3,5.3 -0.3,8.1 z m -25.5,16.6 c 12.3,1.7 24.1,-11.7 23.6,-21.9 -0.3,-7 -1.7,-13.2 -6.8,-18.2 -4.5,-4.3 -9.8,-6.7 -16.1,-7 -7.2,-0.3 -13.1,2.6 -17.9,7.4 -4.2,4.2 -6.3,9.6 -6.4,15.8 -0.1,7 2.3,12.6 7.2,17.6 4.6,4.6 10,6.7 16.4,6.3 z"
   id="path50" />
<path
   class="st2"
   d="m 1187,1055.9 c 0.8,-0.7 1.5,-1.5 2.8,-2.7 0.1,2 0.2,3.2 0.3,4.5 0.6,0.1 1,0.1 1.8,0.2 0,-1.3 0,-2.6 0,-3.9 1.1,0 1.9,0 2.7,0 0.5,1.6 1.1,3.2 1.6,4.8 0.2,0 0.4,0 0.5,0 0.1,-1.5 0.2,-3 0.3,-4.8 0.8,0 1.7,-0.1 2.9,-0.2 -1.7,3.1 -0.8,7 -4.4,9.6 -0.7,-2.4 -1.3,-4.4 -2.1,-6.7 -0.6,2.2 -1.2,4.2 -1.8,6.5 -1.1,-0.6 -1.8,-1.1 -2.7,-1.6 0,-1.2 0,-2.3 0,-3.8 -0.8,0 -1.4,0 -2,0 0.1,-0.6 0.1,-1.2 0.1,-1.9 z"
   id="path52" />
<path
   class="st2"
   d="m 1101,1145.9 c -0.4,0.3 -0.8,0.9 -1.3,1 -3.5,0.1 -6.9,0 -10.7,0 0,-1.1 0,-2.1 0,-3 0,-0.7 0,-1.3 0,-2 0,-0.8 0,-1.7 0,-2.7 1.7,0 3.3,0 5,0 0,0.2 0,0.4 0,0.5 -1.2,0.1 -2.5,0.2 -3.8,0.3 -0.1,0.5 -0.1,1 -0.2,1.8 1.3,0 2.6,0 3.9,0 0.1,0.8 0.1,1.2 0.2,2 -1.3,0 -2.6,0 -3.9,0 0,0.8 0,1.2 0,1.9 1.6,0 3.2,0 4.9,0 0,-1.9 0,-3.7 0,-5.8 0.8,0 1.4,0 2,0 0,1.6 0,3.1 0,4.2 1,2.2 2.5,1.8 3.9,1.8 z"
   id="path54" />
<path
   class="st2"
   d="m 1140,1144.9 c 0.3,0.3 0.7,0.7 1,1 -0.3,0.3 -0.7,0.7 -1,1 -0.8,0 -1.7,0 -2.6,0 -0.2,-0.5 -0.4,-1.1 -0.6,-1.7 -2.1,-1.2 -3.1,0.6 -4.7,2 -0.3,-3.5 1.5,-5.8 2.6,-9.2 1.1,1.4 2.1,2.2 2.2,3 0.2,1.6 0.7,2.9 2.1,3.8 0.3,0.1 0.7,0.1 1,0.1 z"
   id="path56" />
<path
   class="st10"
   d="m 1215.5,1055.2 c 0.5,2.5 0.5,5 0.5,7.4 -0.2,0 -0.3,0.1 -0.5,0.1 -0.1,-0.5 -0.3,-1.1 -0.4,-1.6 -0.3,-1.4 -1,-2.4 -2.6,-2.2 -1.4,0.2 -2.3,0.9 -2.4,2.5 0,0.5 -0.1,0.9 -0.4,1.4 -0.9,-2.7 -0.3,-5.6 -0.6,-8.6 1.9,0 3.8,0 4.6,0 0.9,0.9 1.3,1.3 1.7,1.7 0.1,-0.2 0.3,-0.4 0.1,-0.7 -2.1,-0.1 -3.6,-0.1 -5.2,-0.1 0,1 0,1.9 0,2.9 1.8,-0.1 3.3,-0.2 4.8,-0.3 -0.1,-1.2 -0.1,-2 0.4,-2.5 z"
   id="path58" />
<path
   class="st10"
   d="m 1176,1055 c 0.6,-0.1 1.2,-0.1 2,-0.1 0,0.8 0,1.4 0,2 0,0.3 0,0.7 0,1 -0.9,0.7 -1.8,1.3 -2.8,2 -0.8,0 -1.8,0 -2.9,0 -0.2,1 -0.4,1.9 -0.6,2.9 -0.2,0 -0.3,0 -0.5,-0.1 0,-2.8 0,-5.5 0,-8.7 1.5,0.2 3.3,-1.1 4.8,1 -1.3,0.1 -2.5,0.1 -3.8,0.1 0,1 0,1.9 0,3 1.4,-0.1 2.6,-0.2 3.8,-0.3 0,-1.3 0,-2.1 0,-2.8 z"
   id="path60" />
<path
   class="st2"
   d="m 1072.5,1147 c -0.9,-2.6 -1.7,-5.1 -2.6,-7.8 0.7,-0.1 1.2,-0.2 1.6,-0.2 0.6,1.7 1.2,3.4 1.9,5.2 0.8,-2 1.4,-3.6 2,-5.2 0.6,0.1 0.9,0.2 1.2,0.2 0.1,0.3 0.4,0.6 0.3,0.8 -2.3,5.7 -2.3,5.7 -4.4,7 z"
   id="path62" />
<path
   class="st10"
   d="m 1202.2,1057.8 c 1.7,0.1 3.3,0.3 4.8,0.4 0,0.2 0,0.5 0,0.7 -1.6,0 -3.2,0 -4.8,0 0,1.1 0,1.9 0,3.1 1.6,0 3.1,0 4.7,0 -1.7,1.4 -3.6,0.8 -5.6,1.1 0,-3 0,-5.9 0,-8.8 1.9,0 3.8,0 5.7,0 0,0.2 0,0.4 0,0.6 -1.5,0.1 -3.1,0.2 -4.8,0.4 0,0.5 0,1.3 0,2.5 z"
   id="path64" />
<path
   class="st11"
   d="m 1086,1144.9 c -0.3,0.3 -0.7,0.7 -1,1 -0.9,0 -1.9,0 -2.7,0 0,-2.2 0,-4.1 0,-6 1.1,0 1.9,0 2.7,0 0.3,0.3 0.7,0.7 1,1 0,1.3 0,2.7 0,4 z"
   id="path66" />
<path
   class="st12"
   d="m 1178,1057.9 c 0,-0.3 0,-0.7 0,-1 1.4,-1.8 2.7,-3.6 5.5,-4.1 0.4,0.6 1,1.3 1.5,2.1 -0.8,0 -1.7,0 -1.4,0 -1.7,1.2 -2.8,1.9 -3.8,2.6 0.5,1.7 0.8,3 1.2,4.4 -0.5,0 -0.9,0 -1.7,0 -0.4,-1.3 -0.9,-2.6 -1.3,-4 z"
   id="path68" />
<path
   class="st2"
   d="m 1159,1145.9 c -0.5,0 -1,0 -1.7,0 0,-1.8 0,-3.7 0,-5.8 0.2,-0.2 0.7,-0.7 1.3,-1.3 1.3,0.7 3.2,-0.9 4.4,1.1 -0.8,0 -1.7,0 -2.5,0 0.2,0.2 0.4,0.4 0.6,0.6 -1.1,0.7 -2.3,1.3 -3.2,1.9 0.5,1.5 0.8,2.5 1.1,3.5 z"
   id="path70" />
<path
   class="st2"
   d="m 1163,1139.9 c 0.7,0.4 1.3,0.9 2.3,1.5 -0.4,1.8 -0.9,3.5 -1.5,5.7 -1.7,-0.8 -3.6,0.8 -4.8,-1.2 1.6,0.1 3.2,0.2 4,-1.7 0,-1.4 0,-2.9 0,-4.3 z"
   id="path72" />
<path
   class="st2"
   d="m 1097,1139.9 c 1.2,-2 3.1,-0.4 4.4,-1.1 0.6,0.6 1.1,1.1 1.5,1.5 0,1.8 0,3.5 0,5.6 -0.7,0 -1.3,0 -1.9,0 0.3,-1 0.6,-2.1 1,-3.1 -0.9,-1 -1.9,-2 -2.8,-2.9 -0.9,0 -1.5,0 -2.2,0 z"
   id="path74" />
<path
   class="st12"
   d="m 1085,1139.9 c -0.8,0 -1.7,0 -2.7,0 0,1.9 0,3.8 0,6 0.8,0 1.8,0 2.7,0 0,0.2 0,0.5 0,0.5 -1.2,0.2 -2.4,0.5 -3.8,0.7 0,-2.8 0,-5.2 0,-8 1.2,-0.1 2.7,-1 3.8,0.8 z"
   id="path76" />
<path
   class="st12"
   d="m 1151,1145.9 c -0.8,2.2 -2.5,0.3 -3.8,1.4 0,-2.9 0,-5.4 0,-8.2 1.2,-0.1 2.7,-1 3.8,0.8 -0.9,0 -1.9,0 -2.7,0 0,2.2 0,4.1 0,6 1,0 1.9,0 2.7,0 z"
   id="path78" />
<path
   class="st12"
   d="m 1151,1139.9 c 0.6,0 1.2,0 2,0 0,0.8 0,1.4 0,2 0,0.7 0,1.3 0,2 0,0.6 0,1.2 0,2 -0.8,0 -1.4,0 -2,0 1.4,-2 1.4,-4 0,-6 z"
   id="path80" />
<path
   class="st9"
   d="m 1153,1143.9 c 0,-0.7 0,-1.3 0,-2 0.3,-0.4 0.6,-0.9 1,-1.2 0.3,-0.3 0.7,-0.5 1,-0.8 0,2 0,4 0,6 -0.3,-0.3 -0.7,-0.5 -1,-0.8 -0.4,-0.3 -0.7,-0.8 -1,-1.2 z"
   id="path82" />
<path
   class="st10"
   d="m 1078.8,1139.1 c 0,2.5 0,5.1 0,7.6 -1.1,-2.5 -0.6,-5.1 0,-7.6 z"
   id="path84" />
<path
   class="st2"
   d="m 1155,1145.9 c 0,-2 0,-4 0,-6 0.1,-0.3 0.2,-0.6 0.6,-1.4 0.8,3 0.3,5.6 0.5,8.4 -0.6,-0.3 -0.9,-0.4 -1,-0.6 -0.2,0 -0.1,-0.2 -0.1,-0.4 z"
   id="path86" />
<path
   class="st10"
   d="m 1144.1,1145.7 c 0,-2.1 0,-4.3 0,-6.8 1.3,3.2 1.2,4.8 0,6.8 z"
   id="path88" />
<path
   class="st12"
   d="m 1186,1061.9 c -1,0.7 -2,1.5 -3.3,2.4 -0.7,-1 -1.2,-1.7 -1.7,-2.4 1.7,0 3.3,0 5,0 z"
   id="path90" />
<path
   class="st10"
   d="m 1140,1144.9 c -0.3,0 -0.7,0 -1,0 0,-1.9 0,-3.9 0,-5.8 1.3,1.8 0.8,3.9 1,5.8 z"
   id="path92" />
<path
   class="st12"
   d="m 1187,1055.9 c 0,0.7 0,1.3 0,2 0,0.9 0.1,1.9 0,2.8 -0.1,0.4 -0.6,0.8 -1,1.2 0,-2 0,-4 0,-6 0.3,0 0.7,0 1,0 z"
   id="path94" />
<path
   class="st12"
   d="m 1086,1144.9 c 0,-1.3 0,-2.7 0,-4 0.3,0.3 0.7,0.7 1,1 0,0.7 0,1.3 0,2 -0.3,0.3 -0.7,0.7 -1,1 z"
   id="path96" />
<circle
   class="st13"
   cx="1088"
   cy="1142.9"
   r="1.4"
   id="circle98" />
<path
   class="st10"
   d="m 1140,1146.9 c 0.3,-0.3 0.7,-0.7 1,-1 1,0 2,0 3,0 -0.4,0.3 -0.7,0.9 -1.2,1 -0.9,0.1 -1.9,0 -2.8,0 z"
   id="path100" />
<path
   class="st12"
   d="m 1185,1054.9 c 0.3,0.3 0.7,0.7 1,1 -0.3,-0.3 -0.7,-0.7 -1,-1 z"
   id="path102" />
<path
   class="st12"
   d="m 1086,1140.9 c -0.3,-0.3 -0.7,-0.7 -1,-1 0.3,0.3 0.7,0.7 1,1 z"
   id="path104" />
<path
   class="st12"
   d="m 1168.1,1032.7 c 0,-12.2 0,-24.3 0,-36.6 16.9,0 33.8,0 50.6,0 0.4,0.4 0.7,0.7 1.2,1.2 0,11.3 0,22.8 0,34.2 -0.4,0.4 -0.7,0.7 -1.2,1.2 -16.7,0 -33.6,0 -50.6,0 z"
   id="path106" />
<path
   class="st1"
   d="m 1149.8,1033.8 c -68.3,0 -136.4,0 -204.60001,0 0,-15.5 0,-31 0,-46.4 4.3,-0.8 185.20001,-1.1 204.60001,-0.3 0,15.4 0,30.9 0,46.7 z m -202.70001,-3.1 c 66.90001,0 133.30001,0 199.70001,0 0.6,-14.9 0.4,-36.9 -0.4,-40.7 -66.5,0 -132.9,0 -199.40001,0 0.1,13.7 0.1,27.2 0.1,40.7 z"
   id="path108" />
<path
   class="st14"
   d="m 742,1045.9 c -100.3,0 -200.7,0 -301,0 0,-23 0,-46 0,-69 100.3,0 200.7,0 301,0 0,23 0,46 0,69 z m -96,-32 c 0,-0.3 0,-0.7 0,-1 0,-1.6 0,-3.2 0,-4.5 -3.6,-2.3 -7.2,-1.2 -9.2,-1.4 -2,1.2 -3,1.8 -3.7,2.3 0,2.4 0,4.3 0,5.8 1,1.2 1.7,2.1 2.4,2.9 3.7,-0.4 7.4,0.8 10.5,-1.6 0,-0.8 0,-1.7 0,-2.5 z m -175,5 c -2.1,0.4 -4.3,0.8 -6.5,1.3 -2,-1.7 -3.9,-3.2 -5.5,-4.6 0,-2.4 0,-4.3 0,-5.2 1.2,-4.9 4.1,-5.8 7.6,-5.5 1.4,0.1 2.9,0 4.2,0 0,-2.6 0,-4.7 0,-6.9 -2.4,0.5 -4.3,-2.2 -6.9,-0.6 -2.1,1.2 -4.9,0.8 -6.8,2.9 -1.7,1.8 -3.6,3.4 -4.6,4.4 -2.1,5.6 -2,10.3 -0.1,15.1 2,2 4,4.1 6,6.1 4.3,0.7 8.3,3.2 12.6,0.6 0,-2.6 0,-5.1 0,-7.6 4.3,-0.2 8.6,0.4 12.5,-0.2 -1.8,-1.9 -3.6,-3.8 -5.4,-5.8 -2.3,0.3 -4.7,-0.2 -7.1,0.3 0,2.1 0,3.9 0,5.7 z m 261.9,9.2 c -25.2,0 -50,0 -74.9,0 0.1,1.7 0.1,3.3 0.2,4.7 25.1,0 49.9,0 74.7,0 0,-1.7 0,-3.1 0,-4.7 z m 0,-10 c -25.2,0 -49.9,0 -74.6,0 0,1.7 0,3.3 0,4.7 25,0 49.8,0 74.6,0 0,-1.6 0,-3.1 0,-4.7 z m -74.8,-5.3 c 25.2,0 50,0 75,0 -0.1,-1.7 -0.2,-3.3 -0.2,-4.7 -25.1,0 -49.9,0 -74.7,0 -0.1,1.6 -0.1,3.1 -0.1,4.7 z m 74.8,-24.7 c -25.2,0 -50,0 -74.9,0 0.1,1.7 0.2,3.3 0.2,4.7 25.1,0 49.9,0 74.7,0 0,-1.7 0,-3.1 0,-4.7 z m -74.8,14.7 c 25.2,0 50,0 75,0 -0.1,-1.7 -0.2,-3.3 -0.2,-4.7 -25.1,0 -49.9,0 -74.7,0 -0.1,1.6 -0.1,3.1 -0.1,4.7 z m -106.9,15 c 0,-2.5 0,-4.7 0,-6.7 0.8,-0.5 1.4,-1 1.9,-1.3 1.2,1 2.2,1.9 3.1,2.6 0,1.9 0,3.5 0,5.3 1.3,0 2.6,0 4,0 0,-2.3 0,-4.4 0,-6.4 0.6,-0.6 1.1,-1 1.7,-1.5 1.1,0.6 2.2,1.1 3.5,1.7 0,2.1 0,4.2 0,6.3 1.3,0 2.4,0 3.7,0 0,-2.9 0,-5.7 0,-8.3 -0.8,-0.9 -1.6,-1.7 -2.5,-2.8 -2.2,0.9 -4.8,-0.8 -7,1.2 -0.1,0.1 -0.3,0 -0.5,0 -2.7,-1.2 -6.3,-1.4 -11.7,-0.5 0,3.5 0,6.9 0,10.4 1.1,0 2.2,0 3.8,0 z m -25.2,-6.5 c 1.3,-0.6 2.3,-1 3.5,-1.5 0.5,0.5 1.1,1.1 1.7,1.8 0,2.1 0,4.2 0,6.1 1.4,0 2.5,0 3.8,0 0,-2.3 0,-4.4 0,-6.4 1.3,-0.6 2.4,-1.1 3.4,-1.5 0.7,0.6 1.1,1.1 1.8,1.8 0,1.6 0,3.4 0,5.6 1.2,0.3 2.4,0.6 3.7,0.9 0,-3.2 0,-6 0,-8.4 -0.9,-1.1 -1.7,-2 -2.3,-2.8 -2.4,0.1 -4.6,0.3 -6.8,0.8 -1.9,0.4 -4.4,-1.6 -6.5,-0.7 -2.2,0.9 -4.1,-1.1 -6.2,0.3 0,3.1 0,6.2 0,9.2 1.1,1.3 2.3,2.1 3.9,1 0,-2 0,-4 0,-6.2 z m 63.5,-4.4 c -3,3.2 -3.2,6.4 -1.2,9.8 3,1.7 6,1.8 8.4,0.5 2,0.4 3.5,0.6 5.2,0.9 0,-5.3 0,-10.1 0,-15.1 -1.3,0 -2.4,0 -3.9,0 0,1.6 0,3.2 0,4.8 -3,-1.6 -5.9,-0.5 -8.5,-0.9 z m -85.7,5.1 c -0.1,-2.8 -0.1,-2.8 -2.4,-5 -2.7,0 -5.3,0 -7.9,0 -1.3,0.8 -2.4,1.6 -3.5,2.3 0,2.2 0,4.2 0,6.1 0.9,0.9 1.7,1.8 2.5,2.6 3,0 6,0 9,0 1.2,-1.4 3.5,-2.3 2.1,-5 -3.2,-0.5 -6.3,2.2 -9.4,0.6 0,-1 0,-1.8 0,-2.9 3.4,0.4 6.5,0.8 9.6,1.3 z m 81.1,4.6 c 0,-2.9 0,-5.7 0,-8.8 -2,-0.3 -3.8,-0.7 -5.7,-0.8 -2,-0.1 -3.9,0 -4.9,0 -1.6,1.2 -2.5,1.9 -3.1,2.3 0,2.4 0,4.4 0,5.8 1,1.3 1.7,2.2 2.4,3 3.8,-0.5 7.6,0.7 11.3,-1.5 z m 33,-1 c 0,-2.6 0,-5.1 0,-7.3 -3.8,-2.3 -7.7,-1 -10.3,-1.3 -1.8,1.2 -2.8,1.8 -3.5,2.3 0,2.3 0,4.3 0,5.9 1,1.1 1.7,2 2.3,2.7 3.2,0 6.2,0 9.1,0 0.9,-0.9 1.7,-1.7 2.4,-2.3 z M 506,1015.2 c 1,1 1.7,1.9 2.5,2.7 3.1,0 6.1,0 9,0 0.8,-0.8 1.6,-1.6 2.5,-2.5 0,-2 0,-3.9 0,-5.6 -1,-1.1 -1.8,-2.1 -2.3,-2.8 -3.4,0 -6.4,0 -8.7,0 -1.3,1 -2.1,1.7 -2.9,2.3 -0.1,2.1 -0.1,3.9 -0.1,5.9 z m 118.2,2.6 c 0,-2.5 0,-4.6 0,-6.6 0.6,-0.5 1.1,-1 1.9,-1.7 1.5,1.9 3.3,3.4 5.8,2.1 0.3,-1.8 0.5,-3.6 -1.1,-4.4 -3.9,0 -7.3,0 -10.6,0 0,3.7 0,7.1 0,10.7 1.2,-0.1 2.4,-0.1 4,-0.1 z m -153,-11.8 c 0,2.2 0,4 0,5.8 2.6,0 5.1,0 7.5,0 -0.2,-0.2 -0.4,-0.5 -0.6,-0.7 1.8,-1.8 3.6,-3.6 5.1,-5.1 -3.6,0 -7.7,0 -12,0 z"
   id="path110" />
<path
   class="st6"
   d="m 742,1045.9 c 0,-23 0,-46 0,-69 15,0 30,0 45,0 0,23 0,46 0,69 -15,0 -30,0 -45,0 z m 27,-26 c 0,1.6 0,3.2 0,5 1.6,-0.1 2.8,-0.1 4,-0.2 0,-0.7 0,-1 0,-1.6 -1,-0.2 -2,-0.4 -4.1,-0.8 2.1,-0.4 3.1,-0.6 5,-1 -1.9,-0.4 -2.9,-0.6 -4.7,-1 1.8,-0.4 2.7,-0.6 3.7,-0.8 0,-0.2 -0.1,-0.4 -0.1,-0.7 -1.3,0 -2.6,0 -3.8,0 -0.5,0 -1,0 -1.5,0 -0.3,0.7 -0.6,1.3 -1,2.1 -0.5,-0.8 -0.8,-1.5 -1.5,-2.8 -0.7,1.3 -1.1,2 -1.6,2.8 -0.3,-0.7 -0.5,-1.3 -0.9,-2.2 -2.2,0.3 -4.5,0.6 -6.4,0.8 -1.8,-0.3 -3.3,-0.5 -4.9,-0.8 0,2 0,3.5 0,5.6 1.5,-1 2.7,-1.8 4,-2.7 1.1,1.1 2.3,2.3 3.3,3.3 2.4,-0.7 4.6,-1.4 6.6,-1.9 0.9,0.4 1.7,0.7 2.4,1 1.2,-1.5 -0.6,-3.4 1.5,-4.1 z M 756.2,1004 c 0,1.9 0,3.3 0,4.8 5.6,0 11,0 16.5,0 0.1,0 0.2,-0.2 0.2,-0.1 0,-1.6 0,-3.1 0,-4.6 -5.7,-0.1 -11.1,-0.1 -16.7,-0.1 z m 20.8,19.7 c 0.3,0 0.6,0 0.9,0 0,-1.6 0,-3.1 0,-4.9 -1.4,0.1 -2.6,0.1 -3.9,0.2 0.1,1.8 0.2,3.3 0.3,4.8 0.3,0 0.5,0 0.8,-0.1 0,-1.2 0,-2.4 0,-3.8 0.8,0 1.2,0 2,0 -0.1,1.4 -0.1,2.6 -0.1,3.8 z"
   id="path112" />

<path
   class="st0"
   d="m 441,976.9 c 0,23 0,46 0,69 -3.2,0 -6.3,0 -9.5,0 -0.7,-4.3 -1,-52.6 -0.3,-69 3.3,0 6.6,0 9.8,0 z"
   id="path116" />


<path
   class="st11"
   d="m 1224.4,22 c 1.1,0.7 2.1,1.5 3.2,2.1 4.7,2.8 5.8,7.4 6.4,12.3 0.1,0.7 0,1.3 0,2 0,302.5 0,604.9 0.1,907.4 0,6.1 -1.5,11.1 -6.3,14.9 -0.4,0.3 -0.7,0.7 -0.7,0.7 -4.4,2.2 -8.7,1.6 -12.9,1.6 -392.6,0 -785.3,0 -1177.9,0.1 -4.3,0 -7.9,-1.1 -10.8,-4.2 -2.2,-2.4 -3.8,-5.1 -3.5,-8.5 0,-0.3 0,-0.7 0,-1 0,-304.6 0,-609.3 0,-913.9 0,-1.3 0,-2.6 0,-4 1.4,-4.4 4.9,-7 9,-9.4 C 428.5,22 826.5,22 1224.4,22 Z M 30.4,34.2 c -2,4.7 -1.3,9.3 -1.3,13.9 0,298.3 0,596.6 0,894.8 0,0.5 0,1 0,1.5 0,5.3 4.2,10.9 9.3,12.6 2.2,0.7 4.3,1 6.599998,1 C 433.6,958 822.2,958 1210.8,958 c 0.7,0 1.3,0 2,0 3.8,0.2 10.3,-2.9 12.2,-7.6 1.2,-3.1 2.1,-6.2 2.1,-9.7 -0.1,-298.8 -0.1,-597.6 -0.1,-896.3 0,-1 0.1,-2 0,-3 -0.3,-2 -0.3,-4.3 -1.3,-6 -3,-5.3 -7.2,-8.4 -13.9,-8.4 C 824,27 436.3,27 48.499998,27 44.499998,27 40.4,26.5 36.1,28.4 c -1.8,1.8 -3.9,4 -5.7,5.8 z"
   id="path122" />
<path
   class="st8"
   d="m 1125,1105 c -1.5,-11.8 11.3,-23.8 24.3,-23.2 11.4,0.5 23,10.1 22.8,24.2 -0.1,6.4 -2.6,11.6 -6.8,16.2 -5.1,5.5 -11.4,6.8 -18.7,6.9 -9.8,0.1 -23.4,-11.2 -21.6,-24.1 z m 9,-13.1 c -0.3,0.1 -0.7,0.2 -0.8,0.4 -6.6,7.1 -7.6,18.6 -0.1,27.1 5.1,5.8 11.9,7 19.2,6.5 3.3,-2 7.7,-2 9.7,-6 0.3,-0.3 0.7,-0.7 1,-1 2.9,-1.1 3.8,-3.9 4.6,-6.3 0.9,-2.8 2.4,-5.9 1.3,-8.8 -1.2,-3.3 -1.3,-7 -3.8,-9.9 -2.6,-3.1 -5.2,-5.7 -9.3,-7.1 -4.2,-1.4 -8.2,-2.7 -12.8,-1 -3.1,1.2 -6.4,1.8 -8.1,5.1 -0.2,0.3 -0.6,0.7 -0.9,1 z"
   id="path124" />
<path
   class="st8"
   d="m 1086.5,1128.9 c -6.4,0.4 -11.8,-1.7 -16.4,-6.3 -4.9,-4.9 -7.3,-10.6 -7.2,-17.6 0.1,-6.2 2.2,-11.6 6.4,-15.8 4.8,-4.8 10.7,-7.7 17.9,-7.4 6.3,0.3 11.7,2.6 16.1,7 5.1,5 6.4,11.2 6.8,18.2 0.5,10.2 -11.3,23.6 -23.6,21.9 z m 12.5,-8 c 2.2,-0.2 2.8,-0.8 3,-3 2.3,-0.8 2.5,-3.1 3.3,-4.8 1.8,-4.2 2.3,-8.3 0.9,-12.9 -1.2,-3.8 -3.3,-6.8 -5.9,-9.6 -3.6,-3.8 -8.2,-5.3 -13.2,-5.6 -4.6,-0.3 -8.7,1.6 -12.3,4 -5.7,3.8 -8.3,9.4 -8.8,16.2 -0.2,2 0.7,3.7 1.1,5.6 0.7,3.3 1.7,6.4 5,8.1 0.1,1.5 1.2,0.8 2,1 -0.3,1.4 0.4,2.4 1.4,2.9 5.4,2.7 11,4.7 17.1,2.1 2.3,-1 5,-1.4 6.4,-4 z"
   id="path126" />
<path
   class="st11"
   d="m 1097,1139.9 c 0.7,0 1.3,0 2.1,0 0.9,0.9 1.9,1.9 2.8,2.9 -0.3,1.1 -0.7,2.1 -1,3.1 -1.4,0 -2.9,0.4 -4,-1.8 0.1,-1 0.1,-2.6 0.1,-4.2 z"
   id="path128" />
<path
   class="st11"
   d="m 1215,1055 c 0,0.7 0,1.5 0,2.7 -1.5,0.1 -3,0.2 -4.8,0.3 0,-1 0,-1.9 0,-2.9 1.6,-0.1 3.2,-0.1 4.8,-0.1 z"
   id="path130" />
<path
   class="st11"
   d="m 1176,1055.1 c 0,0.7 0,1.5 0,2.6 -1.2,0.1 -2.4,0.2 -3.8,0.3 0,-1.1 0,-1.9 0,-3 1.3,0.1 2.5,0.1 3.8,0.1 z"
   id="path132" />
<path
   class="st11"
   d="m 1185,1054.9 c 0.3,0.3 0.7,0.7 1,1 0,2 0,4 0,6 -1.7,0 -3.3,0 -5,0 -0.4,-1.3 -0.7,-2.7 -1.2,-4.4 1,-0.7 2.1,-1.4 3.8,-2.6 -0.3,0 0.6,0 1.4,0 z"
   id="path134" />
<path
   class="st11"
   d="m 1163,1139.9 c 0,1.4 0,2.9 0,4.3 -0.8,1.9 -2.4,1.8 -4,1.7 -0.3,-1 -0.6,-2.1 -1.1,-3.5 0.9,-0.5 2.1,-1.2 3.2,-1.9 -0.2,-0.2 -0.4,-0.4 -0.6,-0.6 0.8,0 1.7,0 2.5,0 z"
   id="path136" />
<path
   class="st11"
   d="m 1151,1139.9 c 1.4,2 1.4,4 0,6 -0.8,0 -1.7,0 -2.7,0 0,-1.9 0,-3.8 0,-6 0.8,0 1.8,0 2.7,0 z"
   id="path138" />
<path
   class="st8"
   d="m 947.09999,1030.7 c 0,-13.6 0,-27 0,-40.7 66.50001,0 132.90001,0 199.40001,0 0.8,3.8 1,25.8 0.4,40.7 -66.5,0 -132.9,0 -199.80001,0 z M 1010,1017.9 c 0,-0.7 0,-1.3 0,-2 0.4,-0.5 0.8,-1 1.4,-1.8 -3.8,0 -7.1,0 -10.3,0 0,3 0,5.8 0,8.6 3.3,0 6.6,0 9.9,0 -0.1,-0.7 -0.1,-1.1 -0.2,-1.9 -2.3,0 -4.6,0 -6.8,0 0,-0.2 0,-0.5 0,-0.7 2,-0.1 4,-0.3 6,-0.4 0,-0.8 0,-1.3 0,-1.8 z m 17.5,-13.4 c -0.7,-2.1 -1.3,-3.7 -1.8,-5.4 -1.5,0 -3.1,0 -4.5,0 0,3 0,5.8 0,8.7 0.9,0 1.7,0 2.6,0 0.2,-1.3 0.4,-2.5 0.7,-4.3 0.8,1.9 1.4,3.1 1.9,4.3 4.1,0.9 3.5,-3.2 5.6,-5.1 0,1.9 0,3.4 0,5.1 1.1,0 1.9,0 2.9,0 0,-3 0,-5.8 0,-8.8 -1.6,0 -3.1,0 -4.3,0 -1.1,1.8 -2,3.4 -3.1,5.5 z m -61.80001,14.8 c -1.1,-2.1 -2,-3.8 -2.7,-5.2 -1.5,0 -2.6,0 -3.7,0 0,3 0,5.9 0,8.7 1,0 1.8,0 2.7,0 0.1,-1.4 0.2,-2.6 0.4,-4.4 1,1.9 1.6,3.3 2.3,4.5 0.8,0 1.4,0 2.4,0 0.9,-1.6 1.8,-3.2 3.2,-5.9 0,2.7 0,4.3 0,5.8 1.1,0 1.9,0 2.7,0 0,-3 0,-5.9 0,-8.7 -1.7,0 -3.1,0 -4.3,0 -1.1,1.7 -1.9,3.2 -3,5.2 z M 1050.1,1007.7 c 1.2,0 2,0 2.7,0 0.1,-1.7 0.3,-3.3 0.4,-5.2 1.6,2.1 2.8,3.8 3.9,5.3 1.8,0 3.2,0 4.6,0 0,-3.1 0,-6 0,-8.7 -1,0 -1.8,0 -2.6,0 -0.1,2.1 -0.2,3.9 -0.4,6.1 -0.9,-1.3 -1.5,-2.2 -2.1,-3.1 -0.7,-1 -1.5,-2 -2.2,-3 -1.4,0 -2.8,0 -4.4,0 0.1,2.9 0.1,5.7 0.1,8.6 z m -47.8,0 c 3.3,0 6.4,0 9.4,0 0.5,-0.5 0.9,-0.9 1.2,-1.2 0.1,-5.4 0.1,-5.4 -1.3,-7.5 -3.1,0 -6.2,0 -9.2,0 -1.4,2.1 -1.4,2.1 -1.3,7.5 0.3,0.4 0.7,0.7 1.2,1.2 z m -26.00001,6.1 c -0.8,1.5 -1.7,3 -2.4,4.3 0.5,1.8 1,3.2 1.5,4.8 1.8,0.4 3.7,1.2 5.5,1 1.7,-0.1 3.4,-1.2 5.1,-1.9 0,-2.4 0,-4.5 0,-6.8 -2.9,-2.6 -6.4,-0.6 -9.7,-1.4 z m 79.40001,10.1 c 2.6,0.2 5.2,-0.1 7.2,-2.4 0.3,-2.7 0.3,-5.3 -1.5,-7.5 -2.7,0 -5.4,0 -7.9,0 -1.9,2.4 -1.4,5.1 -1.4,7.8 1.3,0.7 2.3,1.3 3.6,2.1 z m 24.7,-24.9 c -1.9,3.2 -1.9,6.1 0.2,8.9 3,0 6,0 9,0 0.5,-0.5 1,-1 1.3,-1.3 0,-2.3 0,-4.4 0,-6.3 -0.5,-0.5 -0.9,-0.9 -1.3,-1.3 -3,0 -5.9,0 -9.2,0 z m 12.8,0 c 0,3.2 0,6 0,9 1.1,-0.1 2,-0.1 2.7,-0.2 0.2,-0.8 0.2,-1.3 0.3,-1.8 1.2,0 2.4,0 3.4,0 0.3,0.7 0.5,1.2 0.7,1.8 0.8,0 1.6,0 2.5,0 0,-3 0,-5.9 0,-8.8 -3.3,0 -6.4,0 -9.6,0 z m -106.50001,0.1 c -3.3,0 -6.4,0 -9.4,0 0,3.1 0,5.9 0,9 3.7,-0.6 7.4,0.9 10.7,-1.2 0,-2.4 0,-4.5 0,-6.5 -0.5,-0.5 -0.8,-0.8 -1.3,-1.3 z m 3.4,8.6 c 3.5,0 6.6,0 9.8,0 0,-0.6 0,-1.1 0,-1.8 -1.2,0 -2.4,0.1 -3.5,0 -1.1,-0.1 -2.4,0.8 -3.4,-1.1 2.2,0 4.1,0 5.8,0 0,-1.1 0,-1.9 0,-2.8 -2.1,-0.1 -3.9,-0.2 -5.8,-0.3 0,-0.2 0,-0.4 0,-0.6 2,-0.2 4,-0.3 6.2,-0.5 -0.3,-0.8 -0.4,-1.3 -0.5,-1.6 -2.9,0 -5.7,0 -8.6,0 0,3 0,5.8 0,8.7 z m 8.7,15.1 c 0,-2.9 0,-5.3 0,-7.6 -0.5,-0.5 -0.9,-0.9 -1.3,-1.3 -1.5,0 -3.2,0 -4.8,0 -1.6,0 -3.2,0.1 -4.5,0.2 0,3.2 0,5.9 0,8.8 3.6,-0.1 7,-0.1 10.6,-0.1 z M 1046.7,999.1 c -3,0 -5.8,0 -8.4,0 -0.5,0.5 -0.9,0.9 -1.2,1.2 0,2.2 0,4.3 0,6.3 0.5,0.5 0.8,0.8 1.3,1.3 2.7,0 5.5,0 8.2,0 0.4,-0.4 0.8,-0.8 1.3,-1.3 0,-2 0,-4.1 0,-6.3 -0.3,-0.3 -0.7,-0.7 -1.2,-1.2 z M 958.29999,999 c 1.5,3.4 2.8,6.2 4,8.8 1.3,0 2.4,0 3.7,0 1.4,-2.8 2.8,-5.5 4.2,-8.3 -3.1,-0.5 -3.6,-0.3 -4.2,1.5 -0.5,1.3 -0.9,2.6 -1.6,4.8 -1.3,-2.8 -2.2,-4.8 -3.1,-6.8 -0.6,0 -1.3,0 -3,0 z m 83.50001,23.6 c 2.1,0.2 3,0.2 4.4,0.3 0.4,-3.3 4.6,-4.8 3.7,-8.9 -2.9,0 -5.8,0 -8.8,0 0,0.6 0,1.1 0,1.9 1.7,0 3.2,0 4.8,0 0,1 0,1.6 0,2.5 -0.9,1 -2,2.2 -4.1,4.2 z m 36.1,-23.5 c -3.3,0 -6.5,0 -9.8,0 0,0.6 0,1.1 0,1.8 1.3,0 2.5,0 4.1,0 0,2.6 0,4.8 0,6.8 1.1,0 1.9,0 3,0 0,-2.4 0,-4.6 0,-7 1.1,0 1.9,0 2.7,0 0,-0.6 0,-1 0,-1.6 z m -43.7,18.1 c 0,2 0,3.8 0,5.6 1,0 1.7,0 2.6,0 0,-3 0,-5.9 0,-9 -1.3,0.1 -2.5,0 -3.5,0.4 -1.1,0.5 -2.1,1.3 -3.1,2.1 -0.2,0.2 0,0.9 0,1.7 1.2,-0.2 2.4,-0.4 4,-0.8 z m -19.4,3.7 c 0,-2.6 0,-4.7 0,-6.9 -0.6,0 -1.1,0 -1.7,0 0,3 0,5.9 0,8.9 2.7,-0.1 5.3,0.1 8,-0.2 -0.2,-0.8 -0.3,-1.3 -0.4,-1.9 -1.8,0.1 -3.6,0.1 -5.9,0.1 z m 57.1,-7 c -1.4,0 -2.4,0 -3.4,0 -0.8,1.2 -2.7,1.8 -2.4,4.2 1.4,-0.5 2.5,-0.9 4,-1.5 0,2.4 0,4.3 0,6.4 0.8,-0.1 1.3,-0.2 1.8,-0.3 0,-2.9 0,-5.6 0,-8.8 z m -5,-14.8 c -1.2,0 -2,0 -2.9,0 0.1,3.1 -0.1,6 0.1,8.7 1.2,0 2,0 2.9,0 -0.1,-3 -0.1,-5.8 -0.1,-8.7 z m -93.10001,8.7 c 0,-3 0,-5.8 0,-8.8 -0.6,0 -1,0 -1.7,0 0,3 0,5.8 0,8.8 0.7,0 1.1,0 1.7,0 z"
   id="path140" />
<path
   class="st15"
   d="m 732.9,1028.1 c 0,1.6 0,3.1 0,4.7 -24.8,0 -49.6,0 -74.7,0 -0.1,-1.4 -0.1,-2.9 -0.2,-4.7 25,0 49.7,0 74.9,0 z"
   id="path142" />
<path
   class="st16"
   d="m 732.9,1018.1 c 0,1.7 0,3.1 0,4.7 -24.9,0 -49.6,0 -74.6,0 0,-1.4 0,-3 0,-4.7 24.7,0 49.5,0 74.6,0 z"
   id="path144" />
<path
   class="st17"
   d="m 658.1,1012.8 c 0,-1.6 0,-3 0,-4.7 24.8,0 49.6,0 74.7,0 0.1,1.4 0.2,2.9 0.2,4.7 -24.9,0 -49.7,0 -74.9,0 z"
   id="path146" />
<path
   class="st18"
   d="m 732.9,988.1 c 0,1.6 0,3.1 0,4.7 -24.8,0 -49.6,0 -74.7,0 -0.1,-1.4 -0.1,-2.9 -0.2,-4.7 25,0 49.7,0 74.9,0 z"
   id="path148" />
<path
   class="st19"
   d="m 658.1,1002.8 c 0,-1.6 0,-3 0,-4.7 24.8,0 49.6,0 74.7,0 0.1,1.4 0.2,2.9 0.2,4.7 -24.9,0 -49.7,0 -74.9,0 z"
   id="path150" />
<path
   class="st20"
   d="m 471,1018.9 c 0,2.5 0,5 0,7.5 -4.3,2.6 -8.3,0.1 -12.6,-0.6 -2,-2 -4.1,-4.1 -6,-6.1 -1.9,-4.8 -1.9,-9.4 0.1,-15.1 1,-1 3,-2.6 4.6,-4.4 1.9,-2.1 4.7,-1.7 6.8,-2.9 2.7,-1.5 4.5,1.1 6.9,0.6 0,2.3 0,4.4 0,6.9 -1.3,0 -2.8,0.1 -4.2,0 -3.5,-0.2 -6.4,0.7 -7.6,5.5 0,0.9 0,2.8 0,5.2 1.6,1.3 3.4,2.9 5.5,4.6 2.2,-0.3 4.4,-0.8 6.5,-1.2 z"
   id="path152" />
<path
   class="st20"
   d="m 551.2,1017.8 c -1.6,0 -2.7,0 -4,0 0,-3.5 0,-7 0,-10.4 5.4,-0.8 9,-0.7 11.7,0.5 0.2,0 0.4,0.1 0.5,0 2.1,-2 4.8,-0.3 7,-1.2 0.9,1 1.7,1.9 2.5,2.8 0,2.7 0,5.5 0,8.3 -1.2,0 -2.4,0 -3.7,0 0,-2.1 0,-4.2 0,-6.3 -1.3,-0.6 -2.3,-1.2 -3.5,-1.7 -0.5,0.5 -1,0.9 -1.7,1.5 0,2 0,4.1 0,6.4 -1.4,0 -2.6,0 -4,0 0,-1.7 0,-3.3 0,-5.3 -0.9,-0.8 -1.9,-1.6 -3.1,-2.6 -0.5,0.3 -1.1,0.8 -1.9,1.3 0.2,2.1 0.2,4.2 0.2,6.7 z"
   id="path154" />
<path
   class="st20"
   d="m 526,1011.3 c 0,2.2 0,4.2 0,6.2 -1.6,1.2 -2.7,0.3 -3.9,-1 0,-3 0,-6.1 0,-9.2 2,-1.4 4,0.7 6.2,-0.3 2.1,-0.9 4.6,1.1 6.5,0.7 2.2,-0.5 4.4,-0.7 6.8,-0.8 0.6,0.8 1.4,1.7 2.3,2.8 0,2.4 0,5.1 0,8.4 -1.4,-0.3 -2.5,-0.6 -3.7,-0.9 0,-2.2 0,-4 0,-5.6 -0.6,-0.6 -1.1,-1.1 -1.8,-1.8 -1,0.4 -2.1,0.9 -3.4,1.5 0,2 0,4.2 0,6.4 -1.3,0 -2.4,0 -3.8,0 0,-2 0,-4.1 0,-6.1 -0.7,-0.7 -1.2,-1.3 -1.7,-1.8 -1.2,0.5 -2.2,0.9 -3.5,1.5 z"
   id="path156" />
<path
   class="st20"
   d="m 589.5,1006.9 c 2.6,0.4 5.5,-0.7 8.5,1 0,-1.6 0,-3.2 0,-4.8 1.5,0 2.6,0 3.9,0 0,4.9 0,9.8 0,15.1 -1.7,-0.3 -3.2,-0.6 -5.2,-0.9 -2.5,1.3 -5.5,1.2 -8.4,-0.5 -2,-3.6 -1.8,-6.7 1.2,-9.9 z m 1.1,6.7 c 2.3,0.6 4.1,1.1 5.6,1.5 2.5,-1.6 2,-3.3 1.7,-5.1 -1.9,0 -3.6,0 -5.8,0 -0.5,1 -0.9,2.1 -1.5,3.6 z"
   id="path158" />
<path
   class="st20"
   d="m 503.8,1012 c -3.1,-0.4 -6.2,-0.9 -9.6,-1.3 0,1.1 0,1.9 0,2.9 3.1,1.6 6.2,-1.2 9.4,-0.6 1.4,2.7 -1,3.5 -2.1,5 -3,0 -6,0 -9,0 -0.8,-0.8 -1.6,-1.7 -2.5,-2.6 0,-1.9 0,-3.9 0,-6.1 1,-0.7 2.2,-1.5 3.5,-2.3 2.6,0 5.2,0 7.9,0 2.3,2.2 2.3,2.2 2.4,5 z"
   id="path160" />
<path
   class="st20"
   d="m 584.9,1016.6 c -3.6,2.3 -7.5,1 -11.4,1.4 -0.7,-0.8 -1.4,-1.7 -2.4,-3 0,-1.4 0,-3.4 0,-5.8 0.6,-0.4 1.5,-1.1 3.1,-2.3 1,0 3,-0.1 4.9,0 1.9,0.1 3.7,0.5 5.7,0.8 0.1,3.1 0.1,5.9 0.1,8.9 z m -8.5,-1.8 c 1.5,0 3,0 4.3,0 0,-1.7 0,-3.3 0,-4.7 -2,0 -3.8,0 -5.6,0 -0.1,1.7 -0.5,3.3 1.3,4.7 z"
   id="path162" />
<path
   class="st20"
   d="m 617.9,1015.6 c -0.6,0.6 -1.5,1.4 -2.3,2.3 -2.9,0 -5.9,0 -9.1,0 -0.6,-0.7 -1.4,-1.6 -2.3,-2.7 0,-1.6 0,-3.6 0,-5.9 0.7,-0.5 1.7,-1.1 3.5,-2.3 2.5,0.3 6.5,-1 10.3,1.3 -0.1,2.2 -0.1,4.7 -0.1,7.3 z m -4,-0.8 c 0,-1.9 0,-3.3 0,-4.7 -2.1,0 -3.9,0 -5.8,0 0,1.8 -0.5,3.6 1.5,4.7 1.2,0 2.6,0 4.3,0 z"
   id="path164" />
<path
   class="st20"
   d="m 506,1015.2 c 0,-2 0,-3.8 0,-5.9 0.7,-0.6 1.6,-1.3 2.9,-2.3 2.4,0 5.3,0 8.7,0 0.6,0.7 1.4,1.7 2.3,2.8 0,1.7 0,3.6 0,5.6 -0.8,0.8 -1.7,1.7 -2.5,2.5 -3,0 -6,0 -9,0 -0.6,-0.8 -1.4,-1.6 -2.4,-2.7 z m 5.4,-0.4 c 1.3,0 2.4,0 3.3,0 1.9,-1.5 1.5,-3.2 1.2,-4.7 -2.1,0 -3.9,0 -5.7,0 0,1.3 0,2.4 0,3.4 0.3,0.4 0.7,0.7 1.2,1.3 z"
   id="path166" />
<path
   class="st20"
   d="m 646,1013.9 c 0,0.8 0,1.7 0,2.5 -3.2,2.4 -6.8,1.2 -10.5,1.6 -0.7,-0.8 -1.4,-1.7 -2.4,-2.9 0,-1.4 0,-3.4 0,-5.8 0.7,-0.4 1.7,-1 3.7,-2.3 2,0.2 5.6,-0.9 9.2,1.4 0,1.3 0,2.9 0,4.5 -2.9,0 -5.9,0 -9.1,0 0.2,0.9 0.2,1.5 0.4,2.3 3.1,-0.4 5.9,-0.8 8.7,-1.3 z m -4.1,-3.1 c -1.6,-0.7 -3.2,-1.2 -5.8,0 2.7,0 4.2,0 5.8,0 z"
   id="path168" />
<path
   class="st20"
   d="m 624.2,1017.8 c -1.6,0 -2.8,0 -4,0 0,-3.5 0,-7 0,-10.7 3.3,0 6.7,0 10.6,0 1.6,0.8 1.4,2.6 1.1,4.4 -2.5,1.3 -4.3,-0.2 -5.8,-2.1 -0.8,0.7 -1.3,1.1 -1.9,1.7 0,2.1 0,4.2 0,6.7 z"
   id="path170" />
<path
   class="st20"
   d="m 471,1019 c 0,-1.9 0,-3.7 0,-5.8 2.3,-0.6 4.8,0 7.1,-0.3 1.9,2 3.6,3.9 5.4,5.8 -3.8,0.6 -8.2,0 -12.5,0.3 z"
   id="path172" />
<path
   class="st20"
   d="m 471.2,1006 c 4.3,0 8.4,0 11.9,0 -1.5,1.5 -3.3,3.3 -5.1,5.1 0.2,0.2 0.4,0.5 0.6,0.7 -2.4,0 -4.9,0 -7.5,0 0.1,-1.8 0.1,-3.6 0.1,-5.8 z"
   id="path174" />
<path
   class="st5"
   d="m 646,1013.9 c -2.8,0.4 -5.6,0.9 -8.7,1.3 -0.1,-0.9 -0.2,-1.4 -0.4,-2.3 3.2,0 6.1,0 9.1,0 0,0.4 0,0.7 0,1 z"
   id="path176" />
<path
   class="st16"
   d="m 756.2,1004 c 5.6,0 11,0 16.7,0 0,1.5 0,3 0,4.6 0.1,-0.1 -0.1,0.1 -0.2,0.1 -5.4,0 -10.9,0 -16.5,0 0,-1.4 0,-2.8 0,-4.7 z"
   id="path178" />
<path
   class="st9"
   d="m 769,1019.9 c -2.1,0.7 -0.4,2.6 -1.5,4 -0.7,-0.3 -1.4,-0.6 -2.4,-1 -2,0.6 -4.2,1.2 -6.6,1.9 -1,-1 -2.2,-2.2 -3.3,-3.3 -1.4,0.9 -2.5,1.7 -4,2.7 0,-2.1 0,-3.7 0,-5.6 1.6,0.3 3.1,0.5 4.9,0.8 1.9,-0.2 4.2,-0.5 6.4,-0.8 0.4,0.9 0.6,1.5 0.9,2.2 0.5,-0.8 0.8,-1.5 1.6,-2.8 0.7,1.3 1.1,2 1.5,2.8 0.3,-0.7 0.7,-1.4 1,-2.1 0.6,0 1.1,0 1.5,0 0,0.6 0,0.9 0,1.2 z m -9.9,3.3 c 0.3,-0.2 0.6,-0.3 0.9,-0.5 -0.1,-0.9 -0.3,-1.9 -0.5,-3.4 -1.2,1 -1.9,1.5 -2.6,2.2 0.8,0.6 1.5,1.1 2.2,1.7 z"
   id="path180" />
<path
   class="st11"
   d="m 769,1019.9 c 0,-0.3 0,-0.7 0,-1 1.3,0 2.6,0 3.8,0 0,0.2 0.1,0.4 0.1,0.7 -0.9,0.2 -1.9,0.4 -3.7,0.8 1.8,0.4 2.7,0.6 4.7,1 -1.9,0.4 -2.9,0.6 -5,1 2.1,0.4 3.1,0.6 4.1,0.8 0,0.5 0,0.9 0,1.6 -1.2,0.1 -2.4,0.1 -4,0.2 0,-1.8 0,-3.5 0,-5.1 z"
   id="path182" />
<path
   class="st0"
   d="m 777,1023.7 c 0,-1.2 0,-2.5 0,-3.7 -0.8,0 -1.2,0 -2,0 0,1.3 0,2.5 0,3.8 -0.3,0 -0.5,0 -0.8,0.1 -0.1,-1.5 -0.2,-2.9 -0.3,-4.8 1.3,-0.1 2.5,-0.1 3.9,-0.2 0,1.8 0,3.3 0,4.9 -0.2,0 -0.5,-0.1 -0.8,-0.1 z"
   id="path184" />
<path
   class="st21"
   d="m 30.4,34.2 c 1.8,-1.8 4,-4 5.7,-5.7 4.2,-1.9 8.299998,-1.4 12.399998,-1.4 C 436.3,27.1 824.1,27.1 1211.8,27 c 6.7,0 10.9,3.2 13.9,8.4 1,1.7 1,3.9 1.3,6 0.2,1 0,2 0,3 0,298.8 0,597.6 0.1,896.3 0,3.5 -0.9,6.6 -2.1,9.7 -1.9,4.7 -8.4,7.8 -12.2,7.6 -0.7,0 -1.3,0 -2,0 -388.6,0 -777.2,0 -1165.800002,0 C 42.7,958 40.6,957.7 38.4,957 c -5.1,-1.7 -9.3,-7.3 -9.3,-12.6 0,-0.5 0,-1 0,-1.5 0,-298.3 0,-596.6 0,-894.8 0,-4.6 -0.7,-9.2 1.3,-13.9 z M 1176,73 c -0.3,-0.3 -0.5,-0.9 -0.8,-1 -1.5,-0.1 -3,0 -4.5,0 -362.1,0 -724.2,0 -1086.400002,0 -1.5,0 -3,-0.1 -4.5,0 -0.3,0 -0.5,0.6 -0.8,1 -0.5,0.3 -1,0.8 -1.6,1 -4.3,1.4 -6.6,4.3 -7.8,8.7 -0.5,2 -0.6,3.8 -0.6,5.7 0,269.4 0,538.8 0,808.2 0,1 -0.1,2 0,3 0.5,3.6 2.1,7 5.5,9.7 1.7,1.4 3.8,1.5 5.4,2.7 0.3,0.3 0.5,0.9 0.8,1 1.5,0.1 3,0 4.5,0 C 197,913 308.8,913 420.6,913 c 1.5,0 3,0.1 4.5,0 0.3,0 0.5,-0.6 0.8,-1 121.7,0 243.3,0 365,0 1,1.4 2,1.4 3,0 1.3,0 2.7,0 4,0 0.3,0.3 0.5,0.9 0.8,1 1.5,0.1 3,0 4.5,0 122.5,0 244.9,0 367.4,0 1.5,0 3,0.1 4.5,0 0.3,0 0.5,-0.6 0.8,-1 3.4,-1.4 6.5,-3.4 8.4,-6 2.1,-4.3 1.6,-8.4 1.6,-12.4 0,-269.1 0,-538.1 0,-807.2 0,-1.7 0,-3.3 0,-5.5 -2,-2.1 -4.2,-4.5 -5.8,-6.2 -1.8,-0.8 -3,-1.3 -4.1,-1.7 z"
   id="path186" />
<path
   class="st11"
   d="m 1163,1118.9 c -0.3,0.3 -0.7,0.7 -1,1 -1.1,0.1 -2.2,-0.3 -3.2,0.7 -2.9,2.4 -6.3,3.4 -10,3.4 -1.8,0 -3.6,0 -5.4,0 -6.8,-2.4 -10.9,-7.3 -13.3,-14.4 0,0.3 0,0 0,-0.3 -0.1,-5.3 -0.3,-10.6 3.9,-14.8 0.4,-0.4 0.1,-1.6 0.1,-2.4 0.3,-0.3 0.7,-0.7 1,-1 1.1,-0.1 2.2,0.4 3.2,-0.7 2.4,-2.6 5.9,-3 9,-3.2 7.2,-0.6 12.7,3 16.6,8.6 2.2,3.1 3.8,7 3.1,11.1 -0.6,3.2 -0.7,6.6 -3.3,9 -1.1,0.8 -0.6,1.9 -0.7,3 z m 0.8,-13 c -0.3,-1.1 -0.9,-2 -0.8,-2.9 0.3,-3.8 -2,-6.6 -4.3,-8.6 -4,-3.6 -9,-5 -14.6,-3.5 -5.5,1.5 -10.9,7.6 -11.1,13.3 -0.2,4.7 1.3,8.6 4.7,12 2.7,2.8 5.9,4.4 9.6,4.6 6.7,0.4 11.6,-2.7 14.6,-8.6 1,-1.8 1.3,-4.1 1.9,-6.3 z"
   id="path188" />
<path
   class="st4"
   d="m 1134,1091.9 c 0,0.8 0.4,2 -0.1,2.4 -4.2,4.2 -4.1,9.5 -3.9,14.8 0,0.3 0,0.7 0,0.3 2.4,7.2 6.5,12 13.3,14.4 1.8,0 3.6,0 5.4,0 3.8,0.1 7.2,-0.9 10,-3.4 1.1,-0.9 2.1,-0.5 3.2,-0.7 -2,4 -6.4,4 -9.7,6 -7.3,0.5 -14.2,-0.7 -19.2,-6.5 -7.5,-8.6 -6.5,-20.1 0.1,-27.1 0.3,0 0.6,-0.1 0.9,-0.2 z"
   id="path190" />
<path
   class="st4"
   d="m 1163,1118.9 c 0.1,-1.1 -0.4,-2.2 0.7,-3.2 2.6,-2.4 2.7,-5.9 3.3,-9 0.7,-4.1 -0.9,-8 -3.1,-11.1 -3.9,-5.5 -9.5,-9.2 -16.6,-8.6 -3.1,0.3 -6.6,0.6 -9,3.2 -1,1 -2.1,0.5 -3.2,0.7 1.7,-3.3 5,-3.9 8.1,-5.1 4.5,-1.7 8.5,-0.4 12.8,1 4,1.3 6.6,4 9.3,7.1 2.5,2.9 2.6,6.6 3.8,9.9 1.1,2.9 -0.4,6 -1.3,8.8 -1,2.4 -1.9,5.2 -4.8,6.3 z"
   id="path192" />
<path
   class="st11"
   d="m 1074,1119.9 c -0.8,-0.2 -1.9,0.5 -2,-1 -0.1,-1.1 0.2,-2.1 -0.7,-3.2 -4.5,-5.6 -4.1,-11.7 -1.6,-17.9 1.4,-3.5 4.4,-5.8 7.6,-7.9 2.5,-1.6 5.2,-3 8.3,-3 5.1,0.1 9.7,1.3 13.3,5.3 1.7,1.9 4,3.4 4.9,6 1.7,5.1 2.1,10.2 -0.6,15.2 -0.7,1.3 -1.7,2.8 -1.1,4.5 -2.2,0.2 -2.8,0.8 -3,3 -1.9,-0.3 -3.4,0.5 -4.9,1.4 -4.5,2.9 -13.3,1.9 -17.5,-1.4 -0.9,-0.6 -1.6,-1.1 -2.7,-1 z m 12.5,1 c 8.3,0 15.4,-7.3 15.5,-15 0.1,-4.3 -1.9,-7.9 -4.5,-11.1 -2.8,-3.4 -7.1,-4.7 -10.9,-4.7 -3.6,0 -7.7,1.3 -10.6,4.3 -2.9,3.1 -4.9,6.9 -4.8,10.9 0.1,9.1 6.8,15.4 15.3,15.6 z"
   id="path194" />
<path
   class="st4"
   d="m 1102,1117.9 c -0.5,-1.7 0.5,-3.2 1.1,-4.5 2.7,-5 2.3,-10.1 0.6,-15.2 -0.9,-2.5 -3.2,-4 -4.9,-6 -3.6,-4 -8.2,-5.2 -13.3,-5.3 -3.1,0 -5.7,1.3 -8.3,3 -3.2,2 -6.2,4.3 -7.6,7.9 -2.5,6.2 -2.9,12.3 1.6,17.9 0.9,1.1 0.5,2.1 0.7,3.2 -3.3,-1.7 -4.3,-4.9 -5,-8.1 -0.4,-1.8 -1.2,-3.5 -1.1,-5.6 0.5,-6.8 3.1,-12.4 8.8,-16.2 3.6,-2.4 7.7,-4.3 12.3,-4 5,0.3 9.6,1.8 13.2,5.6 2.7,2.8 4.7,5.7 5.9,9.6 1.5,4.6 1,8.7 -0.9,12.9 -0.6,1.8 -0.8,4 -3.1,4.8 z"
   id="path196" />
<path
   class="st4"
   d="m 1074,1119.9 c 1.1,-0.2 1.8,0.3 2.6,1 4.2,3.4 13,4.3 17.5,1.4 1.4,-0.9 3,-1.8 4.9,-1.4 -1.4,2.6 -4.1,3 -6.5,4 -6.1,2.6 -11.7,0.5 -17.1,-2.1 -1,-0.5 -1.7,-1.5 -1.4,-2.9 z"
   id="path198" />
<path
   class="st4"
   d="m 1099,1120.9 c 0.2,-2.2 0.8,-2.8 3,-3 -0.2,2.3 -0.8,2.8 -3,3 z"
   id="path200" />
<path
   class="st10"
   d="m 1027.5,1004.5 c 1.2,-2.1 2.1,-3.7 3,-5.5 1.2,0 2.7,0 4.3,0 0,3 0,5.9 0,8.8 -1,0 -1.7,0 -2.9,0 0,-1.7 0,-3.2 0,-5.1 -2.1,1.9 -1.5,6 -5.6,5.1 -0.5,-1.2 -1.1,-2.5 -1.9,-4.3 -0.3,1.8 -0.5,3 -0.7,4.3 -0.9,0 -1.7,0 -2.6,0 0,-2.9 0,-5.7 0,-8.7 1.5,0 3,0 4.5,0 0.6,1.7 1.2,3.3 1.9,5.4 z"
   id="path202" />
<path
   class="st14"
   d="m 965.69999,1019.3 c 1.1,-2 1.9,-3.5 2.8,-5.2 1.2,0 2.6,0 4.3,0 0,2.8 0,5.7 0,8.7 -0.8,0 -1.6,0 -2.7,0 0,-1.5 0,-3.1 0,-5.8 -1.5,2.7 -2.4,4.3 -3.2,5.9 -0.9,0 -1.6,0 -2.4,0 -0.6,-1.3 -1.3,-2.6 -2.3,-4.5 -0.1,1.8 -0.2,3.1 -0.4,4.4 -0.9,0 -1.7,0 -2.7,0 0,-2.8 0,-5.7 0,-8.7 1.2,0 2.3,0 3.7,0 0.9,1.4 1.8,3.1 2.9,5.2 z"
   id="path204" />
<path
   class="st10"
   d="m 1050.1,1007.7 c 0,-3 0,-5.7 0,-8.7 1.5,0 3,0 4.4,0 0.7,1 1.5,2 2.2,3 0.6,0.9 1.2,1.8 2.1,3.1 0.1,-2.2 0.2,-4 0.4,-6.1 0.8,0 1.6,0 2.6,0 0,2.7 0,5.6 0,8.7 -1.4,0 -2.8,0 -4.6,0 -1.1,-1.5 -2.3,-3.1 -3.9,-5.3 -0.2,2 -0.3,3.5 -0.4,5.2 -0.8,0.1 -1.6,0.1 -2.8,0.1 z"
   id="path206" />
<path
   class="st10"
   d="m 1002.3,1007.7 c -0.5,-0.5 -0.9,-0.9 -1.2,-1.2 -0.1,-5.4 -0.1,-5.4 1.3,-7.5 3.1,0 6.2,0 9.2,0 1.4,2.1 1.4,2.1 1.3,7.5 -0.4,0.4 -0.7,0.7 -1.2,1.2 -2.9,0 -6.1,0 -9.4,0 z m 7.6,-1.9 c 0.1,-2 0.5,-3.8 -1.6,-4.9 -0.8,0 -1.8,0 -2.8,0 -0.5,0.5 -0.9,0.9 -1.4,1.4 0,1.1 0,2.2 0,3.5 1.9,0 3.6,0 5.8,0 z"
   id="path208" />
<path
   class="st10"
   d="m 976.29999,1013.8 c 3.3,0.8 6.8,-1.2 9.6,1.4 0,2.2 0,4.4 0,6.8 -1.7,0.7 -3.4,1.7 -5.1,1.9 -1.8,0.1 -3.6,-0.6 -5.5,-1 -0.5,-1.5 -0.9,-3 -1.5,-4.8 0.8,-1.4 1.6,-2.8 2.5,-4.3 z m 6.5,7 c 0,-1.9 0,-3.3 0,-4.8 -1.6,0 -3,0 -4.8,0 -0.4,1 -0.9,2.1 -1.3,3.1 0.7,0.7 1.2,1.2 1.7,1.7 1.4,0 2.9,0 4.4,0 z"
   id="path210" />
<path
   class="st10"
   d="m 1055.7,1023.9 c -1.3,-0.8 -2.3,-1.4 -3.7,-2.2 -0.1,-2.6 -0.5,-5.3 1.4,-7.8 2.6,0 5.2,0 7.9,0 1.9,2.2 1.8,4.8 1.5,7.5 -1.9,2.4 -4.5,2.8 -7.1,2.5 z m -0.6,-3.1 c 1.9,0 3.3,0 4.8,0 0,-1.3 0,-2.4 0,-3.8 -1,-0.4 -2.1,-0.9 -3.2,-1.3 -0.7,0.7 -1.2,1.2 -1.7,1.7 0.1,1 0.1,2.1 0.1,3.4 z"
   id="path212" />
<path
   class="st10"
   d="m 1080.4,999 c 3.3,0 6.3,0 9.2,0 0.4,0.4 0.8,0.8 1.3,1.3 0,1.9 0,4.1 0,6.3 -0.3,0.3 -0.8,0.8 -1.3,1.3 -3,0 -6,0 -9,0 -2.1,-2.8 -2.2,-5.8 -0.2,-8.9 z m 7.5,2.1 c -1.6,0 -3.2,0 -4.6,0 -1.7,2.8 -1.7,3.5 0.1,4.6 1.7,0 3.1,0 4.6,0 -0.1,-1.6 -0.1,-3 -0.1,-4.6 z"
   id="path214" />
<path
   class="st10"
   d="m 1093.2,999 c 3.3,0 6.4,0 9.7,0 0,2.9 0,5.8 0,8.8 -0.9,0 -1.7,0 -2.5,0 -0.2,-0.6 -0.4,-1.2 -0.7,-1.8 -1.1,0 -2.2,0 -3.4,0 -0.1,0.5 -0.2,0.9 -0.3,1.8 -0.7,0.1 -1.6,0.1 -2.7,0.2 -0.1,-3 -0.1,-5.8 -0.1,-9 z m 2.9,3.8 c 1.3,0 2.5,0 3.8,0 0,-0.6 0,-1.1 0,-1.7 -1.3,0 -2.5,0 -3.8,0 0,0.6 0,1 0,1.7 z"
   id="path216" />
<path
   class="st10"
   d="m 986.69999,999.1 c 0.5,0.5 0.9,0.9 1.2,1.2 0,2.1 0,4.2 0,6.5 -3.3,2.1 -7,0.5 -10.7,1.2 0,-3 0,-5.9 0,-9 3.1,0.1 6.2,0.1 9.5,0.1 z m -1.7,2.1 c -1.7,0 -3.3,0 -4.8,0 0,1.7 0,3.2 0,4.8 1.7,-0.1 3.3,-0.2 4.8,-0.2 0,-1.7 0,-3.1 0,-4.6 z"
   id="path218" />
<path
   class="st10"
   d="m 990.09999,1007.7 c 0,-3 0,-5.7 0,-8.7 2.9,0 5.7,0 8.6,0 0.1,0.3 0.2,0.8 0.5,1.6 -2.2,0.2 -4.2,0.3 -6.2,0.5 0,0.2 0,0.4 0,0.6 1.9,0.1 3.8,0.2 5.8,0.3 0,0.8 0,1.6 0,2.8 -1.8,0 -3.7,0 -5.8,0 1,1.9 2.4,0.9 3.4,1.1 1.1,0.1 2.3,0 3.5,0 0,0.7 0,1.2 0,1.8 -3.1,0 -6.3,0 -9.8,0 z"
   id="path220" />
<path
   class="st10"
   d="m 998.79999,1022.8 c -3.6,0 -7.1,0 -10.7,0 0,-2.8 0,-5.6 0,-8.8 1.4,-0.1 3,-0.1 4.5,-0.2 1.6,0 3.3,0 4.8,0 0.5,0.5 0.8,0.8 1.3,1.3 0.1,2.4 0.1,4.9 0.1,7.7 z m -7.6,-6.8 c 0,1.9 0,3.3 0,4.8 1.6,0 3,0 4.4,0 1.9,-2.4 1.9,-2.4 0,-4.8 -1.4,0 -2.8,0 -4.4,0 z"
   id="path222" />
<path
   class="st10"
   d="m 1010,1017.9 c 0,0.5 0,1 0,1.8 -2,0.1 -4,0.2 -6,0.4 0,0.2 0,0.5 0,0.7 2.2,0 4.5,0 6.8,0 0.1,0.8 0.1,1.2 0.2,1.9 -3.3,0 -6.6,0 -9.9,0 0,-2.8 0,-5.6 0,-8.6 3.2,0 6.5,0 10.3,0 -0.7,0.8 -1,1.3 -1.4,1.8 -1.9,0 -3.9,0 -5.9,0 0,0.8 0,1.2 0,2 2,0 4,0 5.9,0 z"
   id="path224" />
<path
   class="st10"
   d="m 1046.7,999.1 c 0.5,0.5 0.9,0.9 1.2,1.2 0,2.2 0,4.3 0,6.3 -0.5,0.5 -0.8,0.8 -1.3,1.3 -2.7,0 -5.5,0 -8.2,0 -0.4,-0.4 -0.8,-0.8 -1.3,-1.3 0,-2 0,-4.1 0,-6.3 0.3,-0.3 0.7,-0.7 1.2,-1.2 2.6,0 5.4,0 8.4,0 z m -6.3,6.8 c 2.1,-0.3 4.5,0.9 5.6,-1.9 -0.4,-1 -0.9,-1.9 -1.4,-3 -1.4,0 -2.9,0 -4.2,0 -1.7,2.3 -1.7,2.3 0,4.9 z"
   id="path226" />
<path
   class="st10"
   d="m 958.29999,999 c 1.7,0 2.4,0 3,0 0.9,2 1.8,4 3.1,6.8 0.7,-2.1 1.1,-3.5 1.6,-4.8 0.7,-1.9 1.1,-2.1 4.2,-1.5 -1.4,2.8 -2.8,5.5 -4.2,8.3 -1.4,0 -2.5,0 -3.7,0 -1.2,-2.7 -2.5,-5.4 -4,-8.8 z"
   id="path228" />
<path
   class="st10"
   d="m 1041.8,1022.6 c 2.1,-2.1 3.2,-3.2 4.1,-4.2 0,-0.9 0,-1.5 0,-2.5 -1.6,0 -3.2,0 -4.8,0 0,-0.8 0,-1.2 0,-1.9 2.9,0 5.8,0 8.8,0 0.9,4.1 -3.3,5.5 -3.7,8.9 -1.4,0 -2.3,-0.1 -4.4,-0.3 z"
   id="path230" />
<path
   class="st10"
   d="m 1077.9,999.1 c 0,0.6 0,1.1 0,1.7 -0.8,0 -1.6,0 -2.7,0 0,2.4 0,4.6 0,7 -1.1,0 -1.9,0 -3,0 0,-2 0,-4.3 0,-6.8 -1.6,0 -2.8,0 -4.1,0 0,-0.8 0,-1.2 0,-1.8 3.3,-0.1 6.5,-0.1 9.8,-0.1 z"
   id="path232" />
<path
   class="st12"
   d="m 1034.2,1017.2 c -1.6,0.3 -2.7,0.5 -4.1,0.8 0,-0.8 -0.2,-1.5 0,-1.7 1,-0.8 2,-1.6 3.1,-2.1 1,-0.4 2.2,-0.3 3.5,-0.4 0,3.1 0,6 0,9 -0.9,0 -1.7,0 -2.6,0 0.1,-1.8 0.1,-3.6 0.1,-5.6 z"
   id="path234" />
<path
   class="st10"
   d="m 1014.8,1020.9 c 2.3,0 4,0 5.9,0 0.1,0.6 0.2,1 0.4,1.9 -2.7,0.3 -5.2,0.1 -8,0.2 0,-3.1 0,-5.9 0,-8.9 0.6,0 1,0 1.7,0 0,2.1 0,4.2 0,6.8 z"
   id="path236" />
<path
   class="st10"
   d="m 1071.9,1013.9 c 0,3.1 0,5.9 0,8.8 -0.5,0.1 -1,0.1 -1.8,0.3 0,-2 0,-3.9 0,-6.4 -1.5,0.6 -2.6,1 -4,1.5 -0.3,-2.4 1.6,-3 2.4,-4.2 1,0 2,0 3.4,0 z"
   id="path238" />
<path
   class="st12"
   d="m 1066.9,999.1 c 0,2.9 0,5.7 0,8.7 -0.9,0 -1.6,0 -2.9,0 -0.1,-2.7 0,-5.6 -0.1,-8.7 1,0 1.8,0 3,0 z"
   id="path240" />
<path
   class="st6"
   d="m 973.79999,1007.8 c -0.6,0 -1.1,0 -1.7,0 0,-3 0,-5.9 0,-8.8 0.6,0 1.1,0 1.7,0 0,3 0,5.9 0,8.8 z"
   id="path242" />
<path
   class="st13"
   d="m 1010,1017.9 c -1.9,0 -3.9,0 -5.9,0 0,-0.8 0,-1.2 0,-2 2,0 4,0 5.9,0 0,0.7 0,1.4 0,2 z"
   id="path244" />
<path
   class="st2"
   d="m 590.6,1013.6 c 0.6,-1.5 1.1,-2.6 1.5,-3.6 2.1,0 3.9,0 5.8,0 0.3,1.8 0.8,3.5 -1.7,5.1 -1.5,-0.4 -3.4,-0.9 -5.6,-1.5 z"
   id="path246" />
<path
   class="st22"
   d="m 576.4,1014.8 c -1.9,-1.4 -1.4,-3 -1.2,-4.7 1.8,0 3.6,0 5.6,0 0,1.4 0,3 0,4.7 -1.4,0 -2.8,0 -4.4,0 z"
   id="path248" />
<path
   class="st22"
   d="m 613.9,1014.8 c -1.6,0 -3.1,0 -4.3,0 -2.1,-1.1 -1.5,-2.9 -1.5,-4.7 1.9,0 3.8,0 5.8,0 0,1.4 0,2.9 0,4.7 z"
   id="path250" />
<path
   class="st22"
   d="m 511.4,1014.8 c -0.5,-0.5 -0.9,-0.9 -1.2,-1.2 0,-1.1 0,-2.2 0,-3.4 1.8,0 3.6,0 5.7,0 0.3,1.5 0.8,3.2 -1.2,4.7 -0.9,-0.1 -2,-0.1 -3.3,-0.1 z"
   id="path252" />
<path
   class="st14"
   d="m 641.9,1010.8 c -1.6,0 -3.1,0 -5.8,0 2.6,-1.2 4.2,-0.7 5.8,0 z"
   id="path254" />
<path
   class="st14"
   d="m 759.1,1023.2 c -0.7,-0.5 -1.4,-1.1 -2.2,-1.7 0.8,-0.6 1.5,-1.2 2.6,-2.2 0.2,1.5 0.4,2.5 0.5,3.4 -0.2,0.1 -0.5,0.3 -0.9,0.5 z"
   id="path256" />
<path
   class="st23"
   d="m 80.099998,911.9 c -1.6,-1.2 -3.7,-1.3 -5.4,-2.7 -3.4,-2.7 -5.1,-6.1 -5.5,-9.7 -0.1,-1 0,-2 0,-3 0,-269.4 0,-538.8 0,-808.2 0,-1.9 0,-3.7 0.6,-5.7 1.2,-4.4 3.5,-7.3 7.8,-8.7 0.6,-0.2 1.1,-0.6 1.6,-1 C 444.8,72.9 810.5,72.9 1176.1,72.9 c 1.2,0.4 2.3,0.9 4.2,1.6 1.6,1.7 3.8,4.1 5.8,6.2 0,2.2 0,3.9 0,5.5 0,269.1 0,538.1 0,807.2 0,4 0.5,8.1 -1.6,12.4 -1.9,2.6 -5,4.5 -8.4,6 -126,0 -252,0 -378,0 -1.3,0 -2.7,0 -4,0 -1,0 -2,0 -3,0 -121.7,0 -243.3,0 -365,0 -115.4,0.1 -230.7,0.1 -346.000002,0.1 z M 1152,799.9 c -1.9,-11.5 -0.8,-23 -1,-34.6 -0.2,-11.8 0,-23.7 0,-35.5 0,-18 0,-36 0,-54 0,-18 0,-36 0,-54 0,-18 0,-36 0,-54 0,-18 0,-36 0,-54 0,-18 0,-36 0,-54 0,-18.2 0,-36.3 0,-54.5 0,-18 0,-36 0,-54 0,-18 0,-36 0,-54 0,-18 -0.2,-36 0,-54 0.2,-17.9 -1.1,-35.7 1,-53.6 0,-28.3 0,-56.7 0,-85 -0.3,-0.8 -0.7,-1.7 -1,-2.5 -1.2,-4.1 -3.7,-6.7 -8,-7.5 -1,-2.2 -2.9,-0.9 -4.3,-0.9 -42.6,-0.1 -85.1,-0.1 -127.7,-0.1 -253.3,0 -506.6,0 -760,0 -44.2,0 -88.5,0 -132.7,0 -1.5,0 -3,-0.1 -4.5,0 -0.3,0 -0.5,0.6 -0.8,1 -0.8,0 -1.7,0 -2.7,0 -2.1,2.4 -4.4,5 -6.2,7 0,260.7 0,520.6 0,780.9 1.4,1.5 2.8,3.5 4.7,5.1 1.5,1.3 3.5,1.9 5.3,2.9 21,0 42,0 63,0 302.7,0 605.3,0 908,0 7.6,0 15.3,0 22.9,0 10.6,0 21.2,0 31.8,0 0.8,0 2.1,0.7 2.3,-1 0.7,0 1.6,0.3 1.9,0 1.7,-1.5 4,-1.8 5.3,-4.2 1,-1.9 1.7,-3.9 2.8,-5.7 -0.1,-26.4 -0.1,-53.1 -0.1,-79.8 z"
   id="path258" />
<path
   class="st22"
   d="m 1176,73 c -365.6,0 -731.3,0 -1096.900002,0 0.3,-0.3 0.5,-0.9 0.8,-1 1.5,-0.1 3,0 4.5,0 C 446.5,72 808.6,72 1170.8,72 c 1.5,0 3,-0.1 4.5,0 0.2,0.1 0.4,0.7 0.7,1 z"
   id="path260" />
<path
   class="st22"
   d="m 798,911.9 c 126,0 252,0 378,0 -0.3,0.3 -0.5,0.9 -0.8,1 -1.5,0.1 -3,0 -4.5,0 -122.5,0 -244.9,0 -367.4,0 -1.5,0 -3,0.1 -4.5,0 -0.3,0 -0.5,-0.6 -0.8,-1 z"
   id="path262" />
<path
   class="st22"
   d="M 80.099998,911.9 C 195.4,911.9 310.8,911.9 426.1,911.9 c -0.3,0.3 -0.5,0.9 -0.8,1 -1.5,0.1 -3,0 -4.5,0 -111.8,0 -223.6,0 -335.400002,0 -1.5,0 -3,0.1 -4.5,0 -0.3,0 -0.6,-0.6 -0.8,-1 z"
   id="path264" />
<path
   class="st22"
   d="m 791,911.9 c 1,0 2,0 3,0 -1,1.4 -2,1.4 -3,0 z"
   id="path266" />
<path
   class="st23"
   d="m 1163.8,1105.9 c -0.6,2.2 -0.9,4.4 -1.9,6.3 -3,5.9 -8,9 -14.6,8.6 -3.7,-0.2 -6.8,-1.8 -9.6,-4.6 -3.4,-3.4 -4.9,-7.4 -4.7,-12 0.2,-5.7 5.6,-11.9 11.1,-13.3 5.6,-1.5 10.6,0 14.6,3.5 2.3,2.1 4.6,4.8 4.3,8.6 0,0.9 0.5,1.8 0.8,2.9 z m -2.9,-4.2 c -3.6,-7 -8.8,-10.3 -16.7,-8.4 -1.9,1.4 -4.8,1.8 -6.3,4.8 -1.4,2.7 -1.7,5.6 -2.4,7 0.3,4.6 1.5,7.5 3.9,10 2.6,2.7 5.9,2.6 8.5,3.7 4.1,-1.2 8.2,-1.7 10.7,-5 2.7,-3.7 2.7,-7.9 2.3,-12.1 z"
   id="path268" />
<path
   class="st24"
   d="m 1086.5,1120.9 c -8.5,-0.2 -15.2,-6.5 -15.3,-15.5 -0.1,-4.1 1.9,-7.9 4.8,-10.9 2.9,-3 6.9,-4.3 10.6,-4.3 3.8,0 8.1,1.3 10.9,4.7 2.6,3.2 4.6,6.8 4.5,11.1 -0.1,7.6 -7.2,14.9 -15.5,14.9 z m 12.5,-12.1 c 0,-2.1 0,-4.8 0,-6.9 -3.3,-7.8 -9,-10.3 -16.4,-8.9 -3,1.1 -4.9,3.5 -6.8,5.6 -1.1,1.2 -2,2.8 -1.8,4.7 0.2,2 0,4 0,6 1.4,4.4 4.6,7 9,8.4 2.7,0 5.7,0 8.6,0 3.9,-1.5 5.8,-4.7 7.4,-8.9 z"
   id="path270" />
<path
   class="st11"
   d="m 1009.9,1005.8 c -2.2,0 -4,0 -5.8,0 0,-1.2 0,-2.4 0,-3.5 0.5,-0.5 0.9,-0.9 1.4,-1.4 1,0 2,0 2.8,0 2.1,1.1 1.8,2.9 1.6,4.9 z"
   id="path272" />
<path
   class="st11"
   d="m 982.79999,1020.8 c -1.6,0 -3,0 -4.4,0 -0.5,-0.5 -1,-1 -1.7,-1.7 0.4,-1 0.9,-2.1 1.3,-3.1 1.8,0 3.3,0 4.8,0 0,1.5 0,2.9 0,4.8 z"
   id="path274" />
<path
   class="st11"
   d="m 1055.1,1020.8 c 0,-1.3 0,-2.4 0,-3.4 0.5,-0.5 1,-1 1.7,-1.7 1,0.4 2.1,0.9 3.2,1.3 0,1.5 0,2.6 0,3.8 -1.6,0 -3,0 -4.9,0 z"
   id="path276" />
<path
   class="st11"
   d="m 1087.9,1001.1 c 0,1.6 0,3 0,4.6 -1.4,0 -2.8,0 -4.6,0 -1.7,-1.2 -1.8,-1.8 -0.1,-4.6 1.5,0 3.1,0 4.7,0 z"
   id="path278" />
<path
   class="st9"
   d="m 1096.1,1002.8 c 0,-0.6 0,-1 0,-1.7 1.3,0 2.5,0 3.8,0 0,0.6 0,1 0,1.7 -1.3,0 -2.5,0 -3.8,0 z"
   id="path280" />
<path
   class="st11"
   d="m 984.99999,1001.2 c 0,1.6 0,2.9 0,4.5 -1.5,0.1 -3.1,0.2 -4.8,0.2 0,-1.6 0,-3.1 0,-4.8 1.5,0.1 3.1,0.1 4.8,0.1 z"
   id="path282" />
<path
   class="st9"
   d="m 991.19999,1016 c 1.6,0 3.1,0 4.4,0 1.9,2.5 1.9,2.5 0,4.8 -1.4,0 -2.9,0 -4.4,0 0,-1.5 0,-2.9 0,-4.8 z"
   id="path284" />
<path
   class="st9"
   d="m 1040.4,1005.9 c -1.7,-2.7 -1.7,-2.7 0,-4.9 1.4,0 2.8,0 4.2,0 0.5,1.1 0.9,2 1.4,3 -1.1,2.9 -3.5,1.7 -5.6,1.9 z"
   id="path286" />
<path
   class="st21"
   d="m 1085,890.9 c -302.7,0 -605.3,0 -908,0 -0.2,-1.7 -1.5,-1 -2.3,-1 -9.7,-0.1 -19.3,0 -29,0 -9.8,0 -19.6,0 -29.5,0 -0.8,0 -2.1,-0.7 -2.3,1 -1.8,-0.9 -3.8,-1.6 -5.3,-2.9 -1.8,-1.5 -3.3,-3.5 -4.7,-5.1 0,-260.4 0,-520.3 0,-780.9 1.8,-2.1 4.1,-4.6 6.2,-7 1.1,0 1.9,0 2.7,0 44.2,0 88.5,0 132.7,0 1.5,0 3,0.1 4.5,0 0.3,0 0.5,-0.6 0.8,-1 253.3,0 506.6,0 760,0 1,2.2 2.9,0.9 4.3,0.9 42.6,0.1 85.1,0.1 127.7,0.1 4.3,0.8 6.8,3.4 8,7.5 0.3,0.9 0.7,1.7 1,2.5 -1.9,0.6 -0.9,2.2 -0.9,3.3 -0.1,26.1 -0.1,52.3 0,78.4 0,1 0.1,2 0.2,2.9 0,0.2 0.5,0.2 0.8,0.4 -2,17.8 -0.7,35.7 -1,53.6 -0.2,18 0,36 0,54 0,18 0,36 0,54 0,18 0,36 0,54 0,18.2 0,36.3 0,54.5 0,18 0,36 0,54 0,18 0,36 0,54 0,18 0,36 0,54 0,18 0,36 0,54 0,18 0,36 0,54 0,11.8 -0.1,23.7 0,35.5 0.2,11.5 -0.9,23.1 1,34.6 -1.9,0.6 -0.9,2.2 -0.9,3.3 -0.1,23 -0.1,45.9 -0.1,68.9 0,2.2 -0.1,4.3 0,6.5 0,0.4 0.6,0.9 1,1.3 -1.1,1.8 -1.8,3.9 -2.8,5.7 -1.3,2.4 -3.6,2.7 -5.3,4.2 -0.4,0.3 -1.3,0 -1.9,0 -7.6,0 -15.3,0 -22.9,0 -10.6,0 -21.2,0 -31.8,0 -0.7,-0.1 -2,-0.8 -2.2,0.8 z m 27,-748.1 c -0.8,-1.5 -1.4,-2.6 -2,-3.7 -2,-3.8 -5.4,-5.9 -9.2,-7 -2,-0.6 -4.3,0 -6.5,-0.1 -2.2,-0.2 -4.4,-0.9 -6.6,-0.9 -8.2,-0.1 -16.3,0.1 -24.5,-0.1 -8,-0.2 -16,0.1 -24.1,-0.7 -9.4,-0.9 -19,-0.1 -28.5,-0.3 -9.4,-0.2 -18.70001,0 -28.10001,-0.7 -11.3,-0.9 -22.6,0 -34,-0.3 C 937.3,128.8 926.1,129.7 914.9,128.2 c -6.4,-0.8 -13,-0.2 -19.5,-0.2 -6.5,0 -13,0 -19.5,0 -6.5,0 -13,0 -19.5,0 -6.5,0 -13,-0.3 -19.5,0.1 -6.4,0.4 -12.7,-1.1 -19.1,-1.1 -78.7,0.1 -157.3,0.1 -236,0.1 -13.3,0 -26.7,0 -40,0 -13.2,0 -26.3,0 -39.5,0 -13.3,0 -26.7,-0.2 -40,0.1 -13.2,0.2 -26.4,-0.2 -39.6,0.7 -14.8,1.1 -29.6,0.1 -44.5,0.3 -14.7,0.2 -29.4,-0.5 -44.1,0.8 -10.7,0.9 -21.7,0 -32.5,0.2 -10.9,0.2 -21.7,-0.6 -32.6,0.8 -7.1,0.9 -14.3,0.2 -21.5,0.2 -7.3,0 -14.7,-0.1 -22,0 -7,0.2 -14.1,0.8 -21.1,0.9 -10.7,0.2 -21.3,-0.1 -32,0.1 -6,0.1 -12.1,0.6 -18.1,1 -0.5,0 -0.9,0.1 -1.4,0.3 -5.5,2 -9.9,8.3 -10.2,14.1 -0.4,8 0.2,16 -0.8,24.1 -1.2,9.6 0.2,19.3 -1,29.1 -1.3,10.3 0.1,20.7 -1,31.1 -1.3,12.4 0.5,25 -1,37.6 -0.9,7.2 -0.1,14.6 -0.2,22 -0.1,7.2 0.1,14.4 -0.8,21.6 -0.9,7.1 -0.2,14.3 -0.2,21.5 0,7.3 -0.3,14.7 0.1,22 0.3,7.1 -1.2,14 -1.1,21.1 0.1,13.5 0,27 0,40.5 0,13.5 0,27 0,40.5 0,13.5 0,27 0,40.5 0,13.7 0,27.3 0,41 0,13.5 -0.2,27 0.1,40.5 0.2,13.4 -0.6,26.7 0.8,40.1 0.9,9.6 0,19.3 0.2,29 0.2,9.7 -0.7,19.4 0.8,29.1 0.8,5.2 0.1,10.6 0.1,16 0,5.5 0.3,11 -0.1,16.5 -0.3,5.3 1,10.4 1.2,15.6 0.2,10.9 -0.4,21.7 0.7,32.6 1.2,11.3 -0.6,22.7 1.2,34.1 0.2,1.3 0,2.7 0,4 0.3,13.7 0.7,27.4 0.9,41.1 0,2 0.7,3.8 1.2,5.6 1.4,5.1 7.1,9.8 11.8,10 7,0.3 14,0.1 21.1,0.8 8.4,0.9 17,0.1 25.5,0.2 8.5,0.2 17,-0.1 25.6,0.7 9.7,0.9 19.6,0.1 29.5,0.3 9.9,0.2 19.7,-0.1 29.6,0.7 11.6,1 23.3,0.1 35,0.3 11.7,0.2 23.4,-1.1 35.1,0.9 16.3,0 32.7,-0.2 49,0.1 16.2,0.3 32.4,-0.3 48.6,0.7 18.1,1.1 36.3,0.2 54.5,0.2 14.3,0 28.7,0 43,0 14.3,0 28.7,0 43,0 14.3,0 28.7,0 43,0 14.3,0 28.7,0 43,0 14.3,0 28.7,0 43,0 14.3,0 28.7,0.2 43,-0.1 14.2,-0.2 28.4,0.5 42.6,-0.8 10.7,-1 21.6,-0.2 32.5,-0.2 11,0 22,0.2 33,0 10.7,-0.2 21.4,0.2 32.1,-0.7 11.6,-1 23.3,0 35,-0.3 11.49999,-0.2 22.99999,0.3 34.59999,-0.7 10.9,-1 22,-0.4 33.00001,-0.2 10.9,0.3 21.7,-0.8 32.6,-1 6.3,-0.1 12.7,-0.3 19,0 13.4,0.6 26.7,-1.8 39.5,-1 1.5,-0.9 2.6,-1.5 3.7,-2.1 3.8,-1.9 6.4,-5.3 7,-9.1 0.7,-4.6 0.6,-9.4 1.1,-14.1 0.9,-9 -0.2,-18 0.9,-27.1 1.3,-10.6 -0.2,-21.3 1,-32.1 1.2,-10.9 -0.1,-22 0.9,-33.1 1.3,-14.1 -0.4,-28.4 1.1,-42.6 0.8,-7.9 0,-16 0.2,-24 0.2,-7.9 -0.5,-15.7 0.8,-23.6 0.9,-5.2 0.2,-10.6 0.2,-16 0,-5.4 0,-10.7 0,-16 0,-5.3 0,-10.7 0,-16 0,-5.3 0.2,-10.7 -0.1,-16 -0.3,-5.3 1,-10.4 1,-15.6 0.1,-13.2 0,-26.3 0,-39.5 0,-13.2 0,-26.3 0,-39.5 0,-13.2 0.2,-26.3 0,-39.5 -0.2,-13 0.3,-26 -0.7,-39.1 -1,-12.4 0,-25 -0.3,-37.5 -0.3,-12.5 0.7,-25 -0.8,-37.6 -0.9,-8.2 -0.1,-16.6 -0.2,-25 -0.1,-8.2 0.2,-16.4 -0.8,-24.6 -0.8,-6.4 -0.1,-13 -0.2,-19.5 -0.1,-6.5 -0.1,-13 -0.8,-19.6 -1.1,-11.8 0.3,-23.7 -1.1,-35.6 -1.1,-9.6 0.3,-19.3 -0.9,-29.1 -1.2,-9.8 0.5,-19.7 -1.1,-29.6 -0.2,-2.4 0.1,-4.9 0.1,-7.4 z"
   id="path288" />
<path
   class="st22"
   d="m 251,94 c -0.3,0.3 -0.5,0.9 -0.8,1 -1.5,0.1 -3,0 -4.5,0 -44.2,0 -88.5,0 -132.7,0 0.3,-0.3 0.5,-0.9 0.8,-1 1.5,-0.1 3,0 4.5,0 44.3,0 88.5,0 132.7,0 z"
   id="path290" />
<path
   class="st22"
   d="m 1143,95 c -42.6,0 -85.1,0 -127.7,-0.1 -1.4,0 -3.3,1.2 -4.3,-0.9 42.6,0 85.1,0 127.7,0.1 1.4,0 3.3,-1.3 4.3,0.9 z"
   id="path292" />
<path
   class="st2"
   d="m 1152,190 c -0.3,-0.1 -0.8,-0.2 -0.8,-0.4 -0.1,-1 -0.2,-2 -0.2,-2.9 0,-26.1 0,-52.3 0,-78.4 0,-1.1 -1,-2.7 0.9,-3.3 0.1,28.3 0.1,56.7 0.1,85 z"
   id="path294" />
<path
   class="st2"
   d="m 1152,879.9 c -0.3,-0.4 -0.9,-0.8 -1,-1.3 -0.1,-2.2 0,-4.3 0,-6.5 0,-23 0,-45.9 0.1,-68.9 0,-1.1 -1,-2.7 0.9,-3.3 0,26.7 0,53.4 0,80 z"
   id="path296" />
<path
   class="st2"
   d="m 114.1,890.9 c 0.2,-1.7 1.5,-1 2.3,-1 9.8,-0.1 19.6,0 29.5,0 9.7,0 19.3,0 29,0 0.8,0 2.1,-0.7 2.3,1 -21.1,0 -42.1,0 -63.1,0 z"
   id="path298" />
<path
   class="st2"
   d="m 1085,890.9 c 0.2,-1.7 1.5,-1 2.3,-1 10.6,0 21.2,0 31.8,0 7.6,0 15.3,0 22.9,0 -0.2,1.7 -1.5,1 -2.3,1 -10.6,0 -21.2,0 -31.8,0 -7.6,0 -15.3,0 -22.9,0 z"
   id="path300" />
<path
   class="st8"
   d="m 1160.9,1101.7 c 0.4,4.2 0.4,8.5 -2.3,12 -2.5,3.4 -6.7,3.9 -10.7,5 -2.6,-1.1 -5.9,-1 -8.5,-3.7 -2.5,-2.6 -3.6,-5.5 -3.9,-10 0.6,-1.4 1,-4.3 2.4,-7 1.5,-2.9 4.4,-3.3 6.3,-4.8 7.9,-1.9 13.1,1.5 16.7,8.5 z m -14.9,-5.8 c -5.4,1.2 -6.2,4.9 -8.2,8.2 0.4,1.8 0.8,4 1.3,6.4 0.7,0.7 1.5,1.5 2.3,2.3 4.4,4.3 9.6,4.2 14.6,-0.3 1.5,-1.3 2.2,-3.1 2.1,-5.1 -0.1,-2 0,-4 0,-5.5 -2.1,-2.1 -3.9,-3.9 -5.9,-5.9 -2.4,-0.1 -4.9,-0.1 -6.2,-0.1 z"
   id="path302" />
<path
   class="st11"
   d="m 1099,1108.8 c -1.6,4.1 -3.5,7.3 -7.3,9 -3,0 -5.9,0 -8.6,0 -4.4,-1.4 -7.6,-4 -9,-8.4 0,-2 0.1,-4 0,-6 -0.2,-1.9 0.7,-3.5 1.8,-4.7 1.9,-2.1 3.8,-4.5 6.8,-5.6 7.4,-1.4 13.1,1.1 16.4,8.9 -0.1,2.1 -0.1,4.8 -0.1,6.8 z m -16.5,-12.9 c -3.9,3.4 -3.9,3.4 -6.4,10.2 0.7,1.8 1.3,3.3 1.9,4.9 0.8,2 2.6,2.7 4.3,3.6 1.5,0.8 3,1.6 5,1.3 4.4,-0.5 7.9,-3.3 9.3,-9.3 1.1,-5 -2.2,-8.4 -6.4,-10.8 -2.4,0.1 -4.9,0.1 -7.7,0.1 z"
   id="path304" />
<path
   class="st24"
   d="m 1112,142.8 c 0,2.4 -0.3,5 0.1,7.4 1.7,9.8 -0.1,19.8 1.1,29.6 1.2,9.7 -0.2,19.5 0.9,29.1 1.4,11.9 0,23.8 1.1,35.6 0.6,6.6 0.6,13.1 0.8,19.6 0.1,6.5 -0.6,13.1 0.2,19.5 1,8.2 0.7,16.4 0.8,24.6 0.1,8.3 -0.7,16.8 0.2,25 1.4,12.6 0.5,25.1 0.8,37.6 0.3,12.5 -0.7,25.1 0.3,37.5 1,13.1 0.5,26.1 0.7,39.1 0.2,13.2 0,26.3 0,39.5 0,13.2 0,26.3 0,39.5 0,13.2 0.1,26.3 0,39.5 0,5.2 -1.3,10.3 -1,15.6 0.3,5.3 0.1,10.7 0.1,16 0,5.3 0,10.7 0,16 0,5.3 0,10.7 0,16 0,5.3 0.7,10.8 -0.2,16 -1.3,7.9 -0.6,15.7 -0.8,23.6 -0.2,8 0.6,16.1 -0.2,24 -1.5,14.2 0.3,28.5 -1.1,42.6 -1,11.1 0.3,22.1 -0.9,33.1 -1.2,10.7 0.2,21.5 -1,32.1 -1.1,9.1 -0.1,18.1 -0.9,27.1 -0.4,4.7 -0.4,9.5 -1.1,14.1 -0.6,3.8 -3.2,7.2 -7,9.1 -1.1,0.6 -2.2,1.2 -3.7,2.1 -12.9,-0.8 -26.2,1.6 -39.5,1 -6.3,-0.3 -12.7,-0.1 -19,0 -10.9,0.2 -21.7,1.3 -32.6,1 -11.00001,-0.3 -22.10001,-0.9 -33.00001,0.2 -11.6,1.1 -23.1,0.5 -34.59999,0.7 -11.7,0.2 -23.4,-0.7 -35,0.3 -10.7,0.9 -21.4,0.5 -32.1,0.7 -11,0.2 -22,0 -33,0 -10.8,0 -21.7,-0.8 -32.5,0.2 -14.2,1.3 -28.4,0.5 -42.6,0.8 -14.3,0.2 -28.7,0.1 -43,0.1 -14.3,0 -28.7,0 -43,0 -14.3,0 -28.7,0 -43,0 -14.3,0 -28.7,0 -43,0 -14.3,0 -28.7,0 -43,0 -14.3,0 -28.7,0 -43,0 -18.2,0 -36.4,0.8 -54.5,-0.2 -16.2,-1 -32.4,-0.4 -48.6,-0.7 -16.3,-0.3 -32.7,-0.1 -49,-0.1 -11.6,-2.1 -23.4,-0.7 -35.1,-0.9 -11.7,-0.2 -23.4,0.7 -35,-0.3 -9.9,-0.9 -19.7,-0.5 -29.6,-0.7 -9.8,-0.2 -19.7,0.7 -29.5,-0.3 -8.6,-0.8 -17.1,-0.6 -25.6,-0.7 -8.5,-0.2 -17.1,0.6 -25.5,-0.2 -7.1,-0.7 -14.1,-0.5 -21.1,-0.8 -4.7,-0.2 -10.4,-5 -11.8,-10 -0.5,-1.8 -1.2,-3.5 -1.2,-5.6 -0.2,-13.7 -0.6,-27.4 -0.9,-41.1 0,-1.3 0.2,-2.7 0,-4 -1.7,-11.3 0,-22.8 -1.2,-34.1 -1.2,-10.9 -0.5,-21.7 -0.7,-32.6 -0.1,-5.2 -1.5,-10.3 -1.2,-15.6 0.4,-5.5 0.1,-11 0.1,-16.5 0,-5.3 0.7,-10.8 -0.1,-16 -1.5,-9.7 -0.6,-19.4 -0.8,-29.1 -0.2,-9.7 0.7,-19.4 -0.2,-29 -1.3,-13.4 -0.5,-26.7 -0.8,-40.1 -0.2,-13.5 -0.1,-27 -0.1,-40.5 0,-13.7 0,-27.3 0,-41 0,-13.5 0,-27 0,-40.5 0,-13.5 0,-27 0,-40.5 0,-13.5 0.1,-27 0,-40.5 -0.1,-7.1 1.4,-14 1.1,-21.1 -0.4,-7.3 -0.1,-14.7 -0.1,-22 0,-7.2 -0.7,-14.4 0.2,-21.5 0.9,-7.2 0.7,-14.4 0.8,-21.6 0.1,-7.3 -0.7,-14.7 0.2,-22 1.5,-12.5 -0.3,-25.1 1,-37.6 1.1,-10.4 -0.3,-20.8 1,-31.1 1.2,-9.7 -0.2,-19.5 1,-29.1 1,-8.1 0.4,-16.1 0.8,-24.1 0.3,-5.8 4.7,-12.1 10.2,-14.1 0.4,-0.2 0.9,-0.3 1.4,-0.3 6,-0.3 12.1,-0.9 18.1,-1 10.7,-0.2 21.3,0.1 32,-0.1 7,-0.1 14.1,-0.8 21.1,-0.9 7.3,-0.2 14.7,0 22,0 7.2,0 14.4,0.7 21.5,-0.2 10.9,-1.4 21.7,-0.5 32.6,-0.8 10.8,-0.2 21.7,0.7 32.5,-0.2 14.7,-1.3 29.4,-0.5 44.1,-0.8 14.8,-0.2 29.7,0.8 44.5,-0.3 13.2,-0.9 26.4,-0.5 39.6,-0.7 13.3,-0.2 26.7,-0.1 40,-0.1 13.2,0 26.3,0 39.5,0 13.3,0 26.7,0 40,0 78.7,0 157.3,0 236,-0.1 6.4,0 12.6,1.5 19.1,1.1 6.5,-0.4 13,-0.1 19.5,-0.1 6.5,0 13,0 19.5,0 6.5,0 13,0 19.5,0 6.5,0 13.1,-0.7 19.5,0.2 11.2,1.5 22.4,0.6 33.59999,0.8 11.3,0.2 22.7,-0.7 34,0.3 9.4,0.8 18.70001,0.6 28.10001,0.7 9.5,0.2 19.1,-0.7 28.5,0.3 8.1,0.8 16.1,0.6 24.1,0.7 8.2,0.2 16.3,0 24.5,0.1 2.2,0 4.4,0.7 6.6,0.9 2.2,0.2 4.5,-0.5 6.5,0.1 3.8,1.1 7.2,3.2 9.2,7 0.4,1.1 1,2.2 1.8,3.7 z m -67,697.1 c 2.2,0 4.3,0.1 6.5,0 2,-0.2 4,-0.8 6.1,-0.9 2.2,-0.2 4.4,-0.5 6.6,-0.9 6,-1 17.6,-7.3 21.4,-11.2 2.5,-2.6 4.8,-5.3 7.1,-8.1 2.6,-3.2 3.7,-7.1 5.3,-10.8 0.8,-1.7 1,-3.7 1,-5.6 0.1,-2.1 0.8,-4.1 0.9,-6.1 0.4,-5 0.1,-10 1,-15.1 0.8,-4.3 0.1,-8.7 0.9,-13.1 1,-5 0,-10.3 1,-15.6 0.9,-4.7 0.1,-9.7 1,-14.6 1,-6.1 -0.1,-12.3 1,-18.6 1,-5.7 0,-11.7 1,-17.6 1.1,-6.4 0,-13 1,-19.6 1.1,-7.1 0,-14.3 1,-21.6 1.2,-8.7 -0.1,-17.7 1,-26.6 1.2,-9.8 -0.6,-19.7 1,-29.6 0.8,-5 0.1,-10.3 0.1,-15.5 0,-5 -0.1,-10 0,-15 0.2,-5 0.8,-10.1 0.9,-15.1 0.2,-9.2 0,-18.3 0,-27.5 0,-10 0,-20 0,-30 0,-10 0,-20 0,-30 0,-10 0.2,-20 0,-30 -0.2,-9.9 0.5,-19.7 -0.8,-29.6 -0.9,-6.7 -0.1,-13.6 -0.2,-20.5 -0.1,-6.7 0.1,-13.4 -0.8,-20.1 -1.2,-9.8 0.4,-19.7 -1,-29.6 -1.1,-8.2 0.2,-16.7 -1.1,-25.1 -1,-6.8 0.3,-13.7 -1,-20.6 -1.1,-6.1 0,-12.3 -1,-18.6 -1,-6.1 0.2,-12.3 -1,-18.6 -1,-5.2 0,-10.7 -1,-16.1 -0.9,-4.9 0,-10 -1,-15.1 -0.9,-4.7 0.6,-9.8 -1.1,-14.6 0.8,-7.4 -1.5,-14.7 -1,-22.1 0.2,-3.7 -1.7,-7.3 -1,-11.1 0,-0.3 -0.2,-0.6 -0.3,-0.8 -1.5,-4.2 -3,-8.4 -5.6,-12.2 -4.6,-6.8 -10.3,-12.1 -17.5,-16 -2.2,-1.2 -4.5,-2 -6.8,-2.8 -2.2,-0.8 -4.4,-1.9 -6.7,-1.9 -2.7,0 -5,-1 -7.6,-1.1 -5.9,-0.3 -11.7,0.3 -17.6,-0.8 -5.6,-1 -11.3,0 -17.1,-1 -5.9,-1 -12,-0.1 -18.1,-1 -6.70001,-1 -13.70001,0.1 -20.60001,-1.1 -6.3,-1 -12.7,0.1 -19.1,-0.9 -7.2,-1.1 -14.7,0 -22.09999,-1.1 -7.3,-1 -14.7,0.1 -22.1,-1 -8.1,-1.2 -16.3,0 -24.6,-1 -9.3,-1.2 -18.7,0.1 -28.1,-1 -10.3,-1.2 -20.7,0.1 -31.1,-1 -11.9,-1.3 -24,0.4 -36.1,-1 -7.6,-0.9 -15.3,-0.1 -23,-0.2 -7.7,-0.1 -15.5,0.8 -23.1,-1 -13,0 -26,0.2 -39,0 -12.9,-0.2 -25.7,0.4 -38.6,-0.8 -10.7,-1 -21.6,-0.2 -32.5,-0.2 -10.9,0 -21.7,-0.2 -32.5,0.1 -10.7,0.2 -21.4,-1.1 -32.1,0.9 -27.7,0.4 -55.4,-0.9 -83.1,0.9 -6.8,0.4 -13.7,-0.1 -20.5,0.1 -6.7,0.2 -13.5,-0.9 -20.1,1 -13,0.4 -26.1,-0.7 -39.1,0.9 -4.8,0.6 -9.7,0 -14.5,0.1 -4.7,0.1 -9.4,0.1 -14.1,0.8 -5.5,0.8 -11.3,0.1 -17,0.2 -5.7,0.2 -11.4,0.6 -17.1,1 -5.9,0.4 -11.7,0 -17.6,0.8 -8.2,1.1 -16.7,-0.1 -25.1,1.1 -6.6,0.9 -13.4,-0.6 -20.1,1 -3.6,0.8 -7.7,0.4 -11.5,0.1 -4,-0.3 -7.7,1.1 -11.6,1.1 -5.2,0.1 -10.4,-0.1 -15.6,0.7 -6.7,1.1 -13.7,-0.1 -20.6,1.1 -5.1,0.9 -10.4,-0.4 -15.6,1 -3.1,0.8 -6.6,0 -10,0.2 -3.2,0.2 -6.4,0.8 -9.6,0.9 -3.9,0.1 -7.4,1.4 -10.9,2.8 -9.4,3.7 -15.6,11.1 -21.6,18.7 -1.9,2.4 -5.8,12.6 -6.1,15.4 -0.2,2.3 0.1,4.7 -0.1,7 -0.2,2.4 -0.7,4.7 -0.9,7.1 -0.4,4.2 0.4,8.4 -0.9,12.6 -0.8,2.4 -0.4,5.3 -0.1,7.9 0.3,2.7 -1.1,5 -1.1,7.6 -0.1,4.5 0.1,9 -0.7,13.6 -1,5.6 -0.1,11.3 -1.1,17.1 -0.9,5.3 -0.1,10.7 -0.9,16.1 -1.1,6.6 0,13.4 -1.1,20.1 -1,6.3 0.1,12.7 -0.9,19.1 -1.2,7.4 0,15 -1,22.6 -1.2,8.9 0.1,18 -1,27.1 -1.3,10.9 0.1,22 -1,33.1 -1,10.2 -0.4,20.6 -0.2,31 0.2,10.2 -0.7,20.4 -1,30.6 -0.2,9.2 0,18.3 0,27.5 0,9 -0.2,18 0,27 0.2,9 -0.2,18 0.7,27.1 1,9.1 0.1,18.3 0.3,27.5 0.2,9.2 -0.5,18.4 0.8,27.6 0.8,5.7 0.1,11.6 0.2,17.5 0.1,5.7 0.1,11.4 0.8,17.1 1.1,8.8 -0.3,17.7 1,26.6 1.2,7.7 -0.2,15.7 1,23.6 1,6.8 -0.2,13.7 1,20.6 1,6.2 -0.2,12.7 1,19.1 1,5.4 -0.1,11 1,16.6 1,5.2 0,10.7 1,16.1 1,5.2 -0.1,10.7 1,16.1 0.9,4.4 0.1,9 0.9,13.6 0.9,4.9 0.1,10 1.1,15.1 0.6,3.1 0.4,6.4 0.9,9.6 0.8,5.6 3.6,10.2 6.2,15 2.1,3.8 5.6,6.4 8.5,9.5 4.2,4.4 9.7,6.7 15.2,9.1 6,2.6 12.5,1.8 18.8,2.9 4.9,0.9 10,-0.4 15.1,0.9 3.1,0.8 6.7,0.4 10,0.1 3.5,-0.3 6.7,1 10.1,1.1 5.4,0.2 10.7,-0.1 16.1,0.7 7.1,1 14.4,0 21.6,1.1 6.1,0.9 12.3,0 18.6,0.9 7.7,1.1 15.7,0 23.6,1.1 7.4,1 15,-0.1 22.6,0.9 8.6,1.2 17.3,-0.1 26.1,1.1 8.9,1.2 18,-0.1 27.1,0.9 11.1,1.3 22.4,-0.3 33.6,1.1 6.1,0.8 12.3,0 18.5,0.2 6,0.1 12.1,-0.8 18.1,1 17.2,0.4 34.4,-1 51.6,1 57.7,0 115.3,0 173,0 9.5,0 19,0.2 28.5,0 9.4,-0.2 18.8,0.9 28.1,-0.9 3.2,-0.6 6.6,-0.1 10,-0.1 3.4,0 6.7,0 10,0 3.2,0 6.3,0 9.5,0 3.3,0 6.7,-0.3 10,0.1 3.3,0.4 6.4,-1 9.6,-1.1 12.4,-0.4 24.7,0.6 37.1,-0.8 10.6,-1.2 21.4,0.4 32.1,-1 9.1,-1.2 18.4,0.3 27.6,-1 8.1,-1.1 16.4,0.2 24.6,-1 7.6,-1.1 15.4,0.5 23.1,-1 3.79999,-0.8 7.99999,-0.3 11.99999,-0.1 3.9,0.2 7.7,-0.6 11.6,-1 5.7,-0.6 11.3,0 17.1,-0.8 7.1,-1.1 14.4,0 21.60001,-1.1 5.8,-0.9 11.7,0.5 17.6,-1 2.5,-0.7 5.3,0 8,-0.1 2.7,-0.1 5.4,0.3 8.2,-0.8 2.5,-1.1 5.4,-0.4 8.1,-0.4 z"
   id="path306" />
<path
   class="st20"
   d="m 1146,1095.9 c 1.4,0 3.8,0 6.1,0 2,2 3.8,3.8 5.9,5.9 0,1.6 -0.1,3.5 0,5.5 0.1,2 -0.6,3.8 -2.1,5.1 -5,4.5 -10.2,4.7 -14.6,0.3 -0.8,-0.8 -1.6,-1.6 -2.3,-2.3 -0.5,-2.4 -0.9,-4.5 -1.3,-6.4 2.1,-3.2 2.8,-6.9 8.3,-8.1 z m -2.7,7.2 c -0.8,2.6 -0.2,4.7 1.2,6.9 1.8,0.4 3.8,0.8 5.7,1.1 1.3,-1.4 2.5,-2.6 3.7,-3.9 0.4,-3.4 -1.1,-5.9 -5.1,-7.3 -0.4,0 -1.4,0 -2.4,0 -1,1.2 -2.2,2.4 -3.1,3.2 z"
   id="path308" />
<path
   class="st17"
   d="m 1082.5,1095.9 c 2.7,0 5.2,0 7.6,0 4.2,2.4 7.5,5.8 6.4,10.8 -1.3,6 -4.8,8.7 -9.3,9.3 -1.9,0.2 -3.5,-0.6 -5,-1.3 -1.6,-0.8 -3.5,-1.6 -4.3,-3.6 -0.6,-1.6 -1.2,-3.2 -1.9,-4.9 2.6,-6.9 2.6,-6.9 6.5,-10.3 z m 5.9,15 c 1.2,-1.2 2.4,-2.4 3.6,-3.6 0,-1.1 0,-2.5 0,-4.2 -1.6,-1.1 -3.4,-2.3 -5.4,-3.7 -2.1,1.3 -3.9,2.5 -5.6,3.6 0,1.7 0,3 0,4.3 1.2,1.2 2.4,2.4 3.6,3.6 1.2,0 2.5,0 3.8,0 z"
   id="path310" />
<path
   class="st25"
   d="m 1045,839.9 c -2.7,0 -5.6,-0.7 -7.9,0.2 -2.8,1 -5.4,0.6 -8.2,0.8 -2.7,0.1 -5.5,-0.5 -8,0.1 -5.9,1.5 -11.8,0.1 -17.6,1 -7.20001,1.1 -14.50001,0 -21.60001,1.1 -5.8,0.9 -11.4,0.2 -17.1,0.8 -3.9,0.4 -7.7,1.2 -11.6,1 -4,-0.2 -8.1,-0.7 -11.99999,0.1 -7.7,1.5 -15.5,-0.1 -23.1,1 -8.2,1.2 -16.5,-0.1 -24.6,1 -9.2,1.3 -18.5,-0.2 -27.6,1 -10.7,1.4 -21.5,-0.2 -32.1,1 -12.4,1.4 -24.7,0.4 -37.1,0.8 -3.2,0.1 -6.2,1.5 -9.6,1.1 -3.3,-0.4 -6.7,-0.1 -10,-0.1 -3.2,0 -6.3,0 -9.5,0 -3.3,0 -6.7,0 -10,0 -3.3,0 -6.8,-0.5 -10,0.1 -9.4,1.7 -18.7,0.7 -28.1,0.9 -9.5,0.2 -19,0 -28.5,0 -57.7,0 -115.3,0 -173,0 -17.2,-2 -34.4,-0.6 -51.6,-1 -6,-1.7 -12,-0.8 -18.1,-1 -6.2,-0.1 -12.4,0.6 -18.5,-0.2 -11.2,-1.4 -22.5,0.2 -33.6,-1.1 -9.1,-1 -18.2,0.2 -27.1,-0.9 -8.7,-1.1 -17.5,0.1 -26.1,-1.1 -7.6,-1.1 -15.2,0.1 -22.6,-0.9 -7.9,-1.1 -15.8,0 -23.6,-1.1 -6.3,-0.9 -12.5,0 -18.6,-0.9 -7.2,-1.1 -14.5,-0.1 -21.6,-1.1 -5.4,-0.8 -10.8,-0.5 -16.1,-0.7 -3.4,-0.1 -6.6,-1.5 -10.1,-1.1 -3.3,0.3 -6.8,0.7 -10,-0.1 -5.1,-1.3 -10.2,-0.1 -15.1,-0.9 -6.2,-1.1 -12.7,-0.3 -18.8,-2.9 -5.5,-2.4 -11,-4.7 -15.2,-9.1 -2.9,-3.1 -6.4,-5.7 -8.5,-9.5 -2.6,-4.8 -5.3,-9.4 -6.2,-15 -0.5,-3.2 -0.3,-6.5 -0.9,-9.6 -1,-5 -0.2,-10.2 -1.1,-15.1 -0.9,-4.6 0,-9.2 -0.9,-13.6 -1.2,-5.4 0,-10.9 -1,-16.1 -1,-5.4 0,-10.9 -1,-16.1 -1.1,-5.6 0,-11.2 -1,-16.6 -1.2,-6.4 0,-12.8 -1,-19.1 -1.2,-6.9 0.1,-13.8 -1,-20.6 -1.2,-7.9 0.1,-15.8 -1,-23.6 -1.3,-8.9 0.1,-17.8 -1,-26.6 -0.7,-5.7 -0.7,-11.4 -0.8,-17.1 -0.1,-5.8 0.6,-11.8 -0.2,-17.5 -1.3,-9.2 -0.6,-18.4 -0.8,-27.6 -0.2,-9.2 0.7,-18.4 -0.3,-27.5 -1,-9.1 -0.6,-18.1 -0.7,-27.1 -0.2,-9 0,-18 0,-27 0,-9.2 -0.2,-18.3 0,-27.5 0.3,-10.2 1.2,-20.4 1,-30.6 -0.2,-10.3 -0.9,-20.7 0.2,-31 1.1,-11.1 -0.3,-22.2 1,-33.1 1.1,-9.1 -0.2,-18.2 1,-27.1 1,-7.6 -0.2,-15.2 1,-22.6 1,-6.4 -0.1,-12.8 0.9,-19.1 1.1,-6.7 0,-13.5 1.1,-20.1 0.9,-5.4 0,-10.8 0.9,-16.1 1,-5.7 0.1,-11.5 1.1,-17.1 0.8,-4.6 0.6,-9.1 0.7,-13.6 0.1,-2.6 1.5,-4.9 1.1,-7.6 -0.3,-2.6 -0.7,-5.5 0.1,-7.9 1.3,-4.2 0.5,-8.4 0.9,-12.6 0.2,-2.4 0.8,-4.7 0.9,-7.1 0.2,-2.3 -0.2,-4.7 0.1,-7 0.3,-2.8 4.2,-13 6.1,-15.4 6,-7.6 12.2,-15 21.6,-18.7 3.5,-1.4 7,-2.6 10.9,-2.8 3.2,-0.1 6.4,-0.8 9.6,-0.9 3.3,-0.2 6.8,0.6 10,-0.2 5.2,-1.4 10.5,-0.1 15.6,-1 6.9,-1.2 13.8,0 20.6,-1.1 5.3,-0.8 10.4,-0.6 15.6,-0.7 3.9,-0.1 7.6,-1.5 11.6,-1.1 3.8,0.3 7.8,0.7 11.5,-0.1 6.7,-1.5 13.5,0 20.1,-1 8.4,-1.2 16.8,0 25.1,-1.1 5.9,-0.8 11.8,-0.4 17.6,-0.8 5.7,-0.4 11.4,-0.8 17.1,-1 5.7,-0.2 11.4,0.6 17,-0.2 4.7,-0.7 9.4,-0.7 14.1,-0.8 4.8,-0.1 9.7,0.5 14.5,-0.1 13,-1.6 26.1,-0.5 39.1,-0.9 6.6,-1.8 13.4,-0.8 20.1,-1 6.8,-0.2 13.7,0.3 20.5,-0.1 27.7,-1.8 55.4,-0.5 83.1,-0.9 10.6,-2.1 21.4,-0.7 32.1,-0.9 10.8,-0.2 21.7,-0.1 32.5,-0.1 10.8,0 21.7,-0.8 32.5,0.2 12.9,1.2 25.7,0.5 38.6,0.8 13,0.2 26,0 39,0 7.6,1.8 15.4,0.8 23.1,1 7.7,0.1 15.4,-0.7 23,0.2 12.1,1.5 24.1,-0.3 36.1,1 10.4,1.1 20.8,-0.3 31.1,1 9.4,1.1 18.8,-0.2 28.1,1 8.2,1.1 16.5,-0.2 24.6,1 7.4,1.1 14.8,-0.1 22.1,1 7.39999,1.1 14.79999,-0.1 22.09999,1.1 6.4,1 12.8,-0.1 19.1,0.9 6.9,1.1 13.8,0 20.60001,1.1 6.1,0.9 12.2,0 18.1,1 5.7,1 11.5,0 17.1,1 5.9,1.1 11.8,0.5 17.6,0.8 2.6,0.1 4.9,1.2 7.6,1.1 2.2,0 4.5,1.1 6.7,1.9 2.3,0.9 4.6,1.6 6.8,2.8 7.2,4 12.9,9.2 17.5,16 2.6,3.8 4.1,8 5.6,12.2 0.1,0.3 0.4,0.6 0.3,0.8 -0.7,3.8 1.2,7.4 1,11.1 -0.4,7.4 1.8,14.7 1,22.1 1.8,4.8 0.2,9.8 1.1,14.6 1,5.1 0.1,10.2 1,15.1 1,5.4 0,10.9 1,16.1 1.2,6.2 -0.1,12.5 1,18.6 1.1,6.2 0,12.5 1,18.6 1.2,6.9 -0.1,13.8 1,20.6 1.3,8.4 -0.1,16.8 1.1,25.1 1.4,9.9 -0.2,19.8 1,29.6 0.8,6.7 0.7,13.4 0.8,20.1 0.1,6.8 -0.7,13.8 0.2,20.5 1.3,9.9 0.6,19.7 0.8,29.6 0.2,10 0,20 0,30 0,10 0,20 0,30 0,10 0,20 0,30 0,9.2 0.1,18.3 0,27.5 -0.1,5 -0.8,10.1 -0.9,15.1 -0.2,5 0,10 0,15 0,5.2 0.7,10.4 -0.1,15.5 -1.6,9.9 0.2,19.8 -1,29.6 -1.1,8.9 0.2,17.8 -1,26.6 -1,7.3 0.1,14.5 -1,21.6 -1,6.6 0,13.2 -1,19.6 -1,5.9 0,11.8 -1,17.6 -1.1,6.2 0,12.5 -1,18.6 -0.8,4.9 0,9.9 -1,14.6 -1,5.2 -0.1,10.5 -1,15.6 -0.9,4.4 -0.1,8.8 -0.9,13.1 -0.9,5 -0.6,10.1 -1,15.1 -0.2,2 -0.9,4 -0.9,6.1 -0.1,1.9 -0.3,3.9 -1,5.6 -1.7,3.6 -2.7,7.6 -5.3,10.8 -2.3,2.8 -4.6,5.5 -7.1,8.1 -3.8,3.9 -15.3,10.3 -21.4,11.2 -2.2,0.4 -4.4,0.7 -6.6,0.9 -2,0.2 -4,0.8 -6.1,0.9 -2.4,0.4 -4.6,0.2 -6.7,0.2 z"
   id="path312" />
<path
   class="st23"
   d="m 1143.3,1103.1 c 0.9,-0.9 2.1,-2 3.2,-3.2 1,0 2,0 2.4,0 3.9,1.4 5.4,3.9 5.1,7.3 -1.2,1.3 -2.4,2.5 -3.7,3.9 -1.9,-0.4 -3.9,-0.8 -5.7,-1.1 -1.5,-2.1 -2.1,-4.2 -1.3,-6.9 z"
   id="path314" />
<path
   class="st3"
   d="m 1088.4,1110.9 c -1.3,0 -2.6,0 -3.7,0 -1.3,-1.3 -2.4,-2.4 -3.6,-3.6 0,-1.3 0,-2.6 0,-4.3 1.7,-1.1 3.5,-2.3 5.6,-3.6 2,1.4 3.8,2.6 5.4,3.7 0,1.7 0,3.1 0,4.2 -1.4,1.2 -2.5,2.4 -3.7,3.6 z"
   id="path316" />
<rect
   style="fill:#45463e;fill-opacity:1;stroke-width:1.24392"
   id="rect846"
   width="29.087872"
   height="68.993187"
   x="786.83582"
   y="976.96381" /><rect
   style="fill:#907f76;fill-opacity:1;stroke-width:1.04167"
   id="rect2180"
   width="3.9872365"
   height="72.750366"
   x="0.13769934"
   y="974.0481" /><rect
   style="fill:#907f76;fill-opacity:1;stroke-width:1.06397"
   id="rect2180-3"
   width="3.9872365"
   height="75.898964"
   x="1250.9589"
   y="974.12744" /><path
   class="st9"
   d="m 774.41681,1191.9363 c 0,0.3 0,0.7 0,1 2.5372,0 5.0365,0 7.5737,0 10.6031,0 21.2063,0 31.8094,0 122.05,0 244.09979,0 366.18759,0 10.6031,0 21.2063,0 31.8094,0 2.31,0 4.6579,0 7.1572,0 0.2651,-3.7 0.4923,-7.5 0.8331,-11.3 0.3029,-3.5 0.6437,-6.9 0.871,-10.5 0.2272,-3.4 0.6816,-6.7 0.6058,-10.2 -127.0863,0 -254.21061,0 -381.29689,0 -0.4923,0 -1.0225,0 -1.5148,0 -22.0773,0 -44.1924,0 -66.2697,0 0.038,3.3 0.5301,6.4 0.7573,9.7 0.1515,2.2 0,4.9 0.4545,6.5 0.568,2.1 -0.1515,4.7 0.6816,6.3 -0.1515,2.9 0.6059,5.5 0.3408,8.5 z"
   id="path42-7"
   style="fill:#ad9d91;stroke-width:0.615373" /><path
   class="st8"
   d="m 815.9579,1013.5848 c 1.5,0.053 0.8,0.6357 1,1.0595 3.1,-0.1589 5.8,-1.1125 9,-1.0595 0,-12.1315 0,-24.26293 0,-36.55333 -3.4,0 -6.7,0 -10,0 0,12.1844 0,24.36893 0,36.55333 z"
   id="path32-3"
   style="fill:#c6b9b0;stroke-width:0.727845" /></svg>
