<?xml version="1.0" encoding="UTF-8" standalone="no"?>
<!-- Generator: Adobe Illustrator 25.0.0, SVG Export Plug-In . SVG Version: 6.00 Build 0)  -->

<svg
   version="1.1"
   id="Layer_1"
   x="0px"
   y="0px"
   viewBox="0 0 384 366"
   xml:space="preserve"
   sodipodi:docname="CBMAvatar-Ninja.svg"
   width="384"
   height="366"
   inkscape:version="1.2.2 (b0a8486541, 2022-12-01)"
   xmlns:inkscape="http://www.inkscape.org/namespaces/inkscape"
   xmlns:sodipodi="http://sodipodi.sourceforge.net/DTD/sodipodi-0.dtd"
   xmlns="http://www.w3.org/2000/svg"
   xmlns:svg="http://www.w3.org/2000/svg"><defs
   id="defs178" /><sodipodi:namedview
   id="namedview176"
   pagecolor="#505050"
   bordercolor="#ffffff"
   borderopacity="1"
   inkscape:showpageshadow="0"
   inkscape:pageopacity="0"
   inkscape:pagecheckerboard="1"
   inkscape:deskcolor="#505050"
   showgrid="false"
   inkscape:zoom="1.9656508"
   inkscape:cx="-22.384444"
   inkscape:cy="87.502826"
   inkscape:window-width="1536"
   inkscape:window-height="923"
   inkscape:window-x="0"
   inkscape:window-y="0"
   inkscape:window-maximized="1"
   inkscape:current-layer="Layer_1" />

<g
   id="g340"
   transform="matrix(4,0,0,3.213345,-1304,-630.13696)"><path
     d="m 422,304 c 0,2 0,4 0,6 -8,0 -16,0 -24,0 0,-5.9 0,-11.9 0,-18.1 -4.3,0 -7.9,0 -11.8,0 -0.2,-2.1 -0.3,-3.8 -0.4,-5.5 -8.1,0 -15.8,0 -23.9,0 0,4 0,7.6 0,11.7 -4.1,0 -7.8,0 -11.9,0 0,4.3 0,8.1 0,11.9 -8,0 -16,0 -24,0 0,-2.1 0,-4 0,-6 3.9,0 7.8,0 12.1,0 0,-4.3 0,-7.9 0,-12 4.1,0 7.8,0 12,0 0,-6.3 0,-12 0,-18.2 4.3,0 8,0 11.6,0 0,-2.1 0,-3.7 0,-5.8 -4,0 -7.7,0 -11.4,0 -0.3,-2.2 -0.5,-4 -0.7,-5.6 -4,0 -7.6,0 -11.7,0 0,6 0,11.7 0,17.7 -4.3,0 -8.1,0 -11.9,0 0,-28 0,-56 0,-84 4,0 8,0 12,0 0,17.9 0,35.8 0,53.6 4.4,0 8.1,0 12.2,0 0,-4 0,-7.6 0,-11.7 4.1,0 7.8,0 12,0 0,-10.3 0,-20 0,-30 4.1,0 7.8,0 11.6,0 0.2,-2.1 0.3,-3.8 0.4,-5.5 8.1,0 15.8,0 23.4,0 0,4.1 0,7.8 0,11.8 -8,0 -15.6,0 -23.3,0 0,2.1 0,3.8 0,6 8,0 15.8,0 23.4,0 0,4.1 0,7.7 0,11.9 -4,0 -7.7,0 -11.4,0 0,2.2 0,4 0,6.2 4.1,0 7.8,0 11.5,0 0.2,2.1 0.3,3.8 0.4,5.9 4,0 7.7,0 11.8,0 0,6.3 0,12.1 0,17.9 -3.9,0 -7.9,0 -11.8,0 -0.3,2.3 -0.5,4 -0.7,6 -3.9,0 -7.5,0 -11.3,0 0,2.1 0,3.8 0,6 4,0 7.7,0 12,0 0,4.2 0,8 0,12 4.1,0 7.7,0 11.8,0 0,6.1 0,11.8 0,17.8 4.4,0 8.2,0 12,0 z"
     id="path171" /><path
     d="m 422,274 c -3.8,0 -7.6,0 -12.1,0 0,-4.2 0,-8.1 0,-12.1 4,0 8,0 12.1,0.1 0,4 0,8 0,12 z"
     id="path173" /></g>
</svg>
