<?xml version="1.0" encoding="UTF-8" standalone="no"?>
<!-- Generator: Adobe Illustrator 25.0.0, SVG Export Plug-In . SVG Version: 6.00 Build 0)  -->

<svg
   version="1.1"
   id="Layer_1"
   x="0px"
   y="0px"
   viewBox="0 0 112.2 167.99461"
   xml:space="preserve"
   sodipodi:docname="robot2.svg"
   width="112.2"
   height="167.99461"
   inkscape:version="1.2.2 (b0a8486541, 2022-12-01)"
   xmlns:inkscape="http://www.inkscape.org/namespaces/inkscape"
   xmlns:sodipodi="http://sodipodi.sourceforge.net/DTD/sodipodi-0.dtd"
   xmlns="http://www.w3.org/2000/svg"
   xmlns:svg="http://www.w3.org/2000/svg"><defs
   id="defs8604" /><sodipodi:namedview
   id="namedview8602"
   pagecolor="#505050"
   bordercolor="#ffffff"
   borderopacity="1"
   inkscape:showpageshadow="0"
   inkscape:pageopacity="0"
   inkscape:pagecheckerboard="1"
   inkscape:deskcolor="#505050"
   showgrid="false"
   inkscape:zoom="4.7677986"
   inkscape:cx="73.304271"
   inkscape:cy="49.918216"
   inkscape:window-width="1536"
   inkscape:window-height="923"
   inkscape:window-x="0"
   inkscape:window-y="0"
   inkscape:window-maximized="1"
   inkscape:current-layer="Layer_1" />
<style
   type="text/css"
   id="style8543">
	.st0{fill:#657CF5;}
	.st1{fill:#FEFB00;}
	.st2{fill:#FEFEFE;}
	.st3{fill:#AC3D2E;}
	.st4{fill:#2337AA;}
</style>
<path
   d="m 0.2,95.996289 c 0,5.300001 0,10.700001 0,16.000001 5.3,0 10.6,0 16,0 0,3 0,5.6 0,8.2 0,2.6 0.1,5.2 -0.1,7.8 -5.6,0 -10.8,0 -15.9,0 0,2.7 0,5.3 0,8 5.3,0 10.6,0 16.2,0 0,2.9 0,5.5 0,8 5.5,0 10.7,0 15.8,0 0,-2.6 0,-5.2 0,-8 3,0 5.6,0 8.2,0 2.6,0 5.2,-0.2 7.9,0.2 0,2.8 0,5.2 0,7.8 2.8,0 5.4,0 8.1,0 2.6,0 5.2,0.2 7.9,-0.2 0,-2.8 0,-5.2 0,-7.8 2.8,0 5.4,0 8.1,0 2.6,0 5.2,-0.2 7.7,0.1 0,2.9 0,5.4 0,7.8 5.3,0 10.6,0 16.2,0 0,-2.9 0,-5.5 0,-8 5.5,0 10.7,0 15.8,0 0,-5.3 0,-10.7 0,-16 -5.3,0 -10.6,0 -16.1,0 0.3,-2.9 -0.2,-5.5 0.3,-8 5.5,0 10.6,0 15.8,0 0,-2.7 0,-5.3 0,-8 -5.3,0 -10.6,0 -16.1,0 0.3,-2.9 -0.2,-5.500001 0.3,-8.000001 5.5,0 10.6,0 15.8,0 0,-2.7 0,-5.3 0,-8 -5.3,0 -10.6,0 -16.1,0 0.3,-2.9 -0.2,-5.5 0.3,-8 5.5,0 10.6,0 15.8,0 0,-2.7 0,-5.3 0,-8 -5.3,0 -10.7,0 -16,0 -5.2,0 -10.5,0 -16,0 0,-2.8 0,-5.4 0,-8 0,-2.7 0,-5.3 0,-8 -5.3,0 -10.5,0 -16,0 0,-5.5 0,-10.7 0,-16 -16,0 -32,0 -48,0 0,2.6 0,5.2 0,8.2 10.9,0 21.4,0 31.8,0 0,2.8 0,5.2 0,7.8 -2.8,0 -5.4,0 -8.1,0 -2.6,0 -5.2,-0.2 -7.8,0.1 0,2.9 0,5.4 0,7.8 0,2.6 0,5.2 0,8 -5.5,0 -10.8,0 -16,0 -5.3,0 -10.7,0 -16,0 0,2.7 0,5.3 0,8 5.3,0 10.6,0 16,0 0,3 0,5.6 0,8.2 0,2.6 0.1,5.2 -0.1,7.8 -5.4,0.2 -10.5,0.2 -15.7,0.2 z m 47.8,-8.1 c -5.1,0 -10.4,0 -15.6,0 0,-2.7 0,-5.2 0,-7.8 5.3,0 10.4,0 15.6,0 0,2.7 0,5.3 0.2,7.9 5.3,0 10.7,0 16.2,-0.1 0,-2.5 0,-5.1 0,-7.7 5.4,0 10.6,0 15.7,0 0,2.7 0,5.1 0,7.7 -5.4,0 -10.6,0 -15.9,0.1 0,2.6 0,5.2 0,8 -3,0 -5.6,0 -8.2,0 -2.6,0 -5.2,0.2 -7.8,-0.1 0,-2.9 0,-5.4 -0.2,-8 z m 32.1,39.900001 c -16.2,0 -32,0 -47.9,0 0,-7.8 0,-15.4 0,-23.1 0,-0.1 0.1,-0.3 0.2,-0.4 0.1,-0.1 0.2,-0.2 0.2,-0.2 15.9,0 31.7,0 47.6,0 -0.1,8 -0.1,15.8 -0.1,23.7 z M 64,64.096289 c 0,2.9 0,5.3 0,7.9 -2.8,0 -5.4,0 -8.1,0 -2.6,0 -5.2,0.2 -7.6,-0.1 0,-2.8 0,-5.3 0,-7.8 5.3,0 10.5,0 15.7,0 z"
   id="path8545" />
<path
   class="st0"
   d="m 16.2,39.996289 c 16,0 32,0 48,0 5.3,0 10.7,0 16,0 5.2,0 10.5,0 16,0 0,2.8 0,5.4 0,8 0,2.6 0,5.2 0,8 5.5,0 10.8,0 16,0 0,-13.3 0,-26.7 0,-40 -5.2,0 -10.5,0 -16,0 0,2.8 0,5.4 0,8 0,2.6 0,5.2 0,8 -5.5,0 -10.8,0 -16,0 -5.3,0 -10.7,0 -16,0 -10.6,0 -21.2,0 -32.2,0 0,-2.9 0,-5.5 0,-8 -5.5,0 -10.7,0 -15.8,0 -5.3,0 -10.7,0 -16,0 0,5.3 0,10.7 0,16 5.3,0 10.7,0 16,0 z"
   id="path8547" />







<path
   class="st0"
   d="m 0.2,95.996289 c 5.2,0 10.3,0 15.9,0 0.2,-2.6 0,-5.2 0.1,-7.8 0,-2.6 0,-5.3 0,-8.2 -5.4,0 -10.7,0 -16,0 0,5.3 0,10.7 0,16 z"
   id="path8563" />
<path
   class="st0"
   d="m 0.2,127.99629 c 5.2,0 10.3,0 15.9,0 0.2,-2.6 0,-5.2 0.1,-7.8 0,-2.6 0,-5.3 0,-8.2 -5.4,0 -10.7,0 -16,0 0,5.3 0,10.7 0,16 z"
   id="path8565" />
<path
   class="st0"
   d="m 112.2,79.996289 c -5.2,0 -10.3,0 -15.8,0 -0.5,2.5 0,5.1 -0.3,8 5.5,0 10.8,0 16.1,0 0,-2.7 0,-5.3 0,-8 z"
   id="path8567" />
<path
   class="st0"
   d="m 112.2,95.996289 c -5.2,0 -10.3,0 -15.8,0 -0.5,2.5 0,5.100001 -0.3,8.000001 5.5,0 10.8,0 16.1,0 0,-2.7 0,-5.300001 0,-8.000001 z"
   id="path8569" />
<path
   class="st0"
   d="m 112.2,111.99629 c -5.2,0 -10.3,0 -15.8,0 -0.5,2.5 0,5.1 -0.3,8 5.5,0 10.8,0 16.1,0 0,-2.7 0,-5.3 0,-8 z"
   id="path8571" />

<path
   class="st4"
   d="m 80.1,127.79629 c 0,-8 0,-15.7 0,-23.7 -15.9,0 -31.6,0 -47.6,0 0.1,0 -0.1,0.1 -0.2,0.2 -0.1,0.1 -0.2,0.3 -0.2,0.4 0,7.6 0,15.3 0,23.1 16,0 31.8,0 48,0 z"
   id="path8575" />
<path
   class="st0"
   d="m 49.2,159.99629 c 5.3,0 10.7,0 16,0 4.9,0 9.8,0 15,0 0,-5.5 0,-10.7 0,-16 0,-2.5 0,-5 0,-7.8 -2.5,-0.4 -5.2,-0.1 -7.7,-0.1 -2.6,0 -5.3,0 -8.1,0 0,2.6 0,5 0,7.8 -2.7,0.4 -5.3,0.1 -7.9,0.2 -2.6,0 -5.3,0 -8.1,0 0,-2.6 0,-5 0,-7.8 -2.7,-0.4 -5.3,-0.1 -7.9,-0.2 -2.6,0 -5.3,0 -8.2,0 0,2.8 0,5.4 0,8 0,5.3 0,10.5 0,16 5.7,-0.1 11.3,-0.1 16.9,-0.1 z"
   id="path8577" />
<path
   class="st4"
   d="m 80.2,55.996289 c 0,-2.7 0,-5.3 0,-8 0,-2.7 0,-5.3 0,-8 -5.3,0 -10.7,0 -16,0 0,5.3 0,10.5 0,16 5.5,0 10.7,0 16,0 z"
   id="path8579" />
<path
   class="st0"
   d="m 96.2,71.996289 c 0,-2.6 0,-5.2 0,-8 -5.5,0 -10.8,0 -16,0 0,2.6 0,5.2 0,8 5.5,0 10.8,0 16,0 z"
   id="path8581" />
<path
   class="st0"
   d="m 64,64.096289 c -5.3,0 -10.4,0 -15.7,0 0,2.5 0,5 0,7.8 2.4,0.3 5,0.1 7.6,0.1 2.6,0 5.3,0 8.1,0 0,-2.6 0,-5 0,-7.9 z"
   id="path8583" />
<path
   class="st0"
   d="m 32.2,63.996289 c -5.2,0 -10.5,0 -16,0 0,2.8 0,5.4 0,8 5.2,0 10.5,0 16,0 0,-2.8 0,-5.4 0,-8 z"
   id="path8585" />
<path
   class="st2"
   d="m 64.4,87.896289 c 5.1,0 10.4,0 15.7,0 0,-2.6 0,-5 0,-7.7 -5.2,0 -10.4,0 -15.7,0 0,2.6 0,5.2 0,7.7 z"
   id="path8587" />
<path
   class="st2"
   d="m 48,87.896289 c 0,-2.5 0,-5.1 0,-7.8 -5.2,0 -10.3,0 -15.6,0 0,2.5 0,5.1 0,7.8 5.3,0 10.5,0 15.6,0 z"
   id="path8589" />
<path
   class="st2"
   d="m 48.2,87.996289 c 0,2.5 0,5 0,7.8 2.5,0.4 5.2,0.1 7.8,0.1 2.6,0 5.3,0 8.2,0 0,-2.8 0,-5.4 0,-8 -5.3,0.1 -10.7,0.1 -16,0.1 z"
   id="path8591" />
<path
   d="m 48.2,15.996289 c -5.3,0 -10.7,0 -16,0 -5.2,0 -10.5,0 -16,0 0,2.8 0,5.4 0,8 5.2,0 10.3,0 15.8,0 0,2.5 0,5.1 0,8 11,0 21.6,0 32.2,0 0,-5.3 0,-10.7 0,-16 -5.3,0 -10.7,0 -16,0 z"
   id="path8593" />
<path
   class="st4"
   d="m 64.2,15.996289 c 0,5.3 0,10.7 0,16 5.3,0 10.7,0 16,0 0,-2.7 0,-5.3 0,-8 0,-2.6 0,-5.2 0,-8 -5.5,0 -10.8,0 -16,0 z"
   id="path8595" />
<path
   d="m 80.2,23.996289 c 0,2.7 0,5.3 0,8 5.2,0 10.5,0 16,0 0,-2.8 0,-5.4 0,-8 -5.3,0 -10.7,0 -16,0 z"
   id="path8597" />
<path
   d="m 80.2,39.996289 c 0,2.7 0,5.3 0,8 5.3,0 10.7,0 16,0 0,-2.6 0,-5.2 0,-8 -5.5,0 -10.8,0 -16,0 z"
   id="path8599" />
<path
   class="st0"
   d="m 65.136821,159.99462 c -5.2,0 -10.5,0 -16,0 0,2.8 0,5.4 0,8 5.2,0 10.5,0 16,0 0,-2.8 0,-5.4 0,-8 z"
   id="path8585-7"
   style="fill:#ac3d2e;fill-opacity:1" /><path
   class="st4"
   d="m 32.133061,0 c 0,5.3 0,10.7 0,16 5.3,0 10.7,0 16,0 0,-2.7 0,-5.3 0,-8.0000001 0,-2.5999999 0,-5.1999999 0,-7.9999999 -5.5,0 -10.8,0 -16,0 z"
   id="path8595-5"
   style="fill:#ac3d2e;fill-opacity:1" /></svg>
