<?xml version="1.0" encoding="UTF-8" standalone="no"?>
<!-- Created with Inkscape (http://www.inkscape.org/) -->

<svg
   width="384"
   height="366"
   viewBox="0 0 101.6 96.8375"
   version="1.1"
   id="svg1052"
   inkscape:version="1.2.2 (b0a8486541, 2022-12-01)"
   sodipodi:docname="CBMAvatar-Computer1.svg"
   xmlns:inkscape="http://www.inkscape.org/namespaces/inkscape"
   xmlns:sodipodi="http://sodipodi.sourceforge.net/DTD/sodipodi-0.dtd"
   xmlns="http://www.w3.org/2000/svg"
   xmlns:svg="http://www.w3.org/2000/svg">
  <sodipodi:namedview
     id="namedview1054"
     pagecolor="#505050"
     bordercolor="#ffffff"
     borderopacity="1"
     inkscape:showpageshadow="0"
     inkscape:pageopacity="0"
     inkscape:pagecheckerboard="1"
     inkscape:deskcolor="#505050"
     inkscape:document-units="px"
     showgrid="false"
     inkscape:zoom="1.4625249"
     inkscape:cx="2.7349962"
     inkscape:cy="164.78352"
     inkscape:window-width="1536"
     inkscape:window-height="923"
     inkscape:window-x="0"
     inkscape:window-y="0"
     inkscape:window-maximized="1"
     inkscape:current-layer="layer1" />
  <defs
     id="defs1049">
    <pattern
       id="EMFhbasepattern"
       patternUnits="userSpaceOnUse"
       width="6"
       height="6"
       x="0"
       y="0" />
  </defs>
  <g
     inkscape:label="Layer 1"
     inkscape:groupmode="layer"
     id="layer1">
    <g
       id="g1357"
       transform="matrix(1.2000001,0,0,1.525,713.76446,438.01102)">
      <path
         style="fill:#104ea4;fill-opacity:1;fill-rule:nonzero;stroke:none;stroke-width:0.264583"
         d="m -510.13701,-285.10367 c 0,9.17222 0,18.34444 0,27.51666 -28.22222,0 -56.44444,0 -84.66666,0 0,-9.17222 0,-18.34444 0,-27.51666 28.22222,0 56.44444,0 84.66666,0 z m -4.23333,19.13819 c -1.4993,0 -2.82222,0 -4.23333,0 0,0.70556 0,1.41111 0,2.11667 0,0.70555 0,1.32292 0,1.94028 1.4993,0 2.82222,0 4.23333,0 0,-1.32292 0,-2.73403 0,-4.05695 z"
         id="path1176" />
      <path
         style="fill:#104ea4;fill-opacity:1;fill-rule:nonzero;stroke:none;stroke-width:0.264583"
         d="m -510.13701,-240.65367 c 0,3.52778 0,7.05555 0,10.58333 -28.22222,0 -56.44444,0 -84.66666,0 0,-3.52778 0,-7.05555 0,-10.58333 28.22222,0 56.44444,0 84.66666,0 z"
         id="path1178" />
      <path
         style="fill:#fefefe;fill-opacity:1;fill-rule:nonzero;stroke:none;stroke-width:0.264583"
         d="m -510.13701,-240.65367 c -28.22222,0 -56.44444,0 -84.66666,0 0,-5.64445 0,-11.28889 0,-16.93334 28.22222,0 56.44444,0 84.66666,0 0,5.64445 0,11.28889 0,16.93334 z m -80.43333,-4.23334 c 0,0.70556 0,1.41112 0,2.02848 6.87917,0.26458 74.6125,0.17639 76.2,-0.0882 0,-0.61737 0,-1.32292 0,-1.94028 0,-1.41111 0,-2.82222 0,-4.23334 0,-0.70555 0,-1.41111 0,-2.11666 0,-0.70556 0,-1.41111 0,-2.11667 0,-0.70555 0,-1.41111 0,-2.02847 -6.87917,-0.26459 -74.6125,-0.17639 -76.2,0.0882 0,0.61736 0,1.32292 0,1.94028 0,0.70555 0,1.41111 0,2.11666 0,0.70556 0,1.41112 0,2.11667 0,1.41111 0,2.82222 0,4.23333 z"
         id="path1180" />
      <path
         style="fill:#104ea4;fill-opacity:1;fill-rule:nonzero;stroke:none;stroke-width:0.264583"
         d="m -510.13701,-227.95367 c 0,1.41111 0,2.82222 0,4.23333 -28.22222,0 -56.44444,0 -84.66666,0 0,-1.41111 0,-2.82222 0,-4.23333 28.22222,0 56.44444,0 84.66666,0 z"
         id="path1182" />
      <path
         style="fill:#fefefe;fill-opacity:1;fill-rule:nonzero;stroke:none;stroke-width:0.264583"
         d="m -510.13701,-285.10367 c -28.22222,0 -56.44444,0 -84.66666,0 0,-0.70556 0,-1.41111 0,-2.11667 28.22222,0 56.44444,0 84.66666,0 0,0.70556 0,1.41111 0,2.11667 z"
         id="path1184" />
      <path
         style="fill:#fefefe;fill-opacity:1;fill-rule:nonzero;stroke:none;stroke-width:0.264583"
         d="m -510.13701,-227.95367 c -28.22222,0 -56.44444,0 -84.66666,0 0,-0.70556 0,-1.41111 0,-2.11667 28.22222,0 56.44444,0 84.66666,0 0,0.70556 0,1.41111 0,2.11667 z"
         id="path1186" />
      <path
         style="fill:#fefefe;fill-opacity:1;fill-rule:nonzero;stroke:none;stroke-width:0.264583"
         d="m -514.37034,-265.96548 c 0,1.32292 0,2.73403 0,4.05695 -1.41111,0 -2.73403,0 -4.23333,0 0,-0.61736 0,-1.23473 0,-1.94028 0,-0.70556 0,-1.41111 0,-2.11667 1.41111,0 2.73403,0 4.23333,0 z"
         id="path1188" />
      <path
         style="fill:#5795eb;fill-opacity:1;fill-rule:nonzero;stroke:none;stroke-width:0.264583"
         d="m -590.57034,-249.12034 c 0,-0.70555 0,-1.41111 0,-2.11667 1.41111,0 2.82222,0 4.23333,0 1.41112,0 2.82223,0 4.23334,0 1.41111,0 2.82222,0 4.23333,0 1.41111,0 2.82222,0 4.23333,0 1.41112,0 2.82223,0 4.23334,0 1.41111,0 2.82222,0 4.23333,0 1.41111,0 2.82222,0 4.23333,0 1.41112,0 2.82223,0 4.23334,0 1.41111,0 2.82222,0 4.23333,0 1.41111,0 2.82222,0 4.23333,0 1.41112,0 2.82223,0 4.23334,0 1.41111,0 2.82222,0 4.23333,0 1.41111,0 2.82222,0 4.23333,0 1.41112,0 2.82223,0 4.23334,0 1.41111,0 2.82222,0 4.23333,0 1.41111,0 2.82222,0 4.23333,0 2.82223,0 5.64445,0 8.46667,0 0,0.70556 0,1.41112 0,2.11667 -2.82222,0 -5.64444,0 -8.46667,0 -1.41111,0 -2.82222,0 -4.23333,0 -1.41111,0 -2.82222,0 -4.23333,0 -1.41111,0 -2.82222,0 -4.23334,0 -1.41111,0 -2.82222,0 -4.23333,0 -1.41111,0 -2.82222,0 -4.23333,0 -1.41111,0 -2.82222,0 -4.23334,0 -1.41111,0 -2.82222,0 -4.23333,0 -1.41111,0 -2.82222,0 -4.23333,0 -1.41111,0 -2.82222,0 -4.23334,0 -1.41111,0 -2.82222,0 -4.23333,0 -1.41111,0 -2.82222,0 -4.23333,0 -1.41111,0 -2.82222,0 -4.23334,0 -1.41111,0 -2.82222,0 -4.23333,0 -1.41111,0 -2.82222,0 -4.23333,0 -1.41111,0 -2.82222,0 -4.23334,0 -1.41111,0 -2.82222,0 -4.23333,0 z"
         id="path1190" />
      <path
         style="fill:#5795eb;fill-opacity:1;fill-rule:nonzero;stroke:none;stroke-width:0.264583"
         d="m -590.57034,-253.35367 c 0,-0.61736 0,-1.32292 0,-1.94028 1.5875,-0.26458 69.32083,-0.35278 76.2,-0.0882 0,0.61736 0,1.32292 0,2.02847 -2.82222,0 -5.64444,0 -8.46667,0 -1.41111,0 -2.82222,0 -4.23333,0 -1.41111,0 -2.82222,0 -4.23333,0 -1.41111,0 -2.82222,0 -4.23334,0 -1.41111,0 -2.82222,0 -4.23333,0 -1.41111,0 -2.82222,0 -4.23333,0 -1.41111,0 -2.82222,0 -4.23334,0 -1.41111,0 -2.82222,0 -4.23333,0 -1.41111,0 -2.82222,0 -4.23333,0 -1.41111,0 -2.82222,0 -4.23334,0 -1.41111,0 -2.82222,0 -4.23333,0 -1.41111,0 -2.82222,0 -4.23333,0 -1.41111,0 -2.82222,0 -4.23334,0 -1.41111,0 -2.82222,0 -4.23333,0 -1.41111,0 -2.82222,0 -4.23333,0 -1.41111,0 -2.82222,0 -4.23334,0 -1.41111,0 -2.82222,0 -4.23333,0 z"
         id="path1192" />
      <path
         style="fill:#5795eb;fill-opacity:1;fill-rule:nonzero;stroke:none;stroke-width:0.264583"
         d="m -514.37034,-244.88701 c 0,0.61737 0,1.32292 0,1.94028 -1.5875,0.26459 -69.32083,0.35278 -76.2,0.0882 0,-0.61736 0,-1.32291 0,-2.02847 1.41111,0 2.82222,0 4.23333,0 1.41112,0 2.82223,0 4.23334,0 1.41111,0 2.82222,0 4.23333,0 1.41111,0 2.82222,0 4.23333,0 1.41112,0 2.82223,0 4.23334,0 1.41111,0 2.82222,0 4.23333,0 1.41111,0 2.82222,0 4.23333,0 1.41112,0 2.82223,0 4.23334,0 1.41111,0 2.82222,0 4.23333,0 1.41111,0 2.82222,0 4.23333,0 1.41112,0 2.82223,0 4.23334,0 1.41111,0 2.82222,0 4.23333,0 1.41111,0 2.82222,0 4.23333,0 1.41112,0 2.82223,0 4.23334,0 1.41111,0 2.82222,0 4.23333,0 1.41111,0 2.82222,0 4.23333,0 2.82223,0 5.64445,0 8.46667,0 z"
         id="path1194" />
      <path
         style="fill:#000000;fill-opacity:1;fill-rule:nonzero;stroke:none;stroke-width:0.264583"
         d="m -514.37034,-244.88701 c -2.82222,0 -5.64444,0 -8.46667,0 0,-1.41111 0,-2.82222 0,-4.23333 2.82223,0 5.64445,0 8.46667,0 0,1.41111 0,2.82222 0,4.23333 z"
         id="path1196" />
      <path
         style="fill:#000000;fill-opacity:1;fill-rule:nonzero;stroke:none;stroke-width:0.264583"
         d="m -522.83701,-253.35367 c 2.82223,0 5.64445,0 8.46667,0 0,0.70555 0,1.41111 0,2.11666 -2.82222,0 -5.64444,0 -8.46667,0 0,-0.70555 0,-1.41111 0,-2.11666 z"
         id="path1198" />
      <path
         style="fill:#000000;fill-opacity:1;fill-rule:nonzero;stroke:none;stroke-width:0.264583"
         d="m -586.33701,-244.88701 c -1.41111,0 -2.82222,0 -4.23333,0 0,-1.41111 0,-2.82222 0,-4.23333 1.41111,0 2.82222,0 4.23333,0 0,1.41111 0,2.82222 0,4.23333 z"
         id="path1200" />
      <path
         style="fill:#000000;fill-opacity:1;fill-rule:nonzero;stroke:none;stroke-width:0.264583"
         d="m -590.57034,-253.35367 c 1.41111,0 2.82222,0 4.23333,0 0,0.70555 0,1.41111 0,2.11666 -1.41111,0 -2.82222,0 -4.23333,0 0,-0.70555 0,-1.41111 0,-2.11666 z"
         id="path1202" />
      <path
         style="fill:#fefefe;fill-opacity:1;fill-rule:nonzero;stroke:none;stroke-width:0.264583"
         d="m -556.70367,-244.88701 c -1.41111,0 -2.82222,0 -4.23334,0 0,-1.41111 0,-2.82222 0,-4.23333 1.41112,0 2.82223,0 4.23334,0 0,1.41111 0,2.82222 0,4.23333 z"
         id="path1204" />
      <path
         style="fill:#000000;fill-opacity:1;fill-rule:nonzero;stroke:none;stroke-width:0.264583"
         d="m -556.70367,-244.88701 c 0,-1.41111 0,-2.82222 0,-4.23333 1.41111,0 2.82222,0 4.23333,0 0,1.41111 0,2.82222 0,4.23333 -1.41111,0 -2.82222,0 -4.23333,0 z"
         id="path1206" />
      <path
         style="fill:#fefefe;fill-opacity:1;fill-rule:nonzero;stroke:none;stroke-width:0.264583"
         d="m -552.47034,-244.88701 c 0,-1.41111 0,-2.82222 0,-4.23333 1.41111,0 2.82222,0 4.23333,0 0,1.41111 0,2.82222 0,4.23333 -1.41111,0 -2.82222,0 -4.23333,0 z"
         id="path1208" />
      <path
         style="fill:#fefefe;fill-opacity:1;fill-rule:nonzero;stroke:none;stroke-width:0.264583"
         d="m -539.77034,-244.88701 c -1.41111,0 -2.82222,0 -4.23333,0 0,-1.41111 0,-2.82222 0,-4.23333 1.41111,0 2.82222,0 4.23333,0 0,1.41111 0,2.82222 0,4.23333 z"
         id="path1210" />
      <path
         style="fill:#000000;fill-opacity:1;fill-rule:nonzero;stroke:none;stroke-width:0.264583"
         d="m -539.77034,-244.88701 c 0,-1.41111 0,-2.82222 0,-4.23333 1.41111,0 2.82222,0 4.23333,0 0,1.41111 0,2.82222 0,4.23333 -1.41111,0 -2.82222,0 -4.23333,0 z"
         id="path1212" />
      <path
         style="fill:#fefefe;fill-opacity:1;fill-rule:nonzero;stroke:none;stroke-width:0.264583"
         d="m -535.53701,-244.88701 c 0,-1.41111 0,-2.82222 0,-4.23333 1.41112,0 2.82223,0 4.23334,0 0,1.41111 0,2.82222 0,4.23333 -1.41111,0 -2.82222,0 -4.23334,0 z"
         id="path1214" />
      <path
         style="fill:#000000;fill-opacity:1;fill-rule:nonzero;stroke:none;stroke-width:0.264583"
         d="m -531.30367,-244.88701 c 0,-1.41111 0,-2.82222 0,-4.23333 1.41111,0 2.82222,0 4.23333,0 0,1.41111 0,2.82222 0,4.23333 -1.41111,0 -2.82222,0 -4.23333,0 z"
         id="path1216" />
      <path
         style="fill:#000000;fill-opacity:1;fill-rule:nonzero;stroke:none;stroke-width:0.264583"
         d="m -544.00367,-249.12034 c 0,1.41111 0,2.82222 0,4.23333 -1.41111,0 -2.82222,0 -4.23334,0 0,-1.41111 0,-2.82222 0,-4.23333 1.41112,0 2.82223,0 4.23334,0 z"
         id="path1218" />
      <path
         style="fill:#fefefe;fill-opacity:1;fill-rule:nonzero;stroke:none;stroke-width:0.264583"
         d="m -527.07034,-244.88701 c 0,-1.41111 0,-2.82222 0,-4.23333 1.41111,0 2.82222,0 4.23333,0 0,1.41111 0,2.82222 0,4.23333 -1.41111,0 -2.82222,0 -4.23333,0 z"
         id="path1220" />
      <path
         style="fill:#fefefe;fill-opacity:1;fill-rule:nonzero;stroke:none;stroke-width:0.264583"
         d="m -573.63701,-244.88701 c -1.41111,0 -2.82222,0 -4.23333,0 0,-1.41111 0,-2.82222 0,-4.23333 1.41111,0 2.82222,0 4.23333,0 0,1.41111 0,2.82222 0,4.23333 z"
         id="path1222" />
      <path
         style="fill:#fefefe;fill-opacity:1;fill-rule:nonzero;stroke:none;stroke-width:0.264583"
         d="m -586.33701,-244.88701 c 0,-1.41111 0,-2.82222 0,-4.23333 1.41112,0 2.82223,0 4.23334,0 0,1.41111 0,2.82222 0,4.23333 -1.41111,0 -2.82222,0 -4.23334,0 z"
         id="path1224" />
      <path
         style="fill:#000000;fill-opacity:1;fill-rule:nonzero;stroke:none;stroke-width:0.264583"
         d="m -582.10367,-244.88701 c 0,-1.41111 0,-2.82222 0,-4.23333 1.41111,0 2.82222,0 4.23333,0 0,1.41111 0,2.82222 0,4.23333 -1.41111,0 -2.82222,0 -4.23333,0 z"
         id="path1226" />
      <path
         style="fill:#000000;fill-opacity:1;fill-rule:nonzero;stroke:none;stroke-width:0.264583"
         d="m -573.63701,-244.88701 c 0,-1.41111 0,-2.82222 0,-4.23333 1.41112,0 2.82223,0 4.23334,0 0,1.41111 0,2.82222 0,4.23333 -1.41111,0 -2.82222,0 -4.23334,0 z"
         id="path1228" />
      <path
         style="fill:#fefefe;fill-opacity:1;fill-rule:nonzero;stroke:none;stroke-width:0.264583"
         d="m -569.40367,-244.88701 c 0,-1.41111 0,-2.82222 0,-4.23333 1.41111,0 2.82222,0 4.23333,0 0,1.41111 0,2.82222 0,4.23333 -1.41111,0 -2.82222,0 -4.23333,0 z"
         id="path1230" />
      <path
         style="fill:#000000;fill-opacity:1;fill-rule:nonzero;stroke:none;stroke-width:0.264583"
         d="m -565.17034,-244.88701 c 0,-1.41111 0,-2.82222 0,-4.23333 1.41111,0 2.82222,0 4.23333,0 0,1.41111 0,2.82222 0,4.23333 -1.41111,0 -2.82222,0 -4.23333,0 z"
         id="path1232" />
      <path
         style="fill:#fefefe;fill-opacity:1;fill-rule:nonzero;stroke:none;stroke-width:0.264583"
         d="m -586.33701,-251.23701 c 0,-0.70555 0,-1.41111 0,-2.11666 1.41112,0 2.82223,0 4.23334,0 0,0.70555 0,1.41111 0,2.11666 -1.41111,0 -2.82222,0 -4.23334,0 z"
         id="path1234" />
      <path
         style="fill:#000000;fill-opacity:1;fill-rule:nonzero;stroke:none;stroke-width:0.264583"
         d="m -582.10367,-251.23701 c 0,-0.70555 0,-1.41111 0,-2.11666 1.41111,0 2.82222,0 4.23333,0 0,0.70555 0,1.41111 0,2.11666 -1.41111,0 -2.82222,0 -4.23333,0 z"
         id="path1236" />
      <path
         style="fill:#fefefe;fill-opacity:1;fill-rule:nonzero;stroke:none;stroke-width:0.264583"
         d="m -577.87034,-251.23701 c 0,-0.70555 0,-1.41111 0,-2.11666 1.41111,0 2.82222,0 4.23333,0 0,0.70555 0,1.41111 0,2.11666 -1.41111,0 -2.82222,0 -4.23333,0 z"
         id="path1238" />
      <path
         style="fill:#000000;fill-opacity:1;fill-rule:nonzero;stroke:none;stroke-width:0.264583"
         d="m -573.63701,-251.23701 c 0,-0.70555 0,-1.41111 0,-2.11666 1.41112,0 2.82223,0 4.23334,0 0,0.70555 0,1.41111 0,2.11666 -1.41111,0 -2.82222,0 -4.23334,0 z"
         id="path1240" />
      <path
         style="fill:#fefefe;fill-opacity:1;fill-rule:nonzero;stroke:none;stroke-width:0.264583"
         d="m -569.40367,-251.23701 c 0,-0.70555 0,-1.41111 0,-2.11666 1.41111,0 2.82222,0 4.23333,0 0,0.70555 0,1.41111 0,2.11666 -1.41111,0 -2.82222,0 -4.23333,0 z"
         id="path1242" />
      <path
         style="fill:#000000;fill-opacity:1;fill-rule:nonzero;stroke:none;stroke-width:0.264583"
         d="m -565.17034,-251.23701 c 0,-0.70555 0,-1.41111 0,-2.11666 1.41111,0 2.82222,0 4.23333,0 0,0.70555 0,1.41111 0,2.11666 -1.41111,0 -2.82222,0 -4.23333,0 z"
         id="path1244" />
      <path
         style="fill:#fefefe;fill-opacity:1;fill-rule:nonzero;stroke:none;stroke-width:0.264583"
         d="m -560.93701,-251.23701 c 0,-0.70555 0,-1.41111 0,-2.11666 1.41112,0 2.82223,0 4.23334,0 0,0.70555 0,1.41111 0,2.11666 -1.41111,0 -2.82222,0 -4.23334,0 z"
         id="path1246" />
      <path
         style="fill:#000000;fill-opacity:1;fill-rule:nonzero;stroke:none;stroke-width:0.264583"
         d="m -556.70367,-251.23701 c 0,-0.70555 0,-1.41111 0,-2.11666 1.41111,0 2.82222,0 4.23333,0 0,0.70555 0,1.41111 0,2.11666 -1.41111,0 -2.82222,0 -4.23333,0 z"
         id="path1248" />
      <path
         style="fill:#fefefe;fill-opacity:1;fill-rule:nonzero;stroke:none;stroke-width:0.264583"
         d="m -522.83701,-253.35367 c 0,0.70555 0,1.41111 0,2.11666 -1.41111,0 -2.82222,0 -4.23333,0 0,-0.70555 0,-1.41111 0,-2.11666 1.41111,0 2.82222,0 4.23333,0 z"
         id="path1250" />
      <path
         style="fill:#fefefe;fill-opacity:1;fill-rule:nonzero;stroke:none;stroke-width:0.264583"
         d="m -544.00367,-253.35367 c 1.41111,0 2.82222,0 4.23333,0 0,0.70555 0,1.41111 0,2.11666 -1.41111,0 -2.82222,0 -4.23333,0 0,-0.70555 0,-1.41111 0,-2.11666 z"
         id="path1252" />
      <path
         style="fill:#fefefe;fill-opacity:1;fill-rule:nonzero;stroke:none;stroke-width:0.264583"
         d="m -535.53701,-253.35367 c 1.41112,0 2.82223,0 4.23334,0 0,0.70555 0,1.41111 0,2.11666 -1.41111,0 -2.82222,0 -4.23334,0 0,-0.70555 0,-1.41111 0,-2.11666 z"
         id="path1254" />
      <path
         style="fill:#000000;fill-opacity:1;fill-rule:nonzero;stroke:none;stroke-width:0.264583"
         d="m -535.53701,-253.35367 c 0,0.70555 0,1.41111 0,2.11666 -1.41111,0 -2.82222,0 -4.23333,0 0,-0.70555 0,-1.41111 0,-2.11666 1.41111,0 2.82222,0 4.23333,0 z"
         id="path1256" />
      <path
         style="fill:#000000;fill-opacity:1;fill-rule:nonzero;stroke:none;stroke-width:0.264583"
         d="m -544.00367,-253.35367 c 0,0.70555 0,1.41111 0,2.11666 -1.41111,0 -2.82222,0 -4.23334,0 0,-0.70555 0,-1.41111 0,-2.11666 1.41112,0 2.82223,0 4.23334,0 z"
         id="path1258" />
      <path
         style="fill:#fefefe;fill-opacity:1;fill-rule:nonzero;stroke:none;stroke-width:0.264583"
         d="m -548.23701,-253.35367 c 0,0.70555 0,1.41111 0,2.11666 -1.41111,0 -2.82222,0 -4.23333,0 0,-0.70555 0,-1.41111 0,-2.11666 1.41111,0 2.82222,0 4.23333,0 z"
         id="path1260" />
      <path
         style="fill:#000000;fill-opacity:1;fill-rule:nonzero;stroke:none;stroke-width:0.264583"
         d="m -531.30367,-251.23701 c 0,-0.70555 0,-1.41111 0,-2.11666 1.41111,0 2.82222,0 4.23333,0 0,0.70555 0,1.41111 0,2.11666 -1.41111,0 -2.82222,0 -4.23333,0 z"
         id="path1262" />
    </g>
  </g>
</svg>
