<?xml version="1.0" encoding="UTF-8" standalone="no"?>
<!-- Generator: Adobe Illustrator 25.0.0, SVG Export Plug-In . SVG Version: 6.00 Build 0)  -->

<svg
   version="1.1"
   id="Layer_1"
   x="0px"
   y="0px"
   viewBox="0 0 384 366"
   xml:space="preserve"
   sodipodi:docname="CBMAvatar-SpaceTaxi.svg"
   width="384"
   height="366"
   inkscape:version="1.2.2 (b0a8486541, 2022-12-01)"
   xmlns:inkscape="http://www.inkscape.org/namespaces/inkscape"
   xmlns:sodipodi="http://sodipodi.sourceforge.net/DTD/sodipodi-0.dtd"
   xmlns="http://www.w3.org/2000/svg"
   xmlns:svg="http://www.w3.org/2000/svg"><defs
   id="defs3613" /><sodipodi:namedview
   id="namedview3611"
   pagecolor="#505050"
   bordercolor="#ffffff"
   borderopacity="1"
   inkscape:showpageshadow="0"
   inkscape:pageopacity="0"
   inkscape:pagecheckerboard="1"
   inkscape:deskcolor="#505050"
   showgrid="false"
   inkscape:zoom="23.846978"
   inkscape:cx="7.6739283"
   inkscape:cy="11.154453"
   inkscape:window-width="1536"
   inkscape:window-height="923"
   inkscape:window-x="0"
   inkscape:window-y="0"
   inkscape:window-maximized="1"
   inkscape:current-layer="Layer_1" />
<style
   type="text/css"
   id="style3568">
	.st0{fill:#FEF692;}
	.st1{fill:#104EA4;}
	.st2{fill:#AC465C;}
</style>




















<g
   id="g4117"
   transform="matrix(1.9233519,0,0,2.6343689,-0.22398395,-0.9020511)"><g
     id="g3635"
     transform="matrix(1.6637621,0,0,1.6539608,-415.82407,-260.98339)"><path
       class="st0"
       d="m 322.1,175.9 c 4,0 7.9,0 11.9,0 4,0 8,0 11.9,0 3.8,0 7.5,0 11.5,0 0.3,2.1 0.6,3.7 1,6.1 3.8,0 7.7,0 11.6,0 0,4 0,8 0,12 -4,0 -8,-0.1 -12.1,-0.1 0,-1.8 0,-3.5 0,-5.9 -4.2,0 -8.1,0 -12,0 v 0 c 0,-1.9 0,-3.8 0,-5.8 -4.3,0 -8.1,0 -12,0 0,2.1 0,3.9 0,5.7 l -0.2,0.2 c -4,-0.1 -7.9,-0.1 -11.9,-0.2 0,-4 0,-7.9 -0.1,-11.9 z"
       id="path3570" /><path
       class="st1"
       d="m 250,188 c 0,-4 0,-8 0,-12 3.9,0 7.9,0 11.8,0 0.1,1.9 0.3,3.8 0.4,6 8,0 15.7,0 23.3,0 0,2 0,4 0,6.1 -3.8,0 -7.5,0 -11.4,0 -0.1,2.3 -0.2,4.1 -0.3,5.9 -4,0 -7.9,-0.1 -11.9,-0.1 0,-1.8 0,-3.5 0,-5.8 -4.2,-0.1 -8,-0.1 -11.9,-0.1 z"
       id="path3572" /><path
       class="st0"
       d="m 286,158 c 8,0 16,0 24,0 0,2 0,4 0,6 0,0 0.1,-0.1 0.1,-0.1 -8,0 -16,0 -24.1,0 v 0 c 0,-1.9 0,-3.9 0,-5.9 z"
       id="path3574" /><path
       class="st0"
       d="m 286.1,194 c 0,2 -0.1,4 -0.1,6 -4,0 -8,0 -12,0 0,-2 -0.1,-4 -0.1,-6 0.1,-1.8 0.2,-3.6 0.3,-5.9 3.8,0 7.6,0 11.4,0 0.1,1.9 0.3,3.9 0.5,5.9 z"
       id="path3576" /><path
       class="st0"
       d="m 334,200 c -0.1,-3.9 -0.1,-7.9 -0.2,-11.8 0,0 0.2,-0.2 0.2,-0.2 4,0 8,0 12,0 v 0 c 0,2 0.1,4 0.1,6 0,2 -0.1,4 -0.1,6 -4,0 -8,0 -12,0 z"
       id="path3578" /><path
       class="st2"
       d="m 286,158 c 0,2 0,4 0,6 -4,0 -8,0 -12.1,0 0,-2 0,-4 0,-6 4.1,0 8.1,0 12.1,0 z"
       id="path3580" /><path
       class="st1"
       d="m 310,164 c 0,-2 0,-4 0,-6 4,0 8,0 12,0 0,2 -0.1,4 -0.1,6 -4,0 -8,0 -11.9,0 z"
       id="path3582" /><path
       class="st2"
       d="m 250,170 c 4,0 8,0 12,0 -0.1,2 -0.1,4 -0.2,6 -3.9,0 -7.9,0 -11.8,0 0,-2 0,-4 0,-6 z"
       id="path3584" /><path
       class="st2"
       d="m 262,193.8 c -4,0.1 -8,0.1 -12,0.2 0,-2 0,-4 0,-6 3.9,0 7.7,0 12,0 0,2.3 0,4.1 0,5.8 z"
       id="path3586" /><path
       class="st0"
       d="m 310,164 c 4,0 7.9,-0.1 11.9,-0.1 0.1,4 0.2,7.9 0.3,11.9 0,0 -0.2,0.2 -0.2,0.2 -4,0 -7.9,-0.1 -11.9,-0.1 v 0 C 310,172 310,168 310,164 Z"
       id="path3588" /><path
       class="st0"
       d="m 334.1,170 c 0,-1.8 0,-3.6 0,-5.9 4.2,0 8,0 11.9,0 0,2 -0.1,4 -0.1,5.9 l 0.1,-0.1 c -3.9,0.1 -7.9,0.1 -11.9,0.1 z"
       id="path3590" /><path
       class="st1"
       d="m 346,170.1 c 0,-2 0.1,-4 0.1,-5.9 3.8,0 7.6,0 11.7,0 0,1.9 0,3.6 0,5.9 -4,0 -7.9,0 -11.8,0 z"
       id="path3592" /><path
       class="st1"
       d="m 334.1,170 c 4,0 8,-0.1 11.9,-0.1 0,2 -0.1,3.9 -0.1,5.9 -4,0 -8,0 -11.9,0 0.1,-1.9 0.1,-3.8 0.1,-5.8 z"
       id="path3594" /><path
       class="st2"
       d="m 310,176 c 4,0 7.9,0.1 11.9,0.1 0,4 0,7.9 0.1,11.9 0,0 0,0 0,0 -3.9,0 -7.8,0 -12,0 0,-4.5 0,-8.2 0,-12 z"
       id="path3596" /><path
       class="st1"
       d="m 346,188 c -4,0 -8,0 -12,0 0,-1.8 0,-3.6 0,-5.7 3.9,0 7.7,0 12,0 0,1.9 0,3.8 0,5.7 z"
       id="path3598"
       style="fill:#000000;fill-opacity:1" /><path
       class="st2"
       d="m 357.9,193.9 c -4,0 -7.9,0.1 -11.9,0.1 0,-2 -0.1,-4 -0.1,-6 3.9,0 7.8,0 12,0 0,2.3 0,4.1 0,5.9 z"
       id="path3600" /><path
       class="st0"
       d="m 310,176 c 0,3.8 0,7.6 0,12 4.2,0 8.1,0 12,0 0,1.8 0,3.6 0,5.9 -8.3,0 -16.2,0 -24.1,0 0,-3.9 0,-7.7 0,-11.9 -4.6,0 -8.5,0 -12.4,0 -7.6,0 -15.3,0 -23.3,0 -0.1,-2.1 -0.3,-4.1 -0.4,-6 0.1,-2 0.1,-4 0.2,-6 0,0 -0.1,0 -0.1,0 3.9,0 7.8,0 12.1,0 0,-2.5 0,-4.3 0,-6.1 0,0 0,0.1 0,0.1 4,0 8,0 12.1,0 0,0 0,0 0,0 0,3.9 0,7.9 0,12 8.3,0 16.1,0 23.9,0 z"
       id="path3602" /><path
       class="st2"
       d="m 285.5,182 c 3.9,0 7.8,0 12.4,0 0,4.2 0,8 0,11.9 -4,0 -7.9,0.1 -11.9,0.1 -0.2,-2 -0.4,-4 -0.6,-5.9 0.1,-2.1 0.1,-4.1 0.1,-6.1 z"
       id="path3604" /><path
       class="st2"
       d="m 274,163.9 c 0,1.8 0,3.6 0,6.1 -4.2,0 -8.1,0 -12.1,0 0,-1.8 0,-3.6 0,-6.1 4.3,0 8.2,0 12.1,0 z"
       id="path3606" /><path
       class="st1"
       d="m 310,176 c -7.8,0 -15.6,0 -24,0 0,-4.2 0,-8.1 0,-12 8,0 16,0 24.1,0 -0.1,4 -0.1,8 -0.1,12 z"
       id="path3608" /></g><rect
     style="fill:#000000;fill-opacity:1;stroke-width:1.02083"
     id="rect4093"
     width="18.679379"
     height="10.041136"
     x="40.475033"
     y="40.150459" /></g></svg>
