<svg xmlns="http://www.w3.org/2000/svg" version="1.1" width="225.00000000000003" height="225.00000000000003" viewBox="0 0 225.00000000000003 225.00000000000003"><defs><clipPath id="clip-1"><rect x="0" y="25" width="200" height="200"/></clipPath></defs><path fill="none" stroke="#000000" d="M 0,225 L 0,25" style="stroke-width: 2px;opacity: 0.1" stroke-width="2" opacity="0.1"/><path fill="none" stroke="#000000" d="M 16.6667,225 L 16.6667,25" style="stroke-width: 2px;opacity: 0.1" stroke-width="2" opacity="0.1"/><path fill="none" stroke="#000000" d="M 33.3333,225 L 33.3333,25" style="stroke-width: 2px;opacity: 0.1" stroke-width="2" opacity="0.1"/><path fill="none" stroke="#000000" d="M 50,225 L 50,25" style="stroke-width: 2px;opacity: 0.1" stroke-width="2" opacity="0.1"/><path fill="none" stroke="#000000" d="M 66.6667,225 L 66.6667,25" style="stroke-width: 2px;opacity: 0.1" stroke-width="2" opacity="0.1"/><path fill="none" stroke="#000000" d="M 83.3333,225 L 83.3333,25" style="stroke-width: 2px;opacity: 0.1" stroke-width="2" opacity="0.1"/><path fill="none" stroke="#000000" d="M 100,225 L 100,25" style="stroke-width: 2px;opacity: 0.1" stroke-width="2" opacity="0.1"/><path fill="none" stroke="#000000" d="M 116.667,225 L 116.667,25" style="stroke-width: 2px;opacity: 0.1" stroke-width="2" opacity="0.1"/><path fill="none" stroke="#000000" d="M 133.333,225 L 133.333,25" style="stroke-width: 2px;opacity: 0.1" stroke-width="2" opacity="0.1"/><path fill="none" stroke="#000000" d="M 150,225 L 150,25" style="stroke-width: 2px;opacity: 0.1" stroke-width="2" opacity="0.1"/><path fill="none" stroke="#000000" d="M 166.667,225 L 166.667,25" style="stroke-width: 2px;opacity: 0.1" stroke-width="2" opacity="0.1"/><path fill="none" stroke="#000000" d="M 183.333,225 L 183.333,25" style="stroke-width: 2px;opacity: 0.1" stroke-width="2" opacity="0.1"/><path fill="none" stroke="#000000" d="M 200,225 L 200,25" style="stroke-width: 2px;opacity: 0.1" stroke-width="2" opacity="0.1"/><path fill="none" stroke="#000000" d="M 0,225 L 200,225" style="stroke-width: 2px;opacity: 0.1" stroke-width="2" opacity="0.1"/><path fill="none" stroke="#000000" d="M 0,208.333 L 200,208.333" style="stroke-width: 2px;opacity: 0.1" stroke-width="2" opacity="0.1"/><path fill="none" stroke="#000000" d="M 0,191.667 L 200,191.667" style="stroke-width: 2px;opacity: 0.1" stroke-width="2" opacity="0.1"/><path fill="none" stroke="#000000" d="M 0,175 L 200,175" style="stroke-width: 2px;opacity: 0.1" stroke-width="2" opacity="0.1"/><path fill="none" stroke="#000000" d="M 0,158.333 L 200,158.333" style="stroke-width: 2px;opacity: 0.1" stroke-width="2" opacity="0.1"/><path fill="none" stroke="#000000" d="M 0,141.667 L 200,141.667" style="stroke-width: 2px;opacity: 0.1" stroke-width="2" opacity="0.1"/><path fill="none" stroke="#000000" d="M 0,125 L 200,125" style="stroke-width: 2px;opacity: 0.1" stroke-width="2" opacity="0.1"/><path fill="none" stroke="#000000" d="M 0,108.333 L 200,108.333" style="stroke-width: 2px;opacity: 0.1" stroke-width="2" opacity="0.1"/><path fill="none" stroke="#000000" d="M 0,91.6667 L 200,91.6667" style="stroke-width: 2px;opacity: 0.1" stroke-width="2" opacity="0.1"/><path fill="none" stroke="#000000" d="M 0,75 L 200,75" style="stroke-width: 2px;opacity: 0.1" stroke-width="2" opacity="0.1"/><path fill="none" stroke="#000000" d="M 0,58.3333 L 200,58.3333" style="stroke-width: 2px;opacity: 0.1" stroke-width="2" opacity="0.1"/><path fill="none" stroke="#000000" d="M 0,41.6667 L 200,41.6667" style="stroke-width: 2px;opacity: 0.1" stroke-width="2" opacity="0.1"/><path fill="none" stroke="#000000" d="M 0,25 L 200,25" style="stroke-width: 2px;opacity: 0.1" stroke-width="2" opacity="0.1"/><path fill="none" stroke="#000000" d="M -3.45,130.6 C -3.1,128.5 0.75,125.35 1.8,125 C 0.75,124.65 -3.1,121.5 -3.45,119.4" transform="rotate(180 1.7999999999999972 125.00000000000001)" style="stroke-width: 2px;opacity: 1;stroke-linejoin: round;stroke-linecap: round" stroke-width="2" opacity="1" stroke-linejoin="round" stroke-linecap="round"/><path fill="none" stroke="#000000" d="M 100,125 S 100,125 1.05,125" style="stroke-width: 2px;opacity: 1" stroke-width="2" opacity="1"/><path fill="none" stroke="#000000" d="M 194.45,130.6 C 194.8,128.5 198.65,125.35 199.7,125 C 198.65,124.65 194.8,121.5 194.45,119.4" transform="" style="stroke-width: 2px;opacity: 1;stroke-linejoin: round;stroke-linecap: round" stroke-width="2" opacity="1" stroke-linejoin="round" stroke-linecap="round"/><path fill="none" stroke="#000000" d="M 100,125 S 100,125 198.95,125" style="stroke-width: 2px;opacity: 1" stroke-width="2" opacity="1"/><path fill="none" stroke="#000000" d="M 95.5,229.55 C 95.85,227.45 99.7,224.3 100.75,223.95 C 99.7,223.6 95.85,220.45 95.5,218.35" transform="rotate(90 100.75 223.95000000000002)" style="stroke-width: 2px;opacity: 1;stroke-linejoin: round;stroke-linecap: round" stroke-width="2" opacity="1" stroke-linejoin="round" stroke-linecap="round"/><path fill="none" stroke="#000000" d="M 100,125 S 100,125 100,223.95" style="stroke-width: 2px;opacity: 1" stroke-width="2" opacity="1"/><path fill="none" stroke="#000000" d="M 95.5,31.65 C 95.85,29.55 99.7,26.4 100.75,26.05 C 99.7,25.7 95.85,22.55 95.5,20.45" transform="rotate(-90 100.75 26.05000000000001)" style="stroke-width: 2px;opacity: 1;stroke-linejoin: round;stroke-linecap: round" stroke-width="2" opacity="1" stroke-linejoin="round" stroke-linecap="round"/><path fill="none" stroke="#000000" d="M 100,125 S 100,125 100,26.05" style="stroke-width: 2px;opacity: 1" stroke-width="2" opacity="1"/><path fill="none" stroke="#000000" d="M 133.333,130 L 133.333,120" style="stroke-width: 1px;opacity: 1" stroke-width="1" opacity="1"/><path fill="none" stroke="#000000" d="M 166.667,130 L 166.667,120" style="stroke-width: 1px;opacity: 1" stroke-width="1" opacity="1"/><path fill="none" stroke="#000000" d="M 66.6667,130 L 66.6667,120" style="stroke-width: 1px;opacity: 1" stroke-width="1" opacity="1"/><path fill="none" stroke="#000000" d="M 33.3333,130 L 33.3333,120" style="stroke-width: 1px;opacity: 1" stroke-width="1" opacity="1"/><path fill="none" stroke="#000000" d="M 95,91.6667 L 105,91.6667" style="stroke-width: 1px;opacity: 1" stroke-width="1" opacity="1"/><path fill="none" stroke="#000000" d="M 95,58.3333 L 105,58.3333" style="stroke-width: 1px;opacity: 1" stroke-width="1" opacity="1"/><path fill="none" stroke="#000000" d="M 95,158.333 L 105,158.333" style="stroke-width: 1px;opacity: 1" stroke-width="1" opacity="1"/><path fill="none" stroke="#000000" d="M 95,191.667 L 105,191.667" style="stroke-width: 1px;opacity: 1" stroke-width="1" opacity="1"/><path fill="none" stroke="#7854ab" d="M 0,25 L 0.5,25.5 L 1,26 L 1.5,26.5 L 2,27 L 2.5,27.5 L 3,28 L 3.5,28.5 L 4,29 L 4.5,29.5 L 5,30 L 5.5,30.5 L 6,31 L 6.5,31.5 L 7,32 L 7.5,32.5 L 8,33 L 8.5,33.5 L 9,34 L 9.5,34.5 L 10,35 L 10.5,35.5 L 11,36 L 11.5,36.5 L 12,37 L 12.5,37.5 L 13,38 L 13.5,38.5 L 14,39 L 14.5,39.5 L 15,40 L 15.5,40.5 L 16,41 L 16.5,41.5 L 17,42 L 17.5,42.5 L 18,43 L 18.5,43.5 L 19,44 L 19.5,44.5 L 20,45 L 20.5,45.5 L 21,46 L 21.5,46.5 L 22,47 L 22.5,47.5 L 23,48 L 23.5,48.5 L 24,49 L 24.5,49.5 L 25,50 L 25.5,50.5 L 26,51 L 26.5,51.5 L 27,52 L 27.5,52.5 L 28,53 L 28.5,53.5 L 29,54 L 29.5,54.5 L 30,55 L 30.5,55.5 L 31,56 L 31.5,56.5 L 32,57 L 32.5,57.5 L 33,58 L 33.5,58.5 L 34,59 L 34.5,59.5 L 35,60 L 35.5,60.5 L 36,61 L 36.5,61.5 L 37,62 L 37.5,62.5 L 38,63 L 38.5,63.5 L 39,64 L 39.5,64.5 L 40,65 L 40.5,65.5 L 41,66 L 41.5,66.5 L 42,67 L 42.5,67.5 L 43,68 L 43.5,68.5 L 44,69 L 44.5,69.5 L 45,70 L 45.5,70.5 L 46,71 L 46.5,71.5 L 47,72 L 47.5,72.5 L 48,73 L 48.5,73.5 L 49,74 L 49.5,74.5 L 50,75 L 50.5,75.5 L 51,76 L 51.5,76.5 L 52,77 L 52.5,77.5 L 53,78 L 53.5,78.5 L 54,79 L 54.5,79.5 L 55,80 L 55.5,80.5 L 56,81 L 56.5,81.5 L 57,82 L 57.5,82.5 L 58,83 L 58.5,83.5 L 59,84 L 59.5,84.5 L 60,85 L 60.5,85.5 L 61,86 L 61.5,86.5 L 62,87 L 62.5,87.5 L 63,88 L 63.5,88.5 L 64,89 L 64.5,89.5 L 65,90 L 65.5,90.5 L 66,91 L 66.5,91.5 L 67,92 L 67.5,92.5 L 68,93 L 68.5,93.5 L 69,94 L 69.5,94.5 L 70,95 L 70.5,95.5 L 71,96 L 71.5,96.5 L 72,97 L 72.5,97.5 L 73,98 L 73.5,98.5 L 74,99 L 74.5,99.5 L 75,100 L 75.5,100.5 L 76,101 L 76.5,101.5 L 77,102 L 77.5,102.5 L 78,103 L 78.5,103.5 L 79,104 L 79.5,104.5 L 80,105 L 80.5,105.5 L 81,106 L 81.5,106.5 L 82,107 L 82.5,107.5 L 83,108 L 83.5,108.5 L 84,109 L 84.5,109.5 L 85,110 L 85.5,110.5 L 86,111 L 86.5,111.5 L 87,112 L 87.5,112.5 L 88,113 L 88.5,113.5 L 89,114 L 89.5,114.5 L 90,115 L 90.5,115.5 L 91,116 L 91.5,116.5 L 92,117 L 92.5,117.5 L 93,118 L 93.5,118.5 L 94,119 L 94.5,119.5 L 95,120 L 95.5,120.5 L 96,121 L 96.5,121.5 L 97,122 L 97.5,122.5 L 98,123 L 98.5,123.5 L 99,124 L 99.5,124.5 L 100,125 L 100.5,124.5 L 101,124 L 101.5,123.5 L 102,123 L 102.5,122.5 L 103,122 L 103.5,121.5 L 104,121 L 104.5,120.5 L 105,120 L 105.5,119.5 L 106,119 L 106.5,118.5 L 107,118 L 107.5,117.5 L 108,117 L 108.5,116.5 L 109,116 L 109.5,115.5 L 110,115 L 110.5,114.5 L 111,114 L 111.5,113.5 L 112,113 L 112.5,112.5 L 113,112 L 113.5,111.5 L 114,111 L 114.5,110.5 L 115,110 L 115.5,109.5 L 116,109 L 116.5,108.5 L 117,108 L 117.5,107.5 L 118,107 L 118.5,106.5 L 119,106 L 119.5,105.5 L 120,105 L 120.5,104.5 L 121,104 L 121.5,103.5 L 122,103 L 122.5,102.5 L 123,102 L 123.5,101.5 L 124,101 L 124.5,100.5 L 125,100 L 125.5,99.5 L 126,99 L 126.5,98.5 L 127,98 L 127.5,97.5 L 128,97 L 128.5,96.5 L 129,96 L 129.5,95.5 L 130,95 L 130.5,94.5 L 131,94 L 131.5,93.5 L 132,93 L 132.5,92.5 L 133,92 L 133.5,91.5 L 134,91 L 134.5,90.5 L 135,90 L 135.5,89.5 L 136,89 L 136.5,88.5 L 137,88 L 137.5,87.5 L 138,87 L 138.5,86.5 L 139,86 L 139.5,85.5 L 140,85 L 140.5,84.5 L 141,84 L 141.5,83.5 L 142,83 L 142.5,82.5 L 143,82 L 143.5,81.5 L 144,81 L 144.5,80.5 L 145,80 L 145.5,79.5 L 146,79 L 146.5,78.5 L 147,78 L 147.5,77.5 L 148,77 L 148.5,76.5 L 149,76 L 149.5,75.5 L 150,75 L 150.5,74.5 L 151,74 L 151.5,73.5 L 152,73 L 152.5,72.5 L 153,72 L 153.5,71.5 L 154,71 L 154.5,70.5 L 155,70 L 155.5,69.5 L 156,69 L 156.5,68.5 L 157,68 L 157.5,67.5 L 158,67 L 158.5,66.5 L 159,66 L 159.5,65.5 L 160,65 L 160.5,64.5 L 161,64 L 161.5,63.5 L 162,63 L 162.5,62.5 L 163,62 L 163.5,61.5 L 164,61 L 164.5,60.5 L 165,60 L 165.5,59.5 L 166,59 L 166.5,58.5 L 167,58 L 167.5,57.5 L 168,57 L 168.5,56.5 L 169,56 L 169.5,55.5 L 170,55 L 170.5,54.5 L 171,54 L 171.5,53.5 L 172,53 L 172.5,52.5 L 173,52 L 173.5,51.5 L 174,51 L 174.5,50.5 L 175,50 L 175.5,49.5 L 176,49 L 176.5,48.5 L 177,48 L 177.5,47.5 L 178,47 L 178.5,46.5 L 179,46 L 179.5,45.5 L 180,45 L 180.5,44.5 L 181,44 L 181.5,43.5 L 182,43 L 182.5,42.5 L 183,42 L 183.5,41.5 L 184,41 L 184.5,40.5 L 185,40 L 185.5,39.5 L 186,39 L 186.5,38.5 L 187,38 L 187.5,37.5 L 188,37 L 188.5,36.5 L 189,36 L 189.5,35.5 L 190,35 L 190.5,34.5 L 191,34 L 191.5,33.5 L 192,33 L 192.5,32.5 L 193,32 L 193.5,31.5 L 194,31 L 194.5,30.5 L 195,30 L 195.5,29.5 L 196,29 L 196.5,28.5 L 197,28 L 197.5,27.5 L 198,27 L 198.5,26.5 L 199,26 L 199.5,25.5" style="stroke-width: 3px" stroke-width="3" clip-path="url(#clip-1)"/></svg>