<?xml version="1.0" encoding="UTF-8" standalone="no"?>
<!-- Generator: Adobe Illustrator 25.0.0, SVG Export Plug-In . SVG Version: 6.00 Build 0)  -->

<svg
   version="1.1"
   id="Layer_1"
   x="0px"
   y="0px"
   viewBox="0 0 2048 1024"
   xml:space="preserve"
   sodipodi:docname="AtariWindow-Solid-GOS.svg"
   width="2048"
   height="1024"
   inkscape:version="1.2.2 (b0a8486541, 2022-12-01)"
   xmlns:inkscape="http://www.inkscape.org/namespaces/inkscape"
   xmlns:sodipodi="http://sodipodi.sourceforge.net/DTD/sodipodi-0.dtd"
   xmlns="http://www.w3.org/2000/svg"
   xmlns:svg="http://www.w3.org/2000/svg"><defs
   id="defs41" /><sodipodi:namedview
   id="namedview39"
   pagecolor="#505050"
   bordercolor="#ffffff"
   borderopacity="1"
   inkscape:showpageshadow="0"
   inkscape:pageopacity="0"
   inkscape:pagecheckerboard="1"
   inkscape:deskcolor="#505050"
   showgrid="false"
   inkscape:zoom="0.31723122"
   inkscape:cx="792.79713"
   inkscape:cy="387.72981"
   inkscape:window-width="1536"
   inkscape:window-height="923"
   inkscape:window-x="0"
   inkscape:window-y="0"
   inkscape:window-maximized="1"
   inkscape:current-layer="Layer_1" />
<style
   type="text/css"
   id="style2">
	.st0{fill:#F2EAF7;}
</style>
<path
   d="m 2048,1024 c -682.5956,0 -1365.40437,0 -2048,0 C 0,682.61079 0,341.38919 0,0 c 682.59563,0 1365.4044,0 2048,0 0,341.38919 0,682.61079 0,1024 z m -15.344,-8.5473 c 0,-274.18398 0,-547.52996 0,-820.87595 -44.7534,-1.34075 -2007.935085,-0.83797 -2017.525095,0.50279 0,273.34598 0,546.69196 0,820.20556 672.792505,0.1676 1344.945695,0.1676 2017.525095,0.1676 z m 0.2131,-1001.709984 c -673.0056,0 -1345.37191,0 -2017.525083,0 -1.49178,21.61964 -0.852446,160.387554 0.639334,167.091324 672.366279,0 1344.519449,0 2016.885749,0 0,-55.80884 0,-111.282487 0,-167.091324 z"
   id="path4"
   style="stroke-width:1.88987" />
<path
   class="st0"
   d="m 2032.656,1015.4527 c -672.5794,0 -1344.73259,0 -2017.525095,0 0,-273.5136 0,-546.85959 0,-820.20557 9.376899,-1.34075 1972.558595,-2.01113 2017.525095,-0.50278 0,273.34598 0,546.69197 0,820.70835 z M 55.622061,938.19179 c 197.127999,0 393.403539,0 589.679079,0 1.49178,-27.98824 0.85246,-198.7666 -0.63934,-205.63796 -196.27554,0 -392.55108,0 -589.039739,0 0,68.71361 0,137.092 0,205.63796 z M 1318.9461,732.72142 c -197.128,0 -393.40355,0 -589.67909,0 -1.49178,24.80393 -0.85244,198.76663 0.63934,205.63794 196.27554,0 392.55115,0 589.03975,0 0,-68.71353 0,-137.09192 0,-205.63794 z m 673.2187,205.63794 c 0,-69.04874 0,-137.42714 0,-205.80553 -43.6878,-1.34076 -580.3022,-0.67038 -589.4659,0.50278 0,68.37839 0,136.75679 0,205.13518 196.7017,0.16757 392.9773,0.16757 589.4659,0.16757 z"
   id="path6"
   style="stroke-width:1.88987" />
<path
   class="st0"
   d="m 2032.8691,13.742716 c 0,55.808837 0,111.282484 0,167.091324 -672.3663,0 -1344.73257,0 -2016.885749,0 -1.49178,-6.70377 -1.918002,-145.471684 -0.639334,-167.091324 672.153173,0 1344.519483,0 2017.525083,0 z M 28.130697,52.121767 c 0,4.860228 0,8.882486 0,13.07234 41.982935,1.340752 690.906973,0.670376 700.283873,-0.502783 0,-4.189853 0,-8.212111 0,-12.569557 -233.57003,0 -466.71383,0 -700.283873,0 z M 728.62767,104.07594 c -233.99625,0 -467.35317,0 -700.923196,0 0.21312,4.52504 -0.21312,8.88249 0.21312,12.90475 233.996236,0 467.353166,0 700.710076,0 0,-4.18986 0,-8.37971 0,-12.90475 z m 0,25.30671 c -234.20937,0 -467.35317,0 -700.923196,0 0.21312,4.52504 -0.21312,8.88249 0.21312,12.90474 233.996236,0 467.353166,0 700.710076,0 0,-4.52504 0,-8.5473 0,-12.90474 z M 2020.0824,52.28936 c -220.144,0 -440.0749,0 -660.2189,0 0,4.357447 0,8.5473 0,12.904747 220.144,0 440.0749,0 660.2189,0 0,-4.525041 0,-8.5473 0,-12.904747 z m -660.432,64.18854 c 8.7375,1.17316 651.9076,1.17316 660.2189,0 0,-4.18985 0,-8.21211 0,-12.40196 -42.6223,-1.34076 -650.4158,-0.67038 -660.2189,0.50278 0,4.02226 0,8.04452 0,11.89918 z m 0.2131,25.6419 c 220.5702,0 440.288,0 660.4321,0 -0.2132,-4.52504 0.2131,-8.88249 -0.2132,-12.90475 -220.5702,0 -440.288,0 -660.2189,0 0,4.52504 0,8.5473 0,12.90475 z M 27.917585,90.333225 c 233.996245,0 467.353175,0 700.283865,0 0,-4.022259 0,-7.709334 0,-11.228811 -233.78315,0 -466.92695,0 -700.283865,0 0,3.687076 0,7.206552 0,11.228811 z M 2020.0824,79.104414 c -220.144,0 -440.0749,0 -660.2189,0 0,3.854667 0,7.374144 0,11.228811 220.144,0 440.0749,0 660.2189,0 0,-4.022259 0,-7.541735 0,-11.228811 z"
   id="path8"
   style="stroke-width:1.88987" />



<path
   d="m 28.130697,52.121767 c 233.570043,0 466.713843,0 700.283873,0 0,4.189852 0,8.379704 0,12.569557 -9.3769,1.173159 -658.300938,1.843535 -700.283873,0.502783 0,-4.189854 0,-8.212112 0,-13.07234 z"
   id="path16"
   style="stroke-width:1.88987" />
<path
   d="m 728.62767,104.07594 c 0,4.52504 0,8.5473 0,12.90475 -233.35691,0 -466.71384,0 -700.710085,0 -0.639332,-4.02226 0,-8.37971 -0.21312,-12.90475 233.570035,0 466.926955,0 700.923205,0 z"
   id="path18"
   style="stroke-width:1.88987" />
<path
   d="m 728.62767,129.38265 c 0,4.35744 0,8.54729 0,12.90474 -233.35691,0 -466.50072,0 -700.710085,0 -0.639332,-4.02225 0,-8.3797 -0.21312,-12.90474 233.570035,0 466.713835,0 700.923205,0 z"
   id="path20"
   style="stroke-width:1.88987" />
<path
   d="m 2020.0824,52.28936 c 0,4.357447 0,8.379706 0,12.904747 -220.144,0 -440.0749,0 -660.2189,0 0,-4.357447 0,-8.379706 0,-12.904747 220.144,0 440.0749,0 660.2189,0 z"
   id="path22"
   style="stroke-width:1.88987" />
<path
   d="m 1359.6504,116.4779 c 0,-3.85466 0,-7.87692 0,-11.73159 9.8031,-1.34075 617.8097,-1.84353 660.2189,-0.50278 0,4.02226 0,8.21212 0,12.40197 -8.3113,1.00556 -651.4814,1.00556 -660.2189,-0.1676 z"
   id="path24"
   style="stroke-width:1.88987" />
<path
   d="m 1359.8635,142.1198 c 0,-4.35745 0,-8.5473 0,-12.90475 219.9309,0 439.6487,0 660.2189,0 0.6393,4.02226 0,8.37971 0.2131,12.90475 -220.144,0 -439.8618,0 -660.432,0 z"
   id="path26"
   style="stroke-width:1.88987" />
<path
   d="m 27.917585,90.333225 c 0,-3.854667 0,-7.374144 0,-11.228811 233.356915,0 466.713835,0 700.283865,0 0,3.519477 0,7.206552 0,11.228811 -232.93069,0 -466.28762,0 -700.283865,0 z"
   id="path28"
   style="stroke-width:1.88987" />
<path
   d="m 2020.0824,79.104414 c 0,3.854667 0,7.374144 0,11.228811 -220.144,0 -440.0749,0 -660.2189,0 0,-3.854667 0,-7.374144 0,-11.228811 220.144,0 440.0749,0 660.2189,0 z"
   id="path30"
   style="stroke-width:1.88987" />



<rect
   style="fill:#f2eaf7;fill-opacity:1;stroke-width:1.88987"
   id="rect405"
   width="1977.6011"
   height="644.45612"
   x="29.799469"
   y="325.95633" /></svg>
