<?xml version="1.0" encoding="UTF-8" standalone="no"?>
<!-- Generator: Adobe Illustrator 25.0.0, SVG Export Plug-In . SVG Version: 6.00 Build 0)  -->

<svg
   version="1.1"
   id="Layer_1"
   x="0px"
   y="0px"
   viewBox="0 0 2048 1024"
   xml:space="preserve"
   sodipodi:docname="Window.svg"
   width="2048"
   height="1024"
   inkscape:version="1.2.2 (b0a8486541, 2022-12-01)"
   xmlns:inkscape="http://www.inkscape.org/namespaces/inkscape"
   xmlns:sodipodi="http://sodipodi.sourceforge.net/DTD/sodipodi-0.dtd"
   xmlns="http://www.w3.org/2000/svg"
   xmlns:svg="http://www.w3.org/2000/svg"><defs
   id="defs13" /><sodipodi:namedview
   id="namedview11"
   pagecolor="#505050"
   bordercolor="#ffffff"
   borderopacity="1"
   inkscape:showpageshadow="0"
   inkscape:pageopacity="0"
   inkscape:pagecheckerboard="1"
   inkscape:deskcolor="#505050"
   showgrid="false"
   inkscape:zoom="0.19666667"
   inkscape:cx="1166.9492"
   inkscape:cy="569.49153"
   inkscape:window-width="1536"
   inkscape:window-height="923"
   inkscape:window-x="0"
   inkscape:window-y="0"
   inkscape:window-maximized="1"
   inkscape:current-layer="Layer_1" />
<style
   type="text/css"
   id="style2">
	.st0{fill:#626262;}
	.st1{fill:#CCCCCC;}
</style>
<path
   class="st0"
   d="m 0,0 c 682.7,0 1365.3,0 2048,0 0,341.3 0,682.7 0,1024 -682.7,0 -1365.3,0 -2048,0 C 0,682.7 0,341.3 0,0 Z m 2039.8,1015.8 c 0,-303.7 0,-607.6 0,-911.7 -677.2,0 -1354.4,0 -2031.7,0 0,304 0,607.7 0,911.7 677.2,0 1354.3,0 2031.7,0 z m 0.1,-944 c -274.9,0 -549.3,0 -823.8,0 0,-2.6 0,-5.1 0,-7.9 274.7,0 549.2,0 823.8,0 0,-2.8 0,-5.3 0,-8 -274.7,0 -549.3,0 -823.7,0 0,-2.8 0,-5.3 0,-7.6 0.3,-0.1 0.4,-0.3 0.6,-0.3 274.2,0 548.3,0 822.5,0 0.1,0 0.3,-0.1 0.4,-0.1 0.1,-0.1 0.2,-0.2 0.2,-0.2 0,-2.6 0,-5.1 0,-7.7 -274.6,0 -549.1,0 -823.6,0 0,-2.7 0,-5.3 0,-8 274.6,0 549.1,0 823.6,0 0,-2.7 0,-5.3 0,-8 -274.7,0 -549.1,0 -823.8,0 0.1,-2.7 -0.1,-5.3 0.2,-8 274.8,0 549.2,0 823.7,0 0,-2.6 0,-5.1 0,-7.6 -677.3,0 -1354.6,0 -2031.8,0 0,2.6 0,5.1 0,7.9 277.3,0 554.6,0 831.7,0 0,2.8 0,5.3 0,8 -277.4,0 -554.6,0 -831.7,0 0,2.8 0,5.3 0,7.9 277.1,0 554.1,0 831.1,0 0.1,0 0.3,0.1 0.4,0.2 0.1,0.1 0.2,0.2 0.1,0.1 0,2.7 0,5.1 0,7.7 -277.3,0 -554.4,0 -831.6,0 0,2.7 0,5.3 0,8 277.3,0 554.4,0 831.5,0 0,2.7 0,5.3 0,8 -277.4,0 -554.5,0 -831.8,0 0.3,2.7 -0.2,5.3 0.3,8 277.4,0 554.5,0 831.6,0 0,2.6 0,5.1 0,7.9 -277.3,0 -554.6,0 -831.7,0 0,2.8 0,5.3 0,8 277.4,0 554.6,0 831.7,0 0,2.8 0,5.3 0,7.9 -277.1,0 -554.1,0 -831.1,0 -0.1,0 -0.3,0.1 -0.4,0.2 -0.1,0.1 -0.2,0.2 -0.1,0.2 0,2.7 0,5.1 0,7.6 677.3,0 1354.4,0 2031.6,0 0,-2.7 0,-5.2 0,-8 -274.7,0 -549.1,0 -823.6,0 0,-2.7 0,-5.3 0,-8 274.7,0 549.1,0 823.7,0 0,-2.8 0,-5.2 0,-8.2 z"
   id="path4" />
<path
   class="st1"
   d="m 2039.8,1015.8 c -677.4,0 -1354.5,0 -2031.7,0 0,-303.9 0,-607.7 0,-911.7 677.3,0 1354.5,0 2031.7,0 0,304.1 0,608 0,911.7 z"
   id="path6" />
<path
   class="st1"
   d="m 2039.9,71.8 c 0,3 0,5.4 0,8 -274.5,0 -549,0 -823.7,0 0,2.7 0,5.3 0,8 274.5,0 548.9,0 823.6,0 0,2.7 0,5.3 0,8 -677.2,0 -1354.3,0 -2031.6,0 0,-2.5 0,-4.9 0,-7.6 -0.1,0.1 0,-0.1 0.1,-0.2 0.1,-0.1 0.3,-0.2 0.4,-0.2 277,0 553.9,0 831.1,0 0,-2.6 0,-5.1 0,-7.9 -277.1,0 -554.3,0 -831.7,0 0,-2.8 0,-5.2 0,-8 277.2,0 554.4,0 831.7,0 0,-2.8 0,-5.2 0,-7.9 -277.1,0 -554.2,0 -831.6,0 -0.5,-2.7 0,-5.3 -0.3,-8 277.4,0 554.5,0 831.8,0 0,-2.7 0,-5.3 0,-8 -277.1,0 -554.2,0 -831.5,0 0,-2.7 0,-5.3 0,-8 277.2,0 554.3,0 831.6,0 0,-2.6 0,-5.1 0,-7.7 0.1,0.1 0,-0.1 -0.1,-0.1 -0.1,-0.1 -0.3,-0.2 -0.4,-0.2 -277,0 -553.9,0 -831.1,0 0,-2.6 0,-5.1 0,-7.9 277.1,0 554.3,0 831.7,0 0,-2.8 0,-5.2 0,-8 -277.2,0 -554.4,0 -831.7,0 0,-2.8 0,-5.2 0,-7.9 677.2,0 1354.5,0 2031.8,0 0,2.6 0,5 0,7.6 -274.5,0 -548.9,0 -823.7,0 -0.3,2.7 -0.1,5.3 -0.2,8 274.7,0 549.1,0 823.8,0 0,2.7 0,5.3 0,8 -274.5,0 -548.9,0 -823.6,0 0,2.7 0,5.3 0,8 274.5,0 549,0 823.6,0 0,2.6 0,5.1 0,7.7 0.1,-0.1 0,0.1 -0.2,0.2 -0.1,0.1 -0.3,0.1 -0.4,0.1 -274.2,0 -548.3,0 -822.5,0 -0.1,0 -0.3,0.1 -0.6,0.3 0,2.4 0,4.8 0,7.6 274.5,0 549,0 823.7,0 0,2.8 0,5.2 0,8 -274.5,0 -549.1,0 -823.8,0 0,2.8 0,5.2 0,7.9 274.5,0.2 548.9,0.2 823.8,0.2 z"
   id="path8" />
</svg>
