<?xml version="1.0" encoding="UTF-8" standalone="no"?>
<!-- Generator: Adobe Illustrator 25.0.0, SVG Export Plug-In . SVG Version: 6.00 Build 0)  -->

<svg
   version="1.1"
   id="Layer_1"
   inkscape:version="1.2.2 (b0a8486541, 2022-12-01)"
   sodipodi:docname="CBMAvatar-Green.svg"
   x="0px"
   y="0px"
   viewBox="0 0 384 366"
   style="enable-background:new 0 0 384 366;"
   xml:space="preserve"
   xmlns:inkscape="http://www.inkscape.org/namespaces/inkscape"
   xmlns:sodipodi="http://sodipodi.sourceforge.net/DTD/sodipodi-0.dtd"
   xmlns="http://www.w3.org/2000/svg"
   xmlns:svg="http://www.w3.org/2000/svg"><defs
   id="defs7" />
<style
   type="text/css"
   id="style2">
	.st0{fill:#76BB61;}
</style>
<sodipodi:namedview
   bordercolor="#ffffff"
   borderopacity="1"
   id="namedview17"
   inkscape:current-layer="Layer_1"
   inkscape:cx="77.73572"
   inkscape:cy="131.00639"
   inkscape:deskcolor="#505050"
   inkscape:pagecheckerboard="1"
   inkscape:pageopacity="0"
   inkscape:showpageshadow="0"
   inkscape:window-height="923"
   inkscape:window-maximized="1"
   inkscape:window-width="1536"
   inkscape:window-x="0"
   inkscape:window-y="0"
   inkscape:zoom="2.5342275"
   pagecolor="#505050"
   showgrid="false">
	</sodipodi:namedview>
<path
   id="path4"
   class="st0"
   d="m 224.2,366 c -53.2,0 -106.5,0 -159.7,0 0,-5.20142 0,-12.20333 0,-17.40476 -4.8,0 -8.1,0 -12.9,0 0,-5.20142 0,-10.50287 0,-17.40475 -4.8,0 -8.1,0 -12.9,0 0,-5.20142 0,-10.50287 0,-17.40476 -4.8,0 -8.1,0 -12.9,0 0,-5.20142 0,-12.20333 0,-17.40475 -4.8,0 -8.1,0 -12.9,0 0,-7.00191 0,-12.20334 0,-17.40476 -4.8,0 -9.7,0 -12.9,0 0,-64.61765 0,-127.33479 0,-191.952443 4.8,0 8.1,0 12.9,0 0,-5.201421 0,-12.203334 0,-17.404755 4.8,0 8.1,0 12.9,0 0,-5.201422 0,-12.203335 0,-17.404756 3.2,0 6.5,0 11.3,0 0,-5.201421 0,-10.502869 0,-17.404755 4.8,0 8.1,0 12.9,0 0,-5.201421 0,-10.50287 0,-17.404756 4.8,0 8.1,0 12.9,0 0,-7.001913 0,-12.2033338 0,-17.404755 53.2,0 106.5,0 159.7,0 0,29.60809 0,57.515715 0,87.223832 1.6,0 3.2,0 6.5,0 50,0 100,0 150.1,0 1.6,0 3.2,0 4.8,0 0,5.201421 0,12.203334 0,17.404758 -4.8,0 -8.1,0 -12.9,0 0,5.20142 0,10.50287 0,17.40475 -4.8,0 -8.1,0 -12.9,0 0,5.20142 0,10.50287 0,17.40476 -4.8,0 -8.1,0 -12.9,0 0,5.20142 0,10.50287 0,17.40475 -4.8,0 -8.1,0 -12.9,0 0,7.00192 0,10.50287 0,17.40476 -40.3,0 -79.1,0 -119.4,0 0,-29.60809 0,-57.51572 0,-85.523368 -32.3,0 -62.9,0 -93.6,0 0,5.201421 0,10.502869 0,17.404758 -8.1,-1.70047 -11.3,-1.70047 -16.1,-1.70047 0,5.20142 0,12.20334 0,17.40476 -4.8,0 -9.7,0 -12.9,0 0,41.81142 0,82.02241 0,122.13337 4.8,0 8.1,0 12.9,0 0,5.20142 0,10.50287 0,17.40475 4.8,0 8.1,0 12.9,0 0,5.20142 0,10.50287 0,15.70429 32.3,0 62.9,0 93.6,0 0,-29.60809 0,-57.51571 0,-85.52336 40.3,0 79.1,0 119.4,0 0,5.20142 0,10.50287 0,17.40475 4.8,0 8.1,0 12.9,0 0,7.00192 0,12.20334 0,17.40476 4.8,0 8.1,0 12.9,0 0,5.20142 0,12.20333 0,17.40475 4.8,0 8.1,0 12.9,0 0,7.00192 0,12.20334 0,17.40476 4.8,0 9.7,0 12.9,0 0,5.20142 0,12.20333 0,17.40475 -1.6,0 -1.6,0 -3.2,0 -51.6,0 -101.6,0 -153.3,0 -1.6,0 -3.2,0 -4.8,0 4.7,29.80815 4.7,57.71577 4.7,87.42389 z"
   style="stroke-width:1.00014" />
</svg>
