<?xml version="1.0" encoding="UTF-8" standalone="no"?>
<!-- Generator: Adobe Illustrator 25.0.0, SVG Export Plug-In . SVG Version: 6.00 Build 0)  -->

<svg
   version="1.1"
   id="Layer_1"
   x="0px"
   y="0px"
   viewBox="0 0 1632 1020"
   xml:space="preserve"
   sodipodi:docname="CBMBackground-Snow.svg"
   width="1632"
   height="1020"
   inkscape:version="1.2.2 (b0a8486541, 2022-12-01)"
   xmlns:inkscape="http://www.inkscape.org/namespaces/inkscape"
   xmlns:sodipodi="http://sodipodi.sourceforge.net/DTD/sodipodi-0.dtd"
   xmlns="http://www.w3.org/2000/svg"
   xmlns:svg="http://www.w3.org/2000/svg"><defs
   id="defs79" /><sodipodi:namedview
   id="namedview77"
   pagecolor="#505050"
   bordercolor="#ffffff"
   borderopacity="1"
   inkscape:showpageshadow="0"
   inkscape:pageopacity="0"
   inkscape:pagecheckerboard="1"
   inkscape:deskcolor="#505050"
   showgrid="false"
   inkscape:zoom="0.54660447"
   inkscape:cx="849.79181"
   inkscape:cy="495.78812"
   inkscape:window-width="1536"
   inkscape:window-height="923"
   inkscape:window-x="0"
   inkscape:window-y="0"
   inkscape:window-maximized="1"
   inkscape:current-layer="Layer_1" />
<style
   type="text/css"
   id="style2">
	.st0{fill:#FFFFFF;}
</style>



































<path
   d="m 815.82902,1022.9617 c -270.29735,0 -540.5947,0 -810.8920489,0 -1.4999853,0 -3.5999647,0.6 -4.29995782,-0.2 -0.69999314,-0.7 -0.19999804,-2.8 -0.19999804,-4.3001 0,-336.9036 0,-673.70724 0,-1010.6108738 0,-1.5000162 -0.59999412,-3.6000389 0.19999804,-4.3000465 C 1.3370064,2.8506722 3.4369858,3.3506776 4.9369711,3.3506776 c 540.8946989,0 1081.8894289,0 1622.7841289,0 1.5,0 2.9999,0 4.4999,0 0,1.5000162 0,3.0000324 0,4.5000486 0,336.9036338 0,673.7072738 0,1010.6108738 0,1.5001 0,3.0001 0,4.5001 -1.5,0 -2.9999,0 -4.4999,0 -270.5974,0 -541.2947,0 -811.89208,0 z m -4.69995,-20.0002 c 255.29753,0 510.49503,0 765.79253,0 2.9999,0 5.9999,-0.1 8.8999,-0.1 0.1,-3.10006 0.3,-6.20009 0.4,-9.30013 0,-13.20014 0,-26.30028 0,-39.50042 0,-1.30002 -0.1,-2.10003 -1.8,-2.10003 -4,0.1 -7.9999,0 -11.9999,0.1 -0.4,0 -1,0.60001 -1.2,1.00001 -0.2,0.60001 -0.1,1.30002 0,2.00003 0.2,1.50001 -0.3,2.00002 -1.9,2.00002 -8.7999,-0.1 -17.6998,0 -26.4997,0 -2.5,0 -2.5,0 -2.7,2.60003 -0.1,2.30002 -0.1,2.40002 -2.4,2.40002 -6.2999,0 -12.6998,0 -18.9998,0 -25.9997,0 -51.9995,0 -77.9992,0 -2.5,0 -2.5,0 -2.6,2.20003 -0.1,2.80003 -0.1,2.80003 -2.9999,2.80003 -15.1999,0 -30.2997,0 -45.4996,0 -2.4,0 -2.4,0 -2.5,2.30002 -0.1,2.70003 -0.1,2.70003 -2.5999,2.70003 -0.8,0 -1.7,0 -2.5,0 -218.5979,0 -437.19574,0 -655.7936,0 -172.29831,0 -344.59662,0 -516.89493,0 -0.79999,0 -1.69999,0 -2.49998,0 -2.39997,0 -2.39997,0 -2.49997,-2.20002 0,-0.30001 0,-0.70001 0,-1.00002 0.29999,-1.70001 -0.7,-1.90002 -1.99998,-1.80001 -0.8,0.1 -1.69999,0 -2.49998,0 -24.29976,0 -48.69952,0 -72.99928,0 -1.19999,0 -2.29998,0.1 -3.49997,0 -0.3,0 -0.89999,-0.50001 -0.89999,-0.80001 -0.1,-0.80001 -0.1,-1.70002 0,-2.50003 0.1,-1.30001 -0.3,-1.70002 -1.59998,-1.70002 -5.29995,0.1 -10.6999,0 -15.99985,0 -2.29998,0 -2.29998,0 -2.39997,-2.40002 -0.1,-2.60003 -0.1,-2.60003 -2.699978,-2.60003 -12.699875,0 -25.299752,0 -37.999627,0 -2.799973,0 -5.699945,-0.1 -8.499917,0 -1.699984,0.1 -1.999981,-0.60001 -1.799983,-2.00002 0,-0.20001 0,-0.30001 0,-0.50001 -0.1,-2.50003 -0.1,-2.50003 -2.799972,-2.50003 -2.999971,0 -5.999941,0 -8.999912,0 -3.199969,0 -3.199969,0 -3.199969,3.10004 0,14.20015 0,28.3003 0,42.50046 0,1.80002 0.199998,3.60008 0.399997,5.30008 1.699983,0 3.299967,0.1 4.999951,0.1 256.39749,-0.1 512.79497,-0.1 769.29246,-0.1 z M 1198.2253,305.45394 c 0,0 0,0 0,0 0.1,0.50001 0.1,1.00001 0.1,1.50002 0,4.30004 0,4.30004 4.4999,4.30004 2.1,0 4.2,-0.2 6.3,-0.3 0.1,-2.10002 0.2,-4.30005 0.2,-6.40007 0,-4.30005 0,-4.30005 -4.5,-4.30005 -0.5,0 -1,0 -1.5,0 -1.6,0.10001 -3.8999,-0.4 -4.6999,0.50001 -0.9,0.90001 -0.3,3.10003 -0.4,4.70005 z M 183.93522,596.25708 c 1.79998,-0.2 3.49996,-0.3 5.29995,-0.5 0.1,-1.60002 0.1,-3.30004 0.19999,-4.90006 0,-1.00001 0,-2.00002 0,-3.00003 0.1,-1.10001 0,-1.90002 -1.49998,-1.80002 -2.59998,0.1 -5.29995,0.1 -7.99992,0 -0.99999,0 -1.59999,0.1 -1.49999,1.30001 0.1,1.00002 0,2.00003 0,3.00004 0,1.80002 -0.59999,4.20004 0.4,5.20005 0.79999,1.00001 3.29996,0.50001 5.09995,0.70001 z m 203.998,-529.805721 c 1.69998,-0.200002 3.49996,-0.300003 5.29995,-0.500005 0.1,-1.600018 0.1,-3.300036 0.1,-4.900053 0,-1.000011 0,-2.000022 0,-3.000033 0.1,-1.100012 -0.1,-1.90002 -1.49998,-1.800019 -2.59998,0.100001 -5.29995,0.100001 -7.99992,0 -0.99999,0 -1.59999,0.100001 -1.49999,1.300014 0.1,1.000011 0,2.000022 0,3.000032 0,1.80002 -0.59999,4.200046 0.4,5.200056 0.89999,1.100012 3.39997,0.600007 5.19995,0.700008 z M 107.53597,713.55835 c -0.2,-1.80002 -0.3,-3.50004 -0.5,-5.30006 -1.59998,-0.1 -3.29997,-0.1 -4.89995,-0.2 -1.19999,0 -2.299979,0 -3.499967,0 -1.199988,-0.1 -1.299987,0.6 -1.299987,1.50001 0,2.70003 0,5.30006 0,8.00009 0,1.00001 0.1,1.60002 1.299987,1.50002 0.99999,-0.1 1.999977,0 2.999967,0 1.79999,0 4.19996,0.6 5.19995,-0.40001 1.09999,-0.80001 0.6,-3.30003 0.7,-5.10005 z m 203.898,-611.50661 c 0,0 0,0 0,0 -0.1,-1.50001 -0.1,-3.000029 -0.1,-4.500045 0,-1.200013 -0.6,-1.400015 -1.49999,-1.300014 -0.49999,0 -0.99999,0 -1.49998,0 -2.29998,0.100001 -4.59996,0.200002 -6.79994,0.300003 -0.1,2.100023 -0.1,4.300046 -0.19999,6.400066 0,4.30005 0,4.30005 4.49995,4.20005 1.79998,0 3.59997,-0.2 5.29995,-0.3 0.2,-1.50002 0.3,-3.10004 0.3,-4.80006 z m 1060.98963,-0.2 c -0.2,-1.80002 -0.3,-3.500036 -0.5,-5.300056 -1.6,-0.100001 -3.3,-0.100001 -4.9,-0.200002 -1.2,0 -2.3,0 -3.4999,0 -1.2,-0.100001 -1.3,0.600006 -1.3,1.500016 0,2.700032 0,5.300062 0,8.000082 0,1.00002 0.1,1.60002 1.3,1.50002 0.9999,-0.1 1.9999,0 2.9999,0 1.8,0 4.2,0.60001 5.2,-0.4 1,-0.90001 0.5,-3.30004 0.7,-5.10006 z m 35.3996,780.30843 c 1.7,-0.2 3.5,-0.3 5.3,-0.50001 0.1,-1.60001 0.1,-3.30003 0.1,-4.90005 0,-1.00001 0,-2.00002 0,-3.00003 0.1,-1.10001 -0.1,-1.90002 -1.5,-1.80002 -2.6,0.1 -5.3,0.1 -7.9999,0 -1,0 -1.6,0.1 -1.5,1.30001 0.1,1.00001 0,2.00002 0,3.00003 0,1.80002 -0.6,4.20005 0.4,5.20006 0.9,1.00001 3.3999,0.50001 5.1999,0.70001 z M 56.336467,305.45394 c 0.1,0 0.1,0 0,0 0.1,1.30001 0.199998,2.70003 0,4.00004 -0.199998,1.70002 0.699994,1.90002 1.999981,1.80002 0.299997,0 0.699993,0 0.99999,0 2.299977,-0.1 4.599955,-0.2 6.799933,-0.3 0.1,-2.10002 0.1,-4.30005 0.199998,-6.40007 0,-4.20004 0,-4.30005 -4.499955,-4.20004 -1.799983,0 -3.599965,0.2 -5.299949,0.3 0,1.60002 -0.1,3.20003 -0.199998,4.80005 z M 1331.424,918.06056 c -0.1,0 -0.1,0 -0.2,0 0,-1.30002 -0.1,-2.70003 0,-4.00005 0.1,-1.30001 0,-2.30002 -1.8,-2.00002 -0.8,0.1 -1.7,0 -2.5,0 -1.8,0 -3.5999,0.1 -5.3999,0.2 -0.1,1.90002 -0.3,3.90005 -0.3,5.80007 0,1.60001 -0.4,3.90004 0.5,4.70005 0.9,0.80001 3.0999,0.3 4.6999,0.3 1.5,0 3.7,0.50001 4.2,-0.3 1,-1.20002 0.6,-3.10004 0.8,-4.70005 z M 387.63322,25.450916 c 0,0 0,-0.100001 0,0 1.49999,-0.100001 2.99997,-0.100001 4.49996,-0.100001 1.19998,0 1.39998,-0.600006 1.29998,-1.500016 0,-0.500005 0,-1.000011 0,-1.500016 -0.1,-2.300025 -0.19999,-4.60005 -0.29999,-6.800074 -2.09998,-0.100001 -4.29996,-0.100001 -6.39994,-0.200002 -4.29996,0 -4.29996,0 -4.19996,4.500049 0,1.800019 0.2,3.600039 0.3,5.300057 1.49998,0.100001 3.19997,0.200002 4.79995,0.300003 z m 407.996,366.803964 c 0,0 0,0 0,0 1.49999,-0.1 2.99997,-0.1 4.49996,-0.1 1.19999,0 1.39998,-0.60001 1.29999,-1.50002 0,-0.5 0,-1.00001 0,-1.50002 -0.1,-2.30002 -0.2,-4.60005 -0.3,-6.80007 -2.09998,-0.1 -4.29996,-0.1 -6.39994,-0.2 -4.29996,0 -4.29996,0 -4.19996,4.50005 0,1.80002 0.2,3.60004 0.3,5.30005 1.49998,0.20001 3.09997,0.20001 4.79995,0.30001 z m 203.898,41.00044 c 0,0 0,0 0,0 1.19998,-0.1 2.29998,-0.1 3.49998,-0.1 2.3,0 2.3,0 2.3,-2.50003 0,-2.40002 -0.2,-4.90005 -0.3,-7.30008 -2.5,-0.1 -4.9,-0.2 -7.39996,-0.2 -3.29996,0 -3.29996,0 -3.29996,3.50004 0,0.5 0,1.00001 0,1.50002 0.1,1.60001 -0.4,3.90004 0.49999,4.70005 0.89999,0.8 3.09997,0.3 4.69995,0.4 z M 673.43042,25.550917 c 1.59998,-0.200002 3.59996,0.200002 4.69995,-0.700007 0.7,-0.600007 0.3,-2.80003 0.3,-4.200046 0,-1.600017 0.5,-3.800041 -0.3,-4.70005 -0.79999,-0.90001 -3.09997,-0.500006 -4.69995,-0.500006 -1.59998,0 -3.59996,-0.300003 -4.69995,0.500006 -0.7,0.500005 -0.3,2.80003 -0.3,4.200045 0,1.600017 -0.5,3.800041 0.3,4.700051 0.79999,0.900009 2.99997,0.500005 4.69995,0.700007 z m 0.1,30.700332 c -1.49999,0.100001 -3.69996,-0.400004 -4.59996,0.400004 -0.89999,0.800009 -0.49999,3.100034 -0.49999,4.700051 0,1.600017 -0.3,3.600039 0.49999,4.700051 0.5,0.700007 2.79998,0.300003 4.19996,0.300003 1.59999,0 3.79997,0.500005 4.69996,-0.300003 0.89999,-0.800009 0.49999,-3.100034 0.49999,-4.700051 0,-1.600017 0.3,-3.600039 -0.49999,-4.700051 -0.5,-0.800008 -2.79998,-0.300003 -4.29996,-0.400004 z m -367.3964,91.100981 c 1.69998,-0.1 3.89996,0.40001 4.79995,-0.4 0.89999,-0.80001 0.5,-3.00003 0.5,-4.70005 0,-1.60002 0.39999,-3.90004 -0.5,-4.70005 -0.89999,-0.80001 -3.09997,-0.30001 -4.69995,-0.30001 -1.49999,0 -3.69997,-0.5 -4.19996,0.30001 -0.79999,1.10001 -0.5,3.10003 -0.5,4.70005 0,1.60001 -0.29999,3.60004 0.5,4.70005 0.4,0.80001 2.59997,0.3 4.09996,0.4 z m 943.19078,-4.90005 c -0.1,-1.50002 0.4,-3.70004 -0.4,-4.60005 -0.8,-0.90001 -3.1,-0.50001 -4.7,-0.50001 -1.6,0 -3.5999,-0.3 -4.6999,0.50001 -0.7,0.50001 -0.3,2.80003 -0.3,4.20005 0,1.60001 -0.5,3.80004 0.3,4.70005 0.8,0.90001 3.0999,0.5 4.6999,0.5 1.6,0 3.6,0.3 4.7,-0.5 0.8,-0.50001 0.3,-2.70003 0.4,-4.30005 z m -325.89683,41.10044 c -0.1,-1.70001 0.4,-3.90004 -0.4,-4.80005 -0.79999,-0.90001 -2.99997,-0.5 -4.69995,-0.5 -1.59998,0 -3.89996,-0.40001 -4.69995,0.5 -0.8,0.90001 -0.3,3.10004 -0.3,4.70005 0,1.50002 -0.5,3.70004 0.3,4.20005 1.09999,0.80001 3.09997,0.5 4.69995,0.5 1.59998,0 3.59996,0.30001 4.69995,-0.5 0.7,-0.40001 0.3,-2.60003 0.4,-4.10005 z m 402.89603,4.90006 c 1.6,-0.20001 3.6,0.2 4.7,-0.70001 0.7,-0.60001 0.3,-2.80003 0.3,-4.20005 0,-1.60001 0.5,-3.80004 -0.3,-4.70005 -0.8,-0.90001 -3,-0.5 -4.7,-0.5 -1.6,0 -3.5999,-0.30001 -4.6999,0.5 -0.7,0.50001 -0.3,2.80003 -0.3,4.20005 0,1.60002 -0.5,3.80004 0.3,4.80005 0.8,0.80001 2.9999,0.4 4.6999,0.60001 z m 244.6976,-0.1 c 1.6,-0.10001 3.3,-0.10001 4.9,-0.20001 0.1,-1.80002 0.3,-3.60004 0.3,-5.30005 0,-4.50005 0,-4.50005 -4.7,-4.50005 -1.6,0 -3.2999,0.1 -4.8999,0.1 -0.1,1.80002 -0.3,3.60004 -0.3,5.30006 -0.1,4.50004 -0.1,4.50004 4.6999,4.60005 z m -938.79078,41.00044 c 1.49999,-0.1 3.69997,0.4 4.59996,-0.40001 0.89999,-0.8 0.49999,-3.10003 0.49999,-4.70005 0,-1.60001 0.3,-3.60004 -0.49999,-4.70005 -0.5,-0.70001 -2.79997,-0.3 -4.19996,-0.3 -1.59998,0 -3.79996,-0.50001 -4.69995,0.3 -0.9,0.80001 -0.5,3.10004 -0.5,4.70005 0,1.60002 -0.3,3.60004 0.5,4.70005 0.49999,0.80001 2.69997,0.30001 4.29995,0.40001 z m 122.7988,-0.1 c 0.5,0 0.99999,0 1.49999,0 3.79996,0 3.79996,0 3.79996,-4.00005 0,-1.90002 -0.2,-3.90004 -0.3,-5.80006 -1.99998,-0.1 -3.89996,-0.2 -5.89994,-0.2 -3.79996,0 -3.79996,0 -3.79996,4.00004 0,0.50001 0,1.00001 0,1.50002 0,4.50005 0,4.50005 4.69995,4.50005 z m 611.99398,0.1 c 1.6,-0.1 3.3,-0.1 4.9,-0.2 0.1,-1.80002 0.3,-3.60004 0.3,-5.30006 0,-4.50005 0,-4.50005 -4.7,-4.50005 -1.6,0 -3.2999,0.1 -4.8999,0.1 -0.1,1.80002 -0.3,3.60004 -0.3,5.30006 -0.1,4.50005 -0.1,4.50005 4.6999,4.60005 z m -652.59358,41.10044 c 1.59998,-0.2 3.59996,0.2 4.69995,-0.70001 0.7,-0.6 0.3,-2.80003 0.3,-4.20004 0,-1.60002 0.49999,-3.80004 -0.3,-4.70005 -0.79999,-0.90001 -2.99997,-0.50001 -4.69995,-0.50001 -1.59999,0 -3.59997,-0.3 -4.69996,0.50001 -0.69999,0.5 -0.29999,2.80003 -0.29999,4.20004 0,1.60002 -0.5,3.80004 0.29999,4.80006 0.8,0.8 2.99997,0.4 4.69996,0.6 z m -606.99405,76.00082 c 0,-0.5 0,-1.00001 0,-1.50001 0,-3.80004 0,-3.80004 -3.99996,-3.80004 -1.89999,0 -3.899966,0.2 -5.799947,0.3 -0.1,2.00002 -0.199998,3.90004 -0.199998,5.90006 0,3.80004 0,3.80004 3.999965,3.80004 0.49999,0 0.99999,0 1.49998,0 4.49996,0.1 4.49996,0.1 4.49996,-4.70005 z m 611.994,285.90309 c -0.1,-1.70002 0.4,-3.90004 -0.4,-4.80005 -0.79999,-0.90001 -2.99997,-0.50001 -4.69995,-0.50001 -1.59999,0 -3.89996,-0.4 -4.69995,0.50001 -0.8,0.90001 -0.3,3.10003 -0.3,4.70005 0,1.50002 -0.5,3.70004 0.3,4.20005 1.09998,0.8 3.09996,0.5 4.69995,0.5 1.59998,0 3.59996,0.3 4.69995,-0.5 0.8,-0.40001 0.3,-2.60003 0.4,-4.10005 z m 815.99203,40.70044 c -0.2,-1.60002 0.2,-3.60004 -0.7,-4.70005 -0.6,-0.70001 -2.8,-0.2 -4.2,-0.3 -0.3,0 -0.7,0 -1,0 -4.1999,0 -4.2999,0 -4.1999,4.50004 0,1.80002 0.2,3.60004 0.3,5.30006 1.6,0.1 3.2999,0.1 4.8999,0.1 1.5,0 3.7,0.50001 4.2,-0.3 0.8,-1.00001 0.5,-2.90003 0.7,-4.60005 z m -449.0956,-203.7022 c -0.1,-1.60002 0.4,-3.80004 -0.4,-4.70005 -0.8,-0.90001 -3.1,-0.50001 -4.7,-0.50001 -1.6,0 -3.5999,-0.3 -4.6999,0.50001 -0.7,0.50001 -0.3,2.80003 -0.3,4.20004 0,1.60002 -0.5,3.80005 0.3,4.70006 0.8,0.90001 2.9999,0.5 4.6999,0.5 1.6,0 3.6,0.3 4.7,-0.5 0.8,-0.40001 0.4,-2.70003 0.4,-4.20005 z M 913.22807,753.95878 c 0.1,1.50002 -0.4,3.70004 0.4,4.60005 0.79999,0.90001 3.09997,0.50001 4.69995,0.50001 1.59998,0 3.59996,0.3 4.69995,-0.50001 0.7,-0.5 0.3,-2.80003 0.3,-4.20004 0,-1.60002 0.5,-3.80004 -0.3,-4.70005 -0.79999,-0.90001 -3.09997,-0.50001 -4.69995,-0.50001 -1.59998,0 -3.59996,-0.3 -4.69995,0.50001 -0.8,0.5 -0.3,2.70003 -0.4,4.30004 z m 255.09753,41.30045 c -0.1,-1.60002 0.4,-3.80004 -0.4,-4.70005 -0.8,-0.90001 -3.1,-0.50001 -4.7,-0.50001 -1.6,0 -3.5999,-0.3 -4.6999,0.50001 -0.7,0.5 -0.3,2.80003 -0.3,4.20004 0,1.60002 -0.5,3.80005 0.3,4.70006 0.8,0.90001 2.9999,0.5 4.6999,0.5 1.6,0 3.6,0.3 4.7,-0.5 0.8,-0.50001 0.4,-2.70003 0.4,-4.20005 z m -652.89363,41.00044 c -0.1,-1.60001 0.39999,-3.80004 -0.4,-4.70005 -0.79999,-0.90001 -3.09997,-0.5 -4.69995,-0.5 -1.59999,0 -3.59997,-0.30001 -4.69996,0.5 -0.69999,0.50001 -0.29999,2.80003 -0.29999,4.20005 0,1.60001 -0.5,3.80004 0.29999,4.70005 0.8,0.90001 2.99997,0.5 4.69996,0.5 1.59998,0 3.59996,0.30001 4.69995,-0.5 0.79999,-0.50001 0.3,-2.70003 0.4,-4.20005 z m 320.99685,4.90006 c 1.59999,-0.20001 3.59997,0.2 4.69996,-0.70001 0.69999,-0.60001 0.29999,-2.80003 0.29999,-4.20005 0,-1.60001 0.5,-3.80004 -0.29999,-4.70005 -0.8,-0.90001 -3.09997,-0.5 -4.69996,-0.5 -1.59998,0 -3.59996,-0.30001 -4.69995,0.5 -0.69999,0.50001 -0.3,2.80003 -0.3,4.20005 0,1.60001 -0.49999,3.80004 0.3,4.70005 0.69999,1.00001 2.99997,0.5 4.69995,0.70001 z M 229.53477,550.25658 c -0.1,-1.50001 0.4,-3.70004 -0.4,-4.60005 -0.79999,-0.90001 -3.09997,-0.5 -4.69995,-0.5 -1.59998,0 -3.59996,-0.3 -4.69995,0.5 -0.7,0.50001 -0.3,2.80003 -0.3,4.20005 0,1.60002 -0.5,3.80004 0.3,4.70005 0.79999,0.90001 3.09997,0.50001 4.69995,0.50001 1.59998,0 3.59996,0.3 4.69995,-0.50001 0.8,-0.5 0.3,-2.70003 0.4,-4.30005 z M 1372.4236,346.15438 c -0.2,-1.60002 0.2,-3.60004 -0.7,-4.60005 -0.6,-0.70001 -2.8,-0.3 -4.2,-0.3 -1.6,0 -3.7999,-0.50001 -4.6999,0.3 -0.9,0.80001 -0.5,3.10003 -0.5,4.70005 0,1.60002 -0.3,3.60004 0.5,4.70005 0.5,0.70001 2.7999,0.3 4.1999,0.3 1.6,0 3.8,0.50001 4.7,-0.3 0.9,-0.90001 0.5,-3.10003 0.7,-4.80005 z m -87.3992,5.10005 c 1.6,-0.1 3.8,0.40001 4.8,-0.4 0.9,-0.80001 0.5,-3.00003 0.5,-4.70005 0,-1.60002 0.4,-3.90004 -0.5,-4.70005 -0.9,-0.80001 -3.1,-0.3 -4.7,-0.3 -1.5,0 -3.6999,-0.50001 -4.1999,0.3 -0.8,1.10001 -0.5,3.10003 -0.5,4.70005 0,1.60002 -0.3,3.60004 0.5,4.70005 0.4,0.80001 2.5999,0.4 4.0999,0.4 z"
   id="path4" /><path
   class="st0"
   d="m 811.12907,1002.9615 c -256.39749,0 -512.89497,0 -769.29246,0 -1.699984,0 -3.299968,-0.1 -4.999951,-0.1 -0.1,-1.8 -0.399997,-3.60007 -0.399997,-5.30009 0,-14.20015 0,-28.3003 0,-42.50045 0,-3.00004 0,-3.00004 3.199969,-3.10004 2.999971,0 5.999941,0 8.999912,0 2.699973,0 2.699973,0 2.799972,2.50003 0,0.2 0,0.3 0,0.5 -0.199998,1.40002 0.199998,2.10003 1.799983,2.00003 2.799972,-0.1 5.699944,0 8.499917,0 12.699875,0 25.299752,0 37.999627,0 2.599978,0 2.599978,0 2.699978,2.60002 0.1,2.40003 0.1,2.40003 2.39997,2.40003 5.29995,0 10.6999,0.1 15.99985,0 1.39998,0 1.69998,0.50001 1.59998,1.70002 -0.1,0.80001 -0.1,1.70002 0,2.50003 0.1,0.3 0.59999,0.8 0.89999,0.8 1.19999,0.10001 2.29998,0 3.49997,0 24.29976,0 48.69952,0 72.99928,0 0.79999,0 1.69998,0.10001 2.49998,0 1.29998,-0.1 2.29997,0 1.99998,1.80002 -0.1,0.30001 0,0.70001 0,1.00001 0.1,2.20003 0.1,2.20003 2.49997,2.20003 0.79999,0 1.69999,0 2.49998,0 172.29831,0 344.59662,0 516.89493,0 218.59786,0 437.1957,0 655.7936,0 0.8,0 1.7,0 2.5,0 2.3999,0 2.3999,0 2.5999,-2.70003 0.1,-2.30003 0.1,-2.30003 2.5,-2.30003 15.1999,0 30.2997,0 45.4996,0 2.8999,0 2.8999,0 2.9999,-2.80003 0.1,-2.20002 0.1,-2.20002 2.6,-2.20002 25.9997,0 51.9995,0 77.9992,0 6.3,0 12.6999,0 18.9998,0 2.3,0 2.3,0 2.4,-2.40003 0.1,-2.60002 0.1,-2.60002 2.7,-2.60002 8.7999,0 17.6998,0 26.4997,0 1.6,0 2,-0.50001 1.9,-2.00003 -0.1,-0.7 -0.2,-1.40001 0,-2.00002 0.2,-0.4 0.8,-1.00001 1.2,-1.00001 4,-0.1 7.9999,0 11.9999,-0.1 1.7,-0.1 1.8,0.70001 1.8,2.10002 0,13.20015 0,26.30029 0,39.50043 0,3.10003 -0.2,6.20007 -0.4,9.30013 -3,0 -6,0.1 -8.8999,0.1 -255.2975,0.1 -510.595,0.1 -765.79253,0.1 z"
   id="path6" /><path
   class="st0"
   d="m 1198.2253,305.45394 c 0.1,-1.60002 -0.4,-3.80004 0.4,-4.70005 0.8,-0.90001 3.0999,-0.4 4.6999,-0.50001 0.5,0 1,0 1.5,0 4.5,0 4.5,0 4.5,4.30005 0,2.10002 -0.1,4.30005 -0.2,6.40007 -2.1,0.1 -4.2,0.3 -6.3,0.3 -4.4999,0 -4.4999,0 -4.4999,-4.30004 0,-0.50001 0,-1.00001 -0.1,-1.50002 0,0 0,0 0,0 z"
   id="path8" /><path
   class="st0"
   d="m 183.93522,596.25708 c -1.79999,-0.2 -4.29996,0.3 -5.19995,-0.60001 -0.89999,-1.00001 -0.3,-3.40003 -0.4,-5.20005 0,-1.00001 0,-2.00002 0,-3.00003 -0.1,-1.20002 0.6,-1.30002 1.49999,-1.30002 2.69997,0 5.29995,0.1 7.99992,0 1.49998,-0.1 1.59998,0.70001 1.49998,1.80002 -0.1,1.00001 0,2.00002 0,3.00003 0,1.60002 -0.1,3.30004 -0.19999,4.90006 -1.59999,0.1 -3.39997,0.2 -5.19995,0.4 z"
   id="path10" /><path
   class="st0"
   d="m 387.93322,66.451359 c -1.79998,-0.200002 -4.29996,0.300003 -5.19995,-0.600006 -0.89999,-1.000011 -0.3,-3.400037 -0.4,-5.200057 0,-1.00001 0,-2.000021 0,-3.000032 -0.1,-1.200013 0.5,-1.300014 1.49999,-1.300014 2.69997,0 5.29995,0.100001 7.99992,0 1.49998,-0.100001 1.59998,0.700008 1.49998,1.800019 -0.1,1.000011 0,2.000022 0,3.000033 0,1.600017 -0.1,3.300035 -0.1,4.900053 -1.79999,0.100001 -3.49997,0.300003 -5.29995,0.400004 z"
   id="path12"
   style="fill:#000000;fill-opacity:1" /><path
   class="st0"
   d="m 107.53597,713.55835 c -0.2,1.80002 0.29999,4.30004 -0.6,5.20005 -0.99999,0.90001 -3.39997,0.30001 -5.19995,0.40001 -0.99999,0 -1.999978,0 -2.999968,0 -1.199988,0.1 -1.299987,-0.60001 -1.299987,-1.50002 0,-2.70003 0,-5.30006 0,-8.00008 0,-1.00002 0.1,-1.60002 1.299987,-1.50002 1.199988,0.1 2.299978,0 3.499968,0 1.59998,0 3.29997,0.1 4.89995,0.2 0.1,1.70002 0.3,3.40004 0.4,5.20006 z"
   id="path14" /><path
   class="st0"
   d="m 311.43397,102.05174 c -0.1,1.60002 -0.2,3.30004 -0.2,4.90006 -1.79998,0.1 -3.59997,0.3 -5.29995,0.3 -4.49995,0 -4.49995,0 -4.49995,-4.20005 0,-2.10002 0.1,-4.300042 0.19999,-6.400065 2.29998,-0.100001 4.59996,-0.200002 6.79994,-0.300003 0.49999,0 0.99999,0 1.49998,0 0.99999,-0.100001 1.59999,0.100001 1.49999,1.300014 -0.1,1.400015 0,2.900034 0,4.400044 0,0 0,0 0,0 z"
   id="path16" /><path
   class="st0"
   d="m 1372.4236,101.85174 c -0.2,1.80002 0.3,4.30005 -0.6,5.20006 -1,0.90001 -3.4,0.3 -5.2,0.4 -1,0 -2,0 -2.9999,0 -1.2,0.1 -1.3,-0.6 -1.3,-1.50001 0,-2.70003 0,-5.30006 0,-8.000091 0,-1.000011 0.1,-1.600017 1.3,-1.500016 1.1999,0.100001 2.2999,0 3.4999,0 1.6,0 3.3,0.100001 4.9,0.200002 0.1,1.600017 0.2,3.400035 0.4,5.200055 z"
   id="path18" /><path
   class="st0"
   d="m 1407.8232,882.16017 c -1.8,-0.2 -4.2999,0.3 -5.1999,-0.60001 -0.9,-1.00001 -0.3,-3.40003 -0.4,-5.20005 0,-1.00001 0,-2.00003 0,-3.00004 -0.1,-1.20001 0.5,-1.30001 1.5,-1.30001 2.6999,0.1 5.2999,0.1 7.9999,0 1.5,-0.1 1.6,0.70001 1.5,1.80002 -0.1,1.00001 0,2.00002 0,3.00003 0,1.60002 -0.1,3.30004 -0.1,4.90005 -1.8,0.10001 -3.6,0.20001 -5.3,0.40001 z"
   id="path20" /><path
   class="st0"
   d="m 56.336467,305.45394 c 0.1,-1.60002 0.199998,-3.30004 0.199998,-4.90005 1.799983,-0.1 3.599965,-0.30001 5.299949,-0.30001 4.499955,0 4.499955,0 4.499955,4.20005 0,2.10002 -0.1,4.30005 -0.199998,6.40007 -2.299977,0.1 -4.599955,0.2 -6.799933,0.3 -0.299997,0 -0.699993,0 -0.99999,0 -1.299987,0.2 -2.199979,-0.1 -1.999981,-1.80002 0.199998,-1.20001 0.1,-2.50002 0,-3.90004 0.1,0 0.1,0 0,0 z"
   id="path22" /><path
   class="st0"
   d="m 1331.424,918.06056 c -0.2,1.60001 0.2,3.60004 -0.7,4.70005 -0.6,0.7 -2.8,0.3 -4.2,0.3 -1.6,0 -3.7999,0.50001 -4.6999,-0.3 -0.9,-0.80001 -0.5,-3.10004 -0.5,-4.70005 0,-1.90002 0.2,-3.90005 0.3,-5.80007 1.7999,-0.1 3.5999,-0.1 5.3999,-0.2 0.8,0 1.7,0.1 2.5,0 1.7,-0.2 1.9,0.70001 1.8,2.00002 -0.1,1.30002 0,2.70003 0,4.00005 0,-0.1 0,-0.1 0.1,0 z"
   id="path24" /><path
   class="st0"
   d="m 387.63322,25.450916 c -1.59998,-0.100001 -3.29997,-0.200002 -4.89995,-0.200002 -0.1,-1.800019 -0.3,-3.600039 -0.3,-5.300057 0,-4.500049 0,-4.500049 4.19996,-4.500049 2.09998,0 4.29996,0.100001 6.39994,0.200002 0.1,2.300025 0.2,4.60005 0.29999,6.800074 0,0.500005 0,1.000011 0,1.500016 0.1,1.000011 -0.1,1.600017 -1.29998,1.500016 -1.39999,-0.100001 -2.89997,-0.100001 -4.39996,0 0,-0.100001 0,0 0,0 z"
   id="path26" /><path
   class="st0"
   d="m 795.62922,392.25488 c -1.59998,-0.1 -3.29997,-0.2 -4.89995,-0.2 -0.1,-1.80002 -0.3,-3.60004 -0.3,-5.30006 0,-4.50005 0,-4.50005 4.19996,-4.50005 2.09998,0 4.29996,0.1 6.39994,0.2 0.1,2.30003 0.2,4.60005 0.3,6.80008 0,0.5 0,1.00001 0,1.50001 0.1,1.00001 -0.1,1.60002 -1.29999,1.50002 -1.49999,-0.1 -2.99997,0 -4.39996,0 0,0 0,0 0,0 z"
   id="path28" /><path
   class="st0"
   d="m 999.52722,433.25532 c -1.59998,-0.1 -3.79996,0.4 -4.69995,-0.4 -0.89999,-0.80001 -0.4,-3.10004 -0.49999,-4.70005 0,-0.50001 0,-1.00002 0,-1.50002 0,-3.50004 0,-3.50004 3.29996,-3.50004 2.49996,0 4.89996,0.1 7.39996,0.2 0.1,2.40003 0.3,4.90006 0.3,7.30008 0,2.40003 0,2.50003 -2.3,2.50003 -1.2,0 -2.3,0 -3.49998,0.1 0,0 0,0 0,0 z"
   id="path30" /><path
   class="st0"
   d="m 673.43042,25.550917 c -1.69998,-0.200002 -3.89996,0.300004 -4.69995,-0.600006 -0.8,-0.90001 -0.3,-3.100034 -0.3,-4.700051 0,-1.500016 -0.5,-3.70004 0.3,-4.200045 1.09999,-0.800009 3.09997,-0.500006 4.69995,-0.500006 1.59998,0 3.89996,-0.400004 4.69995,0.500006 0.8,0.900009 0.3,3.100033 0.3,4.70005 0,1.500017 0.5,3.70004 -0.3,4.200046 -1.19998,0.700007 -3.09997,0.400004 -4.69995,0.600006 z"
   id="path32" /><path
   class="st0"
   d="m 673.53042,56.251249 c 1.59998,0.100001 3.79996,-0.400004 4.29996,0.300003 0.79999,1.100012 0.49999,3.100034 0.49999,4.700051 0,1.600017 0.4,3.900042 -0.49999,4.700051 -0.89999,0.800008 -3.09997,0.300003 -4.69996,0.300003 -1.49998,0 -3.69996,0.500005 -4.19996,-0.300003 -0.79999,-1.100012 -0.49999,-3.100034 -0.49999,-4.700051 0,-1.600017 -0.4,-3.900042 0.49999,-4.700051 0.8,-0.700007 2.99997,-0.200002 4.59996,-0.300003 z"
   id="path34" /><path
   class="st0"
   d="m 306.13402,147.35223 c -1.39999,-0.1 -3.69996,0.40001 -4.19996,-0.4 -0.79999,-1.10001 -0.49999,-3.10004 -0.49999,-4.70005 0,-1.60002 -0.3,-3.60004 0.49999,-4.70005 0.5,-0.70001 2.79997,-0.30001 4.19996,-0.30001 1.59998,0 3.79996,-0.5 4.69995,0.30001 0.89999,0.80001 0.5,3.00003 0.5,4.70005 0,1.60001 0.39999,3.90004 -0.5,4.70005 -0.79999,0.90001 -2.99997,0.3 -4.69995,0.4 z"
   id="path36" /><path
   class="st0"
   d="m 1249.3248,142.45218 c -0.1,1.60002 0.4,3.80004 -0.3,4.40005 -1.1,0.80001 -3.1,0.5 -4.7,0.5 -1.6,0 -3.8999,0.40001 -4.6999,-0.5 -0.8,-0.90001 -0.3,-3.10004 -0.3,-4.70005 0,-1.50002 -0.5,-3.70004 0.3,-4.20005 1.1,-0.80001 3.0999,-0.5 4.6999,-0.5 1.6,0 3.9,-0.40001 4.7,0.5 0.8,0.80001 0.2,3.00003 0.3,4.50005 z"
   id="path38" /><path
   class="st0"
   d="m 923.42797,183.55262 c -0.1,1.40002 0.4,3.70004 -0.4,4.20005 -1.09999,0.80001 -3.09997,0.5 -4.69995,0.5 -1.59998,0 -3.59996,0.30001 -4.69995,-0.5 -0.7,-0.50001 -0.3,-2.80003 -0.3,-4.20005 0,-1.60001 -0.5,-3.80004 0.3,-4.70005 0.79999,-0.90001 2.99997,-0.5 4.69995,-0.5 1.59998,0 3.89996,-0.40001 4.69995,0.5 0.8,0.90001 0.3,3.10004 0.4,4.70005 z"
   id="path40" /><path
   class="st0"
   d="m 1326.324,188.45268 c -1.6,-0.20001 -3.8999,0.2 -4.6999,-0.60001 -0.8,-0.90001 -0.3,-3.10003 -0.3,-4.80005 0,-1.50002 -0.5,-3.70004 0.3,-4.20005 1.1,-0.80001 3.0999,-0.5 4.6999,-0.5 1.6,0 3.9,-0.40001 4.7,0.5 0.8,0.90001 0.3,3.10004 0.3,4.70005 0,1.50002 0.5,3.70004 -0.3,4.20005 -1.1,0.90001 -3.1,0.5 -4.7,0.70001 z"
   id="path42" /><path
   class="st0"
   d="m 1571.0216,188.35268 c -4.6999,-0.10001 -4.7999,-0.10001 -4.6999,-4.60005 0,-1.80002 0.2,-3.60004 0.3,-5.30006 1.6,-0.1 3.2999,-0.1 4.8999,-0.1 4.7,0 4.8,0 4.7,4.50005 0,1.80002 -0.2,3.60004 -0.3,5.30005 -1.7,0.1 -3.3,0.1 -4.9,0.20001 z"
   id="path44" /><path
   class="st0"
   d="m 632.23082,229.35312 c -1.59998,-0.1 -3.79996,0.4 -4.39995,-0.3 -0.8,-1.10002 -0.5,-3.10004 -0.5,-4.70006 0,-1.60001 -0.39999,-3.90004 0.5,-4.70005 0.89999,-0.80001 3.09997,-0.3 4.69995,-0.3 1.49999,0 3.69996,-0.50001 4.19996,0.3 0.79999,1.10002 0.49999,3.10004 0.49999,4.70005 0,1.60002 0.4,3.90005 -0.49999,4.70006 -0.79999,0.7 -2.99997,0.2 -4.49996,0.3 z"
   id="path46" /><path
   class="st0"
   d="m 755.02962,229.25312 c -4.69995,0 -4.69995,0 -4.69995,-4.50005 0,-0.50001 0,-1.00001 0,-1.50002 0,-4.00004 0,-4.00004 3.79996,-4.00004 1.99998,0 3.89996,0.1 5.89994,0.2 0.1,1.90002 0.3,3.90004 0.3,5.80006 0,4.00005 0,4.00005 -3.79996,4.00005 -0.5,0 -0.99999,0 -1.49999,0 z"
   id="path48" /><path
   class="st0"
   d="m 1367.0236,229.35312 c -4.6999,-0.1 -4.7999,-0.1 -4.6999,-4.60005 0,-1.80002 0.2,-3.60004 0.3,-5.30006 1.6,-0.1 3.2999,-0.1 4.8999,-0.1 4.7,0 4.8,0 4.7,4.50005 0,1.80002 -0.2,3.60004 -0.3,5.30006 -1.6,0 -3.3,0.1 -4.9,0.2 z"
   id="path50" /><path
   class="st0"
   d="m 714.43002,270.45356 c -1.59999,-0.2 -3.89996,0.2 -4.69996,-0.6 -0.79999,-0.90001 -0.29999,-3.10004 -0.29999,-4.80006 0,-1.50001 -0.5,-3.70004 0.29999,-4.20004 1.09999,-0.80001 3.09997,-0.50001 4.69996,-0.50001 1.59998,0 3.89996,-0.4 4.69995,0.50001 0.79999,0.90001 0.3,3.10003 0.3,4.70005 0,1.50002 0.49999,3.70004 -0.3,4.20004 -1.19999,0.80001 -3.09997,0.50001 -4.69995,0.70001 z"
   id="path52" /><path
   class="st0"
   d="m 107.43597,346.45438 c 0,4.70005 0,4.70005 -4.49996,4.70005 -0.49999,0 -0.99999,0 -1.49998,0 -3.999965,0 -3.999965,0 -3.999965,-3.80004 0,-2.00002 0.1,-3.90004 0.199998,-5.90006 1.899981,-0.1 3.899957,-0.3 5.799947,-0.3 3.99996,0 3.99996,0 3.99996,3.80004 0,0.5 0,1.00001 0,1.50001 z"
   id="path54" /><path
   class="st0"
   d="m 719.42997,632.35747 c -0.1,1.40002 0.4,3.70004 -0.4,4.20005 -1.09999,0.8 -3.09997,0.5 -4.69995,0.5 -1.59999,0 -3.59997,0.3 -4.69995,-0.5 -0.7,-0.50001 -0.3,-2.80003 -0.3,-4.20005 0,-1.60002 -0.5,-3.80004 0.3,-4.70005 0.79999,-0.90001 2.99997,-0.50001 4.69995,-0.50001 1.59998,0 3.89996,-0.4 4.69995,0.50001 0.8,0.90001 0.3,3.10003 0.4,4.70005 z"
   id="path56" /><path
   class="st0"
   d="m 1535.422,673.05791 c -0.2,1.60002 0.2,3.60004 -0.7,4.70005 -0.6,0.70001 -2.8,0.3 -4.2,0.3 -1.6,0 -3.2999,-0.1 -4.8999,-0.1 -0.1,-1.80002 -0.3,-3.60004 -0.3,-5.30005 0,-4.50005 0,-4.50005 4.1999,-4.50005 0.3,0 0.7,0 1,0 1.5,0 3.7,-0.50001 4.2,0.3 0.8,1.00001 0.5,3.00003 0.7,4.60005 z"
   id="path58" /><path
   class="st0"
   d="m 1086.3264,469.35571 c -0.1,1.50002 0.4,3.80004 -0.4,4.30005 -1.1,0.80001 -3.1,0.5 -4.7,0.5 -1.6,0 -3.8999,0.40001 -4.6999,-0.5 -0.8,-0.90001 -0.3,-3.10004 -0.3,-4.70005 0,-1.50002 -0.5,-3.70004 0.3,-4.20005 1.1,-0.80001 3.0999,-0.5 4.6999,-0.5 1.6,0 3.9,-0.40001 4.7,0.5 0.9,0.80001 0.4,3.00003 0.4,4.60005 z"
   id="path60" /><path
   class="st0"
   d="m 913.22807,753.95878 c 0.1,-1.60001 -0.4,-3.80004 0.3,-4.40004 1.09999,-0.80001 3.09997,-0.50001 4.69995,-0.50001 1.59999,0 3.89996,-0.4 4.69995,0.50001 0.8,0.90001 0.3,3.10003 0.3,4.70005 0,1.50001 0.5,3.70004 -0.3,4.20004 -1.09998,0.80001 -3.09996,0.50001 -4.69995,0.50001 -1.59998,0 -3.89996,0.4 -4.69995,-0.50001 -0.7,-0.80001 -0.2,-3.00003 -0.3,-4.50005 z"
   id="path62" /><path
   class="st0"
   d="m 1168.3256,795.25923 c -0.1,1.50002 0.4,3.70004 -0.4,4.30005 -1.1,0.80001 -3.1,0.5 -4.7,0.5 -1.6,0 -3.8999,0.40001 -4.6999,-0.5 -0.8,-0.90001 -0.3,-3.10004 -0.3,-4.70005 0,-1.50002 -0.5,-3.70004 0.3,-4.20005 1.1,-0.80001 3.0999,-0.50001 4.6999,-0.50001 1.6,0 3.9,-0.4 4.7,0.50001 0.9,0.80001 0.4,3.00003 0.4,4.60005 z"
   id="path64" /><path
   class="st0"
   d="m 515.43197,836.25967 c -0.1,1.50002 0.39999,3.70004 -0.4,4.30005 -1.09999,0.80001 -3.09997,0.5 -4.69995,0.5 -1.59999,0 -3.89996,0.40001 -4.69996,-0.5 -0.79999,-0.90001 -0.29999,-3.10003 -0.29999,-4.70005 0,-1.50002 -0.5,-3.70004 0.29999,-4.20005 1.09999,-0.80001 3.09997,-0.5 4.69996,-0.5 1.59998,0 3.89996,-0.40001 4.69995,0.5 0.89999,0.80001 0.3,3.00004 0.4,4.60005 z"
   id="path66" /><path
   class="st0"
   d="m 836.42882,841.15973 c -1.69998,-0.20001 -3.89996,0.3 -4.69995,-0.60001 -0.79999,-0.90001 -0.3,-3.10003 -0.3,-4.70005 0,-1.50002 -0.49999,-3.70004 0.3,-4.20005 1.09999,-0.80001 3.09997,-0.5 4.69995,-0.5 1.59999,0 3.89996,-0.40001 4.69996,0.5 0.79999,0.90001 0.29999,3.10004 0.29999,4.70005 0,1.50002 0.5,3.70004 -0.29999,4.20005 -1.19999,0.80001 -3.19997,0.4 -4.69996,0.60001 z"
   id="path68" /><path
   class="st0"
   d="m 229.53477,550.25658 c -0.1,1.60002 0.4,3.80005 -0.3,4.40005 -1.09999,0.80001 -3.09997,0.50001 -4.69995,0.50001 -1.59999,0 -3.89996,0.4 -4.69995,-0.50001 -0.8,-0.90001 -0.3,-3.10003 -0.3,-4.70005 0,-1.50002 -0.5,-3.70004 0.3,-4.20004 1.09998,-0.80001 3.09996,-0.50001 4.69995,-0.50001 1.59998,0 3.89996,-0.4 4.69995,0.50001 0.7,0.8 0.2,3.00003 0.3,4.50004 z"
   id="path70" /><path
   class="st0"
   d="m 1372.4236,346.15438 c -0.2,1.70002 0.3,3.90004 -0.6,4.70005 -0.9,0.80001 -3.1,0.3 -4.7,0.3 -1.5,0 -3.6999,0.50001 -4.1999,-0.3 -0.8,-1.10001 -0.5,-3.10003 -0.5,-4.70005 0,-1.60002 -0.4,-3.90004 0.5,-4.70005 0.9,-0.80001 3.0999,-0.3 4.6999,-0.3 1.5,0 3.7,-0.50001 4.2,0.3 0.7,1.20001 0.4,3.10003 0.6,4.70005 z"
   id="path72" /><path
   class="st0"
   d="m 1285.0244,351.25443 c -1.5,-0.1 -3.6999,0.40001 -4.1999,-0.4 -0.8,-1.10001 -0.5,-3.10003 -0.5,-4.70005 0,-1.60002 -0.3,-3.60004 0.5,-4.70005 0.5,-0.70001 2.7999,-0.3 4.1999,-0.3 1.6,0 3.8,-0.50001 4.7,0.3 0.9,0.80001 0.5,3.00003 0.5,4.70005 0,1.60002 0.4,3.90004 -0.5,4.70005 -0.9,0.90001 -3.1,0.4 -4.7,0.4 z"
   id="path74" />
</svg>
