<?xml version="1.0" encoding="utf-8"?>
<!-- Generator: Adobe Illustrator 25.0.0, SVG Export Plug-In . SVG Version: 6.00 Build 0)  -->
<svg version="1.1"
	 id="Layer_1" sodipodi:docname="CBMWindow-SolidBlack-DarkGray.svg" xmlns:inkscape="http://www.inkscape.org/namespaces/inkscape" xmlns:sodipodi="http://sodipodi.sourceforge.net/DTD/sodipodi-0.dtd" xmlns:svg="http://www.w3.org/2000/svg"
	 xmlns="http://www.w3.org/2000/svg" xmlns:xlink="http://www.w3.org/1999/xlink" x="0px" y="0px" viewBox="0 0 2128 656"
	 style="enable-background:new 0 0 2128 656;" xml:space="preserve">
<style type="text/css">
	.st0{fill:#76BB61;stroke:#000000;stroke-miterlimit:10;}
</style>
<sodipodi:namedview  bordercolor="#ffffff" borderopacity="1" id="namedview7" inkscape:current-layer="Layer_1" inkscape:cx="1036.017" inkscape:cy="300" inkscape:deskcolor="#505050" inkscape:pagecheckerboard="1" inkscape:pageopacity="0" inkscape:showpageshadow="0" inkscape:window-height="923" inkscape:window-maximized="1" inkscape:window-width="1536" inkscape:window-x="0" inkscape:window-y="0" inkscape:zoom="0.39333333" pagecolor="#505050" showgrid="false">
	</sodipodi:namedview>
<g id="g239" transform="matrix(1.6687625,0,0,1.7389488,-949.23715,-324.96884)">
	<path id="path4" d="M920,187c-0.4,0.8,1.2,0.9,0.4,2.4c-0.9,1.7-0.4,4.2-0.4,6.3c0,1.1-0.5,1.4-1.5,1.3c-1.2-0.1-2.3,0-3.5,0
		c-110,0-220,0-329.9,0c-1.6,0-3.9-0.4-4.7,0.4c-0.9,0.9-0.4,3.1-0.4,4.7c0,115.5,0,231,0,346.4c0,1.7,0.1,3.3,0.1,5
		c1.8,0.1,3.6,0.4,5.3,0.4c414.4,0,828.9,0,1243.3,0c1.6,0,3.3-0.1,4.9-0.2c0.1-1.8,0.3-3.6,0.3-5.4c0-115.5,0-231,0-346.4
		c0-1.6,0.4-3.9-0.5-4.7s-3.1-0.3-4.8-0.3c-110.1,0-220.3,0-330.4,0c-1.6,0-3.3-0.1-4.9-0.1c-0.1-1.8-0.3-3.6-0.3-5.4
		c-0.1-1.5,0-3,0-4.5c115.5,0,231,0,346.5,0c1.2,0,2.3,0.1,3.5,0c0.9-0.1,1.1,0.2,1,1c-0.1,1,0,2,0,3c0,123,0,246,0,369
		c0,1-0.1,2,0,3c0.1,0.9-0.2,1.1-1,1c-1.2-0.1-2.3,0-3.5,0c-422,0-844,0-1266,0c-1.5,0-3.6,0.6-4.3-0.2s-0.2-2.8-0.2-4.3
		c0-122.7,0-245.3,0-368c0-1.2,0.1-2.3,0-3.5c-0.1-0.9,0.2-1.1,1-1c1.2,0.1,2.3,0,3.5,0C689,187,804.5,187,920,187L920,187z"/>
</g>
<rect id="rect7" x="19.3" y="18.3" class="st0" width="2091" height="619.9"/>
</svg>
