<?xml version="1.0" encoding="utf-8"?>
<!-- Generator: Adobe Illustrator 25.0.0, SVG Export Plug-In . SVG Version: 6.00 Build 0)  -->
<svg version="1.1"
	 id="Layer_1" inkscape:version="1.2.2 (b0a8486541, 2022-12-01)" sodipodi:docname="CBMWindow-Black.svg" xmlns:inkscape="http://www.inkscape.org/namespaces/inkscape" xmlns:sodipodi="http://sodipodi.sourceforge.net/DTD/sodipodi-0.dtd" xmlns:svg="http://www.w3.org/2000/svg"
	 xmlns="http://www.w3.org/2000/svg" xmlns:xlink="http://www.w3.org/1999/xlink" x="0px" y="0px" viewBox="0 0 2128 656"
	 style="enable-background:new 0 0 2128 656;" xml:space="preserve">
<style type="text/css">
	.st0{fill:#FFFFFF;}
	.st1{fill:#FFFFFF;stroke:#000000;stroke-miterlimit:10;}
</style>
<sodipodi:namedview  bordercolor="#ffffff" borderopacity="1" id="namedview7" inkscape:current-layer="Layer_1" inkscape:cx="289.83051" inkscape:cy="300" inkscape:deskcolor="#505050" inkscape:pagecheckerboard="1" inkscape:pageopacity="0" inkscape:showpageshadow="0" inkscape:window-height="923" inkscape:window-maximized="1" inkscape:window-width="1536" inkscape:window-x="0" inkscape:window-y="0" inkscape:zoom="0.39333333" pagecolor="#505050" showgrid="false">
	</sodipodi:namedview>
<path id="path4" class="st0" d="M586,0.2c-0.7,1.4,2,1.6,0.7,4.2c-1.5,3-0.7,7.3-0.7,11c0,1.9-0.8,2.4-2.5,2.3c-2-0.2-3.8,0-5.8,0
	c-183.6,0-367.1,0-550.5,0c-2.7,0-6.5-0.7-7.8,0.7c-1.5,1.6-0.7,5.4-0.7,8.2c0,200.8,0,401.7,0,602.4c0,3,0.2,5.7,0.2,8.7
	c3,0.2,6,0.7,8.8,0.7c691.5,0,1383.2,0,2074.8,0c2.7,0,5.5-0.2,8.2-0.3c0.2-3.1,0.5-6.3,0.5-9.4c0-200.8,0-401.7,0-602.4
	c0-2.8,0.7-6.8-0.8-8.2s-5.2-0.5-8-0.5c-183.7,0-367.6,0-551.4,0c-2.7,0-5.5-0.2-8.2-0.2c-0.2-3.1-0.5-6.3-0.5-9.4
	c-0.2-2.6,0-5.2,0-7.8c192.7,0,385.5,0,578.2,0c2,0,3.8,0.2,5.8,0c1.5-0.2,1.8,0.3,1.7,1.7c-0.2,1.7,0,3.5,0,5.2
	c0,213.9,0,427.8,0,641.7c0,1.7-0.2,3.5,0,5.2c0.2,1.6-0.3,1.9-1.7,1.7c-2-0.2-3.8,0-5.8,0c-704.2,0-1408.4,0-2112.7,0
	c-2.5,0-6,1-7.2-0.3c-1.2-1.4-0.3-4.9-0.3-7.5c0-213.4,0-426.6,0-639.9c0-2.1,0.2-4,0-6.1C0.1,0.2,0.6-0.1,2,0c2,0.2,3.8,0,5.8,0
	C200.5,0.2,393.3,0.2,586,0.2L586,0.2z"/>
<rect x="19.3" y="18.3" class="st1" width="2091" height="618.7"/>
</svg>
