<?xml version="1.0" encoding="UTF-8" standalone="no"?>
<!-- Generator: Adobe Illustrator 25.0.0, SVG Export Plug-In . SVG Version: 6.00 Build 0)  -->

<svg
   version="1.1"
   id="Layer_1"
   x="0px"
   y="0px"
   viewBox="0 0 2128.0001 655.99999"
   xml:space="preserve"
   sodipodi:docname="CBMWindow-Cyan.svg"
   width="2128"
   height="656"
   inkscape:version="1.2.2 (b0a8486541, 2022-12-01)"
   xmlns:inkscape="http://www.inkscape.org/namespaces/inkscape"
   xmlns:sodipodi="http://sodipodi.sourceforge.net/DTD/sodipodi-0.dtd"
   xmlns="http://www.w3.org/2000/svg"
   xmlns:svg="http://www.w3.org/2000/svg"><defs
   id="defs9" /><sodipodi:namedview
   id="namedview7"
   pagecolor="#505050"
   bordercolor="#ffffff"
   borderopacity="1"
   inkscape:showpageshadow="0"
   inkscape:pageopacity="0"
   inkscape:pagecheckerboard="1"
   inkscape:deskcolor="#505050"
   showgrid="false"
   inkscape:zoom="0.39333333"
   inkscape:cx="289.83051"
   inkscape:cy="300"
   inkscape:window-width="1536"
   inkscape:window-height="923"
   inkscape:window-x="0"
   inkscape:window-y="0"
   inkscape:window-maximized="1"
   inkscape:current-layer="Layer_1" />
<style
   type="text/css"
   id="style2">
	.st0{fill:#5795EB;}
</style>
<g
   id="g239"
   transform="matrix(1.6687625,0,0,1.7389488,-949.23715,-324.96884)"
   style="fill:#7ee7d0;fill-opacity:1"><path
     class="st0"
     d="m 920,187 c -0.4,0.8 1.2,0.9 0.4,2.4 -0.9,1.7 -0.4,4.2 -0.4,6.3 0,1.1 -0.5,1.4 -1.5,1.3 -1.2,-0.1 -2.3,0 -3.5,0 -110,0 -220,0 -329.9,0 -1.6,0 -3.9,-0.4 -4.7,0.4 -0.9,0.9 -0.4,3.1 -0.4,4.7 0,115.5 0,231 0,346.4 0,1.7 0.1,3.3 0.1,5 1.8,0.1 3.6,0.4 5.3,0.4 414.4,0 828.9,0 1243.3,0 1.6,0 3.3,-0.1 4.9,-0.2 0.1,-1.8 0.3,-3.6 0.3,-5.4 0,-115.5 0,-231 0,-346.4 0,-1.6 0.4,-3.9 -0.5,-4.7 -0.9,-0.8 -3.1,-0.3 -4.8,-0.3 -110.1,0 -220.3,0 -330.4,0 -1.6,0 -3.3,-0.1 -4.9,-0.1 -0.1,-1.8 -0.3,-3.6 -0.3,-5.4 -0.1,-1.5 0,-3 0,-4.5 115.5,0 231,0 346.5,0 1.2,0 2.3,0.1 3.5,0 0.9,-0.1 1.1,0.2 1,1 -0.1,1 0,2 0,3 0,123 0,246 0,369 0,1 -0.1,2 0,3 0.1,0.9 -0.2,1.1 -1,1 -1.2,-0.1 -2.3,0 -3.5,0 -422,0 -844,0 -1266,0 -1.5,0 -3.6,0.6 -4.3,-0.2 -0.7,-0.8 -0.2,-2.8 -0.2,-4.3 0,-122.7 0,-245.3 0,-368 0,-1.2 0.1,-2.3 0,-3.5 -0.1,-0.9 0.2,-1.1 1,-1 1.2,0.1 2.3,0 3.5,0 115.5,0.1 231,0.1 346.5,0.1 z"
     id="path4"
     style="fill:#7ee7d0;fill-opacity:1" /></g>
</svg>
