<?xml version="1.0" encoding="UTF-8" standalone="no"?>
<!-- Generator: Adobe Illustrator 25.0.0, SVG Export Plug-In . SVG Version: 6.00 Build 0)  -->

<svg
   version="1.1"
   id="Layer_1"
   x="0px"
   y="0px"
   viewBox="0 0 2134 94"
   xml:space="preserve"
   sodipodi:docname="AtariTitle..svg"
   width="2134"
   height="94"
   inkscape:version="1.2.2 (b0a8486541, 2022-12-01)"
   xmlns:inkscape="http://www.inkscape.org/namespaces/inkscape"
   xmlns:sodipodi="http://sodipodi.sourceforge.net/DTD/sodipodi-0.dtd"
   xmlns="http://www.w3.org/2000/svg"
   xmlns:svg="http://www.w3.org/2000/svg"><defs
   id="defs412" /><sodipodi:namedview
   id="namedview410"
   pagecolor="#505050"
   bordercolor="#ffffff"
   borderopacity="1"
   inkscape:showpageshadow="0"
   inkscape:pageopacity="0"
   inkscape:pagecheckerboard="1"
   inkscape:deskcolor="#505050"
   showgrid="false"
   inkscape:zoom="0.78666667"
   inkscape:cx="784.95763"
   inkscape:cy="181.77966"
   inkscape:window-width="1536"
   inkscape:window-height="923"
   inkscape:window-x="0"
   inkscape:window-y="0"
   inkscape:window-maximized="1"
   inkscape:current-layer="Layer_1" />
<style
   type="text/css"
   id="style245">
	.st0{fill:#EDEDED;}
</style>
<path
   class="st0"
   d="M 0,87 C 0,58 0,29 0,0 c 711.3,0 1422.7,0 2134,0 0,29 0,58 0,87 C 1422.7,87 711.3,87 0,87 Z M 1240,60 c -1.9,0 -3.9,0 -6.1,0 0,-8.9 0,-17.4 0,-25.9 -4.7,0 -9.2,0 -13.9,0 0,8.7 0,17.3 0,25.7 -2,0 -3.9,0 -6,0 0,-8.6 0,-17.1 0,-25.6 -4.7,0 -9.3,0 -13.9,0 0,8.6 0,17.1 0,25.9 2.4,0 4.6,0 7,0 0,2.5 0,4.6 0,6.9 2.3,0 4.4,0 6.6,0 2.1,0 4.2,-0.1 6.3,-0.1 0,-2.6 0,-4.7 0,-6.9 2.3,0 4.5,0 7.1,0 0,2.5 0,4.7 0,6.9 4.4,0 8.5,0 12.9,0 0,-2.4 0,-4.6 0.1,-7.1 2.2,0 4.4,0 6.8,0 0.1,-2.1 0.2,-4 0.3,-6 2.4,0 4.6,0 6.6,0 0,-6.7 0,-13.3 0,-19.7 -4.7,0 -9.1,0 -13.6,0 -0.1,8.7 -0.1,17.3 -0.2,25.9 z m -293,0 c -1.9,0 -3.9,0 -6.1,0 0,-8.9 0,-17.4 0,-25.9 -4.7,0 -9.2,0 -13.9,0 0,8.7 0,17.3 0,25.7 -2,0 -3.9,0 -6,0 0,-8.6 0,-17.1 0,-25.6 -4.7,0 -9.3,0 -13.9,0 0,8.6 0,17.1 0,25.9 2.4,0 4.6,0 7,0 0,2.5 0,4.6 0,6.9 2.3,0 4.4,0 6.6,0 2.1,0 4.2,-0.1 6.3,-0.1 0,-2.6 0,-4.7 0,-6.9 2.3,0 4.5,0 7.1,0 0,2.5 0,4.7 0,6.9 4.4,0 8.5,0 12.9,0 0,-2.4 0,-4.6 0.1,-7.1 2.2,0 4.4,0 6.8,0 0.1,-2.1 0.2,-4 0.3,-6 2.5,0 4.6,0 6.6,0 0,-6.7 0,-13.3 0,-19.7 -4.7,0 -9.1,0 -13.6,0 -0.1,8.7 -0.1,17.3 -0.2,25.9 z m 66.8,-6.1 c 0,-11.5 0,-22.6 0,-33.9 -2.5,0 -4.8,0 -7.1,0 -2.3,0.1 -4.5,-0.3 -6.6,0.2 0,13.4 0,26.5 0,39.8 2.3,0 4.4,0 6.9,0 0,2.4 0,4.7 0,6.9 4.5,0 8.6,0 13,0 0,-2.4 0,-4.6 0,-6.7 2.5,0 4.6,0 7,0 0,2.4 0,4.6 0,6.7 4.5,0 8.6,0 13,0 0,-2.4 0,-4.6 0,-7 2.5,0 4.6,0 6.9,0 0,-2 0,-3.8 0,-5.9 2.4,0 4.7,0 6.8,0 0,-11.5 0,-22.6 0,-33.7 -4.7,0 -9.3,0 -14,0 0,11.3 0,22.4 0,33.5 -2.1,0 -4,0 -6,0 0,-11.3 0,-22.5 0,-33.5 -4.7,0 -9.3,0 -14,0 0,11.4 0,22.5 0,33.7 -1.8,-0.1 -3.6,-0.1 -5.9,-0.1 z M 1307,47.2 c 4.2,0 8.5,0 13.1,0 0,6.5 0,13.1 0,19.6 4.8,0 9.3,0 13.7,0 0,-15.7 0,-31.3 0,-46.7 -4.7,0 -9.1,0 -13.8,0 0,6.5 0,12.8 0,19.1 0,0.1 -0.1,0.3 -0.2,0.4 -0.1,0.1 -0.2,0.2 -0.1,0.1 -4.3,0 -8.5,0 -12.7,0 0,-6.6 0,-13.1 0,-19.6 -4.4,0 -8.7,0 -12.8,0 0,15.7 0,31.1 0,46.8 2.3,0 4.4,0 6.6,0 2.1,0 4.2,-0.1 6.3,-0.1 -0.1,-6.6 -0.1,-13 -0.1,-19.6 z M 839.8,54 c 0,-11.6 0,-22.8 0,-33.9 -4.3,0 -8.4,0 -12.9,0 0,11.3 0,22.6 0,34 -2.5,0 -4.6,0 -7,0 0,2.1 0,4 0,5.8 -2.1,0 -3.9,0 -6,0 0,-13.4 0,-26.6 0,-39.7 -4.8,0 -9.2,0 -13.7,0 -0.6,12.1 -0.4,35.8 0.3,40 2.1,0 4.2,0 6.5,0 0,2.3 0,4.4 0,6.6 6.7,0 13.3,0 20,0 0,-2.3 0,-4.4 0,-6.9 2.4,0 4.7,0 7.1,0 0,-2.1 0,-3.9 0,-5.9 2,0 3.8,0 5.7,0 z m 314,12.9 c 0,-15.7 0,-31.2 0,-46.9 -2.5,0 -4.8,0 -7.1,0 -2.3,0.1 -4.5,-0.3 -6.9,0.3 0,4.7 0,9.1 0,13.7 -2.3,0 -4.5,0 -6.6,0 -2.1,0.1 -4.2,-0.3 -6.4,0.3 0,2 0,3.8 0,5.7 -2.3,0 -4.4,0 -6.6,0 0,6.7 0,13.3 0,20 2.3,0 4.4,0 6.9,0 0,2.4 0,4.6 0,6.8 9.1,0.1 17.9,0.1 26.7,0.1 z m 246.4,-32.7 c 0,15.2 0,30.5 0,45.7 4.7,0 9.1,0 13.9,0 0,-4.4 0,-8.6 0,-13 4.5,0 8.6,0 13,0 0,-2.4 0,-4.6 0,-7 2.5,0 4.6,0 6.8,0 0,-6.5 0,-12.8 0,-19.1 0,-0.1 -0.1,-0.3 -0.2,-0.4 -0.1,-0.1 -0.2,-0.2 -0.5,-0.5 -1.9,0 -4,0 -6.3,0 0,-2 0,-3.7 0,-5.7 -8.9,0 -17.6,0 -26.7,0 z M 167.1,66.9 c 1.9,0 4,0.1 6.1,0.1 2.2,-0.1 4.5,0.3 6.9,-0.3 0,-6.7 0,-13.1 0,-19.7 6.7,-0.1 13.3,0.1 20,-0.1 0,-2.6 0,-4.7 0,-7 2.3,0 4.4,0 6.6,0 0,-4.4 0,-8.6 0,-13 -2.3,0 -4.4,0 -6.9,0 0,-2.4 0,-4.6 0,-6.8 -11.1,0 -21.9,0 -32.8,0 0.1,15.6 0.1,31 0.1,46.8 z M 680,66.8 c 9.3,0 18.1,0 26.8,0 0,-15.7 0,-31.2 0,-46.7 -4.3,0 -8.4,0 -12.9,0 0,4.7 0,9.3 0,14 -4.8,0 -9.2,0 -14,0 0,2.1 0,4 0,6 -2.1,0 -3.9,0 -5.6,0 0,6.7 0,13.3 0,20 2,0 3.8,0 5.8,0 -0.1,2.3 -0.1,4.5 -0.1,6.7 z m -13.2,0.1 c 0,-2.5 0,-4.6 0,-6.9 -6.6,0 -13.1,0 -19.6,0 0,-4.4 0,-8.7 0,-13.1 4.3,0 8.4,0 12.6,0 0,-2.4 0,-4.7 0,-7.1 -4.4,0 -8.5,0 -12.8,0 0,-2.3 0,-4.5 0,-6.6 0.1,-2.1 -0.3,-4.2 0.3,-6.4 6.7,0 13.1,0 19.6,0 0,-2.3 0,-4.4 0,-6.6 -11,0 -21.9,0 -32.7,0 0,15.7 0,31.1 0,46.7 10.9,0 21.7,0 32.6,0 z m 440,-26.9 c 0,-2.3 0,-4.1 0,-6 -8.8,0 -17.4,0 -26.1,0 -0.1,0 -0.3,0.1 -0.4,0.2 -0.1,0.1 -0.2,0.2 -0.2,0.2 0,10.9 0,21.7 0,32.4 4.7,0 9.3,0 14,0 0,-9 0,-17.8 0,-26.5 2.1,0 4,0 6,0 0,9 0,17.8 0,26.5 4.7,0 9.3,0 13.7,0 0,-9 0,-17.8 0,-26.7 -2.2,-0.1 -4.3,-0.1 -7,-0.1 z M 494.2,66.9 c 0,-6.9 0,-13.3 0,-19.9 2.3,0 4.4,0 6.6,0 2.1,0 4.2,0.2 6.1,-0.2 0,-2.5 0,-4.6 0,-6.8 -4.3,0 -8.4,0 -12.6,0 0,-4.4 0,-8.6 0,-13 6.6,0 13.1,0 19.6,0 0,-2.4 0,-4.6 0,-7 -11,0 -21.8,0 -32.6,0 -0.3,0 -0.6,0.1 -1.1,0.2 0,15.5 0,31.1 0,46.7 4.6,0 9,0 14,0 z M 1187,34.2 c -7,0 -13.4,0 -20.1,0 0,2 0,3.7 0,5.9 -2.4,0 -4.7,0 -6.8,0 0,6.8 0,13.3 0,20.1 2.4,0 4.6,0 7,0 0,2.5 0,4.6 0,6.9 6.7,-0.2 13.3,0.2 20,-0.2 0,-2.5 0,-4.6 0,-6.9 2.3,0 4.4,0 6.6,0 0,-6.7 0,-13.3 0,-20.1 -2.3,0 -4.5,0 -6.8,0 0.1,-2 0.1,-3.8 0.1,-5.7 z M 86.9,14.2 c -4.5,0 -8.7,0 -12.8,0 -0.6,15.4 -0.4,55.5 0.3,59.7 4.1,0 8.3,0 12.4,0 0.1,-20 0.1,-39.8 0.1,-59.7 z M 260.1,34 c -0.1,1.9 -0.2,3.8 -0.3,6.1 -2,0 -3.9,0 -5.7,0 0,6.8 0,13.3 0,20.1 2,0 4,0 6,0 0,2.5 0,4.6 0,6.9 6.7,-0.2 13.3,0.2 20,-0.2 0,-2.5 0,-4.6 0,-6.9 2.3,0 4.4,0 6.6,0 0,-6.7 0,-13.3 0,-20.1 -2.3,0 -4.5,0 -6.7,0 -0.1,-2.1 -0.2,-4 -0.3,-5.9 -6.5,0 -12.9,0 -19.6,0 z M 567,40.2 c -2.7,0 -4.8,0 -6.9,0 0,6.6 0,13.1 0,19.9 2.3,0 4.6,0 7,0 0,2.5 0,4.6 0,6.7 6.7,0 13.3,0 19.8,0 0,-2.3 0,-4.5 0,-6.8 -2.3,0 -4.4,0 -6.6,0 -2.1,0 -4.2,-0.1 -6.1,-0.1 0,-2.2 0,-4 0,-5.9 6.6,0 13.1,0 19.6,0 0,-4.7 0,-9.3 0,-14 -2.3,0 -4.4,0 -6.9,0 0,-2.1 0,-4 0,-5.8 -6.8,0 -13.3,0 -19.9,0 0,1.9 0,3.7 0,6 z m 780,26.6 c 7,0 13.4,0 19.9,0 0,-2.3 0,-4.4 0,-6.9 -4.3,0 -8.6,0 -12.8,0 0,-2.1 0,-3.9 0,-6.1 6.7,0 13.3,0 19.7,0 0,-4.8 0,-9.3 0,-14 -2.4,0 -4.6,0 -7,0 0,-2.1 0,-3.9 0,-5.8 -6.6,0 -13.1,0 -19.9,0 0,2 0,3.9 0,6 -2.5,0 -4.6,0 -6.7,0 0,6.7 0,13.3 0,20 2.3,0 4.5,0 6.7,0 0.1,2.4 0.1,4.5 0.1,6.8 z M 66.8,54 c 0,-13.6 0,-26.8 0,-39.9 -2.3,0 -4.4,0 -6.9,0 0,8.7 0,17.2 0,26 -2.1,0 -3.9,0 -6.1,0 0,4.7 0,9.3 0,14.1 -2.5,0 -4.6,0 -6.8,0 -0.1,2.1 -0.2,4 -0.3,6.1 -4.5,0 -8.6,0 -12.7,0 0,4.6 0,9.1 0,13.6 6.7,0 13.2,0 20,0 0,-2.3 0,-4.4 0,-6.9 2.1,0 4,0 6.1,0 0,-4.5 0,-8.6 0,-12.9 C 62.4,54 64.5,54 66.8,54 Z M 94.2,14.1 c 0,13.5 0,26.6 0,39.9 2,0 3.7,0 5.9,0 0,4.4 0,8.7 0,13.1 2.5,0 4.6,0 7.1,0 0,2.4 0,4.7 0,6.8 6.8,0 13.3,0 19.9,0 0,-2.5 0,-4.8 0,-7.1 0,-2.3 0,-4.5 0,-7 -4.6,0 -8.7,0 -13,0 0,-2 0,-3.7 0,-5.9 -2.4,0 -4.7,0 -7.1,0 0,-4.8 0,-9.3 0,-14.1 -2.4,0 -4.7,0 -7.1,0 0,-8.8 0,-17.3 0,-25.8 -2,0.1 -3.8,0.1 -5.7,0.1 z m 299.7,45.7 c -4.9,0 -9.3,0 -13.8,0 0,-2 0,-3.7 0,-5.9 6.7,0 13.2,0 19.8,0 0,-4.8 0,-9.2 0,-14 -2,0 -3.9,0 -6,0 0,-2.1 0,-3.9 0,-5.7 -6.7,0 -13.3,0 -20,0 0,2 0,3.8 0,5.8 -2.3,0 -4.4,0 -6.6,0 0,6.7 0,13.3 0,20 2.3,0 4.4,0 6.9,0 0,2.4 0,4.7 0,6.8 6.8,0 13.3,0 19.8,0 -0.1,-2.2 -0.1,-4.3 -0.1,-7 z m 500,0 c -4.9,0 -9.3,0 -13.8,0 0,-2 0,-3.7 0,-5.9 6.7,0 13.2,0 19.8,0 0,-4.8 0,-9.2 0,-14 -2,0 -3.9,0 -6,0 0,-2.1 0,-3.9 0,-5.7 -6.7,0 -13.3,0 -20,0 0,2 0,3.8 0,5.8 -2.3,0 -4.4,0 -6.6,0 0,6.7 0,13.3 0,20 2.3,0 4.4,0 6.9,0 0,2.4 0,4.7 0,6.8 6.8,0 13.3,0 19.8,0 -0.1,-2.2 -0.1,-4.3 -0.1,-7 z m -574,-26 c -2.2,0 -4,0 -5.8,0 0,-2.3 0,-4.4 0,-6.9 2,0 3.9,0 5.8,0 0,-2.5 0,-4.6 0,-6.7 -4.4,0 -8.6,0 -13,0 0,2.3 0,4.5 0,6.9 -2.4,0 -4.7,0 -7,0 0,2.5 0,4.6 0,6.9 -2,0 -3.7,0 -5.6,0 0,2.1 0,4 0,6.1 2,0 3.8,0 5.9,0 0,9.1 0,18 0,26.8 4.8,0 9.2,0 14,0 0,-9 0,-17.9 0,-27 2.1,0 3.9,0 5.8,0 -0.1,-2 -0.1,-3.8 -0.1,-6.1 z M 540.2,20.1 c 0,15.9 0,31.3 0,46.9 2.5,0 4.8,0 7.1,0 2.3,-0.1 4.6,0.3 6.6,-0.2 0,-15.8 0,-31.2 0,-46.7 -4.7,0 -9.1,0 -13.7,0 z m 840,0 c 0,15.9 0,31.3 0,46.9 2.5,0 4.8,0 7.1,0 2.3,-0.1 4.5,0.3 6.6,-0.2 0,-15.8 0,-31.2 0,-46.7 -4.7,0 -9.1,0 -13.7,0 z M 734.2,34 c 0,2.3 0,4.1 0,6 2,0 3.7,0 5.9,0 0,6.7 0,13.3 0,20 2.5,0 4.6,0 7,0 0,2.4 0,4.7 0,6.8 4.5,0 8.6,0 12.7,0 0,-2.4 0,-4.6 0,-7 -2,0 -3.8,0 -5.8,0 0.2,-6.7 -0.2,-13.3 0.2,-20 2.1,0 3.9,0 5.7,0 0,-2 0,-3.7 0,-5.9 -2,0 -3.9,0 -6,0 0,-2.5 0,-4.6 0,-6.7 -4.7,0 -9.3,0 -14,0 0,2.3 0,4.5 0,6.7 -2,0.1 -3.8,0.1 -5.7,0.1 z m -387,-13.9 c 0,15.9 0,31.3 0,46.9 2.3,0 4.4,0 6.6,0 2.1,0 4.2,0.2 6.1,-0.2 0,-15.8 0,-31.2 0,-46.7 -4.3,0 -8.5,0 -12.7,0 z M 427,46.8 c 4.6,0 8.7,0 13.1,0 -0.2,-2.4 0.2,-4.6 -0.3,-7 -2,0 -3.8,0 -5.8,0 0,-2 0,-3.8 0,-5.6 -9.1,0 -17.9,0 -26.7,0 0,11.1 0,21.9 0,32.7 4.4,0 8.5,0 12.9,0 0,-9 0,-17.9 0,-26.7 2.4,0 4.6,0 6.8,0 0,2.2 0,4.3 0,6.6 z m -212.9,20 c 4.5,0 8.7,0 13.1,0 0,-9.1 0,-17.9 0,-26.7 2.4,0 4.6,0 7,0 0,2.4 0,4.6 0,6.7 4.5,0 8.6,0 12.9,0 -0.3,-2.4 0.2,-4.7 -0.4,-7 -2.4,0 -4.5,0 -6.7,0 0,-2 0,-3.8 0,-5.6 -8.7,0 -17.3,0 -25.9,0 0,10.9 0,21.7 0,32.6 z m 319.7,0.1 c 0,-11.2 0,-22 0,-32.9 -2.5,0 -4.8,0 -7.1,0 -2.2,0.1 -4.5,-0.3 -6.6,0.2 0,11.1 0,21.9 0,32.7 4.7,0 9.1,0 13.7,0 z m 526.4,-32.8 c 0,11.2 0,22 0,32.9 2.5,0 4.8,0 7.1,0 2.3,-0.1 4.5,0.3 6.6,-0.2 0,-11.1 0,-21.9 0,-32.7 -4.7,0 -9.1,0 -13.7,0 z M 339.5,67 c 0.7,-4.2 0.7,-29.1 0,-32.8 -4.1,0 -8.3,0 -12.5,0 0,10.8 0,21.4 0,32.1 0,0.1 0.1,0.3 0.2,0.4 0.1,0.1 0.2,0.2 0.4,0.3 3.9,0 7.9,0 11.9,0 z m 374.6,-0.2 c 4.5,0 8.7,0 12.9,0 0,-10.8 0,-21.4 0,-32 0,-0.1 -0.1,-0.3 -0.2,-0.4 -0.1,-0.1 -0.2,-0.2 -0.2,-0.2 -4.3,0 -8.4,0 -12.6,0 0.1,10.9 0.1,21.7 0.1,32.6 z m 133,0 c 4.6,0 8.7,0 12.9,0 0,-10.8 0,-21.4 0,-32.1 0,-0.1 -0.1,-0.3 -0.2,-0.4 -0.1,-0.1 -0.2,-0.3 -0.1,-0.2 -4.3,0 -8.4,0 -12.6,0 0,11 0,21.8 0,32.7 z M 533.9,20.2 c -4.9,0 -9.3,0 -14,0 0.2,2.4 -0.2,4.6 0.3,6.7 4.8,0 9.2,0 13.7,0 0,-2.4 0,-4.5 0,-6.7 z m 540,0 c -4.8,0 -9.3,0 -13.7,0 0,2.4 0,4.6 0,6.7 4.7,0 9.1,0 13.7,0 0,-2.3 0,-4.4 0,-6.7 z m -746.8,6.6 c 4.5,0 8.6,0 12.7,0 0,-2.4 0,-4.6 0,-6.7 -4.4,0 -8.5,0 -12.7,0 0,2.3 0,4.4 0,6.7 z m 520.1,-6.7 c 0,2.5 0,4.7 0,6.7 4.4,0 8.6,0 12.7,0 0,-2.4 0,-4.5 0,-6.7 -4.3,0 -8.4,0 -12.7,0 z m -120.4,6.8 c 0,-2.5 0,-4.7 0,-6.9 -2.3,0 -4.4,0 -6.6,0 -2.1,0 -4.2,0 -6.1,0 0,2.6 0,4.7 0,6.9 4.3,0 8.4,0 12.7,0 z"
   id="path247" />
<path
   d="m 0,87 c 711.3,0 1422.7,0 2134,0 0,2.3 0,4.7 0,7 -11,0 -22,0 -33,0 -2.1,-1.4 -4.9,-1.4 -7,0 -2.3,0 -4.7,0 -7,0 -1.9,-1.4 -4.1,-1.4 -6,0 -2.3,0 -4.7,0 -7,0 -2.1,-1.4 -4.9,-1.4 -7,0 -2,0 -4,0 -6,0 -2.1,-1.4 -4.9,-1.4 -7,0 -2.3,0 -4.7,0 -7,0 -1.9,-1.4 -4.1,-1.4 -6,0 -2.3,0 -4.7,0 -7,0 -2.1,-1.4 -4.9,-1.4 -7,0 -2,0 -4,0 -6,0 -2.1,-1.4 -4.9,-1.4 -7,0 -2.3,0 -4.7,0 -7,0 -1.9,-1.4 -4.1,-1.4 -6,0 -2.3,0 -4.7,0 -7,0 -2.1,-1.4 -4.9,-1.4 -7,0 -2,0 -4,0 -6,0 -2.1,-1.4 -4.9,-1.4 -7,0 -2.3,0 -4.7,0 -7,0 -1.9,-1.4 -4.1,-1.4 -6,0 -2.3,0 -4.7,0 -7,0 -2.1,-1.4 -4.9,-1.4 -7,0 -2,0 -4,0 -6,0 -2.1,-1.4 -4.9,-1.4 -7,0 -2.3,0 -4.7,0 -7,0 -1.9,-1.4 -4.1,-1.4 -6,0 -2.3,0 -4.7,0 -7,0 -2.1,-1.4 -4.9,-1.4 -7,0 -2,0 -4,0 -6,0 -2.1,-1.4 -4.9,-1.4 -7,0 -2.3,0 -4.7,0 -7,0 -1.9,-1.4 -4.1,-1.4 -6,0 -2.3,0 -4.7,0 -7,0 -2.1,-1.4 -4.9,-1.4 -7,0 -2,0 -4,0 -6,0 -2.1,-1.4 -4.9,-1.4 -7,0 -2.3,0 -4.7,0 -7,0 -1.9,-1.4 -4.1,-1.4 -6,0 -2.3,0 -4.7,0 -7,0 -2.1,-1.4 -4.9,-1.4 -7,0 -2,0 -4,0 -6,0 -2.1,-1.4 -4.9,-1.4 -7,0 -2.3,0 -4.7,0 -7,0 -1.9,-1.4 -4.1,-1.4 -6,0 -2.3,0 -4.7,0 -7,0 -2.1,-1.4 -4.9,-1.4 -7,0 -2,0 -4,0 -6,0 -2.1,-1.4 -4.9,-1.4 -7,0 -2.3,0 -4.7,0 -7,0 -1.9,-1.4 -4.1,-1.4 -6,0 -2.3,0 -4.7,0 -7,0 -2.1,-1.4 -4.9,-1.4 -7,0 C 1164.7,94 582.3,94 0,94 0,91.7 0,89.3 0,87 Z"
   id="path249" />
<path
   class="st0"
   d="m 1747,94 c 2.1,-1.4 4.9,-1.4 7,0 -2.3,0 -4.7,0 -7,0 z"
   id="path251" />
<path
   class="st0"
   d="m 1827,94 c 2.1,-1.4 4.9,-1.4 7,0 -2.3,0 -4.7,0 -7,0 z"
   id="path253" />
<path
   class="st0"
   d="m 1774,94 c 2.1,-1.4 4.9,-1.4 7,0 -2.3,0 -4.7,0 -7,0 z"
   id="path255" />
<path
   class="st0"
   d="m 1787,94 c 2.1,-1.4 4.9,-1.4 7,0 -2.3,0 -4.7,0 -7,0 z"
   id="path257" />
<path
   class="st0"
   d="m 2067,94 c 2.1,-1.4 4.9,-1.4 7,0 -2.3,0 -4.7,0 -7,0 z"
   id="path259" />
<path
   class="st0"
   d="m 1814,94 c 2.1,-1.4 4.9,-1.4 7,0 -2.3,0 -4.7,0 -7,0 z"
   id="path261" />
<path
   class="st0"
   d="m 1894,94 c 2.1,-1.4 4.9,-1.4 7,0 -2.3,0 -4.7,0 -7,0 z"
   id="path263" />
<path
   class="st0"
   d="m 1854,94 c 2.1,-1.4 4.9,-1.4 7,0 -2.3,0 -4.7,0 -7,0 z"
   id="path265" />
<path
   class="st0"
   d="m 1867,94 c 2.1,-1.4 4.9,-1.4 7,0 -2.3,0 -4.7,0 -7,0 z"
   id="path267" />
<path
   class="st0"
   d="m 1907,94 c 2.1,-1.4 4.9,-1.4 7,0 -2.3,0 -4.7,0 -7,0 z"
   id="path269" />
<path
   class="st0"
   d="m 1934,94 c 2.1,-1.4 4.9,-1.4 7,0 -2.3,0 -4.7,0 -7,0 z"
   id="path271" />
<path
   class="st0"
   d="m 1947,94 c 2.1,-1.4 4.9,-1.4 7,0 -2.3,0 -4.7,0 -7,0 z"
   id="path273" />
<path
   class="st0"
   d="m 2094,94 c 2.1,-1.4 4.9,-1.4 7,0 -2.3,0 -4.7,0 -7,0 z"
   id="path275" />
<path
   class="st0"
   d="m 1974,94 c 2.1,-1.4 4.9,-1.4 7,0 -2.3,0 -4.7,0 -7,0 z"
   id="path277" />
<path
   class="st0"
   d="m 1987,94 c 2.1,-1.4 4.9,-1.4 7,0 -2.3,0 -4.7,0 -7,0 z"
   id="path279" />
<path
   class="st0"
   d="m 2014,94 c 2.1,-1.4 4.9,-1.4 7,0 -2.3,0 -4.7,0 -7,0 z"
   id="path281" />
<path
   class="st0"
   d="m 2027,94 c 2.1,-1.4 4.9,-1.4 7,0 -2.3,0 -4.7,0 -7,0 z"
   id="path283" />
<path
   class="st0"
   d="m 2054,94 c 2.1,-1.4 4.9,-1.4 7,0 -2.3,0 -4.7,0 -7,0 z"
   id="path285" />
<path
   class="st0"
   d="m 1801,94 c 1.9,-1.4 4.1,-1.4 6,0 -2,0 -4,0 -6,0 z"
   id="path287" />
<path
   class="st0"
   d="m 2001,94 c 1.9,-1.4 4.1,-1.4 6,0 -2,0 -4,0 -6,0 z"
   id="path289" />
<path
   class="st0"
   d="m 1761,94 c 1.9,-1.4 4.1,-1.4 6,0 -2,0 -4,0 -6,0 z"
   id="path291" />
<path
   class="st0"
   d="m 1841,94 c 1.9,-1.4 4.1,-1.4 6,0 -2,0 -4,0 -6,0 z"
   id="path293" />
<path
   class="st0"
   d="m 2041,94 c 1.9,-1.4 4.1,-1.4 6,0 -2,0 -4,0 -6,0 z"
   id="path295" />
<path
   class="st0"
   d="m 1921,94 c 1.9,-1.4 4.1,-1.4 6,0 -2,0 -4,0 -6,0 z"
   id="path297" />
<path
   class="st0"
   d="m 1881,94 c 1.9,-1.4 4.1,-1.4 6,0 -2,0 -4,0 -6,0 z"
   id="path299" />
<path
   class="st0"
   d="m 2081,94 c 1.9,-1.4 4.1,-1.4 6,0 -2,0 -4,0 -6,0 z"
   id="path301" />
<path
   class="st0"
   d="m 1961,94 c 1.9,-1.4 4.1,-1.4 6,0 -2,0 -4,0 -6,0 z"
   id="path303" />
<path
   d="m 1013.8,53.9 c 2.3,0 4.1,0 6,0 0,-11.2 0,-22.3 0,-33.7 4.7,0 9.3,0 14,0 0,11.1 0,22.2 0,33.5 2.1,0 4,0 6,0 0,-11.1 0,-22.2 0,-33.5 4.7,0 9.3,0 14,0 0,11.1 0,22.2 0,33.7 -2.2,0 -4.4,0 -6.8,0 0,2.1 0,3.9 0,5.9 -2.3,0 -4.4,0 -6.9,0 0,2.4 0,4.6 0,7 -4.5,0 -8.6,0 -13,0 0,-2.1 0,-4.3 0,-6.7 -2.5,0 -4.6,0 -7,0 0,2.1 0,4.4 0,6.7 -4.5,0 -8.6,0 -13,0 0,-2.2 0,-4.5 0,-6.9 -2.5,0 -4.6,0 -6.9,0 0,-13.3 0,-26.4 0,-39.8 2,-0.5 4.3,-0.1 6.6,-0.2 2.3,-0.1 4.6,0 7.1,0 -0.1,11.4 -0.1,22.5 -0.1,34 z"
   id="path305" />
<path
   d="m 1307,47.2 c 0,6.6 0,12.9 0,19.7 -2.1,0 -4.2,0.1 -6.3,0.1 -2.1,0 -4.3,0 -6.6,0 0,-15.7 0,-31.1 0,-46.8 4.1,0 8.4,0 12.8,0 0,6.5 0,12.9 0,19.6 4.3,0 8.4,0 12.7,0 -0.1,0.1 0,0 0.1,-0.1 0.1,-0.1 0.2,-0.3 0.2,-0.4 0,-6.3 0,-12.6 0,-19.1 4.6,0 9.1,0 13.8,0 0,15.4 0,31 0,46.7 -4.4,0 -8.9,0 -13.7,0 0,-6.5 0,-13.1 0,-19.6 -4.5,-0.1 -8.8,-0.1 -13,-0.1 z"
   id="path307" />
<path
   d="m 839.8,54 c -2,0 -3.7,0 -5.7,0 0,2 0,3.7 0,5.9 -2.4,0 -4.6,0 -7.1,0 0,2.5 0,4.6 0,6.9 -6.7,0 -13.3,0 -20,0 0,-2.2 0,-4.3 0,-6.6 -2.3,0 -4.4,0 -6.5,0 -0.7,-4.2 -0.9,-27.9 -0.3,-40 4.4,0 8.9,0 13.7,0 0,13.1 0,26.3 0,39.7 2.1,0 3.9,0 6,0 0,-1.8 0,-3.7 0,-5.8 2.5,0 4.6,0 7,0 0,-11.4 0,-22.6 0,-34 4.5,0 8.6,0 12.9,0 0,11.2 0,22.3 0,33.9 z"
   id="path309" />
<path
   d="m 1153.8,66.9 c -8.9,0 -17.6,0 -26.8,0 0,-2.2 0,-4.4 0,-6.8 -2.5,0 -4.6,0 -6.9,0 0,-6.7 0,-13.3 0,-20 2.2,0 4.3,0 6.6,0 0,-1.9 0,-3.7 0,-5.7 2.2,-0.6 4.3,-0.2 6.4,-0.3 2.1,-0.1 4.3,0 6.6,0 0,-4.6 0,-9 0,-13.7 2.4,-0.5 4.7,-0.2 6.9,-0.3 2.3,-0.1 4.6,0 7.1,0 0.1,15.6 0.1,31.1 0.1,46.8 z m -19.6,-26.8 c 0,6.9 0,13.3 0,19.6 2.1,0 4,0 5.7,0 0,-6.7 0,-13.1 0,-19.6 -2,0 -3.8,0 -5.7,0 z"
   id="path311" />
<path
   d="m 1400.2,34.2 c 9,0 17.8,0 26.7,0 0,1.9 0,3.7 0,5.7 2.3,0 4.4,0 6.3,0 0.3,0.3 0.4,0.4 0.5,0.5 0.1,0.1 0.2,0.3 0.2,0.4 0,6.3 0,12.6 0,19.1 -2.3,0 -4.4,0 -6.8,0 0,2.4 0,4.6 0,7 -4.5,0 -8.6,0 -13,0 0,4.4 0,8.6 0,13 -4.8,0 -9.2,0 -13.9,0 0,-15.3 0,-30.6 0,-45.7 z m 19.6,25.7 c 0,-6.9 0,-13.3 0,-19.6 -2.1,0 -4,0 -5.7,0 0,6.7 0,13.1 0,19.6 2,0 3.8,0 5.7,0 z"
   id="path313" />
<path
   d="m 167.1,66.9 c 0,-15.8 0,-31.3 0,-46.8 10.9,0 21.7,0 32.8,0 0,2.2 0,4.4 0,6.8 2.5,0 4.6,0 6.9,0 0,4.4 0,8.6 0,13 -2.2,0 -4.3,0 -6.6,0 0,2.3 0,4.4 0,7 -6.7,0.1 -13.3,0 -20,0.1 0,6.6 0,13 0,19.7 -2.4,0.6 -4.7,0.2 -6.9,0.3 -2.1,0 -4.2,-0.1 -6.2,-0.1 z m 26.8,-39.7 c -4.9,0 -9.3,0 -13.9,0 0,2.3 0,4.4 0,6.6 0,2.1 -0.2,4.2 0.2,6.1 4.8,0 9.2,0 13.7,0 0,-4.3 0,-8.5 0,-12.7 z"
   id="path315" />
<path
   d="m 680,66.8 c 0,-2.3 0,-4.4 0,-6.7 -1.9,0 -3.7,0 -5.8,0 0,-6.7 0,-13.3 0,-20 1.7,0 3.5,0 5.6,0 0,-2.1 0,-4 0,-6 4.8,0 9.2,0 14,0 0,-4.7 0,-9.3 0,-14 4.4,0 8.6,0 12.9,0 0,15.4 0,31 0,46.7 -8.6,0 -17.4,0 -26.7,0 z m 13.8,-6.9 c 0,-6.9 0,-13.3 0,-20 -2.4,0.2 -4.6,-0.2 -6.7,0.3 0,6.8 0,13.2 0,19.7 2.3,0 4.5,0 6.7,0 z"
   id="path317" />
<path
   d="m 666.8,66.9 c -11,0 -21.7,0 -32.7,0 0,-15.6 0,-31 0,-46.7 10.8,0 21.7,0 32.7,0 0,2.2 0,4.3 0,6.6 -6.4,0 -12.9,0 -19.6,0 -0.6,2.2 -0.2,4.3 -0.3,6.4 -0.1,2.1 0,4.3 0,6.6 4.3,0 8.4,0 12.8,0 0,2.4 0,4.6 0,7.1 -4.1,0 -8.2,0 -12.6,0 0,4.4 0,8.6 0,13.1 6.5,0 13,0 19.6,0 0.1,2.3 0.1,4.4 0.1,6.9 z"
   id="path319" />
<path
   d="m 1106.8,40 c 2.6,0 4.8,0 7,0 0,8.9 0,17.7 0,26.7 -4.4,0 -9,0 -13.7,0 0,-8.7 0,-17.5 0,-26.5 -2,0 -3.9,0 -6,0 0,8.7 0,17.5 0,26.5 -4.7,0 -9.3,0 -14,0 0,-10.7 0,-21.5 0,-32.4 0,0 0.1,-0.1 0.2,-0.2 0.1,-0.1 0.3,-0.2 0.4,-0.2 8.6,0 17.3,0 26.1,0 0,2 0,3.8 0,6.1 z"
   id="path321" />
<path
   d="m 494.2,66.9 c -5,0 -9.4,0 -14,0 0,-15.6 0,-31.2 0,-46.7 0.4,-0.1 0.8,-0.2 1.1,-0.2 10.8,0 21.6,0 32.6,0 0,2.3 0,4.6 0,7 -6.5,0 -13,0 -19.6,0 0,4.4 0,8.6 0,13 4.2,0 8.3,0 12.6,0 0,2.3 0,4.4 0,6.8 -1.9,0.4 -4,0.1 -6.1,0.2 -2.1,0 -4.3,0 -6.6,0 0,6.6 0,13 0,19.9 z"
   id="path323" />
<path
   d="m 1187,34.2 c 0,2 0,3.7 0,5.7 2.3,0 4.4,0 6.8,0 0,6.7 0,13.3 0,20.1 -2.2,0 -4.3,0 -6.6,0 0,2.3 0,4.4 0,6.9 -6.7,0.4 -13.3,0.1 -20,0.2 0,-2.3 0,-4.4 0,-6.9 -2.4,0 -4.6,0 -7,0 0,-6.8 0,-13.3 0,-20.1 2.2,0 4.4,0 6.8,0 0,-2.1 0,-3.9 0,-5.9 6.6,0 13,0 20,0 z m -7.2,25.7 c 0,-6.6 0,-13.2 0,-19.8 -2,0 -3.7,0 -5.7,0 0,6.6 0,13.2 0,19.8 2,0 3.8,0 5.7,0 z"
   id="path325" />
<path
   d="m 86.9,14.2 c 0,19.9 0,39.7 0,59.7 -4.2,0 -8.3,0 -12.4,0 -0.7,-4.1 -0.9,-44.3 -0.3,-59.7 4.1,0 8.2,0 12.7,0 z"
   id="path327" />
<path
   d="m 260.1,34 c 6.7,0 13,0 19.7,0 0.1,1.9 0.2,3.8 0.3,5.9 2.2,0 4.3,0 6.7,0 0,6.7 0,13.3 0,20.1 -2.2,0 -4.3,0 -6.6,0 0,2.3 0,4.4 0,6.9 -6.7,0.4 -13.3,0.1 -20,0.2 0,-2.3 0,-4.4 0,-6.9 -2.1,0 -4,0 -6,0 0,-6.8 0,-13.3 0,-20.1 1.8,0 3.8,0 5.7,0 0.1,-2.3 0.2,-4.2 0.2,-6.1 z m 13.8,6.2 c -2.6,0 -4.7,0 -6.9,0 0.1,6.7 -0.2,13.3 0.2,19.6 2.5,0 4.6,0 6.8,0 -0.1,-6.6 -0.1,-13 -0.1,-19.6 z"
   id="path329" />
<path
   d="m 567,40.2 c 0,-2.3 0,-4.1 0,-6 6.6,0 13.1,0 19.9,0 0,1.8 0,3.7 0,5.8 2.5,0 4.6,0 6.9,0 0,4.7 0,9.3 0,14 -6.6,0 -13,0 -19.6,0 0,1.9 0,3.7 0,5.9 1.9,0 4,0.1 6.1,0.1 2.1,0 4.3,0 6.6,0 0,2.3 0,4.4 0,6.8 -6.5,0 -13,0 -19.8,0 0,-2.1 0,-4.3 0,-6.7 -2.4,0 -4.6,0 -7,0 0,-6.8 0,-13.2 0,-19.9 2.2,0 4.3,0 6.9,0 z m 7.1,6.6 c 2.2,0 4,0 5.7,0 0,-2.4 0,-4.6 0,-6.7 -2,0 -3.8,0 -5.7,0 0,2.3 0,4.4 0,6.7 z"
   id="path331" />
<path
   d="m 1347,66.8 c 0,-2.3 0,-4.4 0,-6.7 -2.3,0 -4.4,0 -6.7,0 0,-6.7 0,-13.3 0,-20 2.1,0 4.3,0 6.7,0 0,-2.1 0,-4 0,-6 6.8,0 13.2,0 19.9,0 0,1.8 0,3.6 0,5.8 2.4,0 4.6,0 7,0 0,4.8 0,9.2 0,14 -6.5,0 -13,0 -19.7,0 0,2.1 0,3.9 0,6.1 4.2,0 8.4,0 12.8,0 0,2.5 0,4.6 0,6.9 -6.6,-0.1 -13,-0.1 -20,-0.1 z m 12.9,-26.6 c -2.2,0 -4,0 -6,0 0.2,2.4 -0.2,4.6 0.2,6.7 2.1,0 3.9,0 5.7,0 0.1,-2.3 0.1,-4.5 0.1,-6.7 z"
   id="path333" />
<path
   d="m 66.8,54 c -2.3,0 -4.4,0 -6.7,0 0,4.3 0,8.4 0,12.9 -2.1,0 -4,0 -6.1,0 0,2.5 0,4.6 0,6.9 -6.7,0 -13.3,0 -20,0 0,-4.6 0,-9 0,-13.6 4.2,0 8.3,0 12.7,0 0.1,-2.1 0.2,-4 0.3,-6.1 2.2,0 4.3,0 6.8,0 0,-4.7 0,-9.3 0,-14.1 2.1,0 3.9,0 6.1,0 0,-8.7 0,-17.3 0,-26 2.5,0 4.6,0 6.9,0 0,13.3 0,26.4 0,40 z"
   id="path335" />
<path
   d="m 94.2,14.1 c 2,0 3.7,0 5.7,0 0,8.5 0,17 0,25.8 2.4,0 4.6,0 7.1,0 0,4.8 0,9.3 0,14.1 2.4,0 4.7,0 7.1,0 0,2.1 0,3.9 0,5.9 4.3,0 8.4,0 13,0 0,2.4 0,4.7 0,7 0,2.3 0,4.6 0,7.1 -6.6,0 -13.1,0 -19.9,0 0,-2.1 0,-4.4 0,-6.8 -2.5,0 -4.6,0 -7.1,0 0,-4.4 0,-8.6 0,-13.1 -2.1,0 -3.9,0 -5.9,0 0,-13.4 0,-26.5 0,-40 z"
   id="path337" />
<path
   d="m 393.9,59.8 c 0,2.6 0,4.8 0,7 -6.5,0 -13,0 -19.8,0 0,-2.1 0,-4.4 0,-6.8 -2.5,0 -4.6,0 -6.9,0 0,-6.7 0,-13.3 0,-20 2.2,0 4.3,0 6.6,0 0,-1.9 0,-3.7 0,-5.8 6.7,0 13.3,0 20,0 0,1.7 0,3.5 0,5.7 2.1,0 4,0 6,0 0,4.8 0,9.2 0,14 -6.5,0 -13.1,0 -19.8,0 0,2.1 0,3.9 0,5.9 4.6,0 9,0 13.9,0 z M 380.2,40.1 c 0,2.6 0,4.7 0,7 2.4,-0.2 4.6,0.2 6.7,-0.3 0,-2.4 0,-4.6 0,-6.7 -2.4,0 -4.5,0 -6.7,0 z"
   id="path339" />
<path
   d="m 893.9,59.8 c 0,2.6 0,4.8 0,7 -6.5,0 -13,0 -19.8,0 0,-2.1 0,-4.4 0,-6.8 -2.5,0 -4.6,0 -6.9,0 0,-6.7 0,-13.3 0,-20 2.2,0 4.3,0 6.6,0 0,-1.9 0,-3.7 0,-5.8 6.7,0 13.3,0 20,0 0,1.7 0,3.5 0,5.7 2.1,0 4,0 6,0 0,4.8 0,9.2 0,14 -6.5,0 -13.1,0 -19.8,0 0,2.1 0,3.9 0,5.9 4.6,0 9,0 13.9,0 z M 880.2,40.1 c 0,2.5 0,4.6 0,6.7 2.4,0 4.6,0 6.7,0 0,-2.4 0,-4.5 0,-6.7 -2.3,0 -4.4,0 -6.7,0 z"
   id="path341" />
<path
   d="m 319.9,33.8 c 0,2.3 0,4.1 0,6.1 -1.9,0 -3.7,0 -5.8,0 0,9.1 0,18 0,27 -4.8,0 -9.2,0 -14,0 0,-8.8 0,-17.7 0,-26.8 -2.1,0 -3.9,0 -5.9,0 0,-2.1 0,-4 0,-6.1 1.9,0 3.7,0 5.6,0 0,-2.3 0,-4.4 0,-6.9 2.4,0 4.6,0 7,0 0,-2.5 0,-4.6 0,-6.9 4.4,0 8.6,0 13,0 0,2.1 0,4.3 0,6.7 -1.9,0 -3.8,0 -5.8,0 0,2.5 0,4.6 0,6.9 1.9,0 3.7,0 5.9,0 z"
   id="path343" />
<path
   d="m 540.2,20.1 c 4.6,0 9.1,0 13.7,0 0,15.5 0,31 0,46.7 -2.1,0.4 -4.3,0.1 -6.6,0.2 -2.3,0.1 -4.6,0 -7.1,0 0,-15.6 0,-31 0,-46.9 z"
   id="path345" />
<path
   d="m 1380.2,20.1 c 4.6,0 9,0 13.7,0 0,15.5 0,30.9 0,46.7 -2,0.5 -4.3,0.1 -6.6,0.2 -2.3,0.1 -4.6,0 -7.1,0 0,-15.6 0,-31 0,-46.9 z"
   id="path347" />
<path
   d="m 734.2,34 c 2,0 3.7,0 5.7,0 0,-2.3 0,-4.4 0,-6.7 4.7,0 9.3,0 14,0 0,2.1 0,4.2 0,6.7 2.1,0 4,0 6,0 0,2.1 0,3.9 0,5.9 -1.8,0 -3.6,0 -5.7,0 -0.4,6.7 -0.1,13.3 -0.2,20 2,0 3.8,0 5.8,0 0,2.4 0,4.6 0,7 -4.1,0 -8.2,0 -12.7,0 0,-2.1 0,-4.4 0,-6.8 -2.5,0 -4.6,0 -7,0 0,-6.7 0,-13.3 0,-20 -2.1,0 -3.9,0 -5.9,0 0,-2 0,-3.8 0,-6.1 z"
   id="path349" />
<path
   d="m 347.2,20.1 c 4.3,0 8.4,0 12.7,0 0,15.5 0,31 0,46.7 -1.9,0.4 -4,0.1 -6.1,0.2 -2.1,0.1 -4.3,0 -6.6,0 0,-15.6 0,-31 0,-46.9 z"
   id="path351" />
<path
   d="m 427,46.8 c 0,-2.3 0,-4.4 0,-6.7 -2.3,0 -4.4,0 -6.8,0 0,8.7 0,17.6 0,26.7 -4.4,0 -8.5,0 -12.9,0 0,-10.7 0,-21.6 0,-32.7 8.8,0 17.7,0 26.7,0 0,1.9 0,3.7 0,5.6 1.9,0 3.7,0 5.8,0 0.6,2.4 0.1,4.6 0.3,7 -4.4,0.1 -8.5,0.1 -13.1,0.1 z"
   id="path353" />
<path
   d="m 214.1,66.8 c 0,-10.9 0,-21.7 0,-32.6 8.6,0 17.2,0 25.9,0 0,1.9 0,3.7 0,5.6 2.3,0 4.4,0 6.7,0 0.6,2.4 0.1,4.6 0.4,7 -4.4,0 -8.5,0 -12.9,0 0,-2 0,-4.3 0,-6.7 -2.5,0 -4.6,0 -7,0 0,8.7 0,17.6 0,26.7 -4.5,0 -8.6,0 -13.1,0 z"
   id="path355" />
<path
   d="m 533.8,66.9 c -4.6,0 -9,0 -13.7,0 0,-10.8 0,-21.6 0,-32.7 2,-0.5 4.3,-0.1 6.6,-0.2 2.3,-0.1 4.6,0 7.1,0 0,10.9 0,21.7 0,32.9 z"
   id="path357" />
<path
   d="m 1060.2,34.1 c 4.6,0 9,0 13.7,0 0,10.8 0,21.6 0,32.7 -2,0.5 -4.3,0.1 -6.6,0.2 -2.3,0.1 -4.6,0 -7.1,0 0,-10.9 0,-21.7 0,-32.9 z"
   id="path359" />
<path
   d="m 1220,59.8 c 0,2.3 0,4.5 0,7.1 -2.1,0 -4.2,0.1 -6.3,0.1 -2.1,0 -4.3,0 -6.6,0 0,-2.3 0,-4.4 0,-6.9 -2.4,0 -4.6,0 -7,0 0,-8.8 0,-17.2 0,-25.9 4.5,0 9.1,0 13.9,0 0,8.6 0,17 0,25.6 2.1,0 4,0 6,0 z"
   id="path361" />
<path
   d="m 927,59.8 c 0,2.3 0,4.5 0,7.1 -2.1,0 -4.2,0.1 -6.3,0.1 -2.1,0 -4.3,0 -6.6,0 0,-2.3 0,-4.4 0,-6.9 -2.4,0 -4.6,0 -7,0 0,-8.8 0,-17.2 0,-25.9 4.5,0 9.1,0 13.9,0 0,8.6 0,17 0,25.6 2.1,0 4,0 6,0 z"
   id="path363" />
<path
   d="m 927,60 c 0,-8.6 0,-17.2 0,-25.9 4.7,0 9.1,0 13.9,0 0,8.5 0,17 0,25.9 2.2,0 4.2,0 6.1,0 0,2.3 0,4.5 0,6.9 -4.4,0 -8.5,0 -12.9,0 0,-2.2 0,-4.4 0,-6.9 -2.6,0 -4.8,0 -7.1,0 z"
   id="path365" />
<path
   d="m 1220,60 c 0,-8.6 0,-17.2 0,-25.9 4.7,0 9.1,0 13.9,0 0,8.5 0,17 0,25.9 2.2,0 4.2,0 6.1,0 0,2.3 0,4.5 0,6.9 -4.4,0 -8.5,0 -12.9,0 0,-2.2 0,-4.4 0,-6.9 -2.6,0 -4.8,0 -7.1,0 z"
   id="path367" />
<path
   d="m 339.5,67 c -4,0 -8,0 -12,0 -0.1,-0.1 -0.3,-0.2 -0.4,-0.3 -0.1,-0.1 -0.2,-0.3 -0.2,-0.4 0,-10.6 0,-21.3 0,-32.1 4.3,0 8.4,0 12.5,0 0.8,3.7 0.8,28.6 0.1,32.8 z"
   id="path369" />
<path
   d="m 714.1,66.8 c 0,-10.9 0,-21.7 0,-32.7 4.2,0 8.3,0 12.6,0 -0.1,-0.1 0.1,0 0.2,0.2 0.1,0.1 0.2,0.3 0.2,0.4 0,10.6 0,21.3 0,32 -4.4,0.1 -8.5,0.1 -13,0.1 z"
   id="path371" />
<path
   d="m 847.1,66.8 c 0,-10.9 0,-21.7 0,-32.7 4.2,0 8.3,0 12.6,0 -0.1,-0.1 0.1,0 0.1,0.2 0.1,0.1 0.2,0.3 0.2,0.4 0,10.6 0,21.3 0,32.1 -4.3,0 -8.4,0 -12.9,0 z"
   id="path373" />
<path
   d="m 947.1,59.8 c 0,-8.4 0,-17 0,-25.7 4.6,0 9,0 13.6,0 0,6.5 0,13 0,19.7 -2,0 -4.1,0 -6.6,0 -0.1,2 -0.2,3.9 -0.3,6 -2.2,0 -4.5,0 -6.7,0 z"
   id="path375" />
<path
   d="m 1240.1,59.8 c 0,-8.4 0,-17 0,-25.7 4.6,0 9,0 13.6,0 0,6.5 0,13 0,19.7 -2,0 -4.1,0 -6.6,0 -0.1,2 -0.2,3.9 -0.3,6 -2.2,0 -4.5,0 -6.7,0 z"
   id="path377" />
<path
   d="m 533.9,20.2 c 0,2.3 0,4.4 0,6.7 -4.5,0 -8.9,0 -13.7,0 -0.5,-2 0,-4.3 -0.3,-6.7 4.7,0 9.1,0 14,0 z"
   id="path379" />
<path
   d="m 1073.9,20.2 c 0,2.3 0,4.4 0,6.7 -4.5,0 -9,0 -13.7,0 0,-2.1 0,-4.3 0,-6.7 4.4,0 8.9,0 13.7,0 z"
   id="path381" />
<path
   d="m 327.1,26.8 c 0,-2.3 0,-4.4 0,-6.7 4.2,0 8.3,0 12.7,0 0,2 0,4.3 0,6.7 -4.1,0 -8.2,0 -12.7,0 z"
   id="path383" />
<path
   d="m 847.2,20.1 c 4.3,0 8.4,0 12.7,0 0,2.2 0,4.3 0,6.7 -4,0 -8.3,0 -12.7,0 0,-2.1 0,-4.2 0,-6.7 z"
   id="path385" />
<path
   d="m 726.8,26.9 c -4.3,0 -8.4,0 -12.7,0 0,-2.2 0,-4.3 0,-6.9 1.9,0 4,0 6.1,0 2.1,0 4.3,0 6.6,0 0,2.3 0,4.4 0,6.9 z"
   id="path387" />
<path
   class="st0"
   d="m 1134.2,40.1 c 1.9,0 3.7,0 5.7,0 0,6.5 0,12.9 0,19.6 -1.7,0 -3.6,0 -5.7,0 0,-6.3 0,-12.7 0,-19.6 z"
   id="path389" />
<path
   class="st0"
   d="m 1419.8,59.9 c -1.9,0 -3.7,0 -5.7,0 0,-6.5 0,-12.9 0,-19.6 1.7,0 3.6,0 5.7,0 0,6.3 0,12.7 0,19.6 z"
   id="path391" />
<path
   class="st0"
   d="m 193.9,27.2 c 0,4.3 0,8.4 0,12.7 -4.5,0 -9,0 -13.7,0 -0.4,-1.9 -0.1,-4 -0.2,-6.1 0,-2.1 0,-4.3 0,-6.6 4.6,0 9,0 13.9,0 z"
   id="path393" />
<path
   class="st0"
   d="m 693.8,59.9 c -2.3,0 -4.4,0 -6.7,0 0,-6.5 0,-13 0,-19.7 2,-0.5 4.3,0 6.7,-0.3 0,6.7 0,13.1 0,20 z"
   id="path395" />
<path
   class="st0"
   d="m 1179.8,59.9 c -1.9,0 -3.7,0 -5.7,0 0,-6.6 0,-13.2 0,-19.8 1.9,0 3.7,0 5.7,0 0,6.6 0,13.2 0,19.8 z"
   id="path397" />
<path
   class="st0"
   d="m 273.9,40.2 c 0,6.6 0,13 0,19.6 -2.2,0 -4.3,0 -6.8,0 -0.4,-6.4 -0.1,-12.9 -0.2,-19.6 2.3,0 4.5,0 7,0 z"
   id="path399" />
<path
   class="st0"
   d="m 574.1,46.8 c 0,-2.3 0,-4.4 0,-6.7 1.8,0 3.6,0 5.7,0 0,2 0,4.3 0,6.7 -1.7,0 -3.5,0 -5.7,0 z"
   id="path401" />
<path
   class="st0"
   d="m 1359.9,40.2 c 0,2.3 0,4.4 0,6.7 -1.8,0 -3.6,0 -5.7,0 -0.5,-2 0,-4.3 -0.2,-6.7 1.9,0 3.7,0 5.9,0 z"
   id="path403" />
<path
   class="st0"
   d="m 380.2,40.1 c 2.3,0 4.4,0 6.7,0 0,2.2 0,4.3 0,6.7 -2,0.5 -4.3,0 -6.7,0.3 0,-2.3 0,-4.5 0,-7 z"
   id="path405" />
<path
   class="st0"
   d="m 880.2,40.1 c 2.3,0 4.4,0 6.7,0 0,2.2 0,4.3 0,6.7 -2,0 -4.3,0 -6.7,0 0,-2.1 0,-4.2 0,-6.7 z"
   id="path407" />
</svg>
